<svg version="1.1" xmlns="http://www.w3.org/2000/svg" xmlns:xlink="http://www.w3.org/1999/xlink" width="137.90729" height="135.53356" viewBox="0,0,137.90729,135.53356"><g transform="translate(-248.59853,-96.61072)"><g stroke="none" stroke-miterlimit="10"><path d="M321.68908,232.14428c-15.49,0 -31,0 -46.48,0c-6.44,0 -6.36,-0.12079 -6.25,-5.9559c0.11,-5.83513 -0.06,-11.45654 0.06,-17.18016c-0.01989,-1.83895 -0.78385,-3.60362 -2.14,-4.94312c-5.54,-6.50413 -11.52,-12.74807 -16.82,-19.51235c-2.25,-2.86181 -1.67,-4.64579 0.18,-6.90366c4.43,-5.417 8.38,-11.27071 13.45,-16.10232c4.85,-4.64579 5.81,-9.63538 5.2,-15.5727c-0.82,-7.98149 -0.62,-6.38333 6.45,-6.39261c13.15333,0 26.30667,0.11149 39.46,0.33451c2.87,0 4.43,-0.69687 5.66,-3.26135c4.41,-9.13363 9.43,-18.0164 12.87,-27.54957c0.64587,-1.75126 1.41417,-3.46146 2.3,-5.11966c4.7,-9.05931 11.06,-9.67255 18.43,-2.38794c8.55,8.44606 17.58,16.47399 26.41,24.67846c0.46,0.42741 1,1.12428 1.52,1.115c7.67,-0.17654 3.56,3.44719 2.14,5.93733c-1.15805,2.24569 -2.64554,4.33134 -4.42,6.19749c-6.34,6.12316 -6.63,13.49139 -6.45,21.42641c0.47,20.44151 0.29,40.88301 0.36,61.32451c0,9.62608 0,9.62608 -10.48,9.62608h-41.45zM253.44911,184.59918c14.72,9.0686 27.07,20.58087 40.28,31.11753c8.52,6.81074 8.75,6.94082 15.7,-1.19862c22.79,-26.72261 44.89,-53.89123 66.58,-81.06915c-10,-9.34734 -17.94,-20.49725 -30.42,-27.31729c-4.27,9.03143 -8.64,18.51815 -13.24,27.92123c-8.45,17.27307 -16.7,34.66692 -28.07,50.51839c-6.16,8.57613 -8.34,8.36244 -14.17,-0.19512c-5.28697,-7.89286 -9.7346,-16.24511 -13.28,-24.93863c-8.84,7.9629 -15.31,17.04078 -23.38,25.16164zM365.2791,159.32606c-17.76,22.94094 -34.6,44.90627 -54.62,65.52432c17.64,0 34.25,-0.04645 50.87,0c2.65,0 3.83,-0.47388 3.81,-3.27065c-0.12,-20.30213 -0.06,-40.65072 -0.06,-62.25367zM314.51911,148.03676h-34.12c6.16,10.22075 10.52,20.73884 17.37,30.57863c6.22836,-9.87658 11.82149,-20.08734 16.75,-30.57863zM289.78909,224.85036l-12.67,-9.97917c-1.25,10.06278 -1.25,10.0535 8.72,9.97917c0.94,-0.0093 1.89,0 3.95,0z" fill="#060503"/><path d="M253.44911,184.59918c8.07,-8.12085 14.54,-17.19873 23.38,-25.16164c3.54303,8.70631 7.99071,17.0711 13.28,24.97579c5.83,8.57613 8,8.77127 14.17,0.19512c11.37,-15.85147 19.62,-33.24531 28.07,-50.51839c4.6,-9.40309 9,-18.88981 13.24,-27.87478c12.48,6.82003 20.47,17.96994 30.42,27.31729c-21.69,27.09428 -43.79,54.30936 -66.58,81.02269c-7,8.13943 -7.18,8.00936 -15.7,1.19862c-13.21,-10.57384 -25.56,-22.08611 -40.28,-31.15471z" fill="#fbc932"/><path d="M365.2791,159.32606c0,21.60295 -0.06,41.95154 0.06,62.30013c0,2.78747 -1.16,3.27993 -3.81,3.27065c-16.62,-0.09292 -33.23,0 -50.87,0c20.02,-20.66449 36.86,-42.62983 54.62,-65.57077z" fill="#e45945"/><path d="M314.51911,148.03676c-4.93825,10.49195 -10.54141,20.70273 -16.78,30.57863c-6.82,-9.8398 -11.22,-20.33928 -17.34,-30.57863z" fill="#e45945"/><path d="M289.78909,224.85036c-2.06,0 -3,0 -4,0c-10,0.07433 -10,0.08362 -8.72,-9.97917z" fill="#e45945"/><path d="M345.58911,106.2153c12.48,6.82003 20.47,17.96994 30.42,27.31729c-1.49806,1.87133 -2.99808,3.74321 -4.50015,5.6155c-10.29769,-5.68621 -23.02049,-10.67124 -35.67682,-12.26294c3.3521,-7.00704 6.59892,-13.97761 9.75697,-20.66983z" fill="#fada7a"/><path d="M309.42911,214.55527c-7,8.13943 -7.18,8.00936 -15.7,1.19862c-7.69483,-6.15926 -15.09786,-12.63693 -22.84748,-18.76458c0.80475,0.11789 1.61345,0.22253 2.42625,0.31315c8.15541,0.90939 18.53678,1.98207 26.591,0.3652c12.05715,-2.42045 22.96441,-6.8737 33.70015,-11.90149c-7.97711,9.64147 -16.0295,19.24728 -24.16992,28.7891z" fill="#d2a82a"/><path d="M276.82911,159.43754c2.86523,7.04074 6.32209,13.85815 10.33724,20.3895c-7.71933,-0.05065 -15.58083,-1.16462 -22.68568,-3.4181c-0.91157,-0.28912 -1.82273,-0.58078 -2.73028,-0.88162c4.74908,-5.45812 9.43005,-11.00158 15.07871,-16.08979z" fill="#fada7a"/><path d="M365.33909,221.58229c0,2.78747 -1.16,3.27993 -3.81,3.27065c-16.62,-0.09292 -33.23,0 -50.87,0c4.23084,-4.36705 8.31966,-8.79218 12.30515,-13.27234c2.70479,0.58658 5.42982,0.83002 7.94201,0.71972c11.81865,-0.51898 23.73869,-3.6065 34.36726,-8.88884c0.01017,6.07887 0.02993,12.12484 0.06558,18.17081z" fill="#b94938"/><path d="M314.5191,148.03676c-0.07045,0.1497 -0.14104,0.29932 -0.21176,0.44889c-9.83351,1.73633 -19.45526,5.30633 -28.31844,9.63405c-1.77596,-3.36737 -3.59116,-6.73903 -5.5898,-10.08295z" fill="#ff735e"/><path d="M289.78909,224.85035c-2.06,0 -3,0 -4,0c-10,0.07433 -10,0.08362 -8.72,-9.97917z" fill="#b94938"/></g></g></svg>