<svg version="1.1" xmlns="http://www.w3.org/2000/svg" xmlns:xlink="http://www.w3.org/1999/xlink" width="370.63052" height="175.24871" viewBox="0,0,370.63052,175.24871"><g transform="translate(-134.68474,-92.36408)"><g stroke-miterlimit="10"><path d="M256.04529,122.9493c2.87437,0.20531 4.46553,0.30797 4.77351,0.41062h25.20205c2.92569,0.46195 4.36288,2.10445 4.36288,5.03014c0,0.51328 -0.71859,3.74695 -2.2071,9.75232c-1.64249,6.51865 -2.5664,10.57357 -2.82304,12.16474c-0.15399,1.07789 -0.51328,2.9257 -1.02656,5.44077c-0.46195,2.30976 -0.66726,4.05491 -0.66726,5.33811c0,0.20531 0.10265,0.92391 0.25664,2.05312c0.15399,1.2832 0.20531,2.36109 0.10265,3.23367c-0.30797,2.82304 -1.79648,4.20889 -4.46553,4.20889c-4.82483,-0.51328 -8.00717,-1.12921 -9.64966,-1.95046l-17.60551,0.15398v11.03552c0.82125,-0.05133 3.8496,-0.66726 9.03373,-1.84781c5.08147,-1.18054 8.16116,-1.74515 9.18771,-1.74515c2.41242,0 4.10624,0.56461 5.03015,1.69383c0.46195,0.61594 0.71859,1.38585 0.71859,2.30976c0,2.36109 -0.46195,5.8514 -1.33453,10.47092c-0.9239,4.61952 -1.38585,8.00717 -1.38585,10.16294c0,0.3593 0.15399,0.76992 0.3593,1.18055c6.92928,0.25664 11.65146,1.02656 14.21786,2.25843c1.23187,0.61594 1.95046,1.33453 2.15577,2.20711v1.74515c0,1.89914 -0.30797,4.05491 -1.02656,6.416c-0.87258,2.82304 -1.38585,4.97882 -1.53984,6.46733c-0.20531,1.69383 -0.25664,4.15757 -0.15399,7.3399c0,1.64249 0.05133,3.38765 0.15399,5.18413c0,0.46195 0,1.18054 0.05133,2.15578c-0.05133,0.87258 -0.20531,1.64249 -0.51328,2.2071c-0.87258,1.59117 -3.02836,2.41242 -6.51866,2.51507l-18.22144,0.15399c-0.15399,0.05133 -1.33453,0.15399 -3.4903,0.25664c-2.05312,0.10265 -3.49031,0.15399 -4.2089,0.15399c-0.87258,0 -10.77888,-0.25664 -29.77024,-0.76992c-1.89914,0 -3.33632,-0.30797 -4.36288,-0.9239c-0.05133,-0.10265 -0.15398,-0.10265 -0.20531,-0.15399c-0.10265,0 -0.20531,0 -0.30797,0c-1.69383,0 -2.72039,-1.12921 -3.07968,-3.33632v-0.51328c-0.76992,0.51328 -1.59116,1.02656 -2.41241,1.53984c-5.59475,3.33632 -11.80544,5.90272 -18.6834,7.6992c-5.74873,1.53984 -10.88153,2.30976 -15.34707,2.30976c-6.98061,0 -13.85856,-0.87257 -20.63386,-2.5664c-2.15578,-0.51328 -4.2089,-1.12922 -6.15936,-1.79648c-1.53984,-0.61594 -2.36109,-0.87257 -2.46374,-0.9239c-5.90272,-2.10445 -9.44435,-3.95226 -10.72755,-5.44076c-0.56461,-0.66726 -0.87258,-1.43719 -0.97523,-2.36109v-2.87437c0,-2.66905 0.66727,-6.62131 2.05312,-11.80544c0.97523,-3.49031 2.05312,-7.08326 3.4903,-10.83021c1.18054,-4.87616 2.30976,-8.87975 3.33632,-12.06208c1.95046,-5.95405 3.95225,-8.9824 6.00538,-8.9824c0.25664,0 1.33453,0.66727 3.07968,2.05312c2.46375,1.89914 4.5682,3.43897 6.31334,4.51686c6.92928,4.36288 13.85856,6.56999 20.83917,6.56999c5.38944,0 9.75232,-1.59117 13.08865,-4.72218c1.12922,-1.07789 2.10445,-2.30976 2.82304,-3.64429c0.56461,-1.07789 0.87258,-1.89914 0.87258,-2.51507c0,-1.33453 -0.46195,-2.61774 -1.38586,-3.8496c-1.43718,-1.95047 -3.69562,-2.87437 -6.82663,-2.72038h-13.60192l-1.69382,0.41062h-15.3984c-7.64787,-0.71859 -13.03731,-3.74694 -16.16832,-9.03372c-2.00179,-3.33632 -2.97703,-7.28858 -2.97703,-11.95943c0,-4.00358 1.2832,-9.03373 3.8496,-15.14176c2.9257,-6.82663 6.15936,-11.34348 9.75232,-13.55059c4.41421,-2.72038 9.54701,-4.7735 15.44973,-6.15936c5.64608,-1.33453 11.29216,-1.89914 16.83558,-1.69383c5.64608,0.20531 10.52224,1.18055 14.52582,2.9257c2.25843,0.97523 4.10625,2.15578 5.59476,3.54163c1.23187,-1.53984 2.36109,-1.48851 3.38765,0.15398c0.46195,0.71859 0.87257,1.64249 1.18054,2.82304c0.25664,0.9239 0.41063,1.59117 0.41063,2.0018c0,2.5664 -0.10265,4.51686 -0.30796,5.90272c-0.05133,0.20531 -0.56461,2.72038 -1.59117,7.59654c-0.10265,0.56461 -0.25664,1.79648 -0.3593,3.59296c-0.15399,1.84781 -0.30797,3.33632 -0.46195,4.31155c-0.20531,0.76992 -0.3593,1.48851 -0.61594,2.10445c1.02656,0.46195 2.00179,0.9239 2.97702,1.43718c1.89914,0.97523 3.64429,2.05312 5.28679,3.23367c0.05133,-2.15578 0.46195,-5.28678 1.2832,-9.49568c0.87258,-4.72217 1.38585,-8.10983 1.48851,-10.00897c0.15399,-3.49031 0.66726,-6.46733 1.53984,-8.87974c0,-0.05133 0.05133,-0.10265 0.05133,-0.15398c-0.15399,-0.51328 -0.20531,-0.76992 -0.20531,-0.82125c0,-3.49031 1.02656,-6.72397 3.02835,-9.75232c2.10445,-3.18233 4.36288,-4.46554 6.82663,-3.90093h17.45152c0.46195,0.10265 2.15578,0.25664 5.1328,0.46195M250.29655,130.18655h-15.19309c-1.02656,0.3593 -1.89914,1.18054 -2.5664,2.51507c-0.41063,0.76992 -0.87257,2.05312 -1.38585,3.95226c-0.25664,0.97523 -0.51328,1.79648 -0.76992,2.41242c-0.15399,1.48851 -0.41062,3.64429 -0.82125,6.416c-0.66726,4.41421 -0.97523,7.44257 -0.97523,9.08506c0,0.3593 -0.25664,2.10444 -0.76992,5.18412c-0.51328,3.07968 -0.76992,4.72218 -0.76992,4.82484c0,0.10265 0.10265,0.66727 0.20531,1.69383c0.05133,1.18054 0.05133,2.2071 -0.05132,3.07968c-0.15399,1.12921 -0.41063,2.05312 -0.87258,2.72038c0.61594,0.76992 1.18054,1.59116 1.74515,2.46374c2.5664,4.00358 4.67085,8.21248 6.31335,12.62669c1.79648,4.82483 2.66905,8.9824 2.66905,12.57536c0,12.57536 -4.72217,22.99495 -14.21785,31.25876c0.15399,0.82125 0.25663,1.69383 0.30796,2.61773c0.3593,-0.10265 0.76992,-0.15398 1.18054,-0.25664c2.61773,-0.51328 6.62131,-0.71859 12.06208,-0.61594c3.07968,0.05133 7.85318,0.25664 14.21786,0.51328c5.33811,0.15399 9.23904,0 11.65146,-0.46195l17.45152,-0.25664c0,-0.56461 -0.05132,-1.48851 -0.15398,-2.82304c-0.10265,-1.2832 -0.15399,-2.15577 -0.15399,-2.5664c0,-0.87258 0.41062,-3.8496 1.23187,-8.93107c0.61594,-3.74695 1.02656,-6.36468 1.33453,-7.90452c-3.02835,-0.10265 -6.87795,-0.20531 -11.5488,-0.25664c-2.41242,0 -4.72218,0 -6.92928,0c-2.66906,0.20531 -5.28678,0.3593 -7.85318,0.51328c-1.53984,0.10265 -2.51507,0.15398 -2.9257,0.15398c-2.25843,0 -3.79827,-0.66726 -4.61952,-1.95046c-0.20531,-0.41063 -0.3593,-0.82125 -0.46195,-1.33453l-0.05133,-0.56461c0,-1.79648 1.02656,-2.97702 3.02835,-3.54163c1.95047,-0.51328 6.46733,-0.97523 13.65325,-1.33453c1.07789,0 2.10445,0 3.07968,0c-0.15399,-0.87258 -0.25664,-1.84781 -0.25664,-2.9257c0,-0.97523 0,-1.43718 0,-1.48851c0,-2.10445 0.10265,-3.90093 0.30796,-5.38944c0.20531,-1.74515 0.56461,-3.49031 1.12922,-5.18413v-2.30976c-3.28499,0.71859 -6.36467,1.43718 -9.23904,2.05312c-5.64608,1.2832 -9.13638,1.89914 -10.41958,1.89914c-3.28499,0 -5.03015,-1.64249 -5.1328,-4.87616c0,-1.02656 0.10265,-2.30976 0.41063,-3.8496c0.3593,-1.84781 0.51328,-2.77171 0.51328,-2.82304c0.10265,-1.53984 0.05133,-3.79828 -0.20531,-6.72397c-0.30797,-2.77171 -0.46195,-4.41421 -0.46195,-4.82484c0,-1.23187 0.10265,-2.00179 0.25664,-2.30976c0.41063,-0.87258 1.64249,-1.6425 3.59296,-2.30976h22.58432c0.25664,0.05133 0.71859,0.15399 1.43718,0.25664c0.76992,0.10265 1.6425,0.20531 2.66906,0.25664l1.2832,0.15399c0.15399,-4.15757 0.82125,-9.18771 1.95046,-14.93645c0.97523,-4.7735 2.20711,-9.85498 3.74695,-15.19309l-21.30112,-0.25664c-0.46195,-0.10265 -2.15578,-0.25664 -5.1328,-0.46195c-2.87437,-0.20531 -4.46553,-0.3593 -4.7735,-0.46195M207.64298,137.98841c0.05133,-0.46195 0.10265,-0.87258 0.20531,-1.23188c-0.87257,-0.41063 -1.84781,-0.76992 -2.82304,-1.18054c-4.56819,-1.79648 -8.67443,-2.72038 -12.31872,-2.72038c-16.93824,0 -28.74368,4.00358 -35.57031,12.01075c-4.10624,4.77351 -6.15936,10.67622 -6.15936,17.70816c0,2.77171 0.71859,5.28679 2.10445,7.64787c2.2071,3.69562 5.80007,5.59476 10.72756,5.69741h13.60192l1.69383,-0.41063h14.88512c5.95405,0.51328 10.11162,2.41242 12.57536,5.64608c1.64249,2.15578 2.46374,4.87616 2.46374,8.21248c0,1.23187 -0.30797,2.72038 -0.97523,4.51686c-0.92391,2.30976 -2.15577,4.36288 -3.74694,6.26201c-4.51686,5.28679 -11.13818,7.95584 -19.76128,7.95584c-3.07968,0 -6.82662,-0.71859 -11.29216,-2.15578c-4.10624,-1.48851 -6.416,-2.30976 -6.92928,-2.46374c-1.2832,-0.3593 -3.07968,-1.18054 -5.28678,-2.5664c-2.41241,-1.53984 -4.00359,-2.5664 -4.87616,-3.07968c-0.66727,1.64249 -2.30976,6.62131 -4.92749,15.0391c-3.02835,9.75232 -4.56819,15.70637 -4.56819,17.75949c0,2.36109 4.41421,4.51686 13.24263,6.46733c7.6992,1.69383 14.62848,2.5664 20.78784,2.5664c14.57716,0 26.69056,-4.46554 36.34023,-13.34528c4.15757,-3.79827 7.3399,-8.10983 9.64966,-12.88333c2.15578,-4.61952 3.28499,-9.13639 3.28499,-13.65325c0,-2.97702 -1.23187,-7.18592 -3.64429,-12.62669c-2.25843,-4.97881 -4.51686,-8.87975 -6.77529,-11.60013c-1.2832,-1.59117 -3.8496,-3.4903 -7.59654,-5.64608c-4.31155,-2.46374 -8.21248,-4.00358 -11.65146,-4.51686c-3.28499,-0.51328 -6.92929,-0.82125 -10.98419,-0.97523c-4.10624,-0.10265 -6.92928,-0.15399 -8.52045,-0.25664c-2.61773,-0.15399 -4.46553,-0.51328 -5.54342,-1.07789c-1.2832,-0.61594 -1.95047,-1.74515 -1.95047,-3.33632c0,-1.02656 0.41063,-1.95046 1.18055,-2.72038c1.12922,-1.12921 2.92569,-1.69383 5.38944,-1.69383c8.9824,0 16.93824,0.97523 23.81619,2.87437c0.15399,-1.43718 0.66726,-4.10624 1.48851,-8.00717c0.87257,-4.10624 1.43718,-6.72397 1.74515,-7.85318c0.10265,-0.41063 0.3593,-1.84781 0.7186,-4.36288M436.0526,237.20544c1.64249,2.25843 3.13101,4.2089 4.36288,5.85139c0.46195,0.76992 0.71859,2.20711 0.71859,4.36288c0,4.56819 -2.9257,8.36646 -8.72576,11.34348c-4.97881,2.5664 -10.36825,3.8496 -16.16832,3.8496c-8.62311,0 -14.62848,-2.30976 -17.9648,-6.82663c-1.69383,-2.30976 -2.5664,-4.97882 -2.5664,-7.90451c0,-5.95405 3.02835,-10.52224 9.13639,-13.65325c1.95047,-0.97523 4.46554,-1.95046 7.54522,-2.87436c3.79827,-1.12921 5.80006,-1.74516 6.0567,-1.84781c2.97703,-1.18054 6.46733,-0.56461 10.47091,1.79648c2.72039,1.59117 5.08148,3.54163 7.13459,5.90272M429.37996,241.26035c-3.18234,-2.77171 -6.51866,-3.90093 -10.00896,-3.38765c-5.54343,0.66726 -9.80364,2.15578 -12.78067,4.41421c-2.41242,1.84781 -3.64429,3.79827 -3.64429,5.85139c0,1.48851 0.82125,2.9257 2.46375,4.26023c2.15578,1.69383 5.03015,2.5664 8.72576,2.5664c3.18234,0 7.03194,-0.76992 11.5488,-2.2071c5.18413,-1.69383 7.80186,-3.49031 7.80186,-5.38944c0,-0.66726 -0.41063,-1.59117 -1.12922,-2.72038c-0.76992,-1.23187 -1.74516,-2.36109 -2.97703,-3.38765M359.06059,211.2848c1.95047,-2.36109 3.95225,-4.10624 6.15936,-5.18413c2.25843,-1.18054 4.41421,-1.53984 6.36468,-0.97523c6.31335,0.05133 11.60013,3.4903 15.91168,10.2656c1.53984,2.41242 2.77171,5.03015 3.74694,7.85319c0.82125,2.36109 1.23187,4.15757 1.23187,5.38944c0,0.87258 -0.25664,2.15578 -0.76992,3.79827c-0.66726,2.36109 -1.69382,4.46553 -2.97702,6.416c-3.90093,5.80006 -9.70099,8.72576 -17.40019,8.72576c-7.95584,0 -13.44793,-3.131 -16.42496,-9.34169c-1.48851,-3.02835 -2.20711,-6.51866 -2.20711,-10.41959c0,-2.82304 0.61593,-5.69741 1.79648,-8.72576c1.12921,-2.87437 2.66906,-5.49209 4.56819,-7.80185M366.91378,212.92729c-4.87616,4.46553 -7.28857,9.44435 -7.3399,14.98778c0,2.20711 0.51328,4.46554 1.53984,6.72397c1.59117,3.59296 4.10624,5.38944 7.44256,5.38944c6.92928,0 11.65146,-1.95046 14.21786,-5.80006c1.2832,-1.95047 1.89914,-3.90093 1.79648,-5.90272c0,-0.30797 -0.46195,-1.59116 -1.38585,-3.79827c-0.9239,-2.20711 -1.38585,-3.38765 -1.43718,-3.54164c-0.76992,-2.51507 -1.69383,-4.05491 -2.82304,-4.67084c-0.46195,-0.20531 -1.53984,-0.30797 -3.23367,-0.30797c-0.66726,0 -1.12922,-0.20531 -1.33453,-0.61594c-0.20531,-0.56461 -0.3593,-0.97523 -0.56461,-1.2832c-0.76992,-1.18054 -3.02835,-1.59117 -6.87795,-1.18054M442.98188,110.16863c19.6073,4.56819 34.54375,12.31872 44.912,23.40557c4.20889,4.51686 7.39123,9.39302 9.54701,14.57716c1.89914,4.61952 2.87437,9.13638 2.87437,13.60192c0,4.97881 -0.61593,9.03373 -1.79648,12.16474c-1.64249,4.41421 -4.82483,8.46912 -9.49568,12.06208c-2.15578,1.64249 -6.15936,3.69562 -12.11341,6.15937c-4.72217,1.95047 -8.16116,3.23366 -10.31693,3.8496c-4.20889,1.43718 -7.28857,2.36109 -9.23904,2.82304c-2.82304,0.66726 -9.23904,1.33453 -19.248,2.05312c0,0.05133 2.2071,2.66906 6.56998,7.95584c3.90093,4.67085 5.85139,7.64787 5.85139,8.9824c0,1.07789 -0.25664,1.84781 -0.76992,2.30976c-1.12921,1.02656 -3.49031,1.53984 -7.18592,1.53984c-0.66726,0 -1.79648,-0.05133 -3.33632,-0.15399c-1.53984,-0.10265 -2.46375,-0.20531 -2.72039,-0.25664l-24.27814,-0.15399c-6.87795,-0.15399 -11.39481,-1.02655 -13.49926,-2.61772c-0.76992,-0.61594 -1.28321,-1.33453 -1.48852,-2.20711c-0.10266,-0.3593 -0.15398,-1.07789 -0.15398,-2.15578c0,-2.51507 0.9239,-5.74874 2.87436,-9.75232c2.30976,-4.36288 3.90093,-7.49389 4.67085,-9.29037c1.23187,-2.82304 2.36109,-5.74874 3.4903,-8.87975c0.9239,-2.5664 1.53983,-4.10624 1.8478,-4.67085c0.51328,-0.97523 1.18054,-1.53984 2.0018,-1.79648c0.66726,-0.20531 2.00179,-0.30797 4.05491,-0.30797c5.44077,0 11.39481,-0.82125 17.86214,-2.41242c2.61773,-0.66726 5.64608,-1.53984 9.08506,-2.72038c5.38944,-2.05312 8.77709,-3.8496 10.21427,-5.38944c0.61593,-0.71859 1.02656,-1.48851 1.18054,-2.30976c0.10266,-0.46195 0.15399,-1.2832 0.15399,-2.51507c0,-1.43718 -0.10266,-2.46375 -0.20532,-3.02836c-0.30797,-1.48851 -1.07788,-2.72038 -2.25843,-3.74694c-3.38765,-3.02835 -10.31693,-4.51686 -20.83917,-4.51686c-10.21427,0 -17.65683,0.9239 -22.22502,2.72038c-0.56461,0.25664 -1.38585,0.66726 -2.46375,1.23187c-1.79648,5.54343 -4.41421,14.37184 -7.85318,26.5879c-4.05491,13.19129 -7.08327,19.81261 -9.13639,19.81261c-1.18054,0 -2.05311,-0.25664 -2.61773,-0.66726c-0.51328,-0.56461 -1.12921,-0.97523 -1.69383,-1.2832c-2.30976,-1.18054 -8.00717,-1.53984 -17.14355,-1.02656c-5.74874,0.25664 -8.62311,-0.92391 -8.62311,-3.49031c0,-0.46195 0.46196,-2.15578 1.33453,-5.1328c0.76992,-2.61773 1.2832,-4.26022 1.48851,-4.87616c-0.05133,-1.74515 0.05133,-3.23367 0.20531,-4.51686c-2.97703,-0.51328 -6.46733,-1.18054 -10.47091,-2.05312c-8.52045,-2.00179 -12.88333,-3.02835 -13.08864,-3.07968v22.68698c-0.35929,2.05312 -0.51328,5.28679 -0.51328,9.64966c0,4.61952 0.25664,8.36647 0.76992,11.34349c0.51328,2.97702 0.76992,5.59475 0.76992,7.90451c0,2.25843 -0.46195,3.69562 -1.33453,4.36288c-1.64249,1.23187 -4.92749,1.23187 -9.85498,0h-21.8144c-0.9239,0.41063 -2.72038,0.87257 -5.44076,1.2832c-2.5664,0.41063 -4.51686,0.61594 -5.95405,0.61594c-2.46374,0 -4.00358,-0.76992 -4.61952,-2.30976c-0.20531,-0.51328 -0.30797,-1.02656 -0.30797,-1.64249c0.05133,-0.51328 0.05133,-0.82124 0.05133,-0.87257c0,-5.1328 2.87437,-15.60372 8.52045,-31.41274c4.2089,-11.9081 7.6992,-20.83917 10.47091,-26.89587c-2.36109,0.15399 -6.67264,1.12922 -12.98598,2.87437c-5.85139,1.69383 -8.82841,2.51507 -8.87974,2.51507c-1.95047,0 -3.23367,-0.71859 -3.74695,-2.05312c-0.15399,-0.46195 -0.25664,-1.33453 -0.25664,-2.72038c0,-2.61773 1.07789,-6.87796 3.13101,-12.78068c2.30976,-6.10804 3.69562,-10.06029 4.2089,-11.85677c0.51328,-1.74515 0.97523,-4.10624 1.33453,-7.08326c0.41063,-3.33632 0.71859,-5.80006 0.9239,-7.39123c0.82125,-5.54342 2.41241,-8.82841 4.72217,-9.75232h20.5312c8.16116,1.2832 17.09222,2.30976 26.79322,3.07968c5.18413,0.41062 11.85677,0.87257 19.91527,1.43718c0.15398,0 0.25664,0.05133 0.41062,0.05133c0,-0.05133 0,-0.10265 0,-0.15398c0.05133,-0.92391 0.10265,-1.38586 0.10265,-1.48851c0,-2.10445 0.25664,-4.61952 0.76992,-7.59654c0.51328,-2.97702 0.76992,-6.00538 0.76992,-8.9824c0.15398,-0.82125 0.30797,-2.25844 0.41062,-4.31155c0.10266,-1.84781 0.25664,-3.23366 0.46195,-4.15757c0.51328,-2.10445 3.285,-3.38765 8.31514,-3.79828c4.36288,-0.3593 9.18771,-0.10265 14.57715,0.87258h17.70817c1.64249,-0.3593 6.00538,-0.71859 12.98599,-1.02656c1.64249,0.3593 2.72038,0.97523 3.28499,1.95046c0.30797,0.51328 0.46195,1.18054 0.46195,2.10445c0,0.46195 -1.23188,4.05492 -3.64429,10.83021c-0.87257,2.36109 -1.59117,4.51686 -2.25844,6.416c0.9239,-1.59117 1.69383,-3.02836 2.30977,-4.31155c0.41062,-0.82125 0.97523,-2.15578 1.69382,-3.90093c0.87257,-1.38586 2.30976,-2.10445 4.36288,-2.25844c2.25843,-0.15399 4.72218,0.05133 7.33991,0.56461c3.8496,0.82125 6.36467,1.2832 7.54522,1.38586M409.1054,105.70309h-17.91348c-0.71859,-0.15399 -5.74873,-0.46195 -15.14176,-1.02656c-0.71859,4.67085 -1.23187,9.80365 -1.53984,15.3984c-0.05133,0.20531 0,1.38586 0.05133,3.59296c0.05133,1.95046 0,3.54163 -0.15398,4.82483c-0.05133,0.25664 -0.05133,0.51328 -0.10266,0.76992c1.43718,0.3593 2.66906,0.71859 3.59296,1.18054c2.87437,1.33453 4.31155,3.49031 4.31155,6.36468c0,1.2832 -0.66726,5.38944 -1.89914,12.21606c-1.02656,5.69741 -1.74516,9.54701 -2.20711,11.49747c-0.35929,1.64249 -0.51328,3.95226 -0.41062,7.03194c0.10266,4.2089 0.15399,6.67264 0.10266,7.3399c-0.10266,2.61773 -0.61593,4.51687 -1.43718,5.80007c-1.02656,1.53984 -2.72039,2.30976 -5.03015,2.30976c-0.25664,0 -0.46196,0 -0.66727,0c-0.05133,2.05312 -0.76992,5.08148 -2.05312,9.13639c8.82842,0.20531 14.37185,0.56461 16.63027,1.02656l1.69383,-0.15399c2.82304,-9.95764 4.97881,-17.29753 6.416,-21.96838c2.51507,-8.05849 5.03015,-15.34708 7.54522,-21.91706c2.20711,-5.69741 4.7735,-12.98598 7.6992,-21.96838c3.95225,-12.06208 6.31335,-19.29933 7.18592,-21.76307c-2.9257,0 -5.1328,0.15398 -6.67264,0.41062M426.04364,123.35992c-0.51328,1.23187 -1.02656,2.15577 -1.53984,2.82304c-0.97523,1.59117 -3.18233,5.1328 -6.62131,10.41958c-2.82304,4.46553 -4.92749,7.90452 -6.31334,10.31693l-0.15399,0.41062c0.15398,0 0.61593,-0.10265 1.43718,-0.35929c1.07789,-0.3593 2.30976,-0.61594 3.69562,-0.82125c4.97881,-0.76992 12.72934,-1.18054 23.25158,-1.18054c9.54701,0 16.06567,2.97703 19.65863,8.87975c1.84781,2.97702 2.72038,6.416 2.72038,10.36826c0,3.13101 -0.35929,5.38944 -0.97523,6.7753c-1.2832,2.77171 -4.10625,5.08147 -8.4178,6.92928c-8.21248,3.49031 -12.67802,5.38944 -13.44794,5.64608c-4.67085,1.64249 -9.3417,2.5664 -14.01254,2.72039c-5.38944,0.20531 -8.72576,0.82124 -9.95763,1.89913c-0.46195,0.41063 -0.71859,0.92391 -0.82125,1.59117c-0.05133,0.41063 -0.15398,0.97523 -0.25664,1.79648c-0.30797,0.97523 -0.71859,2.10445 -1.2832,3.49031c-0.30797,0.76992 -0.82125,1.95047 -1.43718,3.43897c-2.30976,5.38944 -4.41421,10.00896 -6.31335,13.85856c0.10266,0.10265 1.18055,0.25664 3.23367,0.41062c2.25843,0.20531 3.54163,0.30797 3.8496,0.41063l24.79143,0.15399c-3.59296,-5.03015 -6.36468,-8.82842 -8.26381,-11.49748c-3.43898,-4.87616 -5.18412,-7.44256 -5.18412,-7.85318c0,-0.9239 0.3593,-1.74515 1.02656,-2.51507c0.76992,-0.87258 1.79648,-1.2832 3.07968,-1.2832c0.66726,0 1.33452,0.15399 1.89914,0.41063c0.35929,0.15399 0.97523,0.41062 1.84781,0.82124c2.15578,0.82125 5.54343,1.23188 10.2656,1.23188c7.6992,0 15.24442,-1.28321 22.63565,-3.8496c4.05491,-1.43718 10.31693,-4.26022 18.78605,-8.46912c3.95225,-1.95047 6.62132,-4.92749 8.00717,-8.9824c0.82125,-2.41242 1.23187,-5.64608 1.23187,-9.70099c0,-7.03194 -2.9257,-14.1152 -8.77709,-21.24979c-6.98061,-8.46912 -16.83558,-14.98778 -29.56493,-19.6073c-9.29037,-3.33632 -16.6816,-4.7735 -22.07104,-4.36288c-2.15578,0.15399 -3.74694,1.43718 -4.82484,3.79828c-0.30797,0.66727 -0.66726,1.69382 -1.18054,3.13101M318.04952,131.31577h-16.06566c-0.76992,3.90093 -2.41242,9.9063 -4.87616,18.01612c-2.46374,8.00717 -4.10624,14.01255 -4.87616,17.91348c0.51328,-0.05133 4.20889,-0.87257 11.1895,-2.46374c6.67264,-1.53984 10.41958,-2.30976 11.1895,-2.30976c2.20711,0 3.64429,0.66727 4.41421,1.95047c0.30797,0.56461 0.46195,1.2832 0.46195,2.10445c0,1.02656 -1.74515,5.8514 -5.33811,14.42317c-3.95226,9.49568 -6.0567,14.62848 -6.31334,15.3984c-1.12921,3.54163 -2.5664,8.41779 -4.26022,14.62848c-2.25843,8.05849 -3.59296,12.93465 -4.10624,14.62848l0.05133,0.20532c0.05133,0.15399 0.10266,0.25663 0.20531,0.30796c0.3593,-0.05133 1.38585,-0.20531 3.18233,-0.46195c1.74515,-0.25664 2.87437,-0.41062 3.49031,-0.56461h23.0976c0.9239,0.20531 1.48852,0.30797 1.69383,0.41062c0.20531,0 0.41063,0 0.56461,0c0.05133,0 0.05132,-0.30796 0.05132,-0.87257c0,-0.41063 -0.15399,-2.9257 -0.51328,-7.49389c-0.3593,-4.56819 -0.51328,-7.08327 -0.51328,-7.49389c0,-4.87616 0.15399,-8.62311 0.51328,-11.1895v-28.12775c0.25664,-0.82125 0.66727,-1.53984 1.23188,-2.10444c0.71859,-0.71859 1.69382,-1.07789 2.87437,-1.07789c0,0 3.64429,1.07789 10.93286,3.33632c8.52045,2.36109 15.91169,3.8496 22.1737,4.36288c1.02656,-9.64966 1.69383,-15.7577 2.05312,-18.42676c1.02656,-7.3399 2.30976,-13.65324 3.90093,-18.94003c-1.64249,-0.3593 -20.42855,-2.41241 -56.40948,-6.15936z" fill="#000000" stroke-opacity="0.50196" stroke="#ffcd00" stroke-width="10"/><path d="M256.04529,122.9493c2.87437,0.20531 4.46553,0.30797 4.77351,0.41062h25.20205c2.92569,0.46195 4.36288,2.10445 4.36288,5.03014c0,0.51328 -0.71859,3.74695 -2.2071,9.75232c-1.64249,6.51865 -2.5664,10.57357 -2.82304,12.16474c-0.15399,1.07789 -0.51328,2.9257 -1.02656,5.44077c-0.46195,2.30976 -0.66726,4.05491 -0.66726,5.33811c0,0.20531 0.10265,0.92391 0.25664,2.05312c0.15399,1.2832 0.20531,2.36109 0.10265,3.23367c-0.30797,2.82304 -1.79648,4.20889 -4.46553,4.20889c-4.82483,-0.51328 -8.00717,-1.12921 -9.64966,-1.95046l-17.60551,0.15398v11.03552c0.82125,-0.05133 3.8496,-0.66726 9.03373,-1.84781c5.08147,-1.18054 8.16116,-1.74515 9.18771,-1.74515c2.41242,0 4.10624,0.56461 5.03015,1.69383c0.46195,0.61594 0.71859,1.38585 0.71859,2.30976c0,2.36109 -0.46195,5.8514 -1.33453,10.47092c-0.9239,4.61952 -1.38585,8.00717 -1.38585,10.16294c0,0.3593 0.15399,0.76992 0.3593,1.18055c6.92928,0.25664 11.65146,1.02656 14.21786,2.25843c1.23187,0.61594 1.95046,1.33453 2.15577,2.20711v1.74515c0,1.89914 -0.30797,4.05491 -1.02656,6.416c-0.87258,2.82304 -1.38585,4.97882 -1.53984,6.46733c-0.20531,1.69383 -0.25664,4.15757 -0.15399,7.3399c0,1.64249 0.05133,3.38765 0.15399,5.18413c0,0.46195 0,1.18054 0.05133,2.15578c-0.05133,0.87258 -0.20531,1.64249 -0.51328,2.2071c-0.87258,1.59117 -3.02836,2.41242 -6.51866,2.51507l-18.22144,0.15399c-0.15399,0.05133 -1.33453,0.15399 -3.4903,0.25664c-2.05312,0.10265 -3.49031,0.15399 -4.2089,0.15399c-0.87258,0 -10.77888,-0.25664 -29.77024,-0.76992c-1.89914,0 -3.33632,-0.30797 -4.36288,-0.9239c-0.05133,-0.10265 -0.15398,-0.10265 -0.20531,-0.15399c-0.10265,0 -0.20531,0 -0.30797,0c-1.69383,0 -2.72039,-1.12921 -3.07968,-3.33632v-0.51328c-0.76992,0.51328 -1.59116,1.02656 -2.41241,1.53984c-5.59475,3.33632 -11.80544,5.90272 -18.6834,7.6992c-5.74873,1.53984 -10.88153,2.30976 -15.34707,2.30976c-6.98061,0 -13.85856,-0.87257 -20.63386,-2.5664c-2.15578,-0.51328 -4.2089,-1.12922 -6.15936,-1.79648c-1.53984,-0.61594 -2.36109,-0.87257 -2.46374,-0.9239c-5.90272,-2.10445 -9.44435,-3.95226 -10.72755,-5.44076c-0.56461,-0.66726 -0.87258,-1.43719 -0.97523,-2.36109v-2.87437c0,-2.66905 0.66727,-6.62131 2.05312,-11.80544c0.97523,-3.49031 2.05312,-7.08326 3.4903,-10.83021c1.18054,-4.87616 2.30976,-8.87975 3.33632,-12.06208c1.95046,-5.95405 3.95225,-8.9824 6.00538,-8.9824c0.25664,0 1.33453,0.66727 3.07968,2.05312c2.46375,1.89914 4.5682,3.43897 6.31334,4.51686c6.92928,4.36288 13.85856,6.56999 20.83917,6.56999c5.38944,0 9.75232,-1.59117 13.08865,-4.72218c1.12922,-1.07789 2.10445,-2.30976 2.82304,-3.64429c0.56461,-1.07789 0.87258,-1.89914 0.87258,-2.51507c0,-1.33453 -0.46195,-2.61774 -1.38586,-3.8496c-1.43718,-1.95047 -3.69562,-2.87437 -6.82663,-2.72038h-13.60192l-1.69382,0.41062h-15.3984c-7.64787,-0.71859 -13.03731,-3.74694 -16.16832,-9.03372c-2.00179,-3.33632 -2.97703,-7.28858 -2.97703,-11.95943c0,-4.00358 1.2832,-9.03373 3.8496,-15.14176c2.9257,-6.82663 6.15936,-11.34348 9.75232,-13.55059c4.41421,-2.72038 9.54701,-4.7735 15.44973,-6.15936c5.64608,-1.33453 11.29216,-1.89914 16.83558,-1.69383c5.64608,0.20531 10.52224,1.18055 14.52582,2.9257c2.25843,0.97523 4.10625,2.15578 5.59476,3.54163c1.23187,-1.53984 2.36109,-1.48851 3.38765,0.15398c0.46195,0.71859 0.87257,1.64249 1.18054,2.82304c0.25664,0.9239 0.41063,1.59117 0.41063,2.0018c0,2.5664 -0.10265,4.51686 -0.30796,5.90272c-0.05133,0.20531 -0.56461,2.72038 -1.59117,7.59654c-0.10265,0.56461 -0.25664,1.79648 -0.3593,3.59296c-0.15399,1.84781 -0.30797,3.33632 -0.46195,4.31155c-0.20531,0.76992 -0.3593,1.48851 -0.61594,2.10445c1.02656,0.46195 2.00179,0.9239 2.97702,1.43718c1.89914,0.97523 3.64429,2.05312 5.28679,3.23367c0.05133,-2.15578 0.46195,-5.28678 1.2832,-9.49568c0.87258,-4.72217 1.38585,-8.10983 1.48851,-10.00897c0.15399,-3.49031 0.66726,-6.46733 1.53984,-8.87974c0,-0.05133 0.05133,-0.10265 0.05133,-0.15398c-0.15399,-0.51328 -0.20531,-0.76992 -0.20531,-0.82125c0,-3.49031 1.02656,-6.72397 3.02835,-9.75232c2.10445,-3.18233 4.36288,-4.46554 6.82663,-3.90093h17.45152c0.46195,0.10265 2.15578,0.25664 5.1328,0.46195M250.29655,130.18655h-15.19309c-1.02656,0.3593 -1.89914,1.18054 -2.5664,2.51507c-0.41063,0.76992 -0.87257,2.05312 -1.38585,3.95226c-0.25664,0.97523 -0.51328,1.79648 -0.76992,2.41242c-0.15399,1.48851 -0.41062,3.64429 -0.82125,6.416c-0.66726,4.41421 -0.97523,7.44257 -0.97523,9.08506c0,0.3593 -0.25664,2.10444 -0.76992,5.18412c-0.51328,3.07968 -0.76992,4.72218 -0.76992,4.82484c0,0.10265 0.10265,0.66727 0.20531,1.69383c0.05133,1.18054 0.05133,2.2071 -0.05132,3.07968c-0.15399,1.12921 -0.41063,2.05312 -0.87258,2.72038c0.61594,0.76992 1.18054,1.59116 1.74515,2.46374c2.5664,4.00358 4.67085,8.21248 6.31335,12.62669c1.79648,4.82483 2.66905,8.9824 2.66905,12.57536c0,12.57536 -4.72217,22.99495 -14.21785,31.25876c0.15399,0.82125 0.25663,1.69383 0.30796,2.61773c0.3593,-0.10265 0.76992,-0.15398 1.18054,-0.25664c2.61773,-0.51328 6.62131,-0.71859 12.06208,-0.61594c3.07968,0.05133 7.85318,0.25664 14.21786,0.51328c5.33811,0.15399 9.23904,0 11.65146,-0.46195l17.45152,-0.25664c0,-0.56461 -0.05132,-1.48851 -0.15398,-2.82304c-0.10265,-1.2832 -0.15399,-2.15577 -0.15399,-2.5664c0,-0.87258 0.41062,-3.8496 1.23187,-8.93107c0.61594,-3.74695 1.02656,-6.36468 1.33453,-7.90452c-3.02835,-0.10265 -6.87795,-0.20531 -11.5488,-0.25664c-2.41242,0 -4.72218,0 -6.92928,0c-2.66906,0.20531 -5.28678,0.3593 -7.85318,0.51328c-1.53984,0.10265 -2.51507,0.15398 -2.9257,0.15398c-2.25843,0 -3.79827,-0.66726 -4.61952,-1.95046c-0.20531,-0.41063 -0.3593,-0.82125 -0.46195,-1.33453l-0.05133,-0.56461c0,-1.79648 1.02656,-2.97702 3.02835,-3.54163c1.95047,-0.51328 6.46733,-0.97523 13.65325,-1.33453c1.07789,0 2.10445,0 3.07968,0c-0.15399,-0.87258 -0.25664,-1.84781 -0.25664,-2.9257c0,-0.97523 0,-1.43718 0,-1.48851c0,-2.10445 0.10265,-3.90093 0.30796,-5.38944c0.20531,-1.74515 0.56461,-3.49031 1.12922,-5.18413v-2.30976c-3.28499,0.71859 -6.36467,1.43718 -9.23904,2.05312c-5.64608,1.2832 -9.13638,1.89914 -10.41958,1.89914c-3.28499,0 -5.03015,-1.64249 -5.1328,-4.87616c0,-1.02656 0.10265,-2.30976 0.41063,-3.8496c0.3593,-1.84781 0.51328,-2.77171 0.51328,-2.82304c0.10265,-1.53984 0.05133,-3.79828 -0.20531,-6.72397c-0.30797,-2.77171 -0.46195,-4.41421 -0.46195,-4.82484c0,-1.23187 0.10265,-2.00179 0.25664,-2.30976c0.41063,-0.87258 1.64249,-1.6425 3.59296,-2.30976h22.58432c0.25664,0.05133 0.71859,0.15399 1.43718,0.25664c0.76992,0.10265 1.6425,0.20531 2.66906,0.25664l1.2832,0.15399c0.15399,-4.15757 0.82125,-9.18771 1.95046,-14.93645c0.97523,-4.7735 2.20711,-9.85498 3.74695,-15.19309l-21.30112,-0.25664c-0.46195,-0.10265 -2.15578,-0.25664 -5.1328,-0.46195c-2.87437,-0.20531 -4.46553,-0.3593 -4.7735,-0.46195M207.64298,137.98841c0.05133,-0.46195 0.10265,-0.87258 0.20531,-1.23188c-0.87257,-0.41063 -1.84781,-0.76992 -2.82304,-1.18054c-4.56819,-1.79648 -8.67443,-2.72038 -12.31872,-2.72038c-16.93824,0 -28.74368,4.00358 -35.57031,12.01075c-4.10624,4.77351 -6.15936,10.67622 -6.15936,17.70816c0,2.77171 0.71859,5.28679 2.10445,7.64787c2.2071,3.69562 5.80007,5.59476 10.72756,5.69741h13.60192l1.69383,-0.41063h14.88512c5.95405,0.51328 10.11162,2.41242 12.57536,5.64608c1.64249,2.15578 2.46374,4.87616 2.46374,8.21248c0,1.23187 -0.30797,2.72038 -0.97523,4.51686c-0.92391,2.30976 -2.15577,4.36288 -3.74694,6.26201c-4.51686,5.28679 -11.13818,7.95584 -19.76128,7.95584c-3.07968,0 -6.82662,-0.71859 -11.29216,-2.15578c-4.10624,-1.48851 -6.416,-2.30976 -6.92928,-2.46374c-1.2832,-0.3593 -3.07968,-1.18054 -5.28678,-2.5664c-2.41241,-1.53984 -4.00359,-2.5664 -4.87616,-3.07968c-0.66727,1.64249 -2.30976,6.62131 -4.92749,15.0391c-3.02835,9.75232 -4.56819,15.70637 -4.56819,17.75949c0,2.36109 4.41421,4.51686 13.24263,6.46733c7.6992,1.69383 14.62848,2.5664 20.78784,2.5664c14.57716,0 26.69056,-4.46554 36.34023,-13.34528c4.15757,-3.79827 7.3399,-8.10983 9.64966,-12.88333c2.15578,-4.61952 3.28499,-9.13639 3.28499,-13.65325c0,-2.97702 -1.23187,-7.18592 -3.64429,-12.62669c-2.25843,-4.97881 -4.51686,-8.87975 -6.77529,-11.60013c-1.2832,-1.59117 -3.8496,-3.4903 -7.59654,-5.64608c-4.31155,-2.46374 -8.21248,-4.00358 -11.65146,-4.51686c-3.28499,-0.51328 -6.92929,-0.82125 -10.98419,-0.97523c-4.10624,-0.10265 -6.92928,-0.15399 -8.52045,-0.25664c-2.61773,-0.15399 -4.46553,-0.51328 -5.54342,-1.07789c-1.2832,-0.61594 -1.95047,-1.74515 -1.95047,-3.33632c0,-1.02656 0.41063,-1.95046 1.18055,-2.72038c1.12922,-1.12921 2.92569,-1.69383 5.38944,-1.69383c8.9824,0 16.93824,0.97523 23.81619,2.87437c0.15399,-1.43718 0.66726,-4.10624 1.48851,-8.00717c0.87257,-4.10624 1.43718,-6.72397 1.74515,-7.85318c0.10265,-0.41063 0.3593,-1.84781 0.7186,-4.36288M436.0526,237.20544c1.64249,2.25843 3.13101,4.2089 4.36288,5.85139c0.46195,0.76992 0.71859,2.20711 0.71859,4.36288c0,4.56819 -2.9257,8.36646 -8.72576,11.34348c-4.97881,2.5664 -10.36825,3.8496 -16.16832,3.8496c-8.62311,0 -14.62848,-2.30976 -17.9648,-6.82663c-1.69383,-2.30976 -2.5664,-4.97882 -2.5664,-7.90451c0,-5.95405 3.02835,-10.52224 9.13639,-13.65325c1.95047,-0.97523 4.46554,-1.95046 7.54522,-2.87436c3.79827,-1.12921 5.80006,-1.74516 6.0567,-1.84781c2.97703,-1.18054 6.46733,-0.56461 10.47091,1.79648c2.72039,1.59117 5.08148,3.54163 7.13459,5.90272M429.37996,241.26035c-3.18234,-2.77171 -6.51866,-3.90093 -10.00896,-3.38765c-5.54343,0.66726 -9.80364,2.15578 -12.78067,4.41421c-2.41242,1.84781 -3.64429,3.79827 -3.64429,5.85139c0,1.48851 0.82125,2.9257 2.46375,4.26023c2.15578,1.69383 5.03015,2.5664 8.72576,2.5664c3.18234,0 7.03194,-0.76992 11.5488,-2.2071c5.18413,-1.69383 7.80186,-3.49031 7.80186,-5.38944c0,-0.66726 -0.41063,-1.59117 -1.12922,-2.72038c-0.76992,-1.23187 -1.74516,-2.36109 -2.97703,-3.38765M359.06059,211.2848c1.95047,-2.36109 3.95225,-4.10624 6.15936,-5.18413c2.25843,-1.18054 4.41421,-1.53984 6.36468,-0.97523c6.31335,0.05133 11.60013,3.4903 15.91168,10.2656c1.53984,2.41242 2.77171,5.03015 3.74694,7.85319c0.82125,2.36109 1.23187,4.15757 1.23187,5.38944c0,0.87258 -0.25664,2.15578 -0.76992,3.79827c-0.66726,2.36109 -1.69382,4.46553 -2.97702,6.416c-3.90093,5.80006 -9.70099,8.72576 -17.40019,8.72576c-7.95584,0 -13.44793,-3.131 -16.42496,-9.34169c-1.48851,-3.02835 -2.20711,-6.51866 -2.20711,-10.41959c0,-2.82304 0.61593,-5.69741 1.79648,-8.72576c1.12921,-2.87437 2.66906,-5.49209 4.56819,-7.80185M366.91378,212.92729c-4.87616,4.46553 -7.28857,9.44435 -7.3399,14.98778c0,2.20711 0.51328,4.46554 1.53984,6.72397c1.59117,3.59296 4.10624,5.38944 7.44256,5.38944c6.92928,0 11.65146,-1.95046 14.21786,-5.80006c1.2832,-1.95047 1.89914,-3.90093 1.79648,-5.90272c0,-0.30797 -0.46195,-1.59116 -1.38585,-3.79827c-0.9239,-2.20711 -1.38585,-3.38765 -1.43718,-3.54164c-0.76992,-2.51507 -1.69383,-4.05491 -2.82304,-4.67084c-0.46195,-0.20531 -1.53984,-0.30797 -3.23367,-0.30797c-0.66726,0 -1.12922,-0.20531 -1.33453,-0.61594c-0.20531,-0.56461 -0.3593,-0.97523 -0.56461,-1.2832c-0.76992,-1.18054 -3.02835,-1.59117 -6.87795,-1.18054M442.98188,110.16863c19.6073,4.56819 34.54375,12.31872 44.912,23.40557c4.20889,4.51686 7.39123,9.39302 9.54701,14.57716c1.89914,4.61952 2.87437,9.13638 2.87437,13.60192c0,4.97881 -0.61593,9.03373 -1.79648,12.16474c-1.64249,4.41421 -4.82483,8.46912 -9.49568,12.06208c-2.15578,1.64249 -6.15936,3.69562 -12.11341,6.15937c-4.72217,1.95047 -8.16116,3.23366 -10.31693,3.8496c-4.20889,1.43718 -7.28857,2.36109 -9.23904,2.82304c-2.82304,0.66726 -9.23904,1.33453 -19.248,2.05312c0,0.05133 2.2071,2.66906 6.56998,7.95584c3.90093,4.67085 5.85139,7.64787 5.85139,8.9824c0,1.07789 -0.25664,1.84781 -0.76992,2.30976c-1.12921,1.02656 -3.49031,1.53984 -7.18592,1.53984c-0.66726,0 -1.79648,-0.05133 -3.33632,-0.15399c-1.53984,-0.10265 -2.46375,-0.20531 -2.72039,-0.25664l-24.27814,-0.15399c-6.87795,-0.15399 -11.39481,-1.02655 -13.49926,-2.61772c-0.76992,-0.61594 -1.28321,-1.33453 -1.48852,-2.20711c-0.10266,-0.3593 -0.15398,-1.07789 -0.15398,-2.15578c0,-2.51507 0.9239,-5.74874 2.87436,-9.75232c2.30976,-4.36288 3.90093,-7.49389 4.67085,-9.29037c1.23187,-2.82304 2.36109,-5.74874 3.4903,-8.87975c0.9239,-2.5664 1.53983,-4.10624 1.8478,-4.67085c0.51328,-0.97523 1.18054,-1.53984 2.0018,-1.79648c0.66726,-0.20531 2.00179,-0.30797 4.05491,-0.30797c5.44077,0 11.39481,-0.82125 17.86214,-2.41242c2.61773,-0.66726 5.64608,-1.53984 9.08506,-2.72038c5.38944,-2.05312 8.77709,-3.8496 10.21427,-5.38944c0.61593,-0.71859 1.02656,-1.48851 1.18054,-2.30976c0.10266,-0.46195 0.15399,-1.2832 0.15399,-2.51507c0,-1.43718 -0.10266,-2.46375 -0.20532,-3.02836c-0.30797,-1.48851 -1.07788,-2.72038 -2.25843,-3.74694c-3.38765,-3.02835 -10.31693,-4.51686 -20.83917,-4.51686c-10.21427,0 -17.65683,0.9239 -22.22502,2.72038c-0.56461,0.25664 -1.38585,0.66726 -2.46375,1.23187c-1.79648,5.54343 -4.41421,14.37184 -7.85318,26.5879c-4.05491,13.19129 -7.08327,19.81261 -9.13639,19.81261c-1.18054,0 -2.05311,-0.25664 -2.61773,-0.66726c-0.51328,-0.56461 -1.12921,-0.97523 -1.69383,-1.2832c-2.30976,-1.18054 -8.00717,-1.53984 -17.14355,-1.02656c-5.74874,0.25664 -8.62311,-0.92391 -8.62311,-3.49031c0,-0.46195 0.46196,-2.15578 1.33453,-5.1328c0.76992,-2.61773 1.2832,-4.26022 1.48851,-4.87616c-0.05133,-1.74515 0.05133,-3.23367 0.20531,-4.51686c-2.97703,-0.51328 -6.46733,-1.18054 -10.47091,-2.05312c-8.52045,-2.00179 -12.88333,-3.02835 -13.08864,-3.07968v22.68698c-0.35929,2.05312 -0.51328,5.28679 -0.51328,9.64966c0,4.61952 0.25664,8.36647 0.76992,11.34349c0.51328,2.97702 0.76992,5.59475 0.76992,7.90451c0,2.25843 -0.46195,3.69562 -1.33453,4.36288c-1.64249,1.23187 -4.92749,1.23187 -9.85498,0h-21.8144c-0.9239,0.41063 -2.72038,0.87257 -5.44076,1.2832c-2.5664,0.41063 -4.51686,0.61594 -5.95405,0.61594c-2.46374,0 -4.00358,-0.76992 -4.61952,-2.30976c-0.20531,-0.51328 -0.30797,-1.02656 -0.30797,-1.64249c0.05133,-0.51328 0.05133,-0.82124 0.05133,-0.87257c0,-5.1328 2.87437,-15.60372 8.52045,-31.41274c4.2089,-11.9081 7.6992,-20.83917 10.47091,-26.89587c-2.36109,0.15399 -6.67264,1.12922 -12.98598,2.87437c-5.85139,1.69383 -8.82841,2.51507 -8.87974,2.51507c-1.95047,0 -3.23367,-0.71859 -3.74695,-2.05312c-0.15399,-0.46195 -0.25664,-1.33453 -0.25664,-2.72038c0,-2.61773 1.07789,-6.87796 3.13101,-12.78068c2.30976,-6.10804 3.69562,-10.06029 4.2089,-11.85677c0.51328,-1.74515 0.97523,-4.10624 1.33453,-7.08326c0.41063,-3.33632 0.71859,-5.80006 0.9239,-7.39123c0.82125,-5.54342 2.41241,-8.82841 4.72217,-9.75232h20.5312c8.16116,1.2832 17.09222,2.30976 26.79322,3.07968c5.18413,0.41062 11.85677,0.87257 19.91527,1.43718c0.15398,0 0.25664,0.05133 0.41062,0.05133c0,-0.05133 0,-0.10265 0,-0.15398c0.05133,-0.92391 0.10265,-1.38586 0.10265,-1.48851c0,-2.10445 0.25664,-4.61952 0.76992,-7.59654c0.51328,-2.97702 0.76992,-6.00538 0.76992,-8.9824c0.15398,-0.82125 0.30797,-2.25844 0.41062,-4.31155c0.10266,-1.84781 0.25664,-3.23366 0.46195,-4.15757c0.51328,-2.10445 3.285,-3.38765 8.31514,-3.79828c4.36288,-0.3593 9.18771,-0.10265 14.57715,0.87258h17.70817c1.64249,-0.3593 6.00538,-0.71859 12.98599,-1.02656c1.64249,0.3593 2.72038,0.97523 3.28499,1.95046c0.30797,0.51328 0.46195,1.18054 0.46195,2.10445c0,0.46195 -1.23188,4.05492 -3.64429,10.83021c-0.87257,2.36109 -1.59117,4.51686 -2.25844,6.416c0.9239,-1.59117 1.69383,-3.02836 2.30977,-4.31155c0.41062,-0.82125 0.97523,-2.15578 1.69382,-3.90093c0.87257,-1.38586 2.30976,-2.10445 4.36288,-2.25844c2.25843,-0.15399 4.72218,0.05133 7.33991,0.56461c3.8496,0.82125 6.36467,1.2832 7.54522,1.38586M409.1054,105.70309h-17.91348c-0.71859,-0.15399 -5.74873,-0.46195 -15.14176,-1.02656c-0.71859,4.67085 -1.23187,9.80365 -1.53984,15.3984c-0.05133,0.20531 0,1.38586 0.05133,3.59296c0.05133,1.95046 0,3.54163 -0.15398,4.82483c-0.05133,0.25664 -0.05133,0.51328 -0.10266,0.76992c1.43718,0.3593 2.66906,0.71859 3.59296,1.18054c2.87437,1.33453 4.31155,3.49031 4.31155,6.36468c0,1.2832 -0.66726,5.38944 -1.89914,12.21606c-1.02656,5.69741 -1.74516,9.54701 -2.20711,11.49747c-0.35929,1.64249 -0.51328,3.95226 -0.41062,7.03194c0.10266,4.2089 0.15399,6.67264 0.10266,7.3399c-0.10266,2.61773 -0.61593,4.51687 -1.43718,5.80007c-1.02656,1.53984 -2.72039,2.30976 -5.03015,2.30976c-0.25664,0 -0.46196,0 -0.66727,0c-0.05133,2.05312 -0.76992,5.08148 -2.05312,9.13639c8.82842,0.20531 14.37185,0.56461 16.63027,1.02656l1.69383,-0.15399c2.82304,-9.95764 4.97881,-17.29753 6.416,-21.96838c2.51507,-8.05849 5.03015,-15.34708 7.54522,-21.91706c2.20711,-5.69741 4.7735,-12.98598 7.6992,-21.96838c3.95225,-12.06208 6.31335,-19.29933 7.18592,-21.76307c-2.9257,0 -5.1328,0.15398 -6.67264,0.41062M426.04364,123.35992c-0.51328,1.23187 -1.02656,2.15577 -1.53984,2.82304c-0.97523,1.59117 -3.18233,5.1328 -6.62131,10.41958c-2.82304,4.46553 -4.92749,7.90452 -6.31334,10.31693l-0.15399,0.41062c0.15398,0 0.61593,-0.10265 1.43718,-0.35929c1.07789,-0.3593 2.30976,-0.61594 3.69562,-0.82125c4.97881,-0.76992 12.72934,-1.18054 23.25158,-1.18054c9.54701,0 16.06567,2.97703 19.65863,8.87975c1.84781,2.97702 2.72038,6.416 2.72038,10.36826c0,3.13101 -0.35929,5.38944 -0.97523,6.7753c-1.2832,2.77171 -4.10625,5.08147 -8.4178,6.92928c-8.21248,3.49031 -12.67802,5.38944 -13.44794,5.64608c-4.67085,1.64249 -9.3417,2.5664 -14.01254,2.72039c-5.38944,0.20531 -8.72576,0.82124 -9.95763,1.89913c-0.46195,0.41063 -0.71859,0.92391 -0.82125,1.59117c-0.05133,0.41063 -0.15398,0.97523 -0.25664,1.79648c-0.30797,0.97523 -0.71859,2.10445 -1.2832,3.49031c-0.30797,0.76992 -0.82125,1.95047 -1.43718,3.43897c-2.30976,5.38944 -4.41421,10.00896 -6.31335,13.85856c0.10266,0.10265 1.18055,0.25664 3.23367,0.41062c2.25843,0.20531 3.54163,0.30797 3.8496,0.41063l24.79143,0.15399c-3.59296,-5.03015 -6.36468,-8.82842 -8.26381,-11.49748c-3.43898,-4.87616 -5.18412,-7.44256 -5.18412,-7.85318c0,-0.9239 0.3593,-1.74515 1.02656,-2.51507c0.76992,-0.87258 1.79648,-1.2832 3.07968,-1.2832c0.66726,0 1.33452,0.15399 1.89914,0.41063c0.35929,0.15399 0.97523,0.41062 1.84781,0.82124c2.15578,0.82125 5.54343,1.23188 10.2656,1.23188c7.6992,0 15.24442,-1.28321 22.63565,-3.8496c4.05491,-1.43718 10.31693,-4.26022 18.78605,-8.46912c3.95225,-1.95047 6.62132,-4.92749 8.00717,-8.9824c0.82125,-2.41242 1.23187,-5.64608 1.23187,-9.70099c0,-7.03194 -2.9257,-14.1152 -8.77709,-21.24979c-6.98061,-8.46912 -16.83558,-14.98778 -29.56493,-19.6073c-9.29037,-3.33632 -16.6816,-4.7735 -22.07104,-4.36288c-2.15578,0.15399 -3.74694,1.43718 -4.82484,3.79828c-0.30797,0.66727 -0.66726,1.69382 -1.18054,3.13101M318.04952,131.31577h-16.06566c-0.76992,3.90093 -2.41242,9.9063 -4.87616,18.01612c-2.46374,8.00717 -4.10624,14.01255 -4.87616,17.91348c0.51328,-0.05133 4.20889,-0.87257 11.1895,-2.46374c6.67264,-1.53984 10.41958,-2.30976 11.1895,-2.30976c2.20711,0 3.64429,0.66727 4.41421,1.95047c0.30797,0.56461 0.46195,1.2832 0.46195,2.10445c0,1.02656 -1.74515,5.8514 -5.33811,14.42317c-3.95226,9.49568 -6.0567,14.62848 -6.31334,15.3984c-1.12921,3.54163 -2.5664,8.41779 -4.26022,14.62848c-2.25843,8.05849 -3.59296,12.93465 -4.10624,14.62848l0.05133,0.20532c0.05133,0.15399 0.10266,0.25663 0.20531,0.30796c0.3593,-0.05133 1.38585,-0.20531 3.18233,-0.46195c1.74515,-0.25664 2.87437,-0.41062 3.49031,-0.56461h23.0976c0.9239,0.20531 1.48852,0.30797 1.69383,0.41062c0.20531,0 0.41063,0 0.56461,0c0.05133,0 0.05132,-0.30796 0.05132,-0.87257c0,-0.41063 -0.15399,-2.9257 -0.51328,-7.49389c-0.3593,-4.56819 -0.51328,-7.08327 -0.51328,-7.49389c0,-4.87616 0.15399,-8.62311 0.51328,-11.1895v-28.12775c0.25664,-0.82125 0.66727,-1.53984 1.23188,-2.10444c0.71859,-0.71859 1.69382,-1.07789 2.87437,-1.07789c0,0 3.64429,1.07789 10.93286,3.33632c8.52045,2.36109 15.91169,3.8496 22.1737,4.36288c1.02656,-9.64966 1.69383,-15.7577 2.05312,-18.42676c1.02656,-7.3399 2.30976,-13.65324 3.90093,-18.94003c-1.64249,-0.3593 -20.42855,-2.41241 -56.40948,-6.15936z" fill="#000000" stroke="none" stroke-width="1"/><path d="M206.92439,142.35127c-0.30797,1.12921 -0.87257,3.74695 -1.74515,7.80186c-0.82125,3.90093 -1.33453,6.56999 -1.48851,8.00717c-6.87795,-1.89914 -14.83379,-2.87437 -23.81619,-2.87437c-2.46375,0 -4.26022,0.56461 -5.38944,1.69382c-0.76992,0.76992 -1.18055,1.69383 -1.18055,2.72039c0,1.53984 0.66727,2.66906 1.95047,3.33632c1.12922,0.56461 2.97702,0.9239 5.54342,1.07788c1.59117,0.10265 4.41421,0.15399 8.52045,0.25664c4.05491,0.15399 7.75053,0.46195 10.9842,0.97523c3.43897,0.51328 7.33991,2.05312 11.65146,4.51686c3.79827,2.15578 6.31334,4.05491 7.59654,5.64608c2.25843,2.72038 4.51686,6.56999 6.7753,11.60013c2.41242,5.44077 3.64429,9.64966 3.64429,12.62668c0,4.46553 -1.07788,9.03373 -3.28499,13.65325c-2.30976,4.77351 -5.54342,9.08506 -9.64966,12.88333c-9.64966,8.87974 -21.76307,13.34528 -36.34023,13.34528c-6.15936,0 -13.08864,-0.87258 -20.78784,-2.5664c-8.82841,-1.95047 -13.24263,-4.10623 -13.24263,-6.46732c0,-2.05312 1.53984,-8.00717 4.56819,-17.75949c2.61773,-8.4178 4.26023,-13.44793 4.92749,-15.03911c0.87257,0.51328 2.51507,1.53984 4.87616,3.07968c2.2071,1.38585 4.00359,2.20711 5.28678,2.5664c0.51328,0.15399 2.82304,0.97523 6.92928,2.46374c4.46554,1.43718 8.21248,2.15578 11.29216,2.15578c8.6231,0 15.1931,-2.66905 19.76129,-7.95584c1.64249,-1.89914 2.87436,-3.95226 3.74694,-6.26202c0.61594,-1.79648 0.97523,-3.28499 0.97523,-4.51686c0,-3.28499 -0.82125,-6.05671 -2.46374,-8.21248c-2.46375,-3.28499 -6.67264,-5.1328 -12.57536,-5.64608h-14.88512l-1.69383,0.41063h-13.60192c-4.92749,-0.05133 -8.52045,-1.95046 -10.72756,-5.69741c-1.38586,-2.36109 -2.10445,-4.92749 -2.10445,-7.64787c0,-7.03194 2.05312,-12.93465 6.15936,-17.70816c6.82662,-7.95584 18.68339,-11.95943 35.57031,-11.95943c3.64429,0 7.75053,0.9239 12.31872,2.72038c0.97523,0.41063 1.95046,0.76992 2.82304,1.18054c-0.05133,0.3593 -0.15398,0.76993 -0.20531,1.23188c-0.3593,2.51507 -0.61594,3.95225 -0.7186,4.36288M432.35698,244.59667c0.71859,1.12921 1.12922,2.05312 1.12922,2.72038c0,1.89914 -2.61773,3.69562 -7.80186,5.38944c-4.51686,1.48851 -8.36647,2.2071 -11.5488,2.2071c-3.69561,0 -6.62131,-0.87257 -8.72576,-2.5664c-1.64249,-1.38585 -2.46375,-2.77171 -2.46375,-4.26022c0,-2.05312 1.23188,-4.00358 3.64429,-5.85139c2.97703,-2.25843 7.23724,-3.74695 12.78067,-4.41421c3.4903,-0.46195 6.82662,0.66727 10.00896,3.38765c1.23187,1.02656 2.20711,2.15578 2.97703,3.38765M370.50674,156.41516c-0.35929,2.66905 -1.02656,8.77709 -2.05312,18.42676c-6.26202,-0.56461 -13.65325,-2.00179 -22.1737,-4.36288c-7.28857,-2.20711 -10.93287,-3.33632 -10.93287,-3.33632c-1.18054,0 -2.15578,0.3593 -2.87437,1.07789c-0.56461,0.51328 -0.97523,1.23187 -1.23187,2.10444v28.12775c-0.3593,2.5664 -0.51328,6.31334 -0.51328,11.1895c0,0.41063 0.15399,2.9257 0.51328,7.49389c0.3593,4.56819 0.51328,7.08326 0.51328,7.49389c0,0.56461 0,0.87257 -0.05133,0.87257c-0.15399,-0.05133 -0.3593,-0.05133 -0.56461,0c-0.25664,-0.10265 -0.76991,-0.25664 -1.69382,-0.41062h-23.09761c-0.56461,0.15399 -1.74515,0.30797 -3.4903,0.56461c-1.79648,0.25664 -2.87436,0.41062 -3.18233,0.46195c-0.05133,-0.05133 -0.15398,-0.15398 -0.20531,-0.30796l-0.05133,-0.20532c0.51328,-1.64249 1.89913,-6.51865 4.10624,-14.62848c1.69383,-6.21069 3.13101,-11.08685 4.26023,-14.62848c0.25664,-0.71859 2.36109,-5.85139 6.31334,-15.3984c3.54163,-8.57178 5.33811,-13.39661 5.33811,-14.42317c0,-0.82125 -0.15398,-1.53984 -0.46195,-2.10445c-0.76992,-1.2832 -2.25843,-1.95047 -4.41421,-1.95047c-0.76992,0 -4.51687,0.76992 -11.18951,2.30976c-6.98061,1.59117 -10.72755,2.41241 -11.1895,2.46374c0.76992,-3.90093 2.41242,-9.90631 4.87616,-17.91348c2.46374,-8.10983 4.10624,-14.11519 4.87616,-18.01612h16.06567c35.98093,3.74695 54.76698,5.80006 56.40948,6.15936c-1.59117,5.28679 -2.87437,11.60013 -3.90093,18.94003M432.10034,116.5333c5.38944,-0.41062 12.78067,1.02657 22.07104,4.36289c12.72935,4.61952 22.58432,11.13818 29.56493,19.6073c5.85139,7.13459 8.77709,14.21786 8.77709,21.24979c0,4.10624 -0.41062,7.3399 -1.23188,9.70099c-1.38585,4.00358 -4.05491,7.03194 -8.00717,8.98241c-8.46912,4.2089 -14.73114,7.03194 -18.78605,8.46912c-7.39123,2.5664 -14.93645,3.8496 -22.63565,3.8496c-4.72217,0 -8.16115,-0.41063 -10.2656,-1.23188c-0.87257,-0.3593 -1.48851,-0.66726 -1.8478,-0.82124c-0.56461,-0.25664 -1.23188,-0.41063 -1.89914,-0.41063c-1.2832,0 -2.30976,0.41062 -3.07968,1.2832c-0.66726,0.76992 -1.02656,1.59117 -1.02656,2.51507c0,0.41063 1.69383,3.02836 5.18413,7.85318c1.89914,2.66905 4.67085,6.46733 8.26381,11.49748l-24.79143,-0.15399c-0.30797,-0.10265 -1.59117,-0.25664 -3.8496,-0.41063c-2.05312,-0.20531 -3.13101,-0.30796 -3.23367,-0.41062c1.89914,-3.8496 4.00359,-8.46912 6.31335,-13.85856c0.61593,-1.48851 1.12921,-2.66905 1.43718,-3.43897c0.56461,-1.38585 0.97523,-2.51507 1.2832,-3.49031c0.10266,-0.82125 0.20531,-1.43718 0.25664,-1.79648c0.10266,-0.66726 0.3593,-1.18054 0.82125,-1.59117c1.23187,-1.07789 4.5682,-1.69383 9.95763,-1.89914c4.67085,-0.15399 9.3417,-1.07789 14.01254,-2.72039c0.76992,-0.30797 5.23546,-2.15577 13.44794,-5.64608c4.31155,-1.84781 7.13459,-4.15757 8.41779,-6.92928c0.66726,-1.38585 0.97523,-3.64428 0.97523,-6.77529c0,-3.95226 -0.9239,-7.39123 -2.72038,-10.36826c-3.59296,-5.90272 -10.16295,-8.87974 -19.65863,-8.87974c-10.57357,0 -18.32409,0.41062 -23.25158,1.18054c-1.43718,0.25664 -2.66906,0.51328 -3.69562,0.82125c-0.76992,0.25664 -1.2832,0.35929 -1.43718,0.35929l0.15399,-0.41062c1.38585,-2.41242 3.4903,-5.85139 6.31334,-10.31692c3.38765,-5.38944 5.59475,-8.87974 6.56998,-10.47092c0.51328,-0.66727 1.02656,-1.6425 1.53984,-2.87437c0.51328,-1.43718 0.87257,-2.46374 1.18054,-3.13101c1.07789,-2.36109 2.66906,-3.64429 4.87616,-3.69562z" fill="#fff477" stroke="none" stroke-width="1"/><path d="M255.01873,130.75116c2.97702,0.20531 4.72218,0.3593 5.23546,0.46195l21.30112,0.25664c-1.53984,5.33811 -2.77172,10.41959 -3.74695,15.19309c-1.18054,5.74874 -1.79648,10.72755 -1.95047,14.93645l-1.2832,-0.15399c-1.02656,-0.05133 -1.89913,-0.15399 -2.66905,-0.25664c-0.71859,-0.10265 -1.18054,-0.20531 -1.43718,-0.25664h-22.58432c-1.89914,0.66726 -3.13101,1.43718 -3.59296,2.30976c-0.15399,0.30797 -0.25664,1.07789 -0.25664,2.30976c0,0.41063 0.15398,2.05312 0.46195,4.82484c0.25664,2.92569 0.30797,5.18413 0.20531,6.72397c0,0.05133 -0.15399,0.97523 -0.51328,2.82304c-0.30797,1.53984 -0.46195,2.82304 -0.41062,3.8496c0.10265,3.28499 1.79648,4.87616 5.1328,4.87616c1.33453,0 4.7735,-0.61594 10.41958,-1.89914c2.87437,-0.61594 5.95405,-1.2832 9.23904,-2.05312v2.41242c-0.56461,1.69383 -0.92391,3.38764 -1.12922,5.18412c-0.20531,1.53984 -0.30797,3.33632 -0.30797,5.38944c0,0.05133 0,0.51328 0,1.48851c0,1.07789 0.10265,2.05312 0.25664,2.9257c-1.02656,0 -2.05312,0 -3.07968,0c-7.13459,0.30797 -11.70278,0.76992 -13.65325,1.33453c-2.00179,0.61594 -3.02835,1.79648 -3.02835,3.54163l0.05133,0.56461c0.05133,0.51328 0.20531,0.9239 0.46195,1.33453c0.82125,1.2832 2.36109,1.95047 4.61952,1.95047c0.41063,0 1.38586,-0.05133 2.9257,-0.15399c2.5664,-0.20531 5.18413,-0.3593 7.85318,-0.51328c2.20711,0 4.51686,0 6.92928,0c4.67085,0.05133 8.52045,0.15399 11.5488,0.25664c-0.30797,1.59117 -0.71859,4.2089 -1.33453,7.90452c-0.82125,5.08147 -1.23188,8.0585 -1.23188,8.93107c0,0.41063 0.05133,1.23187 0.15399,2.5664c0.10265,1.33453 0.15399,2.30976 0.15399,2.82304l-17.45152,0.25664c-2.41242,0.46195 -6.31335,0.61594 -11.65146,0.46195c-6.36468,-0.25664 -11.13818,-0.46195 -14.21786,-0.51328c-5.44077,-0.10265 -9.44435,0.10265 -12.06208,0.61594c-0.46195,0.05133 -0.82125,0.15398 -1.18055,0.25664c-0.05133,-0.9239 -0.15398,-1.79647 -0.30797,-2.61772c9.49568,-8.21248 14.21786,-18.63207 14.21786,-31.25876c0,-3.59296 -0.87258,-7.80186 -2.66906,-12.57537c-1.64249,-4.36288 -3.74695,-8.57178 -6.31334,-12.62669c-0.56461,-0.87258 -1.12921,-1.69382 -1.74515,-2.46374c0.46195,-0.71859 0.71859,-1.59117 0.87257,-2.72038c0.15399,-0.9239 0.15399,-1.95047 0.05133,-3.07968c-0.15399,-1.02656 -0.20532,-1.59117 -0.20532,-1.69383c0,-0.15399 0.25664,-1.74515 0.76992,-4.82483c0.51328,-3.07968 0.76992,-4.7735 0.76992,-5.18413c0,-1.64249 0.30797,-4.67085 0.97524,-9.08506c0.41063,-2.77171 0.66726,-4.92749 0.82124,-6.416c0.25664,-0.66726 0.51328,-1.43718 0.76992,-2.41242c0.51328,-1.89914 0.97523,-3.18233 1.38586,-3.95226c0.66726,-1.2832 1.48851,-2.15577 2.5664,-2.51507h15.09043c0.30797,0.10265 1.89914,0.25664 4.77351,0.46195M373.79173,214.10784c0.20531,0.30797 0.3593,0.71859 0.56461,1.23187c0.20531,0.41063 0.66726,0.61593 1.33453,0.61593c1.74515,0 2.82304,0.10266 3.23367,0.30797c1.12921,0.61594 2.05312,2.15578 2.82304,4.67085c0,0.15399 0.51328,1.33452 1.43718,3.54163c0.9239,2.25843 1.38585,3.4903 1.38585,3.79827c0.10266,2.00179 -0.51328,3.95226 -1.79648,5.90272c-2.5664,3.8496 -7.28858,5.80006 -14.21786,5.80006c-3.33632,0 -5.85139,-1.79648 -7.44256,-5.38944c-1.02656,-2.25843 -1.53984,-4.51686 -1.53984,-6.72396c0,-5.4921 2.46374,-10.47092 7.3399,-14.93645c3.8496,-0.3593 6.15936,0 6.87795,1.18054M408.54079,127.26085c-2.9257,8.9824 -5.4921,16.27097 -7.69921,21.96838c-2.51507,6.56999 -5.03015,13.85857 -7.54522,21.91706c-1.43718,4.67085 -3.59296,12.01075 -6.416,21.96838l-1.69383,0.15399c-2.30976,-0.46195 -7.85318,-0.82125 -16.63027,-1.02656c1.2832,-4.05491 2.00179,-7.1346 2.05312,-9.13639c0.25664,0 0.46195,0 0.66726,0c2.36109,0 4.00358,-0.76992 5.03015,-2.30976c0.87257,-1.2832 1.33453,-3.23367 1.43718,-5.80007c0.05133,-0.71859 0,-3.13101 -0.10266,-7.3399c-0.10266,-3.07968 0.05133,-5.38944 0.41063,-7.03194c0.41062,-2.00179 1.18054,-5.80007 2.2071,-11.49748c1.2832,-6.82663 1.89914,-10.93286 1.89914,-12.21606c0,-2.87437 -1.43718,-5.03014 -4.31155,-6.36467c-0.9239,-0.46195 -2.15578,-0.82125 -3.59296,-1.18055c0.05133,-0.25664 0.05133,-0.51328 0.10266,-0.76992c0.15398,-1.2832 0.20531,-2.87437 0.15398,-4.82484c-0.05133,-2.2071 -0.05132,-3.38765 -0.05132,-3.59296c0.30797,-5.59475 0.82125,-10.72755 1.53984,-15.3984c9.39303,0.56461 14.42317,0.87257 15.14176,1.02656h17.9648c1.53984,-0.25664 3.74694,-0.41062 6.67264,-0.41062c-0.87257,2.46375 -3.28499,9.75232 -7.23724,21.86573z" fill="#ffcc00" stroke="none" stroke-width="1"/><path d="M301.93252,131.31576h16.06567c21.5401,2.24312 36.91781,3.8792 46.14412,4.90823c-1.31026,0.0539 -2.62088,0.10379 -3.9316,0.1615c-3.4969,0.15398 -6.99712,0.20851 -10.49297,0.44646c-3.49209,0.23786 -6.96896,0.24486 -10.46774,0.14312c-3.4996,-0.10177 -7.00563,-0.04904 -10.50663,-0.04907c-3.49323,0.00028 -7.01716,0.22277 -10.50503,0.41418c-3.48927,0.19149 -7.00109,0.50973 -10.47451,0.88859c-2.59386,0.28292 -5.1785,0.59122 -7.75688,0.96684c0.8772,-3.20615 1.52153,-5.83277 1.92556,-7.87986z" fill="#fff9b6" stroke="none" stroke-width="1"/><path d="M432.10034,116.5333c5.38944,-0.41062 12.78067,1.02657 22.07104,4.36289c12.72935,4.61952 22.58432,11.13818 29.56493,19.6073c5.85139,7.13459 8.77709,14.21786 8.77709,21.24979c0,2.84243 -0.19676,5.26674 -0.59028,7.27294c-0.04885,-0.07377 -0.09845,-0.14727 -0.14891,-0.22044c-0.77964,-1.13043 -2.60639,-1.87585 -3.7157,-2.65336c-2.57796,-2.32221 -5.3634,-4.46079 -8.08442,-6.65174c-2.72957,-2.19773 -5.32205,-4.53905 -8.03599,-6.74493c-2.80393,-2.27901 -5.35869,-4.38936 -8.55884,-6.07845c-3.11795,-1.64525 -6.48646,-2.68089 -9.9314,-3.4179c-3.32669,-1.1118 -6.75538,-1.78659 -10.13433,-2.71276c-3.37647,-0.92538 -6.5804,-2.31082 -9.87032,-3.48647c-3.2721,-1.16914 -6.80543,-1.98768 -10.28591,-2.25218c-1.28405,-0.09758 -2.56782,-0.19637 -3.85208,-0.28354c2.61814,-4.16151 4.36179,-6.92489 5.19856,-8.29015c0.51328,-0.66727 1.02656,-1.6425 1.53984,-2.87437c0.51328,-1.43718 0.87257,-2.46374 1.18054,-3.13101c1.07789,-2.36109 2.66906,-3.64429 4.87616,-3.69562z" fill="#fff9b6" stroke="none" stroke-width="1"/><path d="M206.92439,142.35127c-0.30797,1.12921 -0.87257,3.74695 -1.74515,7.80186c-0.2498,1.18657 -0.47112,2.25916 -0.66249,3.21778c-0.2014,0.04576 -0.40287,0.09137 -0.60444,0.13678c-3.25714,0.73372 -6.42035,1.71641 -9.59737,2.73207c-4.46892,-0.63265 -9.28562,-0.95383 -14.44041,-0.95383c-2.46375,0 -4.26022,0.56461 -5.38944,1.69382c-0.76992,0.76992 -1.18055,1.69383 -1.18055,2.72039c0,1.53984 0.66727,2.66906 1.95047,3.33632c1.00634,0.50317 2.58336,0.84327 4.7311,1.02032c-1.52156,0.85104 -3.07979,1.6445 -4.56982,2.45753c-3.08779,1.68482 -6.15375,3.34978 -9.07595,5.3093c-1.87987,1.26058 -3.76676,2.5031 -5.66717,3.72692c-3.345,-0.68617 -5.88355,-2.47933 -7.59187,-5.37949c-1.38586,-2.36109 -2.10445,-4.92749 -2.10445,-7.64787c0,-7.03194 2.05312,-12.93465 6.15936,-17.70816c6.82662,-7.95584 18.68339,-11.95943 35.57031,-11.95943c3.64429,0 7.75053,0.9239 12.31872,2.72038c0.97523,0.41063 1.95046,0.76992 2.82304,1.18054c-0.05133,0.3593 -0.15398,0.76993 -0.20531,1.23188c-0.3593,2.51507 -0.61594,3.95225 -0.7186,4.36288z" fill="#fff9b6" stroke="none" stroke-width="1"/><path d="M203.69073,158.16031c-2.59781,-0.71731 -5.34939,-1.30281 -8.25198,-1.75375c2.83754,-0.89967 5.67276,-1.75541 8.58344,-2.41108c0.12943,-0.02916 0.25883,-0.0584 0.38819,-0.08771c-0.37713,1.91851 -0.62145,3.33602 -0.71965,4.25254z" fill="#fff477" stroke="none" stroke-width="1"/><path d="M226.68569,213.38922c-2.30976,4.77351 -5.54342,9.08506 -9.64966,12.88333c-9.64966,8.87974 -21.76307,13.34528 -36.34023,13.34528c-6.15936,0 -13.08864,-0.87258 -20.78784,-2.5664c-8.82841,-1.95047 -13.24263,-4.10623 -13.24263,-6.46732c0,-2.05312 1.53984,-8.00717 4.56819,-17.75949c2.61773,-8.4178 4.26023,-13.44793 4.92749,-15.03911c0.87257,0.51328 2.51507,1.53984 4.87616,3.07968c2.2071,1.38585 4.00359,2.20711 5.28678,2.5664c0.51328,0.15399 2.82304,0.97523 6.92928,2.46374c4.46554,1.43718 8.21248,2.15578 11.29216,2.15578c8.6231,0 15.1931,-2.66905 19.76129,-7.95584c0.12775,-0.14772 0.25302,-0.29637 0.37583,-0.446c1.50457,0.29039 3.01138,0.56934 4.51506,0.85648c3.44099,0.65709 6.90541,1.19867 10.37347,1.69217c3.37885,0.48081 6.73985,1.03401 10.13214,1.40646c-0.44411,3.22311 -1.44374,6.49092 -3.0175,9.78483z" fill="#c6be5d" stroke="none" stroke-width="1"/><path d="M330.72753,209.6423c0,0.41063 0.15399,2.9257 0.51328,7.49389c0.3593,4.56819 0.51328,7.08326 0.51328,7.49389c0,0.56461 0,0.87257 -0.05133,0.87257c-0.15399,-0.05133 -0.3593,-0.05133 -0.56461,0c-0.25664,-0.10265 -0.76991,-0.25664 -1.69382,-0.41062h-23.09761c-0.56461,0.15399 -1.74515,0.30797 -3.4903,0.56461c-1.79648,0.25664 -2.87436,0.41062 -3.18233,0.46195c-0.05133,-0.05133 -0.15398,-0.15398 -0.20531,-0.30796l-0.05133,-0.20532c0.51328,-1.64249 1.89913,-6.51865 4.10624,-14.62848c0.34784,-1.27542 0.68486,-2.49456 1.01061,-3.65742c3.08099,-0.1586 6.16185,-0.25094 9.24658,-0.34342c3.49907,-0.10491 6.99022,-0.14377 10.49071,-0.14911c2.15403,-0.00329 4.3164,-0.01525 6.47604,-0.05772c-0.01355,0.90936 -0.02011,1.86722 -0.02011,2.87314z" fill="#c6be5d" stroke="none" stroke-width="1"/><path d="M432.35698,244.59667c0.71859,1.12921 1.12922,2.05312 1.12922,2.72038c0,1.89914 -2.61773,3.69562 -7.80186,5.38944c-4.51686,1.48851 -8.36647,2.2071 -11.5488,2.2071c-3.69561,0 -6.62131,-0.87257 -8.72576,-2.5664c-1.64249,-1.38585 -2.46375,-2.77171 -2.46375,-4.26022c0,-2.05312 1.23188,-4.00358 3.64429,-5.85139c2.97703,-2.25843 7.23724,-3.74695 12.78067,-4.41421c3.4903,-0.46195 6.82662,0.66727 10.00896,3.38765z" fill="#c6be5d" stroke="none" stroke-width="1"/><path d="M428.918,201.9431c1.89914,2.66905 4.67085,6.46733 8.26381,11.49748l-24.79143,-0.15399c-0.30797,-0.10265 -1.59117,-0.25664 -3.8496,-0.41063c-2.05312,-0.20531 -3.13101,-0.30796 -3.23367,-0.41062c1.33742,-2.71098 2.77666,-5.80379 4.31772,-9.27842c3.01085,-0.28045 6.00122,-0.63945 9.00293,-1.03226c3.23683,-0.42358 6.56347,-0.78433 9.83615,-0.84089c0.14783,0.20543 0.29919,0.41521 0.45409,0.62933z" fill="#d9cf66" stroke="none" stroke-width="1"/><path d="M255.01873,130.75116c2.97702,0.20531 4.72218,0.3593 5.23546,0.46195l21.30112,0.25664c-1.12725,3.90779 -2.08946,7.67806 -2.90676,11.29065c-0.6708,0.1065 -1.34031,0.21973 -2.00763,0.34432c-3.46522,0.48001 -6.90004,1.15451 -10.36501,1.63734c-3.46583,0.48296 -6.93151,0.96698 -10.39678,1.45395c-3.47409,0.42217 -6.9559,0.75879 -10.43086,1.17113c-3.4755,0.4124 -6.96947,0.68248 -10.44167,1.10727c-1.96918,0.24102 -3.93716,0.49213 -5.90481,0.74574c0.13774,-1.08416 0.30712,-2.29589 0.50957,-3.6352c0.41063,-2.77171 0.66726,-4.92749 0.82124,-6.416c0.25664,-0.66726 0.51328,-1.43718 0.76992,-2.41242c0.51328,-1.89914 0.97523,-3.18233 1.38586,-3.95226c0.66726,-1.2832 1.48851,-2.15577 2.5664,-2.51507h15.09043c0.30797,0.10265 1.89914,0.25664 4.77351,0.46195z" fill="#ffe785" stroke="none" stroke-width="1"/><path d="M408.54079,127.26085c-0.80696,2.47752 -1.58659,4.82617 -2.33889,7.04812c-1.34712,0.02303 -2.69405,0.04292 -4.04108,0.04295c-3.49745,0.00044 -7.00089,0.23925 -10.4988,0.39658c-3.22418,0.14502 -6.46573,0.38976 -9.69487,0.44336c-0.47768,-2.0269 -1.85118,-3.59242 -4.12052,-4.64603c-0.9239,-0.46195 -2.15578,-0.82125 -3.59296,-1.18055c0.05133,-0.25664 0.05133,-0.51328 0.10266,-0.76992c0.15398,-1.2832 0.20531,-2.87437 0.15398,-4.82484c-0.05133,-2.2071 -0.05132,-3.38765 -0.05132,-3.59296c0.30797,-5.59475 0.82125,-10.72755 1.53984,-15.3984c9.39303,0.56461 14.42317,0.87257 15.14176,1.02656h17.9648c1.53984,-0.25664 3.74694,-0.41062 6.67264,-0.41062c-0.87257,2.46375 -3.28499,9.75232 -7.23724,21.86573z" fill="#ffe785" stroke="none" stroke-width="1"/><path d="M247.62749,206.97324l0.05133,0.56461c0.05133,0.51328 0.20531,0.9239 0.46195,1.33453c0.82125,1.2832 2.36109,1.95047 4.61952,1.95047c0.41063,0 1.38586,-0.05133 2.9257,-0.15399c2.5664,-0.20531 5.18413,-0.3593 7.85318,-0.51328c2.20711,0 4.51686,0 6.92928,0c4.67085,0.05133 8.52045,0.15399 11.5488,0.25664c-0.30797,1.59117 -0.71859,4.2089 -1.33453,7.90452c-0.82125,5.08147 -1.23188,8.0585 -1.23188,8.93107c0,0.41063 0.05133,1.23187 0.15399,2.5664c0.10265,1.33453 0.15399,2.30976 0.15399,2.82304l-17.45152,0.25664c-2.41242,0.46195 -6.31335,0.61594 -11.65146,0.46195c-6.36468,-0.25664 -11.13818,-0.46195 -14.21786,-0.51328c-5.44077,-0.10265 -9.44435,0.10265 -12.06208,0.61594c-0.46195,0.05133 -0.82125,0.15398 -1.18055,0.25664c-0.05133,-0.9239 -0.15398,-1.79647 -0.30797,-2.61772c8.31569,-7.19195 12.97053,-16.07656 13.999,-26.65381c1.17275,0.14174 2.3457,0.28168 3.51949,0.41379c2.47825,0.27893 4.9648,0.52859 7.44253,0.83252c-0.14694,0.38709 -0.22091,0.81485 -0.22091,1.28331z" fill="#c19a00" stroke="none" stroke-width="1"/><path d="M373.79173,214.10784c0.20531,0.30797 0.3593,0.71859 0.56461,1.23187c0.20531,0.41063 0.66726,0.61593 1.33453,0.61593c1.74515,0 2.82304,0.10266 3.23367,0.30797c1.12921,0.61594 2.05312,2.15578 2.82304,4.67085c0,0.15399 0.51328,1.33452 1.43718,3.54163c0.9239,2.25843 1.38585,3.4903 1.38585,3.79827c0.10266,2.00179 -0.51328,3.95226 -1.79648,5.90272c-2.5664,3.8496 -7.28858,5.80006 -14.21786,5.80006c-3.33632,0 -5.85139,-1.79648 -7.44256,-5.38944c-1.02656,-2.25843 -1.53984,-4.51686 -1.53984,-6.72396c0,-5.4921 2.46374,-10.47092 7.3399,-14.93645c3.8496,-0.3593 6.15936,0 6.87795,1.18054z" fill="#c19a00" stroke="none" stroke-width="1"/></g></g></svg>