<svg version="1.1" xmlns="http://www.w3.org/2000/svg" xmlns:xlink="http://www.w3.org/1999/xlink" width="433.30814" height="333.01771" viewBox="0,0,433.30814,333.01771"><defs><linearGradient x1="356.31544" y1="218.56314" x2="356.31544" y2="221.61204" gradientUnits="userSpaceOnUse" id="color-1"><stop offset="0" stop-color="#86541b"/><stop offset="1" stop-color="#942e2e"/></linearGradient></defs><g transform="translate(-102.53382,-24.47137)"><g stroke-miterlimit="10"><path d="M124.10569,98.36932c-0.42016,-2.00955 1.32256,-5.52306 4.98678,-6.16781c3.39743,-0.59782 4.52613,2.44372 9.63832,2.13481c0.04901,0.04163 3.18622,-0.18572 4.82163,-1.53095c0.32705,-0.26902 0.07554,-1.99898 -0.9068,-4.42086c-1.31219,-3.23512 -3.77023,-7.57028 -0.90089,-10.0112c1.05351,-0.89622 3.26579,-1.29092 5.27002,0.47103c1.07855,0.94816 1.57733,2.7528 2.67848,3.87488c0.65412,0.66658 1.96502,1.0923 2.51983,0.95454c1.11372,-0.27653 2.86191,-2.51883 3.82644,-5.42328c1.94241,-5.84912 1.90267,-12.02519 3.58821,-14.95571c0.72543,-1.26123 11.8724,-5.90824 15.43538,-7.78858c4.60593,-2.43073 10.63187,-3.80283 15.96232,-5.68517c8.96981,-3.16748 17.43711,-6.06838 24.55541,-5.40556c1.82504,0.16993 3.22726,-2.82626 5.09055,-4.4345c2.01401,-1.73831 4.3838,-2.96029 6.94955,-3.54783c1.41669,-0.32441 2.65431,1.78317 4.66572,3.83765c5.21062,5.32216 11.80284,14.86137 11.80284,14.86137c0,0 1.21967,-1.13237 2.11184,-1.75339c1.24497,-0.86659 2.75457,-1.36431 3.50678,-1.43696c0.38173,-0.03686 4.4393,0.6179 5.99497,1.67281c2.66766,1.80899 3.30666,4.46166 3.94847,4.4146c0.64882,-0.04758 1.46492,-0.2614 2.10484,-0.2981c3.4824,-0.19966 7.85185,4.85925 13.40916,3.70242c1.92735,-0.4012 1.55334,-0.96758 3.30855,-1.31121c5.29914,-1.03743 10.65355,-0.50412 14.70961,-0.49372c3.31043,0.00849 5.84716,-0.57439 6.03142,-0.6392c1.41274,-1.21509 -0.55126,-7.59381 2.28733,-8.58139c4.99243,-1.73693 9.53325,1.33816 15.0665,5.76707c4.12407,3.30096 9.34554,7.41464 12.78786,10.52319c5.36349,4.84347 8.33591,8.73483 8.45911,8.66847c0.14095,-0.07593 2.73699,-13.15139 4.30773,-14.75068c1.91034,-1.94507 6.45613,-1.94717 9.15375,-2.86825c1.70371,-0.58172 1.38134,-1.6385 2.5752,-2.27833c1.296,-0.69456 2.68978,0.45808 3.9675,-0.17744c0.46772,-0.23263 1.40985,-2.7292 1.30929,-4.2133c-0.21935,-3.23668 -1.55757,-6.89528 1.7765,-8.70502c1.97741,-1.07335 4.09435,0.69932 6.25083,1.67244c0.29553,0.13336 2.62979,0.78453 3.32095,-0.41731c0.32653,-0.56776 0.82766,-4.46054 1.26345,-4.98945c-0.00534,-0.1768 -1.28708,-1.81155 -1.00833,-4.01538c0.33597,-2.65627 2.55042,-5.89642 6.88966,-5.21343c2.31124,0.36379 5.79483,4.15122 4.35794,8.58058c-0.7833,2.4146 -4.52109,2.40817 -4.30843,2.61211c0.65286,1.22348 0.29053,8.0069 1.16476,8.12355c0.98897,0.13196 3.01721,-0.72112 4.65457,-1.16089c1.4881,-0.39968 2.59416,-0.39882 3.43493,-0.13806c3.19797,0.99179 5.70455,3.56645 9.06526,5.68694c3.92774,2.47825 8.48309,4.46058 8.48309,4.46058c0,0 3.54337,-3.34933 6.99143,-5.63373c3.98553,-2.64048 8.18463,-4.61705 8.25473,-4.7762c2.2299,-5.06313 3.02701,-7.85431 6.51302,-9.02484c10.36502,-3.48034 32.94837,7.92278 52.38352,16.10122c4.80847,2.02343 9.23832,4.74436 13.53866,6.69671c0.6102,0.27703 0.91554,19.47499 -2.22824,26.36362c-1.97715,4.33232 -11.6061,4.04172 -13.68144,7.27695c-1.13487,1.76915 3.32864,9.69831 3.8155,9.69546c0.55604,-0.00323 4.29908,-0.22166 9.57669,-0.87379c6.18795,-0.76462 14.0363,-1.59154 19.3929,0.87644c6.06885,2.79613 4.45922,11.76761 4.0619,12.81041c-0.7107,1.86527 -2.19207,6.52034 -2.64993,11.6842c-1.03672,11.69241 1.85682,19.14335 0.98661,27.0275c-0.05807,0.52611 3.38011,4.169 2.10655,8.92058c-1.06876,3.9875 -6.00389,8.15703 -8.27746,12.52072c-4.3335,8.31735 -11.18329,14.43079 -10.60878,14.97129c0.07266,0.06838 4.43841,7.98946 5.53044,7.57523c0.64137,-0.24328 2.13297,-0.87174 3.1198,-0.94764c1.72557,-0.13273 3.42191,1.1494 4.49675,2.47173c1.98585,2.44312 3.53215,6.39439 6.5885,6.28436c0.50452,-0.01816 5.45577,-13.51597 12.35454,-7.48299c1.36022,1.18951 2.0185,2.80764 1.76748,4.21874c-0.37041,2.08223 -2.41547,3.82519 -3.86363,4.73771c-2.18155,1.37465 -4.15262,2.84122 -4.25631,3.69924c-0.32055,2.65283 1.31809,7.78927 4.00472,7.51185c6.08273,-4.24791 8.65486,-0.92457 8.94533,2.07383c0.66544,6.86902 -7.05335,4.2021 -7.03013,4.68061c0.09544,1.96605 -0.1975,4.93558 0.41169,6.80775c0.9482,2.91404 3.82753,4.00024 4.16693,6.52938c0.4,2.98076 -1.23796,7.77921 -2.3262,11.10197c-1.00919,3.08142 -1.4055,4.67574 -2.72398,7.75462c-3.63798,8.49524 -7.87161,11.91697 -7.65176,12.40305c0.60797,1.34418 -12.63644,1.79675 -30.31674,-0.21346c-8.72446,-2.7831 -21.60606,-6.03798 -24.78379,-4.79312c-4.3317,1.69692 -4.10995,5.80468 -4.00445,8.83122c0.01271,0.36466 1.64711,16.31759 -13.42566,39.44006c-7.36291,11.29512 -70.34404,11.02818 -68.83306,13.021c0.8328,1.09835 1.42188,3.22328 1.70125,4.93048c0.44493,2.71884 -1.87796,6.44766 -4.72212,6.5672c-2.7904,0.11728 -6.47647,-0.98907 -7.18283,-5.21273c-0.18633,-1.11414 -2.53705,-5.20167 -2.53705,-5.20167c0,0 0.01845,-0.78323 -3.34666,1.31104c-0.95585,0.59489 -2.10799,4.79131 -2.51701,6.51698c-0.62279,2.62749 1.03854,6.50184 0.25495,9.60017c-0.99698,3.94209 -4.09048,6.55946 -6.5587,5.98041c-4.62714,-1.08554 -8.17995,-4.61742 -6.95017,-9.55998c0.32581,-1.30942 2.94119,-6.47676 3.62479,-8.20173c0.70494,-1.7788 -2.03784,-3.61172 -2.81308,-4.69424c-1.02392,-1.42981 -102.8938,5.2205 -123.85089,-9.49822c-14.8568,-10.43432 -13.13196,-34.16478 -14.04704,-34.80606c-2.13141,-1.49369 -2.11766,-3.19581 -4.08577,-5.43872c-1.8743,-2.136 -4.82836,-3.9072 -6.00844,-4.69329c-1.05936,-0.70569 -2.18623,0.78363 -2.22676,1.08529c-0.21935,1.63273 -5.3779,-1.63336 -12.95804,-1.94827c-9.31155,-0.38683 -21.87343,1.83786 -28.49114,3.56832c-9.22262,2.41163 -16.92447,7.00159 -17.95208,7.32378c-1.63102,0.51135 -8.98441,1.30304 -11.42665,-2.45101c-1.99309,-3.06364 -3.56017,-8.96359 -3.85761,-11.05403c-0.27732,-1.94899 -3.01383,-2.70187 -3.23265,-5.21106c-0.36305,-4.16295 2.11573,-3.23491 2.8137,-5.50117c0.44823,-1.45537 -1.43777,-3.79534 -1.73398,-4.26137c-0.8484,-1.33478 -2.53146,-1.83444 -3.10534,-1.67692c-1.90601,0.52317 -3.94731,0.74518 -5.05516,0.58276c-3.45633,-0.5068 -2.96945,-3.60942 -3.02638,-4.6839c-0.30397,-5.73506 7.94493,-2.74167 8.07839,-2.84936c1.54362,-1.24581 2.37057,-3.48584 2.09195,-5.67006c-0.12466,-0.97724 -0.29811,-1.93462 -1.59952,-2.70331c-2.24061,-1.32344 -8.1783,0.80135 -9.26971,-3.26191c-1.84781,-6.87925 3.1512,-8.19905 4.40449,-8.2995c2.96443,-0.23761 4.70784,1.59473 6.00641,3.23642c1.13842,1.43922 2.01674,2.73192 1.97524,2.35506c-0.08028,-0.72866 3.98271,-0.51203 3.94951,-1.21996c-0.12936,-2.75839 -0.1459,-4.31832 0.99656,-6.4041c0.59567,-1.08754 1.63963,-1.88323 2.70684,-2.53422c3.29138,-2.00773 8.08213,2.6881 7.71165,2.7443c-1.60648,0.24367 3.2315,-1.63473 3.2093,-2.22184c-0.1606,-4.24698 3.42393,-7.3166 8.43402,-4.66803c-0.3188,0.22323 0.88989,-2.68561 1.45131,-5.3562c0.43226,-2.05616 0.27115,-4.04096 0.02374,-3.91632c-1.38793,0.69922 -6.71662,2.93872 -9.99198,2.23077c-6.10459,-1.05654 -8.0303,-3.62121 -9.54196,-6.30863c-0.86873,-1.54442 -1.986,-4.27146 -2.63586,-7.01068c-1.94811,-8.21143 -1.5519,-8.64876 -2.37217,-15.50519c-0.58395,-4.88103 -1.18924,-10.81463 -0.90656,-14.70453c0.2998,-4.12559 1.56096,-6.13981 3.55107,-8.93473c1.3437,-1.88711 3.13136,-3.54694 4.11467,-5.23051c0.87807,-1.50339 0.44838,-2.58544 0.45998,-2.91215c0.09958,-2.80449 -0.28464,-6.95886 0.17342,-11.19673c0.35052,-3.24302 1.1683,-5.80579 1.599,-8.58772c0.56609,-3.65643 1.46978,-6.98308 2.52443,-8.94747c1.31177,-2.44334 2.7438,-3.08136 2.72568,-3.15757c-0.38994,-1.63926 -2.40591,-1.59432 -2.60123,-3.01855c-0.14854,-1.0831 -0.21192,-2.6961 0.3288,-4.3666c0.48822,-1.5083 1.67712,-3.14182 2.50319,-3.25801c0.10505,-0.01478 0.82745,-4.00871 0.42631,-4.77168c-0.5672,-0.98939 -2.5622,-1.57271 -4.73855,-1.54404c-1.66888,0.02199 -2.64714,0.89652 -4.26525,0.48743c-3.06591,-0.77514 -4.57857,-3.65096 -4.94722,-5.4142z" fill="#3841bb" stroke-opacity="0.50196" stroke="#ffffff" stroke-width="10"/><path d="M124.10569,98.36932c-0.42016,-2.00955 1.32256,-5.52306 4.98678,-6.16781c3.39742,-0.59782 4.52613,2.44372 9.63832,2.13481c0.04901,0.04163 3.18622,-0.18572 4.82164,-1.53095c0.32704,-0.26902 0.07553,-1.99898 -0.90681,-4.42085c-1.31219,-3.23512 -3.77022,-7.57028 -0.90089,-10.01121c1.05352,-0.89622 3.26579,-1.29092 5.27002,0.47102c1.07855,0.94816 1.57733,2.7528 2.67847,3.87489c0.65412,0.66658 1.96502,1.0923 2.51984,0.95454c1.11372,-0.27653 2.86191,-2.51884 3.82644,-5.42328c1.94242,-5.84911 1.90267,-12.02519 3.58821,-14.95571c0.72543,-1.26123 11.87241,-5.90825 15.43538,-7.78858c4.60593,-2.43073 10.63187,-3.80282 15.96232,-5.68517c8.96981,-3.16748 17.43711,-6.06839 24.55541,-5.40557c1.82504,0.16993 3.22726,-2.82626 5.09055,-4.4345c2.01402,-1.73831 4.3838,-2.9603 6.94956,-3.54783c1.41669,-0.3244 2.65431,1.78318 4.66572,3.83765c5.21062,5.32216 11.80284,14.86137 11.80284,14.86137c0,0 1.21967,-1.13236 2.11184,-1.75339c1.24497,-0.86659 2.75457,-1.36431 3.50678,-1.43696c0.38173,-0.03686 4.4393,0.6179 5.99498,1.67282c2.66766,1.80898 3.30666,4.46166 3.94847,4.4146c0.64882,-0.04758 1.46492,-0.2614 2.10484,-0.2981c3.4824,-0.19966 7.85186,4.85925 13.40916,3.70242c1.92735,-0.4012 1.55333,-0.96758 3.30855,-1.31121c5.29914,-1.03743 10.65355,-0.50412 14.70962,-0.49372c3.31043,0.0085 5.84716,-0.57439 6.03142,-0.6392c1.41274,-1.21509 -0.55126,-7.59381 2.28733,-8.58139c4.99244,-1.73693 9.53325,1.33816 15.0665,5.76707c4.12407,3.30096 9.34554,7.41464 12.78786,10.52319c5.36349,4.84346 8.33591,8.73484 8.45911,8.66847c0.14095,-0.07593 2.73699,-13.15139 4.30774,-14.75068c1.91034,-1.94506 6.45612,-1.94716 9.15374,-2.86825c1.70371,-0.58172 1.38134,-1.6385 2.5752,-2.27833c1.296,-0.69456 2.68978,0.45808 3.9675,-0.17744c0.46772,-0.23264 1.40985,-2.72921 1.30929,-4.21331c-0.21934,-3.23669 -1.55757,-6.89528 1.7765,-8.70502c1.97742,-1.07335 4.09435,0.69932 6.25083,1.67245c0.29552,0.13336 2.62979,0.78453 3.32095,-0.41731c0.32653,-0.56776 0.82766,-4.46054 1.26345,-4.98945c-0.00534,-0.1768 -1.28708,-1.81155 -1.00833,-4.01538c0.33596,-2.65627 2.55042,-5.89642 6.88966,-5.21344c2.31124,0.36379 5.79483,4.15122 4.35794,8.58058c-0.7833,2.4146 -4.52109,2.40816 -4.30842,2.6121c0.65286,1.22348 0.29053,8.00691 1.16476,8.12355c0.98897,0.13196 3.01721,-0.72113 4.65458,-1.16089c1.48811,-0.39968 2.59416,-0.39882 3.43493,-0.13806c3.19797,0.99179 5.70456,3.56644 9.06527,5.68693c3.92773,2.47825 8.48309,4.46059 8.48309,4.46059c0,0 3.54337,-3.34933 6.99143,-5.63373c3.98553,-2.64048 8.18464,-4.61705 8.25473,-4.77621c2.22989,-5.06314 3.02701,-7.85431 6.51303,-9.02484c10.36503,-3.48034 32.94837,7.92277 52.38352,16.10121c4.80847,2.02343 9.23832,4.74436 13.53867,6.69672c0.61021,0.27703 0.91553,19.47499 -2.22825,26.36362c-1.97715,4.33232 -11.6061,4.04172 -13.68144,7.27695c-1.13488,1.76915 3.32864,9.69831 3.8155,9.69546c0.55604,-0.00323 4.29908,-0.22167 9.57669,-0.87378c6.18795,-0.76462 14.03629,-1.59154 19.39289,0.87645c6.06885,2.79613 4.45922,11.76761 4.06189,12.81041c-0.7107,1.86527 -2.19207,6.52034 -2.64993,11.6842c-1.03672,11.69242 1.85682,19.14336 0.98661,27.0275c-0.05806,0.52611 3.38011,4.169 2.10654,8.92058c-1.06876,3.98749 -6.00389,8.15704 -8.27746,12.52072c-4.3335,8.31735 -11.18329,14.43079 -10.60877,14.97129c0.07266,0.06838 4.43841,7.98946 5.53044,7.57523c0.64137,-0.24328 2.13297,-0.87174 3.1198,-0.94763c1.72557,-0.13273 3.42191,1.14939 4.49676,2.47172c1.98584,2.44312 3.53215,6.39439 6.5885,6.28437c0.50451,-0.01817 5.45577,-13.51597 12.35454,-7.48299c1.36022,1.18952 2.0185,2.80764 1.76747,4.21874c-0.37041,2.08223 -2.41547,3.82519 -3.86362,4.73771c-2.18156,1.37464 -4.15262,2.84122 -4.2563,3.69924c-0.32056,2.65284 1.31809,7.78927 4.00472,7.51185c6.08273,-4.24791 8.65486,-0.92457 8.94534,2.07384c0.66544,6.86901 -7.05335,4.2021 -7.03013,4.6806c0.09544,1.96606 -0.1975,4.93558 0.41169,6.80776c0.9482,2.91404 3.82753,4.00024 4.16692,6.52938c0.4,2.98076 -1.23796,7.77921 -2.3262,11.10197c-1.00919,3.08142 -1.40549,4.67574 -2.72398,7.75463c-3.63798,8.49524 -7.87161,11.91697 -7.65176,12.40305c0.60797,1.34418 -12.63644,1.79675 -30.31673,-0.21345c-8.72447,-2.7831 -21.60606,-6.03798 -24.78379,-4.79312c-4.3317,1.69692 -4.10995,5.80468 -4.00445,8.83123c0.01271,0.36466 1.64711,16.31759 -13.42566,39.44006c-7.36291,11.29512 -70.34403,11.02818 -68.83306,13.021c0.8328,1.09835 1.42189,3.22328 1.70126,4.93048c0.44493,2.71884 -1.87797,6.44767 -4.72212,6.5672c-2.7904,0.11728 -6.47647,-0.98907 -7.18282,-5.21274c-0.18633,-1.11414 -2.53705,-5.20166 -2.53705,-5.20166c0,0 0.01845,-0.78323 -3.34666,1.31104c-0.95585,0.59489 -2.10798,4.79131 -2.517,6.51698c-0.62279,2.62749 1.03854,6.50184 0.25495,9.60017c-0.99698,3.94209 -4.09048,6.55946 -6.55869,5.98041c-4.62714,-1.08555 -8.17995,-4.61742 -6.95017,-9.55998c0.32581,-1.30942 2.94118,-6.47676 3.62478,-8.20173c0.70495,-1.7788 -2.03784,-3.61172 -2.81307,-4.69423c-1.02393,-1.42981 -102.8938,5.2205 -123.8509,-9.49822c-14.85681,-10.43433 -13.13195,-34.16478 -14.04704,-34.80606c-2.13142,-1.49369 -2.11766,-3.19581 -4.08578,-5.43872c-1.8743,-2.136 -4.82836,-3.9072 -6.00844,-4.69329c-1.05936,-0.70569 -2.18623,0.78364 -2.22675,1.0853c-0.21935,1.63274 -5.3779,-1.63336 -12.95804,-1.94828c-9.31154,-0.38683 -21.87343,1.83786 -28.49114,3.56832c-9.22262,2.41163 -16.92447,7.00159 -17.95208,7.32377c-1.63101,0.51135 -8.98441,1.30304 -11.42665,-2.451c-1.99309,-3.06364 -3.56017,-8.96359 -3.85761,-11.05403c-0.27732,-1.94898 -3.01383,-2.70186 -3.23265,-5.21105c-0.36305,-4.16295 2.11572,-3.23492 2.8137,-5.50117c0.44822,-1.45538 -1.43776,-3.79534 -1.73398,-4.26138c-0.8484,-1.33478 -2.53146,-1.83444 -3.10534,-1.67692c-1.90601,0.52318 -3.94731,0.74517 -5.05515,0.58275c-3.45633,-0.5068 -2.96945,-3.60942 -3.02638,-4.68391c-0.30397,-5.73506 7.94494,-2.74167 8.07838,-2.84936c1.54362,-1.2458 2.37057,-3.48583 2.09195,-5.67005c-0.12466,-0.97724 -0.29811,-1.93462 -1.59952,-2.70332c-2.24061,-1.32343 -8.1783,0.80134 -9.26971,-3.26191c-1.8478,-6.87925 3.15119,-8.19906 4.40448,-8.2995c2.96443,-0.23761 4.70784,1.59473 6.00641,3.23642c1.13842,1.43922 2.01674,2.73192 1.97523,2.35506c-0.08028,-0.72866 3.98271,-0.51202 3.94951,-1.21995c-0.12936,-2.75839 -0.1459,-4.31832 0.99656,-6.4041c0.59567,-1.08754 1.63963,-1.88323 2.70683,-2.53422c3.29138,-2.00773 8.08212,2.6881 7.71165,2.7443c-1.60648,0.24367 3.2315,-1.63473 3.2093,-2.22184c-0.1606,-4.24697 3.42394,-7.31661 8.43403,-4.66803c-0.3188,0.22323 0.88989,-2.68561 1.45131,-5.3562c0.43226,-2.05616 0.27115,-4.04096 0.02373,-3.91632c-1.38793,0.69922 -6.71661,2.93872 -9.99198,2.23077c-6.10459,-1.05654 -8.0303,-3.62121 -9.54196,-6.30863c-0.86873,-1.54442 -1.986,-4.27146 -2.63586,-7.01068c-1.94811,-8.21143 -1.5519,-8.64876 -2.37217,-15.50519c-0.58396,-4.88103 -1.18924,-10.81463 -0.90657,-14.70453c0.2998,-4.12559 1.56096,-6.13981 3.55107,-8.93473c1.3437,-1.88711 3.13136,-3.54693 4.11467,-5.2305c0.87807,-1.50339 0.44838,-2.58544 0.45998,-2.91215c0.09958,-2.80449 -0.28464,-6.95887 0.17342,-11.19673c0.35052,-3.24302 1.1683,-5.80579 1.59901,-8.58772c0.56609,-3.65643 1.46979,-6.98308 2.52444,-8.94747c1.31177,-2.44334 2.7438,-3.08136 2.72567,-3.15757c-0.38994,-1.63926 -2.40592,-1.59432 -2.60123,-3.01855c-0.14854,-1.08311 -0.21192,-2.6961 0.3288,-4.3666c0.48821,-1.5083 1.67712,-3.14181 2.50319,-3.25801c0.10505,-0.01478 0.82745,-4.00871 0.42631,-4.77168c-0.5672,-0.98939 -2.5622,-1.57271 -4.73855,-1.54404c-1.66888,0.02199 -2.64714,0.89652 -4.26525,0.48743c-3.06591,-0.77514 -4.57857,-3.65097 -4.94723,-5.41421z" fill="#3841bb" stroke-opacity="0.50196" stroke="#ffffff" stroke-width="0"/><path d="M344.49698,50.71298c0,-2.1325 1.72875,-3.86124 3.86124,-3.86124c2.1325,0 3.86125,1.72875 3.86125,3.86124c0,2.13249 -1.72875,3.86124 -3.86125,3.86124c-2.1325,0 -3.86124,-1.72875 -3.86124,-3.86124z" fill="#3841bb" stroke="none" stroke-width="0"/><path d="M134.2435,160.20417c0.66951,-1.18091 1.14426,-3.69425 1.37238,-6.99914c0.48843,-7.07603 0.35176,-13.98526 0.50578,-14.67674c0.39179,-1.75907 0.94165,-8.60665 3.15597,-11.25914c4.72061,-5.65472 13.04779,-9.9048 13.29526,-10.01861c0.64653,-0.29739 1.85738,-6.89758 3.38871,-15.58137c0.56131,-3.18304 2.10018,-10.86633 3.33904,-16.69638c2.032,-9.56253 2.8182,-14.31557 4.80275,-16.82019c4.22214,-5.32858 12.92392,-7.29453 17.1676,-9.00132c0.11454,-0.04607 21.83596,-8.36152 30.13901,-9.57251c2.44819,-0.35706 5.17488,1.50126 5.26713,1.51366c0.65728,0.08837 9.17766,-9.71548 10.54749,-9.19761c2.76557,1.04554 18.98499,20.35334 18.9226,21.68572c-0.02522,0.53863 0.9138,-2.08974 2.59569,-3.91756c0.97871,-1.06362 2.31031,-1.41745 2.90547,-1.26436c2.61092,0.67159 5.23338,4.69562 6.91757,6.53798c0.64859,0.70951 1.39597,0.22305 1.59724,0.39021c0.09142,0.25666 0.17188,-0.82054 1.17154,-1.63539c0.00267,-0.00218 2.83637,-0.34704 4.52172,0.19041c4.8085,1.53342 12.42027,5.24566 12.86498,5.63661c0.08663,0.07616 -0.97815,-2.70538 0.12139,-3.42553c0.86941,-0.56945 2.38901,-0.96004 3.82402,-1.21323c5.19556,-0.91665 13.67711,-0.93297 18.07711,-0.21348c1.97875,0.32357 2.65285,1.51469 2.66275,1.59259c0.15288,1.20198 0.33309,9.65928 0.35317,9.73812c0.01372,0.05382 1.25287,-0.76221 2.22988,-0.53731c0.45765,0.10534 0.77964,0.90794 1.03383,1.27942c0.09484,0.13859 -0.45073,-2.61426 -1.35071,-6.89586c-0.12024,-0.57198 -2.71252,-12.11228 -1.34404,-13.32404c1.78387,-1.57957 10.03834,3.77427 11.96043,5.28336c10.81953,8.49479 22.90889,23.41113 24.20083,24.97505c0.19299,0.23364 2.00079,-10.02354 3.79528,-16.35311c0.01888,-0.06655 1.14087,-5.03965 1.87922,-5.28567c2.4636,-0.8209 9.44884,-3.16005 15.6702,-3.93766c9.50809,-1.18841 18.70279,-0.60149 18.78065,-0.05398c0.05766,0.40538 7.19323,-5.70069 8.93292,-6.00953c1.10599,-0.19634 6.32088,4.1509 10.07767,7.06121c1.60058,1.23993 4.16548,2.36363 4.02881,2.52794c-0.23776,0.28582 20.35288,-14.55393 21.24552,-12.76404c0.03999,0.08018 -0.57321,-2.82158 -0.07901,-4.02767c0.94902,-2.31614 3.2912,-3.76026 3.31378,-3.56791c0.01919,0.16349 2.53963,-0.30206 5.65133,0.44681c4.87492,1.17323 12.07464,4.01677 20.07547,6.88849c11.90793,4.2741 25.10799,8.88676 31.21046,12.07896c2.38956,1.24997 3.38254,3.81512 3.34815,4.05396c-0.21724,1.50925 -0.64873,17.36585 -2.81541,18.73554c-0.96275,0.60862 -15.21163,5.75077 -16.4932,6.22382c-0.52426,0.1935 2.04587,6.54371 3.90708,10.33374c2.48975,5.06991 2.9439,7.00253 3.72505,8.09656c0.02027,0.0284 13.97658,-3.22037 23.31513,-3.18305c4.52552,0.01808 8.06673,2.82289 8.31187,3.38622c0.89454,2.39934 -1.16376,7.15754 -2.4733,11.96972c-0.83247,3.05915 -0.95099,5.9543 -1.22022,8.86877c-0.47074,5.09587 2.52248,18.80867 2.41568,19.20181c-0.11225,0.41323 -3.55628,1.12964 -3.25441,2.11656c0.26447,0.86466 4.72812,5.59407 4.72411,6.40501c-0.00801,1.62696 0.92817,4.67165 -0.15669,6.92402c-4.88466,10.14141 -19.87284,23.51356 -20.02578,23.13899c-0.11056,-0.27076 7.10979,14.45475 16.50232,27.26402c8.78342,11.97861 19.14548,21.8218 21.57704,24.93756c1.33696,1.71317 -2.80293,8.95235 -6.45456,15.82433c-2.761,5.19593 -4.87655,10.44497 -6.23563,10.61989c-4.04191,1.57383 -14.62546,1.49136 -28.4566,0.09378c-8.86371,-0.89563 -17.97024,-2.81056 -24.49476,-4.16602c-5.09654,-1.0588 -0.99265,16.54788 -19.25529,48.82111c-13.47764,12.37657 -204.22535,23.60551 -223.24429,-0.05964c-7.31979,-9.10797 -7.23776,-29.18656 -7.90623,-30.002c-1.33292,-1.62598 -0.77119,-5.0568 -1.61581,-4.97431c-0.24284,0.02371 -2.68552,-0.89387 -4.94567,-2.83322c-2.74001,-2.3511 -5.70026,-5.97221 -6.3696,-5.9522c-0.62759,0.0427 -0.48961,3.49141 -1.11612,3.50998c-5.80963,0.17204 -16.11838,-2.35614 -26.46985,-1.75987c-7.19589,0.4145 -16.32862,1.91007 -17.40177,2.12341c-2.16534,0.43051 -10.04099,3.78257 -14.97622,5.04956c-4.91341,1.26139 -6.88962,0.43943 -7.62072,0.09463c-0.38266,-0.18047 -2.15269,-3.17396 -2.74579,-6.98735c-1.20727,-7.76235 -1.31402,-19.23669 -1.35818,-19.502c-0.2181,-1.31037 0.54474,-7.55651 2.49021,-10.15511c6.87588,-9.18422 23.83588,-19.54469 22.94313,-19.40881c-0.39329,0.05988 1.48283,-3.78883 1.92912,-6.8077c0.81339,-5.5019 0.6402,-11.78888 -0.04899,-11.69646c-1.39432,0.187 -3.70322,1.13265 -5.0024,1.26904c-5.94296,0.62388 -7.67743,1.04519 -11.0266,0.46397c-4.85528,-0.84258 -7.74873,-11.88866 -9.00198,-22.61658c-0.81837,-7.00542 -1.56989,-12.15938 -0.38945,-15.68413c0.34461,-1.02899 5.05605,-4.66595 6.55774,-7.31474z" fill="#000000" stroke="none" stroke-width="0"/><path d="M153.84409,184.43116c-3.56153,0 -18.53356,7.54761 -19.66191,5.89293c-0.78679,-1.15377 -2.88062,-16.73961 -1.55679,-21.85874c0.21879,-0.6466 1.2282,-1.87479 3.39061,-3.60393c4.49486,-3.59426 12.97421,-9.02054 22.69724,-13.55611c12.24854,-5.71365 25.81279,-10.58442 40.3604,-16.35968c5.98501,-2.37599 12.88441,-3.99757 20.03346,-5.55188c15.72005,-3.41777 31.38142,-5.44255 32.23861,-5.30606c2.5473,0.40561 2.42346,13.15821 2.74353,19.67974c0.63101,12.85676 0.4117,27.31761 -1.80463,28.52697c-1.1621,0.6341 -23.21284,6.24384 -33.19245,6.63415c-2.49054,0.09741 -1.13074,-6.64159 -2.03617,-6.64788c-0.44837,-0.00311 -24.59841,2.58434 -26.43714,4.76217c-0.18627,0.22064 -0.23639,7.62368 -0.40227,7.85035c-1.10803,1.51417 22.07701,-3.76519 23.86806,1.54878c0.01068,0.03173 1.76196,22.60539 -1.06635,24.64671c-5.11647,3.6928 -15.52744,2.37345 -24.90102,4.66859c-1.38789,0.33983 -1.01113,8.50395 -2.38407,8.88549c-0.42207,0.11729 7.98016,-0.65753 8.98201,1.91998c0.9755,2.50969 0.65469,9.72172 0.43306,15.82272c-0.18929,5.21108 -0.05633,9.58663 -1.73125,9.80416c-0.71054,0.09228 -6.81004,-0.48236 -12.00779,-1.68335c-0.37732,-0.08718 -0.67245,-1.34838 -0.99398,-1.0711c-0.4451,0.38384 0.57608,3.75302 0.15229,4.28514c-0.92026,1.15551 -2.48436,1.67497 -3.90679,1.72962c-0.22727,0.00874 -2.37027,-0.51807 -2.8216,-1.75253c-0.48294,-1.32093 0.54219,-3.416 0.28969,-3.40074c-0.33968,0.02052 0.32305,-1.47481 -0.43513,-1.44838c-0.24532,0.00855 -0.87921,0.64533 -1.5115,1.08248c-0.46268,0.3199 -0.98094,0.47646 -1.06368,0.48353c-14.70108,1.25635 -33.47523,7.04102 -38.69196,8.54435c-1.63383,0.47083 -1.9577,-3.71339 -1.91241,-8.41124c0.01864,-1.93386 -0.04688,-5.81323 0.11577,-6.56175c0.36927,-1.69942 4.639,-5.78992 11.33463,-10.33785c6.39271,-4.3422 12.56955,-6.70075 13.18495,-8.00352c0.78211,-1.65571 2.24843,-7.71767 2.36409,-17.55232c0.05832,-4.95814 -0.18287,-10.97046 -0.92884,-15.2773c-0.91631,-5.29032 -2.40617,-8.38351 -2.74073,-8.38351z" fill="#ffffff" stroke="none" stroke-width="0"/><path d="M229.0667,224.21979c0.80083,-0.85438 2.25736,-1.0833 9.31833,-1.0833c0.92362,0 -0.56392,-38.98741 -0.01489,-40.00928c0.29426,-0.54768 1.38147,-2.58922 5.74672,-4.26386c10.30153,-3.95199 35.86751,-4.6436 37.36891,-2.7175c0.13875,0.178 1.70139,29.66671 0.48861,32.79687c-0.48149,1.24273 -7.42472,0.24384 -7.41877,0.51361c0.44108,19.98394 0.2462,29.76533 -5.64574,39.34857c-1.96258,3.19213 -6.10166,7.1179 -9.2023,8.4485c-1.46248,0.62761 -2.93507,1.01946 -4.37521,1.24389c-0.26803,0.04177 -1.03242,-3.25306 -1.29793,-3.22243c-0.07394,0.00852 -0.70456,-0.25118 -0.70505,0.08946c-0.00108,0.75976 0.66213,3.0741 0.92483,4.53186c0.33212,1.84288 0.26366,2.79583 0.06225,2.82503c-0.2498,1.34289 -1.70688,1.87968 -2.23065,1.82476c-0.38956,-0.04085 -1.46258,-0.52432 -1.84942,-1.08055c-0.86922,-1.24985 -1.15963,-2.61753 -0.92547,-3.67459c0.10972,-0.49527 0.90754,-1.13071 0.76865,-1.27339c-0.12212,-0.12545 -1.05914,0.48265 -2.13563,0.64304c-2.33451,0.34779 -8.22184,0.96722 -8.95824,0.96722c-4.59805,0 -20.18951,0.30535 -20.21032,0.44329c-0.44352,0.24203 -1.77646,0.97083 -2.6689,2.04959c-0.60363,0.72964 -0.64784,2.77954 -0.72104,4.14602c-0.05473,1.02143 0.86894,2.57435 1.44078,4.22797c0.64712,1.87131 0.9414,3.83903 0.65997,4.71056c-0.38734,1.20409 -1.41878,2.43575 -2.10794,2.49023c-2.4579,0.19431 -2.6593,-2.57252 -2.86157,-4.13037c-0.13503,-1.04002 0.26329,-2.34895 0.55546,-3.51168c0.37191,-1.48 0.56374,-2.66511 0.55447,-2.81524c-0.18446,-2.9832 -0.2297,-5.46942 -0.28622,-5.40636c-0.07969,0.08887 -0.62652,-1.85819 -1.61069,-2.33395c-0.55242,-0.26706 -1.41253,-0.8094 -2.88529,-1.19267c-1.61563,-0.42046 -3.86236,-0.68486 -4.72,-1.02731c-3.17689,-1.26847 -3.24752,-2.17852 -3.41877,-2.69803c-0.28886,-0.87628 -0.45838,-19.30172 -0.30636,-29.38732c0.05133,-3.40563 -0.22043,-6.37427 0.03588,-6.70427c0.21394,-0.27546 0.6244,-0.72918 3.07461,-1.46213c3.16603,-0.94708 7.80226,-1.77425 11.52536,-3.70899c0.25709,-0.13359 1.17055,-0.93094 1.35366,-1.84126c0.66218,-3.2922 0.17982,-10.16397 0.20158,-11.37245c0.0215,-1.195 0.23037,-3.45473 1.5374,-3.8806c1.62731,-0.53023 5.43663,-0.56806 6.93754,-0.34362c0.96861,0.14486 1.26934,0.8351 1.46136,0.92525c1.03101,0.48402 0.99408,7.60278 1.03387,7.94291c0.32107,2.74479 0.83285,7.54747 0.96141,10.7415c0.22563,5.60588 0.23155,8.56532 0.54483,8.2311z" fill="#ffffff" stroke="none" stroke-width="0"/><path d="M293.22746,133.64145c2.17207,-0.20985 14.38137,36.42244 22.49582,52.92127c2.21587,4.50545 5.57205,7.23216 6.03443,7.29257c0.10927,0.01427 -4.16484,-6.06169 -6.38634,-13.18975c-1.61049,-5.16753 -1.94439,-11.48677 -3.47978,-17.60404c-3.35051,-13.34894 -7.73894,-26.40111 -7.32594,-28.31063c0.45269,-2.09306 3.97323,-4.53714 7.21894,-7.19234c3.30359,-2.70253 5.88688,-5.0797 6.76995,-5.01043c0.76874,0.0603 2.43235,2.11674 3.74465,3.63644c4.58197,5.30617 14.68901,16.98395 17.43193,22.16374c0.36631,0.69173 -1.89703,4.26058 -3.77393,9.41255c-1.49659,4.10808 -2.56522,9.25917 -3.18531,14.49553c-0.5332,4.50243 -0.03397,9.43 0.21488,13.79499c0.42199,7.4022 1.06284,13.37437 1.54962,14.27639c2.05241,3.80322 2.13714,14.60696 11.4928,25.2588c2.12834,2.42323 6.53956,5.02587 10.74901,7.24676c4.95205,2.61268 9.89038,4.30424 12.0481,5.85128c0.98957,0.70949 0.32756,1.75889 0.20295,2.22912c-2.16003,8.15232 -28.22996,19.45876 -32.70901,22.25104c-0.79715,0.49695 -0.73241,2.0201 -2.51033,2.14448c-0.56986,0.03987 -0.99869,-2.0206 -1.60011,-2.10373c-3.36602,-0.46523 -10.84429,-20.49208 -17.02936,-36.98331c-5.3615,-14.29541 -9.18967,-25.82381 -12.03572,-24.39502c-0.50107,0.25155 3.55454,13.20488 4.97958,22.13323c2.33091,14.60386 2.65562,27.99926 1.81301,28.34055c-1.51154,0.61227 -3.74483,-1.87163 -5.18813,-1.45548c-1.09935,0.31698 1.15792,7.17924 1.1101,10.27676c-0.05681,3.67957 -2.37866,3.65173 -3.5965,3.53104c-1.73184,-0.17162 -2.38878,-1.90475 -2.24208,-4.00611c0.15841,-2.26922 1.20408,-4.9928 1.4383,-7.34652c0.22662,-2.2772 -1.48466,-4.29218 -1.72925,-4.34983c-0.56478,-0.13307 -3.13945,-1.60945 -6.21394,-2.3393c-5.24419,-1.24493 -11.9426,-2.03826 -12.60141,-2.75326c-0.99674,-1.08175 -0.56423,-28.41211 -0.27032,-28.95081c0.71327,-1.30742 5.27085,-0.24779 5.20263,-1.81107c-0.29758,-6.81707 2.81477,-25.71414 -0.43654,-37.47504c-0.2371,-0.85762 -1.25561,-1.67969 -1.55733,-2.4591c-0.2311,-0.59701 -1.44298,-1.15685 -2.55161,-1.43049c-5.4867,-1.35433 -19.02803,0.77312 -19.33665,-0.13769c-1.31609,-3.88413 -0.28869,-6.92593 -0.45819,-11.09095c-0.32641,-8.02109 -1.28259,-16.5086 -0.52293,-18.43812c0.02439,-0.06193 1.88407,-1.32012 5.36138,-2.61538c7.72324,-2.8768 23.73996,-5.50456 26.88263,-5.8082z" fill="#ffffff" stroke="none" stroke-width="0"/><path d="M336.75952,181.1167c0.40171,-6.51624 0.50724,-10.15178 3.4343,-18.48446c0.75992,-2.16332 3.57718,-11.36506 4.43207,-13.07031c0.19947,-0.3979 -0.09599,-2.60142 -1.17895,-5.23504c-1.2664,-3.07969 -3.35216,-6.63722 -3.08269,-6.91197c0.13818,-0.14088 6.27907,-3.47194 12.34704,-6.03117c2.98295,-1.25809 5.92145,-1.94838 8.17425,-2.72156c0.53731,-0.1844 1.18922,2.54785 2.00964,4.19877c2.3772,4.78365 5.92958,12.37427 5.89828,13.11847c-0.04932,1.17339 -6.35921,2.72026 -9.18366,8.72152c-2.80595,5.96195 -2.12883,16.38024 -1.49797,17.01642c0.06387,0.06441 1.54395,-2.80767 4.79718,-6.49871c4.61891,-5.24049 13.39924,-12.9261 19.53761,-19.20825c5.41701,-5.5439 8.37791,-10.57329 10.28759,-11.57976c0.48417,-0.25517 7.61828,15.25701 10.93591,24.73312c0.89222,2.54844 1.47135,3.81815 1.47917,6.07916c0.00241,0.69844 -2.24222,0.7171 -2.34372,0.76703c-3.12857,1.53902 -9.68651,5.33408 -15.62251,9.41163c-5.10839,3.50906 -8.97612,7.62207 -8.38854,7.65739c1.43122,0.08601 5.48067,-1.72671 9.21003,-2.60248c3.00137,-0.7048 8.41776,-1.81809 10.52224,-1.82956c1.94248,-0.01058 2.67789,2.00708 4.02541,6.1691c1.21236,3.74457 3.03466,9.32028 4.71554,15.08161c0.87278,2.99146 3.20378,6.99879 4.23136,10.12837c2.84351,8.65998 4.37024,15.93041 3.81734,17.22842c-0.37234,0.8741 -0.74377,2.64905 -1.61784,3.91713c-1.83009,2.65506 -5.18617,5.45921 -10.61415,9.7565c-5.36613,4.24833 -12.82084,8.79655 -18.62177,11.77775c-3.19891,1.64397 -5.49452,3.29026 -7.0601,3.29026c-2.39394,0 -0.20739,-2.43307 0.18807,-8.80388c0.57322,-9.23452 0.74141,-20.43314 0.27343,-31.82939c-0.18175,-4.42635 -0.03446,-11.77267 -0.63138,-14.72936c-0.31753,-1.57277 -12.61681,-0.06447 -13.63635,0.30143c-0.52953,0.19004 -1.35437,2.1714 -2.27556,5.69616c-1.60604,6.14514 -3.25951,14.98794 -3.39553,14.98106c-0.30261,-0.01527 -2.11213,-0.747 -3.87423,-1.9608c-4.29798,-2.96061 -9.74199,-9.2414 -12.45146,-14.08434c-4.29468,-7.67637 -5.44069,-14.70703 -4.84006,-24.45027z" fill="#ffffff" stroke="none" stroke-width="0"/><path d="M424.16635,143.35176c-0.91056,1.33011 -2.61393,3.28084 -5.07762,5.23997c-3.35242,2.66583 -7.72904,5.34717 -9.87706,6.50145c-0.78563,0.42218 -2.12257,0.20962 -2.22853,0.19625c-1.36571,-0.03978 -2.19906,-2.70137 -3.51001,-5.77812c-1.91828,-4.5021 -3.71265,-9.91427 -3.71265,-10.86452c0,-0.58554 -0.97521,-5.98056 -0.00882,-6.92063c0.65286,-0.63507 2.03541,-1.03591 4.18751,-1.69307c1.26814,-0.38724 2.80349,-1.01051 4.6142,-1.42752c5.62684,-1.2959 15.17747,-2.28932 16.72902,-1.14283c0.34564,0.25539 0.4025,4.64528 0.21394,9.3829c-0.09523,2.39279 0.09551,4.42381 -1.32998,6.50613z" fill="#ffffff" stroke="none" stroke-width="0"/><path d="M422.03594,183.90893c0.31353,1.34729 2.86928,9.57921 6.31716,17.67336c3.67278,8.62216 8.3073,17.17901 10.61319,20.16719c3.22279,4.17637 8.51125,7.46367 9.65914,10.29459c0.32851,0.81017 -0.08963,2.47731 -0.09096,3.01745c-0.0061,2.48574 -1.60806,7.18593 -3.19607,11.3265c-1.06144,2.76758 -1.83387,5.92575 -2.96175,6.24569c-1.15954,0.32893 -6.77342,-2.28787 -9.10741,-2.47193c-2.99066,-0.23584 -2.89367,1.63194 -3.02799,2.13901c-0.3671,1.38585 1.73746,7.80106 1.7952,9.32534c0.17093,4.51243 -0.69181,4.05043 -2.48428,4.22511c-3.7367,0.36418 -2.14537,-5.30543 -2.35857,-5.22263c-0.09829,0.03816 0.73938,-3.25546 0.84922,-6.04631c0.1419,-3.60532 -0.42864,-6.92396 -0.55964,-6.90174c-0.14698,0.02494 -2.63929,-0.81271 -4.76893,-1.86065c-3.07689,-1.51403 -6.13152,-3.46701 -6.42435,-3.8917c-0.41402,-0.60047 -0.15725,-1.15683 0.30108,-2.79706c0.55769,-1.99584 1.69715,-4.80443 2.37161,-7.27787c0.73426,-2.69275 1.13388,-5.00828 0.94918,-5.05134c-0.25091,-0.05849 -2.41161,-7.49342 -5.00563,-16.37457c-0.736,-2.5198 -1.57591,-4.74182 -2.33242,-7.45214c-3.46622,-12.4181 -11.07815,-25.56261 -9.56545,-29.68138c0.51691,-1.40745 2.25752,-3.277 4.00417,-4.75057c3.49265,-2.94658 8.51068,-6.56182 9.52076,-6.68519c1.65267,-0.20186 1.78008,6.37121 2.85183,12.9384c0.54168,3.31913 1.82767,5.57463 2.65092,9.11245z" fill="#ffffff" stroke="none" stroke-width="0"/><path d="M467.71986,242.79074c-0.13436,0.3516 -3.40076,-0.26816 -6.7123,-1.30959c-1.7147,-0.53924 -3.83144,-1.19156 -4.70813,-1.8806c-0.04669,-0.03669 -0.5856,-4.21422 -1.99101,-9.71837c-0.8877,-3.47663 -2.19764,-7.2238 -3.37555,-10.95067c-2.00318,-6.33794 -5.15498,-13.76625 -7.20018,-18.53882c-1.68678,-3.93621 -2.40116,-9.70368 -3.91943,-9.53073c-0.47025,0.05356 0.00884,4.04761 -0.04433,5.45413c-0.22659,5.99345 1.90493,18.24897 1.5937,18.10629c-0.00973,-0.00445 -3.10819,-2.46291 -4.55439,-4.76325c-3.99009,-6.3466 -10.61993,-20.90194 -10.62634,-20.93549c-0.00681,-0.03569 -1.58244,-3.47511 -2.30386,-6.93448c-1.99516,-9.56744 -4.60281,-26.43391 -4.18932,-26.6421c0.25682,-0.12931 8.52127,-16.65971 11.90956,-19.29631c0.8916,-0.69379 5.28979,-1.32115 8.85929,-2.20825c5.78668,-1.43813 11.77147,-2.98365 12.15189,-2.81895c1.15997,0.50223 0.71785,14.59756 0.4518,19.27616c-0.05147,0.90495 -6.85958,3.51985 -6.82034,4.42515c0.35294,8.14386 7.52713,19.66311 7.74309,19.48778c0.15684,-0.12733 -0.34472,-5.33969 0.46496,-12.35175c0.87214,-7.55308 3.12377,-17.11322 5.23369,-22.2986c0.36942,-0.90788 1.02802,-1.96504 1.95732,-2.29624c1.33338,-0.47521 5.95147,-0.18528 9.93251,-0.25014c0.35939,-0.00585 4.03843,-1.08725 5.4997,-0.23729c0.46783,0.27213 0.81141,1.48369 2.03911,2.75311c2.27281,2.35004 5.88764,5.35874 7.02629,6.21888c1.73372,1.30967 2.96239,3.12963 4.51745,4.30256c5.74671,4.33451 10.34947,7.03457 10.21458,8.26442c-0.45976,1.93537 -5.82761,7.349 -10.57936,11.96716c-3.75773,3.65212 -7.01173,6.90151 -7.97485,6.87858c-0.65211,-0.01552 -3.43396,-3.00311 -5.42182,-4.87593c-1.02172,-0.96259 -2.20587,-1.39807 -2.00652,-1.46964c0.0526,-0.01889 -0.03908,0.73739 0.12152,1.3246c0.35636,1.30283 1.21074,3.50945 2.37225,6.8596c0.7841,2.2616 1.59647,4.84269 3.05184,7.54467c4.31125,8.00408 10.0153,18.47094 15.83961,26.82187c4.08388,5.85546 8.54829,10.25284 11.25413,13.82419c1.23814,1.63417 4.20674,5.25053 7.18735,8.67136c2.87136,3.29544 5.7675,6.40487 6.4336,7.62087c0.49565,0.90485 -4.84307,6.33148 -4.93444,6.93748c-0.05461,0.36217 -3.49582,0.44302 -7.47442,0.13188c-3.78279,-0.29583 -7.47308,-0.96641 -12.97843,-1.87656c-2.29118,-0.37879 -9.36592,-0.26496 -11.30126,-0.65525c-1.28253,-0.25862 -4.23533,-1.52935 -5.20848,-1.74035c-1.85434,-0.40205 -5.04711,-0.52968 -5.11175,-0.64221c-0.1054,-0.18351 -0.53817,-2.27483 -0.80157,-2.64945c-0.3477,-0.49456 -0.44858,1.06746 -0.46245,1.32019c-0.062,1.12856 0.36862,3.6732 0.19417,4.4485c-0.31348,1.39318 -1.568,1.7202 -2.26588,1.73548c-0.98427,0.02153 -1.83573,-0.2484 -2.32792,-0.8025c-1.79598,-2.02194 -0.68292,-6.89026 -0.7551,-6.70138z" fill="#ffffff" stroke="none" stroke-width="0"/><path d="M499.56199,130.10989c0,5.79024 1.07881,13.28501 0.11555,13.72394c-1.14709,0.52268 -2.80503,0.3187 -4.48971,0.44398c-1.92893,0.14343 -4.41445,0.26905 -4.58175,0.25809c-1.32915,-0.08701 -1.98947,-1.96247 -3.15051,-3.3559c-1.90976,-2.29203 -8.46537,-14.96433 -8.46537,-20.50868c0,-3.46515 2.66227,-4.40117 6.28005,-5.50951c2.75288,-0.84336 5.62996,-1.17394 8.73733,-1.55625c3.31525,-0.40788 6.83329,-0.83906 8.78286,-0.83906c2.67834,0 0.79752,2.69938 -0.34583,5.22021c-1.49411,3.29417 -2.88259,7.07285 -2.88259,12.12316z" fill="#ffffff" stroke="none" stroke-width="0"/><path d="M207.44855,92.0347c3.09098,-0.31807 5.49511,0.9417 6.42015,2.64935c0.57214,1.05618 -4.05645,13.52307 -4.49006,15.00992c-0.11678,0.40046 -1.8926,0.07734 -4.01314,-0.58551c-2.72674,-0.85234 -6.02348,-2.00478 -7.09572,-0.13766c-0.4755,0.82799 0.88605,14.12991 0.89802,14.27087c0.07852,0.92406 1.23574,3.25912 0.54065,4.05946c-1.43464,2.60356 -11.98618,6.8783 -13.26261,4.48411c-1.13138,-2.12213 -0.67977,-13.86971 -0.85291,-18.0835c-0.07263,-1.76743 -1.25384,-9.33335 -1.0453,-9.93788c0.73941,-2.14322 5.20047,-3.5541 6.94236,-4.30503c1.79523,-0.77391 2.03667,1.06074 3.27289,1.16176c0.83678,0.06839 2.86268,-3.27008 3.53511,-4.00935c1.4317,-1.57399 2.81824,-2.66376 4.44482,-3.3916c1.49571,-0.66929 3.22501,-1.03257 4.70572,-1.18495z" fill="#ff0000" stroke="none" stroke-width="0"/><path d="M226.59684,98.21511c0,2.35891 0.32691,23.09114 -2.06887,23.09114c-2.39578,0 -17.15151,3.5602 -17.15151,2.13561c0,-0.2313 -1.11715,-2.37575 -0.96312,-2.92584c0.42084,-1.50307 3.4716,-4.57179 4.79455,-7.20512c0.90876,-1.80885 2.05641,-4.05182 2.88593,-6.135c2.02806,-5.09298 3.48324,-10.35714 4.56125,-10.35714c2.39578,0 7.94175,-0.96257 7.94175,1.39634z" fill="#ff0000" stroke="none" stroke-width="0"/><path d="M230.80973,91.66805c0.39457,-1.92471 8.17273,-12.03834 13.67565,-19.37804c3.50616,-4.67645 5.34053,-8.05414 6.17515,-8.02914c0.12165,0.00364 2.01437,-0.3781 2.33846,-0.15089c3.33486,2.33792 10.82781,16.35817 11.60283,18.83917c0.91374,4.76697 -1.21856,26.32913 -3.52565,29.02579c-2.04388,2.38901 -12.87833,7.71726 -20.77167,9.78806c-5.63477,1.47828 -10.46004,1.6095 -10.86002,1.57484c-1.71147,-0.14827 -1.47989,-5.02775 -1.03704,-10.84125c0.64497,-8.46662 2.05604,-19.13955 2.40228,-20.82852zM247.30204,103.99293c0.39891,0.16528 6.78138,-5.62047 7.16888,-8.23453c0.24321,-1.64069 -0.84502,-10.84029 -1.84066,-10.75333c-0.25085,0.02191 -1.11798,0.9798 -1.67868,2.22701c-1.12749,2.50794 -2.19535,6.48063 -2.77765,8.42946c-0.47484,1.58918 -1.96666,7.87782 -0.87189,8.3314z" fill="#ff0000" stroke="none" stroke-width="0"/><path d="M253.82913,120.52601c-0.04505,-0.5011 9.79468,-6.01597 10.74381,-9.96646c1.22465,-5.09732 2.80932,-16.46537 2.47184,-23.02696c-0.17274,-3.3583 -3.3299,-11.41942 -5.03896,-15.03205c-0.63633,-1.34505 1.94627,-4.47362 2.27757,-4.7913c0.77575,-0.74389 4.56146,1.02788 9.13061,2.98158c5.9937,2.56282 12.66384,5.31538 12.81422,6.75029c0.04055,0.38703 1.6291,2.06037 1.74356,7.37735c0.23265,10.80733 0.59224,37.27899 -0.25738,38.09728c-1.04882,1.0102 -10.85297,2.20422 -11.35547,2.21445c-0.2089,0.00425 0.35419,-3.3057 0.41952,-6.5617c0.06505,-3.24229 -0.36797,-6.4311 -0.4463,-6.24053c-0.17724,0.43116 -0.88499,-0.20006 -1.06317,0.22576c-0.77518,1.85239 -1.47127,3.56295 -2.25305,5.27074c-5.52702,12.07354 -10.98051,18.21343 -11.62382,18.31613c-1.54148,0.24612 -7.17898,-11.34324 -7.56292,-15.61459zM277.32971,97.70839c0.2983,0.04913 2.82278,-4.21184 2.77131,-5.17828c-0.0484,-0.90868 -4.33617,-3.58318 -4.69736,-3.35671c0,0 0.67846,2.45091 1.13278,4.72608c0.38897,1.94792 0.53908,3.76702 0.79325,3.8089z" fill="#ff0000" stroke="none" stroke-width="0"/><path d="M231.85021,74.88586c-0.05401,0.34564 -3.69511,1.78191 -7.15458,2.6408c-1.59259,0.3954 -4.02333,1.3516 -4.08544,0.94993c-0.09067,-0.58645 -0.10514,-4.56502 0.31688,-8.69127c0.26154,-2.55717 0.16424,-5.36385 0.40723,-5.78718c0.24255,-0.42257 2.61148,-1.02247 4.60634,-1.86295c1.91689,-0.80762 4.72005,-1.74821 6.04274,-1.41682c0.31531,0.02095 0.26943,3.236 0.21664,7.06175c-0.03225,2.33639 0.03157,4.66494 -0.34983,7.10576z" fill="#ff0000" stroke="none" stroke-width="0"/><path d="M225.50942,91.83586c-0.98144,0.34446 -5.73955,-4.93021 -5.81008,-5.445c-0.02177,-0.15891 -0.03085,-5.35678 0.684,-6.01344c1.44555,-1.32785 11.17895,-4.44266 11.4105,-4.09348c0.20228,0.30503 0.54242,4.39804 0.54242,6.97811c0,0.57793 -6.05788,8.30391 -6.82685,8.57381z" fill="#ff0000" stroke="none" stroke-width="0"/><path d="M211.09541,73.63636c0,-1.11606 0.63006,-2.51029 1.61501,-4.22795c0.5883,-1.02597 1.3032,-2.47638 2.08604,-3.19512c2.03917,-1.87216 4.42597,-1.79915 4.95702,-1.51531c0.17429,0.07184 -0.32464,13.67894 -0.82622,14.27589c-0.31132,0.37052 -3.96649,1.3083 -4.14907,1.20835c-0.48657,-0.17248 -3.68277,-3.02671 -3.68277,-6.54585z" fill="#ff0000" stroke="none" stroke-width="0"/><path d="M217.88941,84.68699c-0.22932,-0.02148 -1.0618,-0.89323 -1.57317,-1.65422c-0.41476,-0.61724 -0.3061,-0.94984 -0.3061,-1.33792c0,-0.11357 1.58662,-0.64091 2.50799,-0.81869c0.50709,-0.09785 0.58241,0.03579 0.62136,0.10771c0.04326,0.07989 -0.41854,2.6919 -0.57634,3.0808c-0.15283,0.37661 -0.56126,0.63286 -0.67374,0.62232z" fill="#ff0000" stroke="none" stroke-width="0"/><path d="M216.51358,63.00259c-0.09776,-0.14459 0.00924,-0.61431 0.36876,-1.11251c0.26415,-0.36604 1.05138,-1.23585 1.21237,-1.56424c0.64977,-1.32548 0.84586,-2.01762 1.13357,-2.05727c0.11556,-0.01594 0.40989,0.42203 0.65083,1.09086c0.31927,0.88628 0.54476,2.11818 0.1363,2.65092c-0.76336,1.04639 -3.21904,1.41041 -3.50181,0.99225z" fill="#ff0000" stroke="none" stroke-width="0"/><path d="M236.7656,57.09534c-0.8335,1.12675 -2.92974,1.36829 -3.44378,1.15986c-0.23133,-0.0938 -0.5027,-1.82269 -0.36824,-3.4626c0.08252,-1.00658 0.35631,-2.19795 0.62357,-2.21674c1.25,-0.08789 3.66305,3.87791 3.18845,4.5195z" fill="#ff0000" stroke="none" stroke-width="0"/><path d="M232.05466,51.03016c0.06532,0.33493 0.36096,7.42852 -0.12207,7.60547c-0.2066,0.07569 -2.13847,0.5483 -4.42835,1.21598c-2.47484,0.72162 -5.33321,1.63648 -5.91655,1.55718c-0.4333,-0.05889 -0.93123,-4.83633 -0.62807,-6.24928c0.19026,-0.88678 1.7673,-2.70087 2.85829,-4.16811c1.6449,-2.21215 3.17705,-4.13233 3.62892,-4.15688c1.56914,-0.08522 4.49005,3.59173 4.60782,4.19562z" fill="#ff0000" stroke="none" stroke-width="0"/><path d="M237.87176,75.83369c-0.05917,0.47263 -2.61381,3.66892 -3.37303,3.66892c-0.46333,0 -0.25226,-3.86734 -0.11834,-4.31986c0.09365,-0.31646 2.84552,-0.82132 3.4322,-0.79886c0.48604,0.01859 0.21347,0.21751 0.05918,1.44981z" fill="#ff0000" stroke="none" stroke-width="0"/><path d="M243.17972,66.8828c-0.09424,0.52397 -0.8214,2.80028 -3.03299,4.48827c-2.01626,1.53889 -5.4181,2.34567 -5.92462,2.17688c-0.90698,-0.30224 -1.32373,-12.01492 -1.14496,-13.02376c0.17701,-0.99892 4.0554,-2.13657 4.89895,-1.99581c0.51314,0.08565 1.25749,1.81653 2.46471,3.76121c1.18576,1.91015 2.84018,4.03027 2.73893,4.59322z" fill="#ff0000" stroke="none" stroke-width="0"/><path d="M299.07599,94.14554c0.1394,-0.01095 1.61885,-3.63216 2.79884,-6.54871c1.59202,-3.93498 2.7391,-7.6651 3.3786,-7.86828c1.43573,-0.45615 5.02176,2.50059 8.7931,5.65065c2.24673,1.8766 5.67468,4.23279 5.67897,4.84436c0.00508,0.72336 -5.99527,6.50384 -11.19749,11.29652c-3.72595,3.43263 -7.04249,6.40285 -7.4499,6.44082c-0.75547,0.07043 0.51321,8.60133 0.64656,9.34337c0.00252,0.01403 1.53084,1.00339 3.03027,0.89209c2.63987,-0.19596 5.49948,-1.60165 5.7054,-1.2607c0.15066,0.24944 3.08759,3.3716 3.00772,3.70944c-0.23095,0.97694 -2.06917,2.54427 -4.34601,4.56962c-4.74304,4.21917 -11.69343,9.51421 -12.11367,9.20613c-0.62292,-0.45667 -6.3856,-4.75493 -6.54996,-5.53518c-0.77251,-3.66728 -0.31236,-13.21964 -0.36482,-22.68719c-0.00413,-0.74294 -0.42383,-24.52448 -0.44706,-27.57104c-0.00649,-0.85115 -1.37437,-2.94685 -2.86698,-4.03934c-1.75519,-1.28469 -3.58464,-1.57436 -3.77217,-1.86207c-1.07369,-1.64725 -0.24687,-4.91334 0.78695,-5.38842c1.59568,-0.73328 3.05842,-0.24782 5.02297,-0.19983c2.50578,0.06121 5.79938,0.13803 8.06844,0.52686c1.93212,0.33109 3.48927,0.29314 4.01714,1.84632c0.5589,1.64446 0.02316,4.92893 -0.24555,6.98694c-0.4052,3.10346 -1.20294,6.05327 -1.42217,9.22937c-0.33646,4.87467 -0.15921,8.41827 -0.15921,8.41827z" fill="#ff0000" stroke="none" stroke-width="0"/><path d="M182.06969,134.86826c-2.73,1.4253 -39.8159,20.87445 -42.01788,19.80767c-0.52431,-0.254 -1.35579,-2.81487 -1.40929,-6.21452c-0.10829,-6.88412 1.31828,-17.7415 3.35644,-19.31447c7.6974,-5.94052 11.96093,-5.9856 12.76177,-7.75965c0.60774,-1.31638 4.62915,-18.72441 7.62756,-32.98486c1.72099,-8.18505 2.93353,-16.28051 3.55762,-17.12159c4.91048,-6.61783 43.0703,-19.58535 47.45021,-18.49912c0.38297,0.09497 1.34395,0.26384 1.78287,0.91455c0.29071,0.43098 0.13821,1.72062 0.03631,2.21156c-0.46134,2.22297 -2.61839,5.6391 -4.41636,9.04277c-2.54981,4.82698 -4.91136,9.62888 -5.29207,10.96699c-0.35135,1.23493 -8.23899,3.19101 -12.0985,4.05241c-1.7896,0.39941 0.45371,-3.01857 -2.25304,-2.68395c-0.25751,0.03184 -9.13237,4.04137 -10.31124,4.90935c-0.57683,0.4247 -0.695,5.40141 -0.64631,5.51932c0.11173,0.27054 2.9507,-0.45771 6.26774,-1.77629c3.28271,-1.30494 8.17565,-2.87465 8.38553,-2.6306c0.39868,0.4636 0.63042,5.05688 0.62661,8.29222c-0.00223,1.89495 0.25889,3.17732 -0.09034,3.3573c-1.61065,0.83019 -5.14744,1.73577 -10.0116,3.8839c-3.20312,1.41459 -6.19936,3.48322 -6.16688,3.7192c0.80021,6.79281 0.65541,12.74278 1.26517,18.13333c0,0 0.96962,6.65494 1.2747,9.11435c0.26288,2.11927 0.32098,5.06013 0.32098,5.06013z" fill="#ff0000" stroke="none" stroke-width="0"/><path d="M374.91332,64.59539c0.31279,0.43755 -0.34514,2.6403 -1.4953,4.95202c-2.69425,5.41518 -8.0895,14.17847 -10.03538,21.98239c-3.6928,14.80993 -1.95814,29.06563 -2.38771,29.60729c-0.42303,0.53341 -3.0448,1.28429 -6.0763,2.55449c-4.31055,1.80613 -9.44956,4.16128 -10.27393,4.13359c-0.92321,-0.031 -2.09365,-3.57462 -4.07063,-6.65666c-2.44492,-3.81152 -5.66911,-7.30649 -5.76857,-7.22134c-0.27351,0.23421 1.24086,5.09257 1.66018,9.38336c0.26362,2.69762 1.29545,5.86662 1.55028,8.22917c0.35898,3.32812 -0.71505,5.05028 -0.86917,5.0508c-0.93824,0.00314 -6.51741,-6.04951 -11.42435,-11.52529c-4.24106,-4.7327 -8.55268,-8.91047 -8.66636,-9.86472c0,0 1.24982,-1.45617 1.01698,-5.8857c-0.24016,-4.56896 -1.95589,-11.99857 -1.46123,-12.37235c0.18331,-0.13851 6.55905,-6.33145 7.67849,-6.34612c0.508,-0.00664 -11.56869,-9.64665 -10.9886,-9.56149c0.41346,0.06071 -2.19851,-3.86531 -3.28445,-8.02003c-1.03755,-3.96958 -3.1535,-9.15778 -2.0724,-10.79082c2.00212,-3.02426 16.00794,9.3542 23.31342,18.15724c2.36245,2.84676 11.95753,16.49483 12.04938,16.24125c0.32761,-0.90432 0.00394,-9.51465 1.37254,-17.37729c0.96896,-5.56673 3.75827,-11.24651 3.91824,-11.38865c4.14408,-3.68189 25.98373,-3.74439 26.31486,-3.2812z" fill="#ff0000" stroke="none" stroke-width="0"/><path d="M367.81817,90.04796c0.29547,-1.4245 1.11869,-2.69497 1.75556,-4.01738c2.27873,-4.73174 6.02411,-8.58742 9.082,-8.77878c1.77099,-0.11082 10.79255,13.06674 10.51114,14.75478c-0.23866,1.43159 -8.02993,7.33536 -9.98885,7.31211c-0.94759,-0.01126 -4.07884,-1.45959 -6.48077,-3.28616c-2.92678,-2.2257 -5.08717,-4.98136 -4.8791,-5.98452z" fill="#ff0000" stroke="none" stroke-width="0"/><path d="M370.02013,139.99707c-0.94326,0.1719 -5.0127,-8.67136 -6.07716,-13.22808c-0.39664,-1.6979 -0.51499,-3.39596 -0.31945,-5.43614c0.16733,-1.74573 0.62972,-3.85065 0.61743,-5.20876c-0.00355,-0.39054 2.51077,-9.04884 2.67277,-9.74003c0.73387,-3.13123 0.78947,-6.16536 0.78947,-6.16536c0.9368,-0.89015 2.24995,-0.97679 2.56886,-0.97139c0.75174,0.01273 3.50692,1.03925 6.48827,3.55535c0.53294,0.78666 -1.29057,13.22571 -0.89094,14.26165c0.43336,1.12337 7.76946,6.14322 7.88458,7.02064c0.38527,2.93656 -1.87799,7.78391 -3.91824,9.92767c-1.27605,1.3408 -3.24826,3.25495 -5.63462,4.52744c-1.42913,0.76206 -3.4462,1.32307 -4.18095,1.45697z" fill="#ff0000" stroke="none" stroke-width="0"/><path d="M391.73593,92.96657c0.56396,-1.8968 -13.72564,-23.01148 -13.21904,-23.62423c1.75206,-2.1193 10.32892,-10.06544 12.14099,-10.48884c0.45309,-0.10586 3.72021,3.10717 8.3303,6.30438c8.51665,5.90648 20.59586,13.78792 20.76147,14.76404c0.19602,1.15517 -1.47627,4.84457 -1.61518,7.87047c-0.33003,7.18933 0.27293,16.67093 -0.28999,16.95955c-0.53235,0.27295 -2.85164,0.45438 -4.99725,0.31229c-2.54036,-0.16823 -4.96109,-0.69718 -5.64665,-0.74303c-0.57811,-0.03866 -0.97662,-3.50321 -1.71704,-6.46705c-0.56522,-2.26243 -1.55458,-4.23312 -1.64247,-4.16547c-0.93435,0.71901 -0.92242,24.14564 -0.31945,24.21172c0.2782,0.03048 4.60981,-0.65117 5.28138,-1.43047c0.34927,-0.4053 -0.12308,-2.03254 -0.11745,-2.08533c0.02386,-0.22383 -2.24368,0.66434 -2.44478,0.36011c-0.22256,-0.33673 -0.32453,-4.9883 0.10872,-5.56122c0.90192,-1.19267 5.00734,-1.1962 8.44285,-1.6479c2.28008,-0.29977 3.55333,0.17418 3.5783,0.34992c0.05488,0.38615 1.47659,1.81886 1.94762,3.55183c0.91772,3.37649 0.96506,8.11954 0.35521,8.25628c-1.15641,0.25929 -15.09905,3.14045 -25.03881,7.20342c-5.53473,2.26239 -11.34229,7.22779 -11.49615,7.12983c-0.51298,-0.32658 1.45586,-5.32545 2.23341,-9.9314c0.06554,-0.3882 0.27833,-1.54329 -0.92183,-2.60554c-1.43828,-1.27302 -4.25181,-2.47278 -4.25037,-2.97902c0.00393,-1.37614 -1.71079,-13.97913 -0.82717,-15.43005c0.53349,-0.87599 3.0313,-2.63298 5.1761,-4.44191c3.12208,-2.63315 6.09926,-5.37634 6.18728,-5.67241z" fill="#ff0000" stroke="none" stroke-width="0"/><path d="M443.85139,90.86723c0,3.96103 1.50744,12.25376 4.07493,19.63429c1.26069,3.62402 3.80257,7.14204 4.54981,9.5974c0.72479,2.38165 0.76293,4.17443 0.39423,4.15906c-2.44187,-0.10173 -6.61686,1.20558 -10.73926,2.65441c-3.39875,1.1945 -7.58633,3.18804 -8.20244,3.63559c-0.26924,0.19557 -0.38056,-10.34112 -1.63887,-17.14876c-0.52556,-2.84328 -1.30948,-5.3134 -2.04094,-6.48493c-0.54438,-0.87192 -1.12668,-0.8236 -1.19461,-0.74593c-1.27373,1.45633 0.47787,16.51616 0.15667,16.45754c-1.57107,-0.28668 -5.24892,0.37114 -5.39908,-1.27636c-0.28928,-3.17393 -2.28418,-18.30069 -2.85648,-29.49493c-0.43627,-8.53334 0.16602,-14.03433 -0.06098,-14.68393c0.00593,-0.96317 -12.34698,-8.70968 -12.19171,-10.71682c0.13392,-1.73117 10.74149,-8.08791 15.56775,-10.04665c1.59534,-0.64747 2.37351,0.74141 2.424,0.72606c0.97346,-0.29621 4.82511,27.88423 4.91907,27.65252c0.07984,-0.19688 1.53239,-6.44588 3.56072,-11.07909c1.22094,-2.7889 2.32405,-4.3917 2.74255,-4.33732c1.32382,0.17199 4.636,0.88581 6.49138,2.69654c0.86106,0.84033 -0.55668,7.78423 -0.55668,18.80134z" fill="#ff0000" stroke="none" stroke-width="0"/><path d="M480.61342,80.00812c-1.08532,0.69145 -20.0812,1.12826 -19.97597,2.28969c0.71301,7.86881 16.19485,42.41626 15.64685,42.7508c-1.84467,1.12615 -20.18184,9.20966 -20.60434,9.18481c-1.16202,-0.06834 -0.44918,-15.35212 -2.58646,-31.10286c-1.27687,-9.40989 -2.7213,-18.0252 -4.23815,-24.20851c-0.50982,-2.07825 -1.37789,-7.52624 -3.54012,-9.44631c-2.44519,-2.17133 -8.26084,-3.5764 -8.19461,-3.80935c0.09727,-0.34206 -2.46421,5.38476 -3.12356,5.18728c-0.63481,-0.19014 -1.34384,-0.9026 -1.63459,-2.61871c-0.38482,-2.27135 -0.31335,-5.93226 -1.08425,-8.84444c-1.49854,-5.66083 -3.10976,-10.34937 -2.9012,-10.92186c1.12786,-3.09602 50.67582,17.06548 53.65744,18.74587c0.88437,0.49842 0.22969,3.73304 -0.3199,6.83224c-0.50054,2.82254 -0.68264,5.69478 -1.10111,5.96136z" fill="#ff0000" stroke="none" stroke-width="0"/><path d="M185.73318,224.64277c-0.42207,0.11729 7.98016,-0.65752 8.98201,1.91998c0.9755,2.50969 0.65469,9.72172 0.43306,15.82272c-0.18929,5.21108 -0.05633,9.58663 -1.73125,9.80416c-0.71054,0.09228 -6.81004,-0.48236 -12.00779,-1.68335c-0.37732,-0.08718 -0.67245,-1.34838 -0.99398,-1.0711c-0.4451,0.38384 0.57608,3.75302 0.15229,4.28515c-0.92026,1.15551 -2.48436,1.67496 -3.90679,1.72961c-0.22727,0.00874 -2.37027,-0.51806 -2.8216,-1.75252c-0.48294,-1.32093 0.54219,-3.416 0.28969,-3.40074c-0.33968,0.02052 0.32305,-1.47481 -0.43513,-1.44839c-0.24532,0.00855 -0.87921,0.64533 -1.5115,1.08248c-0.46268,0.3199 -0.98094,0.47646 -1.06368,0.48353c-14.70108,1.25635 -33.47523,7.04102 -38.69196,8.54435c-1.63383,0.47083 -1.9577,-3.71339 -1.91241,-8.41124c0.01864,-1.93386 -0.04688,-5.81323 0.11577,-6.56175c0.36927,-1.69942 4.639,-5.78992 11.33463,-10.33785c6.39271,-4.3422 12.56955,-6.70075 13.18495,-8.00352c0.65349,-1.38341 1.78465,-5.84299 2.2065,-13.00917c3.51001,1.02523 5.79523,1.68509 6.02792,1.73402c0.13033,0.02741 13.83699,1.21889 24.18011,2.11038c-0.75832,2.07231 -0.68167,7.84391 -1.83083,8.16326z" fill-opacity="0.25098" fill="#000000" stroke="none" stroke-width="0"/><path d="M229.0667,224.21979c0.80083,-0.85438 2.25736,-1.0833 9.31833,-1.0833c0.17975,0 0.26817,-1.47649 0.29806,-3.86235c11.98334,0.28459 23.97415,0.33606 36.01973,0.17674c0.0324,13.55769 -0.97771,21.52203 -5.79295,29.35402c-1.96258,3.19213 -6.10166,7.1179 -9.2023,8.4485c-1.46248,0.62761 -2.93507,1.01946 -4.37521,1.24389c-0.26803,0.04177 -1.03242,-3.25306 -1.29793,-3.22243c-0.07394,0.00852 -0.70456,-0.25118 -0.70505,0.08946c-0.00108,0.75976 0.66213,3.0741 0.92483,4.53186c0.33212,1.84288 0.26366,2.79583 0.06225,2.82503c-0.2498,1.34289 -1.70688,1.87968 -2.23065,1.82476c-0.38956,-0.04085 -1.46258,-0.52432 -1.84942,-1.08055c-0.86922,-1.24985 -1.15963,-2.61753 -0.92547,-3.67459c0.10972,-0.49527 0.90754,-1.13071 0.76865,-1.27339c-0.12212,-0.12545 -1.05914,0.48265 -2.13563,0.64304c-2.33451,0.34779 -8.22184,0.96722 -8.95824,0.96722c-4.59805,0 -20.18951,0.30535 -20.21032,0.44329c-0.44352,0.24203 -1.77646,0.97083 -2.6689,2.04959c-0.60363,0.72964 -0.64784,2.77954 -0.72104,4.14602c-0.05473,1.02143 0.86894,2.57435 1.44078,4.22797c0.64712,1.87131 0.9414,3.83903 0.65997,4.71056c-0.38734,1.20409 -1.41878,2.43575 -2.10794,2.49023c-2.4579,0.19431 -2.6593,-2.57252 -2.86157,-4.13037c-0.13503,-1.04002 0.26329,-2.34895 0.55546,-3.51168c0.37191,-1.48 0.56374,-2.66511 0.55447,-2.81524c-0.18446,-2.9832 -0.2297,-5.46942 -0.28622,-5.40636c-0.07969,0.08887 -0.62652,-1.85819 -1.61069,-2.33395c-0.55242,-0.26706 -1.41253,-0.8094 -2.88529,-1.19267c-1.61563,-0.42046 -3.86236,-0.68486 -4.72,-1.02731c-3.17689,-1.26847 -3.24752,-2.17852 -3.41877,-2.69803c-0.28886,-0.87628 -0.45838,-19.30172 -0.30636,-29.38732c0.05133,-3.40563 -0.22043,-6.37427 0.03588,-6.70427c0.19525,-0.2514 0.55421,-0.65129 2.47812,-1.27642c8.58786,0.5506 17.15548,0.97075 25.72015,1.26857c0.12832,3.64967 0.18158,5.50815 0.43334,5.23956z" fill-opacity="0.25098" fill="#000000" stroke="none" stroke-width="0"/><path d="M346.02929,225.58666c2.12834,2.42323 6.53956,5.02587 10.74901,7.24676c4.95205,2.61268 9.89038,4.30424 12.0481,5.85128c0.98957,0.70949 0.32756,1.75888 0.20295,2.22911c-2.16003,8.15232 -28.22996,19.45876 -32.70901,22.25104c-0.79715,0.49695 -0.73241,2.02011 -2.51033,2.14448c-0.56986,0.03987 -0.99869,-2.0206 -1.60011,-2.10373c-3.36602,-0.46523 -10.84429,-20.49208 -17.02936,-36.98331c-0.83719,-2.23217 -1.63697,-4.39687 -2.40148,-6.45531c3.72562,0.07456 7.45153,0.15044 11.17806,0.21754c6.12211,0.11022 12.25965,0.71477 18.3774,0.71027c1.0401,1.61694 2.25813,3.25619 3.69476,4.89185z" fill-opacity="0.25098" fill="#000000" stroke="none" stroke-width="0"/><path d="M308.12431,223.96052c2.33091,14.60386 2.65561,27.99926 1.81301,28.34055c-1.51154,0.61227 -3.74483,-1.87163 -5.18813,-1.45548c-1.09935,0.31698 1.15792,7.17924 1.11009,10.27676c-0.05681,3.67957 -2.37866,3.65173 -3.5965,3.53104c-1.73184,-0.17162 -2.38877,-1.90475 -2.24207,-4.00611c0.15841,-2.26922 1.20408,-4.9928 1.4383,-7.34652c0.22662,-2.2772 -1.48466,-4.29218 -1.72926,-4.34983c-0.56478,-0.13307 -3.13944,-1.60945 -6.21393,-2.33929c-5.24419,-1.24493 -11.9426,-2.03826 -12.60141,-2.75326c-0.75095,-0.815 -0.69063,-16.52939 -0.48952,-24.46025c8.96637,-0.04295 17.9282,0.09121 26.89058,0.26165c0.31371,1.48756 0.5918,2.94084 0.80884,4.30074z" fill-opacity="0.25098" fill="#000000" stroke="none" stroke-width="0"/><path d="M411.49913,210.02598c2.84351,8.65998 4.37024,15.9304 3.81734,17.22842c-0.37234,0.8741 -0.74377,2.64905 -1.61784,3.91713c-1.83009,2.65506 -5.18617,5.45921 -10.61415,9.75651c-5.36613,4.24833 -12.82084,8.79655 -18.62177,11.77774c-3.19891,1.64397 -5.49452,3.29026 -7.0601,3.29026c-2.39394,0 -0.20739,-2.43307 0.18807,-8.80387c0.57322,-9.23452 0.74141,-20.43314 0.27343,-31.82939c-0.02461,-0.5991 -0.04318,-1.25168 -0.05838,-1.93964c9.75627,-2.81604 19.41615,-5.98494 29.15551,-8.86263c0.65035,-0.18155 1.30039,-0.36386 1.95014,-0.5469c0.94013,2.05184 1.98682,4.1822 2.58775,6.01238z" fill-opacity="0.25098" fill="#000000" stroke="none" stroke-width="0"/><path d="M357.92521,221.61204c-0.30261,-0.01527 -2.11213,-0.747 -3.87423,-1.9608c-0.01389,-0.00957 -0.02778,-0.01917 -0.0417,-0.02881c1.54433,-0.30849 3.08055,-0.67112 4.61232,-1.05929c-0.38734,1.83943 -0.64599,3.05143 -0.69638,3.04888z" fill="url(#color-1)" stroke="none" stroke-width="0"/><path d="M428.35311,201.58226c3.67278,8.62216 8.3073,17.17901 10.61319,20.16719c3.22279,4.17637 8.51126,7.46367 9.65914,10.29459c0.32851,0.81017 -0.08963,2.47731 -0.09096,3.01745c-0.0061,2.48574 -1.60806,7.18593 -3.19608,11.3265c-1.06144,2.76758 -1.83387,5.92575 -2.96175,6.24569c-1.15954,0.32893 -6.77341,-2.28787 -9.1074,-2.47193c-2.99066,-0.23584 -2.89367,1.63194 -3.02799,2.13901c-0.3671,1.38585 1.73746,7.80106 1.7952,9.32534c0.17093,4.51243 -0.69181,4.05043 -2.48428,4.22511c-3.7367,0.36418 -2.14537,-5.30543 -2.35857,-5.22263c-0.09829,0.03816 0.73938,-3.25546 0.84922,-6.04631c0.1419,-3.60532 -0.42863,-6.92396 -0.55964,-6.90174c-0.14698,0.02494 -2.63928,-0.81271 -4.76893,-1.86065c-3.07689,-1.51403 -6.13152,-3.46701 -6.42435,-3.8917c-0.41402,-0.60047 -0.15725,-1.15683 0.30108,-2.79706c0.55769,-1.99584 1.69715,-4.80443 2.37161,-7.27787c0.73426,-2.69275 1.13389,-5.00828 0.94918,-5.05134c-0.25091,-0.05849 -2.41161,-7.49343 -5.00564,-16.37457c-0.736,-2.5198 -1.57591,-4.74182 -2.33241,-7.45214c-0.00018,-0.00063 -0.00036,-0.00127 -0.00054,-0.0019c4.87414,-1.39611 9.73216,-2.83255 14.57789,-4.30294c0.38623,0.9645 0.78769,1.93919 1.20204,2.91188z" fill-opacity="0.25098" fill="#000000" stroke="none" stroke-width="0"/><path d="M467.71986,242.79074c-0.13436,0.3516 -3.40076,-0.26816 -6.7123,-1.30959c-1.7147,-0.53924 -3.83144,-1.19156 -4.70813,-1.8806c-0.04669,-0.03669 -0.5856,-4.21422 -1.99101,-9.71837c-0.8877,-3.47663 -2.19764,-7.2238 -3.37555,-10.95067c-2.00318,-6.33794 -5.15498,-13.76625 -7.20018,-18.53882c-0.83536,-1.94934 -1.43222,-4.34781 -2.00634,-6.25147c8.9504,-2.84221 17.87187,-5.77915 26.789,-8.77003c3.34875,-1.1232 6.72408,-2.11293 10.10012,-3.06613c0.49162,1.29733 1.06957,2.65349 1.81723,4.04155c4.31125,8.00408 10.0153,18.47094 15.83961,26.82187c4.08388,5.85546 8.54829,10.25284 11.25413,13.82419c1.23814,1.63417 4.20674,5.25053 7.18735,8.67136c2.87136,3.29544 5.7675,6.40487 6.4336,7.62087c0.49565,0.90485 -4.84307,6.33148 -4.93444,6.93748c-0.05461,0.36217 -3.49582,0.44302 -7.47442,0.13188c-3.78279,-0.29583 -7.47308,-0.96641 -12.97843,-1.87656c-2.29118,-0.37879 -9.36592,-0.26496 -11.30126,-0.65525c-1.28253,-0.25862 -4.23533,-1.52935 -5.20848,-1.74035c-1.85434,-0.40205 -5.04711,-0.52968 -5.11175,-0.64221c-0.1054,-0.18351 -0.53817,-2.27483 -0.80157,-2.64945c-0.3477,-0.49456 -0.44858,1.06746 -0.46245,1.32019c-0.062,1.12856 0.36862,3.6732 0.19417,4.4485c-0.31348,1.39318 -1.568,1.7202 -2.26588,1.73548c-0.98427,0.02153 -1.83573,-0.2484 -2.32792,-0.8025c-1.79598,-2.02194 -0.68292,-6.89026 -0.7551,-6.70138z" fill-opacity="0.25098" fill="#000000" stroke="none" stroke-width="0"/><path d="M439.76884,196.31604c-0.22659,5.99345 1.90493,18.24897 1.5937,18.10629c-0.00973,-0.00445 -3.10819,-2.46291 -4.55439,-4.76325c-1.86893,-2.97269 -4.317,-7.74631 -6.3923,-11.98504c3.10792,-0.9537 6.21116,-1.92079 9.31069,-2.8996c0.03308,0.61458 0.05638,1.16893 0.04229,1.54161z" fill-opacity="0.25098" fill="#000000" stroke="none" stroke-width="0"/><text transform="translate(224.06491,303.66058) scale(0.84628,0.84628)" font-size="40" xml:space="preserve" fill="#ffffff" stroke="#d402ae" stroke-width="10" font-family="&quot;FridayNightFunkin-Regular&quot;, Sans Serif" font-weight="normal" text-anchor="start"><tspan x="0" dy="0">OPTIMIZED</tspan></text><text transform="translate(224.39824,304.32725) scale(0.84628,0.84627)" font-size="40" xml:space="preserve" fill="#000000" stroke="#ffffff" stroke-width="0" font-family="&quot;FridayNightFunkin-Regular&quot;, Sans Serif" font-weight="normal" text-anchor="start"><tspan x="0" dy="0">OPTIMIZED</tspan></text></g></g></svg>