<svg version="1.1" xmlns="http://www.w3.org/2000/svg" xmlns:xlink="http://www.w3.org/1999/xlink" width="418.14887" height="147.85084" viewBox="0,0,418.14887,147.85084"><defs><linearGradient x1="192.99612" y1="105.5533" x2="192.99612" y2="248.90708" gradientUnits="userSpaceOnUse" id="color-1"><stop offset="0" stop-color="#7c1e00" stop-opacity="0.50196"/><stop offset="1" stop-color="#6d0000" stop-opacity="0.50196"/></linearGradient><linearGradient x1="211.51307" y1="142.05199" x2="179.62632" y2="205.27199" gradientUnits="userSpaceOnUse" id="color-2"><stop offset="0" stop-color="#00fff7" stop-opacity="0.74902"/><stop offset="1" stop-color="#0066cc" stop-opacity="0.74902"/></linearGradient></defs><g transform="translate(-113.43968,-103.24432)"><g stroke-miterlimit="10"><text transform="translate(279.32671,165.4693) scale(1.14082,1.14082)" font-size="40" xml:space="preserve" fill="#000000" stroke="#000000" stroke-width="10" font-family="&quot;FridayNightFunkin-Regular&quot;, Sans Serif" font-weight="normal" text-anchor="start"><tspan x="0" dy="0">YOU RULE</tspan><tspan x="0" dy="46.150000000000006px">THE GAME</tspan></text><text transform="translate(279.43923,165.70256) scale(1.13691,1.13691)" font-size="40" xml:space="preserve" fill="#ffffff" stroke="#ffffff" stroke-width="0" font-family="&quot;FridayNightFunkin-Regular&quot;, Sans Serif" font-weight="normal" text-anchor="start"><tspan x="0" dy="0">YOU RULE</tspan><tspan x="0" dy="46.150000000000006px">THE GAME</tspan></text><path d="M261.27148,179.65605c0,-0.7987 0.73398,-13.26796 0.85598,-26.56108c0.02284,-2.48695 3.13016,-38.44745 -1.18639,-41.03663c-0.49189,-0.29505 -26.00966,0.78279 -54.70683,1.20314c-17.91657,0.26242 -40.18815,-0.61689 -53.84501,-0.54376c-5.67571,0.03039 -28.63016,-0.86022 -29.18884,-0.88023c-1.40717,-0.0504 -0.12846,76.42983 1.4911,114.3245c0.75425,17.64786 1.19535,11.05149 2.17485,13.2236c1.17922,2.61502 15.02028,2.26701 30.39963,2.9954c7.46287,0.35345 33.19216,2.22109 53.41654,2.04538c11.23178,-0.09757 21.10752,-2.03395 24.39772,-2.32459c10.17957,-0.89923 21.13959,-2.06674 23.60487,-2.37064c3.89877,-0.48058 6.24661,-0.7695 6.24661,-0.7695c0,0 1.00055,-2.99231 0.87109,-6.38757c-0.17539,-4.60009 -4.53129,-52.70108 -4.53129,-52.91796zM184.64343,248.59522c-1.9633,0.24848 -19.986,-1.10272 -32.57189,-1.52193c-11.58255,-0.38582 -18.81245,0.67321 -26.98057,-0.32816c-5.14039,-0.63017 -5.96452,-4.70595 -6.02274,-4.72108c-0.30648,-0.07957 -2.76163,-11.92151 -3.12914,-28.83137c-0.30724,-14.13716 0.52129,-32.54734 0.68733,-49.32257c0.29942,-30.2508 0.35262,-57.11702 1.24659,-57.73186c1.53406,-1.0551 6.48162,-0.36347 6.70834,-0.34974c11.5372,0.6984 43.0413,2.2773 43.09546,2.2768c44.38939,-0.4367 94.17619,-2.46877 94.17619,-2.32099c0,0.00997 4.36721,-0.38646 5.55667,5.76489c1.72715,8.93218 0.57398,24.96058 0.11674,33.84032c-0.57884,11.2413 -1.87315,24.76751 -1.69133,30.43804c0.62171,19.39051 2.83997,29.05063 3.48601,38.79694c0.37135,5.60262 0.7563,11.98577 0.79796,16.19868c0.06303,6.38 -1.51312,10.56602 -2.39279,11.04755c-2.5627,1.40284 -17.83874,4.96256 -35.05077,6.2097c-20.93959,1.5172 -44.4734,0.58789 -48.032,0.55483z" fill-opacity="0.50196" fill="#ffffff" stroke="url(#color-1)" stroke-width="5"/><path d="M266.05548,232.02888c0.12946,3.39524 -0.87399,6.39111 -0.87399,6.39111c0,0 -2.35052,0.29185 -6.24927,0.77245c-2.46528,0.3039 -13.43933,1.48297 -23.6189,2.38219c-3.2902,0.29064 -13.18855,2.23676 -24.4203,2.33431c-20.22438,0.17571 -46.00988,-1.6998 -53.47276,-2.05326c-15.37932,-0.72837 -29.23873,-0.3951 -30.41795,-3.01012c-0.97951,-2.17211 -1.4269,4.41632 -2.18113,-13.23154c-1.61956,-37.89469 -2.8913,-114.46997 -1.48413,-114.41954c0.55868,0.02003 23.52775,0.89845 29.20346,0.86808c13.65686,-0.07313 35.98323,0.79552 53.89982,0.53307c28.69719,-0.42035 54.25511,-1.47695 54.747,-1.1819c4.31655,2.58918 1.22647,38.57686 1.20366,41.06381c-0.12198,13.29315 -0.85128,25.79043 -0.85128,26.58912c0,0.21688 4.34042,48.36215 4.51583,52.96222z" fill="#000000" stroke="none" stroke-width="0.5"/><path d="M195.22917,176.17597c0,0.1695 4.67269,-0.30335 4.2962,3.18082c-1.22367,11.32467 -8.94729,38.90316 -10.865,51.86807c-0.08231,0.55654 -2.32181,11.80941 -2.627,11.80941c-0.24371,0 -11.31404,-0.21837 -20.59704,-0.78007c-5.49279,-0.33237 -12.74215,-0.35988 -12.33546,-1.15349c4.66582,-9.10433 42.12831,-65.88988 42.12831,-64.92471z" fill="#61200e" stroke="none" stroke-width="0.5"/><path d="M184.85427,173.61906c0,-0.2686 43.52757,7.571 50.35518,8.79838c3.81339,0.68552 30.16103,3.21994 30.67133,4.39689c0.08108,0.18698 0.80582,11.22735 1.28556,18.56813c0.85765,13.12327 2.00568,26.34935 2.00568,26.92836c0,0.47324 -14.147,-9.59521 -23.132,-16.75458c-10.93687,-8.71461 -24.78802,-16.43995 -24.94113,-16.59744c-0.06999,-0.07201 -36.24462,-25.27315 -36.24462,-25.33972z" fill="#61200e" stroke="none" stroke-width="0.5"/><path d="M123.23532,128.10562c-0.66864,0 35.48922,27.22769 61.77554,44.81556c14.96482,10.01279 26.44385,14.88247 26.82452,14.88247c1.0493,0 -88.19305,-16.50343 -88.19305,-17.55273c0,-0.89066 -0.24837,-42.14528 -0.40701,-42.14528z" fill="#61200e" stroke="none" stroke-width="0.5"/><path d="M263.21898,118.79726c-0.07884,2.88026 0.01701,8.85302 -0.22931,16.36731c-0.49158,14.99602 -1.44331,34.26301 -1.54753,34.26301c-0.76587,0 -69.80264,15.10645 -70.8534,14.55483c-2.60671,-1.36847 72.65623,-66.13392 72.63024,-65.18516z" fill="#ffffff" stroke="none" stroke-width="0.5"/><path d="M202.545,113.322c0,-0.58022 11.16495,-0.45783 21.09288,-0.80991c8.02587,-0.28462 15.2829,-0.62711 15.2829,-0.15803c0,0.5615 -44.17691,66.62192 -45.4333,67.11932c-0.82644,0.3272 -2.63406,3.02799 -3.34292,-1.50322c-0.71997,-4.6024 -0.33455,-16.44582 -0.3113,-17.14854c0.40391,-12.2172 12.71174,-46.71591 12.71174,-47.4996z" fill="#61200e" stroke="none" stroke-width="0.5"/><path d="M131.66356,112.91151c0,-0.17323 1.36033,-0.64198 3.43448,-0.71276c10.48977,-0.35795 42.39303,0.48924 43.26909,0.48924c0.58262,0 19.17085,71.84294 18.70419,71.84294c-0.95893,0 -65.40775,-71.52904 -65.40775,-71.6194z" fill="#ffffff" stroke="none" stroke-width="0.5"/><path d="M123.94808,191.28665c0,-0.20809 -1.49652,-2.75906 3.0999,-3.55921c18.58238,-3.23475 72.66132,-11.02908 72.66132,-10.18786c0,1.0493 -72.67352,59.19374 -73.72281,59.19374c-1.0493,0 -2.0384,-44.39738 -2.0384,-45.44667z" fill="#ffffff" stroke="none" stroke-width="0.5"/><path d="M193.39439,176.15623c1.0493,0 54.71268,62.59456 54.71268,63.64386c0,0.40474 -17.9137,3.20362 -30.19481,4.06681c-5.91612,0.41582 -10.71107,-0.72608 -11.21427,-0.70002c-0.85629,0.04432 -14.35291,-67.01065 -13.3036,-67.01065z" fill="#ffffff" stroke="none" stroke-width="0.5"/><path d="M198.83281,175.08592c0.02847,0.00166 0.05688,0.00326 0.08524,0.00477l0.03048,0.11784c-0.03858,-0.041 -0.07713,-0.0819 -0.1157,-0.12263z" fill="#000000" stroke="none" stroke-width="1"/><path d="M202.02716,174.82433l0.05183,0.21545c-0.31659,-0.0008 -0.43807,-0.06077 -0.05183,-0.21545z" fill="#85181a" stroke="none" stroke-width="0.5"/><path d="M202.07901,175.03979c0.01433,0.00005 0.0291,-0.00002 0.04425,-0.00024c-0.01317,0.00659 -0.02641,0.01308 -0.03964,0.01954z" fill="#85181a" stroke="none" stroke-width="0.5"/><path d="M202.07897,175.03992c0.01429,0.00002 0.02903,-0.00009 0.04412,-0.00028c-0.01315,0.00654 -0.02632,0.01308 -0.03952,0.01949z" fill="#85181a" stroke="none" stroke-width="0.5"/><path d="M202.07897,175.03992c0.01429,0.00005 0.02903,-0.00002 0.04412,-0.00024c-0.01315,0.00654 -0.02632,0.01307 -0.03952,0.01947z" fill="#85181a" stroke="none" stroke-width="0.5"/><path d="M202.07908,175.03979c0.01433,0.00005 0.02908,-0.00002 0.04423,-0.00024c-0.01317,0.00659 -0.02633,0.01308 -0.03959,0.01954z" fill="#ff2d32" stroke="none" stroke-width="0.5"/><path d="M198.83274,175.08592c0.02847,0.00166 0.05688,0.00326 0.08524,0.00477l0.03048,0.11784c-0.03858,-0.041 -0.07711,-0.0819 -0.1157,-0.12263z" fill="#000000" stroke="none" stroke-width="1"/><path d="M202.07893,175.03979c0.01433,0.00005 0.02908,-0.00002 0.04423,-0.00024c-0.01317,0.00659 -0.02638,0.01308 -0.03961,0.01954z" fill="#85181a" stroke="none" stroke-width="0.5"/><path d="M202.07888,175.03992c0.01429,0.00002 0.02904,-0.00009 0.04413,-0.00028c-0.01315,0.00654 -0.0263,0.01308 -0.03951,0.01949z" fill="#85181a" stroke="none" stroke-width="0.5"/><path d="M196.69696,178.86848c0.02484,0.00591 0.04967,0.01174 0.07443,0.0175l0.0085,0.10864c-0.02763,-0.04214 -0.05526,-0.08421 -0.08291,-0.12613z" fill="#000000" stroke="none" stroke-width="1"/><path d="M199.55414,179.13555l0.01213,0.19806c-0.27901,-0.05004 -0.37677,-0.12186 -0.01213,-0.19806z" fill="#85181a" stroke="none" stroke-width="0.5"/><path d="M199.56627,179.33356c0.01265,0.00229 0.02567,0.00453 0.03905,0.00669c-0.01263,0.00376 -0.0253,0.00743 -0.03797,0.01105z" fill="#85181a" stroke="none" stroke-width="0.5"/><path d="M199.56627,179.33369c0.01261,0.00223 0.02561,0.00445 0.03895,0.00663c-0.01261,0.00374 -0.02523,0.00743 -0.03788,0.01103z" fill="#85181a" stroke="none" stroke-width="0.5"/><path d="M199.56627,179.33369c0.01259,0.00224 0.02561,0.00449 0.03895,0.00665c-0.01261,0.00374 -0.02523,0.00743 -0.03788,0.01103z" fill="#85181a" stroke="none" stroke-width="0.5"/><path d="M199.56633,179.3336c0.01263,0.00229 0.02564,0.00451 0.03903,0.00667c-0.01263,0.00376 -0.02528,0.00743 -0.03795,0.01105z" fill="#ff2d32" stroke="none" stroke-width="0.5"/><path d="M196.69689,178.86848c0.02484,0.0059 0.04965,0.01172 0.07441,0.01748l0.00851,0.10864c-0.02763,-0.04216 -0.05527,-0.08423 -0.08292,-0.12615z" fill="#000000" stroke="none" stroke-width="1"/><path d="M266.17809,232.04438c0.12946,3.39526 -0.87518,6.39262 -0.87518,6.39262c0,0 -2.35162,0.29308 -6.25039,0.77366c-2.46528,0.3039 -13.44522,1.4878 -23.6248,2.38705c-3.2902,0.29064 -13.19802,2.24084 -24.4298,2.33841c-20.22438,0.17571 -46.03351,-1.7031 -53.49639,-2.05656c-15.37934,-0.72839 -29.24643,-0.40132 -30.42568,-3.01633c-0.48692,-1.07979 -0.84302,0.00456 -1.17068,-0.79984c20.63361,-2.08822 71.80966,-11.3012 105.30998,-24.6799c17.43661,-6.96349 28.01249,-18.39093 31.41434,-23.42542c1.28748,14.55155 3.42643,38.8828 3.54859,42.08633z" fill-opacity="0.25098" fill="#000000" stroke="none" stroke-width="0.5"/><path d="M123.34694,111.56449c0.55868,0.02001 23.53389,0.89335 29.2096,0.86296c13.65686,-0.07313 36.00625,0.79101 53.92283,0.52859c28.69717,-0.42035 54.27197,-1.46801 54.76386,-1.17297c1.67107,1.00236 2.2332,7.01188 2.29325,14.14575c-5.04026,-0.64015 -10.09005,-1.19712 -15.19407,-1.50324c-14.13793,-0.61597 -27.90176,-0.4047 -42.0304,0.29483c-4.35184,0.21547 -26.90001,3.71051 -47.10256,11.53055c-17.18358,6.65147 -32.39811,17.20729 -36.18154,23.25226c-0.42072,-26.12828 -0.4324,-47.96566 0.31907,-47.93874z" fill-opacity="0.25098" fill="#ffffff" stroke="none" stroke-width="0.5"/><path d="M115.51371,182.92433l39.82133,-78.95145l120.29066,60.67191l-39.82134,78.95145z" fill-opacity="0.00392" fill="#000000" stroke="#00ffff" stroke-width="0"/><path d="M153.2855,183.39507c0.03816,-0.12226 -2.21203,3.43517 -6.39183,3.02575c-2.94642,-0.28859 -8.67497,-5.23561 -9.24533,-6.50746c-1.76573,-3.93739 2.40885,-12.88009 2.99028,-14.41113c1.21361,-3.19574 18.8771,1.33639 19.79414,-0.93812c-2.2569,-0.00579 -4.93097,-0.13945 -7.61729,-0.36158c-5.92642,-0.49006 -11.90737,-1.42317 -13.68645,-2.15287l-0.00002,0.00005c-0.84854,-0.34806 -1.06798,-5.50509 0.63734,-9.63958c1.67301,-4.05606 5.25534,-7.09774 6.08777,-6.75631c1.73844,0.71309 6.56668,3.5819 11.03865,7.29659c3.09757,2.57301 6.03944,5.47889 7.81359,7.64597c-0.21809,-1.50915 -0.38113,-2.96122 -0.29765,-3.49624c0.78286,-5.1883 2.12172,-10.27734 3.99348,-15.17918c2.97921,-7.67831 5.89052,-9.38152 14.06899,-8.17274c9.95811,1.54274 19.65586,4.45153 28.81913,8.64419c6.69043,2.93262 13.36495,5.91617 19.44361,10.0033c5.98693,4.02545 6.18079,4.93851 3.59331,11.33167c0.86555,-0.13554 1.58783,-0.24261 2.08693,-0.32766c7.3636,0.18806 9.76064,5.75704 11.3543,12.18728c1.58949,6.51892 2.21462,13.23571 1.85542,19.93598c-0.08486,1.84249 0.27168,4.15305 -1.74298,5.09094c-0.84083,0.39617 -3.85581,-1.36221 -4.63184,-1.85505c-3.79087,-2.41278 -7.52252,-4.92338 -12.49836,-8.19897c1.7106,7.53003 1.79055,13.81536 -0.12894,20.05449c-1.32042,3.86496 -3.04031,7.58163 -5.13187,11.08972c-0.7299,1.31097 -1.78863,2.45601 -3.49266,2.01878c-1.52387,-0.38566 -1.69522,-1.83694 -1.9377,-3.12772c-1.12897,-6.40503 -3.27142,-12.46622 -5.81499,-18.89072l0.00002,0.00002c-0.04908,-0.15987 -0.23726,-0.78346 -0.52727,-1.71413c-0.20924,0.18745 -0.35216,0.34581 -0.37126,0.44353c-1.58883,2.0719 -2.75798,3.23807 -1.8193,5.69657c1.91154,5.00963 0.13908,7.31673 -5.42452,7.30903c-8.83752,0.00045 -16.92018,-2.81942 -24.42847,-7.32323c-6.37509,-3.82273 -12.35626,-8.26695 -17.85604,-13.26768c-0.40034,-0.28948 -1.55092,-1.52625 -2.62044,-2.97334c-0.47334,-0.64049 -1.70992,-1.93362 -2.12119,-3.37734c-0.04117,-0.14448 -0.08447,-0.30892 -0.12581,-0.48552c-1.12627,0.87485 -1.85524,1.49337 -1.92009,1.52191c-2.72908,1.18628 -4.60902,-1.37414 -3.74462,-4.13919l-0.00002,0.00002z" fill="#000000" stroke="url(#color-2)" stroke-width="5"/><g stroke="none" stroke-width="0.5"><path d="M139.18508,162.39358c-0.84856,-0.34806 -1.06798,-5.50507 0.63734,-9.63956c1.67301,-4.05606 5.25535,-7.09776 6.08778,-6.75633c1.73842,0.71307 6.56665,3.5819 11.03862,7.29659c5.19851,4.31819 9.95861,9.57383 9.49608,10.70148c-0.00021,0.00052 -0.00037,0.00095 -0.00059,0.00147c-0.00024,0.00054 -0.00045,0.00113 -0.00067,0.00167c-0.45318,1.10492 -6.97567,1.09294 -13.57205,0.54752c-5.92642,-0.49004 -11.90737,-1.42315 -13.68645,-2.15287zM143.98705,154.32198c-0.19738,0.4796 -1.21746,3.62756 -0.23199,4.35787c1.48203,1.0983 15.29751,3.26039 15.66094,2.26307c0.32296,-0.88619 -10.62518,-9.53838 -12.5288,-9.7854c-0.89389,-0.11603 -2.75555,2.81307 -2.90016,3.16446z" fill="#000000"/><path d="M143.87501,154.26716c0.14457,-0.3514 2.04857,-3.32921 2.94249,-3.21318c1.90362,0.24702 13.03906,9.04655 12.71613,9.93273c-0.36347,0.99733 -14.4208,-1.19753 -15.90282,-2.29585c-0.98547,-0.73033 0.04684,-3.94408 0.24423,-4.42369z" fill="#0066cc"/><path d="M159.53367,160.98669c-0.08524,0.23393 -0.92399,0.29228 -2.17717,0.23024c-0.91073,-1.43366 -3.22378,-3.87729 -6.28737,-5.74065c-2.28697,-1.39101 -5.42387,-2.47365 -6.3785,-2.49038c0.66771,-0.93077 1.58377,-2.00247 2.12693,-1.93194c1.90362,0.24704 13.03904,9.04654 12.71611,9.93273z" fill="#399cff"/><path d="M143.65602,158.6737c-0.88407,-0.65519 -0.14419,-3.30907 0.15992,-4.1945c0.3604,0.4983 0.66434,0.92167 0.81415,1.09011c1.81826,2.04411 8.43176,5.02591 9.67218,5.34796c-4.28007,-0.51905 -9.75209,-1.58088 -10.64626,-2.24356z" fill="#051380"/></g><g stroke="none"><path d="M165.46665,165.27349c0,0 -1.21165,-6.53024 -1.01187,-7.81036c0.78286,-5.1883 2.12173,-10.27733 3.99349,-15.17917c2.97923,-7.67831 5.89054,-9.38154 14.06901,-8.17276c9.95813,1.54274 19.65587,4.45155 28.81913,8.64422c6.69043,2.93262 13.36495,5.91618 19.44361,10.00331c6.07867,4.08713 6.18535,4.96576 3.47241,11.62949c0.10834,-0.00958 -0.48483,1.61999 -0.86268,3.00612c-8.6912,1.19105 -27.45031,9.65006 -31.74856,11.49159c-0.44228,0.18948 -1.39427,0.61394 -1.49484,0.66596c-3.47057,-1.63537 -6.88138,-3.42162 -10.48646,-4.67946c-0.33809,-0.11115 -11.98214,-4.65938 -11.98214,-4.65938l-0.00233,0.00935c0,0 -12.1199,-4.77139 -12.20871,-4.9489zM202.88954,176.42361c0.16209,0.10843 18.03778,-8.21214 25.65817,-10.41747c2.76301,-0.78628 2.95276,-3.47919 3.74787,-5.48388c0.73186,-1.85982 -1.37844,-2.71803 -2.65785,-3.49099c-11.07683,-6.54541 -22.86979,-11.79501 -35.14637,-15.64533c-2.31461,-0.7452 -3.37609,0.07447 -4.387,2.1372c-2.96004,5.86917 -7.42534,16.56474 -9.48281,22.80785c-0.1164,0.36673 5.86408,2.35251 11.09311,4.6223c5.84649,2.53787 11.02526,5.37025 11.17485,5.47034zM177.88878,165.1811c1.44634,-7.73462 4.57279,-14.90663 7.88723,-22.02306c0.52116,-1.03328 1.74084,-2.24447 0.5848,-3.53454c-1.05849,-1.1908 -5.97888,-1.96596 -8.25834,-1.75154c-3.03591,0.28556 -3.49031,2.03406 -4.2767,4.06023c-1.33467,3.68292 -2.46432,7.43695 -3.38375,11.24484c-2.26219,8.9433 -2.19877,8.99132 6.40091,11.97376c0.34415,0.05966 0.65923,0.00565 1.00774,-0.01776z" fill="#000000" stroke-width="1"/><path d="M228.65506,166.02478c-7.62042,2.20533 -25.62903,10.61314 -25.7911,10.50471c-0.14962,-0.10005 -5.39613,-2.98214 -11.24259,-5.51997c-5.22901,-2.26981 -11.22373,-4.29432 -11.10733,-4.66105c2.05745,-6.24311 6.55871,-17.03828 9.51872,-22.90747c1.01093,-2.06274 2.08999,-2.89491 4.4046,-2.14971c12.27658,3.8503 24.22997,9.17124 35.30682,15.71666c1.2794,0.77296 3.392,1.64772 2.66013,3.50755c-0.79512,2.00471 -0.98626,4.72304 -3.74928,5.50934z" fill="#ff2d32" stroke-width="0.5"/><path d="M177.85453,165.24189c-0.34851,0.0234 -0.67108,0.07748 -1.01523,0.01779c-8.59966,-2.98245 -8.76091,-3.09955 -6.49872,-12.04284c0.91941,-3.80788 2.10914,-7.70255 3.44383,-11.38547c0.78646,-2.02616 1.28882,-3.78261 4.32476,-4.06815c2.27946,-0.21439 7.26287,0.58581 8.32136,1.77661c1.15606,1.29007 -0.05098,2.51365 -0.57212,3.5469c-3.31444,7.11643 -6.51912,14.46869 -7.96543,22.20331z" fill="#a31c4c" stroke-width="0.5"/><path d="M228.69894,166.01226c-7.62042,2.20535 -25.62903,10.61314 -25.7911,10.50471c-0.14962,-0.10005 -5.39614,-2.98211 -11.24261,-5.51995c-5.22901,-2.26981 -11.22373,-4.2943 -11.10733,-4.66102c0.45468,-1.37967 1.0287,-2.98166 1.67908,-4.7037c0.27278,0.16766 8.32983,4.10682 13.08544,2.96608c9.13151,-2.19042 18.81153,-10.35414 22.25985,-9.95785c2.76395,0.36252 -8.15207,12.31807 -2.3839,11.57426c6.5896,-0.84975 13.27072,-1.88609 15.77345,-1.88607c-0.48489,0.75525 -1.17637,1.3716 -2.27287,1.68361z" fill="#c41c1f" stroke-width="0.5"/><path d="M232.36429,160.49482c-0.16233,0.40919 -0.28017,1.24759 -0.55134,1.97852c-0.2928,0.78935 -0.73995,1.47422 -0.92835,1.94455c-1.75916,0.00652 -3.86802,0.35846 -3.86802,0.35846c-1.57516,-4.18822 -7.66505,-9.55078 -11.29554,-11.92483c-5.10508,-3.03118 -10.01575,-5.65208 -15.66966,-7.60734c-3.07623,-1.16375 -6.24098,-2.06353 -9.4117,-2.94363c0.8637,-1.21987 1.92223,-1.62079 3.75763,-1.02987c12.27658,3.85032 24.22997,9.17125 35.30682,15.71664c1.2794,0.77294 3.39204,1.64772 2.66018,3.50755z" fill="#ff888a" stroke-width="0.5"/><path d="M186.43068,139.53945c0.52514,0.58598 0.56268,1.15826 0.39838,1.70524c-1.41076,-0.40343 -2.81604,-0.82268 -4.20856,-1.27938c-2.08771,-0.4338 -4.70515,-0.92755 -7.23976,-1.11988c0.59218,-0.56787 1.42783,-0.96023 2.72854,-1.08258c2.27946,-0.21439 7.26288,0.58581 8.32137,1.7766z" fill="#d92564" stroke-width="0.5"/><path d="M177.89122,165.28708c-0.34851,0.0234 -0.6711,0.07745 -1.01525,0.01776c-8.5997,-2.98246 -8.76091,-3.09955 -6.49872,-12.04284c0.1222,-0.50616 0.24921,-1.01387 0.3807,-1.5224c0.28818,0.61828 1.87588,2.85767 3.64672,4.50998c1.7585,1.64078 3.6971,2.69383 4.86914,3.50596c-0.53632,1.83866 -0.99226,3.69784 -1.34419,5.57966z" fill="#830b35" stroke-width="0.5"/></g><g stroke="none"><path d="M214.29062,202.06759c-0.24939,-0.81193 -4.08495,-13.58618 -6.64309,-17.7948c-1.82742,-3.00647 -5.19699,-4.67843 -6.26446,-5.36548c-2.63259,-1.69442 -7.95312,-4.00862 -7.82233,-4.21704c0.76722,-1.22283 5.13277,-6.23118 5.28869,-6.41186c3.28064,-3.80109 8.60724,-7.71429 11.02727,-9.37795c3.01562,-2.07316 6.71435,-3.62654 9.23461,-4.41801c1.71934,-0.53994 2.808,-0.65481 3.08019,-0.61515c0.81907,0.11935 1.64173,0.66212 1.73459,0.72373c0.68606,0.45506 -2.35324,5.24453 -3.38911,8.7248c-0.76887,2.58314 -0.33508,4.9622 -0.15423,4.89694c0.62071,-0.224 3.21445,-1.65315 6.22479,-2.52008c3.75394,-1.08107 8.13108,-1.63642 9.85281,-1.92987c7.3636,0.18808 9.76069,5.75705 11.3543,12.18728c1.58947,6.51895 2.21461,13.23571 1.85541,19.93598c-0.08486,1.84249 0.27169,4.15305 -1.74297,5.09094c-0.84083,0.39615 -3.85581,-1.36221 -4.63184,-1.85505c-3.79081,-2.41278 -7.52252,-4.92343 -12.49836,-8.19899c1.7106,7.53003 1.79059,13.81537 -0.12891,20.05451c-1.32044,3.86494 -3.04036,7.58162 -5.13189,11.08971c-0.7299,1.31097 -1.78863,2.45602 -3.49266,2.01879c-1.52385,-0.38566 -1.69522,-1.83692 -1.9377,-3.12772c-1.12899,-6.40503 -3.27143,-12.46619 -5.81502,-18.89068zM223.53042,216.25876c1.07565,-2.63888 1.94446,-4.41979 2.52345,-6.28799c2.25645,-7.29657 1.55597,-14.4153 -1.47012,-21.36178c-0.44718,-1.06017 -1.03125,-2.21884 -0.0631,-3.26233c1.07047,-1.14896 2.40656,-0.87769 3.61589,-0.2579c1.20935,0.61981 2.64211,1.2639 3.88627,2.02889c4.24104,2.61036 8.46627,5.25208 13.21954,8.26814c0.06116,-8.51189 -0.48064,-16.15933 -3.34466,-23.4856c-0.97165,-2.45388 -2.58431,-4.33759 -5.51768,-4.1675c-4.77439,0.27699 -16.06927,3.49908 -19.50807,2.96339c-0.0928,-0.01449 -0.22257,-3.69836 0.97221,-7.18584c1.22237,-3.56796 2.33164,-6.06766 2.3051,-6.05747c-0.34199,0.13142 -1.07794,-0.10988 -3.63487,1.16156c-1.13989,0.5668 -7.54236,4.63186 -12.49506,8.97108c-1.35908,1.19075 -6.34791,5.423 -6.23711,6.01555c0.02158,0.11549 5.08873,2.22096 8.34239,4.55984c2.72885,1.9616 4.67556,4.5586 5.53342,6.43711c4.07914,8.93248 9.91146,25.39607 11.86091,31.62554z" fill="#000000" stroke-width="1"/><path d="M223.57843,216.33574c-1.94944,-6.22945 -7.89942,-22.82113 -11.97858,-31.75364c-0.85784,-1.87853 -2.79257,-4.50894 -5.52141,-6.47054c-3.25367,-2.33889 -8.32098,-4.44409 -8.34257,-4.55957c-0.1108,-0.59255 4.90093,-4.85342 6.26001,-6.04417c4.95272,-4.33921 11.41162,-8.43063 12.55151,-8.99748c2.55693,-1.27142 3.30712,-1.03129 3.64909,-1.16268c0.02655,-0.01019 -1.06777,2.70664 -2.29014,6.27456c-1.19478,3.48748 -1.10371,6.95727 -1.01089,6.97174c3.4388,0.53566 14.82982,-2.6634 19.60426,-2.94037c2.9334,-0.1701 4.56572,1.73568 5.53739,4.18958c2.86402,7.32628 3.41761,15.07252 3.35648,23.58438c-4.75322,-3.01601 -9.18925,-5.70406 -13.43029,-8.31446c-1.24418,-0.76498 -2.67598,-1.38423 -3.88536,-2.00406c-1.20934,-0.61981 -2.33144,-0.93174 -3.40191,0.21724c-0.96817,1.04349 -0.39682,2.28223 0.05039,3.34242c3.02612,6.94646 3.65739,14.11555 1.40094,21.4121c-0.57899,1.8682 -1.46157,3.65134 -2.53726,6.29023z" fill="#50a5eb" stroke-width="0.5"/><path d="M223.5135,216.40226c-1.94942,-6.22945 -7.89944,-22.82113 -11.97858,-31.75361c-0.85787,-1.87851 -2.79261,-4.50893 -5.52144,-6.47053c-3.25366,-2.33889 -8.32094,-4.4441 -8.34252,-4.55959c-0.1108,-0.59255 4.90096,-4.85342 6.26002,-6.04417c2.28654,-2.00329 4.89414,-3.95377 7.15113,-5.529c-0.8286,2.50055 -3.35119,6.29654 -2.6585,10.03339c0.82357,4.44283 5.0106,8.73639 5.49521,9.75289c3.36424,7.0569 7.46341,19.65002 7.89078,23.9741c0.16306,2.24762 2.24806,7.58981 1.87688,10.23883c-0.05328,0.12892 -0.10708,0.2599 -0.16132,0.39302z" fill="#3e7fb5" stroke-width="0.5"/><path d="M223.57435,216.33649c-0.32964,-1.05335 0.19764,-10.1889 -0.12054,-14.27511c-0.2167,-5.41614 -2.75018,-10.4845 -3.8211,-15.67372c-0.25146,-1.3002 -1.46576,-4.72743 -0.68038,-5.53935c2.44089,-2.52345 10.16433,-0.51816 11.56667,-0.16328c3.49536,0.88457 6.82037,2.63652 6.90894,2.46094c0.04151,-0.08233 2.5805,-6.39612 -3.27735,-9.21986c-4.41116,-2.12637 -17.25577,0.40584 -19.48817,-0.70928c-3.15638,-1.5767 1.10114,-14.31797 1.88087,-14.70568c2.55695,-1.27144 3.30713,-1.03132 3.6491,-1.16271c0.02658,-0.01019 -1.06775,2.70664 -2.29012,6.27457c-1.19481,3.48746 -1.10371,6.95728 -1.01089,6.97176c3.4388,0.53566 14.82982,-2.6634 19.60424,-2.94039c2.9334,-0.1701 4.56579,1.73566 5.53741,4.18956c2.86402,7.32628 3.41759,15.07254 3.35645,23.58441c-4.75322,-3.01603 -9.18924,-5.70406 -13.43028,-8.31446c-1.24418,-0.76498 -2.67598,-1.38425 -3.88536,-2.00406c-1.20934,-0.61979 -2.33144,-0.93171 -3.40191,0.21725c-0.96815,1.04349 -0.39678,2.28222 0.05041,3.34241c3.02607,6.94651 3.65736,14.11558 1.40091,21.41213c-0.57897,1.86819 -1.46158,3.65134 -2.53727,6.29023z" fill="#66ffff" stroke-width="0.5"/><path d="M217.90239,163.62304c-0.29094,0.8493 -0.50566,1.69751 -0.66266,2.49504c-0.3296,-2.11396 -0.82735,-4.81761 -1.01057,-7.16846c0.13075,-0.24768 0.23879,-0.40093 0.31426,-0.43844c2.55697,-1.27144 3.30715,-1.03132 3.64912,-1.16271c0.02658,-0.01021 -1.06777,2.70664 -2.29014,6.27457z" fill="#ccffff" stroke-width="0.5"/><path d="M223.57435,216.33649c-0.16988,-0.54281 -0.11219,-3.23196 -0.05989,-6.27033c1.23269,-2.39479 1.54453,-6.28635 1.7871,-8.04424c0.08989,-3.74971 0.37489,-7.74381 0.12574,-11.61483c2.40611,6.4021 2.76468,12.98472 0.6959,19.67448c-0.57897,1.86819 -1.46157,3.65134 -2.53727,6.29024z" fill="#ccffff" stroke-width="0.5"/><path d="M245.3894,195.42825c-0.82681,-0.52462 -1.64402,-1.03934 -2.45226,-1.54541c0.29003,-6.15077 -1.12856,-11.82931 -2.37349,-17.94699c-0.43428,-1.69767 -2.35829,-5.28906 -3.56145,-8.29028c2.61744,0.0658 4.11661,1.88942 5.03082,4.1983c2.86402,7.32628 3.41759,15.07252 3.35645,23.58441z" fill="#ccffff" stroke-width="0.5"/></g><g stroke="none"><path d="M175.25475,178.34294c-0.13757,-4.59525 0.52338,-12.19809 0.52338,-12.19809c0.32969,0.16529 27.0013,9.15012 31.57586,13.27035c1.82793,1.64641 8.58183,19.26285 8.58168,19.26322c-0.04175,0.12539 -2.46046,1.69417 -2.54349,2.11854c-1.58883,2.0719 -2.75799,3.23809 -1.8193,5.69656c1.91152,5.00965 0.1391,7.31673 -5.42449,7.30903c-8.8375,0.00047 -16.92016,-2.81938 -24.42845,-7.32321c-6.37509,-3.82273 -12.35623,-8.26695 -17.85602,-13.2677c-0.40034,-0.28948 -1.55094,-1.52624 -2.62046,-2.97333c-0.47337,-0.64049 -1.70995,-1.93366 -2.12119,-3.37736c-0.15417,-0.54121 -0.33867,-1.36268 -0.33465,-2.05147c0.00773,-1.32932 0.3502,-2.51234 0.39277,-2.67262c0.08684,-0.32718 0.55503,-1.04091 0.73303,-1.15346c1.74869,-1.10576 5.46572,-4.48702 9.2297,-5.00274c2.34361,-0.32112 5.1889,1.65193 6.11169,2.36229zM203.65767,181.91191c-3.18302,-2.2403 -25.29942,-10.67657 -25.29942,-10.67657c0.26636,2.4221 0.9773,8.09493 0.15365,10.83759c-0.41012,1.36575 -2.25832,0.85041 -2.62562,0.70937c-0.57944,-0.22249 -1.22345,-0.54843 -1.78507,-1.03433c-0.58996,-0.51043 -1.09858,-1.18334 -1.75433,-1.49781c-1.0597,-0.50823 -2.35249,-0.05459 -2.84349,0.04613c-1.42145,0.29155 -8.43004,3.24774 -7.23547,4.73399c7.68288,9.61476 19.49651,17.63845 30.98285,22.05822c4.09086,1.5991 8.45235,2.3919 12.84426,2.33468c1.96037,0.00684 2.81787,-0.77826 1.59314,-2.61353c-1.37287,-2.06714 -1.07183,-4.06567 0.57614,-5.54201c3.99668,-3.58071 2.7301,-14.19196 -4.60663,-19.35573z" fill="#000000" stroke-width="1"/><path d="M203.7291,181.83053c7.33673,5.16379 8.60046,15.88046 4.60376,19.46119c-1.64795,1.47631 -1.96175,3.49231 -0.5889,5.55945c1.22475,1.8353 0.35838,2.62919 -1.60199,2.62232c-4.39191,0.05722 -8.79761,-0.71185 -12.88845,-2.31095c-11.48634,-4.41977 -23.43533,-12.56772 -31.11817,-22.18248c-1.19457,-1.48622 5.82356,-4.47151 7.24498,-4.76308c0.49103,-0.1007 1.78734,-0.561 2.84704,-0.05277c0.65573,0.31449 1.35418,1.09445 1.94413,1.60488c0.56163,0.48589 1.01428,0.7075 1.59375,0.92999c0.3673,0.14103 2.22424,0.64273 2.63438,-0.723c0.82365,-2.74266 0.14677,-8.4451 -0.11961,-10.86722c0,0 22.26608,8.48137 25.44911,10.72167z" fill="#fddfbd" stroke-width="0.5"/><path d="M203.69981,181.83115c7.33673,5.16379 8.60041,15.88044 4.60374,19.46116c-1.64795,1.47631 -1.96177,3.49231 -0.5889,5.55945c1.22475,1.8353 0.35839,2.62918 -1.602,2.62232c-0.71367,0.00931 -1.4277,-0.00322 -2.14072,-0.03756c-0.20233,-0.27645 -2.16387,-2.66283 -1.6647,-4.35471c1.03947,-3.52336 5.82371,-9.7884 4.04154,-14.10255c-1.06192,-2.51419 -7.27168,-6.517 -13.27296,-9.07689c-4.50178,-1.92029 -8.93712,-2.66839 -10.71418,-3.34963c-0.59777,-0.22916 1.14767,5.83899 -1.87106,7.44155c-0.96871,0.51425 -3.18467,0.77059 -5.86238,0.27985c-1.13875,-0.2087 -2.4224,-1.64525 -3.62911,-1.47414c-1.94422,0.27572 -5.05157,3.45154 -5.64452,3.89989c-1.14969,-1.21082 -2.23613,-2.4523 -3.24851,-3.71927c-1.19455,-1.48622 5.82358,-4.4715 7.245,-4.76307c0.49103,-0.1007 1.78733,-0.56098 2.84703,-0.05275c0.65575,0.31447 1.3542,1.09443 1.94416,1.60484c0.56161,0.48591 1.01428,0.70752 1.59373,0.93003c0.3673,0.14103 2.22424,0.64276 2.63438,-0.72297c0.82363,-2.74268 0.14675,-8.44512 -0.11961,-10.86724c0,0 22.2661,8.48138 25.44911,10.72171z" fill="#f89587" stroke-width="0.5"/></g><g stroke="none"><path d="M153.33172,183.77525c0.30883,-0.98924 7.70317,-20.78498 8.42334,-21.74423c0.5845,-0.7786 16.07385,5.08457 16.07843,5.13381c0,0 1.77002,14.80849 0.5909,15.62776c-1.37169,0.94801 -4.06652,-0.43011 -4.8707,-1.42485c-3.59874,-4.64307 -16.19811,6.42374 -16.47738,6.54668c-2.72908,1.18631 -4.609,-1.37412 -3.7446,-4.13917zM163.04439,167.36951c-1.24167,4.13602 -2.34497,8.41647 -3.9874,13.9116c0.5977,-0.38966 10.91819,-5.37626 11.83052,-5.59185c1.64354,-0.38829 3.85376,1.89799 4.21753,2.17801c-0.09511,-3.17778 0.47251,-7.52502 -0.07479,-8.0045c-0.83265,-0.72942 -11.33938,-3.92625 -11.34314,-3.91392z" fill="#000000" stroke-width="1"/><path d="M163.64801,165.84713c0.00374,-0.01233 10.6355,3.21926 11.46815,3.94871c0.54728,0.47943 -0.00126,4.92253 0.0939,8.10032c-0.36378,-0.28002 -2.57014,-2.59754 -4.21364,-2.20922c-0.91233,0.21554 -11.43284,5.26436 -12.03054,5.65404c1.64243,-5.49515 2.78614,-9.93193 4.02781,-14.06795z" fill="#50a5eb" stroke-width="0.5"/><path d="M158.94513,181.34c0.53782,-1.79942 1.02218,-3.48539 1.47401,-5.08444c1.38075,-0.11756 9.71075,-3.58782 11.19978,-3.86989c0.8836,-0.12241 2.30403,1.27517 3.5939,2.93075c-0.03035,0.8841 -0.04767,1.77218 -0.02353,2.57878c-0.36378,-0.28002 -2.57014,-2.59753 -4.21364,-2.20922c-0.91233,0.21556 -11.43284,5.26438 -12.03054,5.65404z" fill="#66ffff" stroke-width="0.5"/><path d="M163.64801,165.84711c0.00376,-0.01233 10.6355,3.21926 11.46815,3.94871c0.29518,0.25859 0.27159,1.66989 0.20217,3.41385c-0.54281,-0.3576 -0.27399,-1.90846 -4.02532,-2.85435c-1.73865,-0.43838 -7.80494,-0.84393 -8.97794,-0.76572c0.2254,-0.78548 0.45034,-1.55612 0.67864,-2.31659z" fill="#3e7fb5" stroke-width="0.5"/><path d="M158.96596,181.34097c0.07013,-0.23478 1.16971,-1.70587 2.98174,-2.84859c2.80047,-1.76603 7.03842,-3.44514 9.7574,-3.97479c0.96905,-0.18877 3.48435,2.68755 3.50501,3.37855c-0.36378,-0.28002 -2.57014,-2.59753 -4.21365,-2.20922c-0.91231,0.21554 -11.43281,5.26436 -12.03052,5.65404z" fill="#ccffff" stroke-width="0.5"/></g><path d="M207.90676,193.88016c-0.76275,1.51228 -1.67057,0.48095 -3.05901,-1.0812c-0.52053,-0.58564 -0.74866,1.22887 -1.87597,2.14999c-0.41824,0.34176 -2.13232,0.83639 -3.34224,0.37465c-1.41676,-0.54067 -2.32207,-2.11501 -2.35186,-2.60654c-0.10601,-1.74854 1.71371,-3.62422 0.90594,-3.7087c-2.34681,-0.24537 -4.55734,-0.31982 -3.71783,-1.98424c1.27904,-2.53591 6.42962,-1.36608 8.96553,-0.08704c2.53591,1.27904 5.75455,4.40721 4.47551,6.9431z" fill="#000000" stroke="none" stroke-width="0"/><path d="M186.19161,201.90497c-1.38308,-0.72313 -2.48602,-4.05008 -2.38629,-4.24782c0.72746,-1.4423 2.30821,1.39139 3.57933,2.03251c1.27112,0.64114 4.84226,-0.11443 4.11482,1.32784c-0.2877,0.57042 -3.15289,2.01417 -5.30786,0.88744z" fill="#000000" stroke="none" stroke-width="0.5"/><path d="M205.67108,195.86247c0.64139,0.09228 1.82023,1.26492 2.19888,2.77632c0.31804,1.26941 -0.22321,3.32845 -0.48768,3.53378c-0.32924,0.25558 -0.70622,-1.69643 -1.28884,-1.48128c-1.42338,0.52563 -4.07102,0.69006 -7.63958,-0.13226c-0.98427,-0.22681 -6.16444,-1.51379 -10.82039,-3.80752c-4.20402,-2.07104 -7.9033,-5.12453 -9.07814,-6.08264c-1.68687,-1.37566 -3.18316,-3.04071 -3.79843,-4.60183c-0.14942,-0.37905 -2.53202,1.15024 -2.63257,0.82538c-0.1507,-0.48705 0.86043,-2.81919 2.46966,-3.43552c1.65164,-0.63254 3.95418,0.10512 4.49537,0.64951c0.32075,0.32261 -2.0519,1.11278 -1.67651,1.49309c1.80615,1.82977 4.16143,4.16842 6.2601,5.4864c1.74811,1.09784 6.51234,3.72653 10.78522,5.10536c3.44662,1.1122 7.46724,1.61307 10.26099,1.93827c0.53197,0.06193 0.52571,-2.3284 0.95194,-2.26707z" fill="#000000" stroke="none" stroke-width="0.5"/><path d="M218.50016,179.36437c-0.23624,0.46836 -1.57117,0.95125 -2.00941,0.39939c-0.57098,-0.71904 -1.15468,-2.80118 -3.06242,-4.49437c-1.71755,-1.52441 -4.89481,-2.36425 -5.61137,-2.71054c-0.68284,-0.33002 -0.43315,-1.17311 -0.17774,-1.67951c0.34527,-0.68457 4.60876,-1.00589 7.07833,0.49649c3.40351,2.07053 4.25844,7.04509 3.78259,7.98855z" fill="#000000" stroke="none" stroke-width="0.5"/><path d="M197.87605,164.2289c0.40678,0.51704 1.13651,2.08449 1.00278,2.78844c-0.1502,0.79077 -1.17385,1.02827 -1.48305,0.80677c-1.06993,-0.76649 -2.48064,-2.66965 -4.72261,-3.01184c-1.19442,-0.1823 -3.17516,0.74415 -4.45258,1.22354c-0.73448,0.27563 -1.77946,-0.14752 -1.6832,-0.88247c0.09606,-0.73353 1.33183,-1.77797 2.12278,-2.32911c0.53586,-0.37338 2.89911,-1.58056 4.51413,-1.41633c2.23413,0.22719 3.94088,1.85382 4.70176,2.82098z" fill="#000000" stroke="none" stroke-width="0.5"/><path d="M179.38861,181.51418c0.95848,-2.67361 5.4432,-2.49308 8.11677,-1.5346c2.67356,0.95848 7.06817,3.88838 6.10971,6.56197c-0.6291,1.7548 -2.20505,0.20289 -3.9988,-1.33014c-0.61741,-0.52766 -0.7248,2.0835 -2.0659,3.21051c-0.37698,0.3168 -2.14204,0.74419 -3.5096,0.08898c-1.16787,-0.55954 -1.98934,-2.14323 -2.02945,-2.68184c-0.10815,-1.45175 1.05076,-2.8665 0.26763,-2.84081c-2.08888,0.0686 -3.46186,0.1203 -2.89029,-1.47405z" fill="#000000" stroke="none" stroke-width="0"/><path d="M260.51798,179.70265c0,-0.79084 0.72944,-13.13755 0.85069,-26.3c0.02269,-2.46249 3.11082,-38.06953 -1.17904,-40.63327c-0.48885,-0.29213 -25.84897,0.7751 -54.36883,1.19131c-17.80587,0.25983 -39.93987,-0.61083 -53.51234,-0.53843c-5.64064,0.03011 -28.45329,-0.85178 -29.00849,-0.87157c-1.39848,-0.04991 -0.12768,75.67859 1.48189,113.20078c0.74959,17.47439 1.18796,10.94287 2.1614,13.09363c1.17195,2.58931 14.92748,2.24471 30.2118,2.96596c7.41676,0.34998 32.9871,2.19924 53.08654,2.02525c11.16237,-0.09662 20.97708,-2.01394 24.24697,-2.30173c10.11668,-0.8904 21.009,-2.04644 23.45904,-2.34733c3.87468,-0.47587 6.20803,-0.76194 6.20803,-0.76194c0,0 0.99435,-2.96291 0.86572,-6.32479c-0.17431,-4.55486 -4.50329,-52.18308 -4.50329,-52.39782zM184.92883,247.4786c-1.95118,0.24604 -19.8625,-1.09186 -32.37064,-1.50695c-11.511,-0.38201 -18.69622,0.66659 -26.81388,-0.32494c-5.10864,-0.62398 -5.92767,-4.65968 -5.98555,-4.67467c-0.30459,-0.07879 -2.74456,-11.80434 -3.1098,-28.54799c-0.30534,-13.99819 0.51808,-32.22743 0.68308,-48.83776c0.29759,-29.95345 0.35045,-56.5556 1.23891,-57.1644c1.52459,-1.04472 6.44158,-0.35991 6.6669,-0.34631c11.46592,0.69154 42.77537,2.25491 42.82921,2.25442c44.11514,-0.43239 93.59434,-2.44451 93.59434,-2.29818c0,0.00987 4.34023,-0.38266 5.52232,5.70822c1.71647,8.84439 0.57044,24.71523 0.11603,33.5077c-0.57528,11.1308 -1.86159,24.52406 -1.68089,30.13886c0.61787,19.19991 2.82243,28.76508 3.46447,38.41558c0.36906,5.54755 0.75163,11.86798 0.79304,16.03946c0.06264,6.31728 -1.50379,10.46216 -2.37802,10.93896c-2.54687,1.38904 -17.72851,4.91378 -34.83421,6.14867c-20.81023,1.50229 -44.19863,0.5821 -47.73524,0.54937z" fill="#000000" stroke="none" stroke-width="0.5"/></g></g></svg>