<svg version="1.1" xmlns="http://www.w3.org/2000/svg" xmlns:xlink="http://www.w3.org/1999/xlink" width="234.61229" height="257.53564" viewBox="0,0,234.61229,257.53564"><defs><radialGradient cx="359.13162" cy="179.14032" r="81.16802" gradientUnits="userSpaceOnUse" id="color-1"><stop offset="0" stop-color="#fa8484" stop-opacity="0.97255"/><stop offset="1" stop-color="#fa8484" stop-opacity="0"/></radialGradient><radialGradient cx="321.09057" cy="132.41417" r="81.16802" gradientUnits="userSpaceOnUse" id="color-2"><stop offset="0" stop-color="#fa8484" stop-opacity="0.97255"/><stop offset="1" stop-color="#fa8484" stop-opacity="0"/></radialGradient><radialGradient cx="319.0146" cy="227.61578" r="81.16802" gradientUnits="userSpaceOnUse" id="color-3"><stop offset="0" stop-color="#fa8484" stop-opacity="0.97255"/><stop offset="1" stop-color="#fa8484" stop-opacity="0"/></radialGradient><radialGradient cx="280.98768" cy="176.66941" r="81.16802" gradientUnits="userSpaceOnUse" id="color-4"><stop offset="0" stop-color="#fa8484" stop-opacity="0.97255"/><stop offset="1" stop-color="#fa8484" stop-opacity="0"/></radialGradient></defs><g transform="translate(-202.7535,-51.24717)"><g stroke-miterlimit="10"><path d="M228.24053,88.73407c0,0 112.36033,-0.34162 145.14271,-0.451c16.82289,-0.05613 38.03809,-0.16018 38.03809,-0.16018l0.61118,183.1808l-183.1808,0.61118z" fill="none" stroke="none" stroke-width="0"/><path d="M346.9075,111.79176c9.93818,7.59382 19.14112,19.55392 20.83092,21.70625c16.35517,20.83194 29.58648,46.63833 29.69304,49.5198c0.0297,0.80337 1.08536,5.63314 -2.91657,9.20812c-9.0435,8.07868 -28.64229,20.41823 -31.94097,21.58807c-0.18291,0.06486 -4.60527,-3.25856 -7.73413,-7.26078c-3.17273,-4.05833 -5.05228,-8.79684 -5.20081,-8.8169c-1.21119,-0.1636 -0.08163,28.11438 -2.16765,43.60261c-1.00055,7.4289 -12.22606,13.03616 -15.91344,13.65347c-7.8501,1.31421 -23.90996,0.57915 -30.5646,-0.7851c-0.88007,-0.18042 -7.12653,-4.68644 -8.03408,-12.23627c-0.90741,-7.54871 1.23134,-43.97971 0.8361,-45.57818c-0.10524,-0.4256 -6.78731,10.37598 -12.99128,16.69911c-3.8817,3.95625 -8.25867,4.56704 -8.61059,4.50043c-8.31929,-1.57458 -30.15816,-31.75796 -29.80901,-35.93228c0.26957,-3.2229 24.49924,-33.92376 42.87245,-54.5231c9.60764,-10.77171 18.71155,-18.19792 19.59475,-18.74064c3.60998,-2.21827 7.25418,-3.38552 7.8928,-3.59337c5.29278,-1.72266 12.10646,-1.76364 15.59356,-1.06822c6.7822,1.35256 14.61832,5.03782 18.56954,8.05697zM250.67482,182.99277c0.00507,1.51749 20.14023,25.52302 21.55279,25.78548c1.55649,0.28921 8.77995,-12.99093 20.03003,-23.12832c1.54093,-1.38852 7.06346,-6.35657 9.61298,-4.32679c2.86834,2.28361 0.43331,37.95036 0.57457,51.81049c0.06671,6.5436 0.73245,11.42782 1.64094,12.01051c4.8025,3.08024 14.97386,2.52429 21.34192,2.00275c8.03795,-0.6583 15.28245,-3.9946 16.19566,-7.02463c2.27759,-7.55699 0.75507,-57.96926 1.00321,-58.42641c0.82948,-1.5281 4.28022,-0.64781 5.18232,0.28854c2.26677,2.35282 7.30919,9.62028 10.62196,15.14561c3.32948,5.55322 5.96945,8.19144 6.98488,8.17366c4.49987,-0.07877 24.98748,-18.20467 24.98224,-19.77708c-0.00393,-1.17809 -11.18159,-20.93491 -25.15108,-40.20193c-7.53235,-10.38879 -15.11781,-21.31045 -23.50577,-27.72403c-6.01378,-4.59824 -14.63763,-6.40125 -18.44824,-6.27913c-2.54318,0.0815 -9.68899,1.19263 -15.04354,4.36032c-10.78922,6.38279 -57.58721,63.61993 -57.57489,67.31094z" fill="#930000" stroke-opacity="0.50196" stroke="#ff8080" stroke-width="12.5"/><path d="M346.9075,111.79176c9.93818,7.59382 19.14112,19.55392 20.83092,21.70625c16.35517,20.83194 29.58648,46.63833 29.69304,49.5198c0.0297,0.80337 1.08536,5.63314 -2.91657,9.20812c-9.0435,8.07868 -28.64229,20.41823 -31.94097,21.58807c-0.18291,0.06486 -4.60527,-3.25856 -7.73413,-7.26078c-3.17273,-4.05833 -5.05228,-8.79684 -5.20081,-8.8169c-1.21119,-0.1636 -0.08163,28.11438 -2.16765,43.60261c-1.00055,7.4289 -12.22606,13.03616 -15.91344,13.65347c-7.8501,1.31421 -23.90996,0.57915 -30.5646,-0.7851c-0.88007,-0.18042 -7.12653,-4.68644 -8.03408,-12.23627c-0.90741,-7.54871 1.23134,-43.97971 0.8361,-45.57818c-0.10524,-0.4256 -6.78731,10.37598 -12.99128,16.69911c-3.8817,3.95625 -8.25867,4.56704 -8.61059,4.50043c-8.31929,-1.57458 -30.15816,-31.75796 -29.80901,-35.93228c0.26957,-3.2229 24.49924,-33.92376 42.87245,-54.5231c9.60764,-10.77171 18.71155,-18.19792 19.59475,-18.74064c3.60998,-2.21827 7.25418,-3.38552 7.8928,-3.59337c5.29278,-1.72266 12.10646,-1.76364 15.59356,-1.06822c6.7822,1.35256 14.61832,5.03782 18.56954,8.05697zM250.67482,182.99277c0.00507,1.51749 20.14023,25.52302 21.55279,25.78548c1.55649,0.28921 8.77995,-12.99093 20.03003,-23.12832c1.54093,-1.38852 7.06346,-6.35657 9.61298,-4.32679c2.86834,2.28361 0.43331,37.95036 0.57457,51.81049c0.06671,6.5436 0.73245,11.42782 1.64094,12.01051c4.8025,3.08024 14.97386,2.52429 21.34192,2.00275c8.03795,-0.6583 15.28245,-3.9946 16.19566,-7.02463c2.27759,-7.55699 0.75507,-57.96926 1.00321,-58.42641c0.82948,-1.5281 4.28022,-0.64781 5.18232,0.28854c2.26677,2.35282 7.30919,9.62028 10.62196,15.14561c3.32948,5.55322 5.96945,8.19144 6.98488,8.17366c4.49987,-0.07877 24.98748,-18.20467 24.98224,-19.77708c-0.00393,-1.17809 -11.18159,-20.93491 -25.15108,-40.20193c-7.53235,-10.38879 -15.11781,-21.31045 -23.50577,-27.72403c-6.01378,-4.59824 -14.63763,-6.40125 -18.44824,-6.27913c-2.54318,0.0815 -9.68899,1.19263 -15.04354,4.36032c-10.78922,6.38279 -57.58721,63.61993 -57.57489,67.31094z" fill="#590d0d" stroke="none" stroke-width="0"/><path d="M364.6438,200.30747c-0.56633,-0.4503 -7.70498,-12.30841 -14.48618,-20.45885c-4.31574,-5.18716 -9.11104,-8.15993 -9.75545,-8.02373c-1.40209,0.29633 -0.06772,46.60137 -2.27414,61.47841c-0.1522,1.02621 -2.49078,4.36593 -6.18895,5.36956c-8.75354,2.37559 -23.75451,2.03334 -24.68677,-0.46496c-1.18008,-3.1624 0.4212,-32.36301 -0.16919,-50.86475c-0.28152,-8.82228 -1.57802,-15.36078 -2.82732,-15.44748c-1.73482,-0.4222 -10.0927,6.93895 -17.13043,14.68991c-6.68305,7.36033 -12.14524,15.10869 -14.00233,15.64655c-1.74189,0.50296 -16.06122,-17.89111 -15.62581,-21.20028c0.35877,-2.17233 27.101,-36.68853 47.89237,-54.72224c11.3589,-9.85231 19.92575,-9.46565 23.87066,-8.58376c1.86158,0.41616 11.97757,5.02867 20.21516,14.19206c16.74899,18.63139 34.99322,49.08129 35.76322,51.21445c-0.95103,3.23756 -19.19328,18.26284 -20.50529,17.21964z" fill="#f23030" stroke="none" stroke-width="0"/><path d="M250.54833,182.95593c-0.01232,-3.69101 46.82616,-60.97979 57.61537,-67.36259c5.35455,-3.16768 12.51184,-4.27968 15.05502,-4.36118c3.81061,-0.12211 12.44866,1.68356 18.46244,6.2818c8.38797,6.41358 15.99694,17.35223 23.5293,27.74101c13.96949,19.26702 25.15721,39.0585 25.16114,40.23658c0.00227,0.6823 -3.85508,4.48517 -8.59064,8.57849c-0.58136,-0.93161 -27.77623,-46.01793 -59.83168,-46.14194c-28.68919,-0.11099 -62.57961,44.63473 -63.50968,45.55556c-4.27416,-5.20351 -7.8891,-9.88498 -7.89124,-10.52774z" fill-opacity="0.25098" fill="#ffffff" stroke="none" stroke-width="0"/><path d="M341.42826,240.52188c-0.91321,3.03002 -8.17051,6.36897 -16.20846,7.02727c-6.36806,0.52154 -16.55516,1.07612 -21.35766,-2.00412c-0.90849,-0.58269 -1.57806,-5.46803 -1.64477,-12.01162c-0.0522,-5.12185 0.2428,-13.22735 0.49078,-21.52717c1.66927,0.02066 14.76234,1.97834 24.93543,-0.2457c7.38637,-1.6148 12.58689,-7.43413 13.89253,-8.10194c0.37561,-0.19212 0.75462,-0.38108 1.13554,-0.5687c0.12892,14.96004 0.05199,33.13399 -1.24338,37.43198z" fill-opacity="0.18039" fill="#000000" stroke="none" stroke-width="0"/><path d="M250.59581,182.97721c-0.01232,-3.69101 46.82616,-60.97979 57.61538,-67.36258c5.35455,-3.16769 12.51183,-4.27968 15.05501,-4.36118c3.81061,-0.12211 12.44866,1.68356 18.46245,6.2818c8.38797,6.41358 15.99694,17.35223 23.52929,27.74101c13.96949,19.26702 25.15722,39.0585 25.16115,40.23658c0.00525,1.57241 -20.48886,19.71894 -24.98873,19.79771c-1.01544,0.01778 -3.74403,-2.66656 -7.0735,-8.21977c-3.31277,-5.52533 -8.35967,-12.7763 -10.62644,-15.12912c-0.9021,-0.93634 -4.25333,-1.8069 -5.08281,-0.27881c-0.24813,0.45715 1.24106,50.91156 -1.03653,58.46855c-0.91321,3.03002 -8.17051,6.36897 -16.20846,7.02727c-6.36806,0.52154 -16.55516,1.07612 -21.35766,-2.00411c-0.90849,-0.58269 -1.57806,-5.46804 -1.64477,-12.01163c-0.14126,-13.86014 2.25997,-49.56923 -0.60837,-51.85284c-2.54951,-2.02979 -7.97346,2.92249 -9.51438,4.31101c-11.25008,10.13739 -18.56513,23.45423 -20.12161,23.16503c-1.41255,-0.26246 -21.55492,-24.29141 -21.55998,-25.8089zM364.39215,200.05304c1.31202,1.0432 19.54915,-13.96321 20.50018,-17.20077c-0.76999,-2.13315 -18.99005,-32.53679 -35.73906,-51.16818c-8.23759,-9.1634 -18.33427,-13.76918 -20.19585,-14.18534c-3.94491,-0.8819 -12.49078,-1.2703 -23.84968,8.58201c-20.79138,18.03371 -47.49817,52.50033 -47.85694,54.67266c-0.43541,3.30916 13.87892,21.68313 15.62081,21.18017c1.8571,-0.53786 7.22555,-8.25326 13.90859,-15.6136c7.03773,-7.75095 15.39801,-15.14192 17.13284,-14.71972c1.2493,0.0867 2.63506,6.61822 2.91658,15.4405c0.5904,18.50175 -1.04224,47.6794 0.13784,50.8418c0.93226,2.4983 15.91298,2.83997 24.66652,0.46438c3.69817,-1.00363 6.03076,-4.34189 6.18295,-5.3681c2.20641,-14.87704 0.8398,-61.11711 2.24189,-61.41344c0.64441,-0.1362 5.53662,2.82121 9.85236,8.00838c6.7812,8.15044 13.91466,20.02898 14.48099,20.47928z" fill="#ffffff" stroke="none" stroke-width="0"/><g stroke="none" stroke-width="0"><path d="M360.90116,97.99158c43.19626,0.94194 77.42151,38.03705 76.44421,82.85426c-0.9773,44.81721 -36.78702,80.38513 -79.98329,79.4432c-43.19626,-0.94195 -77.4215,-38.03705 -76.44421,-82.85426c0.97729,-44.81721 36.78702,-80.38513 79.98329,-79.44319z" fill="url(#color-1)"/><path d="M322.86011,51.26545c43.19626,0.94194 77.42151,38.03705 76.44421,82.85426c-0.9773,44.81721 -36.78702,80.38514 -79.98329,79.4432c-43.19626,-0.94195 -77.4215,-38.03705 -76.44421,-82.85426c0.97729,-44.81721 36.78702,-80.38514 79.98329,-79.4432z" fill="url(#color-2)"/><path d="M320.78414,146.46706c43.19626,0.94194 77.42151,38.03705 76.44421,82.85426c-0.9773,44.81721 -36.78702,80.38513 -79.98329,79.4432c-43.19626,-0.94195 -77.42151,-38.03705 -76.44421,-82.85425c0.97729,-44.81721 36.78702,-80.38514 79.98329,-79.4432z" fill="url(#color-3)"/><path d="M282.7572,95.52068c43.19626,0.94194 77.42151,38.03705 76.44421,82.85426c-0.9773,44.81721 -36.78702,80.38513 -79.98329,79.4432c-43.19626,-0.94195 -77.4215,-38.03705 -76.44421,-82.85426c0.97729,-44.81721 36.78702,-80.38513 79.98329,-79.44319z" fill="url(#color-4)"/></g></g></g></svg>