<svg version="1.1" xmlns="http://www.w3.org/2000/svg" xmlns:xlink="http://www.w3.org/1999/xlink" width="137.90729" height="113.20023" viewBox="0,0,137.90729,113.20023"><g transform="translate(-248.59853,-118.94405)"><g stroke="none" stroke-miterlimit="10"><path d="M321.68908,232.14428c-15.49,0 -31,0 -46.48,0c-6.44,0 -6.36,-0.10089 -6.25,-4.97448c0.11,-4.87361 -0.06,-9.56872 0.06,-14.3492c-0.01989,-1.53593 -0.78385,-3.00981 -2.14,-4.12859c-5.54,-5.43237 -11.52,-10.64743 -16.82,-16.29709c-2.25,-2.39024 -1.67,-3.88025 0.18,-5.76607c4.43,-4.52438 8.38,-9.41351 13.45,-13.44897c4.85,-3.88025 5.81,-8.04765 5.2,-13.00662c-0.82,-6.66629 -0.62,-5.33148 6.45,-5.33923c13.15333,0 26.30667,0.09312 39.46,0.27939c2.87,0 4.43,-0.58204 5.66,-2.72394c4.41,-7.62858 9.43,-15.04764 12.87,-23.00993c0.64587,-1.46269 1.41417,-2.89108 2.3,-4.27604c4.7,-7.56651 11.06,-8.0787 18.43,-1.99445c8.55,7.05431 17.58,13.75939 26.41,20.61192c0.46,0.35698 1,0.93902 1.52,0.93127c7.67,-0.14745 3.56,2.87916 2.14,4.95897c-1.15805,1.87564 -2.64554,3.61762 -4.42,5.17626c-6.34,5.11418 -6.63,11.26827 -6.45,17.89575c0.47,17.07314 0.29,34.14627 0.36,51.21941c0,8.03989 0,8.03989 -10.48,8.03989h-41.45zM253.44911,192.4337c14.72,7.57427 27.07,17.18954 40.28,25.98996c8.52,5.68846 8.75,5.79711 15.7,-1.00111c22.79,-22.31924 44.89,-45.01099 66.58,-67.71051c-10,-7.80708 -17.94,-17.1197 -30.42,-22.81592c-4.27,7.54322 -8.64,15.46671 -13.24,23.32035c-8.45,14.4268 -16.7,28.95448 -28.07,42.19393c-6.16,7.16295 -8.34,6.98447 -14.17,-0.16297c-5.28697,-6.59227 -9.7346,-13.56823 -13.28,-20.82922c-8.84,6.65077 -15.31,14.23279 -23.38,21.01548zM365.2791,171.32511c-17.76,19.16071 -34.6,37.50658 -54.62,54.72717c17.64,0 34.25,-0.0388 50.87,0c2.65,0 3.83,-0.39579 3.81,-2.73171c-0.12,-16.95673 -0.06,-33.95226 -0.06,-51.99546zM314.51911,161.89607h-34.12c6.16,8.53657 10.52,17.32148 17.37,25.53986c6.22836,-8.24911 11.82149,-16.77733 16.75,-25.53986zM289.78909,226.05226l-12.67,-8.33479c-1.25,8.40463 -1.25,8.39688 8.72,8.33479c0.94,-0.00777 1.89,0 3.95,0z" fill="#060503"/><path d="M253.44911,192.4337c8.07,-6.78269 14.54,-14.36471 23.38,-21.01548c3.54303,7.27168 7.99071,14.25811 13.28,20.86026c5.83,7.16295 8,7.32593 14.17,0.16297c11.37,-13.23945 19.62,-27.76712 28.07,-42.19393c4.6,-7.85364 9,-15.77713 13.24,-23.28155c12.48,5.69622 20.47,15.00884 30.42,22.81592c-21.69,22.62966 -43.79,45.36022 -66.58,67.6717c-7,6.79821 -7.18,6.68957 -15.7,1.00111c-13.21,-8.83147 -25.56,-18.44674 -40.28,-26.02101z" fill="#fbc932"/><path d="M365.2791,171.32511c0,18.0432 -0.06,35.03873 0.06,52.03426c0,2.32815 -1.16,2.73946 -3.81,2.73171c-16.62,-0.07761 -33.23,0 -50.87,0c20.02,-17.25938 36.86,-35.60525 54.62,-54.76596z" fill="#e45945"/><path d="M314.51911,161.89607c-4.93825,8.76308 -10.54141,17.29132 -16.78,25.53986c-6.82,-8.21839 -11.22,-16.98776 -17.34,-25.53986z" fill="#e45945"/><path d="M289.78909,226.05226c-2.06,0 -3,0 -4,0c-10,0.06208 -10,0.06984 -8.72,-8.33479z" fill="#e45945"/><path d="M345.58911,126.96598c12.48,5.69622 20.47,15.00884 30.42,22.81592c-1.49806,1.56297 -2.99808,3.1264 -4.50015,4.69017c-10.29769,-4.74923 -23.02049,-8.91282 -35.67682,-10.24224c3.3521,-5.85241 6.59892,-11.67437 9.75697,-17.26384z" fill="#fada7a"/><path d="M309.42911,217.4536c-7,6.79821 -7.18,6.68957 -15.7,1.00111c-7.69483,-5.14433 -15.09786,-10.55461 -22.84748,-15.67254c0.80475,0.09846 1.61345,0.18586 2.42625,0.26155c8.15541,0.75954 18.53678,1.65546 26.591,0.30502c12.05715,-2.02161 22.96441,-5.74105 33.70015,-9.94035c-7.97711,8.05274 -16.0295,16.0757 -24.16992,24.04521z" fill="#d2a82a"/><path d="M276.82911,171.41822c2.86523,5.88056 6.32209,11.57459 10.33724,17.0297c-7.71933,-0.0423 -15.58083,-0.97271 -22.68568,-2.85486c-0.91157,-0.24148 -1.82273,-0.48508 -2.73028,-0.73635c4.74908,-4.55873 9.43005,-9.18873 15.07871,-13.4385z" fill="#fada7a"/><path d="M365.33909,223.3227c0,2.32815 -1.16,2.73946 -3.81,2.73171c-16.62,-0.07761 -33.23,0 -50.87,0c4.23084,-3.64744 8.31966,-7.3434 12.30515,-11.08531c2.70479,0.48992 5.42982,0.69325 7.94201,0.60112c11.81865,-0.43346 23.73869,-3.01222 34.36726,-7.42413c0.01017,5.07719 0.02993,10.1269 0.06558,15.17661z" fill="#b94938"/><path d="M314.5191,161.89607c-0.07045,0.12503 -0.14104,0.25 -0.21176,0.37492c-9.83351,1.45022 -19.45526,4.43195 -28.31844,8.04654c-1.77596,-2.81249 -3.59116,-5.62857 -5.5898,-8.42147z" fill="#ff735e"/><path d="M289.78909,226.05225c-2.06,0 -3,0 -4,0c-10,0.06208 -10,0.06984 -8.72,-8.33479z" fill="#b94938"/></g></g></svg>