<svg version="1.1" xmlns="http://www.w3.org/2000/svg" xmlns:xlink="http://www.w3.org/1999/xlink" width="137.90729" height="76.53357" viewBox="0,0,137.90729,76.53357"><g transform="translate(-248.59852,-155.61071)"><g stroke="none" stroke-miterlimit="10"><path d="M321.68908,232.14428c-15.49,0 -31,0 -46.48,0c-6.44,0 -6.36,-0.06821 -6.25,-3.3632c0.11,-3.295 -0.06,-6.46932 0.06,-9.70135c-0.01989,-1.03843 -0.78385,-2.0349 -2.14,-2.7913c-5.54,-3.67277 -11.52,-7.19862 -16.82,-11.0183c-2.25,-1.61602 -1.67,-2.6234 0.18,-3.89838c4.43,-3.05889 8.38,-6.36438 13.45,-9.09272c4.85,-2.6234 5.81,-5.44094 5.2,-8.79365c-0.82,-4.50701 -0.62,-3.60456 6.45,-3.6098c13.15333,0 26.30667,0.06296 39.46,0.18889c2.87,0 4.43,-0.39351 5.66,-1.84163c4.41,-5.15761 9.43,-10.17356 12.87,-15.55679c0.64587,-0.98891 1.41417,-1.95463 2.3,-2.89099c4.7,-5.11564 11.06,-5.46193 18.43,-1.34843c8.55,4.76935 17.58,9.30259 26.41,13.93552c0.46,0.24135 1,0.63486 1.52,0.62962c7.67,-0.09969 3.56,1.94657 2.14,3.35271c-1.15805,1.2681 -2.64554,2.44584 -4.42,3.49962c-6.34,3.45765 -6.63,7.61837 -6.45,12.09914c0.47,11.54298 0.29,23.08596 0.36,34.62894c0,5.43569 0,5.43569 -10.48,5.43569h-41.45zM253.4491,205.29635c14.72,5.12089 27.07,11.62168 40.28,17.57156c8.52,3.84591 8.75,3.91937 15.7,-0.67684c22.79,-15.08982 44.89,-30.43149 66.58,-45.77841c-10,-5.27829 -17.94,-11.57446 -30.42,-15.42562c-4.27,5.0999 -8.64,10.45689 -13.24,15.76666c-8.45,9.75382 -16.7,19.57584 -28.07,28.5269c-6.16,4.8428 -8.34,4.72213 -14.17,-0.11018c-5.28697,-4.45697 -9.7346,-9.17335 -13.28,-14.08243c-8.84,4.49652 -15.31,9.62265 -23.38,14.20836zM365.27909,191.02504c-17.76,12.95437 -34.6,25.35783 -54.62,37.0005c17.64,0 34.25,-0.02623 50.87,0c2.65,0 3.83,-0.26759 3.81,-1.84688c-0.12,-11.46428 -0.06,-22.95479 -0.06,-35.15362zM314.5191,184.65016h-34.12c6.16,5.77149 10.52,11.71088 17.37,17.26725c6.22836,-5.57714 11.82149,-11.34299 16.75,-17.26725zM289.78909,228.02553l-12.67,-5.63507c-1.25,5.68229 -1.25,5.67705 8.72,5.63507c0.94,-0.00525 1.89,0 3.95,0z" fill="#060503"/><path d="M253.4491,205.29635c8.07,-4.58571 14.54,-9.71184 23.38,-14.20836c3.54303,4.91631 7.99071,9.63977 13.28,14.10342c5.83,4.8428 8,4.95299 14.17,0.11018c11.37,-8.95106 19.62,-18.77308 28.07,-28.5269c4.6,-5.30977 9,-10.66676 13.24,-15.74043c12.48,3.85116 20.47,10.14733 30.42,15.42562c-21.69,15.29969 -43.79,30.6676 -66.58,45.75217c-7,4.5962 -7.18,4.52275 -15.7,0.67684c-13.21,-5.97087 -25.56,-12.47166 -40.28,-17.59255z" fill="#fbc932"/><path d="M365.27909,191.02504c0,12.19883 -0.06,23.68934 0.06,35.17985c0,1.57404 -1.16,1.85212 -3.81,1.84688c-16.62,-0.05247 -33.23,0 -50.87,0c20.02,-11.6689 36.86,-24.07236 54.62,-37.02673z" fill="#e45945"/><path d="M314.5191,184.65016c-4.93825,5.92463 -10.54141,11.69049 -16.78,17.26725c-6.82,-5.55637 -11.22,-11.48526 -17.34,-17.26725z" fill="#e45945"/><path d="M289.78909,228.02553c-2.06,0 -3,0 -4,0c-10,0.04197 -10,0.04722 -8.72,-5.63507z" fill="#e45945"/><path d="M345.5891,161.03427c12.48,3.85116 20.47,10.14733 30.42,15.42562c-1.49806,1.05671 -2.99808,2.11373 -4.50015,3.17098c-10.29769,-3.21091 -23.02049,-6.02587 -35.67682,-6.92468c3.3521,-3.95676 6.59892,-7.89293 9.75697,-11.67191z" fill="#fada7a"/><path d="M309.4291,222.21206c-7,4.5962 -7.18,4.52275 -15.7,0.67684c-7.69483,-3.47803 -15.09786,-7.13587 -22.84748,-10.59605c0.80475,0.06657 1.61345,0.12566 2.42625,0.17683c8.15541,0.51352 18.53678,1.11924 26.591,0.20622c12.05715,-1.36679 22.96441,-3.88147 33.70015,-6.72057c-7.97711,5.44438 -16.0295,10.86862 -24.16992,16.25673z" fill="#d2a82a"/><path d="M276.8291,191.08799c2.86523,3.97579 6.32209,7.82547 10.33724,11.51361c-7.71933,-0.0286 -15.58083,-0.65764 -22.68568,-1.93014c-0.91157,-0.16326 -1.82273,-0.32796 -2.73028,-0.49784c4.74908,-3.08211 9.43005,-6.21241 15.07871,-9.08564z" fill="#fada7a"/><path d="M365.33908,226.1801c0,1.57404 -1.16,1.85212 -3.81,1.84688c-16.62,-0.05247 -33.23,0 -50.87,0c4.23084,-2.466 8.31966,-4.9648 12.30515,-7.49467c2.70479,0.33123 5.42982,0.4687 7.94201,0.40641c11.81865,-0.29306 23.73869,-2.03653 34.36726,-5.01938c0.01017,3.43264 0.02993,6.8467 0.06558,10.26076z" fill="#b94938"/><path d="M314.51909,184.65016c-0.07045,0.08453 -0.14104,0.16902 -0.21176,0.25348c-9.83351,0.98048 -19.45526,2.9964 -28.31844,5.44019c-1.77596,-1.9015 -3.59116,-3.80542 -5.5898,-5.69367z" fill="#ff735e"/><path d="M289.78909,228.02552c-2.06,0 -3,0 -4,0c-10,0.04197 -10,0.04722 -8.72,-5.63507z" fill="#b94938"/></g></g></svg>