<svg version="1.1" xmlns="http://www.w3.org/2000/svg" xmlns:xlink="http://www.w3.org/1999/xlink" width="403.26801" height="150.6331" viewBox="0,0,403.26801,150.6331"><defs><linearGradient x1="193.33439" y1="155.86359" x2="193.33439" y2="199.27572" gradientUnits="userSpaceOnUse" id="color-1"><stop offset="0" stop-color="#00fff7" stop-opacity="0.74902"/><stop offset="1" stop-color="#0066cc" stop-opacity="0.74902"/></linearGradient></defs><g transform="translate(-115.01956,-102.15982)"><g stroke-miterlimit="10"><text transform="translate(279.6319,157.59524) scale(1.11848,1.10868)" font-size="40" xml:space="preserve" fill="#000000" stroke="#000000" stroke-width="12" font-family="&quot;FridayNightFunkin-Regular&quot;, Sans Serif" font-weight="normal" text-anchor="start"><tspan x="0" dy="0">FINISH A</tspan><tspan x="0" dy="46.150000000000006px">SONG</tspan></text><text transform="translate(279.6319,157.08246) scale(1.11848,1.10868)" font-size="40" xml:space="preserve" fill="#ffffff" stroke="#ffffff" stroke-width="0" font-family="&quot;FridayNightFunkin-Regular&quot;, Sans Serif" font-weight="normal" text-anchor="start"><tspan x="0" dy="0">FINISH A</tspan><tspan x="0" dy="48px">SONG</tspan></text><path d="M262.77482,180.01114c0,-0.81426 0.74827,-13.52638 0.87266,-27.07841c0.02328,-2.53538 3.19112,-39.19627 -1.2095,-41.83588c-0.50147,-0.30079 -26.51623,0.79803 -55.77232,1.22657c-18.26552,0.26753 -40.97089,-0.62892 -54.89373,-0.55436c-5.78626,0.03099 -29.18778,-0.87697 -29.75734,-0.89737c-1.43458,-0.05138 -0.13096,77.91843 1.52014,116.55115c0.76894,17.99158 1.21863,11.26673 2.21721,13.48115c1.20219,2.66595 15.31282,2.31116 30.9917,3.05374c7.60823,0.36034 33.83864,2.26434 54.45692,2.08521c11.45054,-0.09947 21.51862,-2.07357 24.8729,-2.36987c10.37783,-0.91674 21.55132,-2.10701 24.06461,-2.41682c3.9747,-0.48994 6.36827,-0.78447 6.36827,-0.78447c0,0 1.02004,-3.05059 0.88807,-6.51198c-0.17881,-4.68968 -4.61955,-53.72751 -4.61955,-53.94862zM184.65432,250.29298c-2.00154,0.25332 -20.37526,-1.1242 -33.20628,-1.55157c-11.80814,-0.39333 -19.17885,0.68633 -27.50606,-0.33455c-5.24051,-0.64245 -6.08069,-4.7976 -6.14004,-4.81303c-0.31245,-0.08112 -2.81543,-12.1537 -3.19009,-29.39291c-0.31323,-14.4125 0.53144,-33.18125 0.70072,-50.28321c0.30526,-30.83999 0.35948,-58.22946 1.27087,-58.85628c1.56394,-1.07565 6.60786,-0.37055 6.839,-0.35656c11.7619,0.71201 43.87959,2.32166 43.93481,2.32115c45.25394,-0.4452 96.01043,-2.51686 96.01043,-2.3662c0,0.01017 4.45227,-0.39398 5.66489,5.87717c1.76079,9.10614 0.58516,25.44673 0.11901,34.49942c-0.59012,11.46024 -1.90965,25.2499 -1.72428,31.03088c0.63382,19.76817 2.89529,29.61643 3.55391,39.55256c0.37858,5.71175 0.77103,12.21921 0.81351,16.51417c0.06426,6.50426 -1.5426,10.77182 -2.43939,11.26273c-2.61261,1.43016 -18.18616,5.05922 -35.73343,6.33064c-21.34742,1.54675 -45.33959,0.59933 -48.96751,0.56564z" fill-opacity="0.50196" fill="#ffffff" stroke-opacity="0.67451" stroke="#00ffe1" stroke-width="5"/><path d="M267.65199,233.40401c0.13198,3.46137 -0.89101,6.51559 -0.89101,6.51559c0,0 -2.39631,0.29753 -6.37098,0.78749c-2.51329,0.30981 -13.70109,1.51184 -24.07891,2.42858c-3.35428,0.2963 -13.44541,2.28033 -24.89592,2.37978c-20.61828,0.17914 -46.90599,-1.73291 -54.51422,-2.09325c-15.67886,-0.74256 -29.8082,-0.40278 -31.01039,-3.06874c-0.99858,-2.21442 -1.4547,4.50233 -2.22362,-13.48925c-1.65111,-38.63274 -2.94761,-116.69945 -1.51304,-116.64804c0.56956,0.02042 23.98598,0.91594 29.77224,0.88498c13.92284,-0.07456 36.68406,0.81102 54.9496,0.54346c29.25611,-0.42854 55.31182,-1.50571 55.81329,-1.20492c4.40062,2.63961 1.25036,39.32821 1.2271,41.86359c-0.12436,13.55205 -0.86786,26.29273 -0.86786,27.10699c0,0.2211 4.42496,49.30408 4.60379,53.99373z" fill="#ffffff" stroke="none" stroke-width="0.5"/><path d="M195.44628,176.46327c0,0.1728 4.76368,-0.30926 4.37986,3.24277c-1.2475,11.54523 -9.12155,39.66085 -11.07661,52.87827c-0.08391,0.56738 -2.36703,12.03942 -2.67817,12.03942c-0.24846,0 -11.5344,-0.22262 -20.9982,-0.79526c-5.59977,-0.33884 -12.99033,-0.3669 -12.57572,-1.17596c4.75669,-9.28165 42.94884,-67.17319 42.94884,-66.18922z" fill="#fff587" stroke="none" stroke-width="0.5"/><path d="M184.86926,173.85656c0,-0.27383 44.37534,7.71846 51.33593,8.96975c3.88766,0.69887 30.74846,3.28265 31.2687,4.48253c0.08266,0.19063 0.82152,11.44602 1.3106,18.92978c0.87435,13.37886 2.04474,26.86253 2.04474,27.45282c0,0.48245 -14.42253,-9.78208 -23.58253,-17.08089c-11.14988,-8.88433 -25.27081,-16.76015 -25.4269,-16.92071c-0.07135,-0.07342 -36.95054,-25.76539 -36.95054,-25.83326z" fill="#fff587" stroke="none" stroke-width="0.5"/><path d="M122.05023,127.45665c-0.68166,0 36.18043,27.758 62.97871,45.68842c15.25628,10.20781 26.95888,15.17233 27.34697,15.17233c1.06973,0 -89.91074,-16.82486 -89.91074,-17.89459c0,-0.908 -0.25321,-42.96613 -0.41494,-42.96613z" fill="#fff8a7" stroke="none" stroke-width="0.5"/><path d="M264.76029,117.96702c-0.08037,2.93635 0.01735,9.02545 -0.23377,16.68609c-0.50116,15.28808 -1.47142,34.93033 -1.57767,34.93033c-0.78078,0 -71.16216,15.40068 -72.23338,14.83831c-2.65748,-1.39513 74.07132,-67.42198 74.04483,-66.45473z" fill="#fff79a" stroke="none" stroke-width="0.5"/><path d="M202.90455,112.38512c0,-0.59152 11.3824,-0.46675 21.5037,-0.82568c8.18219,-0.29016 15.58056,-0.63932 15.58056,-0.16111c0,0.57244 -45.03732,67.91949 -46.31819,68.42657c-0.84253,0.33358 -2.68537,3.08696 -3.40803,-1.53249c-0.73399,-4.69204 -0.34106,-16.76613 -0.31736,-17.48254c0.41177,-12.45514 12.95932,-47.62577 12.95932,-48.42473z" fill="#fff8a7" stroke="none" stroke-width="0.5"/><path d="M130.64258,111.96659c0,-0.1766 1.38683,-0.65448 3.50138,-0.72664c10.69407,-0.36491 43.2187,0.49876 44.11183,0.49876c0.59396,0 19.54423,73.24219 19.06849,73.24219c-0.97761,0 -66.68167,-72.92217 -66.68167,-73.01429z" fill="#fffbcb" stroke="none" stroke-width="0.5"/><path d="M122.77683,191.86825c0,-0.21214 -1.52567,-2.8128 3.16027,-3.62853c18.9443,-3.29774 74.07652,-11.24389 74.07652,-10.38628c0,1.06973 -74.08895,60.34663 -75.15869,60.34663c-1.06973,0 -2.0781,-45.26208 -2.0781,-46.33181z" fill="#fff79a" stroke="none" stroke-width="0.5"/><path d="M193.57574,176.44315c1.06973,0 55.77829,63.8137 55.77829,64.88342c0,0.41263 -18.26259,3.26601 -30.7829,4.14602c-6.03135,0.42392 -10.91969,-0.74022 -11.43269,-0.71366c-0.87296,0.04518 -14.63245,-68.31579 -13.5627,-68.31579z" fill="#fff47d" stroke="none" stroke-width="0.5"/><path d="M199.1201,175.352c0.02902,0.0017 0.05799,0.00332 0.08691,0.00486l0.03108,0.12014c-0.03932,-0.04179 -0.07863,-0.0835 -0.11796,-0.12503z" fill="#000000" stroke="none" stroke-width="1"/><path d="M202.37663,175.08529l0.05284,0.21965c-0.32275,-0.00081 -0.44661,-0.06195 -0.05284,-0.21965z" fill="#85181a" stroke="none" stroke-width="0.5"/><g><path d="M220.32303,104.26433v60.25506h-60.25505v-60.25506z" fill="none" stroke="none" stroke-width="0"/><path d="M212.28959,143.24724c-2.50876,3.26066 -6.45295,6.2747 -7.16278,6.82817c-6.87027,5.35691 -15.3734,9.68081 -16.32133,9.7127c-0.26428,0.00889 -1.85412,0.35083 -3.02566,-0.96947c-2.64742,-2.98358 -6.68482,-9.44384 -7.066,-10.53016c-0.02115,-0.06024 1.0769,-1.51126 2.39681,-2.53605c1.33841,-1.03916 2.89914,-1.65221 2.90589,-1.70104c0.05515,-0.39821 -9.24769,-0.05769 -14.34,-0.76086c-2.44252,-0.33725 -4.27463,-4.03586 -4.47364,-5.24945c-0.42368,-2.58361 -0.16426,-7.86544 0.29179,-10.05287c0.06032,-0.28928 1.54935,-2.33899 4.03374,-2.62924c2.48402,-0.29018 14.46507,0.45329 14.9913,0.32504c0.1401,-0.03415 -3.40556,-2.24395 -5.47865,-4.2916c-1.29709,-1.28117 -1.49319,-2.72156 -1.47089,-2.83725c0.52706,-2.73477 10.47937,-9.88518 11.85205,-9.76575c1.05982,0.09221 11.13181,8.09586 17.88747,14.16204c3.53262,3.17209 5.96537,6.17483 6.14292,6.46594c0.7257,1.18989 1.10565,2.38986 1.17332,2.60016c0.56085,1.74287 0.56683,3.98416 0.33426,5.13041c-0.45235,2.22941 -1.67316,4.80293 -2.6706,6.09931zM188.83659,111.51488c-0.49916,0 -8.4175,6.59679 -8.50538,7.06113c-0.09685,0.51166 4.26352,2.90229 7.58571,6.61396c0.45504,0.50838 2.08314,2.33039 1.41268,3.16678c-0.7543,0.94099 -12.48364,0.10085 -17.04286,0.13213c-2.15249,0.01477 -3.75981,0.22839 -3.95248,0.52658c-1.01845,1.57633 -0.84676,4.92265 -0.68219,7.01787c0.20773,2.64467 1.2972,5.03131 2.29288,5.33503c2.48325,0.75747 19.06723,0.31199 19.21734,0.3941c0.50173,0.27453 0.20838,1.40864 -0.1006,1.70434c-0.7764,0.74304 -3.17244,2.39369 -4.99355,3.4773c-1.83031,1.08908 -2.70101,1.95456 -2.69628,2.2886c0.02097,1.48024 5.96073,8.2392 6.47793,8.2392c0.38752,0 6.89848,-3.65503 13.2514,-8.22893c3.42548,-2.46624 7.02633,-4.94938 9.14517,-7.70142c1.51911,-1.97309 2.12166,-4.80779 2.08566,-6.06136c-0.02401,-0.83664 -0.38167,-3.18835 -1.41775,-4.9531c-2.08768,-3.55593 -20.86356,-19.01221 -22.07768,-19.01221z" fill="#930000" stroke-opacity="0.50196" stroke="#ffffff" stroke-width="2.5"/><path d="M212.28959,143.24724c-2.50876,3.26066 -6.45295,6.2747 -7.16278,6.82817c-6.87027,5.35691 -15.3734,9.68081 -16.32133,9.7127c-0.26428,0.00889 -1.85412,0.35083 -3.02566,-0.96947c-2.64742,-2.98358 -6.68482,-9.44384 -7.066,-10.53016c-0.02115,-0.06024 1.0769,-1.51126 2.39681,-2.53605c1.33841,-1.03916 2.89914,-1.65221 2.90589,-1.70104c0.05515,-0.39821 -9.24769,-0.05769 -14.34,-0.76086c-2.44252,-0.33725 -4.27463,-4.03586 -4.47364,-5.24945c-0.42368,-2.58361 -0.16426,-7.86544 0.29179,-10.05287c0.06032,-0.28928 1.54935,-2.33899 4.03374,-2.62924c2.48402,-0.29018 14.46507,0.45329 14.9913,0.32504c0.1401,-0.03415 -3.40556,-2.24395 -5.47865,-4.2916c-1.29709,-1.28117 -1.49319,-2.72156 -1.47089,-2.83725c0.52706,-2.73477 10.47937,-9.88518 11.85205,-9.76575c1.05982,0.09221 11.13181,8.09586 17.88747,14.16204c3.53262,3.17209 5.96537,6.17483 6.14292,6.46594c0.7257,1.18989 1.10565,2.38986 1.17332,2.60016c0.56085,1.74287 0.56683,3.98416 0.33426,5.13041c-0.45235,2.22941 -1.67316,4.80293 -2.6706,6.09931zM188.97477,111.51488c-0.49916,0 -8.41751,6.59679 -8.50538,7.06113c-0.09685,0.51166 4.26352,2.90229 7.58571,6.61396c0.45504,0.50838 2.08314,2.33039 1.41268,3.16678c-0.7543,0.94099 -12.48364,0.10085 -17.04287,0.13213c-2.15249,0.01477 -3.7598,0.22839 -3.95247,0.52658c-1.01845,1.57633 -0.84676,4.92265 -0.68219,7.01787c0.20773,2.64467 1.2972,5.03131 2.29287,5.33503c2.48325,0.75747 19.06723,0.31199 19.21734,0.3941c0.50173,0.27453 0.20838,1.40864 -0.10059,1.70434c-0.7764,0.74304 -3.17244,2.39369 -4.99355,3.4773c-1.83031,1.08908 -2.701,1.95456 -2.69627,2.2886c0.02097,1.48024 5.96072,8.2392 6.47793,8.2392c0.38752,0 6.89849,-3.65503 13.2514,-8.22893c3.42548,-2.46624 7.02632,-4.94938 9.14516,-7.70142c1.51911,-1.97309 2.12166,-4.80779 2.08566,-6.06136c-0.02401,-0.83664 -0.38167,-3.18835 -1.41775,-4.9531c-2.08768,-3.55593 -20.86356,-19.01221 -22.07767,-19.01221z" fill="#000000" stroke="none" stroke-width="0"/><path d="M183.30638,148.84809c0.14874,-0.18578 4.05712,-2.52091 6.74552,-4.74254c1.71096,-1.41389 2.69407,-2.98798 2.64998,-3.2001c-0.09595,-0.46152 -15.32871,-0.07341 -20.21984,-0.81551c-0.33739,-0.05119 -1.43337,-0.82409 -1.75943,-2.04166c-0.7718,-2.88195 -0.64278,-7.81589 0.18004,-8.1198c1.04152,-0.3847 10.64484,0.17407 16.73134,0.00017c2.90226,-0.08292 5.05442,-0.50219 5.08431,-0.91306c0.14078,-0.57018 -2.27137,-3.32746 -4.81321,-5.65092c-2.41373,-2.20636 -4.95642,-4.01156 -5.13131,-4.623c-0.16351,-0.57352 5.9026,-5.26344 6.99062,-5.11659c0.71417,0.1204 12.03835,8.95469 17.94743,15.81348c3.2283,3.74715 3.0917,6.56464 2.79729,7.86128c-0.13893,0.61188 -1.66724,3.93431 -4.69043,6.63387c-6.14688,5.48886 -16.18293,11.45659 -16.88543,11.70753c-1.0639,-0.31637 -5.9862,-6.33337 -5.64161,-6.76378z" fill="#f23030" stroke="none" stroke-width="0"/><path d="M188.94064,111.48889c1.21411,0 20.00695,15.46964 22.09463,19.02559c1.03608,1.76477 1.394,4.12025 1.41801,4.95689c0.03598,1.25358 -0.56744,4.09294 -2.08656,6.06603c-2.11886,2.75205 -5.7253,5.24291 -9.15078,7.70915c-6.35291,4.5739 -12.87527,8.23221 -13.26279,8.23221c-0.22442,0 -1.47111,-1.27301 -2.81234,-2.83517c0.30709,-0.1902 15.16735,-9.08605 15.24332,-19.63003c0.068,-9.43673 -14.6132,-20.63352 -14.91507,-20.94047c1.71629,-1.4002 3.26016,-2.58415 3.4716,-2.58415z" fill-opacity="0.25098" fill="#ffffff" stroke="none" stroke-width="0"/><path d="M169.95188,141.30371c-0.99568,-0.30372 -2.086,-2.69454 -2.29373,-5.33923c-0.16457,-2.09525 -0.3358,-5.44673 0.68265,-7.02307c0.19267,-0.29819 1.80036,-0.51307 3.95285,-0.52783c1.6848,-0.01155 4.35064,0.09438 7.08048,0.18507c-0.00862,0.54907 -0.66694,4.85366 0.05345,8.20237c0.52306,2.43141 2.43151,4.14842 2.64975,4.57863c0.06278,0.12376 0.12452,0.24864 0.18582,0.37414c-4.92102,0.02599 -10.89895,-0.01928 -12.31128,-0.45009z" fill-opacity="0.18039" fill="#000000" stroke="none" stroke-width="0"/><path d="M188.97992,111.48889c1.21411,0 20.00692,15.46964 22.0946,19.02559c1.03608,1.76477 1.394,4.12025 1.41801,4.95689c0.03598,1.25358 -0.56744,4.09294 -2.08655,6.06603c-2.11886,2.75205 -5.7253,5.24291 -9.15078,7.70915c-6.35291,4.5739 -12.87528,8.23221 -13.2628,8.23221c-0.51722,0 -6.46373,-6.76112 -6.48471,-8.24137c-0.00473,-0.33404 0.88122,-1.22861 2.7115,-2.31769c1.82111,-1.08362 4.21174,-2.73576 4.98814,-3.4788c0.309,-0.2957 0.59903,-1.39708 0.0973,-1.67159c-0.15008,-0.08211 -16.74789,0.35235 -19.23114,-0.40512c-0.99568,-0.30372 -2.086,-2.69454 -2.29373,-5.33923c-0.16457,-2.09525 -0.3358,-5.44673 0.68265,-7.02307c0.19267,-0.29819 1.80035,-0.51307 3.95284,-0.52783c4.55922,-0.03125 16.30254,0.79779 17.05684,-0.1432c0.67046,-0.83639 -0.95256,-2.62595 -1.4076,-3.13434c-3.32217,-3.71167 -7.69452,-6.13242 -7.59769,-6.6441c0.08787,-0.46434 8.01392,-7.0635 8.51308,-7.0635zM183.23825,148.90168c-0.34458,0.43041 4.57153,6.4457 5.63542,6.76209c0.7025,-0.25095 10.72329,-6.21075 16.87017,-11.69963c3.02319,-2.69956 4.54928,-6.01565 4.68821,-6.62753c0.29441,-1.29665 0.43156,-4.10725 -2.79674,-7.8544c-5.90908,-6.85878 -17.21701,-15.68137 -17.93117,-15.80177c-1.08802,-0.14685 -7.14754,4.54144 -6.98403,5.11496c0.17489,0.61146 2.70685,2.38578 5.12058,4.59215c2.54183,2.32346 4.9638,5.08156 4.82302,5.65174c-0.02989,0.41084 -2.17985,0.85948 -5.08211,0.94242c-6.0865,0.1739 -15.68223,-0.39516 -16.72375,-0.01046c-0.82281,0.30391 -0.95162,5.2312 -0.17982,8.11315c0.32608,1.21757 1.42159,1.98847 1.75896,2.03966c4.89115,0.7421 20.10257,0.34331 20.19852,0.80483c0.0441,0.2121 -0.93409,1.81809 -2.64505,3.23199c-2.6884,2.22163 -6.60348,4.55502 -6.75222,4.74083z" fill="#ffffff" stroke="none" stroke-width="0"/><path d="M235.62898,196.41046c-4.08685,-0.47279 -8.70102,-2.30324 -9.54089,-2.62698c-8.12888,-3.13342 -16.2125,-8.19847 -16.7277,-8.99481c-0.14364,-0.22203 -1.25507,-1.40914 -0.72603,-3.09312c1.19552,-3.80543 4.65651,-10.59196 5.39172,-11.47789c0.04078,-0.04912 1.84999,0.14551 3.40796,0.74975c1.5798,0.61272 2.90869,1.6353 2.95405,1.61598c0.36981,-0.15768 -4.71006,-7.95853 -6.72807,-12.68653c-0.96793,-2.26776 1.26027,-5.74215 2.19835,-6.5374c1.9971,-1.69296 6.65916,-4.18895 8.76937,-4.92376c0.27907,-0.09716 2.80286,0.12455 4.33035,2.10526c1.52728,1.98041 7.05614,12.63545 7.43695,13.02061c0.10138,0.10255 0.17119,-4.0748 0.85985,-6.90609c0.43087,-1.77149 1.56493,-2.68097 1.67558,-2.72139c2.61602,-0.95562 13.86888,3.89721 14.47297,5.1356c0.46642,0.95613 -1.21203,13.71097 -2.93614,22.62528c-0.90156,4.66144 -2.22399,8.29264 -2.38219,8.5947c-0.64669,1.2346 -1.47998,2.17798 -1.62545,2.34422c-1.20567,1.37785 -3.12425,2.53655 -4.22672,2.92709c-2.14428,0.75959 -4.97908,1.0374 -6.60394,0.84942zM250.49082,160.40684c-0.25691,-0.42797 -9.98825,-3.82184 -10.43161,-3.6582c-0.48853,0.1803 -0.29406,5.1492 -1.76654,9.90789c-0.2017,0.6518 -0.92589,2.98545 -1.98809,2.84108c-1.19502,-0.16243 -6.5115,-10.65138 -8.8848,-14.5443c-1.12048,-1.83793 -2.1309,-3.10607 -2.48571,-3.11777c-1.87571,-0.06193 -4.65641,1.80755 -6.36814,3.02702c-2.16061,1.53924 -3.64614,3.70168 -3.39409,4.71167c0.62862,2.51895 9.54591,16.50856 9.55275,16.67951c0.02286,0.57147 -1.10049,0.90364 -1.51304,0.79092c-1.03665,-0.28327 -3.68509,-1.48805 -5.55145,-2.49174c-1.87578,-1.00875 -3.06595,-1.30983 -3.34991,-1.13386c-1.25835,0.77983 -3.99635,9.35115 -3.73016,9.79461c0.19945,0.33226 6.68422,4.0335 13.87551,7.12632c3.87754,1.66765 7.85979,3.47695 11.30989,3.87723c2.47355,0.28697 5.21408,-0.65539 6.27036,-1.33142c0.70495,-0.45119 2.53721,-1.96818 3.51704,-3.76477c1.97434,-3.6201 5.56289,-27.6732 4.93801,-28.71417z" fill="#930000" stroke-opacity="0.50196" stroke="#ffffff" stroke-width="2.5"/><path d="M235.09921,196.72844c-4.08685,-0.47279 -8.70102,-2.30323 -9.54089,-2.62697c-8.12888,-3.13342 -16.21251,-8.19848 -16.72771,-8.99482c-0.14364,-0.22203 -1.25508,-1.40914 -0.72603,-3.09312c1.19552,-3.80543 4.65652,-10.59195 5.39172,-11.47788c0.04078,-0.04912 1.84999,0.14551 3.40796,0.74975c1.5798,0.61272 2.90869,1.6353 2.95404,1.61598c0.36981,-0.15768 -4.71006,-7.95853 -6.72806,-12.68652c-0.96793,-2.26776 1.26027,-5.74215 2.19835,-6.5374c1.9971,-1.69296 6.65916,-4.18896 8.76937,-4.92377c0.27907,-0.09716 2.80286,0.12456 4.33035,2.10527c1.52728,1.98041 7.05614,12.63545 7.43695,13.02061c0.10138,0.10255 0.17119,-4.07481 0.85985,-6.9061c0.43087,-1.77149 1.56493,-2.68096 1.67558,-2.72138c2.61602,-0.95562 13.86888,3.89721 14.47297,5.1356c0.46642,0.95613 -1.21202,13.71097 -2.93613,22.62528c-0.90156,4.66144 -2.22399,8.29264 -2.3822,8.59471c-0.64669,1.2346 -1.47998,2.17797 -1.62544,2.34421c-1.20567,1.37785 -3.12425,2.53655 -4.22673,2.92709c-2.14428,0.75959 -4.97909,1.0374 -6.60394,0.84942zM250.30653,160.40684c-0.25691,-0.42797 -9.98825,-3.82184 -10.43162,-3.6582c-0.48853,0.1803 -0.29405,5.1492 -1.76653,9.90789c-0.2017,0.6518 -0.92589,2.98545 -1.9881,2.84108c-1.19502,-0.16243 -6.51149,-10.65138 -8.8848,-14.5443c-1.12048,-1.83793 -2.1309,-3.10607 -2.48571,-3.11777c-1.87571,-0.06193 -4.65641,1.80755 -6.36814,3.02702c-2.16061,1.53924 -3.64614,3.70168 -3.39409,4.71167c0.62862,2.51895 9.54591,16.50856 9.55275,16.67951c0.02286,0.57147 -1.10049,0.90364 -1.51304,0.79092c-1.03665,-0.28327 -3.68509,-1.48805 -5.55145,-2.49174c-1.87578,-1.00875 -3.06595,-1.30983 -3.34991,-1.13386c-1.25835,0.77983 -3.99636,9.35115 -3.73016,9.79461c0.19945,0.33226 6.68423,4.0335 13.87551,7.12632c3.87754,1.66765 7.85979,3.47695 11.30989,3.87723c2.47355,0.28697 5.21408,-0.65539 6.27036,-1.33142c0.70495,-0.45119 2.53721,-1.96818 3.51704,-3.76477c1.97434,-3.6201 5.56289,-27.6732 4.93801,-28.71417z" fill="#000000" stroke="none" stroke-width="0"/><path d="M215.38018,174.76128c0.23585,0.03191 4.24947,2.18105 7.53791,3.34264c2.09285,0.73925 3.94843,0.77202 4.1076,0.62506c0.34632,-0.31978 -7.82634,-13.1804 -9.70742,-17.75593c-0.12975,-0.31562 -0.03116,-1.65309 0.84493,-2.55931c2.0737,-2.14498 6.37043,-4.57372 7.05447,-4.0247c0.86588,0.695 5.32937,9.21631 8.61103,14.34529c1.5648,2.44568 3.03197,4.07511 3.3996,3.88929c0.56133,-0.17275 1.6839,-3.65998 2.36776,-7.03514c0.64942,-3.20505 0.88853,-6.31423 1.32277,-6.77888c0.40757,-0.43538 7.55072,2.35187 7.98478,3.36029c0.26433,0.67427 -1.48179,14.9303 -4.32118,23.52668c-1.55124,4.69644 -4.03722,6.02944 -5.30048,6.44435c-0.59612,0.1958 -4.2313,0.59542 -8.10184,-0.60724c-7.86971,-2.44527 -18.15163,-7.97858 -18.72837,-8.45175c-0.27632,-1.07501 2.34919,-8.39209 2.89558,-8.31819z" fill="#30f1f2" stroke="none" stroke-width="0"/><path d="M250.31122,160.36418c0.62489,1.04097 -2.96641,25.11548 -4.94076,28.73558c-0.97984,1.79662 -2.8152,3.3158 -3.52015,3.76698c-1.05626,0.67603 -3.80129,1.62001 -6.27483,1.33304c-3.45008,-0.40026 -7.44183,-2.21039 -11.31937,-3.87804c-7.19126,-3.09282 -13.68476,-6.80218 -13.88418,-7.13444c-0.11551,-0.19243 0.33431,-1.91646 0.9834,-3.87043c0.32112,0.16538 15.59647,8.32792 24.67586,2.96635c8.12591,-4.79854 10.16986,-23.14871 10.27767,-23.56549c2.08385,0.75088 3.89354,1.46523 4.00234,1.6465z" fill-opacity="0.25098" fill="#ffffff" stroke="none" stroke-width="0"/><path d="M214.9755,159.42839c-0.25205,-1.01001 1.23666,-3.17532 3.39727,-4.71457c1.71174,-1.21947 4.49712,-3.09121 6.37283,-3.02929c0.35482,0.01171 1.36652,1.27955 2.487,3.11745c0.87704,1.43858 2.15823,3.77877 3.48546,6.16594c-0.4752,0.27519 -4.50473,1.92624 -7.00508,4.26737c-1.81543,1.69983 -2.30534,4.21983 -2.56188,4.62834c-0.07381,0.11751 -0.1491,0.23472 -0.22516,0.35189c-2.55499,-4.20582 -5.59291,-9.35451 -5.95043,-10.78715z" fill-opacity="0.18039" fill="#000000" stroke="none" stroke-width="0"/><path d="M250.33147,160.3979c0.62489,1.04097 -2.96639,25.11548 -4.94075,28.73558c-0.97984,1.79662 -2.8152,3.31579 -3.52015,3.76698c-1.05626,0.67603 -3.80129,1.62001 -6.27483,1.33304c-3.45008,-0.40026 -7.44183,-2.21039 -11.31938,-3.87804c-7.19126,-3.09282 -13.68475,-6.80218 -13.88418,-7.13444c-0.2662,-0.44346 2.47015,-9.02171 3.72853,-9.80152c0.28395,-0.17599 1.50694,0.12322 3.3827,1.13197c1.86635,1.00369 4.51327,2.20306 5.54995,2.48631c0.41256,0.11272 1.50615,-0.20546 1.48328,-0.77691c-0.00684,-0.17095 -8.92182,-14.17806 -9.55044,-16.69703c-0.25205,-1.01001 1.23666,-3.17532 3.39727,-4.71457c1.71174,-1.21947 4.49712,-3.09119 6.37283,-3.02929c0.35482,0.01171 1.36652,1.27952 2.487,3.11745c2.3733,3.89292 7.70646,14.38817 8.90148,14.5506c1.06218,0.14436 1.76121,-2.16823 1.96288,-2.82003c1.47248,-4.75869 1.2977,-9.75339 1.78623,-9.93368c0.44337,-0.16365 10.1807,3.23562 10.43761,3.66361zM215.2992,174.73045c-0.54638,-0.0739 -3.17361,7.237 -2.89731,8.312c0.57671,0.47317 10.84403,5.99748 18.71374,8.44275c3.87054,1.20265 7.49914,0.80437 8.09526,0.60858c1.26326,-0.41492 3.74361,-1.74389 5.29483,-6.44033c2.83939,-8.5964 4.58384,-22.83242 4.3195,-23.50671c-0.43407,-1.00842 -7.57242,-3.79084 -7.97998,-3.35545c-0.43426,0.46465 -0.6524,3.54872 -1.30182,6.75377c-0.68389,3.37515 -1.80212,6.87124 -2.36343,7.04397c-0.36763,0.18582 -1.85883,-1.42661 -3.42365,-3.8723c-3.28166,-5.12898 -7.73243,-13.6491 -8.59831,-14.34408c-0.68404,-0.54903 -4.97493,1.87645 -7.04864,4.02144c-0.87609,0.90622 -0.97325,2.24228 -0.8435,2.5579c1.88108,4.57553 10.05191,17.41236 9.70559,17.73214c-0.15918,0.14699 -2.03955,0.13486 -4.1324,-0.60439c-3.28844,-1.16159 -7.30405,-3.31737 -7.5399,-3.34929z" fill="#ffffff" stroke="none" stroke-width="0"/><path d="M168.79069,250.33996l-5.59997,-59.99427l59.99427,-5.59997l5.59997,59.99428z" fill="none" stroke="none" stroke-width="0"/><path d="M172.84882,210.73821c2.19487,-3.47972 5.84187,-6.84727 6.49719,-7.46433c6.3427,-5.97224 14.40715,-11.06767 15.34801,-11.18752c0.26232,-0.03343 1.81349,-0.52163 3.10268,0.68406c2.91324,2.72463 7.53358,8.7817 8.01406,9.8279c0.02665,0.05801 -0.93179,1.6048 -2.15075,2.74782c-1.23603,1.15905 -2.73303,1.91449 -2.73523,1.96374c-0.01789,0.40162 9.21303,-0.802 14.34866,-0.57515c2.46329,0.1088 4.6312,3.62114 4.94214,4.81096c0.66197,2.53305 0.89454,7.81613 0.64377,10.03648c-0.03316,0.29363 -1.32525,2.47289 -3.77193,2.99278c-2.4463,0.5198 -14.44458,0.89301 -14.95662,1.06962c-0.13633,0.04703 3.59937,1.91774 5.85377,3.76385c1.41053,1.15508 1.73967,2.57101 1.72822,2.68829c-0.27062,2.77192 -9.51532,10.81632 -10.89317,10.82499c-1.06381,0.00669 -11.83602,-7.02626 -19.12621,-12.43833c-3.81215,-2.83006 -6.51343,-5.5937 -6.71726,-5.86707c-0.83313,-1.11729 -1.32296,-2.27676 -1.40989,-2.47986c-0.72037,-1.68321 -0.93465,-3.91423 -0.80961,-5.07716c0.2432,-2.2618 1.21953,-4.93763 2.09216,-6.32111zM198.82758,240.24936c0.497,-0.04639 7.76798,-7.35055 7.81232,-7.82106c0.04888,-0.51846 -4.51479,-2.49348 -8.16755,-5.88031c-0.50033,-0.46391 -2.29069,-2.1267 -1.70086,-3.02178c0.66359,-1.00701 12.42024,-1.26064 16.95682,-1.7155c2.1418,-0.21474 3.7223,-0.57682 3.8864,-0.89163c0.86756,-1.66415 0.38558,-4.98004 0.02701,-7.0509c-0.45262,-2.61393 -1.75916,-4.88898 -2.77876,-5.09884c-2.54289,-0.52341 -19.01371,1.46141 -19.17079,1.39361c-0.52506,-0.22672 -0.3384,-1.38315 -0.05823,-1.7063c0.704,-0.81196 2.93626,-2.67816 4.64879,-3.92635c1.72116,-1.25448 2.50765,-2.19711 2.47189,-2.52927c-0.15845,-1.47188 -6.70066,-7.64958 -7.21564,-7.60152c-0.38584,0.03602 -6.52893,4.28035 -12.42925,9.42487c-3.18147,2.77394 -6.53593,5.58098 -8.38985,8.51803c-1.32917,2.10573 -1.66565,4.98417 -1.5133,6.22897c0.10167,0.83076 0.67634,3.13908 1.87195,4.79991c2.40911,3.34653 22.5402,16.9909 23.74906,16.87807z" fill="#930000" stroke-opacity="0.50196" stroke="#ffffff" stroke-width="2.5"/><path d="M172.84882,210.73821c2.19487,-3.47972 5.84187,-6.84727 6.49719,-7.46433c6.3427,-5.97224 14.40715,-11.06767 15.34801,-11.18752c0.26232,-0.03343 1.81349,-0.52163 3.10268,0.68406c2.91324,2.72463 7.53358,8.7817 8.01406,9.8279c0.02665,0.05801 -0.93179,1.6048 -2.15075,2.74782c-1.23603,1.15905 -2.73303,1.91449 -2.73523,1.96374c-0.01789,0.40162 9.21303,-0.802 14.34866,-0.57515c2.46329,0.1088 4.6312,3.62114 4.94214,4.81096c0.66197,2.53305 0.89454,7.81613 0.64377,10.03648c-0.03316,0.29363 -1.32525,2.47289 -3.77193,2.99278c-2.4463,0.5198 -14.44458,0.89301 -14.95662,1.06962c-0.13633,0.04703 3.59937,1.91774 5.85377,3.76385c1.41053,1.15508 1.73967,2.57101 1.72822,2.68829c-0.27062,2.77192 -9.51532,10.81632 -10.89317,10.82499c-1.06381,0.00669 -11.83602,-7.02626 -19.12621,-12.43833c-3.81215,-2.83006 -6.51343,-5.5937 -6.71726,-5.86707c-0.83313,-1.11729 -1.32296,-2.27676 -1.40989,-2.47986c-0.72037,-1.68321 -0.93465,-3.91423 -0.80961,-5.07716c0.2432,-2.2618 1.21953,-4.93763 2.09216,-6.32111zM199.01185,240.1664c0.497,-0.04639 7.76798,-7.35055 7.81232,-7.82106c0.04888,-0.51846 -4.51479,-2.49348 -8.16755,-5.88031c-0.50033,-0.46391 -2.29069,-2.1267 -1.70086,-3.02178c0.66359,-1.00701 12.42024,-1.26064 16.95682,-1.7155c2.1418,-0.21474 3.72231,-0.57682 3.88641,-0.89163c0.86756,-1.66415 0.38558,-4.98004 0.027,-7.0509c-0.45262,-2.61393 -1.75916,-4.88897 -2.77876,-5.09883c-2.54289,-0.52341 -19.01371,1.46141 -19.17079,1.3936c-0.52506,-0.22672 -0.3384,-1.38315 -0.05823,-1.7063c0.704,-0.81196 2.93626,-2.67816 4.64879,-3.92635c1.72116,-1.25448 2.50766,-2.19711 2.4719,-2.52927c-0.15845,-1.47188 -6.70067,-7.64958 -7.21565,-7.60152c-0.38584,0.03602 -6.52892,4.28035 -12.42924,9.42487c-3.18147,2.77394 -6.53593,5.58098 -8.38985,8.51803c-1.32917,2.10573 -1.66565,4.98417 -1.5133,6.22897c0.10167,0.83076 0.67633,3.13907 1.87194,4.79991c2.40911,3.34653 22.5402,16.99091 23.74906,16.87808z" fill="#000000" stroke="none" stroke-width="0"/><path d="M201.18599,202.46796c-0.13083,0.19881 -3.80527,2.88705 -6.27556,5.34894c-1.57217,1.5668 -2.40471,3.22544 -2.34111,3.43252c0.1384,0.45061 15.26918,-1.35151 20.20811,-1.0672c0.34069,0.01961 1.50375,0.68732 1.94158,1.8693c1.0363,2.79775 1.36636,7.72233 0.57539,8.1014c-1.00125,0.47984 -10.61494,0.81599 -16.65894,1.55478c-2.88199,0.35228 -4.98587,0.96977 -4.97744,1.38163c-0.08717,0.58078 2.5708,3.10195 5.31756,5.17911c2.60834,1.97248 5.3078,3.53355 5.53876,4.1261c0.21613,0.55582 -5.38791,5.78923 -6.48486,5.74414c-0.72226,-0.0535 -12.81848,-7.79714 -19.33943,-14.07705c-3.56258,-3.43089 -3.68844,-6.24889 -3.5158,-7.5673c0.08147,-0.62215 1.2944,-4.07223 4.0536,-7.04108c5.61016,-6.03639 15.04812,-12.91101 15.72426,-13.22616c1.0887,0.21613 6.5489,5.74962 6.2458,6.21019z" fill="#b13ddc" stroke="none" stroke-width="0"/><path d="M199.04827,240.18906c-1.20886,0.11283 -21.35805,-13.5433 -23.76718,-16.88983c-1.19561,-1.66083 -1.77092,-3.97289 -1.87257,-4.80365c-0.15233,-1.2448 0.1846,-4.12795 1.51377,-6.23368c1.8539,-2.93705 5.21324,-5.7523 8.3947,-8.52622c5.90032,-5.14452 12.05449,-9.39318 12.44031,-9.42918c0.22346,-0.02086 1.58302,1.13075 3.06364,2.56153c-0.28807,0.21791 -14.25726,10.45636 -13.35295,20.96176c0.80933,9.4022 16.46758,19.18612 16.79667,19.46369c-1.57875,1.55366 -3.0059,2.87596 -3.21639,2.89559z" fill-opacity="0.25098" fill="#ffffff" stroke="none" stroke-width="0"/><path d="M215.1839,208.73866c1.0196,0.20986 2.32742,2.48902 2.78001,5.10295c0.35858,2.07089 0.84056,5.39196 -0.027,7.05609c-0.16413,0.31481 -1.74488,0.67818 -3.88667,0.8929c-1.67643,0.16807 -4.34061,0.31038 -7.06704,0.47378c-0.04243,-0.54748 0.21298,-4.89465 -0.81553,-8.16192c-0.74676,-2.37227 -2.80655,-3.90447 -3.06381,-4.31252c-0.07401,-0.11739 -0.1471,-0.236 -0.21979,-0.35526c4.89729,-0.4832 10.85357,-0.99374 12.29982,-0.69605z" fill-opacity="0.18039" fill="#000000" stroke="none" stroke-width="0"/><path d="M199.00907,240.19276c-1.20886,0.11283 -21.35805,-13.54329 -23.76719,-16.88981c-1.19561,-1.66083 -1.77089,-3.9729 -1.87257,-4.80366c-0.15233,-1.2448 0.1846,-4.12797 1.51377,-6.2337c1.8539,-2.93705 5.21324,-5.7523 8.39471,-8.52622c5.90032,-5.14452 12.05447,-9.39316 12.44031,-9.42918c0.51498,-0.04807 7.06412,6.13113 7.22257,7.60301c0.03576,0.33215 -0.76324,1.30518 -2.48439,2.55966c-1.7125,1.24816 -3.93927,3.11535 -4.64325,3.92734c-0.28017,0.32315 -0.46657,1.44671 0.05849,1.6734c0.15708,0.0678 16.64267,-1.90735 19.18556,-1.38394c1.0196,0.20986 2.32739,2.48901 2.77999,5.10295c0.35858,2.07089 0.84057,5.39196 -0.02701,7.05612c-0.16413,0.31481 -1.74487,0.67818 -3.88667,0.8929c-4.53658,0.45484 -16.30613,0.72079 -16.9697,1.7278c-0.58982,0.89508 1.19249,2.52606 1.69281,2.98996c3.65276,3.38683 8.23115,5.39077 8.18227,5.90923c-0.04434,0.47051 -7.32277,7.77772 -7.81977,7.82409zM201.24887,202.40833c0.30308,-0.46058 -5.15079,-5.99294 -6.23949,-6.20907c-0.67616,0.31514 -10.09966,7.18047 -15.70982,13.21686c-2.75922,2.96885 -3.97052,6.41242 -4.05197,7.03458c-0.17262,1.31839 -0.04796,4.12958 3.5146,7.56047c6.52095,6.27991 18.59988,14.01339 19.32214,14.06691c1.09696,0.04509 6.69454,-5.18607 6.47841,-5.74192c-0.23094,-0.59256 -2.91687,-2.1239 -5.52519,-4.09637c-2.74676,-2.07716 -5.41457,-4.59824 -5.3274,-5.17902c-0.00843,-0.41186 2.09054,-1.05838 4.97254,-1.41066c6.04398,-0.73881 15.65108,-1.06401 16.65233,-1.54385c0.79099,-0.37907 0.46133,-5.297 -0.57497,-8.09475c-0.43783,-1.18198 -1.60023,-1.84776 -1.94092,-1.86737c-4.93893,-0.2843 -20.04748,1.52646 -20.18588,1.07585c-0.06362,-0.20711 0.76107,-1.89704 2.33321,-3.46382c2.47029,-2.46186 6.15157,-5.14902 6.2824,-5.34784z" fill="#ffffff" stroke="none" stroke-width="0"/><path d="M147.79551,155.93143c4.1131,0.09093 8.87743,1.48463 9.74373,1.7289c8.38492,2.36437 16.90425,6.65625 17.49125,7.40125c0.16367,0.20773 1.3806,1.28639 1.01036,3.01225c-0.83668,3.90007 -3.65196,10.97888 -4.30165,11.92931c-0.03602,0.05271 -1.85551,0.02705 -3.46289,-0.42977c-1.62992,-0.46322 -3.04808,-1.35791 -3.09143,-1.33445c-0.35356,0.19135 5.42933,7.48635 7.87801,12.00632c1.17451,2.16798 -0.72114,5.83443 -1.58125,6.71338c-1.8311,1.87124 -6.24103,4.78975 -8.2738,5.71749c-0.26883,0.12269 -2.80228,0.13646 -4.50726,-1.69371c-1.70471,-1.82989 -8.19993,-11.92498 -8.61487,-12.27309c-0.11048,-0.09269 0.20825,4.07307 -0.21428,6.9561c-0.26437,1.80385 -1.30899,2.8148 -1.41541,2.86533c-2.51589,1.19459 -14.17106,-2.59142 -14.88763,-3.7683c-0.55325,-0.90866 -0.06747,-13.76426 0.82068,-22.80023c0.46443,-4.72504 1.44367,-8.46345 1.57314,-8.7789c0.52913,-1.28936 1.27116,-2.30609 1.40056,-2.48514c1.0724,-1.48395 2.87498,-2.81592 3.93639,-3.30723c2.06442,-0.95558 4.86113,-1.49568 6.49642,-1.45952zM136.02964,193.42623c0.29558,0.40224 10.30023,2.87702 10.72646,2.67288c0.46965,-0.22493 -0.18578,-5.15426 0.83807,-10.0292c0.14025,-0.66771 0.64444,-3.05857 1.71543,-3.01355c1.20494,0.05066 7.47322,10.00013 10.19806,13.65564c1.28645,1.72582 2.41035,2.89456 2.76472,2.87326c1.87333,-0.11267 4.46827,-2.2325 6.05925,-3.60575c2.00819,-1.73337 3.28633,-4.0245 2.94152,-5.00671c-0.86001,-2.44962 -11.03885,-15.54992 -11.06156,-15.7195c-0.07588,-0.56688 1.01174,-1.00202 1.433,-0.92812c1.0585,0.1857 3.80744,1.13912 5.75899,1.96501c1.96141,0.83005 3.17443,1.01923 3.4408,0.81762c1.18043,-0.89339 3.10999,-9.68209 2.80372,-10.09887c-0.22944,-0.31227 -7.03018,-3.39482 -14.47775,-5.80593c-4.01574,-1.30005 -8.14891,-2.73145 -11.62126,-2.80933c-2.48952,-0.05586 -5.13061,1.13711 -6.11948,1.90839c-0.65996,0.51474 -2.34331,2.19547 -3.15193,4.07536c-1.62937,3.78793 -2.96691,28.07045 -2.248,29.04883z" fill="#930000" stroke-opacity="0.50196" stroke="#ffffff" stroke-width="2.5"/><path d="M147.79551,155.84853c4.1131,0.09093 8.87743,1.48463 9.74373,1.7289c8.38492,2.36437 16.90425,6.65625 17.49125,7.40125c0.16367,0.20773 1.3806,1.28639 1.01036,3.01225c-0.83668,3.90007 -3.65196,10.97888 -4.30165,11.92931c-0.03602,0.05271 -1.85551,0.02705 -3.46289,-0.42977c-1.62992,-0.46322 -3.04808,-1.35791 -3.09143,-1.33445c-0.35356,0.19135 5.42933,7.48635 7.87801,12.00632c1.17451,2.16798 -0.72114,5.83443 -1.58125,6.71339c-1.8311,1.87124 -6.24103,4.78974 -8.2738,5.71748c-0.26883,0.12269 -2.80228,0.13647 -4.50726,-1.69371c-1.70471,-1.82989 -8.19993,-11.92498 -8.61487,-12.27309c-0.11048,-0.09269 0.20825,4.07307 -0.21428,6.9561c-0.26437,1.80385 -1.30899,2.81481 -1.41541,2.86534c-2.51589,1.19459 -14.17106,-2.59142 -14.88763,-3.7683c-0.55325,-0.90866 -0.06747,-13.76426 0.82068,-22.80023c0.46443,-4.72504 1.44367,-8.46345 1.57314,-8.7789c0.52913,-1.28936 1.27116,-2.30609 1.40056,-2.48514c1.0724,-1.48395 2.87498,-2.81592 3.93639,-3.30723c2.06442,-0.95558 4.86113,-1.49568 6.49642,-1.45952zM136.02964,193.50917c0.29558,0.40224 10.30023,2.87702 10.72646,2.67289c0.46965,-0.22493 -0.18578,-5.15427 0.83807,-10.0292c0.14025,-0.66771 0.64444,-3.05858 1.71543,-3.01355c1.20494,0.05066 7.47322,10.00013 10.19806,13.65564c1.28645,1.72582 2.41035,2.89457 2.76472,2.87326c1.87333,-0.11267 4.46827,-2.23251 6.05925,-3.60576c2.00819,-1.73337 3.28633,-4.0245 2.94152,-5.00671c-0.86001,-2.44962 -11.03885,-15.54992 -11.06156,-15.71951c-0.07588,-0.56688 1.01174,-1.00202 1.433,-0.92812c1.0585,0.1857 3.80744,1.13912 5.75899,1.96501c1.96141,0.83005 3.17443,1.01923 3.4408,0.81762c1.18043,-0.89339 3.10999,-9.68209 2.80372,-10.09887c-0.22944,-0.31227 -7.03018,-3.39481 -14.47775,-5.80593c-4.01574,-1.30005 -8.14891,-2.73145 -11.62126,-2.80933c-2.48952,-0.05586 -5.13061,1.13711 -6.11948,1.90839c-0.65996,0.51474 -2.34331,2.19547 -3.15193,4.07536c-1.62937,3.78793 -2.96691,28.07045 -2.248,29.04883z" fill="#000000" stroke="none" stroke-width="0"/><path d="M169.47075,175.83083c-0.23779,-0.00984 -4.43381,-1.77667 -7.81597,-2.62761c-2.15251,-0.54156 -4.00309,-0.40174 -4.1479,-0.2406c-0.31511,0.35059 9.01741,12.39599 11.31558,16.77689c0.15854,0.3022 0.18466,1.64303 -0.60342,2.62676c-1.86539,2.32845 -5.9178,5.14599 -6.6499,4.66289c-0.92673,-0.6115 -6.16286,-8.68113 -9.90697,-13.48291c-1.78533,-2.28966 -3.39757,-3.77569 -3.74635,-3.5565c-0.54282,0.22419 -1.33645,3.80067 -1.70368,7.22476c-0.34874,3.25153 -0.29784,6.36946 -0.68701,6.87245c-0.36533,0.47138 -7.73661,-1.63994 -8.26254,-2.60367c-0.32585,-0.64681 0.08781,-15.00338 2.11596,-23.82645c1.10805,-4.82029 3.45936,-6.37855 4.67858,-6.90909c0.57534,-0.25035 4.15767,-0.98608 8.12321,-0.14837c8.06291,1.70328 18.81459,6.25709 19.43279,6.67461c0.37502,1.04468 -1.55908,8.57411 -2.10997,8.55129z" fill="#42f230" stroke="none" stroke-width="0"/><path d="M136.02893,193.55202c-0.71892,-0.97838 0.61938,-25.28248 2.24875,-29.0704c0.80864,-1.87989 2.49484,-3.56308 3.15481,-4.07782c0.98888,-0.77128 3.63426,-1.96629 6.12378,-1.91044c3.47235,0.07788 7.61507,1.50921 11.63081,2.80928c7.44758,2.41111 14.25768,5.50092 14.48714,5.8132c0.13288,0.18085 -0.15475,1.93924 -0.61945,3.94508c-0.3351,-0.13484 -16.30295,-6.84239 -24.84473,-0.66018c-7.64478,5.53298 -7.97447,23.99369 -8.04308,24.41868c-2.14461,-0.55396 -4.01286,-1.09702 -4.13804,-1.26739z" fill-opacity="0.25098" fill="#ffffff" stroke="none" stroke-width="0"/><path d="M171.2987,191.19977c0.34482,0.98218 -0.93621,3.27653 -2.9444,5.0099c-1.59098,1.37327 -4.19037,3.49579 -6.0637,3.60844c-0.35438,0.02131 -1.4795,-1.147 -2.76595,-2.87282c-1.00692,-1.35084 -2.50009,-3.56182 -4.04343,-5.81533c0.44758,-0.31815 4.30621,-2.33656 6.57818,-4.89996c1.64961,-1.86121 1.90319,-4.41583 2.12064,-4.84641c0.06257,-0.12387 0.12663,-0.24758 0.19146,-0.37128c2.93481,3.95016 6.43808,8.79424 6.9272,10.18745z" fill-opacity="0.18039" fill="#000000" stroke="none" stroke-width="0"/><path d="M136.00563,193.5203c-0.71892,-0.97838 0.61938,-25.28247 2.24875,-29.07039c0.80864,-1.87989 2.49484,-3.56309 3.15481,-4.07782c0.98888,-0.77128 3.63425,-1.96629 6.12378,-1.91044c3.47235,0.07788 7.61507,1.50921 11.63081,2.80928c7.44758,2.41111 14.25768,5.50092 14.48715,5.8132c0.30627,0.41681 -1.62102,9.21222 -2.80145,10.10563c-0.26637,0.20161 -1.51187,0.01738 -3.47328,-0.81269c-1.95155,-0.8259 -4.69849,-1.77408 -5.75699,-1.95978c-0.42126,-0.0739 -1.48053,0.34454 -1.40465,0.91142c0.02271,0.16959 10.20087,13.28753 11.06088,15.73718c0.34482,0.98218 -0.93619,3.27651 -2.94439,5.00988c-1.59098,1.37327 -4.19037,3.49579 -6.0637,3.60846c-0.35438,0.02131 -1.4795,-1.147 -2.76595,-2.87282c-2.72484,-3.65551 -9.01033,-13.60967 -10.21525,-13.66033c-1.07101,-0.04503 -1.55205,2.32252 -1.69231,2.99025c-1.02384,4.87496 -0.38562,9.83178 -0.85529,10.05671c-0.42623,0.20414 -10.43733,-2.27546 -10.73291,-2.6777zM169.55424,175.99404c0.55089,0.02282 2.4873,-7.50062 2.11228,-8.5453c-0.6182,-0.41752 -11.3545,-4.96371 -19.41741,-6.66701c-3.96554,-0.83771 -7.54143,-0.10394 -8.11678,0.14641c-1.21922,0.53052 -3.56533,2.08426 -4.67338,6.90455c-2.02815,8.82307 -2.44201,23.1596 -2.11615,23.80641c0.52592,0.96373 7.89198,3.07068 8.25729,2.59929c0.38917,-0.50299 0.31977,-3.59399 0.66851,-6.84552c0.36725,-3.42411 1.15571,-7.00898 1.69855,-7.23314c0.34876,-0.21919 1.98336,1.24768 3.76871,3.53734c3.74414,4.80181 8.96747,12.87139 9.89418,13.48291c0.7321,0.48309 4.77903,-2.33068 6.6444,-4.65914c0.78808,-0.9837 0.76064,-2.32302 0.60213,-2.62519c-2.29819,-4.3809 -11.62669,-16.4028 -11.31158,-16.75339c0.14482,-0.16114 2.01818,-0.32383 4.17067,0.21774c3.38216,0.85094 7.58076,2.62421 7.81855,2.63404z" fill="#ffffff" stroke="none" stroke-width="0"/></g><path d="M202.42953,175.30496c0.01461,0.00005 0.02967,-0.00002 0.04512,-0.00024c-0.01343,0.00671 -0.02692,0.01334 -0.04041,0.01992z" fill="#85181a" stroke="none" stroke-width="0.5"/><path d="M202.42944,175.30509c0.01457,0.00002 0.0296,-0.00008 0.04498,-0.00028c-0.0134,0.00667 -0.02682,0.01334 -0.04029,0.01988z" fill="#85181a" stroke="none" stroke-width="0.5"/><path d="M202.42944,175.30509c0.01457,0.00005 0.0296,-0.00002 0.04498,-0.00024c-0.0134,0.00667 -0.02682,0.01331 -0.04029,0.01985z" fill="#85181a" stroke="none" stroke-width="0.5"/><path d="M202.42958,175.30496c0.01461,0.00005 0.02964,-0.00002 0.04509,-0.00024c-0.01343,0.00671 -0.02685,0.01334 -0.04036,0.01992z" fill="#ff2d32" stroke="none" stroke-width="0.5"/><path d="M199.12001,175.352c0.02902,0.0017 0.05799,0.00332 0.08691,0.00486l0.03107,0.12014c-0.03932,-0.04179 -0.07861,-0.0835 -0.11796,-0.12503z" fill="#000000" stroke="none" stroke-width="1"/><path d="M202.42944,175.30496c0.01461,0.00005 0.02965,-0.00002 0.0451,-0.00024c-0.01343,0.00671 -0.0269,0.01334 -0.04039,0.01992z" fill="#85181a" stroke="none" stroke-width="0.5"/><path d="M202.4294,175.30509c0.01457,0.00002 0.0296,-0.00008 0.04498,-0.00028c-0.0134,0.00667 -0.0268,0.01334 -0.04028,0.01988z" fill="#85181a" stroke="none" stroke-width="0.5"/><path d="M196.94263,179.2082c0.02533,0.00603 0.05064,0.01197 0.07588,0.01784l0.00867,0.11076c-0.02817,-0.04296 -0.05634,-0.08585 -0.08453,-0.12858z" fill="#000000" stroke="none" stroke-width="1"/><path d="M199.85546,179.48049l0.01237,0.20191c-0.28444,-0.05101 -0.38411,-0.12422 -0.01237,-0.20191z" fill="#85181a" stroke="none" stroke-width="0.5"/><path d="M199.86785,179.68234c0.01289,0.00233 0.02617,0.00463 0.03981,0.00682c-0.01288,0.00383 -0.02579,0.00757 -0.03871,0.01127z" fill="#85181a" stroke="none" stroke-width="0.5"/><path d="M199.86783,179.68249c0.01285,0.00226 0.0261,0.00453 0.0397,0.00675c-0.01285,0.0038 -0.02573,0.00757 -0.03862,0.01125z" fill="#85181a" stroke="none" stroke-width="0.5"/><path d="M199.86783,179.68249c0.01283,0.00229 0.0261,0.00458 0.0397,0.00678c-0.01285,0.0038 -0.02573,0.00757 -0.03862,0.01125z" fill="#85181a" stroke="none" stroke-width="0.5"/><path d="M199.86789,179.68238c0.01288,0.00233 0.02615,0.0046 0.03979,0.0068c-0.01288,0.00383 -0.02577,0.00757 -0.03869,0.01127z" fill="#ff2d32" stroke="none" stroke-width="0.5"/><path d="M196.94257,179.20822c0.02533,0.00601 0.05061,0.01195 0.07585,0.01782l0.00868,0.11076c-0.02817,-0.04298 -0.05634,-0.08587 -0.08453,-0.1286z" fill="#000000" stroke="none" stroke-width="1"/><path d="M267.77699,233.41978c0.13198,3.46139 -0.89222,6.51712 -0.89222,6.51712c0,0 -2.39743,0.29879 -6.37213,0.78872c-2.51329,0.30981 -13.70709,1.51678 -24.08492,2.43354c-3.35428,0.2963 -13.45507,2.28449 -24.9056,2.38396c-20.61828,0.17914 -46.93009,-1.73627 -54.53832,-2.09661c-15.67889,-0.74257 -29.81606,-0.40913 -31.01826,-3.07509c-0.49641,-1.10082 -0.85944,0.00465 -1.19348,-0.81542c21.03548,-2.1289 73.20825,-11.52131 107.36105,-25.16057c17.77622,-7.09912 28.55808,-18.74913 32.02618,-23.88167c1.31255,14.83497 3.49317,39.64011 3.61771,42.90603z" fill-opacity="0.25098" fill="#000000" stroke="none" stroke-width="0.5"/><path d="M122.16399,110.59334c0.56956,0.0204 23.99225,0.91075 29.77851,0.87977c13.92284,-0.07456 36.70752,0.80641 54.97306,0.53888c29.25609,-0.42854 55.329,-1.49659 55.83047,-1.1958c1.70362,1.02189 2.27669,7.14844 2.33792,14.42126c-5.13842,-0.65261 -10.28657,-1.22043 -15.49,-1.53251c-14.41329,-0.62797 -28.44518,-0.41259 -42.84901,0.30057c-4.4366,0.21967 -27.42394,3.78278 -48.01996,11.75513c-17.51826,6.78101 -33.02912,17.54243 -36.88623,23.70513c-0.42892,-26.63717 -0.44082,-48.89986 0.32528,-48.87241z" fill-opacity="0.25098" fill="#ffffff" stroke="none" stroke-width="0.5"/><path d="M262.36344,179.32512c0,-0.81426 0.74827,-13.52638 0.87266,-27.07841c0.02328,-2.53538 3.19112,-39.19627 -1.2095,-41.83588c-0.50147,-0.30079 -26.51624,0.79803 -55.77233,1.22657c-18.26552,0.26753 -40.97089,-0.62892 -54.89373,-0.55436c-5.78626,0.03099 -29.18778,-0.87697 -29.75734,-0.89737c-1.43458,-0.05138 -0.13096,77.91842 1.52014,116.55115c0.76894,17.99158 1.21863,11.26674 2.21721,13.48115c1.20219,2.66595 15.31282,2.31116 30.99171,3.05373c7.60823,0.36034 33.83864,2.26435 54.45691,2.08522c11.45054,-0.09947 21.51862,-2.07358 24.8729,-2.36988c10.37783,-0.91674 21.55132,-2.107 24.06461,-2.41681c3.9747,-0.48994 6.36827,-0.78448 6.36827,-0.78448c0,0 1.02004,-3.05059 0.88806,-6.51198c-0.17881,-4.68968 -4.61954,-53.72752 -4.61954,-53.94862zM185.13106,249.52289c-2.00154,0.25332 -20.37526,-1.12419 -33.20628,-1.55157c-11.80814,-0.39333 -19.17885,0.68633 -27.50606,-0.33455c-5.24051,-0.64245 -6.08069,-4.79761 -6.14004,-4.81303c-0.31245,-0.08112 -2.81542,-12.15369 -3.19009,-29.3929c-0.31323,-14.4125 0.53145,-33.18125 0.70072,-50.28321c0.30526,-30.83999 0.35948,-58.22946 1.27087,-58.85628c1.56394,-1.07565 6.60786,-0.37055 6.839,-0.35656c11.76191,0.71201 43.87959,2.32166 43.93481,2.32115c45.25394,-0.4452 96.01042,-2.51686 96.01042,-2.3662c0,0.01017 4.45227,-0.39399 5.66489,5.87717c1.76079,9.10614 0.58517,25.44673 0.11901,34.49942c-0.59012,11.46024 -1.90964,25.2499 -1.72428,31.03088c0.63382,19.76817 2.89529,29.61643 3.5539,39.55256c0.37858,5.71175 0.77103,12.21921 0.81351,16.51417c0.06426,6.50426 -1.54259,10.77182 -2.43939,11.26272c-2.61261,1.43016 -18.18617,5.05922 -35.73343,6.33064c-21.34743,1.54675 -45.33959,0.59933 -48.9675,0.56564z" fill="#000000" stroke="none" stroke-width="0.5"/><g><path d="M207.96064,188.46364c-0.05053,-0.0796 -0.2458,-0.39047 -0.54221,-0.85305c-0.08576,0.13309 -0.13983,0.24049 -0.13565,0.29643c-0.55464,1.36312 -1.01617,2.17136 -0.1393,3.36765c1.78612,2.43789 1.16681,3.95621 -1.85838,4.78175c-4.80345,1.31825 -9.6173,0.99092 -14.37005,-0.33734c-4.03526,-1.12708 -7.94905,-2.65068 -11.6842,-4.54857c-0.26076,-0.09764 -1.07059,-0.59828 -1.86774,-1.22532c-0.35281,-0.27753 -1.21782,-0.79601 -1.65663,-1.5194c-0.0439,-0.07238 -0.09198,-0.1553 -0.14077,-0.24513c-0.48171,0.64348 -0.78566,1.08837 -0.81668,1.11354c-1.30646,1.05182 -2.71012,-0.05953 -2.65266,-1.69136v0.00002c0.01629,-0.4676 0.70408,-8.17204 1.10481,-11.54278c-1.40111,0.05935 -3.20743,0.01681 -5.02506,-0.09714c-3.34513,-0.20974 -6.72598,-0.66862 -7.73671,-1.0599l-0.00002,0.00002c-0.48208,-0.18662 -0.66349,-3.09024 0.25118,-5.43923c0.89735,-2.30443 2.88198,-4.05855 3.3549,-3.8755c0.98763,0.38237 3.74057,1.9449 6.30221,3.98813c2.06211,1.64475 4.01074,3.54521 4.93188,4.77123c-0.46408,-1.01645 -1.01201,-2.28354 -1.05882,-2.69608c-0.34826,-2.93681 -0.37946,-5.90258 -0.09313,-8.84609c0.47422,-4.61778 1.80263,-5.97774 6.42825,-6.54044c5.64273,-0.64656 11.34765,-0.51181 16.95356,0.40053c4.07388,0.59621 8.14674,1.22248 12.06028,2.53748c3.8545,1.29514 4.09607,1.76251 3.6431,5.62335c0.45026,-0.20275 0.82686,-0.36866 1.08544,-0.4893c4.03046,-0.99594 6.16392,1.67353 7.98908,4.93096c1.83616,3.30626 3.17764,6.86392 3.98167,10.55935c0.22865,1.01409 0.76704,2.21684 -0.18814,3.02706c-0.39793,0.34076 -2.29892,-0.16538 -2.79425,-0.31752c-2.42033,-0.7461 -4.82304,-1.55419 -8.01612,-2.59256c2.0528,3.83777 3.03363,7.24219 2.92075,10.91969c-0.14133,2.29767 -0.52187,4.57436 -1.13553,6.79307c-0.20121,0.82143 -0.60591,1.60172 -1.59734,1.61818c-0.8858,0.01765 -1.19534,-0.74561 -1.51966,-1.41106c-1.56887,-3.31304 -3.63734,-6.28802 -5.97799,-9.40066v0z" fill="#000000" stroke="url(#color-1)" stroke-width="2.5"/><g stroke="none"><path d="M182.97832,181.34579c-0.77063,-2.47396 -1.56321,-6.70165 -1.56321,-6.70165c0.20403,0.03981 16.04482,0.87838 19.15236,2.42247c1.24174,0.61701 7.57636,9.15819 7.57634,9.15841c-0.00369,0.07442 -1.07921,1.29239 -1.06,1.53535c-0.54883,1.36546 -1.00692,2.17563 -0.125,3.36821c1.79646,2.43026 1.18359,3.95124 -1.83805,4.78961c-4.79784,1.33865 -9.613,1.03183 -14.37136,-0.27621c-4.04,-1.10992 -7.96025,-2.61685 -11.70344,-4.49883c-0.26118,-0.09652 -1.07316,-0.59373 -1.87294,-1.21738c-0.354,-0.27603 -1.22118,-0.79081 -1.6631,-1.51233c-0.16565,-0.27049 -0.39022,-0.68853 -0.49236,-1.06309c-0.19711,-0.72284 -0.19036,-1.41698 -0.19153,-1.51044c-0.00238,-0.19075 0.14369,-0.64913 0.22331,-0.73723c0.7819,-0.86515 2.28783,-3.26379 4.25317,-4.11383c1.22371,-0.52928 3.06726,0.111 3.67582,0.35691zM198.93883,178.98191c-2.06736,-0.73422 -15.35203,-1.96481 -15.35203,-1.96481c0.51144,1.27462 1.75654,4.24675 1.72474,5.86049c-0.01585,0.80356 -1.09728,0.80369 -1.31803,0.78276c-0.34826,-0.03305 -0.74727,-0.11247 -1.12576,-0.29121c-0.39762,-0.18776 -0.77566,-0.47606 -1.17928,-0.54747c-0.65229,-0.11545 -1.2854,0.32665 -1.53676,0.45568c-0.72754,0.37357 -4.08487,3.03991 -3.21122,3.66588c5.62717,4.05632 13.256,6.62331 20.1613,7.28323c2.4631,0.24864 4.95105,0.01848 7.32676,-0.6777c1.06535,-0.29319 1.41197,-0.84924 0.46911,-1.66015c-1.05839,-0.91434 -1.19763,-2.04496 -0.52653,-3.09604c1.62751,-2.54927 -0.66714,-8.11835 -5.4323,-9.81065z" fill="#000000" stroke-width="1"/><path d="M198.96535,178.92689c4.76514,1.69231 7.07421,7.31901 5.44669,9.8683c-0.67112,1.05107 -0.53616,2.19308 0.52222,3.10744c0.94284,0.81091 0.59273,1.3731 -0.47258,1.66629c-2.37571,0.69621 -4.88406,0.94592 -7.34718,0.69731c-6.90533,-0.65992 -14.62645,-3.27387 -20.2536,-7.33021c-0.87363,-0.62599 2.48444,-3.30954 3.21198,-3.68311c0.25132,-0.12903 0.88536,-0.57525 1.53767,-0.45983c0.40365,0.07144 0.90096,0.3891 1.29853,0.57684c0.37849,0.17874 0.65783,0.2305 1.00609,0.26353c0.22078,0.02093 1.30487,0.01208 1.32072,-0.79148c0.0318,-1.61372 -1.19931,-4.6071 -1.71072,-5.88172c0,0 13.37279,1.23243 15.44016,1.96664z" fill="#fddfbd" stroke-width="0.5"/><path d="M198.94957,178.93168c4.76514,1.69231 7.07421,7.31902 5.4467,9.86827c-0.67112,1.05107 -0.53615,2.19311 0.52224,3.10745c0.94286,0.81091 0.59273,1.3731 -0.4726,1.66629c-0.38607,0.11311 -0.77561,0.21448 -1.1679,0.30381c-0.15169,-0.11943 -1.57807,-1.11795 -1.5633,-2.11209c0.03072,-2.07025 1.67929,-6.19613 0.05838,-8.26838c-0.9573,-1.20413 -4.93479,-2.4368 -8.58058,-2.91772c-2.73484,-0.36076 -5.25611,-0.0952 -6.32404,-0.19592c-0.35926,-0.03389 1.50738,2.99623 0.11118,4.32342c-0.44806,0.4259 -1.61229,0.90067 -3.14033,1.03975c-0.64982,0.05916 -1.56431,-0.52631 -2.19351,-0.25068c-1.01379,0.44412 -2.21981,2.63891 -2.47384,2.97212c-0.80757,-0.48325 -1.58542,-0.99273 -2.32692,-1.52723c-0.8736,-0.62597 2.48444,-3.30952 3.21198,-3.68309c0.25132,-0.12903 0.88536,-0.57524 1.53767,-0.45983c0.40363,0.07144 0.90096,0.3891 1.29854,0.57684c0.37849,0.17874 0.65782,0.23048 1.00608,0.26353c0.22075,0.02095 1.30487,0.01209 1.32072,-0.79147c0.03176,-1.61372 -1.19933,-4.60712 -1.71074,-5.88175c0,0 13.37278,1.23243 15.44015,1.96664z" fill="#f89587" stroke-width="0.5"/></g><g stroke="none"><path d="M175.68499,175.73273c0,0 -1.64677,-3.36177 -1.73218,-4.08702c-0.36071,-2.93529 -0.40455,-5.90094 -0.13074,-8.84563c0.4546,-4.61977 1.77719,-5.98533 6.40036,-6.56772c5.63994,-0.67057 11.34538,-0.56006 16.9551,0.3284c4.07637,0.57889 8.15184,1.18782 12.07095,2.48618c3.91911,1.29836 4.11011,1.75916 3.64642,5.7878c0.05737,-0.02161 -0.01787,0.95294 -0.01309,1.76268c-4.53809,1.96285 -13.44138,9.39626 -15.49603,11.04701c-0.21142,0.16985 -0.66392,0.54447 -0.71067,0.58794c-2.13187,-0.36226 -4.25407,-0.81544 -6.40179,-0.95235c-0.20037,-0.00913 -7.2108,-0.71496 -7.2108,-0.71496l0.00016,0.00544c0,0 -7.30256,-0.7549 -7.37764,-0.83782zM197.69065,176.11857c0.1044,0.03431 8.54906,-7.19014 12.3522,-9.54151c1.38095,-0.84533 1.07615,-2.33605 1.20421,-3.54482c0.11565,-1.12052 -1.16,-1.26682 -1.97166,-1.4927c-7.00491,-1.87598 -14.20238,-2.94004 -21.45049,-3.17114c-1.36944,-0.05405 -1.82161,0.55171 -2.05803,1.82468c-0.71817,3.63467 -1.52261,10.11759 -1.69411,13.81857c-0.00763,0.21675 3.53994,0.38911 6.72254,0.82946c3.55842,0.49238 6.79894,1.24579 6.89531,1.27746zM182.41499,173.80127c-0.38618,-4.41818 0.22504,-8.78539 0.94669,-13.15089c0.12645,-0.63987 0.60519,-1.48219 -0.2178,-2.00747c-0.75499,-0.48618 -3.54369,-0.16181 -4.74874,0.29978c-1.60498,0.6148 -1.58685,1.63284 -1.70692,2.85198c-0.16683,2.20158 -0.2116,4.41076 -0.13407,6.61732c0.12625,5.19795 0.16798,5.21443 5.28844,5.53122c0.19589,-0.01972 0.35878,-0.09681 0.54441,-0.16228z" fill="#000000" stroke-width="1"/><path d="M210.10393,166.57095c-3.80313,2.35136 -12.30675,9.64329 -12.41115,9.60898c-0.09637,-0.03169 -3.38119,-0.8018 -6.93961,-1.29418c-3.1826,-0.44038 -6.74375,-0.63157 -6.73612,-0.84832c0.1715,-3.70098 0.98032,-10.24344 1.69849,-13.87811c0.23644,-1.27294 0.69628,-1.88814 2.06572,-1.83411c7.24811,0.2311 14.54348,1.30956 21.54839,3.18553c0.81163,0.22588 2.09109,0.38085 1.9754,1.50137c-0.12808,1.20879 0.17984,2.71355 -1.20111,3.55886z" fill="#ff2d32" stroke-width="0.5"/><path d="M182.40564,173.8395c-0.18565,0.06549 -0.35262,0.14366 -0.54848,0.1634c-5.12046,-0.31679 -5.22572,-0.35597 -5.35201,-5.55389c-0.07753,-2.20654 -0.02146,-4.50116 0.14538,-6.70277c0.12009,-1.21911 0.12682,-2.24877 1.73181,-2.86358c1.20505,-0.46161 4.03175,-0.7819 4.78675,-0.29575c0.82301,0.52528 0.35301,1.37242 0.22656,2.01229c-0.72165,4.3655 -1.34803,8.84234 -0.96185,13.26055z" fill="#a31c4c" stroke-width="0.5"/><path d="M210.1259,166.55748c-3.80316,2.35138 -12.30676,9.64331 -12.41118,9.609c-0.09637,-0.03169 -3.38119,-0.8018 -6.93962,-1.29418c-3.1826,-0.44038 -6.74375,-0.63157 -6.73612,-0.84832c0.03789,-0.81788 0.10695,-1.77454 0.19923,-2.80792c0.17348,0.04969 5.14423,0.96806 7.55329,-0.37148c4.6258,-2.57214 8.64473,-8.47023 10.57684,-8.77731c1.55544,-0.22177 -2.56026,7.92213 0.45866,6.64475c3.4488,-1.45927 6.91909,-3.03378 8.27783,-3.41278c-0.14888,0.48349 -0.43096,0.92283 -0.97899,1.25829z" fill="#c41c1f" stroke-width="0.5"/><path d="M211.28015,163.00703c-0.02616,0.24674 0.03682,0.71974 0.00031,1.15763c-0.03941,0.47288 -0.17846,0.91244 -0.20951,1.19631c-0.95408,0.26994 -2.04567,0.78038 -2.04567,0.78038c-1.48943,-2.03523 -5.60778,-4.0243 -7.93832,-4.76335c-3.23063,-0.87249 -6.29359,-1.55166 -9.6592,-1.75692c-1.84633,-0.16591 -3.70078,-0.1751 -5.55543,-0.17275c0.28415,-0.79308 0.7981,-1.17105 1.88403,-1.12821c7.24811,0.23111 14.54349,1.30956 21.54842,3.18553c0.81163,0.22588 2.09107,0.38083 1.9754,1.50137z" fill="#ff888a" stroke-width="0.5"/><path d="M183.1691,158.58677c0.37383,0.23862 0.48092,0.54362 0.47456,0.86545c-0.82701,-0.00539 -1.65346,-0.02014 -2.47863,-0.05722c-1.19913,0.08068 -2.69489,0.20902 -4.10005,0.48846c0.23549,-0.39801 0.62975,-0.73756 1.31737,-1.00098c1.20507,-0.46161 4.03176,-0.7819 4.78675,-0.29573z" fill="#d92564" stroke-width="0.5"/><path d="M182.4324,173.85844c-0.18565,0.06549 -0.35262,0.14366 -0.54848,0.1634c-5.12049,-0.31679 -5.22574,-0.35594 -5.35201,-5.55389c-0.0103,-0.29328 -0.01824,-0.58818 -0.02388,-0.88417c0.25011,0.29203 1.45117,1.26737 2.66285,1.89622c1.20316,0.62446 2.41514,0.90255 3.17442,1.16594c-0.01272,1.07943 0.02131,2.15786 0.11525,3.23281z" fill="#830b35" stroke-width="0.5"/></g><g stroke="none"><path d="M207.76403,188.31408c-0.25836,-0.40303 -4.27531,-6.75734 -6.3015,-8.65476c-1.44741,-1.35547 -3.53001,-1.75284 -4.21358,-1.96419c-1.68583,-0.52121 -4.92487,-0.97182 -4.88541,-1.10479c0.23134,-0.78008 1.84289,-4.16026 1.90018,-4.28196c1.20541,-2.56045 3.50461,-5.49165 4.56649,-6.76136c1.32323,-1.58222 3.09602,-2.98571 4.3444,-3.79706c0.85164,-0.55352 1.42531,-0.78073 1.57907,-0.80043c0.46276,-0.05927 0.99159,0.1108 1.05131,0.13019c0.44137,0.14318 -0.48331,3.20367 -0.51863,5.25c-0.02621,1.51882 0.5696,2.74474 0.65789,2.68193c0.30308,-0.2156 1.49475,-1.38432 2.99777,-2.31087c1.87432,-1.15543 4.16655,-2.11988 5.05686,-2.53992c4.0262,-1.01307 6.17096,1.64732 8.00999,4.89696c1.85018,3.29845 3.2068,6.85034 4.02655,10.54231c0.23297,1.01313 0.77647,2.21356 -0.17529,3.02785c-0.39648,0.34242 -2.29961,-0.15561 -2.79558,-0.30566c-2.42348,-0.7358 -4.82964,-1.53367 -8.02711,-2.55842c2.06909,3.82899 3.06441,7.2292 2.96721,10.90714c-0.13154,2.29826 -0.5024,4.57653 -1.10662,6.79785c-0.19776,0.82226 -0.59909,1.60428 -1.59045,1.62496c-0.88571,0.02141 -1.19854,-0.74055 -1.52567,-1.40458c-1.58298,-3.30633 -3.66405,-6.27248 -6.01793,-9.37516zM214.92944,194.61929c0.18435,-1.59554 0.38631,-2.69402 0.41769,-3.79594c0.11998,-4.30307 -1.33841,-8.06176 -4.03328,-11.37472c-0.40334,-0.50783 -0.8959,-1.04843 -0.52832,-1.76158c0.40713,-0.78591 1.17358,-0.84095 1.92401,-0.68762c0.75044,0.15335 1.62586,0.28602 2.41716,0.51291c2.6978,0.77489 5.39174,1.56915 8.42906,2.48673c-1.25591,-4.63039 -2.70821,-8.70014 -5.37264,-12.24386c-0.89914,-1.18507 -2.05995,-1.96356 -3.62672,-1.42693c-2.55008,0.87343 -8.19416,4.33328 -10.1422,4.56325c-0.05257,0.00623 -0.68094,-1.97412 -0.56043,-4.04844c0.12328,-2.12219 0.34694,-3.64726 0.33406,-3.63771c-0.16578,0.12315 -0.60184,0.10359 -1.79747,1.18111c-0.53303,0.48039 -3.3933,3.65693 -5.42497,6.76277c-0.55752,0.85228 -2.625,3.90553 -2.47511,4.21044c0.02922,0.05942 3.09903,0.43507 5.2197,1.21211c1.77857,0.65167 3.22879,1.76675 3.97901,2.65669c3.5674,4.23172 9.22709,12.28657 11.22888,15.37332z" fill="#000000" stroke-width="1"/><path d="M214.96722,194.65378c-2.00177,-3.08675 -7.7448,-11.19332 -11.31215,-15.42502c-0.75024,-0.88994 -2.19897,-2.02498 -3.97754,-2.67664c-2.12064,-0.77702 -5.19051,-1.15254 -5.21969,-1.21196c-0.14989,-0.3049 1.92568,-3.37717 2.4832,-4.22945c2.0317,-3.10583 4.9186,-6.30527 5.45163,-6.78563c1.19561,-1.0775 1.63922,-1.06075 1.805,-1.18388c0.01288,-0.00953 -0.16978,1.63117 -0.29306,3.75331c-0.12051,2.07432 0.45446,3.94427 0.50704,3.93806c1.94805,-0.22997 7.64782,-3.69189 10.1979,-4.56532c1.5668,-0.53662 2.74161,0.25083 3.64075,1.4359c2.66443,3.5437 4.13807,7.66533 5.39398,12.2957c-3.0373,-0.91755 -5.85271,-1.70507 -8.55053,-2.47995c-0.79132,-0.22689 -1.66244,-0.34623 -2.41287,-0.49958c-0.75044,-0.15335 -1.40688,-0.15277 -1.81403,0.63314c-0.36758,0.71313 0.13022,1.29911 0.53356,1.80696c2.69487,3.31297 4.12334,7.10947 4.00333,11.41253c-0.03141,1.10192 -0.2405,2.20372 -0.42485,3.79926z" fill="#50a5eb" stroke-width="0.5"/><path d="M214.942,194.69969c-2.00177,-3.08675 -7.74482,-11.19332 -11.31217,-15.42501c-0.75021,-0.88994 -2.19897,-2.025 -3.97754,-2.67669c-2.12067,-0.77704 -5.19051,-1.15252 -5.21971,-1.21194c-0.14989,-0.3049 1.92568,-3.37717 2.4832,-4.22947c0.93797,-1.43388 2.05823,-2.88772 3.04502,-4.08471c-0.07112,1.48304 -0.86577,3.92593 0.07623,5.84977c1.11997,2.28728 4.04336,3.98418 4.46039,4.46266c2.8952,3.32171 7.02784,9.53772 7.91472,11.82055c0.42893,1.19552 2.36992,3.7801 2.56959,5.27445c-0.00938,0.07806 -0.01875,0.1573 -0.02806,0.2378z" fill="#3e7fb5" stroke-width="0.5"/><path d="M214.96511,194.65471c-0.33847,-0.52194 -1.43575,-5.5615 -2.22736,-7.73175c-0.93793,-2.90761 -3.08091,-5.27554 -4.4482,-7.9306c-0.33343,-0.6678 -1.51172,-2.34457 -1.20831,-2.90431c0.94299,-1.73964 5.43979,-1.82064 6.25487,-1.84038c2.03162,-0.04912 4.10209,0.39846 4.12359,0.28972c0.01005,-0.05099 0.43231,-3.86328 -3.17558,-4.50914c-2.71686,-0.48635 -9.30674,2.83369 -10.6876,2.56635c-1.9524,-0.37796 -1.57058,-7.94005 -1.206,-8.26861c1.19563,-1.0775 1.63922,-1.06075 1.805,-1.1839c0.01288,-0.00955 -0.16974,1.63117 -0.29305,3.75331c-0.12051,2.07432 0.45444,3.9443 0.50701,3.9381c1.94805,-0.22997 7.6478,-3.69189 10.19789,-4.56532c1.56678,-0.5366 2.74163,0.25086 3.64076,1.43592c2.66443,3.54371 4.13808,7.66531 5.39399,12.29568c-3.03732,-0.91757 -5.85274,-1.70506 -8.55054,-2.47995c-0.79132,-0.22687 -1.66244,-0.34624 -2.41287,-0.49958c-0.75044,-0.15335 -1.40688,-0.15277 -1.81403,0.63314c-0.36758,0.71313 0.13022,1.29913 0.53356,1.80698c2.69492,3.313 4.12335,7.10946 4.00335,11.41252c-0.03141,1.10192 -0.24051,2.20372 -0.42486,3.79926z" fill="#66ffff" stroke-width="0.5"/><path d="M203.90243,166.63723c-0.02934,0.5051 -0.01745,0.99815 0.01811,1.4549c-0.49907,-1.09777 -1.17877,-2.49021 -1.63427,-3.73874c0.03347,-0.15427 0.06893,-0.25383 0.1042,-0.28561c1.19563,-1.07752 1.63924,-1.06073 1.80503,-1.18388c0.01288,-0.00955 -0.16976,1.63117 -0.29307,3.75331z" fill="#ccffff" stroke-width="0.5"/><path d="M214.96511,194.65477c-0.17445,-0.26897 -0.55037,-1.73766 -0.98212,-3.39511c0.30656,-1.48681 -0.11347,-3.6468 -0.24804,-4.6379c-0.51909,-2.04934 -0.96925,-4.2609 -1.69079,-6.32476c2.27584,3.11132 3.46744,6.63075 3.35743,10.57594c-0.03141,1.10192 -0.24051,2.20372 -0.42486,3.79926z" fill="#ccffff" stroke-width="0.5"/><path d="M223.64212,179.99987c-0.52834,-0.15959 -1.04995,-0.31526 -1.56539,-0.46762c-0.77405,-3.3832 -2.40423,-6.25126 -4.00659,-9.38401c-0.49286,-0.85587 -2.08134,-2.51428 -3.18905,-3.96143c1.43097,-0.36067 2.52108,0.40233 3.36707,1.51738c2.66441,3.54371 4.13806,7.66533 5.39397,12.2957z" fill="#ccffff" stroke-width="0.5"/></g><g stroke="none"><path d="M171.89887,187.61519c0.01785,-0.58382 1.03426,-12.45083 1.27994,-13.08071c0.19942,-0.51122 9.49657,0.32608 9.50652,0.35213c0,0 3.20364,7.77149 2.68758,8.39486c-0.60114,0.7224 -2.27286,0.38235 -2.86012,-0.03591c-2.65691,-1.97571 -7.82115,5.9406 -7.95413,6.04966c-1.30197,1.05737 -2.71035,-0.04802 -2.65982,-1.68007zM174.68731,177.23749c-0.04771,2.43354 0.00156,4.92447 -0.0579,8.15653c0.26547,-0.30209 5.11327,-4.57234 5.57594,-4.82755c0.83348,-0.45972 2.37969,0.44681 2.61959,0.54375c-0.53292,-1.71081 -0.88316,-4.15696 -1.2529,-4.33436c-0.56251,-0.26991 -6.75077,-0.41428 -6.75095,-0.40704z" fill="#000000" stroke-width="1"/><path d="M174.7845,176.31958c0.00016,-0.00724 6.26161,0.13704 6.82412,0.40697c0.36976,0.17742 0.74485,2.67266 1.27774,4.38348c-0.23992,-0.09694 -1.7887,-1.02098 -2.62218,-0.56124c-0.46267,0.25519 -5.40964,4.58948 -5.67513,4.89155c0.05946,-3.23206 0.00845,-5.81399 0.05614,-8.2475z" fill="#50a5eb" stroke-width="0.5"/><path d="M174.57763,185.44294c0.01947,-1.05838 0.02709,-2.04708 0.03021,-2.98363c0.73182,-0.27293 4.72863,-3.41848 5.49434,-3.79712c0.46117,-0.20026 1.44397,0.34336 2.39498,1.04683c0.11743,0.48457 0.24254,0.96936 0.37779,1.40359c-0.23992,-0.09692 -1.78869,-1.02096 -2.62218,-0.56124c-0.46267,0.25519 -5.40964,4.58951 -5.67513,4.89157z" fill="#66ffff" stroke-width="0.5"/><path d="M174.7845,176.3196c0.00018,-0.00726 6.26161,0.13704 6.8241,0.40695c0.19941,0.09569 0.40032,0.86544 0.62677,1.82276c-0.34887,-0.11193 -0.43778,-0.9946 -2.61764,-0.94c-1.01029,0.02531 -4.36514,0.72387 -4.99014,0.94398c0.00339,-0.46058 0.00887,-0.91304 0.01763,-1.36048z" fill="#3e7fb5" stroke-width="0.5"/><path d="M174.58908,185.44032c0.00253,-0.13807 0.37669,-1.10326 1.1874,-1.99806c1.25294,-1.38291 3.29942,-2.93631 4.69536,-3.63564c0.49756,-0.24925 2.29866,0.93139 2.41452,1.30339c-0.23989,-0.09692 -1.78872,-1.02094 -2.6222,-0.56122c-0.46267,0.25519 -5.40965,4.58951 -5.67512,4.89157z" fill="#ccffff" stroke-width="0.5"/></g><path d="M207.10134,176.30574c-0.1301,0.152 -2.20637,1.93544 -4.04739,3.5148c-1.09118,0.93608 -2.20196,1.86622 -2.49731,2.16344c-0.91013,0.4573 -1.8155,1.71671 -2.51778,1.61194c-0.76293,-0.11384 -4.86468,-4.63378 -6.7164,-6.70597c-2.26193,-2.53123 -4.00292,-5.21838 -3.57885,-5.47394c0.28039,-0.16897 0.51606,-0.24485 0.75464,-0.22304c0.51093,0.04665 0.95756,0.46992 1.33823,0.88442c0.29509,0.3149 0.60695,0.62585 0.90206,0.94074c0.23818,0.25477 2.47355,2.2741 3.25012,2.993c0.61261,0.66011 4.72308,4.2717 4.72308,4.2717c0,0 1.48696,-1.53227 3.28998,-2.8382c2.21323,-1.60302 4.86943,-3.06397 5.42873,-3.3674c0.68901,-0.37381 1.12015,-0.73241 1.50698,-0.78906c-0.12665,1.36361 -1.09473,2.1515 -1.8361,3.01753z" fill="#000000" stroke="none" stroke-width="1"/><g stroke="none"><path d="M200.18541,184.08859c-0.07755,-2.18141 0.55154,-3.97441 1.40511,-4.00476c0.8536,-0.03035 1.6084,1.71343 1.68595,3.89486c0.07757,2.18141 -0.55149,3.97441 -1.40509,4.00476c-0.8536,0.03035 -1.60844,-1.71342 -1.68599,-3.89485z" fill="#000000" stroke-width="0"/><path d="M201.19999,184.20201c0.01507,0.42425 -0.31663,0.78039 -0.74086,0.79548c-0.42427,0.01512 -0.78043,-0.31663 -0.7955,-0.74086c-0.01507,-0.42427 0.31663,-0.78041 0.74088,-0.7955c0.42427,-0.0151 0.78041,0.31663 0.79548,0.74086z" fill="#ffffff" stroke-width="0.5"/><path d="M202.68554,186.06483c-0.00574,-0.16126 -0.55046,1.49422 -0.84205,1.49675c-0.3213,0.00284 -0.94438,-1.63599 -0.93809,-1.45828c0.00357,0.09983 0.43479,0.54225 0.86617,0.53347c0.46652,-0.0095 0.91783,-0.46393 0.91398,-0.57192z" fill="#0053ad" stroke-width="0.5"/></g><g stroke="none"><path d="M194.11786,184.68949c-0.07755,-2.18141 0.55154,-3.97441 1.40514,-4.00476c0.85358,-0.03035 1.6084,1.71343 1.68595,3.89486c0.07757,2.18143 -0.55151,3.97443 -1.40509,4.00478c-0.85358,0.03035 -1.60844,-1.71345 -1.68599,-3.89485z" fill="#000000" stroke-width="0"/><path d="M195.13239,184.80292c0.01507,0.42425 -0.31661,0.78041 -0.74083,0.79548c-0.42427,0.0151 -0.78043,-0.31663 -0.79551,-0.74086c-0.01507,-0.42427 0.31663,-0.78041 0.74088,-0.7955c0.42427,-0.0151 0.78041,0.31666 0.79549,0.74088z" fill="#ffffff" stroke-width="0.5"/><path d="M196.61797,186.66577c-0.00574,-0.16126 -0.55046,1.49422 -0.84205,1.49675c-0.3213,0.00281 -0.94438,-1.63601 -0.93809,-1.45831c0.00357,0.0998 0.43479,0.54223 0.86616,0.53347c0.46652,-0.0095 0.91782,-0.46393 0.91397,-0.57192z" fill="#0053ad" stroke-width="0.5"/></g><g stroke="none" stroke-width="0.5"><path d="M160.11945,174.87893c-0.483,-0.18419 -0.67914,-3.08684 0.22361,-5.44042c0.88566,-2.30892 2.8614,-4.07314 3.33523,-3.89244c0.98954,0.37735 3.75037,1.92593 6.32233,3.95615c2.98982,2.36005 5.74579,5.25446 5.50102,5.89633c-0.00009,0.00031 -0.00019,0.00053 -0.0003,0.00081c-0.00013,0.00033 -0.00027,0.00064 -0.00036,0.00097c-0.23986,0.62895 -3.91515,0.71388 -7.63957,0.49929c-3.34616,-0.19282 -6.72927,-0.63452 -7.74196,-1.02068zM162.7117,170.2635c-0.10449,0.27301 -0.63496,2.06106 -0.06943,2.4587c0.8505,0.59804 8.66528,1.62207 8.85606,1.055c0.1695,-0.50387 -6.12088,-5.22511 -7.19697,-5.33754c-0.5053,-0.05282 -1.5131,1.62378 -1.58964,1.8238z" fill="#000000"/><path d="M162.64781,170.23416c0.07652,-0.20002 1.10745,-1.90467 1.61277,-1.85185c1.07609,0.11244 7.4741,4.91404 7.3046,5.41789c-0.19075,0.56707 -8.14234,-0.47203 -8.99281,-1.07006c-0.56553,-0.39764 -0.02907,-2.22296 0.07542,-2.49597z" fill="#0066cc"/><path d="M171.56516,173.8002c-0.04474,0.13301 -0.5165,0.17768 -1.22349,0.16034c-0.53331,-0.795 -1.87094,-2.1394 -3.62334,-3.14623c-1.30815,-0.75162 -3.09085,-1.31753 -3.62899,-1.31354c0.36313,-0.5338 0.8642,-1.15052 1.17124,-1.11845c1.07609,0.11244 7.4741,4.91402 7.3046,5.41789z" fill="#399cff"/><path d="M162.58632,172.72012c-0.50734,-0.35673 -0.12778,-1.8625 0.03111,-2.36567c0.21007,0.27568 0.3873,0.50999 0.47407,0.60279c1.05325,1.1262 4.82156,2.71331 5.52501,2.87737c-2.41895,-0.2323 -5.51711,-0.75367 -6.03023,-1.11447z" fill="#051380"/></g><g stroke="none" stroke-width="0.5"><path d="M195.08831,192.44765c-1.77309,1.54689 -6.84432,3.46328 -8.39262,0.50834c-0.62906,-1.20056 0.24967,-3.63243 0.5404,-4.85799c0.1693,-0.74519 0.14621,-1.74042 1.42752,-1.64548c0.45807,0.03394 1.83383,2.25209 2.29524,2.61109c2.62606,2.04316 6.26925,2.17067 8.94598,0.39429c0,0 0.51199,-0.33919 0.85118,0.17278c0.33921,0.51197 -0.09439,0.79825 -0.09439,0.79825c-1.73658,1.14873 -3.48789,1.6014 -5.27143,1.46267zM194.06335,191.69713c-0.60228,-0.12671 -1.22079,-0.30522 -1.86163,-0.52814c-1.808,-0.629 -3.66729,-3.74801 -3.76331,-2.81958c-0.19066,0.80527 -1.09015,3.28612 -0.6394,4.06669c1.1121,1.92575 4.85904,0.33492 6.26433,-0.71896z" fill="#000000"/><path d="M192.26123,191.18409c0.64079,0.22293 1.25907,0.40238 1.86136,0.52911c-1.40532,1.05387 -5.26632,2.65631 -6.37841,0.73056c-0.45075,-0.78054 0.46027,-3.33274 0.65094,-4.13799c0.09606,-0.92843 2.05812,2.24932 3.86612,2.87832z" fill="#ff6666"/><path d="M187.74417,192.44382c-0.16492,-0.28556 -0.14749,-0.80833 -0.04982,-1.39592c1.11269,0.85551 2.27856,1.57798 3.47149,2.06155c-1.39543,0.38547 -2.8161,0.38303 -3.42166,-0.66564z" fill="#ffb4b4"/><path d="M187.74419,192.44382c-0.16492,-0.28556 -0.14751,-0.80833 -0.04985,-1.39592c1.11269,0.85551 2.27858,1.57798 3.47151,2.06155c-1.39543,0.38547 -2.8161,0.38303 -3.42168,-0.66564z" fill="#ffb4b4"/></g></g></g></g></svg>