<svg version="1.1" xmlns="http://www.w3.org/2000/svg" xmlns:xlink="http://www.w3.org/1999/xlink" width="772" height="776.51333" viewBox="0,0,772,776.51333"><defs><linearGradient x1="320.00001" y1="-6.91638" x2="320.00001" y2="366.91638" gradientUnits="userSpaceOnUse" id="color-1"><stop offset="0" stop-color="#000a8c" stop-opacity="0"/><stop offset="1" stop-color="#000a8c" stop-opacity="0.41961"/></linearGradient><linearGradient x1="318.49923" y1="-7.66207" x2="318.49923" y2="123.62374" gradientUnits="userSpaceOnUse" id="color-2"><stop offset="0" stop-color="#ffffff" stop-opacity="0.34118"/><stop offset="1" stop-color="#ffffff" stop-opacity="0"/></linearGradient><linearGradient x1="320.49923" y1="740.37676" x2="320.49923" y2="609.09095" gradientUnits="userSpaceOnUse" id="color-3"><stop offset="0" stop-color="#ffffff" stop-opacity="0.34118"/><stop offset="1" stop-color="#ffffff" stop-opacity="0"/></linearGradient></defs><g transform="translate(66,36.13657)"><g stroke-width="0" stroke-miterlimit="10"><path d="M-66,396.13657v-432.27314h772v432.27314z" fill="#6c5df5" stroke="#000000"/><g fill-opacity="0.25098" fill="#de2aa8"><path d="M110.96006,290.25429v-37.04354h59.86834v37.04354z" stroke="#000000"/><path d="M170.82841,253.21075v-37.04353h59.86835v37.04353z" stroke="#000000"/><path d="M-8.77666,290.25429v-37.04354h59.86834v37.04354z" stroke="#000000"/><path d="M51.09171,253.21075v-37.04353h59.86835v37.04353z" stroke="#000000"/><path d="M110.96006,364.34137v-37.04354h59.86834v37.04354z" stroke="#000000"/><path d="M170.82841,327.29783v-37.04353h59.86835v37.04353z" stroke="#000000"/><path d="M-8.77666,364.34137v-37.04354h59.86834v37.04354z" stroke="#000000"/><path d="M51.09171,327.29783v-37.04353h59.86835v37.04353z" stroke="none"/><path d="M350.43345,290.25429v-37.04354h59.86834v37.04354z" stroke="#000000"/><path d="M410.3018,253.21075v-37.04353h59.86834v37.04353z" stroke="#000000"/><path d="M230.69675,290.25429v-37.04354h59.86834v37.04354z" stroke="#000000"/><path d="M290.56505,253.21075v-37.04353h59.86834v37.04353z" stroke="#000000"/><path d="M350.43345,364.34137v-37.04354h59.86834v37.04354z" stroke="#000000"/><path d="M410.3018,327.29783v-37.04353h59.86834v37.04353z" stroke="#000000"/><path d="M230.69675,364.34137v-37.04354h59.86834v37.04354z" stroke="#000000"/><path d="M290.56505,327.29783v-37.04353h59.86834v37.04353z" stroke="#000000"/><path d="M110.96006,142.08014v-37.04354h59.86834v37.04354z" stroke="#000000"/><path d="M170.82841,105.0366v-37.04354h59.86835v37.04354z" stroke="#000000"/><path d="M-8.77666,142.08014v-37.04354h59.86834v37.04354z" stroke="#000000"/><path d="M51.09171,105.0366v-37.04354h59.86835v37.04354z" stroke="#000000"/><path d="M110.96006,216.16722v-37.04354h59.86834v37.04354z" stroke="#000000"/><path d="M170.82841,179.12368v-37.04353h59.86835v37.04353z" stroke="#000000"/><path d="M-8.77666,216.16722v-37.04354h59.86834v37.04354z" stroke="#000000"/><path d="M51.09171,179.12368v-37.04353h59.86835v37.04353z" stroke="#000000"/><path d="M350.43345,142.08014v-37.04354h59.86834v37.04354z" stroke="#000000"/><path d="M410.3018,105.0366v-37.04354h59.86834v37.04354z" stroke="#000000"/><path d="M230.69675,142.08014v-37.04354h59.86834v37.04354z" stroke="#000000"/><path d="M290.56505,105.0366v-37.04354h59.86834v37.04354z" stroke="#000000"/><path d="M350.43345,216.16722v-37.04354h59.86834v37.04354z" stroke="#000000"/><path d="M410.3018,179.12368v-37.04353h59.86834v37.04353z" stroke="#000000"/><path d="M230.69675,216.16722v-37.04354h59.86834v37.04354z" stroke="#000000"/><path d="M290.56505,179.12368v-37.04353h59.86834v37.04353z" stroke="#000000"/><path d="M470.17013,290.25429v-37.04354h59.86834v37.04354z" stroke="#000000"/><path d="M470.17013,364.34137v-37.04354h59.86834v37.04354z" stroke="#000000"/><path d="M469.32419,142.31499v-37.04354h59.86835v37.04354z" stroke="#000000"/><path d="M470.17013,216.16722v-37.04354h59.86834v37.04354z" stroke="#000000"/><path d="M110.96006,67.99306v-37.04353h59.86834v37.04354z" stroke="#000000"/><path d="M170.82841,30.94953v-37.04354h59.86835v37.04354z" stroke="#000000"/><path d="M-8.77666,67.99306v-37.04353h59.86834v37.04354z" stroke="#000000"/><path d="M51.09171,30.94953v-37.04354h59.86835v37.04354z" stroke="#000000"/><path d="M350.43345,67.99306v-37.04353h59.86834v37.04354z" stroke="#000000"/><path d="M410.3018,30.94953v-37.04354h59.86834v37.04354z" stroke="#000000"/><path d="M230.69675,67.87562v-37.04354h59.86834v37.04354z" stroke="#000000"/><path d="M290.56505,30.94953v-37.04354h59.86834v37.04354z" stroke="#000000"/><path d="M470.17013,67.99306v-37.04353h59.86834v37.04354z" stroke="#000000"/><path d="M530.03848,253.21075v-37.04353h59.86834v37.04353z" stroke="#000000"/><path d="M530.03848,327.29783v-37.04353h59.86834v37.04353z" stroke="none"/><path d="M530.03848,105.0366v-37.04354h59.86834v37.04354z" stroke="#000000"/><path d="M530.03848,179.12368v-37.04353h59.86834v37.04353z" stroke="#000000"/><path d="M589.90679,290.25429v-37.04354h59.86834v37.04354z" stroke="#000000"/><path d="M589.90679,364.34137v-37.04354h59.86834v37.04354z" stroke="#000000"/><path d="M589.90679,142.08014v-37.04354h59.86834v37.04354z" stroke="#000000"/><path d="M589.90679,216.16722v-37.04354h59.86834v37.04354z" stroke="none"/><path d="M530.03848,30.94953v-37.04354h59.86834v37.04354z" stroke="#000000"/><path d="M589.90679,67.99306v-37.04353h59.86834v37.04354z" stroke="#000000"/></g><path d="M-9.28008,366.91638v-373.83276h658.56017v373.83276z" fill="url(#color-1)" stroke-opacity="0.26275" stroke="#00ffff"/><path d="M-10.78086,123.62374v-131.28581h658.56017v131.28581z" fill="url(#color-2)" stroke-opacity="0.26275" stroke="#00ffff"/><path d="M649.77932,609.09095v131.28581h-658.56017v-131.28581z" fill="url(#color-3)" stroke-opacity="0.26275" stroke="#00ffff"/></g></g></svg>