<svg version="1.1" xmlns="http://www.w3.org/2000/svg" xmlns:xlink="http://www.w3.org/1999/xlink" width="427.17341" height="208.80621" viewBox="0,0,427.17341,208.80621"><defs><linearGradient x1="353.11597" y1="88.22946" x2="353.11597" y2="271.99295" gradientUnits="userSpaceOnUse" id="color-1"><stop offset="0" stop-color="#ff0000"/><stop offset="1" stop-color="#ff7100"/></linearGradient><linearGradient x1="277.70955" y1="120.07813" x2="277.70955" y2="259.9257" gradientUnits="userSpaceOnUse" id="color-2"><stop offset="0" stop-color="#ff0000"/><stop offset="1" stop-color="#ff7100"/></linearGradient></defs><g transform="translate(-106.41331,-76.61728)"><g stroke-miterlimit="10"><path d="M436.89779,229.17908c0.88162,-0.71632 1.59795,-1.04693 2.14896,-1.21223c3.8571,0 6.94279,0.27551 9.31215,0.71632c1.32243,0.27551 2.97548,0.71632 4.84893,1.26734c4.57342,1.21223 8.87134,3.7469 12.94885,7.60401c1.87345,1.70815 3.5265,4.24282 4.84893,7.49381c1.21224,3.08569 1.87345,5.84076 1.87345,8.21012c0,1.70815 -0.55102,3.96731 -1.70815,6.61218c-1.43264,3.30609 -3.36119,6.33667 -5.84076,9.09175c-6.94279,7.65911 -16.47535,11.46111 -28.54257,11.46111c-15.04271,0 -25.51199,-3.30608 -31.51806,-9.91826c-3.36119,-3.6918 -5.01423,-7.87952 -5.01423,-12.61825c0,-3.03058 0.60611,-5.51015 1.70814,-7.4938c1.32243,-2.31427 3.96731,-5.12444 7.93462,-8.43053c2.86528,-2.36936 7.65911,-4.73873 14.49169,-7.21829c1.65305,-0.66122 3.96731,-1.43264 6.83259,-2.42446c2.14896,-0.71632 3.41629,-1.26734 3.9122,-1.65305c0.27551,-0.2204 0.88162,-0.71632 1.76324,-1.48774M464.61384,253.14823c0,-1.65304 -0.49592,-3.4714 -1.37754,-5.34484c-1.15713,-2.36936 -2.75508,-4.29792 -4.79383,-5.95096c-5.51015,-4.40812 -13.00395,-5.51014 -22.48141,-3.41629c-6.55708,1.37753 -12.83864,4.13261 -18.7896,8.32032c-5.95096,4.18771 -8.92645,7.82441 -8.92645,11.0203c0,3.80201 1.76325,6.88768 5.23465,9.31215c4.84893,3.30609 12.56314,4.95914 23.30793,4.95914c9.36726,0 16.75085,-2.75507 22.0957,-8.15502c1.87345,-1.92855 3.36119,-4.02241 4.46322,-6.33668c0.82652,-1.81835 1.26734,-3.30608 1.26734,-4.40811M528.58667,140.74118c0,11.1305 -3.91221,20.82836 -11.46111,28.98339c-11.0203,11.57131 -28.98338,18.95492 -53.77905,22.1508c0.38571,1.54284 1.65304,5.62035 3.802,12.28763c1.76325,5.62035 2.64488,8.65094 2.64488,9.25705c0,1.48774 -0.44081,2.64488 -1.26734,3.3612c-0.71632,0.66122 -2.03875,1.21223 -3.9122,1.65304c-5.95096,0.99183 -11.57132,2.25916 -16.75086,3.802c-3.58159,1.10203 -9.53256,2.75508 -17.79779,5.06934c-7.71421,2.14896 -11.62641,3.19589 -11.79172,3.19589c-3.25099,0 -5.06934,-1.81835 -5.34484,-5.51015c-0.11021,-1.15713 -0.05511,-2.64487 0.1653,-4.51832c0.22041,-2.03876 0.33061,-3.25099 0.33061,-3.5816c-0.0551,-1.70815 -0.22041,-4.24282 -0.55102,-7.71421c-1.21224,0.49591 -2.25916,0.99183 -3.19588,1.37754c-3.36119,1.43264 -7.10809,3.14078 -11.18561,5.12444c-4.79383,2.36936 -8.65093,4.24282 -11.51621,5.62035c-2.47956,1.10203 -4.40812,1.98365 -5.78566,2.69997c-2.64487,1.26734 -3.96731,2.20406 -4.02241,2.69997c-0.0551,0.2204 -0.11021,1.04693 -0.1653,2.47957c-0.0551,0.99183 -0.2204,1.81835 -0.44081,2.47957v35.43026c0.11021,0.99183 -0.33061,1.87346 -1.26734,2.69998c-0.99183,0.77142 -2.03876,1.15713 -3.19589,1.15713c-0.49592,0 -4.68363,-1.76325 -12.50804,-5.28975c-8.43053,-3.8571 -14.27129,-6.77748 -17.41207,-8.76113c-2.09386,-1.32244 -4.84893,-2.53467 -8.15502,-3.7469c-3.7469,-1.26734 -6.50197,-2.14896 -8.15502,-2.75508c-2.97548,-0.99183 -5.06934,-1.98365 -6.39177,-2.92038c-1.70815,-1.15713 -2.53467,-2.58977 -2.53467,-4.18771c0,-1.92855 1.76325,-5.06934 5.28974,-9.42236c0.88163,-1.10203 3.25099,-3.7469 6.99789,-7.93462c1.04693,-1.21223 4.40812,-4.46322 10.08358,-9.80806c4.73873,-4.51832 7.10809,-6.99789 7.10809,-7.3836c-0.60611,-1.81835 -1.15713,-3.6367 -1.76324,-5.45505c-3.36119,0.66122 -6.44688,0.99183 -9.25705,0.99183c-11.35091,0 -20.05695,-0.93673 -26.22831,-2.86528c2.25916,5.78565 3.3612,8.98154 3.3612,9.64276c0,1.65304 -0.88162,2.97548 -2.69997,4.07752c-1.21223,0.77142 -4.73873,2.31426 -10.63459,4.62852c-2.25916,0.88163 -6.00606,2.25916 -11.29581,4.13261c-5.73056,2.03876 -8.81624,3.03058 -9.25705,3.03058c-2.69997,0 -5.34485,-4.40812 -7.98972,-13.27946c-1.26734,-4.46322 -2.09385,-7.4938 -2.58977,-9.14684c-0.77142,-2.75508 -1.37754,-4.13261 -1.81835,-4.13261c-1.15713,0 -2.42447,0.2204 -3.802,0.66121c-1.65304,0.60611 -2.92038,1.04693 -3.9122,1.37754c0.2204,1.54284 0.55102,3.41629 0.93672,5.51015c0.27551,1.26734 0.66121,3.14079 1.15713,5.62035c0.33061,1.43264 0.99183,3.52649 2.03876,6.39177c0.99183,2.58977 1.43264,3.96731 1.43264,4.13261c0,2.47957 -1.59795,4.13261 -4.73873,4.90403c-4.57343,0.66122 -8.32032,1.37754 -11.2407,2.09386c-5.89586,1.15713 -10.35908,1.98365 -13.38966,2.47956c-1.65304,0.27551 -3.36119,0.88162 -5.06934,1.76325c-1.43264,0.71632 -2.75508,1.10203 -3.9122,1.10203c-2.03876,0 -3.30609,-0.77142 -3.85711,-2.20406c-0.1653,-0.49591 -0.2755,-1.48774 -0.2755,-2.92038c0,-2.03876 0.55101,-5.89586 1.54284,-11.57131c0.1653,-0.77142 0.33061,-1.48774 0.44082,-2.20406c-3.7469,1.43264 -8.92645,3.4714 -15.59373,6.11627c-8.70603,3.4714 -13.05905,5.17954 -13.11415,5.17954c-3.6918,0 -5.95096,-1.15713 -6.72238,-3.41629c-0.2204,-0.71632 -0.33061,-1.59795 -0.33061,-2.69998c0,-1.26734 0,-1.92855 0,-1.98365c-0.2755,-1.70815 -0.55102,-3.08569 -0.71632,-4.29792c-0.33061,0.27551 -0.60612,0.49591 -0.82652,0.71632c-2.92038,2.92038 -5.56525,5.45505 -7.87951,7.54891c-4.51832,4.02241 -7.4938,6.06116 -8.92645,6.06116c-1.87345,0 -5.01423,-2.25916 -9.36725,-6.88769c-4.35302,-4.95914 -6.77748,-7.71421 -7.4387,-8.37543c-0.0551,0.0551 -0.0551,0.0551 -0.1102,0c0,0.0551 0,0.33061 0,0.88162c0,0.55102 0.44081,1.81835 1.37753,3.7469c0.93672,1.92855 1.37754,3.25099 1.37754,3.91221c0,1.32244 -0.66122,2.31426 -2.03875,2.97548c-2.09386,0.99183 -6.06117,1.48774 -11.84683,1.43264c-1.37754,0 -3.6918,0.3306 -7.05299,1.04692c-3.36119,0.71632 -5.06933,1.04693 -5.06933,1.04693c-5.12444,0 -8.26523,-2.53467 -9.36725,-7.71421c-0.2204,-0.93672 -0.49592,-3.19588 -0.82653,-6.72238c-0.27551,-2.69997 -0.71632,-4.68363 -1.26733,-5.95096c-1.26734,-2.81017 -2.20406,-6.28156 -2.69997,-10.46928c-0.38571,-4.73873 -0.71632,-8.26523 -0.99183,-10.57949c-1.32243,-10.30398 -1.92856,-18.01818 -1.87345,-23.14262c0.38571,-6.11626 0.60612,-12.45293 0.60612,-19.01002c0,-0.38571 -0.22041,-0.99182 -0.71632,-1.87345c-0.49592,-0.82652 -0.77142,-1.37754 -0.77142,-1.65305c0,-3.58159 5.73056,-7.16319 17.19167,-10.68969c9.25705,-2.92038 17.35697,-4.68363 24.35486,-5.34485h14.32639c4.13261,0 7.93462,0.55101 11.29581,1.70814c0.16531,-0.77142 0.2755,-1.65304 0.44081,-2.64487c0.55102,-3.6367 1.04693,-6.44688 1.37753,-8.48563c0.2204,-1.37753 1.21224,-2.58977 2.92038,-3.52649c2.03875,-1.15713 4.18771,-1.26734 6.55708,-0.33061c3.4714,0.66122 8.32032,1.21223 14.6019,1.70815c6.11627,0.44081 9.58766,0.77142 10.35908,0.93672l23.03243,0.16531c3.19589,0.49591 5.17954,1.48774 5.95096,2.97548c0.27551,0.49591 0.44082,1.70815 0.44082,3.52649c0,0.38571 -0.11021,2.25916 -0.44082,5.73055c-0.0551,0.33061 -0.0551,0.66122 -0.1102,0.99183c0.60611,-0.66122 1.37753,-0.99183 2.25916,-0.99183c0.82652,0 2.36936,0 4.51832,-0.0551c2.14896,0 5.28975,-0.0551 9.47746,-0.0551c0.11021,0.11021 0.2204,0.38571 0.2204,0.77142c0,-0.55102 1.54284,-0.82653 4.62852,-0.88163c1.76325,0 4.79383,0 8.98155,0.11021c0.93672,0 1.76325,0.27551 2.42446,0.77142c0.1653,0.11021 0.60612,0.55101 1.26734,1.32243c0.38571,0.44081 0.93672,1.32244 1.54284,2.64488c0.33061,0.71632 0.71632,1.59794 1.21223,2.75507c1.92855,4.24282 3.6367,7.82442 5.23464,10.7448c1.32244,2.53467 3.03059,6.11626 5.12444,10.74479c0.77142,1.76325 1.48774,3.30609 2.09386,4.68363c1.43264,0.11021 3.41629,0.44081 5.95096,0.99183c1.54284,0.33061 3.4714,0.82652 5.67546,1.37753c0.82652,-3.14078 1.76325,-7.87951 2.81018,-14.21618c1.21223,-7.3285 2.09385,-12.12233 2.58977,-14.49169c-2.03876,0.11021 -6.66728,0.82652 -13.83048,2.09385c-6.83258,1.32244 -10.24887,1.92855 -10.30397,1.92855c-2.14896,0 -3.5265,-0.60611 -4.24282,-1.87345c-0.27551,-0.44081 -0.38572,-0.88162 -0.44082,-1.37753c-0.0551,-0.44081 -0.0551,-0.66122 -0.0551,-0.71632c0,-1.70815 0.77142,-5.17954 2.42446,-10.41419c1.76325,-5.17954 2.69997,-8.09991 2.81017,-8.76113c0.1653,-0.66122 0.55102,-2.14896 1.26734,-4.46322c0.60611,-2.20406 1.10203,-3.85711 1.32244,-5.01423c0.27551,-1.48774 0.71632,-2.69998 1.26734,-3.6367c-0.2204,-0.2755 -0.38571,-0.55102 -0.55102,-0.88162c-0.27551,-0.66122 -0.44081,-1.43263 -0.44081,-2.31426c0,-1.59794 1.43263,-3.08569 4.29791,-4.46323c2.92038,-1.43264 6.72239,-2.42446 11.40601,-3.08568c11.46111,-1.59794 22.97732,-0.55101 34.60374,3.19589c8.54073,2.31427 15.97944,5.34484 22.26101,9.09174c2.69997,1.59794 5.23464,3.3612 7.604,5.28975c0.77142,0.2755 1.26734,0.71632 1.54284,1.32243c1.48774,1.32243 2.97548,2.75507 4.35302,4.24281c7.4387,7.98972 12.45294,14.93251 15.04271,20.88347c2.31426,5.28975 3.47139,11.90192 3.47139,19.83654c0,2.92038 -0.3306,5.78566 -0.88162,8.48563c0.66122,-0.49591 1.32243,-1.04693 2.03875,-1.59795c8.09992,-6.61218 13.38966,-10.41418 15.81413,-11.51621c1.54284,-0.71632 4.40812,-2.58977 8.54073,-5.67545c4.79383,-3.58159 8.15502,-5.95096 10.13867,-7.10809c3.6918,-2.25916 6.44687,-3.19589 8.26522,-2.81018c2.20406,0.44081 3.19589,2.86528 2.97548,7.2734c0.22041,2.36936 0.93673,8.37543 2.09386,17.96309c1.04693,-0.60611 2.36936,-1.26734 3.96731,-1.98365c1.32243,-0.60611 3.36119,-1.43264 6.17137,-2.58977c2.42446,-0.99183 4.24282,-1.87345 5.39995,-2.53467c2.53467,-1.48774 5.06934,-3.30608 7.60401,-5.51014c3.30609,-2.86528 4.95914,-5.01424 4.95914,-6.50198c0,-1.81835 -0.66122,-3.7469 -1.98365,-5.73055c-1.43264,-2.14896 -3.41629,-4.13261 -6.00606,-5.84076c-6.33667,-4.24282 -14.5468,-6.33668 -24.68547,-6.33668c-7.49381,0 -14.5468,1.92856 -21.26918,5.84076c-1.48774,0.88163 -3.5265,2.20406 -6.06117,4.02241c-1.70815,1.21223 -2.81018,1.81835 -3.25099,1.81835c-1.87345,0 -3.14078,-0.66123 -3.7469,-2.03876c-0.27551,-0.60611 -0.44081,-1.43264 -0.44081,-2.47957c0.11021,-15.42842 0.33061,-26.99973 0.55102,-34.71394c0.0551,-1.04693 0.27551,-1.92855 0.60611,-2.64487c-0.82652,-0.33061 -1.48774,-0.93673 -1.92855,-1.81835c-0.44081,-0.71632 -0.60612,-1.48774 -0.60612,-2.25916c0,-1.70815 1.59795,-3.4163 4.73873,-5.12444c3.14078,-1.70815 7.27339,-3.08568 12.45293,-4.18771c12.28764,-2.64487 24.74057,-2.69997 37.35881,-0.2755c4.46322,0.0551 12.45294,2.09385 23.96915,6.17136c11.73662,4.07751 19.12021,7.4938 22.2059,10.24888c9.75297,8.54073 16.53045,15.86923 20.27735,21.9855c3.8571,6.28157 5.78566,13.27945 5.78566,20.99367M435.96106,88.22946c-9.86316,0 -17.02636,1.15713 -21.26918,3.4714c-1.87345,1.15713 -3.19589,1.98366 -4.02241,2.42447c-0.66122,0.33061 -1.32244,0.60611 -2.03876,0.77142c0.33061,0.66122 0.60611,1.54284 0.71632,2.64487c0.0551,0.93672 0.22041,2.36937 0.49592,4.35302c0.27551,1.92855 0.38571,3.36119 0.44081,4.35302c0.0551,1.81835 0.11021,4.73873 0.27551,8.76113c0.11021,3.85711 0.22041,6.88769 0.27551,9.03665v0.44081c1.87345,-1.21224 4.95914,-2.64487 9.31216,-4.18771c6.44687,-2.36937 12.39783,-3.5265 17.79778,-3.5265c15.48352,0 26.88953,3.8571 34.16292,11.57131c2.53467,2.64487 4.40812,5.56525 5.62036,8.81624c0.82652,2.25916 1.26734,4.24281 1.26734,5.84076c0,6.61218 -5.56525,13.05906 -16.58555,19.23042c-3.6367,2.09385 -7.5489,3.9122 -11.73662,5.51015c-3.41629,1.26734 -5.45504,1.92855 -6.17136,1.92855c-0.38571,0 -0.77142,0 -1.10203,-0.0551c0.0551,0.27551 0.0551,0.55101 0.1102,0.88162c1.59794,13.11416 2.42446,20.22225 2.42446,21.37938c0,2.31427 -4.18771,5.28974 -12.61824,8.98154c-4.90404,1.92855 -9.20195,3.6918 -12.94885,5.17954c0.11021,0.44081 0.16531,0.88163 0.22041,1.37754c0.44081,3.19589 0.71632,7.5489 0.93672,13.05906c3.03058,-0.77142 9.42235,-2.31427 19.17532,-4.68363c9.09175,-2.25916 15.42842,-3.9122 19.01002,-4.95914c-0.88162,-2.36936 -2.20405,-6.66728 -3.96731,-13.00395c-1.76325,-6.22647 -2.64488,-9.69786 -2.64488,-10.35908c0,-1.65304 0.60612,-2.81018 1.87345,-3.3612c0.93673,-0.38571 2.86528,-0.71632 5.78566,-0.88162c4.40812,-0.27551 7.76931,-0.55101 10.08357,-0.88162c4.84893,-0.66122 9.75297,-1.76325 14.657,-3.30609c4.79383,-1.48774 9.47745,-3.6367 14.10598,-6.39177c3.91221,-2.31427 6.77749,-4.46322 8.48563,-6.39177c4.29791,-4.79383 7.4387,-9.14684 9.31215,-12.94885c1.98365,-4.02241 2.97548,-8.21013 2.97548,-12.50804c0,-4.51832 -1.48774,-9.53256 -4.46322,-15.04271c-2.86528,-5.34485 -6.72239,-10.46928 -11.57132,-15.37332c-7.98971,-7.98972 -20.16715,-13.94067 -36.53229,-17.96308c-11.46111,-2.81018 -22.0957,-4.18772 -31.84866,-4.18772M356.72511,112.47411c-1.81835,-1.04693 -3.80201,-2.03876 -5.84076,-2.97548c-12.17743,-5.73055 -25.07118,-8.59583 -38.62615,-8.59583c-5.51015,0 -9.97337,0.71632 -13.33456,2.09385c-1.48774,0.71632 -2.53467,1.15714 -3.14078,1.43264c-0.0551,0 -0.1102,0.0551 -0.1653,0.0551c-0.11021,1.87345 -1.04693,6.50198 -2.81018,13.94068c-1.92855,8.04482 -2.86528,12.06722 -2.86528,12.12232v0.27551c2.92038,-0.55102 7.3285,-1.26734 13.38966,-2.14896c6.44688,-0.93672 10.41419,-1.43264 11.79172,-1.43264c1.70815,0 2.92038,0.71633 3.58159,2.09386c0.38571,0.71632 0.55102,1.48774 0.55102,2.25916c0,1.54284 -0.60612,5.39995 -1.76325,11.57131c-1.10203,5.84076 -1.87345,9.36726 -2.25916,10.52439c-0.55102,1.70815 -0.99183,3.91221 -1.26734,6.72238c-0.1653,1.54284 -0.33061,3.7469 -0.60611,6.61218c-0.27551,2.25916 -0.82652,3.96731 -1.54284,5.01424c-0.93672,1.32244 -2.31427,1.98365 -4.13262,1.98365c-0.93672,0 -3.03058,-0.44082 -6.33667,-1.26734c-1.81835,-0.49591 -3.25098,-0.82653 -4.29791,-1.04693c2.09385,4.57342 4.79382,10.9101 8.04482,19.01002c0.60611,0.0551 1.15713,0.22041 1.70815,0.44081c0.49591,0.2204 1.26734,0.55102 2.20406,1.10203c2.09385,1.10203 4.95914,1.65304 8.59583,1.70815c0.66122,0 2.92038,0.3306 6.77749,0.99182c3.8571,0.66122 7.604,0.99183 11.1305,0.99183c2.42447,0 4.79383,-0.11021 7.05299,-0.33061c0,-0.11021 1.87346,-0.55102 5.62036,-1.21223c0.0551,0.11021 0.11021,0.2204 0.1653,0.33061c1.54284,-0.33061 3.08568,-0.71632 4.57342,-1.15713c0.11021,-0.0551 0.1653,-0.0551 0.27551,-0.0551c5.51015,-0.93672 7.27339,-1.59794 5.39995,-1.98365c4.68363,-2.03876 9.03665,-4.73873 13.00396,-8.09992c4.35302,-3.7469 7.71421,-7.93461 10.13867,-12.56314c2.42446,-4.62852 3.6367,-9.25706 3.6367,-13.94068c0,-6.06116 -0.77142,-11.0203 -2.42446,-14.8774c-1.48774,-3.58159 -5.01424,-9.20195 -10.63459,-16.91616c-0.44081,-0.55102 -0.82653,-1.04693 -1.26734,-1.59794v25.07118c0.27551,1.76325 0.49591,4.02241 0.77142,6.77748c0.0551,0.60611 0.11021,1.10203 0.16531,1.59795c0.27551,0.27551 0.49591,0.60612 0.71632,1.04693c0.33061,0.71632 0.55102,1.48774 0.55102,2.25916c0,0.88163 -0.33061,1.81835 -0.99183,2.81018c0.0551,0.99183 0.00001,1.81835 -0.1102,2.47957c-0.44081,2.36936 -1.81835,3.5816 -4.18772,3.5816c-0.77142,0 -1.43264,-0.16531 -1.98365,-0.49592c0,0 0,0.0551 -0.0551,0.0551c-5.51015,3.25099 -11.90193,4.84893 -19.17532,4.84893c-8.15502,0 -13.66517,-0.71632 -16.53045,-2.20406c-1.65304,-0.82652 -2.47957,-2.14896 -2.47957,-3.9122c0,-3.6367 0.44081,-9.14685 1.37753,-16.47535c0.55102,-4.18771 0.99183,-7.27339 1.43264,-9.25705c-0.88163,-2.42446 -2.53466,-6.06117 -4.84893,-10.9652c-2.47957,-5.23464 -3.7469,-7.98971 -3.7469,-8.26522c0,-2.09386 2.97547,-3.91221 8.98154,-5.45505c4.68363,-1.21224 9.97338,-2.03876 15.92434,-2.47957c1.81835,-0.16531 5.12444,-0.82652 9.86316,-2.09386M349.28642,122.22708c-6.50198,1.04693 -11.68152,1.76325 -15.59373,2.31426c0.38571,1.04693 1.21223,3.91221 2.53467,8.59583c0.99183,3.58159 1.98365,6.50198 2.86527,8.76114c0.77142,1.87345 1.92855,5.01424 3.47139,9.31215c1.76325,4.73873 2.58977,7.38361 2.58977,7.82442c0,0.99183 -0.22041,1.92855 -0.77142,2.69997c-0.27551,0.44081 -0.60611,0.77142 -0.99183,0.99183v0.0551c0,0.0551 -0.0551,0.1102 -0.0551,0.2204c0.11021,0.1653 0.2204,0.33061 0.33061,0.49592c0.38571,0.66122 0.71632,1.21223 0.93673,1.65304c0.66122,0.0551 1.15713,0.0551 1.54284,0.0551c6.17136,0 11.46111,-1.54284 15.86923,-4.62852c0,0 0.3306,-0.27551 0.88162,-0.71632c0,-1.10203 0,-2.47957 0,-4.18771c0,-2.20406 -0.0551,-3.6367 -0.2204,-4.29791v-31.29765c-5.39995,0.88162 -9.86316,1.59794 -13.38966,2.14896M385.87381,180.68976c-3.80201,5.01424 -9.03664,9.47745 -15.64882,13.38966c-5.67545,3.30609 -11.95702,5.89587 -18.78961,7.76932c1.21224,3.03058 2.36937,6.00607 3.3612,9.03664c0,0.49591 -3.7469,4.73872 -11.24071,12.61824c-8.54073,9.03664 -13.99578,15.15291 -16.42024,18.4039c7.2183,2.75508 14.54679,5.78565 21.93039,9.20195c4.24282,1.92855 10.46929,4.90403 18.67941,8.81624l0.44081,-0.1653v-30.52623c0.22041,-0.71632 0.27551,-1.76325 0.1653,-3.08569c-0.1653,-2.09385 -0.22041,-3.19588 -0.22041,-3.30609c0,-2.58977 1.26734,-4.24282 3.91221,-5.01424c2.81018,-0.82652 6.50198,-2.20406 11.18561,-4.18771c2.75507,-1.15713 6.88768,-2.97548 12.56314,-5.45504c6.39177,-2.97548 12.06723,-5.62035 17.02636,-7.87951c0.55102,-1.10203 1.43264,-1.65305 2.53467,-1.65305c0.27551,0 0.49591,0 0.77142,0.0551c14.05088,-6.44688 21.04877,-9.75297 21.04877,-9.80807c0,-1.10203 -0.66122,-6.94279 -2.03875,-17.52228c-1.04693,-8.15502 -2.03875,-15.59372 -2.97548,-22.37121l-0.1653,-0.82652c-2.69997,1.87345 -11.73662,8.37542 -27.05484,19.50592c-11.95702,8.65094 -18.23859,13.00396 -18.84471,13.00396c-0.0551,0 -0.16531,0 -0.22041,0M243.21603,135.28613c-0.0551,0.71632 -0.11021,1.32244 0,1.87345c-0.11021,1.81835 -0.0551,4.46322 0.1653,7.98971c0.11021,1.76325 0.27551,3.6367 0.38571,5.62035c0,0.99183 -0.0551,1.65305 -0.2204,2.09386c-0.27551,0.71632 -0.82653,1.32244 -1.65305,1.76325c-0.0551,0.0551 -0.1102,0.0551 -0.2204,0.1102c-0.0551,0.27551 -0.1102,0.60612 -0.1653,0.88162c-0.60611,3.80201 -1.26734,7.3836 -2.03876,10.74479c-0.49591,2.42446 -1.04693,4.57342 -1.59794,6.39177l0.0551,1.04693c0,0.77142 0,1.48774 0,2.14896c1.81835,-0.55102 3.4714,-0.93672 4.90404,-1.15713c4.02241,-0.55102 5.89586,0.49591 5.73055,3.19588c0.71632,3.14078 1.87345,8.21012 3.41629,15.15291c0.1653,0.71632 0.27551,1.37754 0.44082,1.98365c1.15713,-0.49591 2.69997,-0.82653 4.57342,-1.04693c2.09385,-0.2204 4.62852,-0.82652 7.5489,-1.92855c2.69997,-1.04693 4.35302,-1.54284 4.84894,-1.54284c2.75508,0 5.23464,3.6367 7.4387,10.85499c0.55102,1.81835 1.32244,4.73873 2.31427,8.76114c0.82652,3.36119 1.43264,5.62035 1.81834,6.66728c1.70815,-0.44081 4.68363,-1.37753 8.98155,-2.86527c4.73873,-1.65304 8.81624,-3.14078 12.23253,-4.57342c-2.64487,-8.26522 -4.68363,-14.4917 -6.17137,-18.78961c-2.64487,-7.49381 -5.39995,-13.88558 -8.32032,-19.23042c-0.99183,-1.81835 -2.42447,-5.01423 -4.35302,-9.58766c-1.87345,-4.35302 -3.36119,-7.4938 -4.46322,-9.42235c-0.71632,-1.26734 -2.42446,-4.46323 -5.12444,-9.53256c-0.93672,-1.70815 -1.54284,-3.30609 -1.81835,-4.73873c-0.1653,-0.77142 -0.38571,-1.15713 -0.66121,-1.15713c-2.69997,0.82652 -7.60401,1.26734 -14.657,1.26734c-6.39177,0 -10.57948,-0.71632 -12.61824,-2.20406c-0.33061,-0.2204 -0.55102,-0.49591 -0.77142,-0.77142M235.39162,125.14746l-21.10387,0.0551c-1.92855,-0.38571 -5.51015,-0.77142 -10.74479,-1.26734c-6.50198,-0.55102 -11.40601,-0.99183 -14.7672,-1.32243c-0.49591,1.04693 -0.77142,3.96731 -0.93672,8.81624c-0.1102,0.99183 -0.33061,1.81835 -0.60612,2.53467c1.59794,1.43264 3.08568,3.03058 4.40811,4.84893c1.98365,2.75508 3.52649,5.84076 4.57343,9.31215c0.82652,2.75508 1.26734,5.28974 1.26734,7.4938c0,5.95096 -1.59794,11.40601 -4.84893,16.25494c-1.76325,2.64487 -3.9122,4.95914 -6.50198,6.94279c0.33061,0.71632 0.71632,1.65304 1.10203,2.75508c0,0.38571 0.2755,2.25916 0.82652,5.56525c0.55102,3.30609 0.82652,5.23464 0.82652,5.78566c0,0.38571 -0.0551,0.71632 -0.1102,1.04693h0.0551c7.54891,3.96731 11.35091,7.05299 11.35091,9.14684c0,2.09385 -1.76325,4.62853 -5.28974,7.60401c-0.77142,0.60611 -1.54284,1.15713 -2.20406,1.65305c0.0551,0.11021 0.0551,0.2755 0.1102,0.38571c1.43264,4.68363 2.20406,7.1632 2.36937,7.4387c6.39177,-3.19589 15.0427,-6.72239 25.8426,-10.63459c10.63459,-3.9122 18.18349,-6.99789 22.75692,-9.25705c-0.55102,-4.18771 -1.59794,-9.47746 -3.19589,-15.97943c-0.55102,0.1653 -5.17954,2.53467 -13.83048,6.99789c-8.54073,4.40812 -12.83865,6.61218 -12.89375,6.61218c-1.81835,0 -3.14078,-0.71632 -3.8571,-2.09385l-0.55102,-2.09385c0,-1.32244 2.09386,-3.4163 6.22647,-6.33668c2.14896,-1.48774 4.51833,-2.97548 6.99789,-4.40812c-0.27551,-0.82652 -0.55102,-1.70814 -0.82653,-2.75507c-0.38571,-1.59795 -0.77142,-3.69181 -1.10203,-6.28158c-0.38571,-2.86528 -0.66121,-4.57343 -0.77142,-5.17954c-1.70815,0.44081 -4.57343,2.03876 -8.70604,4.73873c-3.85711,2.53467 -6.06117,3.802 -6.72239,3.802c-2.92038,0 -4.51832,-1.37754 -4.73873,-4.13261c-0.1102,-0.88163 -0.0551,-1.87345 0.16531,-3.08568c0.2204,-1.10203 0.33061,-1.70815 0.33061,-1.92856c0,-1.10203 -0.1102,-2.81017 -0.27551,-5.12444c-0.16531,-2.31427 -0.27551,-3.6367 -0.27551,-3.96731c0,-2.42446 0.16531,-4.02241 0.49591,-4.73873c0.55102,-1.10203 1.81835,-1.92856 3.80201,-2.53467c1.81835,-0.55102 5.28974,-1.21223 10.41418,-1.87345c3.30609,-0.38571 10.08357,-1.26733 20.38755,-2.53466c0,-3.8571 0.0551,-6.77749 0.1102,-8.70604c0.0551,-3.25099 0.22041,-6.11626 0.44082,-8.70603v-4.84893M182.93501,141.95341c-6.33667,-6.33667 -16.08964,-8.43053 -29.20379,-6.39177c-10.08357,2.20406 -16.53045,3.6367 -19.28552,4.35302c-10.855,2.81017 -16.25494,5.17954 -16.25494,7.10809c0,5.56525 0.27551,11.68152 0.82653,18.4039c0.27551,4.02241 0.82652,10.41418 1.65304,19.23042c0.38571,5.01424 1.43264,11.1856 3.14079,18.6243c2.75507,12.01212 4.18771,18.3488 4.29792,19.01002c0.11021,0 0,0.0551 -0.27551,0.1653c-0.1653,0.11021 0.0551,0.16531 0.60612,0.16531c0.82652,0 3.41629,-0.33061 7.71421,-0.99183c4.68362,-0.77142 7.76931,-1.15713 9.20195,-1.26734c-1.59795,-3.7469 -3.08568,-7.4387 -4.57342,-11.0203c-2.97548,-7.10809 -4.40812,-11.46111 -4.40812,-12.94885c0,-3.03058 1.37754,-4.57343 4.02241,-4.57343c1.04693,0 5.34484,3.96731 12.83865,11.95703c9.64276,10.24888 15.09781,15.97943 16.47535,17.24676c2.69997,-2.75508 5.73056,-5.67545 9.09175,-8.76113c3.58159,-3.19589 6.83259,-6.00606 9.75297,-8.32032c-2.64487,-1.70815 -6.06117,-3.5265 -10.30398,-5.45505c-4.79383,-2.14896 -8.26523,-3.6918 -10.41419,-4.68363c-3.6918,-1.70815 -6.33667,-3.14078 -8.04481,-4.40812c-2.09386,-1.54284 -3.19589,-3.14078 -3.19589,-4.68363c0,-1.54284 3.03058,-3.6367 9.14684,-6.33667c1.76325,-0.77142 4.46322,-1.92855 8.26523,-3.5265c3.25099,-1.43264 5.89586,-2.69997 7.82441,-3.8571c1.59794,-0.93672 3.19589,-3.30608 4.90403,-7.10809c1.54284,-3.58159 2.36937,-6.33668 2.36937,-8.26523c0,-1.70815 -0.38571,-3.6367 -1.21223,-5.84076c-1.10203,-2.97548 -2.75508,-5.62035 -4.95914,-7.82441M208.00619,162.78177c0.1653,1.04693 0.27551,1.87345 0.1653,2.47957v0.27551c0.38571,-0.11021 2.42446,-1.37754 6.17137,-3.802c3.8571,-2.36936 6.44688,-3.5265 7.76932,-3.5265c2.36936,0 3.8571,0.88162 4.40812,2.64487c0.11021,0.27551 0.1653,1.32244 0.1653,3.08569c0,1.26734 0.71632,5.06934 2.03876,11.51621c0.2204,1.32244 0.49592,2.64487 0.77142,3.91221c0.1653,-0.0551 0.2755,-0.1102 0.38571,-0.1653c-0.27551,-1.37753 -0.44081,-2.14896 -0.44081,-2.20406c0,-1.10203 0.33061,-3.03058 1.04693,-5.78566c0.1653,-0.49591 0.2755,-1.04693 0.38571,-1.59794c0.82652,-3.36119 1.43264,-5.89586 1.76325,-7.49381c0.55102,-2.53467 1.15713,-4.51832 1.81834,-5.84076c-1.81835,0.1653 -3.8571,0.2755 -6.22646,0.3306c-3.6367,0.0551 -7.65911,0.38572 -12.01212,0.99183c-5.67545,0.82652 -8.48563,1.76325 -8.48563,2.92038c0,0.38571 0.1102,1.15713 0.2755,2.25916M181.22686,181.68159c-2.86528,1.48774 -6.06117,2.75508 -9.58766,3.6918l-0.99182,0.27551c3.9673,1.54284 7.7142,3.14078 11.1856,4.73873c0,-0.49591 0,-1.10203 0,-1.70815c-0.0551,-0.88163 -0.16531,-2.42447 -0.38571,-4.57343c-0.1102,-0.99183 -0.16531,-1.81835 -0.2204,-2.42446M335.56614,158.37366c-0.0551,2.53467 -0.1653,4.57343 -0.3306,6.06117c0.27551,0.0551 0.93672,0.1653 1.98365,0.2204c-1.15713,-3.03058 -1.70815,-4.57342 -1.70815,-4.62852c0,-0.55102 0,-0.99183 0.0551,-1.43264c0,-0.11021 0,-0.1653 0,-0.2204M235.77734,213.14454c-2.14896,0.71632 -4.02241,1.37753 -5.67545,1.92855c-0.11021,1.04693 -0.2204,2.42447 -0.38571,4.13261c-0.38571,3.7469 -0.55102,5.84076 -0.55102,6.28157c0,0.55102 0.0551,0.82652 0.0551,0.82652c0,0 0.1102,0 0.2204,-0.0551c4.13261,-0.55102 8.48563,-1.32244 13.05906,-2.31427c5.39995,-1.10203 9.09175,-2.14895 11.0754,-3.03058c-1.26734,-5.84076 -2.20406,-10.57949 -2.86527,-14.10599c-3.36119,1.10203 -6.11627,2.20407 -8.15503,3.3612c-1.81835,1.04693 -4.07751,2.03876 -6.77748,2.97548M146.95373,149.39211c6.88769,0 11.46111,1.48775 13.77537,4.51833c1.10203,1.37753 1.65305,3.4714 1.65305,6.28157c0,2.31427 -0.33061,4.02241 -0.93673,5.17954c-1.04693,1.87345 -3.14078,3.19588 -6.22647,3.9673c-1.70815,0.38571 -4.95914,1.32244 -9.80806,2.75508c-4.35302,1.26734 -6.61218,1.92856 -6.77749,1.92856c-2.64487,0 -4.29791,-1.37754 -4.95913,-4.13262c-0.2204,-0.88163 -0.33061,-1.87345 -0.33061,-2.97548c0.0551,-0.99183 0.0551,-1.48773 0.0551,-1.59794c0,-0.82652 -0.49591,-2.09386 -1.54284,-3.7469c-1.04693,-1.65304 -1.59794,-2.92038 -1.59794,-3.7469c0,-2.03876 1.59795,-3.6367 4.79383,-4.68363c0.33061,-0.11021 2.09386,-0.66122 5.28974,-1.54284c2.53467,-0.71632 4.73873,-1.43264 6.61218,-2.20406M152.73939,157.54714h-5.12444c-3.36119,1.04693 -5.17954,1.59794 -5.45505,1.70815c-2.31426,0.88163 -3.4714,1.59794 -3.4714,2.14896c0,0.44081 0.16531,1.10204 0.38571,1.92855c0.27551,0.93672 0.38571,1.65304 0.44081,2.20406v0.2204c0.0551,0.1653 0.1653,0.27551 0.27551,0.33061c2.36937,-0.44081 4.90403,-1.04693 7.71421,-1.92855c4.79383,-1.48774 7.1632,-2.86527 7.1632,-4.13261c0,-0.27551 -0.1102,-0.66122 -0.33061,-1.04693c-0.38571,-0.60611 -0.88162,-1.10202 -1.59794,-1.43264M248.94659,176.22654c0.0551,-0.38571 0.1102,-0.60612 0.1102,-0.55102c0,-1.32244 0.60611,-3.25099 1.81835,-5.78566c1.37753,-2.75508 2.31427,-4.68362 2.69997,-5.78565c0.55102,-1.54284 1.04692,-3.36119 1.54284,-5.51015c0.11021,-0.33061 0.49592,-2.20406 1.21224,-5.67545c0.38571,-1.81835 1.48774,-2.09385 3.30609,-0.77142c1.54284,1.10203 3.4714,3.19588 5.67546,6.28157c1.98365,2.69997 3.7469,5.51015 5.34484,8.43053c1.59795,2.92038 2.36936,4.79383 2.36936,5.73055c0,3.25099 -1.26733,4.84893 -3.7469,4.84893c-1.81835,0 -4.46322,0.27551 -7.93462,0.88162c-3.41629,0.60611 -6.00606,0.88163 -7.76931,0.88163c-2.36936,0 -3.8571,-0.55102 -4.40812,-1.70815c-0.1653,-0.38571 -0.27551,-0.82653 -0.2204,-1.26734M258.80976,162.89198c-1.37753,4.24282 -2.09385,7.05299 -2.09385,8.48563c0,0.88163 0.0551,0.99183 0.1653,0.33061c0.33061,-0.0551 1.21223,-0.2204 2.69997,-0.49591c1.15713,-0.2204 2.31426,-0.38571 3.36119,-0.49591l0.1102,-0.11021c0.0551,-0.0551 0.22041,-0.1653 0.44081,-0.2755c-0.66122,-1.32244 -1.43264,-2.64488 -2.25916,-4.02241c-1.04693,-1.70815 -1.81836,-2.86528 -2.42447,-3.41629z" fill="#000000" stroke-opacity="0.50196" stroke="#ff0000" stroke-width="10"/><path d="M463.34651,257.55635c-1.10203,2.31426 -2.58978,4.40813 -4.51833,6.28158c-5.39995,5.45505 -12.72844,8.15502 -22.0957,8.15502c-10.74479,0 -18.5141,-1.65305 -23.30793,-4.95914c-3.47139,-2.36937 -5.23464,-5.51015 -5.23464,-9.31216c0,-3.19589 2.97548,-6.83258 8.92644,-11.02029c6.00606,-4.18771 12.23253,-6.94279 18.78961,-8.32032c9.53256,-2.09385 17.02636,-0.99183 22.48141,3.41629c2.09386,1.65304 3.6918,3.6367 4.79383,5.95096c0.93673,1.92855 1.43264,3.7469 1.43264,5.39995c0,1.10203 -0.38571,2.58976 -1.26734,4.40811M235.39162,129.9964c-0.2204,2.53467 -0.38571,5.45505 -0.55102,8.48563c-0.11021,1.92855 -0.11021,4.84893 -0.11021,8.70604c-10.30398,1.26734 -17.08146,2.09386 -20.38755,2.53467c-5.06933,0.71632 -8.54073,1.32244 -10.41418,1.87345c-2.03875,0.60611 -3.30609,1.43264 -3.802,2.53467c-0.33061,0.71632 -0.49591,2.31426 -0.49591,4.73873c0,0.33061 0.1102,1.65304 0.2755,3.96731c0.16531,2.31427 0.27551,4.02241 0.27551,5.12444c0,0.2204 -0.1102,0.88162 -0.33061,1.92855c-0.2204,1.21223 -0.27551,2.20406 -0.16531,3.08569c0.2204,2.75508 1.81835,4.13261 4.73873,4.13261c0.66122,0 2.86527,-1.26733 6.72238,-3.802c4.13261,-2.69997 6.99789,-4.29792 8.70604,-4.73873c0.11021,0.60611 0.38571,2.31426 0.77142,5.17954c0.33061,2.64487 0.71632,4.73873 1.10203,6.28157c0.2204,1.04693 0.49591,1.92856 0.82653,2.75508c-2.47957,1.37753 -4.84893,2.86528 -6.99789,4.40812c-4.13261,2.92038 -6.22647,5.01423 -6.22647,6.33667l0.55101,2.09386c0.71632,1.37753 2.03876,2.09385 3.85711,2.09385c0.0551,0 4.35302,-2.20406 12.89375,-6.61218c8.65094,-4.46322 13.27946,-6.83259 13.83048,-6.99789c1.59795,6.50197 2.64487,11.79172 3.19589,15.97944c-4.51832,2.31427 -12.12232,5.39995 -22.75691,9.25705c-10.79989,3.96731 -19.45083,7.49381 -25.8426,10.63459c-0.1102,-0.27551 -0.93672,-2.75508 -2.36937,-7.4387c-0.0551,-0.11021 -0.05511,-0.27551 -0.11021,-0.38572c0.66122,-0.49591 1.43264,-1.04693 2.20406,-1.65304c3.52649,-2.97548 5.28975,-5.51015 5.28975,-7.60401c0,-2.14896 -3.802,-5.17954 -11.3509,-9.14684h-0.05511c0.1102,-0.33061 0.11021,-0.66122 0.11021,-1.04693c0,-0.55102 -0.27551,-2.47957 -0.82653,-5.78566c-0.55102,-3.30609 -0.82652,-5.17954 -0.82652,-5.56525c-0.33061,-1.04693 -0.71632,-1.98365 -1.10203,-2.75508c2.58977,-1.98365 4.73873,-4.29792 6.50198,-6.94279c3.25099,-4.84893 4.84893,-10.30398 4.84893,-16.25494c0,-2.25916 -0.44081,-4.73873 -1.26733,-7.4938c-1.04693,-3.41629 -2.58977,-6.55707 -4.57343,-9.31215c-1.32243,-1.87345 -2.81018,-3.4714 -4.40812,-4.84893c0.2755,-0.77142 0.49591,-1.59795 0.60612,-2.53467c0.16531,-4.79383 0.44081,-7.76931 0.93672,-8.81624c3.4163,0.33061 8.32032,0.77142 14.7672,1.32243c5.23464,0.49591 8.81624,0.88162 10.74479,1.26734l21.21408,0.16531v4.84893M346.86195,114.56798c-5.95096,0.44081 -11.29581,1.26734 -16.03454,2.42447c-5.95096,1.59794 -8.98155,3.41629 -8.98155,5.45504c0,0.2755 1.26734,3.03059 3.7469,8.26523c2.31427,4.90403 3.91221,8.59583 4.84893,10.9652c-0.44081,1.98365 -0.88162,5.06934 -1.43264,9.25705c-0.93672,7.3285 -1.37754,12.83865 -1.37754,16.47535c0,1.76325 0.82653,3.03058 2.47957,3.91221c2.86528,1.48774 8.37543,2.20406 16.53045,2.20406c7.27339,0 13.66517,-1.65305 19.17532,-4.84893l0.05511,-0.0551c0.60611,0.33061 1.26733,0.49591 1.98365,0.49591c2.36937,0 3.74691,-1.21223 4.18772,-3.58159c0.11021,-0.66122 0.1653,-1.48774 0.11021,-2.47957c0.66122,-0.99183 0.99183,-1.92855 0.99183,-2.81017c0,-0.82652 -0.22041,-1.54284 -0.55102,-2.25916c-0.1653,-0.38571 -0.44081,-0.77142 -0.71632,-1.04693c-0.0551,-0.49591 -0.11021,-1.04692 -0.1653,-1.59794c-0.27551,-2.81017 -0.49592,-5.06934 -0.77142,-6.77749v-25.01608c0.44081,0.55102 0.88162,1.04693 1.26734,1.59794c5.62035,7.71421 9.14685,13.33457 10.63459,16.91616c1.59794,3.8571 2.42446,8.81624 2.42446,14.8774c0,4.68363 -1.21224,9.31216 -3.6367,13.94068c-2.36937,4.68363 -5.78565,8.87134 -10.13867,12.56314c-3.96731,3.41629 -8.32032,6.06116 -13.00395,8.09992c1.87345,0.38571 0.0551,1.04693 -5.39995,1.98365c-0.11021,0.0551 -0.1653,0.0551 -0.2755,0.0551c-1.48774,0.44081 -2.97548,0.82652 -4.57343,1.15713c-0.0551,-0.11021 -0.11021,-0.2204 -0.1653,-0.33061c-3.7469,0.66122 -5.62035,1.10203 -5.62035,1.21223c-2.25916,0.2204 -4.62853,0.33061 -7.053,0.33061c-3.58159,0 -7.2734,-0.33061 -11.1305,-0.99183c-3.80201,-0.66122 -6.06116,-0.99182 -6.77748,-0.99182c-3.6367,-0.0551 -6.50198,-0.60611 -8.59583,-1.70815c-0.99183,-0.55102 -1.70815,-0.88163 -2.20406,-1.10203c-0.49591,-0.2204 -1.10203,-0.38571 -1.70815,-0.44081c-3.30609,-8.09992 -5.95097,-14.43659 -8.04482,-19.01002c1.10203,0.27551 2.47957,0.60612 4.29792,1.04693c3.30609,0.82652 5.39995,1.26734 6.33667,1.26734c1.81835,0 3.19589,-0.66122 4.13261,-1.98365c0.71632,-1.04693 1.21223,-2.69997 1.54284,-5.01424c0.27551,-2.86528 0.44082,-5.06934 0.60612,-6.61218c0.27551,-2.81017 0.71632,-5.01423 1.26734,-6.72238c0.38571,-1.15713 1.15713,-4.68363 2.25916,-10.52439c1.21223,-6.17137 1.76325,-10.02847 1.76325,-11.57131c0,-0.77142 -0.16531,-1.54284 -0.55102,-2.25916c-0.66122,-1.37753 -1.87345,-2.09386 -3.58159,-2.09386c-1.37753,0 -5.34484,0.49591 -11.79172,1.43264c-5.95096,0.88163 -10.35908,1.59795 -13.27946,2.14896v-0.27551c0,-0.0551 0.93673,-4.0775 2.86528,-12.12232c1.81835,-7.4938 2.75508,-12.12233 2.81018,-13.94068c0.0551,0 0.1102,0 0.1653,-0.0551c0.60611,-0.2755 1.65304,-0.71632 3.14078,-1.43264c3.36119,-1.37753 7.82441,-2.09385 13.33456,-2.09385c13.61007,0 26.44871,2.86527 38.62615,8.59583c2.03875,0.93672 4.02241,1.92855 5.84076,2.97548c-4.73873,1.26734 -8.04481,1.98365 -9.86316,2.09386M504.17671,110.43537c4.84893,4.90403 8.70604,10.02848 11.57132,15.37332c2.97548,5.56525 4.46322,10.57949 4.46322,15.04271c0,4.29791 -0.99183,8.48563 -2.97548,12.50804c-1.87345,3.8571 -4.95914,8.15502 -9.31216,12.94885c-1.70815,1.92855 -4.57342,4.02241 -8.48563,6.39177c-4.62853,2.75508 -9.31215,4.90403 -14.10598,6.39177c-4.90404,1.54284 -9.80806,2.64487 -14.65699,3.30609c-2.31426,0.33061 -5.67545,0.60612 -10.08357,0.88163c-2.92038,0.1653 -4.84893,0.44081 -5.78565,0.88162c-1.26734,0.55102 -1.87346,1.70815 -1.87346,3.36119c0,0.66122 0.88162,4.13261 2.64488,10.35908c1.76325,6.33667 3.08568,10.63459 3.96731,13.00395c-3.58159,1.04693 -9.91827,2.69997 -19.01002,4.95913c-9.80806,2.36936 -16.14474,3.91221 -19.17532,4.68363c-0.22041,-5.51015 -0.49592,-9.86317 -0.93673,-13.05905c-0.0551,-0.49591 -0.1102,-0.93673 -0.2204,-1.37754c3.6918,-1.48774 8.04481,-3.25099 12.94885,-5.17954c8.43053,-3.6918 12.61825,-6.66728 12.61825,-8.98154c0,-1.15713 -0.82653,-8.26522 -2.42447,-21.37938c-0.0551,-0.27551 -0.0551,-0.60612 -0.1102,-0.88163c0.33061,0.0551 0.71632,0.0551 1.10203,0.0551c0.71632,0 2.75507,-0.60611 6.17136,-1.92855c4.18772,-1.59795 8.09992,-3.4714 11.73662,-5.51015c11.0754,-6.17137 16.58555,-12.61824 16.58555,-19.23042c0,-1.59795 -0.38571,-3.5816 -1.26734,-5.84076c-1.26734,-3.25099 -3.14079,-6.17137 -5.62036,-8.81624c-7.27339,-7.71421 -18.6794,-11.57131 -34.16292,-11.57131c-5.39995,0 -11.35091,1.15713 -17.79778,3.52649c-4.35302,1.54284 -7.4387,2.97548 -9.31215,4.18771v-0.44082c-0.0551,-2.14896 -0.1653,-5.17954 -0.27551,-9.03664c-0.1653,-4.02241 -0.22041,-6.94279 -0.27551,-8.76114c0,-1.04693 -0.1653,-2.47957 -0.44081,-4.35302c-0.27551,-1.98365 -0.44082,-3.41629 -0.49592,-4.35301c-0.11021,-1.10203 -0.33061,-1.98365 -0.71632,-2.64487c0.71632,-0.16531 1.37754,-0.44081 2.03876,-0.77142c0.82652,-0.44081 2.14896,-1.26734 4.02241,-2.42446c4.40812,-2.36937 11.57132,-3.5265 21.43448,-3.5265c9.80806,0 20.38755,1.37754 31.84866,4.18772c16.36514,4.02241 28.54258,10.02847 36.36699,18.01818z" fill="url(#color-1)" stroke="none" stroke-width="1"/><path d="M426.24712,199.01523c0.23904,-0.13567 13.21062,-8.8804 14.71414,-8.71089c1.23449,0.13918 11.0065,-3.79763 12.2401,-3.65964c0.55628,2.81515 14.62098,25.50232 9.26564,27.92203c-0.12548,0.0567 -21.25009,6.71402 -21.37372,6.74051c-4.62852,0.99183 -20.83974,4.52321 -20.89484,4.52321c-0.04423,0 -2.22217,-6.84597 -2.04791,-7.76814c0.47468,-2.51194 0.58975,-3.95084 0.85152,-6.4938c0.1653,-1.70815 -1.80142,-2.62414 -1.69121,-3.67107c1.59795,-0.60611 -0.37475,-2.88272 1.7742,-3.59903z" fill="#c00000" stroke="none" stroke-width="1"/><path d="M242.55482,210.16907c2.03876,-1.15713 4.79383,-2.31427 8.21013,-3.30609c0.66122,3.5265 1.59794,8.21012 2.86527,14.10598c-1.98365,0.88163 -5.67545,1.87345 -11.0754,3.03058c-4.62852,0.99183 -8.92644,1.76325 -13.05905,2.31426c-0.11021,0.0551 -0.16531,0.0551 -0.22041,0.0551c-0.0551,0 -0.0551,-0.2755 -0.0551,-0.82652c0,-0.44081 0.16531,-2.53467 0.55102,-6.28157c0.1653,-1.70815 0.2755,-3.08568 0.38571,-4.13261c1.59795,-0.60611 3.4714,-1.26734 5.62035,-1.98365c2.64487,-0.93672 4.95913,-1.92855 6.77748,-2.97548M187.89414,149.77783c0.82652,2.20406 1.21223,4.13261 1.21223,5.89586c0,1.92855 -0.77142,4.68363 -2.36937,8.26523c-1.70815,3.80201 -3.30609,6.17137 -4.90403,7.10809c-1.92855,1.15713 -4.57342,2.42446 -7.82441,3.8571c-3.802,1.59795 -6.55708,2.81018 -8.26523,3.5265c-6.11626,2.64487 -9.14684,4.79383 -9.14684,6.33667c0,1.54284 1.04693,3.08568 3.19589,4.68363c1.70815,1.26734 4.35301,2.69997 8.04482,4.40812c2.14896,0.99183 5.62036,2.58978 10.41419,4.68363c4.24281,1.92855 7.71421,3.7469 10.30398,5.45505c-2.92038,2.31427 -6.17137,5.06933 -9.75297,8.32032c-3.30609,3.08569 -6.39177,6.00606 -9.09175,8.76114c-1.37753,-1.26734 -6.83259,-6.99789 -16.47535,-17.24677c-7.4938,-7.98971 -11.79172,-11.95702 -12.83865,-11.95702c-2.69998,0 -4.02241,1.54284 -4.02241,4.57342c0,1.54284 1.48774,5.84076 4.40812,12.94885c1.48774,3.58159 2.97548,7.2183 4.57342,11.0203c-1.48774,0.11021 -4.51832,0.55102 -9.20195,1.26734c-4.29792,0.66122 -6.88769,0.99182 -7.71421,0.99182c-0.55101,0 -0.77142,-0.05509 -0.60612,-0.1653c0.2204,-0.11021 0.33061,-0.16531 0.27551,-0.16531c-0.11021,-0.66122 -1.54284,-6.99789 -4.29792,-19.01001c-1.70815,-7.4387 -2.75507,-13.66517 -3.14079,-18.62431c-0.77142,-8.87134 -1.32243,-15.26311 -1.65304,-19.23042c-0.55101,-6.72238 -0.82653,-12.83865 -0.82653,-18.4039c0,-1.92855 5.45505,-4.29792 16.25494,-7.10809c2.75507,-0.71632 9.14685,-2.20406 19.28553,-4.35301c13.11415,-2.09385 22.86712,0 29.20379,6.33667c2.20406,2.20406 3.85711,4.84893 4.95914,7.82441M140.34155,151.59618c-3.19588,0.88163 -4.95913,1.43264 -5.28974,1.43264c-3.19588,1.04693 -4.79383,2.64487 -4.79383,4.68363c0,0.82652 0.55101,2.09386 1.59794,3.7469c0.99182,1.65304 1.54284,2.92038 1.54284,3.7469c0,0.11021 0,0.60612 -0.0551,1.59795c0,1.10203 0.11021,2.09385 0.33061,2.97548c0.66122,2.75508 2.31426,4.13261 4.95913,4.13261c0.1653,0 2.42447,-0.66121 6.77749,-1.92855c4.84893,-1.43264 8.09992,-2.36937 9.80806,-2.75508c3.08568,-0.77142 5.17954,-2.09386 6.22647,-3.96731c0.60612,-1.10203 0.93673,-2.86527 0.93673,-5.17954c0,-2.81017 -0.55102,-4.90403 -1.65305,-6.28157c-2.31427,-2.92038 -6.88769,-4.40812 -13.77537,-4.40812c-1.87345,0.77142 -4.07751,1.48774 -6.61218,2.20406M243.98746,136.05756c2.03876,1.43264 6.22647,2.20406 12.50804,2.20406c7.10809,0 11.95702,-0.44082 14.65699,-1.26734c0.27551,0 0.49592,0.38571 0.66122,1.15713c0.33061,1.43264 0.93672,3.03059 1.81835,4.73873c2.69997,5.12444 4.40812,8.26523 5.12444,9.53256c1.10203,1.92855 2.58978,5.06933 4.46322,9.42235c1.92855,4.62852 3.36119,7.82441 4.35301,9.58766c2.92038,5.34484 5.67546,11.79172 8.32032,19.23042c1.54284,4.24282 3.5816,10.52439 6.17137,18.78961c-3.41629,1.43264 -7.4938,2.92038 -12.23253,4.57342c-4.29791,1.48774 -7.2734,2.42446 -8.98154,2.86527c-0.38571,-1.04693 -0.99183,-3.25099 -1.81835,-6.66728c-0.99183,-4.02241 -1.76325,-6.94279 -2.31427,-8.76114c-2.20406,-7.2183 -4.68362,-10.85499 -7.4387,-10.85499c-0.49591,0 -2.09385,0.55102 -4.84893,1.54284c-2.97548,1.10203 -5.45505,1.70815 -7.54891,1.92855c-1.92855,0.2204 -3.41629,0.55102 -4.57342,1.04693c-0.1653,-0.60611 -0.27551,-1.26734 -0.44081,-1.98365c-1.54284,-6.94279 -2.69998,-12.01213 -3.4163,-15.15291c0.1653,-2.69997 -1.70814,-3.7469 -5.73055,-3.19588c-1.43264,0.1653 -3.08568,0.55102 -4.90403,1.15713c0.0551,-0.66122 0.0551,-1.37753 0,-2.14896l-0.0551,-1.04693c0.49591,-1.81835 1.04693,-3.96731 1.59795,-6.39177c0.77142,-3.36119 1.43264,-6.94279 2.03875,-10.74479c0.0551,-0.27551 0.11021,-0.60612 0.16531,-0.88162c0.0551,-0.0551 0.1653,-0.0551 0.2204,-0.1102c0.82652,-0.44081 1.37754,-1.04693 1.65304,-1.76325c0.1653,-0.44081 0.2204,-1.10203 0.2204,-2.09386c-0.1653,-1.98365 -0.2755,-3.8571 -0.38571,-5.62035c-0.1653,-3.4714 -0.27551,-6.17136 -0.16531,-7.98971c0,-0.55102 0.0551,-1.15713 0.11021,-1.87345c0.2204,0.33061 0.49591,0.55102 0.77142,0.77142M249.167,177.43878c0.55102,1.15713 2.03876,1.70815 4.40812,1.65304c1.76325,0 4.35301,-0.27551 7.76931,-0.88163c3.4714,-0.55102 6.11626,-0.88162 7.93462,-0.88162c2.47957,0 3.7469,-1.65305 3.7469,-4.84893c0,-0.93672 -0.77141,-2.81018 -2.36936,-5.73056c-1.59795,-2.92038 -3.36119,-5.73055 -5.34484,-8.43052c-2.25916,-3.08569 -4.13261,-5.17954 -5.67545,-6.28157c-1.81835,-1.26734 -2.92038,-1.04693 -3.30609,0.77142c-0.71632,3.5265 -1.15714,5.39995 -1.21224,5.67546c-0.44081,2.14896 -0.99182,3.9673 -1.54284,5.51014c-0.38571,1.10203 -1.26734,3.03059 -2.69997,5.78566c-1.21223,2.53467 -1.81835,4.46322 -1.81835,5.78565c0,0 -0.0551,0.22041 -0.1102,0.60612c-0.0551,0.49591 0.0551,0.88163 0.2204,1.26734M386.09421,180.68977c0.60611,0 6.88769,-4.35302 18.89981,-13.05905c15.31822,-11.1305 24.35485,-17.63248 27.05483,-19.50593l0.1653,0.82653c0.93673,6.77749 1.92855,14.21618 2.97548,22.37121c1.37754,10.63459 2.03876,16.42024 2.03876,17.52227c0,0.0551 -7.05299,3.36119 -21.04877,9.80806c-0.22041,0 -0.49592,-0.0551 -0.77142,-0.0551c-1.15713,0 -1.98365,0.55101 -2.53467,1.65304c-4.90404,2.25916 -10.57949,4.90403 -17.02636,7.87951c-5.67545,2.47957 -9.86316,4.29792 -12.56314,5.45505c-4.68363,1.98365 -8.43053,3.3612 -11.18561,4.18771c-2.64487,0.77142 -3.9122,2.42446 -3.9122,5.01423c0,0.11021 0.0551,1.21224 0.2204,3.30609c0.11021,1.26734 0.0551,2.31426 -0.1653,3.08568v30.58133l-0.44081,0.1653c-8.15502,-3.91221 -14.38149,-6.83258 -18.6794,-8.81624c-7.3836,-3.41629 -14.7121,-6.44687 -21.9304,-9.20195c2.42446,-3.25099 7.87952,-9.42236 16.42025,-18.4039c7.49381,-7.87951 11.2407,-12.12232 11.2407,-12.61824c-0.99183,-3.03058 -2.14896,-6.06116 -3.36119,-9.03664c6.83258,-1.87345 13.11415,-4.46322 18.7896,-7.76932c6.61218,-3.9122 11.79172,-8.37542 15.59373,-13.38966c0.0551,0 0.1102,0 0.22041,0M362.73118,120.07813v31.24255c0.1653,0.66122 0.22041,2.09385 0.22041,4.29791c0,1.70815 0,3.08569 0,4.18772c-0.55102,0.44081 -0.88162,0.71632 -0.88162,0.71632c-4.40812,3.08569 -9.69787,4.62852 -15.86923,4.62852c-0.38571,0 -0.88162,0 -1.54284,-0.0551c-0.22041,-0.44081 -0.55101,-0.99183 -0.93672,-1.65305c-0.11021,-0.1653 -0.22041,-0.3306 -0.33061,-0.49591c0.0551,-0.0551 0.0551,-0.1653 0.0551,-0.2204v-0.0551c0.38571,-0.2204 0.71632,-0.55102 0.99182,-0.99183c0.49592,-0.77142 0.77143,-1.70815 0.77143,-2.69997c0,-0.44081 -0.88162,-3.08568 -2.58977,-7.82441c-1.54284,-4.29791 -2.69998,-7.43871 -3.4714,-9.31216c-0.88162,-2.25916 -1.87345,-5.17954 -2.86528,-8.76113c-1.32244,-4.68363 -2.20405,-7.5489 -2.53466,-8.59583c3.85711,-0.49591 9.03664,-1.21223 15.53862,-2.25916c3.5265,-0.55102 7.98971,-1.26734 13.38966,-2.14896z" fill="url(#color-2)" stroke="none" stroke-width="1"/><path d="M245.97117,129.11476c0.17941,0 0.39255,0 0.63833,-0.00056c-0.75431,0.1653 -1.50831,0.33388 -2.26265,0.50351c-0.03551,0.00798 -0.071,0.01598 -0.1065,0.02398c0.50417,-0.35128 1.08822,-0.52693 1.73082,-0.52693z" fill="#000000" stroke="none" stroke-width="1"/><path d="M504.17671,110.43538c4.84893,4.90403 8.70604,10.02848 11.57132,15.37332c2.97548,5.56525 4.46322,10.57949 4.46322,15.04271c0,4.29791 -0.99183,8.48563 -2.97548,12.50804c-1.82959,3.76681 -4.81533,7.95403 -9.00852,12.61299c-1.10372,-1.0164 -2.17695,-2.06131 -3.15391,-3.19314c-2.47028,-2.47713 -5.01977,-4.89182 -7.52983,-7.32686c-2.52714,-2.4516 -5.10151,-4.81072 -7.78065,-7.09597c-2.8662,-1.79178 -5.43635,-4.49981 -8.1429,-6.58661c-1.11469,-0.85945 -2.23263,-1.69519 -3.36733,-2.50225c-0.18291,-0.65455 -0.41172,-1.34001 -0.68993,-2.0529c-1.26734,-3.25099 -3.14079,-6.17137 -5.62036,-8.81624c-7.27339,-7.71421 -18.6794,-11.57131 -34.16292,-11.57131c-5.39995,0 -11.35091,1.15713 -17.79778,3.52649c-3.1373,1.11195 -5.6163,2.16667 -7.45763,3.12288c-0.30155,-0.03465 -0.60438,-0.06651 -0.90873,-0.0952c-0.3236,-0.07141 -0.64741,-0.1434 -0.97146,-0.21555c-0.05969,-2.06188 -0.15476,-4.7743 -0.24984,-8.10188c-0.1653,-4.02241 -0.22041,-6.94279 -0.27551,-8.76114c0,-1.04693 -0.1653,-2.47957 -0.44081,-4.35302c-0.27551,-1.98365 -0.44082,-3.41629 -0.49592,-4.35301c-0.11021,-1.10203 -0.33061,-1.98365 -0.71632,-2.64487c0.71632,-0.16531 1.37754,-0.44081 2.03876,-0.77142c0.82652,-0.44081 2.14896,-1.26734 4.02241,-2.42446c4.40812,-2.36937 11.57132,-3.5265 21.43448,-3.5265c9.80806,0 20.38755,1.37754 31.84866,4.18772c16.36514,4.02241 28.54258,10.02847 36.36699,18.01818z" fill="#ff5a5a" stroke="none" stroke-width="1"/><path d="M410.66949,124.54135v-0.44082c-0.00349,-0.13612 -0.0072,-0.27578 -0.01112,-0.41895c0.2933,0.06493 0.58644,0.12961 0.87943,0.1937c0.06946,0.00668 0.13884,0.01351 0.20814,0.0205c-0.39498,0.22136 -0.75371,0.43673 -1.07645,0.64557z" fill="#ff9900" stroke="none" stroke-width="1"/><path d="M346.86195,114.56799c-5.95096,0.44081 -11.29581,1.26734 -16.03454,2.42447c-5.05686,1.35786 -8.00496,2.87487 -8.77669,4.55102c-1.57271,0.0387 -3.14504,0.08723 -4.71605,0.1594c-3.49571,0.16059 -6.99142,0.28 -10.48899,0.39262c-3.49999,0.1127 -6.9974,0.21818 -10.496,0.37234c-1.52555,0.06728 -3.05097,0.16759 -4.57583,0.28097c0.30557,-1.28237 0.64995,-2.72346 1.03357,-4.32371c1.81835,-7.4938 2.75508,-12.12233 2.81018,-13.94068c0.0551,0 0.1102,0 0.1653,-0.0551c0.60611,-0.2755 1.65304,-0.71632 3.14078,-1.43264c3.36119,-1.37753 7.82441,-2.09385 13.33456,-2.09385c13.61007,0 26.44871,2.86527 38.62615,8.59583c2.03875,0.93672 4.02241,1.92855 5.84076,2.97548c-4.73873,1.26734 -8.04481,1.98365 -9.86316,2.09386z" fill="#ff5a5a" stroke="none" stroke-width="1"/><path d="M235.39162,129.99641c-0.05225,0.60088 -0.1014,1.22343 -0.14819,1.86398c-0.36465,0.09626 -0.72923,0.19308 -1.09375,0.29043c-3.39241,0.86025 -6.78269,1.72842 -10.17228,2.59973c-3.3904,0.87181 -6.72159,1.95159 -10.10753,2.84404c-3.39426,0.89465 -6.78369,1.60206 -10.24596,2.17287c-3.38143,0.69756 -6.77623,1.24366 -10.16887,1.86498c-0.58545,-1.05777 -1.22765,-2.07276 -1.9242,-3.04019c-1.32243,-1.87345 -2.81018,-3.4714 -4.40812,-4.84893c0.2755,-0.77142 0.49591,-1.59795 0.60612,-2.53467c0.16531,-4.79383 0.44081,-7.76931 0.93672,-8.81624c3.4163,0.33061 8.32032,0.77142 14.7672,1.32243c5.23464,0.49591 8.81624,0.88162 10.74479,1.26734l21.21408,0.16531v4.84893z" fill="#ff5a5a" stroke="none" stroke-width="1"/><path d="M463.34651,257.55636c-1.10203,2.31426 -2.58978,4.40813 -4.51833,6.28158c-5.39995,5.45505 -12.72844,8.15502 -22.0957,8.15502c-10.74479,0 -18.5141,-1.65305 -23.30793,-4.95914c-3.47139,-2.36937 -5.23464,-5.51015 -5.23464,-9.31216c0,-3.19589 2.97548,-6.83258 8.92644,-11.02029c6.00606,-4.18771 12.23253,-6.94279 18.78961,-8.32032c9.53256,-2.09385 17.02636,-0.99183 22.48141,3.41629c2.09386,1.65304 3.6918,3.6367 4.79383,5.95096c0.93673,1.92855 1.43264,3.7469 1.43264,5.39995c0,1.10203 -0.38571,2.58976 -1.26734,4.40811z" fill="#c00000" stroke="none" stroke-width="1"/><path d="M220.89995,209.34258c-10.79989,3.96731 -19.45083,7.49381 -25.8426,10.63459c-0.1102,-0.27551 -0.93672,-2.75508 -2.36937,-7.4387c-0.0551,-0.11021 -0.05511,-0.27551 -0.11021,-0.38572c0.66122,-0.49591 1.43264,-1.04693 2.20406,-1.65304c3.52649,-2.97548 5.28975,-5.51015 5.28975,-7.60401c0,-0.31057 -0.07941,-0.63956 -0.23807,-0.98712c2.17566,0.51823 4.36195,0.99241 6.54433,1.48658c3.41631,0.80566 6.8314,1.52021 10.27999,2.17378c3.19654,0.60804 6.38857,1.26876 9.59923,1.7998c-1.69073,0.63383 -3.47654,1.29178 -5.35711,1.97385z" fill="#c00000" stroke="none" stroke-width="1"/><path d="M118.19073,147.07787c0,-1.92855 5.45505,-4.29792 16.25494,-7.10809c2.75507,-0.71632 9.14685,-2.20406 19.28553,-4.35301c13.11415,-2.09385 22.86712,0 29.20379,6.33667c0.43505,0.43505 0.84863,0.88727 1.24074,1.35582c-0.40269,0.07066 -0.80545,0.14094 -1.20828,0.21082c-3.44837,0.59821 -6.88668,1.24689 -10.33796,1.82947c-3.45512,0.58322 -6.87817,1.36259 -10.28527,2.1822c-3.31796,0.79816 -6.65844,1.48931 -9.98891,2.23313c-1.60744,-0.24805 -3.40752,-0.37275 -5.40157,-0.37275l-6.61218,2.20406c-3.19588,0.88163 -4.95913,1.43264 -5.28974,1.43264c-1.37837,0.45154 -2.4595,1.00556 -3.24338,1.65326c-0.04671,0.01307 -0.09342,0.02613 -0.14012,0.0392c-3.30188,1.16788 -6.60704,2.32327 -9.91992,3.4596c-1.068,0.36632 -2.12136,0.77767 -3.16445,1.21709c-0.26214,-4.38089 -0.39321,-8.48156 -0.39321,-12.3201z" fill="#ff5a5a" stroke="none" stroke-width="1"/><path d="M167.8372,193.85904c2.14896,0.99183 5.62036,2.58978 10.41419,4.68363c4.24281,1.92855 7.71421,3.7469 10.30398,5.45505c-2.92038,2.31427 -6.17137,5.06933 -9.75297,8.32032c-3.30609,3.08569 -6.39177,6.00606 -9.09175,8.76114c-1.37753,-1.26734 -6.83259,-6.99789 -16.47535,-17.24677c-7.4938,-7.98971 -11.79172,-11.95702 -12.83865,-11.95702c-2.69998,0 -4.02241,1.54284 -4.02241,4.57342c0,1.54284 1.48774,5.84076 4.40812,12.94885c1.48774,3.58159 2.97548,7.2183 4.57342,11.0203c-1.48774,0.11021 -4.51832,0.55102 -9.20195,1.26734c-4.29792,0.66122 -6.88769,0.99182 -7.71421,0.99182c-0.55101,0 -0.77142,-0.05509 -0.60612,-0.1653c0.2204,-0.11021 0.33061,-0.16531 0.27551,-0.16531c-0.11021,-0.66122 -1.54284,-6.99789 -4.29792,-19.01001c-1.70815,-7.4387 -2.75507,-13.66517 -3.14079,-18.62431c-0.27522,-3.16506 -0.52239,-6.0145 -0.7415,-8.55083c2.11521,0.74777 4.23205,1.49097 6.35823,2.20658c3.31043,1.1142 6.52561,2.49006 9.7385,3.86049c3.23477,1.37976 6.47971,2.63662 9.78991,3.82378c3.29839,1.18293 6.61157,2.32615 9.96648,3.33988c2.7292,0.82467 5.44183,1.70476 8.1608,2.56342c1.13907,0.59599 2.43496,1.22823 3.89449,1.90353z" fill="#c00000" stroke="none" stroke-width="1"/><path d="M368.40662,226.0934c0.11021,1.26734 0.0551,2.31426 -0.1653,3.08568v30.58133l-0.44081,0.1653c-8.15502,-3.91221 -14.38149,-6.83258 -18.6794,-8.81624c-7.3836,-3.41629 -14.7121,-6.44687 -21.9304,-9.20195c2.42446,-3.25099 7.87952,-9.42236 16.42025,-18.4039c0.47053,-0.49475 0.92629,-0.97516 1.36728,-1.44121c2.35893,0.19362 4.7182,0.38239 7.07795,0.5672c3.4896,0.27328 6.98238,0.48202 10.47184,0.75631c1.90332,0.14961 3.80698,0.28435 5.71191,0.39803c0.0347,0.54684 0.0883,1.31665 0.16668,2.30945z" fill="#c00000" stroke="none" stroke-width="1"/><path d="M362.73118,120.07814v0.12634c-0.25446,-0.00366 -0.50893,-0.0073 -0.76342,-0.01076c0.23429,-0.03821 0.47041,-0.07673 0.70834,-0.11557z" fill="#ff0000" stroke="none" stroke-width="1"/><path d="M242.55482,210.16908c0.23904,-0.13567 0.48793,-0.27134 0.74658,-0.40675c1.50091,0.18892 3.0025,0.3725 4.50602,0.54201c1.23449,0.13918 2.46804,0.27929 3.70164,0.41728c0.56931,2.88111 1.27082,6.29135 2.12117,10.24734c-1.98365,0.88163 -5.67545,1.87345 -11.0754,3.03058c-4.62852,0.99183 -8.92644,1.76325 -13.05905,2.31426c-0.11021,0.0551 -0.16531,0.0551 -0.22041,0.0551c-0.0551,0 -0.0551,-0.2755 -0.0551,-0.82652c0,-0.44081 0.16531,-2.53467 0.55102,-6.28157c0.1653,-1.70815 0.2755,-3.08568 0.38571,-4.13261c1.59795,-0.60611 3.4714,-1.26734 5.62035,-1.98365z" fill="#c00000" stroke="none" stroke-width="1"/><path d="M436.89779,229.17909c0.88162,-0.71632 1.59795,-1.04693 2.14896,-1.21223c3.8571,0 6.94279,0.27551 9.31215,0.71632c1.32243,0.27551 2.97548,0.71632 4.84893,1.26734c4.57342,1.21223 8.87134,3.7469 12.94885,7.60401c1.87345,1.70815 3.5265,4.24282 4.84893,7.49381c1.21224,3.08569 1.87345,5.84076 1.87345,8.21012c0,1.70815 -0.55102,3.96731 -1.70815,6.61218c-1.43264,3.30609 -3.36119,6.33667 -5.84076,9.09175c-6.94279,7.65911 -16.47535,11.46111 -28.54257,11.46111c-15.04271,0 -25.51199,-3.30608 -31.51806,-9.91826c-3.36119,-3.6918 -5.01423,-7.87952 -5.01423,-12.61825c0,-3.03058 0.60611,-5.51015 1.70814,-7.4938c1.32243,-2.31427 3.96731,-5.12444 7.93462,-8.43053c2.86528,-2.36936 7.65911,-4.73873 14.49169,-7.21829c1.65305,-0.66122 3.96731,-1.43264 6.83259,-2.42446c2.14896,-0.71632 3.41629,-1.26734 3.9122,-1.65305c0.27551,-0.2204 0.88162,-0.71632 1.76324,-1.48774M464.61384,253.14824c0,-1.65304 -0.49592,-3.4714 -1.37754,-5.34484c-1.15713,-2.36936 -2.75508,-4.29792 -4.79383,-5.95096c-5.51015,-4.40812 -13.00395,-5.51014 -22.48141,-3.41629c-6.55708,1.37753 -12.83864,4.13261 -18.7896,8.32032c-5.95096,4.18771 -8.92645,7.82441 -8.92645,11.0203c0,3.80201 1.76325,6.88768 5.23465,9.31215c4.84893,3.30609 12.56314,4.95914 23.30793,4.95914c9.36726,0 16.75085,-2.75507 22.0957,-8.15502c1.87345,-1.92855 3.36119,-4.02241 4.46322,-6.33668c0.82652,-1.81835 1.26734,-3.30608 1.26734,-4.40811M528.58667,140.74119c0,11.1305 -3.91221,20.82836 -11.46111,28.98339c-11.0203,11.57131 -28.98338,18.95492 -53.77905,22.1508c0.38571,1.54284 1.65304,5.62035 3.802,12.28763c1.76325,5.62035 2.64488,8.65094 2.64488,9.25705c0,1.48774 -0.44081,2.64488 -1.26734,3.3612c-0.71632,0.66122 -2.03875,1.21223 -3.9122,1.65304c-5.95096,0.99183 -11.57132,2.25916 -16.75086,3.802c-3.58159,1.10203 -9.53256,2.75508 -17.79779,5.06934c-7.71421,2.14896 -11.62641,3.19589 -11.79172,3.19589c-3.25099,0 -5.06934,-1.81835 -5.34484,-5.51015c-0.11021,-1.15713 -0.05511,-2.64487 0.1653,-4.51832c0.22041,-2.03876 0.33061,-3.25099 0.33061,-3.5816c-0.0551,-1.70815 -0.22041,-4.24282 -0.55102,-7.71421c-1.21224,0.49591 -2.25916,0.99183 -3.19588,1.37754c-3.36119,1.43264 -7.10809,3.14078 -11.18561,5.12444c-4.79383,2.36936 -8.65093,4.24282 -11.51621,5.62035c-2.47956,1.10203 -4.40812,1.98365 -5.78566,2.69997c-2.64487,1.26734 -3.96731,2.20406 -4.02241,2.69997c-0.0551,0.2204 -0.11021,1.04693 -0.1653,2.47957c-0.0551,0.99183 -0.2204,1.81835 -0.44081,2.47957v35.43026c0.11021,0.99183 -0.33061,1.87346 -1.26734,2.69998c-0.99183,0.77142 -2.03876,1.15713 -3.19589,1.15713c-0.49592,0 -4.68363,-1.76325 -12.50804,-5.28975c-8.43053,-3.8571 -14.27129,-6.77748 -17.41207,-8.76113c-2.09386,-1.32244 -4.84893,-2.53467 -8.15502,-3.7469c-3.7469,-1.26734 -6.50197,-2.14896 -8.15502,-2.75508c-2.97548,-0.99183 -5.06934,-1.98365 -6.39177,-2.92038c-1.70815,-1.15713 -2.53467,-2.58977 -2.53467,-4.18771c0,-1.92855 1.76325,-5.06934 5.28974,-9.42236c0.88163,-1.10203 3.25099,-3.7469 6.99789,-7.93462c1.04693,-1.21223 4.40812,-4.46322 10.08358,-9.80806c4.73873,-4.51832 7.10809,-6.99789 7.10809,-7.3836c-0.60611,-1.81835 -1.15713,-3.6367 -1.76324,-5.45505c-3.36119,0.66122 -6.44688,0.99183 -9.25705,0.99183c-11.35091,0 -20.05695,-0.93673 -26.22831,-2.86528c2.25916,5.78565 3.3612,8.98154 3.3612,9.64276c0,1.65304 -0.88162,2.97548 -2.69997,4.07752c-1.21223,0.77142 -4.73873,2.31426 -10.63459,4.62852c-2.25916,0.88163 -6.00606,2.25916 -11.29581,4.13261c-5.73056,2.03876 -8.81624,3.03058 -9.25705,3.03058c-2.69997,0 -5.34485,-4.40812 -7.98972,-13.27946c-1.26734,-4.46322 -2.09385,-7.4938 -2.58977,-9.14684c-0.77142,-2.75508 -1.37754,-4.13261 -1.81835,-4.13261c-1.15713,0 -2.42447,0.2204 -3.802,0.66121c-1.65304,0.60611 -2.92038,1.04693 -3.9122,1.37754c0.2204,1.54284 0.55102,3.41629 0.93672,5.51015c0.27551,1.26734 0.66121,3.14079 1.15713,5.62035c0.33061,1.43264 0.99183,3.52649 2.03876,6.39177c0.99183,2.58977 1.43264,3.96731 1.43264,4.13261c0,2.47957 -1.59795,4.13261 -4.73873,4.90403c-4.57343,0.66122 -8.32032,1.37754 -11.2407,2.09386c-5.89586,1.15713 -10.35908,1.98365 -13.38966,2.47956c-1.65304,0.27551 -3.36119,0.88162 -5.06934,1.76325c-1.43264,0.71632 -2.75508,1.10203 -3.9122,1.10203c-2.03876,0 -3.30609,-0.77142 -3.85711,-2.20406c-0.1653,-0.49591 -0.2755,-1.48774 -0.2755,-2.92038c0,-2.03876 0.55101,-5.89586 1.54284,-11.57131c0.1653,-0.77142 0.33061,-1.48774 0.44082,-2.20406c-3.7469,1.43264 -8.92645,3.4714 -15.59373,6.11627c-8.70603,3.4714 -13.05905,5.17954 -13.11415,5.17954c-3.6918,0 -5.95096,-1.15713 -6.72238,-3.41629c-0.2204,-0.71632 -0.33061,-1.59795 -0.33061,-2.69998c0,-1.26734 0,-1.92855 0,-1.98365c-0.2755,-1.70815 -0.55102,-3.08569 -0.71632,-4.29792c-0.33061,0.27551 -0.60612,0.49591 -0.82652,0.71632c-2.92038,2.92038 -5.56525,5.45505 -7.87951,7.54891c-4.51832,4.02241 -7.4938,6.06116 -8.92645,6.06116c-1.87345,0 -5.01423,-2.25916 -9.36725,-6.88769c-4.35302,-4.95914 -6.77748,-7.71421 -7.4387,-8.37543c-0.0551,0.0551 -0.0551,0.0551 -0.1102,0c0,0.0551 0,0.33061 0,0.88162c0,0.55102 0.44081,1.81835 1.37753,3.7469c0.93672,1.92855 1.37754,3.25099 1.37754,3.91221c0,1.32244 -0.66122,2.31426 -2.03875,2.97548c-2.09386,0.99183 -6.06117,1.48774 -11.84683,1.43264c-1.37754,0 -3.6918,0.3306 -7.05299,1.04692c-3.36119,0.71632 -5.06933,1.04693 -5.06933,1.04693c-5.12444,0 -8.26523,-2.53467 -9.36725,-7.71421c-0.2204,-0.93672 -0.49592,-3.19588 -0.82653,-6.72238c-0.27551,-2.69997 -0.71632,-4.68363 -1.26733,-5.95096c-1.26734,-2.81017 -2.20406,-6.28156 -2.69997,-10.46928c-0.38571,-4.73873 -0.71632,-8.26523 -0.99183,-10.57949c-1.32243,-10.30398 -1.92856,-18.01818 -1.87345,-23.14262c0.38571,-6.11626 0.60612,-12.45293 0.60612,-19.01002c0,-0.38571 -0.22041,-0.99182 -0.71632,-1.87345c-0.49592,-0.82652 -0.77142,-1.37754 -0.77142,-1.65305c0,-3.58159 5.73056,-7.16319 17.19167,-10.68969c9.25705,-2.92038 17.35697,-4.68363 24.35486,-5.34485h14.32639c4.13261,0 7.93462,0.55101 11.29581,1.70814c0.16531,-0.77142 0.2755,-1.65304 0.44081,-2.64487c0.55102,-3.6367 1.04693,-6.44688 1.37753,-8.48563c0.2204,-1.37753 1.21224,-2.58977 2.92038,-3.52649c2.03875,-1.15713 4.18771,-1.26734 6.55708,-0.33061c3.4714,0.66122 8.32032,1.21223 14.6019,1.70815c6.11627,0.44081 9.58766,0.77142 10.35908,0.93672l23.03243,0.16531c3.19589,0.49591 5.17954,1.48774 5.95096,2.97548c0.27551,0.49591 0.44082,1.70815 0.44082,3.52649c0,0.38571 -0.11021,2.25916 -0.44082,5.73055c-0.0551,0.33061 -0.0551,0.66122 -0.1102,0.99183c0.60611,-0.66122 1.37753,-0.99183 2.25916,-0.99183c0.82652,0 2.36936,0 4.51832,-0.0551c2.14896,0 5.28975,-0.0551 9.47746,-0.0551c0.11021,0.11021 0.2204,0.38571 0.2204,0.77142c0,-0.55102 1.54284,-0.82653 4.62852,-0.88163c1.76325,0 4.79383,0 8.98155,0.11021c0.93672,0 1.76325,0.27551 2.42446,0.77142c0.1653,0.11021 0.60612,0.55101 1.26734,1.32243c0.38571,0.44081 0.93672,1.32244 1.54284,2.64488c0.33061,0.71632 0.71632,1.59794 1.21223,2.75507c1.92855,4.24282 3.6367,7.82442 5.23464,10.7448c1.32244,2.53467 3.03059,6.11626 5.12444,10.74479c0.77142,1.76325 1.48774,3.30609 2.09386,4.68363c1.43264,0.11021 3.41629,0.44081 5.95096,0.99183c1.54284,0.33061 3.4714,0.82652 5.67546,1.37753c0.82652,-3.14078 1.76325,-7.87951 2.81018,-14.21618c1.21223,-7.3285 2.09385,-12.12233 2.58977,-14.49169c-2.03876,0.11021 -6.66728,0.82652 -13.83048,2.09385c-6.83258,1.32244 -10.24887,1.92855 -10.30397,1.92855c-2.14896,0 -3.5265,-0.60611 -4.24282,-1.87345c-0.27551,-0.44081 -0.38572,-0.88162 -0.44082,-1.37753c-0.0551,-0.44081 -0.0551,-0.66122 -0.0551,-0.71632c0,-1.70815 0.77142,-5.17954 2.42446,-10.41419c1.76325,-5.17954 2.69997,-8.09991 2.81017,-8.76113c0.1653,-0.66122 0.55102,-2.14896 1.26734,-4.46322c0.60611,-2.20406 1.10203,-3.85711 1.32244,-5.01423c0.27551,-1.48774 0.71632,-2.69998 1.26734,-3.6367c-0.2204,-0.2755 -0.38571,-0.55102 -0.55102,-0.88162c-0.27551,-0.66122 -0.44081,-1.43263 -0.44081,-2.31426c0,-1.59794 1.43263,-3.08569 4.29791,-4.46323c2.92038,-1.43264 6.72239,-2.42446 11.40601,-3.08568c11.46111,-1.59794 22.97732,-0.55101 34.60374,3.19589c8.54073,2.31427 15.97944,5.34484 22.26101,9.09174c2.69997,1.59794 5.23464,3.3612 7.604,5.28975c0.77142,0.2755 1.26734,0.71632 1.54284,1.32243c1.48774,1.32243 2.97548,2.75507 4.35302,4.24281c7.4387,7.98972 12.45294,14.93251 15.04271,20.88347c2.31426,5.28975 3.47139,11.90192 3.47139,19.83654c0,2.92038 -0.3306,5.78566 -0.88162,8.48563c0.66122,-0.49591 1.32243,-1.04693 2.03875,-1.59795c8.09992,-6.61218 13.38966,-10.41418 15.81413,-11.51621c1.54284,-0.71632 4.40812,-2.58977 8.54073,-5.67545c4.79383,-3.58159 8.15502,-5.95096 10.13867,-7.10809c3.6918,-2.25916 6.44687,-3.19589 8.26522,-2.81018c2.20406,0.44081 3.19589,2.86528 2.97548,7.2734c0.22041,2.36936 0.93673,8.37543 2.09386,17.96309c1.04693,-0.60611 2.36936,-1.26734 3.96731,-1.98365c1.32243,-0.60611 3.36119,-1.43264 6.17137,-2.58977c2.42446,-0.99183 4.24282,-1.87345 5.39995,-2.53467c2.53467,-1.48774 5.06934,-3.30608 7.60401,-5.51014c3.30609,-2.86528 4.95914,-5.01424 4.95914,-6.50198c0,-1.81835 -0.66122,-3.7469 -1.98365,-5.73055c-1.43264,-2.14896 -3.41629,-4.13261 -6.00606,-5.84076c-6.33667,-4.24282 -14.5468,-6.33668 -24.68547,-6.33668c-7.49381,0 -14.5468,1.92856 -21.26918,5.84076c-1.48774,0.88163 -3.5265,2.20406 -6.06117,4.02241c-1.70815,1.21223 -2.81018,1.81835 -3.25099,1.81835c-1.87345,0 -3.14078,-0.66123 -3.7469,-2.03876c-0.27551,-0.60611 -0.44081,-1.43264 -0.44081,-2.47957c0.11021,-15.42842 0.33061,-26.99973 0.55102,-34.71394c0.0551,-1.04693 0.27551,-1.92855 0.60611,-2.64487c-0.82652,-0.33061 -1.48774,-0.93673 -1.92855,-1.81835c-0.44081,-0.71632 -0.60612,-1.48774 -0.60612,-2.25916c0,-1.70815 1.59795,-3.4163 4.73873,-5.12444c3.14078,-1.70815 7.27339,-3.08568 12.45293,-4.18771c12.28764,-2.64487 24.74057,-2.69997 37.35881,-0.2755c4.46322,0.0551 12.45294,2.09385 23.96915,6.17136c11.73662,4.07751 19.12021,7.4938 22.2059,10.24888c9.75297,8.54073 16.53045,15.86923 20.27735,21.9855c3.8571,6.28157 5.78566,13.27945 5.78566,20.99367M435.96106,88.22947c-9.86316,0 -17.02636,1.15713 -21.26918,3.4714c-1.87345,1.15713 -3.19589,1.98366 -4.02241,2.42447c-0.66122,0.33061 -1.32244,0.60611 -2.03876,0.77142c0.33061,0.66122 0.60611,1.54284 0.71632,2.64487c0.0551,0.93672 0.22041,2.36937 0.49592,4.35302c0.27551,1.92855 0.38571,3.36119 0.44081,4.35302c0.0551,1.81835 0.11021,4.73873 0.27551,8.76113c0.11021,3.85711 0.22041,6.88769 0.27551,9.03665v0.44081c1.87345,-1.21224 4.95914,-2.64487 9.31216,-4.18771c6.44687,-2.36937 12.39783,-3.5265 17.79778,-3.5265c15.48352,0 26.88953,3.8571 34.16292,11.57131c2.53467,2.64487 4.40812,5.56525 5.62036,8.81624c0.82652,2.25916 1.26734,4.24281 1.26734,5.84076c0,6.61218 -5.56525,13.05906 -16.58555,19.23042c-3.6367,2.09385 -7.5489,3.9122 -11.73662,5.51015c-3.41629,1.26734 -5.45504,1.92855 -6.17136,1.92855c-0.38571,0 -0.77142,0 -1.10203,-0.0551c0.0551,0.27551 0.0551,0.55101 0.1102,0.88162c1.59794,13.11416 2.42446,20.22225 2.42446,21.37938c0,2.31427 -4.18771,5.28974 -12.61824,8.98154c-4.90404,1.92855 -9.20195,3.6918 -12.94885,5.17954c0.11021,0.44081 0.16531,0.88163 0.22041,1.37754c0.44081,3.19589 0.71632,7.5489 0.93672,13.05906c3.03058,-0.77142 9.42235,-2.31427 19.17532,-4.68363c9.09175,-2.25916 15.42842,-3.9122 19.01002,-4.95914c-0.88162,-2.36936 -2.20405,-6.66728 -3.96731,-13.00395c-1.76325,-6.22647 -2.64488,-9.69786 -2.64488,-10.35908c0,-1.65304 0.60612,-2.81018 1.87345,-3.3612c0.93673,-0.38571 2.86528,-0.71632 5.78566,-0.88162c4.40812,-0.27551 7.76931,-0.55101 10.08357,-0.88162c4.84893,-0.66122 9.75297,-1.76325 14.657,-3.30609c4.79383,-1.48774 9.47745,-3.6367 14.10598,-6.39177c3.91221,-2.31427 6.77749,-4.46322 8.48563,-6.39177c4.29791,-4.79383 7.4387,-9.14684 9.31215,-12.94885c1.98365,-4.02241 2.97548,-8.21013 2.97548,-12.50804c0,-4.51832 -1.48774,-9.53256 -4.46322,-15.04271c-2.86528,-5.34485 -6.72239,-10.46928 -11.57132,-15.37332c-7.98971,-7.98972 -20.16715,-13.94067 -36.53229,-17.96308c-11.46111,-2.81018 -22.0957,-4.18772 -31.84866,-4.18772M356.72511,112.47412c-1.81835,-1.04693 -3.80201,-2.03876 -5.84076,-2.97548c-12.17743,-5.73055 -25.07118,-8.59583 -38.62615,-8.59583c-5.51015,0 -9.97337,0.71632 -13.33456,2.09385c-1.48774,0.71632 -2.53467,1.15714 -3.14078,1.43264c-0.0551,0 -0.1102,0.0551 -0.1653,0.0551c-0.11021,1.87345 -1.04693,6.50198 -2.81018,13.94068c-1.92855,8.04482 -2.86528,12.06722 -2.86528,12.12232v0.27551c2.92038,-0.55102 7.3285,-1.26734 13.38966,-2.14896c6.44688,-0.93672 10.41419,-1.43264 11.79172,-1.43264c1.70815,0 2.92038,0.71633 3.58159,2.09386c0.38571,0.71632 0.55102,1.48774 0.55102,2.25916c0,1.54284 -0.60612,5.39995 -1.76325,11.57131c-1.10203,5.84076 -1.87345,9.36726 -2.25916,10.52439c-0.55102,1.70815 -0.99183,3.91221 -1.26734,6.72238c-0.1653,1.54284 -0.33061,3.7469 -0.60611,6.61218c-0.27551,2.25916 -0.82652,3.96731 -1.54284,5.01424c-0.93672,1.32244 -2.31427,1.98365 -4.13262,1.98365c-0.93672,0 -3.03058,-0.44082 -6.33667,-1.26734c-1.81835,-0.49591 -3.25098,-0.82653 -4.29791,-1.04693c2.09385,4.57342 4.79382,10.9101 8.04482,19.01002c0.60611,0.0551 1.15713,0.22041 1.70815,0.44081c0.49591,0.2204 1.26734,0.55102 2.20406,1.10203c2.09385,1.10203 4.95914,1.65304 8.59583,1.70815c0.66122,0 2.92038,0.3306 6.77749,0.99182c3.8571,0.66122 7.604,0.99183 11.1305,0.99183c2.42447,0 4.79383,-0.11021 7.05299,-0.33061c0,-0.11021 1.87346,-0.55102 5.62036,-1.21223c0.0551,0.11021 0.11021,0.2204 0.1653,0.33061c1.54284,-0.33061 3.08568,-0.71632 4.57342,-1.15713c0.11021,-0.0551 0.1653,-0.0551 0.27551,-0.0551c5.51015,-0.93672 7.27339,-1.59794 5.39995,-1.98365c4.68363,-2.03876 9.03665,-4.73873 13.00396,-8.09992c4.35302,-3.7469 7.71421,-7.93461 10.13867,-12.56314c2.42446,-4.62852 3.6367,-9.25706 3.6367,-13.94068c0,-6.06116 -0.77142,-11.0203 -2.42446,-14.8774c-1.48774,-3.58159 -5.01424,-9.20195 -10.63459,-16.91616c-0.44081,-0.55102 -0.82653,-1.04693 -1.26734,-1.59794v25.07118c0.27551,1.76325 0.49591,4.02241 0.77142,6.77748c0.0551,0.60611 0.11021,1.10203 0.16531,1.59795c0.27551,0.27551 0.49591,0.60612 0.71632,1.04693c0.33061,0.71632 0.55102,1.48774 0.55102,2.25916c0,0.88163 -0.33061,1.81835 -0.99183,2.81018c0.0551,0.99183 0.00001,1.81835 -0.1102,2.47957c-0.44081,2.36936 -1.81835,3.5816 -4.18772,3.5816c-0.77142,0 -1.43264,-0.16531 -1.98365,-0.49592c0,0 0,0.0551 -0.0551,0.0551c-5.51015,3.25099 -11.90193,4.84893 -19.17532,4.84893c-8.15502,0 -13.66517,-0.71632 -16.53045,-2.20406c-1.65304,-0.82652 -2.47957,-2.14896 -2.47957,-3.9122c0,-3.6367 0.44081,-9.14685 1.37753,-16.47535c0.55102,-4.18771 0.99183,-7.27339 1.43264,-9.25705c-0.88163,-2.42446 -2.53466,-6.06117 -4.84893,-10.9652c-2.47957,-5.23464 -3.7469,-7.98971 -3.7469,-8.26522c0,-2.09386 2.97547,-3.91221 8.98154,-5.45505c4.68363,-1.21224 9.97338,-2.03876 15.92434,-2.47957c1.81835,-0.16531 5.12444,-0.82652 9.86316,-2.09386M349.28642,122.22709c-6.50198,1.04693 -11.68152,1.76325 -15.59373,2.31426c0.38571,1.04693 1.21223,3.91221 2.53467,8.59583c0.99183,3.58159 1.98365,6.50198 2.86527,8.76114c0.77142,1.87345 1.92855,5.01424 3.47139,9.31215c1.76325,4.73873 2.58977,7.38361 2.58977,7.82442c0,0.99183 -0.22041,1.92855 -0.77142,2.69997c-0.27551,0.44081 -0.60611,0.77142 -0.99183,0.99183v0.0551c0,0.0551 -0.0551,0.1102 -0.0551,0.2204c0.11021,0.1653 0.2204,0.33061 0.33061,0.49592c0.38571,0.66122 0.71632,1.21223 0.93673,1.65304c0.66122,0.0551 1.15713,0.0551 1.54284,0.0551c6.17136,0 11.46111,-1.54284 15.86923,-4.62852c0,0 0.3306,-0.27551 0.88162,-0.71632c0,-1.10203 0,-2.47957 0,-4.18771c0,-2.20406 -0.0551,-3.6367 -0.2204,-4.29791v-31.29765c-5.39995,0.88162 -9.86316,1.59794 -13.38966,2.14896M385.87381,180.68977c-3.80201,5.01424 -9.03664,9.47745 -15.64882,13.38966c-5.67545,3.30609 -11.95702,5.89587 -18.78961,7.76932c1.21224,3.03058 2.36937,6.00607 3.3612,9.03664c0,0.49591 -3.7469,4.73872 -11.24071,12.61824c-8.54073,9.03664 -13.99578,15.15291 -16.42024,18.4039c7.2183,2.75508 14.54679,5.78565 21.93039,9.20195c4.24282,1.92855 10.46929,4.90403 18.67941,8.81624l0.44081,-0.1653v-30.52623c0.22041,-0.71632 0.27551,-1.76325 0.1653,-3.08569c-0.1653,-2.09385 -0.22041,-3.19588 -0.22041,-3.30609c0,-2.58977 1.26734,-4.24282 3.91221,-5.01424c2.81018,-0.82652 6.50198,-2.20406 11.18561,-4.18771c2.75507,-1.15713 6.88768,-2.97548 12.56314,-5.45504c6.39177,-2.97548 12.06723,-5.62035 17.02636,-7.87951c0.55102,-1.10203 1.43264,-1.65305 2.53467,-1.65305c0.27551,0 0.49591,0 0.77142,0.0551c14.05088,-6.44688 21.04877,-9.75297 21.04877,-9.80807c0,-1.10203 -0.66122,-6.94279 -2.03875,-17.52228c-1.04693,-8.15502 -2.03875,-15.59372 -2.97548,-22.37121l-0.1653,-0.82652c-2.69997,1.87345 -11.73662,8.37542 -27.05484,19.50592c-11.95702,8.65094 -18.23859,13.00396 -18.84471,13.00396c-0.0551,0 -0.16531,0 -0.22041,0M243.21603,135.28614c-0.0551,0.71632 -0.11021,1.32244 0,1.87345c-0.11021,1.81835 -0.0551,4.46322 0.1653,7.98971c0.11021,1.76325 0.27551,3.6367 0.38571,5.62035c0,0.99183 -0.0551,1.65305 -0.2204,2.09386c-0.27551,0.71632 -0.82653,1.32244 -1.65305,1.76325c-0.0551,0.0551 -0.1102,0.0551 -0.2204,0.1102c-0.0551,0.27551 -0.1102,0.60612 -0.1653,0.88162c-0.60611,3.80201 -1.26734,7.3836 -2.03876,10.74479c-0.49591,2.42446 -1.04693,4.57342 -1.59794,6.39177l0.0551,1.04693c0,0.77142 0,1.48774 0,2.14896c1.81835,-0.55102 3.4714,-0.93672 4.90404,-1.15713c4.02241,-0.55102 5.89586,0.49591 5.73055,3.19588c0.71632,3.14078 1.87345,8.21012 3.41629,15.15291c0.1653,0.71632 0.27551,1.37754 0.44082,1.98365c1.15713,-0.49591 2.69997,-0.82653 4.57342,-1.04693c2.09385,-0.2204 4.62852,-0.82652 7.5489,-1.92855c2.69997,-1.04693 4.35302,-1.54284 4.84894,-1.54284c2.75508,0 5.23464,3.6367 7.4387,10.85499c0.55102,1.81835 1.32244,4.73873 2.31427,8.76114c0.82652,3.36119 1.43264,5.62035 1.81834,6.66728c1.70815,-0.44081 4.68363,-1.37753 8.98155,-2.86527c4.73873,-1.65304 8.81624,-3.14078 12.23253,-4.57342c-2.64487,-8.26522 -4.68363,-14.4917 -6.17137,-18.78961c-2.64487,-7.49381 -5.39995,-13.88558 -8.32032,-19.23042c-0.99183,-1.81835 -2.42447,-5.01423 -4.35302,-9.58766c-1.87345,-4.35302 -3.36119,-7.4938 -4.46322,-9.42235c-0.71632,-1.26734 -2.42446,-4.46323 -5.12444,-9.53256c-0.93672,-1.70815 -1.54284,-3.30609 -1.81835,-4.73873c-0.1653,-0.77142 -0.38571,-1.15713 -0.66121,-1.15713c-2.69997,0.82652 -7.60401,1.26734 -14.657,1.26734c-6.39177,0 -10.57948,-0.71632 -12.61824,-2.20406c-0.33061,-0.2204 -0.55102,-0.49591 -0.77142,-0.77142M235.39162,125.14747l-21.10387,0.0551c-1.92855,-0.38571 -5.51015,-0.77142 -10.74479,-1.26734c-6.50198,-0.55102 -11.40601,-0.99183 -14.7672,-1.32243c-0.49591,1.04693 -0.77142,3.96731 -0.93672,8.81624c-0.1102,0.99183 -0.33061,1.81835 -0.60612,2.53467c1.59794,1.43264 3.08568,3.03058 4.40811,4.84893c1.98365,2.75508 3.52649,5.84076 4.57343,9.31215c0.82652,2.75508 1.26734,5.28974 1.26734,7.4938c0,5.95096 -1.59794,11.40601 -4.84893,16.25494c-1.76325,2.64487 -3.9122,4.95914 -6.50198,6.94279c0.33061,0.71632 0.71632,1.65304 1.10203,2.75508c0,0.38571 0.2755,2.25916 0.82652,5.56525c0.55102,3.30609 0.82652,5.23464 0.82652,5.78566c0,0.38571 -0.0551,0.71632 -0.1102,1.04693h0.0551c7.54891,3.96731 11.35091,7.05299 11.35091,9.14684c0,2.09385 -1.76325,4.62853 -5.28974,7.60401c-0.77142,0.60611 -1.54284,1.15713 -2.20406,1.65305c0.0551,0.11021 0.0551,0.2755 0.1102,0.38571c1.43264,4.68363 2.20406,7.1632 2.36937,7.4387c6.39177,-3.19589 15.0427,-6.72239 25.8426,-10.63459c10.63459,-3.9122 18.18349,-6.99789 22.75692,-9.25705c-0.55102,-4.18771 -1.59794,-9.47746 -3.19589,-15.97943c-0.55102,0.1653 -5.17954,2.53467 -13.83048,6.99789c-8.54073,4.40812 -12.83865,6.61218 -12.89375,6.61218c-1.81835,0 -3.14078,-0.71632 -3.8571,-2.09385l-0.55102,-2.09385c0,-1.32244 2.09386,-3.4163 6.22647,-6.33668c2.14896,-1.48774 4.51833,-2.97548 6.99789,-4.40812c-0.27551,-0.82652 -0.55102,-1.70814 -0.82653,-2.75507c-0.38571,-1.59795 -0.77142,-3.69181 -1.10203,-6.28158c-0.38571,-2.86528 -0.66121,-4.57343 -0.77142,-5.17954c-1.70815,0.44081 -4.57343,2.03876 -8.70604,4.73873c-3.85711,2.53467 -6.06117,3.802 -6.72239,3.802c-2.92038,0 -4.51832,-1.37754 -4.73873,-4.13261c-0.1102,-0.88163 -0.0551,-1.87345 0.16531,-3.08568c0.2204,-1.10203 0.33061,-1.70815 0.33061,-1.92856c0,-1.10203 -0.1102,-2.81017 -0.27551,-5.12444c-0.16531,-2.31427 -0.27551,-3.6367 -0.27551,-3.96731c0,-2.42446 0.16531,-4.02241 0.49591,-4.73873c0.55102,-1.10203 1.81835,-1.92856 3.80201,-2.53467c1.81835,-0.55102 5.28974,-1.21223 10.41418,-1.87345c3.30609,-0.38571 10.08357,-1.26733 20.38755,-2.53466c0,-3.8571 0.0551,-6.77749 0.1102,-8.70604c0.0551,-3.25099 0.22041,-6.11626 0.44082,-8.70603v-4.84893M182.93501,141.95342c-6.33667,-6.33667 -16.08964,-8.43053 -29.20379,-6.39177c-10.08357,2.20406 -16.53045,3.6367 -19.28552,4.35302c-10.855,2.81017 -16.25494,5.17954 -16.25494,7.10809c0,5.56525 0.27551,11.68152 0.82653,18.4039c0.27551,4.02241 0.82652,10.41418 1.65304,19.23042c0.38571,5.01424 1.43264,11.1856 3.14079,18.6243c2.75507,12.01212 4.18771,18.3488 4.29792,19.01002c0.11021,0 0,0.0551 -0.27551,0.1653c-0.1653,0.11021 0.0551,0.16531 0.60612,0.16531c0.82652,0 3.41629,-0.33061 7.71421,-0.99183c4.68362,-0.77142 7.76931,-1.15713 9.20195,-1.26734c-1.59795,-3.7469 -3.08568,-7.4387 -4.57342,-11.0203c-2.97548,-7.10809 -4.40812,-11.46111 -4.40812,-12.94885c0,-3.03058 1.37754,-4.57343 4.02241,-4.57343c1.04693,0 5.34484,3.96731 12.83865,11.95703c9.64276,10.24888 15.09781,15.97943 16.47535,17.24676c2.69997,-2.75508 5.73056,-5.67545 9.09175,-8.76113c3.58159,-3.19589 6.83259,-6.00606 9.75297,-8.32032c-2.64487,-1.70815 -6.06117,-3.5265 -10.30398,-5.45505c-4.79383,-2.14896 -8.26523,-3.6918 -10.41419,-4.68363c-3.6918,-1.70815 -6.33667,-3.14078 -8.04481,-4.40812c-2.09386,-1.54284 -3.19589,-3.14078 -3.19589,-4.68363c0,-1.54284 3.03058,-3.6367 9.14684,-6.33667c1.76325,-0.77142 4.46322,-1.92855 8.26523,-3.5265c3.25099,-1.43264 5.89586,-2.69997 7.82441,-3.8571c1.59794,-0.93672 3.19589,-3.30608 4.90403,-7.10809c1.54284,-3.58159 2.36937,-6.33668 2.36937,-8.26523c0,-1.70815 -0.38571,-3.6367 -1.21223,-5.84076c-1.10203,-2.97548 -2.75508,-5.62035 -4.95914,-7.82441M208.00619,162.78178c0.1653,1.04693 0.27551,1.87345 0.1653,2.47957v0.27551c0.38571,-0.11021 2.42446,-1.37754 6.17137,-3.802c3.8571,-2.36936 6.44688,-3.5265 7.76932,-3.5265c2.36936,0 3.8571,0.88162 4.40812,2.64487c0.11021,0.27551 0.1653,1.32244 0.1653,3.08569c0,1.26734 0.71632,5.06934 2.03876,11.51621c0.2204,1.32244 0.49592,2.64487 0.77142,3.91221c0.1653,-0.0551 0.2755,-0.1102 0.38571,-0.1653c-0.27551,-1.37753 -0.44081,-2.14896 -0.44081,-2.20406c0,-1.10203 0.33061,-3.03058 1.04693,-5.78566c0.1653,-0.49591 0.2755,-1.04693 0.38571,-1.59794c0.82652,-3.36119 1.43264,-5.89586 1.76325,-7.49381c0.55102,-2.53467 1.15713,-4.51832 1.81834,-5.84076c-1.81835,0.1653 -3.8571,0.2755 -6.22646,0.3306c-3.6367,0.0551 -7.65911,0.38572 -12.01212,0.99183c-5.67545,0.82652 -8.48563,1.76325 -8.48563,2.92038c0,0.38571 0.1102,1.15713 0.2755,2.25916M181.22686,181.6816c-2.86528,1.48774 -6.06117,2.75508 -9.58766,3.6918l-0.99182,0.27551c3.9673,1.54284 7.7142,3.14078 11.1856,4.73873c0,-0.49591 0,-1.10203 0,-1.70815c-0.0551,-0.88163 -0.16531,-2.42447 -0.38571,-4.57343c-0.1102,-0.99183 -0.16531,-1.81835 -0.2204,-2.42446M335.56614,158.37367c-0.0551,2.53467 -0.1653,4.57343 -0.3306,6.06117c0.27551,0.0551 0.93672,0.1653 1.98365,0.2204c-1.15713,-3.03058 -1.70815,-4.57342 -1.70815,-4.62852c0,-0.55102 0,-0.99183 0.0551,-1.43264c0,-0.11021 0,-0.1653 0,-0.2204M235.77734,213.14455c-2.14896,0.71632 -4.02241,1.37753 -5.67545,1.92855c-0.11021,1.04693 -0.2204,2.42447 -0.38571,4.13261c-0.38571,3.7469 -0.55102,5.84076 -0.55102,6.28157c0,0.55102 0.0551,0.82652 0.0551,0.82652c0,0 0.1102,0 0.2204,-0.0551c4.13261,-0.55102 8.48563,-1.32244 13.05906,-2.31427c5.39995,-1.10203 9.09175,-2.14895 11.0754,-3.03058c-1.26734,-5.84076 -2.20406,-10.57949 -2.86527,-14.10599c-3.36119,1.10203 -6.11627,2.20407 -8.15503,3.3612c-1.81835,1.04693 -4.07751,2.03876 -6.77748,2.97548M146.95373,149.39212c6.88769,0 11.46111,1.48775 13.77537,4.51833c1.10203,1.37753 1.65305,3.4714 1.65305,6.28157c0,2.31427 -0.33061,4.02241 -0.93673,5.17954c-1.04693,1.87345 -3.14078,3.19588 -6.22647,3.9673c-1.70815,0.38571 -4.95914,1.32244 -9.80806,2.75508c-4.35302,1.26734 -6.61218,1.92856 -6.77749,1.92856c-2.64487,0 -4.29791,-1.37754 -4.95913,-4.13262c-0.2204,-0.88163 -0.33061,-1.87345 -0.33061,-2.97548c0.0551,-0.99183 0.0551,-1.48773 0.0551,-1.59794c0,-0.82652 -0.49591,-2.09386 -1.54284,-3.7469c-1.04693,-1.65304 -1.59794,-2.92038 -1.59794,-3.7469c0,-2.03876 1.59795,-3.6367 4.79383,-4.68363c0.33061,-0.11021 2.09386,-0.66122 5.28974,-1.54284c2.53467,-0.71632 4.73873,-1.43264 6.61218,-2.20406M152.73939,157.54715h-5.12444c-3.36119,1.04693 -5.17954,1.59794 -5.45505,1.70815c-2.31426,0.88163 -3.4714,1.59794 -3.4714,2.14896c0,0.44081 0.16531,1.10204 0.38571,1.92855c0.27551,0.93672 0.38571,1.65304 0.44081,2.20406v0.2204c0.0551,0.1653 0.1653,0.27551 0.27551,0.33061c2.36937,-0.44081 4.90403,-1.04693 7.71421,-1.92855c4.79383,-1.48774 7.1632,-2.86527 7.1632,-4.13261c0,-0.27551 -0.1102,-0.66122 -0.33061,-1.04693c-0.38571,-0.60611 -0.88162,-1.10202 -1.59794,-1.43264M248.9466,176.22655c0.0551,-0.38571 0.1102,-0.60612 0.1102,-0.55102c0,-1.32244 0.60611,-3.25099 1.81835,-5.78566c1.37753,-2.75508 2.31427,-4.68362 2.69997,-5.78565c0.55102,-1.54284 1.04692,-3.36119 1.54284,-5.51015c0.11021,-0.33061 0.49592,-2.20406 1.21224,-5.67545c0.38571,-1.81835 1.48774,-2.09385 3.30609,-0.77142c1.54284,1.10203 3.4714,3.19588 5.67546,6.28157c1.98365,2.69997 3.7469,5.51015 5.34484,8.43053c1.59795,2.92038 2.36936,4.79383 2.36936,5.73055c0,3.25099 -1.26733,4.84893 -3.7469,4.84893c-1.81835,0 -4.46322,0.27551 -7.93462,0.88162c-3.41629,0.60611 -6.00606,0.88163 -7.76931,0.88163c-2.36936,0 -3.8571,-0.55102 -4.40812,-1.70815c-0.1653,-0.38571 -0.27551,-0.82653 -0.2204,-1.26734M258.80976,162.89199c-1.37753,4.24282 -2.09385,7.05299 -2.09385,8.48563c0,0.88163 0.0551,0.99183 0.1653,0.33061c0.33061,-0.0551 1.21223,-0.2204 2.69997,-0.49591c1.15713,-0.2204 2.31426,-0.38571 3.36119,-0.49591l0.1102,-0.11021c0.0551,-0.0551 0.22041,-0.1653 0.44081,-0.2755c-0.66122,-1.32244 -1.43264,-2.64488 -2.25916,-4.02241c-1.04693,-1.70815 -1.81836,-2.86528 -2.42447,-3.41629z" fill="#000000" stroke="none" stroke-width="1"/></g></g></svg>