<svg version="1.1" xmlns="http://www.w3.org/2000/svg" xmlns:xlink="http://www.w3.org/1999/xlink" width="426.81947" height="288.03684" viewBox="0,0,426.81947,288.03684"><defs><linearGradient x1="349.84623" y1="231.67116" x2="349.84623" y2="234.1702" gradientUnits="userSpaceOnUse" id="color-1"><stop offset="0" stop-color="#86541b"/><stop offset="1" stop-color="#942e2e"/></linearGradient></defs><g transform="translate(-109.59026,-58.48158)"><g stroke-miterlimit="10"><path d="M159.51499,133.15402c-0.34438,-1.64713 1.08404,-4.52699 4.08742,-5.05546c2.78471,-0.49 3.70985,2.003 7.90007,1.7498c0.04017,0.03412 2.61159,-0.15222 3.95206,-1.25484c0.26807,-0.22051 0.06191,-1.63847 -0.74326,-3.62357c-1.07554,-2.65167 -3.09028,-6.205 -0.73842,-8.2057c0.86351,-0.73459 2.67681,-1.05811 4.31958,0.38608c0.88404,0.77716 1.29287,2.25634 2.19543,3.17606c0.53615,0.54636 1.61063,0.8953 2.06538,0.78239c0.91287,-0.22666 2.34577,-2.06456 3.13635,-4.4452c1.5921,-4.79425 1.55953,-9.85648 2.94108,-12.25848c0.5946,-1.03377 9.73124,-4.8427 12.65165,-6.38393c3.77526,-1.99236 8.71444,-3.117 13.08355,-4.65986c7.35213,-2.59623 14.29237,-4.97395 20.1269,-4.43067c1.4959,0.13929 2.64523,-2.31655 4.17248,-3.63475c1.65079,-1.42481 3.59319,-2.42641 5.69621,-2.90798c1.16119,-0.26591 2.17561,1.46157 3.82426,3.14553c4.27089,4.36232 9.67422,12.18116 9.67422,12.18116c0,0 0.99971,-0.92815 1.73098,-1.43717c1.02044,-0.7103 2.25779,-1.11826 2.87434,-1.17781c0.31288,-0.03021 3.63868,0.50646 4.91379,1.37112c2.18655,1.48274 2.71032,3.65701 3.23638,3.61844c0.53181,-0.039 1.20072,-0.21426 1.72523,-0.24434c2.85435,-0.16365 6.43579,3.98289 10.99085,3.03469c1.57975,-0.32885 1.2732,-0.79308 2.71186,-1.07474c4.34345,-0.85033 8.73221,-0.41321 12.05677,-0.40468c2.7134,0.00696 4.79264,-0.4708 4.94367,-0.52392c1.15796,-0.99595 -0.45184,-6.22429 1.87481,-7.03376c4.09206,-1.42368 7.81395,1.09682 12.34929,4.72699c3.38031,2.70564 7.6601,6.07743 10.4816,8.62536c4.39619,3.96996 6.83255,7.15952 6.93353,7.10513c0.11553,-0.06224 2.24338,-10.77957 3.53084,-12.09043c1.56581,-1.59428 5.29178,-1.596 7.50289,-2.35097c1.39645,-0.47681 1.13222,-1.343 2.11077,-1.86744c1.06227,-0.5693 2.20468,0.37547 3.25197,-0.14544c0.38337,-0.19067 1.15559,-2.237 1.07316,-3.45344c-0.17979,-2.65295 -1.27666,-5.65174 1.45612,-7.13509c1.62079,-0.87977 3.35594,0.5732 5.1235,1.37082c0.24223,0.10931 2.15552,0.64304 2.72203,-0.34205c0.26764,-0.46537 0.6784,-3.6561 1.03559,-4.08962c-0.00437,-0.14491 -1.05496,-1.48484 -0.82648,-3.29121c0.27538,-2.17722 2.09045,-4.83302 5.64712,-4.2732c1.89441,0.29818 4.74975,3.40256 3.572,7.0331c-0.64204,1.97913 -3.70572,1.97386 -3.53141,2.14102c0.53512,1.00283 0.23813,6.56288 0.9547,6.65848c0.81061,0.10816 2.47306,-0.59107 3.81512,-0.95153c1.21972,-0.3276 2.12631,-0.32689 2.81545,-0.11316c2.62122,0.81293 4.67575,2.92325 7.43036,4.66132c3.21938,2.03131 6.95319,3.65612 6.95319,3.65612c0,0 2.90433,-2.74528 5.73054,-4.6177c3.26675,-2.16428 6.70855,-3.78437 6.76601,-3.91482c1.82774,-4.15 2.48109,-6.4378 5.33841,-7.39723c8.49571,-2.85267 27.00621,6.49393 42.93627,13.1974c3.94128,1.65851 7.57221,3.88872 11.09699,5.48897c0.50015,0.22707 0.75042,15.96272 -1.82639,21.609c-1.62057,3.551 -9.51297,3.3128 -11.21402,5.96456c-0.9302,1.45009 2.72833,7.94924 3.12738,7.94691c0.45576,-0.00265 3.52375,-0.18169 7.84956,-0.71621c5.07196,-0.62672 11.50488,-1.30451 15.89543,0.71838c4.97435,2.29185 3.65501,9.64534 3.32935,10.50008c-0.58252,1.52887 -1.79674,5.34441 -2.17202,9.57698c-0.84975,9.58371 1.52195,15.6909 0.80867,22.15316c-0.0476,0.43123 2.77052,3.41713 1.72664,7.31177c-0.87601,3.26836 -4.92111,6.68593 -6.78464,10.26264c-3.55196,6.81734 -9.16641,11.82823 -8.69551,12.27125c0.05955,0.05605 3.63796,6.54858 4.53304,6.20906c0.5257,-0.19941 1.74829,-0.71453 2.55715,-0.77674c1.41436,-0.10879 2.80478,0.9421 3.68577,2.02596c1.6277,2.00251 2.89513,5.24117 5.40028,5.15099c0.41353,-0.01488 4.47184,-11.07839 10.12643,-6.13345c1.11491,0.97499 1.65447,2.30129 1.44872,3.4579c-0.30361,1.7067 -1.97984,3.13532 -3.16683,3.88327c-1.78811,1.12673 -3.40371,2.32881 -3.4887,3.03209c-0.26274,2.1744 1.08038,6.3845 3.28248,6.15711c4.98573,-3.48181 7.09397,-0.75783 7.33206,1.69982c0.54543,5.63021 -5.78129,3.44427 -5.76226,3.83648c0.07823,1.61148 -0.16189,4.04546 0.33744,5.57998c0.7772,2.3885 3.13725,3.27881 3.41544,5.35182c0.32786,2.44318 -1.01469,6.37625 -1.90667,9.09976c-0.82718,2.52569 -1.15202,3.83248 -2.23272,6.35609c-2.98188,6.96314 -6.45198,9.76777 -6.27178,10.16618c0.49833,1.10176 -10.35748,1.47271 -24.84918,-0.17496c-7.15103,-2.28118 -17.70946,-4.94905 -20.31409,-3.9287c-3.55049,1.39089 -3.36874,4.75782 -3.28226,7.23853c0.01042,0.2989 1.35006,13.37475 -11.00437,32.32714c-6.03503,9.25807 -57.65765,9.03927 -56.41917,10.67269c0.68261,0.90026 1.16544,2.64197 1.39443,4.04128c0.36469,2.2285 -1.53928,5.28484 -3.8705,5.38282c-2.28716,0.09613 -5.30845,-0.8107 -5.88742,-4.27263c-0.15272,-0.91321 -2.0795,-4.26356 -2.0795,-4.26356c0,0 0.01512,-0.64198 -2.7431,1.07459c-0.78346,0.4876 -1.72781,3.92721 -2.06307,5.34166c-0.51047,2.15363 0.85124,5.32925 0.20897,7.8688c-0.81718,3.23115 -3.35278,5.37647 -5.37586,4.90185c-3.79264,-0.88977 -6.70471,-3.78468 -5.69672,-7.83586c0.26705,-1.07327 2.41075,-5.30869 2.97107,-6.72257c0.57781,-1.45799 -1.67032,-2.96035 -2.30575,-3.84764c-0.83926,-1.17194 -84.33714,4.279 -101.51466,-7.78523c-12.17741,-8.55251 -10.76364,-28.00324 -11.51369,-28.52886c-1.74702,-1.22431 -1.73575,-2.61945 -3.34891,-4.45786c-1.53627,-1.75077 -3.95757,-3.20254 -4.92483,-3.84686c-0.8683,-0.57842 -1.79195,0.6423 -1.82517,0.88956c-0.17979,1.33827 -4.40801,-1.33879 -10.62108,-1.5969c-7.63224,-0.31707 -17.92861,1.5064 -23.35283,2.92478c-7.55934,1.9767 -13.87217,5.73887 -14.71446,6.00296c-1.33687,0.41913 -7.36409,1.06804 -9.36588,-2.00898c-1.63364,-2.51112 -2.9181,-7.34702 -3.1619,-9.06046c-0.22731,-1.59749 -2.4703,-2.2146 -2.64965,-4.27126c-0.29757,-3.41217 1.73416,-2.6515 2.30625,-4.50904c0.36739,-1.1929 -1.17847,-3.11086 -1.42126,-3.49284c-0.69539,-1.09406 -2.07492,-1.50361 -2.5453,-1.3745c-1.56226,0.42881 -3.23542,0.61079 -4.14347,0.47767c-2.83299,-0.4154 -2.43392,-2.95847 -2.48058,-3.83917c-0.24915,-4.70075 6.51208,-2.24721 6.62147,-2.33549c1.26523,-1.02113 1.94305,-2.85718 1.71467,-4.64748c-0.10218,-0.801 -0.24435,-1.58571 -1.31106,-2.21577c-1.83652,-1.08476 -6.70336,0.65682 -7.59794,-2.67364c-1.51456,-5.6386 2.58289,-6.72037 3.61015,-6.80271c2.4298,-0.19476 3.85879,1.30713 4.92317,2.65274c0.93311,1.17966 1.65303,2.23923 1.61901,1.93033c-0.0658,-0.59725 3.26443,-0.41969 3.23722,-0.99994c-0.10603,-2.26092 -0.11959,-3.53952 0.81683,-5.24913c0.48824,-0.8914 1.34392,-1.5436 2.21866,-2.07718c2.69779,-1.64564 6.62454,2.20331 6.32087,2.24937c-1.31676,0.19973 2.6487,-1.33991 2.63051,-1.82113c-0.13163,-3.48104 2.80644,-5.99707 6.91297,-3.82616c-0.2613,0.18297 0.7294,-2.20127 1.18957,-4.39022c0.35431,-1.68534 0.22225,-3.31218 0.01946,-3.21002c-1.13762,0.57312 -5.5053,2.40873 -8.18995,1.82846c-5.00364,-0.86599 -6.58205,-2.96813 -7.82109,-5.17088c-0.71205,-1.26588 -1.62783,-3.50111 -2.16049,-5.74632c-1.59678,-6.73051 -1.27201,-7.08898 -1.94435,-12.70887c-0.47863,-4.00074 -0.97476,-8.86423 -0.74307,-12.0526c0.24573,-3.38155 1.27944,-5.03251 2.91064,-7.32337c1.10136,-1.54677 2.56663,-2.90726 3.3726,-4.2872c0.71971,-1.23226 0.36751,-2.11916 0.37703,-2.38695c0.08162,-2.29871 -0.23331,-5.70385 0.14214,-9.17742c0.28731,-2.65815 0.95759,-4.75873 1.31062,-7.03895c0.464,-2.997 1.20471,-5.7237 2.06916,-7.33381c1.0752,-2.00269 2.24896,-2.52564 2.23411,-2.58811c-0.31961,-1.34363 -1.97201,-1.30679 -2.1321,-2.47416c-0.12175,-0.88777 -0.17369,-2.20987 0.26951,-3.57909c0.40017,-1.23628 1.37465,-2.5752 2.05174,-2.67043c0.08611,-0.01211 0.67822,-3.28574 0.34942,-3.91111c-0.4649,-0.81096 -2.10011,-1.28908 -3.88396,-1.26558c-1.3679,0.01802 -2.16974,0.73483 -3.49602,0.39952c-2.51298,-0.63535 -3.75283,-2.99251 -4.055,-4.43776z" fill="#3841bb" stroke-opacity="0.50196" stroke="#ffffff" stroke-width="10"/><path d="M159.51499,133.15402c-0.34438,-1.64713 1.08404,-4.52699 4.08742,-5.05546c2.78471,-0.49 3.70985,2.003 7.90007,1.7498c0.04017,0.03412 2.61159,-0.15222 3.95207,-1.25484c0.26806,-0.22051 0.06191,-1.63847 -0.74327,-3.62356c-1.07554,-2.65167 -3.09027,-6.20499 -0.73842,-8.20571c0.86352,-0.73459 2.67681,-1.05811 4.31958,0.38607c0.88404,0.77716 1.29287,2.25634 2.19541,3.17606c0.53615,0.54636 1.61063,0.8953 2.06539,0.78239c0.91287,-0.22666 2.34577,-2.06457 3.13635,-4.4452c1.59211,-4.79424 1.55953,-9.85648 2.94108,-12.25848c0.5946,-1.03377 9.73125,-4.84271 12.65165,-6.38393c3.77526,-1.99236 8.71444,-3.117 13.08355,-4.65986c7.35213,-2.59623 14.29237,-4.97396 20.1269,-4.43068c1.4959,0.13929 2.64523,-2.31655 4.17248,-3.63475c1.65079,-1.42481 3.59319,-2.42642 5.69622,-2.90799c1.16119,-0.2659 2.17562,1.46159 3.82427,3.14554c4.27089,4.36232 9.67423,12.18115 9.67423,12.18115c0,0 0.99971,-0.92814 1.73098,-1.43717c1.02044,-0.7103 2.25779,-1.11826 2.87434,-1.17781c0.31288,-0.03021 3.63868,0.50646 4.91379,1.37113c2.18655,1.48274 2.71031,3.65701 3.23637,3.61844c0.53181,-0.039 1.20073,-0.21426 1.72524,-0.24434c2.85435,-0.16365 6.43579,3.98289 10.99085,3.03469c1.57975,-0.32885 1.27319,-0.79308 2.71186,-1.07474c4.34345,-0.85033 8.73221,-0.41321 12.05678,-0.40468c2.7134,0.00696 4.79264,-0.4708 4.94367,-0.52392c1.15796,-0.99595 -0.45184,-6.22429 1.87481,-7.03376c4.09206,-1.42368 7.81395,1.09682 12.34929,4.72699c3.38031,2.70564 7.6601,6.07743 10.4816,8.62536c4.39619,3.96995 6.83255,7.15953 6.93353,7.10513c0.11553,-0.06224 2.24338,-10.77957 3.53085,-12.09043c1.56581,-1.59427 5.29177,-1.59599 7.50288,-2.35097c1.39645,-0.47681 1.13222,-1.343 2.11077,-1.86744c1.06227,-0.5693 2.20469,0.37547 3.25197,-0.14544c0.38337,-0.19069 1.15558,-2.23701 1.07316,-3.45345c-0.17978,-2.65296 -1.27666,-5.65173 1.45612,-7.13509c1.62079,-0.87977 3.35594,0.5732 5.1235,1.37083c0.24223,0.10931 2.15552,0.64304 2.72203,-0.34205c0.26764,-0.46537 0.6784,-3.6561 1.03559,-4.08962c-0.00437,-0.14491 -1.05496,-1.48484 -0.82648,-3.29121c0.27537,-2.17722 2.09045,-4.83301 5.64712,-4.27321c1.89441,0.29818 4.74975,3.40256 3.572,7.03309c-0.64204,1.97913 -3.70572,1.97386 -3.53141,2.14101c0.53512,1.00283 0.23813,6.56288 0.9547,6.65848c0.81061,0.10816 2.47306,-0.59107 3.81514,-0.95152c1.21974,-0.3276 2.12631,-0.3269 2.81545,-0.11316c2.62122,0.81293 4.67575,2.92324 7.43037,4.6613c3.21938,2.03131 6.95319,3.65613 6.95319,3.65613c0,0 2.90433,-2.74528 5.73054,-4.6177c3.26675,-2.16428 6.70856,-3.78437 6.76601,-3.91483c1.82774,-4.15001 2.48109,-6.4378 5.33842,-7.39723c8.49572,-2.85267 27.0062,6.49392 42.93626,13.19739c3.94128,1.65851 7.57222,3.88873 11.09701,5.48899c0.50016,0.22707 0.75041,15.96272 -1.82639,21.609c-1.62057,3.551 -9.51297,3.31281 -11.21402,5.96457c-0.93021,1.45009 2.72833,7.94924 3.12739,7.9469c0.45576,-0.00265 3.52375,-0.18169 7.84955,-0.7162c5.07196,-0.62672 11.50488,-1.30451 15.89543,0.71838c4.97434,2.29185 3.655,9.64535 3.32933,10.50009c-0.58252,1.52887 -1.79673,5.34441 -2.17202,9.57698c-0.84975,9.58372 1.52195,15.6909 0.80868,22.15315c-0.04759,0.43123 2.77051,3.41713 1.72663,7.31177c-0.87601,3.26836 -4.9211,6.68594 -6.78464,10.26264c-3.55196,6.81734 -9.16641,11.82823 -8.6955,12.27125c0.05955,0.05605 3.63795,6.54858 4.53304,6.20906c0.5257,-0.19941 1.74829,-0.71452 2.55715,-0.77672c1.41436,-0.10879 2.80478,0.9421 3.68578,2.02595c1.6277,2.00251 2.89513,5.24117 5.40028,5.15099c0.41352,-0.01489 4.47184,-11.07839 10.12643,-6.13345c1.11491,0.975 1.65447,2.30129 1.44871,3.4579c-0.30361,1.7067 -1.97985,3.13532 -3.16683,3.88327c-1.78812,1.12672 -3.40371,2.32881 -3.48868,3.03209c-0.26275,2.17441 1.08038,6.3845 3.28248,6.15711c4.98573,-3.48181 7.09397,-0.75782 7.33207,1.69983c0.54543,5.6302 -5.78129,3.44426 -5.76226,3.83647c0.07823,1.61148 -0.16188,4.04546 0.33745,5.57999c0.7772,2.3885 3.13724,3.27881 3.41542,5.35182c0.32786,2.44318 -1.0147,6.37624 -1.90668,9.09975c-0.82718,2.52569 -1.15201,3.83248 -2.23272,6.3561c-2.98188,6.96314 -6.45198,9.76777 -6.27178,10.16619c0.49833,1.10176 -10.35748,1.47271 -24.84918,-0.17496c-7.15103,-2.28118 -17.70945,-4.94905 -20.31409,-3.9287c-3.55049,1.39089 -3.36873,4.75782 -3.28226,7.23854c0.01042,0.2989 1.35005,13.37475 -11.00437,32.32713c-6.03503,9.25807 -57.65764,9.03928 -56.41917,10.6727c0.68261,0.90026 1.16545,2.64197 1.39444,4.04128c0.36469,2.2285 -1.53928,5.28484 -3.87049,5.38282c-2.28716,0.09613 -5.30846,-0.81069 -5.88742,-4.27263c-0.15272,-0.91321 -2.0795,-4.26355 -2.0795,-4.26355c0,0 0.01513,-0.64198 -2.74309,1.0746c-0.78346,0.4876 -1.72781,3.92721 -2.06306,5.34166c-0.51047,2.15363 0.85124,5.32925 0.20897,7.8688c-0.81718,3.23115 -3.35277,5.37648 -5.37584,4.90186c-3.79264,-0.88977 -6.70472,-3.78468 -5.69673,-7.83586c0.26705,-1.07327 2.41075,-5.30869 2.97106,-6.72256c0.57781,-1.45799 -1.67032,-2.96036 -2.30574,-3.84764c-0.83927,-1.17194 -84.33713,4.279 -101.51466,-7.78523c-12.17742,-8.55252 -10.76363,-28.00324 -11.51369,-28.52886c-1.74703,-1.22431 -1.73574,-2.61945 -3.34892,-4.45786c-1.53627,-1.75077 -3.95758,-3.20254 -4.92483,-3.84686c-0.8683,-0.57842 -1.79195,0.64231 -1.82516,0.88957c-0.17979,1.33828 -4.40801,-1.33879 -10.62108,-1.59692c-7.63223,-0.31707 -17.92861,1.50641 -23.35283,2.92478c-7.55934,1.9767 -13.87217,5.73887 -14.71446,6.00294c-1.33686,0.41913 -7.36409,1.06804 -9.36588,-2.00896c-1.63364,-2.51112 -2.9181,-7.34703 -3.1619,-9.06046c-0.22731,-1.59749 -2.4703,-2.21458 -2.64965,-4.27125c-0.29757,-3.41217 1.73416,-2.65151 2.30626,-4.50904c0.36739,-1.1929 -1.17847,-3.11086 -1.42127,-3.49285c-0.69539,-1.09406 -2.07492,-1.5036 -2.5453,-1.37449c-1.56226,0.42883 -3.23542,0.61078 -4.14346,0.47765c-2.83299,-0.4154 -2.43392,-2.95846 -2.48058,-3.83918c-0.24915,-4.70075 6.51209,-2.24721 6.62146,-2.33548c1.26523,-1.02113 1.94305,-2.85717 1.71467,-4.64747c-0.10218,-0.801 -0.24434,-1.58572 -1.31105,-2.21579c-1.83652,-1.08475 -6.70337,0.65682 -7.59794,-2.67363c-1.51456,-5.6386 2.58288,-6.72038 3.61014,-6.80271c2.4298,-0.19476 3.85879,1.30712 4.92317,2.65274c0.93311,1.17966 1.65303,2.23923 1.619,1.93033c-0.0658,-0.59725 3.26444,-0.41968 3.23723,-0.99993c-0.10603,-2.26092 -0.11959,-3.53952 0.81683,-5.24913c0.48824,-0.8914 1.34393,-1.5436 2.21866,-2.07718c2.69779,-1.64564 6.62453,2.20331 6.32088,2.24937c-1.31676,0.19973 2.64871,-1.33992 2.63051,-1.82114c-0.13163,-3.48104 2.80644,-5.99707 6.91297,-3.82616c-0.2613,0.18297 0.7294,-2.20127 1.18957,-4.39022c0.35431,-1.68534 0.22225,-3.31218 0.01945,-3.21002c-1.13762,0.57312 -5.50528,2.40873 -8.18995,1.82845c-5.00364,-0.86599 -6.58205,-2.96813 -7.82109,-5.17088c-0.71205,-1.26588 -1.62783,-3.50111 -2.16049,-5.74632c-1.59678,-6.73051 -1.27202,-7.08898 -1.94436,-12.70887c-0.47865,-4.00074 -0.97476,-8.86423 -0.74307,-12.0526c0.24573,-3.38155 1.27944,-5.03251 2.91064,-7.32337c1.10136,-1.54677 2.56662,-2.90725 3.37259,-4.28719c0.71971,-1.23226 0.36751,-2.11916 0.37703,-2.38695c0.08162,-2.29871 -0.23331,-5.70386 0.14214,-9.17742c0.28731,-2.65815 0.9576,-4.75873 1.31063,-7.03894c0.464,-2.997 1.20472,-5.7237 2.06916,-7.33382c1.0752,-2.00269 2.24896,-2.52564 2.2341,-2.5881c-0.31961,-1.34363 -1.97201,-1.30679 -2.1321,-2.47416c-0.12175,-0.88778 -0.1737,-2.20986 0.2695,-3.57909c0.40016,-1.23628 1.37466,-2.57519 2.05175,-2.67043c0.08611,-0.01211 0.67822,-3.28575 0.34942,-3.91112c-0.4649,-0.81096 -2.10011,-1.28907 -3.88396,-1.26557c-1.3679,0.01802 -2.16974,0.73483 -3.49602,0.39952c-2.51298,-0.63535 -3.75283,-2.99252 -4.055,-4.43777z" fill="#3841bb" stroke-opacity="0.50196" stroke="#ffffff" stroke-width="0"/><path d="M340.15921,94.0924c0,-1.74791 1.41697,-3.16487 3.16487,-3.16487c1.74791,0 3.16488,1.41697 3.16488,3.16487c0,1.7479 -1.41697,3.16488 -3.16488,3.16488c-1.74791,0 -3.16487,-1.41698 -3.16487,-3.16488z" fill="#3841bb" stroke="none" stroke-width="0"/><path d="M167.82447,183.8371c0.54877,-0.96794 0.93789,-3.028 1.12488,-5.73686c0.40034,-5.79988 0.28832,-11.46305 0.41456,-12.02983c0.32113,-1.44182 0.77183,-7.05446 2.5868,-9.22858c3.86926,-4.63491 10.69465,-8.11849 10.89749,-8.21178c0.52993,-0.24375 1.5224,-5.65361 2.77756,-12.7713c0.46008,-2.60898 1.72142,-8.90661 2.73685,-13.68523c1.66554,-7.83795 2.30994,-11.73379 3.93659,-13.7867c3.46069,-4.36759 10.59312,-5.97898 14.07146,-7.37795c0.09389,-0.03776 17.89789,-6.85354 24.70351,-7.84613c2.00666,-0.29266 4.2416,1.23051 4.31722,1.24067c0.53874,0.07243 7.52249,-7.96331 8.64527,-7.53884c2.26681,0.85698 15.56109,16.68266 15.50995,17.77475c-0.02067,0.44149 0.749,-1.71286 2.12757,-3.21104c0.8022,-0.8718 1.89365,-1.16182 2.38147,-1.03634c2.14004,0.55047 4.28955,3.84878 5.67,5.35887c0.53162,0.58155 1.14422,0.18282 1.30919,0.31984c0.07493,0.21037 0.14088,-0.67256 0.96025,-1.34046c0.00219,-0.00178 2.32484,-0.28445 3.70624,0.15607c3.9413,1.25687 10.1803,4.29962 10.54481,4.62006c0.07101,0.06243 -0.80174,-2.21747 0.0995,-2.80774c0.71262,-0.46675 1.95815,-0.7869 3.13437,-0.99443c4.25855,-0.75133 11.21048,-0.76471 14.81695,-0.17498c1.62189,0.26521 2.17442,1.24152 2.18253,1.30537c0.12531,0.9852 0.27301,7.91725 0.28947,7.98188c0.01124,0.04412 1.02691,-0.62475 1.82772,-0.44041c0.37511,0.08634 0.63904,0.7442 0.84738,1.04868c0.07774,0.1136 -0.36944,-2.14278 -1.10711,-5.6522c-0.09855,-0.46882 -2.22332,-9.92786 -1.10164,-10.92108c1.46215,-1.2947 8.22795,3.09359 9.80339,4.33052c8.86825,6.96277 18.77732,19.18899 19.83626,20.47086c0.15819,0.19151 1.63995,-8.21582 3.11081,-13.40386c0.01547,-0.05455 0.93512,-4.13076 1.54031,-4.33241c2.01929,-0.67285 7.74476,-2.59015 12.84411,-3.22752c7.79332,-0.97409 15.32978,-0.49301 15.3936,-0.04424c0.04726,0.33227 5.89595,-4.67258 7.32189,-4.92572c0.90652,-0.16093 5.18093,3.4023 8.26018,5.78774c1.31192,1.01631 3.41424,1.93735 3.30222,2.07203c-0.19488,0.23427 16.68228,-11.92916 17.41394,-10.46207c0.03278,0.06572 -0.46983,-2.31271 -0.06476,-3.30129c0.77787,-1.89843 2.69763,-3.08211 2.71614,-2.92445c0.01573,0.13401 2.08162,-0.24759 4.63213,0.36623c3.99574,0.96164 9.897,3.29236 16.4549,5.64616c9.76036,3.50328 20.57982,7.28405 25.58173,9.90055c1.95861,1.02454 2.7725,3.12707 2.74431,3.32283c-0.17806,1.23706 -0.53173,14.23396 -2.30766,15.35663c-0.78912,0.49886 -12.46825,4.71363 -13.51869,5.10137c-0.42971,0.1586 1.6769,5.36357 3.20245,8.47008c2.04073,4.15556 2.41298,5.73964 3.05325,6.63636c0.01662,0.02328 11.45594,-2.63958 19.1103,-2.60899c3.70936,0.01482 6.61191,2.31378 6.81284,2.77552c0.73321,1.96662 -0.95388,5.8667 -2.02724,9.81101c-0.68234,2.50744 -0.77948,4.88046 -1.00016,7.26931c-0.38585,4.17684 2.06756,15.41656 1.98002,15.7388c-0.092,0.33871 -2.91492,0.92591 -2.66748,1.73484c0.21677,0.70872 3.87541,4.58519 3.87213,5.24988c-0.00657,1.33354 0.76078,3.82913 -0.12843,5.67529c-4.00372,8.31243 -16.28882,19.27294 -16.41418,18.96592c-0.09062,-0.22193 5.82756,11.84787 13.52616,22.34702c7.19935,9.8183 15.69263,17.88629 17.68567,20.44013c1.09584,1.4042 -2.29743,7.33781 -5.2905,12.97045c-2.26306,4.25885 -3.99707,8.56124 -5.11104,8.70462c-3.31296,1.28999 -11.9878,1.2224 -23.32452,0.07686c-7.26516,-0.7341 -14.72935,-2.30369 -20.07718,-3.41469c-4.17739,-0.86785 -0.81363,13.56351 -15.78264,40.01634c-11.04698,10.14448 -167.39377,19.34831 -182.98268,-0.04888c-5.99968,-7.46537 -5.93244,-23.92283 -6.48036,-24.5912c-1.09253,-1.33274 -0.63211,-4.14482 -1.3244,-4.0772c-0.19905,0.01943 -2.2012,-0.73266 -4.05373,-2.32226c-2.24586,-1.92708 -4.67223,-4.89513 -5.22085,-4.87874c-0.51441,0.035 -0.40131,2.86175 -0.91483,2.87697c-4.76188,0.14101 -13.21147,-1.93122 -21.69608,-1.44249c-5.89812,0.33974 -13.38379,1.5656 -14.2634,1.74046c-1.77482,0.35287 -8.23012,3.10039 -12.27529,4.13888c-4.02729,1.0339 -5.64709,0.36018 -6.24634,0.07756c-0.31365,-0.14792 -1.76446,-2.60154 -2.2506,-5.72719c-0.98954,-6.36243 -1.07704,-15.7674 -1.11324,-15.98486c-0.17876,-1.07405 0.4465,-6.19371 2.04111,-8.32366c5.63583,-7.52786 19.53713,-16.01985 18.80539,-15.90848c-0.32236,0.04908 1.21541,-3.10552 1.58121,-5.57995c0.6667,-4.50965 0.52474,-9.66278 -0.04015,-9.58703c-1.14286,0.15328 -3.03536,0.92838 -4.10023,1.04018c-4.87116,0.51137 -6.29282,0.8567 -9.03798,0.38029c-3.97964,-0.69063 -6.35126,-9.74457 -7.37849,-18.53773c-0.67078,-5.74201 -1.28677,-9.96646 -0.31922,-12.85553c0.28246,-0.84341 4.1442,-3.82446 5.37507,-5.99554z" fill="#000000" stroke="none" stroke-width="0"/><path d="M183.89014,203.69481c-2.91922,0 -15.19107,6.18641 -16.11593,4.83015c-0.64489,-0.94569 -2.36111,-13.72066 -1.27603,-17.91656c0.17933,-0.52999 1.0067,-1.53668 2.77912,-2.95397c3.68422,-2.94604 10.63434,-7.39371 18.60385,-11.1113c10.03955,-4.6832 21.15751,-8.67554 33.08149,-13.40925c4.90562,-1.94749 10.56073,-3.27661 16.42047,-4.55061c12.88497,-2.80139 25.72185,-4.461 26.42445,-4.34912c2.0879,0.33246 1.9864,10.78516 2.24874,16.13054c0.51721,10.53807 0.33746,22.39094 -1.47916,23.38219c-0.95252,0.51974 -19.02646,5.11778 -27.20627,5.4377c-2.04137,0.07984 -0.92681,-5.4438 -1.66895,-5.44895c-0.3675,-0.00255 -20.16214,2.11826 -21.66926,3.90332c-0.15267,0.18085 -0.19375,6.24877 -0.32972,6.43456c-0.9082,1.2411 18.09546,-3.08614 19.5635,1.26946c0.00876,0.02601 1.4442,18.52856 -0.87403,20.20173c-4.19373,3.02681 -12.7271,1.9454 -20.41018,3.82662c-1.13759,0.27854 -0.82877,6.97029 -1.95411,7.28302c-0.34595,0.09614 6.54095,-0.53895 7.36212,1.57371c0.79957,2.05707 0.53662,7.96842 0.35496,12.96912c-0.15515,4.27128 -0.04618,7.85771 -1.41903,8.03601c-0.58239,0.07564 -5.58186,-0.39537 -9.84221,-1.37977c-0.30927,-0.07146 -0.55118,-1.1052 -0.81472,-0.87793c-0.36482,0.31462 0.47219,3.07617 0.12483,3.51232c-0.7543,0.94711 -2.03631,1.37289 -3.20221,1.41769c-0.18628,0.00716 -1.94279,-0.42464 -2.31273,-1.43646c-0.39585,-1.0827 0.4444,-2.79994 0.23744,-2.78743c-0.27842,0.01682 0.26479,-1.20883 -0.35665,-1.18717c-0.20108,0.00701 -0.72064,0.52895 -1.2389,0.88726c-0.37923,0.2622 -0.80402,0.39053 -0.87185,0.39632c-12.04978,1.02977 -27.43805,5.77119 -31.71395,7.0034c-1.33917,0.38592 -1.60463,-3.04369 -1.56751,-6.89429c0.01528,-1.5851 -0.03843,-4.76483 0.09489,-5.37835c0.30267,-1.39293 3.80237,-4.74572 9.29046,-8.47344c5.2398,-3.5591 10.30266,-5.49228 10.80707,-6.5601c0.64106,-1.3571 1.84293,-6.3258 1.93773,-14.3868c0.0478,-4.06395 -0.14989,-8.99196 -0.76132,-12.52207c-0.75106,-4.33623 -1.97222,-6.87157 -2.24644,-6.87157z" fill="#ffffff" stroke="none" stroke-width="0"/><path d="M245.54652,236.30765c0.6564,-0.7003 1.85025,-0.88793 7.63779,-0.88793c0.75705,0 -0.46222,-31.95611 -0.0122,-32.79369c0.24119,-0.4489 1.13233,-2.12226 4.71031,-3.49489c8.44367,-3.23925 29.39889,-3.80614 30.62951,-2.22741c0.11372,0.1459 1.39455,24.31639 0.40049,26.88203c-0.39466,1.01861 -6.08569,0.19986 -6.08081,0.42098c0.36153,16.37988 0.2018,24.39722 -4.62754,32.25215c-1.60863,2.61644 -5.00124,5.8342 -7.54269,6.92483c-1.19873,0.51442 -2.40574,0.8356 -3.58615,1.01956c-0.21969,0.03424 -0.84623,-2.66638 -1.06385,-2.64127c-0.06061,0.00698 -0.57749,-0.20588 -0.5779,0.07333c-0.00088,0.62274 0.54271,2.51969 0.75804,3.71455c0.27222,1.51052 0.21611,2.29161 0.05103,2.31554c-0.20475,1.10071 -1.39905,1.54068 -1.82836,1.49567c-0.3193,-0.03348 -1.1988,-0.42976 -1.51588,-0.88567c-0.71246,-1.02444 -0.9505,-2.14547 -0.75857,-3.01189c0.08993,-0.40595 0.74387,-0.92679 0.63003,-1.04374c-0.1001,-0.10282 -0.86813,0.39561 -1.75047,0.52707c-1.91348,0.28506 -6.73906,0.79278 -7.34265,0.79278c-3.7688,0 -16.54838,0.25028 -16.56544,0.36334c-0.36353,0.19838 -1.45608,0.79574 -2.18757,1.67995c-0.49477,0.59805 -0.531,2.27826 -0.591,3.3983c-0.04486,0.83722 0.71223,2.11007 1.18094,3.46546c0.53042,1.53382 0.77162,3.14667 0.54095,3.86102c-0.31749,0.98694 -1.16291,1.99647 -1.72778,2.04112c-2.01462,0.15927 -2.1797,-2.10857 -2.34549,-3.38547c-0.11068,-0.85246 0.21581,-1.92532 0.45529,-2.87835c0.30483,-1.21308 0.46207,-2.18446 0.45447,-2.30752c-0.1512,-2.44518 -0.18828,-4.48302 -0.2346,-4.43134c-0.06532,0.07284 -0.51353,-1.52306 -1.3202,-1.91302c-0.45279,-0.21889 -1.15778,-0.66343 -2.36494,-0.97758c-1.32425,-0.34463 -3.1658,-0.56135 -3.86876,-0.84204c-2.60395,-1.03971 -2.66183,-1.78563 -2.8022,-2.21145c-0.23676,-0.71825 -0.37571,-15.82069 -0.25111,-24.08738c0.04208,-2.79143 -0.18068,-5.22468 0.02941,-5.49517c0.17535,-0.22578 0.51179,-0.59768 2.52011,-1.19844c2.59504,-0.77627 6.39515,-1.45426 9.44679,-3.04008c0.21072,-0.1095 0.95945,-0.76305 1.10953,-1.5092c0.54275,-2.69846 0.14739,-8.33092 0.16522,-9.32146c0.01763,-0.97949 0.18882,-2.83167 1.26013,-3.18074c1.33383,-0.43461 4.45614,-0.46562 5.68637,-0.28165c0.79393,0.11873 1.04042,0.68449 1.19781,0.75838c0.84507,0.39673 0.8148,6.23164 0.84742,6.51042c0.26316,2.24977 0.68264,6.1863 0.78802,8.80429c0.18494,4.59487 0.18979,7.02058 0.44657,6.74664z" fill="#ffffff" stroke="none" stroke-width="0"/><path d="M298.13603,162.06491c1.78034,-0.17201 11.78772,29.85374 18.43875,43.37704c1.81624,3.6929 4.56715,5.92785 4.94614,5.97737c0.08956,0.0117 -3.41372,-4.96848 -5.23458,-10.81101c-1.32004,-4.23558 -1.59373,-9.41515 -2.85221,-14.42919c-2.74626,-10.94149 -6.34323,-21.63973 -6.00472,-23.20487c0.37105,-1.71558 3.25667,-3.71888 5.91702,-5.89522c2.70779,-2.21514 4.82519,-4.16358 5.549,-4.10681c0.6301,0.04943 1.99368,1.73499 3.06931,2.98062c3.75562,4.34921 12.03988,13.92094 14.28812,18.16656c0.30025,0.56698 -1.55491,3.49219 -3.09331,7.71502c-1.22668,3.3672 -2.10258,7.5893 -2.61084,11.8813c-0.43704,3.69043 -0.02785,7.72932 0.17613,11.30709c0.34589,6.06723 0.87116,10.96233 1.27015,11.70168c1.68226,3.11732 1.75171,11.97262 9.4201,20.70343c1.7445,1.98621 5.36016,4.11947 8.81045,5.93982c4.05896,2.14149 8.10667,3.52798 9.87525,4.79602c0.8111,0.58154 0.26848,1.44168 0.16635,1.8271c-1.77047,6.68206 -23.13875,15.94941 -26.81002,18.23811c-0.65339,0.40733 -0.60032,1.65578 -2.05759,1.75773c-0.46708,0.03268 -0.81858,-1.65619 -1.31153,-1.72433c-2.75896,-0.38133 -8.88854,-16.79637 -13.95815,-30.31345c-4.39456,-11.71726 -7.53234,-21.16655 -9.86511,-19.99544c-0.41071,0.20619 2.91349,10.82341 4.08152,18.14155c1.91053,11.97009 2.17669,22.94966 1.48604,23.2294c-1.23894,0.50185 -3.06946,-1.53409 -4.25247,-1.19299c-0.90109,0.25982 0.94909,5.88448 0.9099,8.42337c-0.04656,3.01597 -1.94968,2.99315 -2.94788,2.89423c-1.41951,-0.14067 -1.95797,-1.56124 -1.83772,-3.28362c0.12984,-1.85997 0.98692,-4.09236 1.1789,-6.02159c0.18575,-1.86651 -1.2169,-3.51809 -1.41738,-3.56534c-0.46292,-0.10907 -2.57326,-1.31919 -5.09327,-1.91742c-4.29841,-1.02041 -9.78878,-1.67066 -10.32878,-2.25671c-0.81698,-0.88666 -0.46247,-23.28805 -0.22156,-23.7296c0.58463,-1.07163 4.32026,-0.2031 4.26434,-1.48445c-0.24391,-5.58763 2.30714,-21.07665 -0.35781,-30.7165c-0.19434,-0.70295 -1.02917,-1.37676 -1.27647,-2.01561c-0.18942,-0.48934 -1.18275,-0.94822 -2.09143,-1.17251c-4.49719,-1.11008 -15.59637,0.63369 -15.84933,-0.11286c-1.07873,-3.18364 -0.23663,-5.67685 -0.37556,-9.09072c-0.26754,-6.5745 -1.05127,-13.53131 -0.42862,-15.11284c0.01999,-0.05076 1.54429,-1.08204 4.39447,-2.14371c6.33037,-2.35798 19.45851,-4.51182 22.0344,-4.76071z" fill="#ffffff" stroke="none" stroke-width="0"/><path d="M333.81718,200.9781c0.32927,-5.34105 0.41576,-8.32093 2.81493,-15.15083c0.62287,-1.77317 2.93204,-9.31539 3.63275,-10.7131c0.1635,-0.32614 -0.07868,-2.13226 -0.96633,-4.29092c-1.03801,-2.52427 -2.74761,-5.44021 -2.52674,-5.66541c0.11326,-0.11548 5.14666,-2.84579 10.12028,-4.94347c2.44498,-1.03119 4.85353,-1.59699 6.70004,-2.23073c0.4404,-0.15115 0.97474,2.08835 1.6472,3.44153c1.94847,3.92093 4.86019,10.1426 4.83454,10.75259c-0.04043,0.96177 -5.21234,2.22966 -7.52741,7.14861c-2.29991,4.88673 -1.7449,13.42611 -1.22782,13.94755c0.05235,0.0528 1.26551,-2.30131 3.93202,-5.32668c3.7859,-4.29538 10.98271,-10.59491 16.01404,-15.74409c4.44007,-4.54407 6.86697,-8.66642 8.43225,-9.49138c0.39685,-0.20915 6.24434,12.50544 8.96364,20.27256c0.73131,2.08883 1.20599,3.12956 1.2124,4.9828c0.00198,0.57248 -1.83784,0.58777 -1.92103,0.62869c-2.56434,1.26146 -7.93957,4.37209 -12.80502,7.71427c-4.1871,2.87621 -7.3573,6.24745 -6.87569,6.2764c1.17311,0.0705 4.49224,-1.4153 7.54902,-2.13313c2.46008,-0.57769 6.89964,-1.49021 8.62458,-1.49961c1.59216,-0.00867 2.19494,1.64511 3.29944,5.05652c0.99372,3.06924 2.48737,7.63939 3.8651,12.36167c0.71537,2.45195 2.62598,5.73657 3.46824,8.30174c2.33069,7.09817 3.58208,13.0574 3.1289,14.12132c-0.30519,0.71646 -0.60963,2.17129 -1.32607,3.21068c-1.50004,2.17622 -4.25086,4.47465 -8.69991,7.99694c-4.39836,3.48216 -10.50863,7.21012 -15.26338,9.65366c-2.622,1.34749 -4.5036,2.69687 -5.78683,2.69687c-1.9622,0 -0.16998,-1.99427 0.15416,-7.21612c0.46984,-7.5691 0.60769,-16.74807 0.22411,-26.08903c-0.14897,-3.62807 -0.02825,-9.64949 -0.51751,-12.07295c-0.26027,-1.28913 -10.34139,-0.05285 -11.17706,0.24706c-0.43403,0.15577 -1.11012,1.7798 -1.86517,4.66887c-1.31639,5.03688 -2.67166,12.2849 -2.78315,12.27926c-0.24804,-0.01252 -1.73122,-0.61228 -3.17552,-1.60717c-3.52285,-2.42667 -7.98504,-7.57474 -10.20587,-11.54426c-3.52015,-6.29196 -4.45947,-12.05465 -3.96717,-20.04072z" fill="#ffffff" stroke="none" stroke-width="0"/><path d="M405.46038,170.02399c-0.74635,1.09023 -2.14251,2.68914 -4.16188,4.29495c-2.74782,2.18506 -6.33513,4.38282 -8.09575,5.32893c-0.64394,0.34604 -1.73977,0.17182 -1.82662,0.16085c-1.1194,-0.0326 -1.80246,-2.21419 -2.87699,-4.73605c-1.57232,-3.69016 -3.04308,-8.12625 -3.04308,-8.90512c0,-0.47994 -0.79933,-4.90198 -0.00723,-5.67251c0.53512,-0.52053 1.66833,-0.84909 3.4323,-1.38773c1.03944,-0.3174 2.29788,-0.82827 3.78204,-1.17007c4.61205,-1.06218 12.44025,-1.87645 13.71198,-0.93672c0.2833,0.20933 0.32991,3.80752 0.17536,7.69072c-0.07806,1.96125 0.07828,3.62598 -1.09012,5.33276z" fill="#ffffff" stroke="none" stroke-width="0"/><path d="M403.71419,203.26676c0.25698,1.10431 2.35181,7.85162 5.17788,14.48601c3.0104,7.06717 6.80909,14.08081 8.69912,16.53008c2.64157,3.42317 6.97627,6.11762 7.91714,8.43798c0.26927,0.66406 -0.07347,2.03054 -0.07456,2.47326c-0.005,2.03744 -1.31805,5.88996 -2.61966,9.28379c-0.87001,2.26845 -1.50313,4.85705 -2.4276,5.11929c-0.95042,0.26961 -5.55185,-1.87526 -7.46491,-2.02612c-2.4513,-0.19331 -2.3718,1.33763 -2.4819,1.75324c-0.3009,1.13592 1.42412,6.39416 1.47144,7.64353c0.14011,3.69862 -0.56705,3.31995 -2.03625,3.46312c-3.06279,0.2985 -1.75846,-4.3486 -1.93321,-4.28074c-0.08056,0.03128 0.60604,-2.66834 0.69607,-4.95587c0.11631,-2.95511 -0.35134,-5.67524 -0.45871,-5.65703c-0.12047,0.02044 -2.1633,-0.66615 -3.90886,-1.52509c-2.52198,-1.24098 -5.02571,-2.84174 -5.26574,-3.18984c-0.33935,-0.49218 -0.12889,-0.94819 0.24678,-2.29262c0.45711,-1.6359 1.39108,-3.93797 1.9439,-5.96533c0.60184,-2.20712 0.92938,-4.10504 0.77799,-4.14034c-0.20566,-0.04794 -1.97668,-6.142 -4.10287,-13.42146c-0.60327,-2.06536 -1.2917,-3.88664 -1.91177,-6.10816c-2.84109,-10.17853 -9.08023,-20.95245 -7.84034,-24.32841c0.42368,-1.15362 1.85038,-2.686 3.28203,-3.89381c2.86276,-2.41517 6.9758,-5.37841 7.80371,-5.47953c1.35462,-0.16546 1.45905,5.22218 2.33751,10.60499c0.44399,2.72053 1.49806,4.56926 2.17284,7.46904z" fill="#ffffff" stroke="none" stroke-width="0"/><path d="M441.15912,251.52937c-0.11013,0.28819 -2.78744,-0.2198 -5.50176,-1.07341c-1.40546,-0.44199 -3.14045,-0.97666 -3.85903,-1.54143c-0.03827,-0.03008 -0.47999,-3.45419 -1.63193,-7.96569c-0.7276,-2.84963 -1.8013,-5.92101 -2.76677,-8.97574c-1.64191,-5.19491 -4.22529,-11.28353 -5.90165,-15.19538c-1.38257,-3.22633 -1.96811,-7.95365 -3.21257,-7.81189c-0.38544,0.0439 0.00725,3.31764 -0.03634,4.47049c-0.18572,4.91254 1.56138,14.95781 1.30628,14.84086c-0.00797,-0.00365 -2.54763,-2.01873 -3.73301,-3.90421c-3.27049,-5.20201 -8.70465,-17.13232 -8.7099,-17.15982c-0.00558,-0.02926 -1.29705,-2.84838 -1.88837,-5.68386c-1.63533,-7.84197 -3.7727,-21.66661 -3.43379,-21.83726c0.21051,-0.10599 6.98448,-13.65517 9.7617,-15.81626c0.7308,-0.56867 4.33578,-1.08289 7.26153,-1.81c4.74307,-1.17876 9.64852,-2.44556 9.96033,-2.31056c0.95077,0.41165 0.58839,11.96493 0.37032,15.79975c-0.04219,0.74175 -5.62248,2.88505 -5.59031,3.62708c0.28929,6.67514 6.16963,16.11691 6.34664,15.9732c0.12856,-0.10437 -0.28255,-4.37669 0.38111,-10.12414c0.71485,-6.1909 2.56041,-14.02688 4.28981,-18.2771c0.3028,-0.74415 0.84261,-1.61065 1.60432,-1.88212c1.09291,-0.38951 4.87813,-0.15186 8.14121,-0.20502c0.29458,-0.0048 3.3101,-0.89117 4.50784,-0.1945c0.38346,0.22305 0.66508,1.21611 1.67136,2.25659c1.86291,1.92622 4.82582,4.3923 5.75911,5.09732c1.42104,1.07348 2.42813,2.56521 3.70274,3.5266c4.71031,3.55279 8.48297,5.7659 8.37241,6.77395c-0.37685,1.58633 -4.77661,6.02363 -8.6714,9.80891c-3.08003,2.99347 -5.74718,5.65684 -6.53661,5.63804c-0.53451,-0.01272 -2.81466,-2.46151 -4.44401,-3.99657c-0.83745,-0.78899 -1.80805,-1.14593 -1.64465,-1.20459c0.04312,-0.01549 -0.03204,0.6044 0.0996,1.08571c0.29209,1.06787 0.99239,2.87653 1.94442,5.62249c0.64269,1.85372 1.30855,3.96932 2.50145,6.18401c3.53373,6.56056 8.20906,15.13974 12.98297,21.9846c3.34736,4.79944 7.00662,8.40376 9.22447,11.33103c1.01484,1.33945 3.44806,4.30361 5.89112,7.1075c2.35352,2.70111 4.72735,5.24976 5.27332,6.24646c0.40626,0.74166 -3.96964,5.18962 -4.04453,5.68633c-0.04476,0.29685 -2.86535,0.36312 -6.12642,0.10809c-3.10057,-0.24248 -6.12533,-0.79212 -10.6378,-1.53813c-1.87797,-0.31047 -7.6768,-0.21718 -9.2631,-0.53708c-1.05123,-0.21198 -3.4715,-1.25353 -4.26914,-1.42648c-1.51992,-0.32954 -4.13688,-0.43416 -4.18986,-0.52639c-0.08639,-0.15042 -0.44111,-1.86457 -0.65701,-2.17163c-0.28499,-0.40536 -0.36768,0.87495 -0.37905,1.0821c-0.05082,0.92503 0.30214,3.01074 0.15915,3.64622c-0.25694,1.14193 -1.28521,1.40996 -1.85724,1.42249c-0.80676,0.01765 -1.50466,-0.2036 -1.90809,-0.65777c-1.47208,-1.65729 -0.55976,-5.64762 -0.61892,-5.4928z" fill="#ffffff" stroke="none" stroke-width="0"/><path d="M467.25859,159.17026c0,4.74598 0.88425,10.88909 0.09472,11.24886c-0.94022,0.42842 -2.29915,0.26122 -3.68,0.3639c-1.58105,0.11757 -3.61831,0.22053 -3.75544,0.21155c-1.08944,-0.07132 -1.63067,-1.60854 -2.58232,-2.75067c-1.56534,-1.87867 -6.93865,-12.26555 -6.93865,-16.80999c0,-2.84022 2.18213,-3.60743 5.14745,-4.51588c2.2564,-0.69126 4.6146,-0.96222 7.16157,-1.27558c2.71735,-0.33432 5.60093,-0.68774 7.19889,-0.68774c2.19531,0 0.65369,2.21256 -0.28346,4.27876c-1.22465,2.70007 -2.36273,5.79728 -2.36273,9.93678z" fill="#ffffff" stroke="none" stroke-width="0"/><path d="M227.82715,127.96184c2.53353,-0.26071 4.50408,0.77187 5.26229,2.17155c0.46895,0.8657 -3.32487,11.08421 -3.68028,12.30291c-0.09572,0.32824 -1.55128,0.06339 -3.28938,-0.47991c-2.23498,-0.69862 -4.93716,-1.64323 -5.81602,-0.11284c-0.38975,0.67866 0.72626,11.58161 0.73606,11.69715c0.06436,0.75741 1.01287,2.67135 0.44314,3.32735c-1.17591,2.13402 -9.8245,5.63781 -10.87073,3.67541c-0.92734,-1.73941 -0.55718,-11.36835 -0.69909,-14.82219c-0.05953,-1.44868 -1.02771,-7.6501 -0.85678,-8.1456c0.60606,-1.7567 4.26257,-2.91313 5.69032,-3.52863c1.47146,-0.63433 1.66936,0.86944 2.68264,0.95224c0.68587,0.05605 2.3464,-2.68033 2.89756,-3.28627c1.1735,-1.29012 2.30998,-2.18336 3.6432,-2.77993c1.22596,-0.54859 2.64339,-0.84635 3.85706,-0.97125z" fill="#ff0000" stroke="none" stroke-width="0"/><path d="M243.52209,133.02763c0,1.93348 0.26795,18.9267 -1.69575,18.9267c-1.96371,0 -14.05828,2.91813 -14.05828,1.75046c0,-0.18958 -0.91567,-1.94729 -0.78942,-2.39818c0.34494,-1.232 2.8455,-3.74728 3.92986,-5.90569c0.74487,-1.48263 1.68554,-3.32108 2.36546,-5.02857c1.66231,-4.17447 2.85504,-8.48925 3.73864,-8.48925c1.96371,0 6.50948,-0.78897 6.50948,1.14452z" fill="#ff0000" stroke="none" stroke-width="0"/><path d="M246.9752,127.66132c0.32341,-1.5776 6.69879,-9.86725 11.20927,-15.88326c2.87383,-3.83307 4.37738,-6.60159 5.06148,-6.5811c0.09971,0.00298 1.65108,-0.30991 1.91672,-0.12368c2.73343,1.91628 8.87504,13.40801 9.51029,15.44157c0.74895,3.90726 -0.9988,21.58073 -2.88981,23.79105c-1.67527,1.95816 -10.55575,6.32547 -17.02554,8.02281c-4.61855,1.21168 -8.5736,1.31923 -8.90144,1.29082c-1.40281,-0.12153 -1.213,-4.121 -0.85002,-8.88605c0.52865,-6.93968 1.68524,-15.68777 1.96904,-17.07214zM260.49316,137.76343c0.32696,0.13547 5.55837,-4.60683 5.87599,-6.74945c0.19935,-1.3448 -0.69262,-8.88527 -1.5087,-8.814c-0.20561,0.01796 -0.91635,0.8031 -1.37593,1.82538c-0.92415,2.05564 -1.79942,5.31186 -2.2767,6.90922c-0.38921,1.30257 -1.61198,6.45708 -0.71465,6.82886z" fill="#ff0000" stroke="none" stroke-width="0"/><path d="M265.8431,151.31481c-0.03692,-0.41073 8.02823,-4.931 8.80619,-8.16903c1.00378,-4.17803 2.30266,-13.49588 2.02605,-18.8741c-0.14159,-2.75264 -2.72936,-9.35995 -4.1302,-12.32106c-0.52157,-1.10247 1.59526,-3.66681 1.86681,-3.9272c0.63585,-0.60973 3.73881,0.84251 7.48392,2.44386c4.91275,2.10062 10.37995,4.35676 10.50321,5.53289c0.03323,0.31723 1.33529,1.68879 1.42911,6.04686c0.19069,8.85825 0.48543,30.55581 -0.21096,31.22652c-0.85967,0.82801 -8.89566,1.80669 -9.30753,1.81508c-0.17122,0.00349 0.29031,-2.70952 0.34386,-5.37831c0.05332,-2.65755 -0.3016,-5.27126 -0.36581,-5.11506c-0.14528,0.3534 -0.72539,-0.16398 -0.87143,0.18505c-0.63538,1.51832 -1.20593,2.92038 -1.84672,4.32017c-4.53024,9.89611 -9.0002,14.92867 -9.52749,15.01286c-1.26348,0.20174 -5.88427,-9.29751 -6.19896,-12.79853zM285.1054,132.61229c0.2445,0.04027 2.3137,-3.45224 2.27151,-4.24438c-0.03967,-0.7448 -3.55415,-2.93696 -3.8502,-2.75134c0,0 0.5561,2.00889 0.92849,3.87374c0.31882,1.59662 0.44186,3.08765 0.65019,3.12198z" fill="#ff0000" stroke="none" stroke-width="0"/><path d="M247.82803,113.90576c-0.04427,0.2833 -3.02871,1.46054 -5.86426,2.16454c-1.30537,0.32409 -3.29773,1.10784 -3.34864,0.77862c-0.07432,-0.48068 -0.08618,-3.74173 0.25973,-7.12382c0.21437,-2.09599 0.13462,-4.39649 0.33378,-4.74348c0.1988,-0.34636 2.14051,-0.83807 3.7756,-1.52697c1.57119,-0.66197 3.8688,-1.43292 4.95295,-1.1613c0.25844,0.01717 0.22084,2.65239 0.17757,5.78818c-0.02643,1.91503 0.02588,3.82363 -0.28674,5.82425z" fill="#ff0000" stroke="none" stroke-width="0"/><path d="M242.63079,127.79886c-0.80444,0.28234 -4.70444,-4.04106 -4.76225,-4.46301c-0.01784,-0.13025 -0.02529,-4.39069 0.56064,-4.92893c1.18485,-1.08837 9.16285,-3.64144 9.35264,-3.35523c0.1658,0.25002 0.4446,3.60486 0.4446,5.71962c0,0.4737 -4.96535,6.80632 -5.59564,7.02755z" fill="#ff0000" stroke="none" stroke-width="0"/><path d="M230.81631,112.8816c0,-0.91478 0.51644,-2.05757 1.32375,-3.46545c0.4822,-0.84094 1.06817,-2.02977 1.70983,-2.61889c1.67141,-1.53452 3.62776,-1.47468 4.06303,-1.24203c0.14285,0.05889 -0.26609,11.21198 -0.67721,11.70127c-0.25518,0.3037 -3.25115,1.07236 -3.4008,0.99043c-0.39882,-0.14137 -3.01859,-2.48086 -3.01859,-5.36533z" fill="#ff0000" stroke="none" stroke-width="0"/><path d="M236.38503,121.93927c-0.18796,-0.01761 -0.87031,-0.73214 -1.28946,-1.35588c-0.33996,-0.50592 -0.2509,-0.77854 -0.2509,-1.09663c0,-0.09309 1.30048,-0.52533 2.05568,-0.67105c0.41564,-0.08021 0.47737,0.02934 0.5093,0.08828c0.03546,0.06548 -0.34306,2.20642 -0.4724,2.52519c-0.12527,0.30869 -0.46003,0.51872 -0.55223,0.51008z" fill="#ff0000" stroke="none" stroke-width="0"/><path d="M235.25733,104.16561c-0.08013,-0.11852 0.00758,-0.50352 0.30226,-0.91187c0.21651,-0.30003 0.86176,-1.01297 0.99372,-1.28214c0.53259,-1.08643 0.69332,-1.65375 0.92914,-1.68624c0.09472,-0.01306 0.33596,0.34592 0.53345,0.89413c0.26169,0.72644 0.44652,1.73618 0.11172,2.17284c-0.62569,0.85768 -2.63849,1.15604 -2.87026,0.8133z" fill="#ff0000" stroke="none" stroke-width="0"/><path d="M251.85694,99.32372c-0.68318,0.92355 -2.40136,1.12152 -2.8227,0.95068c-0.18961,-0.07689 -0.41204,-1.49397 -0.30183,-2.83813c0.06764,-0.82505 0.29205,-1.80155 0.51111,-1.81695c1.02456,-0.07204 3.00242,3.17853 2.61342,3.70441z" fill="#ff0000" stroke="none" stroke-width="0"/><path d="M247.99561,94.35238c0.05354,0.27452 0.29586,6.08881 -0.10006,6.23384c-0.16934,0.06204 -1.7528,0.44942 -3.62971,0.99668c-2.02851,0.59148 -4.37138,1.34135 -4.84951,1.27635c-0.35515,-0.04827 -0.76328,-3.96411 -0.5148,-5.12224c0.15595,-0.72685 1.44858,-2.21377 2.3428,-3.4164c1.34824,-1.81319 2.60407,-3.38707 2.97445,-3.4072c1.28615,-0.06985 3.68028,2.94397 3.77681,3.43895z" fill="#ff0000" stroke="none" stroke-width="0"/><path d="M252.76361,114.68265c-0.0485,0.38739 -2.14242,3.00724 -2.76472,3.00724c-0.37977,0 -0.20676,-3.16988 -0.09699,-3.54078c0.07676,-0.25938 2.33234,-0.6732 2.81321,-0.65479c0.39838,0.01524 0.17497,0.17829 0.04851,1.18834z" fill="#ff0000" stroke="none" stroke-width="0"/><path d="M257.11429,107.34603c-0.07725,0.42947 -0.67327,2.29525 -2.486,3.67882c-1.65263,1.26135 -4.44096,1.92263 -4.85612,1.78428c-0.74341,-0.24773 -1.085,-9.84806 -0.93847,-10.67495c0.14508,-0.81876 3.32402,-1.75124 4.01543,-1.63587c0.42059,0.07021 1.03071,1.48892 2.02021,3.08288c0.97191,1.56566 2.32796,3.30342 2.24497,3.76484z" fill="#ff0000" stroke="none" stroke-width="0"/><path d="M302.92978,129.692c0.11426,-0.00897 1.3269,-2.97711 2.29408,-5.36766c1.30491,-3.22531 2.2451,-6.28272 2.76927,-6.44926c1.1768,-0.37389 4.1161,2.04962 7.20729,4.63157c1.84154,1.53816 4.65127,3.46941 4.65478,3.97069c0.00417,0.59291 -4.91404,5.33089 -9.17805,9.25921c-3.05399,2.81357 -5.77239,5.24812 -6.10633,5.27924c-0.61922,0.05773 0.42065,7.0501 0.52995,7.65832c0.00207,0.0115 1.25475,0.82243 2.48377,0.7312c2.16377,-0.16062 4.50766,-1.3128 4.67645,-1.03334c0.12349,0.20445 2.53075,2.76355 2.46528,3.04046c-0.1893,0.80075 -1.696,2.08541 -3.56221,3.7455c-3.88765,3.45825 -9.58455,7.79835 -9.929,7.54583c-0.51058,-0.37431 -5.23397,-3.89739 -5.36869,-4.53692c-0.63319,-3.0059 -0.25603,-10.83551 -0.29903,-18.59561c-0.00338,-0.60895 -0.34739,-20.10155 -0.36643,-22.59866c-0.00532,-0.69764 -1.12651,-2.4154 -2.34992,-3.31086c-1.43865,-1.053 -2.93816,-1.29043 -3.09187,-1.52625c-0.88005,-1.35017 -0.20235,-4.02723 0.64503,-4.41663c1.30791,-0.60103 2.50683,-0.20312 4.11708,-0.16379c2.05387,0.05017 4.75347,0.11313 6.61332,0.43184c1.58366,0.27138 2.85999,0.24027 3.29266,1.51334c0.4581,1.34789 0.01899,4.04001 -0.20126,5.72686c-0.33213,2.54376 -0.986,4.96158 -1.16568,7.56488c-0.27578,3.99554 -0.1305,6.90005 -0.1305,6.90005z" fill="#ff0000" stroke="none" stroke-width="0"/><path d="M207.02531,163.07047c-2.23765,1.16825 -32.63519,17.10979 -34.44005,16.2354c-0.42975,-0.20819 -1.11128,-2.30722 -1.15512,-5.09375c-0.08876,-5.64258 1.08053,-14.54186 2.75111,-15.83115c6.30919,-4.86916 9.80381,-4.90611 10.46022,-6.36021c0.49813,-1.07898 3.79429,-15.34751 6.25195,-27.03612c1.41062,-6.70889 2.40448,-13.34435 2.91601,-14.03375c4.02489,-5.42432 35.30267,-16.05318 38.89267,-15.16285c0.3139,0.07784 1.10157,0.21626 1.46133,0.74962c0.23828,0.35326 0.11329,1.41031 0.02976,1.81271c-0.37814,1.82206 -2.14617,4.6221 -3.61988,7.41192c-2.08996,3.95645 -4.02561,7.89234 -4.33766,8.98912c-0.28798,1.01221 -6.75311,2.61552 -9.91656,3.32157c-1.46685,0.32738 0.37188,-2.47418 -1.84671,-2.19991c-0.21107,0.0261 -7.48537,3.31252 -8.45163,4.02396c-0.4728,0.34811 -0.56966,4.42728 -0.52975,4.52392c0.09158,0.22175 2.41855,-0.37516 5.13737,-1.45594c2.69068,-1.0696 6.70118,-2.35621 6.87321,-2.15618c0.32678,0.37999 0.51673,4.14489 0.51361,6.79674c-0.00183,1.5532 0.2122,2.6043 -0.07405,2.75181c-1.32018,0.68046 -4.21911,1.42273 -8.20603,3.18345c-2.62545,1.15947 -5.08132,2.85503 -5.0547,3.04845c0.65589,5.56774 0.53721,10.44465 1.037,14.86302c0,0 0.79475,5.45474 1.04481,7.4706c0.21547,1.73707 0.26309,4.14755 0.26309,4.14755z" fill="#ff0000" stroke="none" stroke-width="0"/><path d="M365.09003,105.47115c0.25638,0.35864 -0.2829,2.16413 -1.22563,4.05893c-2.20835,4.43856 -6.63058,11.62142 -8.22553,18.01792c-3.02681,12.13899 -1.60499,23.82371 -1.95709,24.26768c-0.34674,0.43721 -2.49568,1.05267 -4.98046,2.09379c-3.53315,1.4804 -7.74535,3.41081 -8.42104,3.38811c-0.75671,-0.02541 -1.71607,-2.92995 -3.3365,-5.45615c-2.00398,-3.12412 -4.6467,-5.98878 -4.72822,-5.91898c-0.22418,0.19197 1.01707,4.17414 1.36077,7.69109c0.21607,2.21111 1.06182,4.80859 1.27069,6.74506c0.29424,2.7279 -0.58609,4.13947 -0.71241,4.1399c-0.76903,0.00258 -5.34201,-4.95849 -9.364,-9.44673c-3.4762,-3.87917 -7.01022,-7.30348 -7.1034,-8.08564c0,0 1.02442,-1.19356 0.83357,-4.82423c-0.19685,-3.74496 -1.60315,-9.83465 -1.1977,-10.14102c0.15025,-0.11353 5.37614,-5.18959 6.29369,-5.20162c0.41638,-0.00544 -9.4823,-7.9069 -9.00683,-7.8371c0.33889,0.04976 -1.80202,-3.16821 -2.69211,-6.57363c-0.85043,-3.25368 -2.58477,-7.5062 -1.69864,-8.84472c1.64104,-2.47884 13.12094,7.66719 19.1089,14.88262c1.93638,2.33335 9.80102,13.52002 9.87631,13.31218c0.26853,-0.74123 0.00323,-7.7987 1.125,-14.24333c0.79421,-4.56279 3.08047,-9.21823 3.21159,-9.33474c3.3967,-3.01787 21.29762,-3.06909 21.56903,-2.68944z" fill="#ff0000" stroke="none" stroke-width="0"/><path d="M359.27447,126.33341c0.24219,-1.1676 0.91694,-2.20894 1.43895,-3.29286c1.86777,-3.87838 4.93768,-7.0387 7.44408,-7.19555c1.45159,-0.09083 8.84614,10.71018 8.61548,12.09379c-0.19562,1.1734 -6.58175,6.01245 -8.18739,5.99339c-0.7767,-0.00923 -3.34323,-1.19636 -5.31198,-2.69351c-2.39894,-1.8243 -4.16971,-4.08299 -3.99917,-4.90523z" fill="#ff0000" stroke="none" stroke-width="0"/><path d="M361.07931,167.27431c-0.77314,0.1409 -4.10867,-7.1075 -4.98116,-10.84242c-0.32511,-1.39169 -0.42212,-2.78351 -0.26184,-4.45575c0.13715,-1.43089 0.51615,-3.15619 0.50608,-4.26937c-0.00291,-0.32011 2.05795,-7.4169 2.19074,-7.98344c0.60152,-2.56652 0.64709,-5.05345 0.64709,-5.05345c0.76785,-0.72961 1.84418,-0.80063 2.10557,-0.7962c0.61617,0.01044 2.87446,0.85183 5.31813,2.91415c0.43682,0.64479 -1.05783,10.84049 -0.73027,11.68959c0.35521,0.92077 6.36826,5.0353 6.46262,5.75448c0.31579,2.40696 -1.5393,6.3801 -3.21159,8.13724c-1.04591,1.09899 -2.66244,2.66792 -4.61843,3.71093c-1.17139,0.62463 -2.82469,1.08446 -3.42693,1.19421z" fill="#ff0000" stroke="none" stroke-width="0"/><path d="M378.87872,128.72565c0.46225,-1.55472 -11.25025,-18.86142 -10.83501,-19.36366c1.43608,-1.73709 8.46612,-8.25016 9.95139,-8.5972c0.37138,-0.08677 3.04928,2.5468 6.82795,5.1674c6.98069,4.84126 16.88144,11.3013 17.01718,12.10138c0.16067,0.94684 -1.21003,3.97087 -1.32389,6.45105c-0.27051,5.89275 0.22371,13.66437 -0.23769,13.90094c-0.43634,0.22373 -2.33735,0.37243 -4.096,0.25597c-2.08221,-0.13789 -4.06637,-0.57145 -4.62829,-0.60903c-0.47385,-0.03169 -0.80049,-2.87141 -1.40738,-5.30073c-0.46328,-1.85441 -1.27421,-3.46968 -1.34625,-3.41423c-0.76584,0.58934 -0.75606,19.79102 -0.26184,19.84519c0.22803,0.02498 3.77844,-0.53374 4.32889,-1.17249c0.28628,-0.3322 -0.10088,-1.66598 -0.09627,-1.70925c0.01956,-0.18347 -1.83904,0.54453 -2.00387,0.29517c-0.18242,-0.276 -0.26601,-4.08867 0.08911,-4.55827c0.73926,-0.97758 4.10428,-0.98047 6.92021,-1.35071c1.86888,-0.2457 2.9125,0.14276 2.93296,0.28681c0.04498,0.31651 1.21029,1.49083 1.59637,2.91126c0.75221,2.76755 0.79102,6.6552 0.29115,6.76728c-0.94786,0.21253 -12.37597,2.57408 -20.52312,5.9043c-4.53656,1.85438 -9.29674,5.92428 -9.42285,5.84398c-0.42046,-0.26768 1.1933,-4.36502 1.83062,-8.1403c0.05372,-0.31819 0.22814,-1.26496 -0.75558,-2.13564c-1.17889,-1.04343 -3.48501,-2.02682 -3.48383,-2.44176c0.00322,-1.12796 -1.40225,-11.45803 -0.67799,-12.64728c0.43727,-0.71801 2.48461,-2.15812 4.2426,-3.64082c2.55902,-2.15826 4.99928,-4.40673 5.07142,-4.64941z" fill="#ff0000" stroke="none" stroke-width="0"/><path d="M421.59527,127.00492c0,3.24667 1.23557,10.04382 3.34002,16.09329c1.03332,2.97044 3.11678,5.85399 3.72926,7.86653c0.59407,1.95212 0.62534,3.42158 0.32313,3.40899c-2.00149,-0.08338 -5.42352,0.98816 -8.80246,2.17569c-2.7858,0.97907 -6.21815,2.61308 -6.72315,2.97992c-0.22069,0.1603 -0.31193,-8.47612 -1.3433,-14.05602c-0.43077,-2.3305 -1.07332,-4.35514 -1.67286,-5.31539c-0.4462,-0.71467 -0.92349,-0.67506 -0.97917,-0.6114c-1.04402,1.19368 0.39168,13.53751 0.12842,13.48946c-1.28773,-0.23498 -4.30228,0.3042 -4.42536,-1.04617c-0.23711,-2.60152 -1.87223,-15.0002 -2.34132,-24.17558c-0.35759,-6.99437 0.13608,-11.50328 -0.04998,-12.03572c0.00486,-0.78947 -10.12023,-7.13891 -9.99296,-8.78406c0.10977,-1.41895 8.80429,-6.62927 12.76014,-8.23476c1.30762,-0.5307 1.94545,0.6077 1.98683,0.59512c0.7979,-0.24279 3.95491,22.85537 4.03193,22.66545c0.06544,-0.16138 1.25602,-5.28338 2.91855,-9.081c1.00074,-2.28593 1.90492,-3.59967 2.24794,-3.5551c1.08507,0.14097 3.79991,0.72606 5.32067,2.21023c0.70577,0.68878 -0.45628,6.38036 -0.45628,15.41056z" fill="#ff0000" stroke="none" stroke-width="0"/><path d="M451.72735,118.10423c-0.88959,0.56675 -16.4596,0.92478 -16.37335,1.87675c0.58442,6.44969 13.27414,34.76658 12.82497,35.04079c-1.51199,0.92305 -16.54209,7.54872 -16.8884,7.52835c-0.95245,-0.05602 -0.36817,-12.5834 -2.11999,-25.49353c-1.04659,-7.71284 -2.23052,-14.7744 -3.47381,-19.84256c-0.41787,-1.70344 -1.12939,-6.1689 -2.90166,-7.74269c-2.00421,-1.77974 -6.77102,-2.9314 -6.71673,-3.12234c0.07973,-0.28037 -2.01979,4.41363 -2.56023,4.25176c-0.52033,-0.15585 -1.10148,-0.73981 -1.33979,-2.14643c-0.31542,-1.86172 -0.25684,-4.86239 -0.88871,-7.24936c-1.22828,-4.63991 -2.54892,-8.48288 -2.37797,-8.95213c0.92446,-2.53766 41.53655,13.98776 43.98044,15.36509c0.72487,0.40853 0.18827,3.05979 -0.26221,5.60006c-0.41027,2.3135 -0.55953,4.66774 -0.90253,4.88625z" fill="#ff0000" stroke="none" stroke-width="0"/><path d="M210.0281,236.65434c-0.34595,0.09614 6.54095,-0.53894 7.36212,1.57372c0.79957,2.05707 0.53662,7.96843 0.35496,12.96913c-0.15515,4.27128 -0.04617,7.8577 -1.41902,8.036c-0.58239,0.07564 -5.58187,-0.39536 -9.84221,-1.37976c-0.30927,-0.07146 -0.55117,-1.10521 -0.81472,-0.87793c-0.36482,0.31462 0.47218,3.07617 0.12482,3.51233c-0.7543,0.94711 -2.03631,1.37288 -3.20221,1.41768c-0.18628,0.00716 -1.9428,-0.42463 -2.31273,-1.43646c-0.39585,-1.0827 0.44441,-2.79994 0.23745,-2.78742c-0.27842,0.01682 0.26479,-1.20883 -0.35665,-1.18718c-0.20108,0.00701 -0.72065,0.52895 -1.23891,0.88726c-0.37923,0.2622 -0.80403,0.39053 -0.87185,0.39633c-12.04978,1.02977 -27.43805,5.77119 -31.71395,7.0034c-1.33917,0.38592 -1.60463,-3.04369 -1.56751,-6.89429c0.01528,-1.5851 -0.03842,-4.76483 0.09489,-5.37835c0.30267,-1.39293 3.80236,-4.74572 9.29045,-8.47344c5.2398,-3.5591 10.30266,-5.49228 10.80707,-6.5601c0.53564,-1.13392 1.46279,-4.78922 1.80856,-10.663c2.87699,0.84033 4.75008,1.38119 4.9408,1.4213c0.10682,0.02247 11.34152,0.99907 19.81928,1.72977c-0.62156,1.69858 -0.55873,6.42928 -1.50064,6.69103z" fill-opacity="0.25098" fill="#000000" stroke="none" stroke-width="0"/><path d="M245.54652,236.30765c0.6564,-0.7003 1.85025,-0.88793 7.63779,-0.88793c0.14733,0 0.21981,-1.21021 0.2443,-3.16578c9.82217,0.23326 19.65047,0.27545 29.52366,0.14487c0.02655,11.11259 -0.80138,17.64058 -4.7482,24.06009c-1.60863,2.61644 -5.00124,5.8342 -7.54269,6.92483c-1.19873,0.51442 -2.40574,0.8356 -3.58615,1.01956c-0.21969,0.03424 -0.84623,-2.66638 -1.06385,-2.64127c-0.06061,0.00698 -0.57749,-0.20588 -0.5779,0.07333c-0.00088,0.62274 0.54271,2.51969 0.75804,3.71455c0.27222,1.51052 0.21611,2.29161 0.05103,2.31554c-0.20475,1.10071 -1.39905,1.54068 -1.82836,1.49567c-0.3193,-0.03348 -1.1988,-0.42976 -1.51588,-0.88567c-0.71246,-1.02444 -0.9505,-2.14547 -0.75857,-3.01189c0.08993,-0.40595 0.74387,-0.92679 0.63003,-1.04374c-0.1001,-0.10282 -0.86813,0.39561 -1.75047,0.52707c-1.91348,0.28506 -6.73906,0.79278 -7.34265,0.79278c-3.7688,0 -16.54838,0.25028 -16.56544,0.36334c-0.36353,0.19838 -1.45608,0.79574 -2.18757,1.67995c-0.49477,0.59805 -0.531,2.27826 -0.591,3.3983c-0.04486,0.83722 0.71223,2.11007 1.18094,3.46546c0.53042,1.53382 0.77162,3.14667 0.54095,3.86102c-0.31749,0.98694 -1.16291,1.99647 -1.72778,2.04112c-2.01462,0.15927 -2.1797,-2.10857 -2.34549,-3.38547c-0.11068,-0.85246 0.21581,-1.92532 0.45529,-2.87835c0.30483,-1.21308 0.46207,-2.18446 0.45447,-2.30752c-0.1512,-2.44518 -0.18828,-4.48302 -0.2346,-4.43134c-0.06532,0.07284 -0.51353,-1.52306 -1.3202,-1.91302c-0.45279,-0.21889 -1.15778,-0.66343 -2.36494,-0.97758c-1.32425,-0.34463 -3.1658,-0.56135 -3.86876,-0.84204c-2.60395,-1.03971 -2.66183,-1.78563 -2.8022,-2.21145c-0.23676,-0.71825 -0.37571,-15.82069 -0.25111,-24.08738c0.04208,-2.79143 -0.18068,-5.22468 0.02941,-5.49517c0.16003,-0.20606 0.45426,-0.53383 2.03119,-1.04622c7.03906,0.4513 14.06153,0.79568 21.08158,1.03979c0.10518,2.99146 0.14883,4.51476 0.35519,4.29461z" fill-opacity="0.25098" fill="#000000" stroke="none" stroke-width="0"/><path d="M341.41517,237.42801c1.7445,1.98621 5.36016,4.11946 8.81045,5.93982c4.05896,2.14149 8.10667,3.52798 9.87525,4.79601c0.8111,0.58154 0.26848,1.44167 0.16635,1.8271c-1.77047,6.68206 -23.13875,15.94941 -26.81002,18.23811c-0.65339,0.40733 -0.60032,1.65579 -2.05759,1.75773c-0.46708,0.03268 -0.81858,-1.65619 -1.31153,-1.72433c-2.75896,-0.38133 -8.88854,-16.79637 -13.95815,-30.31345c-0.6862,-1.8296 -1.34175,-3.6039 -1.96838,-5.29111c3.05372,0.06112 6.10766,0.1233 9.16212,0.1783c5.018,0.09034 10.04865,0.58587 15.06308,0.58218c0.85252,1.32533 1.85088,2.66895 3.02842,4.00961z" fill-opacity="0.25098" fill="#000000" stroke="none" stroke-width="0"/><path d="M310.34627,236.09514c1.91053,11.97009 2.17667,22.94965 1.48603,23.22939c-1.23894,0.50185 -3.06946,-1.53409 -4.25246,-1.19299c-0.90109,0.25982 0.94909,5.88448 0.90989,8.42337c-0.04656,3.01597 -1.94968,2.99315 -2.94788,2.89423c-1.41951,-0.14067 -1.95796,-1.56123 -1.83772,-3.28361c0.12984,-1.85997 0.98692,-4.09236 1.1789,-6.02159c0.18575,-1.86651 -1.2169,-3.51809 -1.41739,-3.56535c-0.46292,-0.10907 -2.57325,-1.31919 -5.09326,-1.91741c-4.29841,-1.02041 -9.78878,-1.67066 -10.32878,-2.25671c-0.61552,-0.66801 -0.56608,-13.54836 -0.40123,-20.0489c7.34931,-0.0352 14.69489,0.07476 22.04092,0.21446c0.25714,1.21928 0.48508,2.41047 0.66297,3.52511z" fill-opacity="0.25098" fill="#000000" stroke="none" stroke-width="0"/><path d="M395.07767,224.67366c2.33069,7.09817 3.58207,13.05739 3.12889,14.12132c-0.30519,0.71646 -0.60963,2.1713 -1.32606,3.21068c-1.50004,2.17622 -4.25086,4.47466 -8.69991,7.99695c-4.39836,3.48216 -10.50863,7.21011 -15.26337,9.65365c-2.622,1.34749 -4.5036,2.69687 -5.78683,2.69687c-1.9622,0 -0.16998,-1.99427 0.15416,-7.21611c0.46984,-7.5691 0.60769,-16.74807 0.22411,-26.08903c-0.02017,-0.49105 -0.03539,-1.02594 -0.04785,-1.58983c7.99675,-2.30818 15.91449,-4.90557 23.89738,-7.26427c0.53306,-0.14881 1.06586,-0.29824 1.59843,-0.44826c0.77058,1.68179 1.6285,3.42795 2.12106,4.92806z" fill-opacity="0.25098" fill="#000000" stroke="none" stroke-width="0"/><path d="M351.16568,234.1702c-0.24804,-0.01252 -1.73121,-0.61227 -3.17552,-1.60717c-0.01139,-0.00785 -0.02277,-0.01572 -0.03418,-0.02362c1.26581,-0.25286 2.52498,-0.55009 3.7805,-0.86825c-0.31748,1.5077 -0.52949,2.50111 -0.57079,2.49902z" fill="url(#color-1)" stroke="none" stroke-width="0"/><path d="M408.89207,217.75275c3.0104,7.06717 6.8091,14.08081 8.69913,16.53008c2.64157,3.42317 6.97627,6.11762 7.91713,8.43798c0.26927,0.66406 -0.07346,2.03054 -0.07455,2.47326c-0.005,2.03744 -1.31805,5.88996 -2.61968,9.28379c-0.87001,2.26845 -1.50313,4.85705 -2.4276,5.11929c-0.95042,0.26961 -5.55184,-1.87526 -7.4649,-2.02612c-2.4513,-0.19331 -2.37181,1.33763 -2.4819,1.75324c-0.3009,1.13592 1.42412,6.39416 1.47144,7.64353c0.14011,3.69862 -0.56705,3.31995 -2.03625,3.46312c-3.06279,0.2985 -1.75846,-4.3486 -1.93321,-4.28074c-0.08056,0.03128 0.60603,-2.66834 0.69606,-4.95587c0.11631,-2.95511 -0.35132,-5.67524 -0.45871,-5.65703c-0.12047,0.02044 -2.16329,-0.66615 -3.90886,-1.52509c-2.52198,-1.24098 -5.02571,-2.84174 -5.26574,-3.18984c-0.33935,-0.49218 -0.12889,-0.94819 0.24678,-2.29261c0.45711,-1.6359 1.39107,-3.93796 1.94389,-5.96532c0.60184,-2.20712 0.9294,-4.10505 0.778,-4.14034c-0.20566,-0.04794 -1.97668,-6.14201 -4.10289,-13.42145c-0.60327,-2.06536 -1.2917,-3.88664 -1.91177,-6.10816c-0.00015,-0.00052 -0.00029,-0.00105 -0.00045,-0.00156c3.9951,-1.14433 7.97699,-2.32171 11.9488,-3.52692c0.31658,0.79056 0.64563,1.58946 0.98525,2.38673z" fill-opacity="0.25098" fill="#000000" stroke="none" stroke-width="0"/><path d="M441.15912,251.52937c-0.11013,0.28819 -2.78744,-0.2198 -5.50176,-1.07341c-1.40546,-0.44199 -3.14045,-0.97666 -3.85903,-1.54143c-0.03827,-0.03008 -0.47999,-3.45419 -1.63193,-7.96569c-0.7276,-2.84963 -1.8013,-5.92101 -2.76677,-8.97574c-1.64191,-5.19491 -4.22529,-11.28353 -5.90165,-15.19538c-0.68471,-1.59778 -1.17392,-3.56369 -1.6445,-5.12403c7.33621,-2.32962 14.64872,-4.7369 21.95767,-7.18838c2.74481,-0.92064 5.5114,-1.73186 8.27858,-2.51316c0.40296,1.06336 0.87668,2.17494 1.4895,3.31267c3.53373,6.56056 8.20906,15.13974 12.98297,21.9846c3.34736,4.79944 7.00662,8.40376 9.22447,11.33103c1.01484,1.33945 3.44806,4.30361 5.89113,7.1075c2.35352,2.70111 4.72735,5.24977 5.27332,6.24647c0.40626,0.74166 -3.96964,5.18961 -4.04453,5.68632c-0.04476,0.29685 -2.86535,0.36312 -6.12642,0.10809c-3.10057,-0.24248 -6.12533,-0.79212 -10.6378,-1.53812c-1.87797,-0.31047 -7.6768,-0.21718 -9.2631,-0.53708c-1.05123,-0.21198 -3.4715,-1.25354 -4.26914,-1.42648c-1.51992,-0.32954 -4.13688,-0.43415 -4.18986,-0.52639c-0.08639,-0.15042 -0.44111,-1.86457 -0.657,-2.17163c-0.28499,-0.40536 -0.36768,0.87494 -0.37905,1.08209c-0.05082,0.92503 0.30214,3.01075 0.15915,3.64622c-0.25694,1.14193 -1.28521,1.40997 -1.85723,1.42249c-0.80676,0.01765 -1.50466,-0.2036 -1.90809,-0.65777c-1.47208,-1.65729 -0.55976,-5.64762 -0.61892,-5.4928z" fill-opacity="0.25098" fill="#000000" stroke="none" stroke-width="0"/><path d="M418.249,213.43628c-0.18572,4.91254 1.56138,14.95781 1.30628,14.84086c-0.00797,-0.00365 -2.54763,-2.01873 -3.73301,-3.90421c-1.53188,-2.43657 -3.53843,-6.34928 -5.23946,-9.82357c2.54742,-0.7817 5.09099,-1.57438 7.63152,-2.37666c0.02711,0.50374 0.04622,0.95811 0.03467,1.26358z" fill-opacity="0.25098" fill="#000000" stroke="none" stroke-width="0"/><text transform="translate(241.44679,301.42147) scale(0.69366,0.69366)" font-size="40" xml:space="preserve" fill="#ffffff" stroke="#d402ae" stroke-width="10" font-family="&quot;FridayNightFunkin-Regular&quot;, Sans Serif" font-weight="normal" text-anchor="start"><tspan x="0" dy="0">OPTIMIZED</tspan></text><text transform="translate(241.72,301.9679) scale(0.69366,0.69365)" font-size="40" xml:space="preserve" fill="#000000" stroke="#ffffff" stroke-width="0" font-family="&quot;FridayNightFunkin-Regular&quot;, Sans Serif" font-weight="normal" text-anchor="start"><tspan x="0" dy="0">OPTIMIZED</tspan></text><path d="M109.59026,346.51842v-288.03684h426.81947v288.03684z" fill="none" stroke="none" stroke-width="0"/><path d="M482.5,300.76638v-11h22v11z" fill="none" stroke="none" stroke-width="0"/></g></g></svg>