<svg version="1.1" xmlns="http://www.w3.org/2000/svg" xmlns:xlink="http://www.w3.org/1999/xlink" width="196.25458" height="287.5" viewBox="0,0,196.25458,287.5"><g transform="translate(-221.12868,-23.75)"><g stroke-miterlimit="10"><path d="M412.13326,309c0,0 -15.95631,-76.77347 -15.4074,-144.03825c-0.25675,-62.53249 18.4074,-137.96174 18.4074,-137.96174" fill="none" stroke="#33ccff" stroke-width="4.5" stroke-linecap="round"/><path d="M223.37868,26c0,0 18.66414,75.42925 18.4074,137.96175c0.54891,67.26479 -15.4074,144.03826 -15.4074,144.03826" fill="none" stroke="#33ccff" stroke-width="4.5" stroke-linecap="round"/><text transform="translate(234.46152,78.31971) rotate(-10.54985) scale(1.04372,1.27847) skewX(-5.90899)" font-size="40" xml:space="preserve" fill="#33ccff" stroke="none" stroke-width="1" stroke-linecap="butt" font-family="&quot;funkin 2&quot;, Sans Serif" font-weight="normal" text-anchor="start"><tspan x="0" dy="0">C</tspan></text><text transform="translate(258.91306,74.91526) rotate(-3.45761) scale(1.19143,1.43389) skewX(0)" font-size="40" xml:space="preserve" fill="#33ccff" stroke="none" stroke-width="1" stroke-linecap="butt" font-family="&quot;funkin 2&quot;, Sans Serif" font-weight="normal" text-anchor="start"><tspan x="0" dy="0">h</tspan></text><text transform="translate(290.84149,74.71576) rotate(-0.00697) scale(1.19143,1.48883) skewX(-0.00063)" font-size="40" xml:space="preserve" fill="#33ccff" stroke="none" stroke-width="1" stroke-linecap="butt" font-family="&quot;funkin 2&quot;, Sans Serif" font-weight="normal" text-anchor="start"><tspan x="0" dy="0">o</tspan></text><text transform="translate(320.74779,73.0845) rotate(4.05792) scale(1.03398,1.48645) skewX(2.15601)" font-size="40" xml:space="preserve" fill="#33ccff" stroke="none" stroke-width="1" stroke-linecap="butt" font-family="&quot;funkin 2&quot;, Sans Serif" font-weight="normal" text-anchor="start"><tspan x="0" dy="0">I</tspan></text><text transform="translate(345.94656,73.86866) rotate(8.17232) scale(1.0718,1.48575) skewX(2.23083)" font-size="40" xml:space="preserve" fill="#33ccff" stroke="none" stroke-width="1" stroke-linecap="butt" font-family="&quot;funkin 2&quot;, Sans Serif" font-weight="normal" text-anchor="start"><tspan x="0" dy="0">S</tspan></text><text transform="translate(372.9304,77.19863) rotate(13.55203) scale(1.07181,1.48575) skewX(2.23058)" font-size="40" xml:space="preserve" fill="#33ccff" stroke="none" stroke-width="1" stroke-linecap="butt" font-family="&quot;funkin 2&quot;, Sans Serif" font-weight="normal" text-anchor="start"><tspan x="0" dy="0">E</tspan></text></g></g></svg>