<svg version="1.1" xmlns="http://www.w3.org/2000/svg" xmlns:xlink="http://www.w3.org/1999/xlink" width="389.17341" height="190.69711" viewBox="0,0,389.17341,190.69711"><defs><linearGradient x1="350.59947" y1="96.75574" x2="350.59947" y2="263.78036" gradientUnits="userSpaceOnUse" id="color-1"><stop offset="0" stop-color="#ff0000"/><stop offset="1" stop-color="#ff7100"/></linearGradient><linearGradient x1="282.06176" y1="125.70334" x2="282.06176" y2="252.81231" gradientUnits="userSpaceOnUse" id="color-2"><stop offset="0" stop-color="#ff0000"/><stop offset="1" stop-color="#ff7100"/></linearGradient></defs><g transform="translate(-125.9133,-85.74586)"><g stroke-miterlimit="10"><path d="M426.74966,224.86637c0.80131,-0.65107 1.45239,-0.95156 1.95321,-1.10181c3.50576,0 6.31038,0.25042 8.46391,0.65108c1.20197,0.25042 2.70444,0.65106 4.40724,1.15189c4.15683,1.10181 8.06326,3.4056 11.76935,6.91137c1.7028,1.55256 3.20527,3.85635 4.40724,6.81121c1.10182,2.80462 1.70279,5.30873 1.70279,7.46227c0,1.55256 -0.50082,3.60593 -1.55255,6.00988c-1.30214,3.00494 -3.05502,5.75947 -5.30873,8.26359c-6.31038,6.96145 -14.97462,10.41713 -25.94265,10.41713c-13.67248,0 -23.18813,-3.00493 -28.64711,-9.01481c-3.05502,-3.35552 -4.55749,-7.16178 -4.55749,-11.46886c0,-2.75453 0.5509,-5.00823 1.55255,-6.81119c1.20197,-2.10346 3.60593,-4.65766 7.21186,-7.6626c2.60429,-2.15354 6.96145,-4.30708 13.17165,-6.56078c1.50248,-0.60099 3.60593,-1.30214 6.21022,-2.20362c1.95322,-0.65107 3.1051,-1.1519 3.55584,-1.50248c0.25041,-0.20032 0.80131,-0.65107 1.60263,-1.35222M451.94108,246.65219c0,-1.50247 -0.45075,-3.15519 -1.25206,-4.85798c-1.05173,-2.15354 -2.50412,-3.90643 -4.35717,-5.40889c-5.00824,-4.00659 -11.81943,-5.00822 -20.43359,-3.1051c-5.9598,1.25205 -11.66918,3.75617 -17.07807,7.56242c-5.40889,3.80625 -8.11335,7.11169 -8.11335,10.01647c0,3.45569 1.60264,6.26029 4.75783,8.46391c4.40724,3.00494 11.41877,4.50742 21.18483,4.50742c8.514,0 15.22503,-2.50411 20.08302,-7.41219c1.7028,-1.75288 3.05503,-3.65601 4.05667,-5.75947c0.75124,-1.65272 1.1519,-3.00494 1.1519,-4.00658M510.08667,144.48421c0,10.11663 -3.55585,18.93112 -10.41712,26.34332c-10.01647,10.51729 -26.34331,17.22833 -48.88036,20.1331c0.35057,1.40231 1.50247,5.1084 3.45568,11.16836c1.60264,5.1084 2.40396,7.86293 2.40396,8.41384c0,1.35223 -0.40066,2.40396 -1.1519,3.05503c-0.65107,0.60099 -1.85304,1.10181 -3.55584,1.50247c-5.40889,0.90149 -10.5173,2.05337 -15.22504,3.45568c-3.25534,1.00164 -8.66424,2.50412 -16.1766,4.60757c-7.01153,1.95322 -10.56737,2.90478 -10.71762,2.90478c-2.95486,0 -4.60757,-1.65272 -4.85798,-5.00824c-0.10017,-1.05173 -0.05009,-2.40395 0.15024,-4.10675c0.20033,-1.85305 0.3005,-2.95486 0.3005,-3.25535c-0.05008,-1.55256 -0.20033,-3.85634 -0.50083,-7.01153c-1.10182,0.45074 -2.05337,0.90149 -2.90477,1.25206c-3.05502,1.30214 -6.46062,2.85469 -10.16672,4.65766c-4.35717,2.15354 -7.86293,3.85635 -10.46721,5.1084c-2.2537,1.00164 -4.00659,1.80296 -5.25865,2.45403c-2.40395,1.1519 -3.60593,2.0033 -3.65601,2.45404c-0.05008,0.20032 -0.10018,0.95156 -0.15025,2.2537c-0.05008,0.90149 -0.20032,1.65272 -0.40065,2.25371v32.20294c0.10017,0.90148 -0.3005,1.70281 -1.1519,2.45404c-0.90148,0.70115 -1.85305,1.05173 -2.90478,1.05173c-0.45074,0 -4.257,-1.60264 -11.36869,-4.80792c-7.6626,-3.50576 -12.97133,-6.16012 -15.82602,-7.96308c-1.90313,-1.20198 -4.40724,-2.30379 -7.41218,-3.4056c-3.4056,-1.1519 -5.90971,-1.95321 -7.41219,-2.50412c-2.70445,-0.90149 -4.60758,-1.80296 -5.80955,-2.65437c-1.55255,-1.05173 -2.30379,-2.35387 -2.30379,-3.80625c0,-1.75288 1.60264,-4.60757 4.8079,-8.56408c0.80133,-1.00164 2.95486,-3.4056 6.36046,-7.21187c0.95157,-1.10181 4.00659,-4.05666 9.16508,-8.91465c4.30708,-4.10675 6.46062,-6.36046 6.46062,-6.71104c-0.5509,-1.65272 -1.05173,-3.30543 -1.60263,-4.95815c-3.05502,0.60099 -5.85964,0.90148 -8.41383,0.90148c-10.31696,0 -18.22998,-0.8514 -23.8392,-2.60428c2.05338,5.25864 3.05503,8.16342 3.05503,8.76441c0,1.50247 -0.80131,2.70445 -2.45403,3.7061c-1.10181,0.70115 -4.30708,2.10345 -9.66589,4.20691c-2.05338,0.80132 -5.45898,2.05338 -10.26689,3.75618c-5.20857,1.85305 -8.01318,2.75453 -8.41384,2.75453c-2.45403,0 -4.85799,-4.00659 -7.26194,-12.06984c-1.1519,-4.05667 -1.90312,-6.8112 -2.35387,-8.31366c-0.70115,-2.50412 -1.25207,-3.75617 -1.65272,-3.75617c-1.05173,0 -2.20363,0.20032 -3.45568,0.60098c-1.50246,0.5509 -2.65436,0.95157 -3.55584,1.25207c0.20033,1.40231 0.50083,3.1051 0.8514,5.00823c0.25041,1.1519 0.60098,2.85469 1.05173,5.1084c0.3005,1.30214 0.90148,3.20526 1.85305,5.80955c0.90148,2.35387 1.30214,3.60592 1.30214,3.75617c0,2.25371 -1.45239,3.75618 -4.30708,4.45733c-4.15684,0.60099 -7.56243,1.25206 -10.21679,1.90313c-5.35881,1.05173 -9.41548,1.80296 -12.17001,2.2537c-1.50247,0.25042 -3.05503,0.80131 -4.60758,1.60263c-1.30214,0.65107 -2.50412,1.00165 -3.55584,1.00165c-1.85305,0 -3.00494,-0.70115 -3.50577,-2.0033c-0.15025,-0.45074 -0.2504,-1.35222 -0.2504,-2.65436c0,-1.85305 0.50081,-5.35881 1.4023,-10.51729c0.15025,-0.70115 0.3005,-1.35223 0.40067,-2.0033c-3.4056,1.30214 -8.11334,3.15519 -14.17331,5.55915c-7.913,3.15519 -11.86952,4.70774 -11.9196,4.70774c-3.35551,0 -5.40889,-1.05173 -6.11004,-3.10511c-0.20032,-0.65107 -0.3005,-1.45239 -0.3005,-2.45404c0,-1.1519 0,-1.75288 0,-1.80296c-0.25041,-1.55256 -0.50082,-2.80462 -0.65107,-3.90643c-0.3005,0.25042 -0.55091,0.45074 -0.75123,0.65107c-2.65437,2.65437 -5.05832,4.95816 -7.16178,6.86129c-4.10675,3.65601 -6.81119,5.50905 -8.11334,5.50905c-1.7028,0 -4.55749,-2.05338 -8.514,-6.2603c-3.9565,-4.50742 -6.16012,-7.01153 -6.76111,-7.61252c-0.05008,0.05008 -0.05008,0.05008 -0.10016,0c0,0.05008 0,0.30049 0,0.80131c0,0.50083 0.40066,1.65272 1.25205,3.4056c0.85139,1.75288 1.25206,2.95486 1.25206,3.55585c0,1.20198 -0.60099,2.10346 -1.85304,2.70445c-1.90313,0.90149 -5.50906,1.35222 -10.76771,1.30214c-1.25206,0 -3.35552,0.30048 -6.41054,0.95155c-3.05502,0.65107 -4.60757,0.95157 -4.60757,0.95157c-4.65766,0 -7.51235,-2.30379 -8.51399,-7.01153c-0.20032,-0.85139 -0.45074,-2.90477 -0.75124,-6.11004c-0.25042,-2.45403 -0.65107,-4.257 -1.15189,-5.40889c-1.1519,-2.55419 -2.00329,-5.70938 -2.45403,-9.51565c-0.35057,-4.30709 -0.65107,-7.51235 -0.90149,-9.61581c-1.20197,-9.3654 -1.75289,-16.37692 -1.7028,-21.03458c0.35057,-5.55913 0.55091,-11.3186 0.55091,-17.27841c0,-0.35057 -0.20034,-0.90148 -0.65108,-1.7028c-0.45075,-0.75124 -0.70115,-1.25206 -0.70115,-1.50248c0,-3.25535 5.20857,-6.5107 15.62569,-9.71597c8.41384,-2.65437 15.77594,-4.257 22.1364,-4.85799h13.02141c3.75618,0 7.21186,0.50082 10.26689,1.55255c0.15025,-0.70115 0.2504,-1.50247 0.40065,-2.40395c0.50083,-3.30543 0.95157,-5.85964 1.25205,-7.71268c0.20032,-1.25205 1.10182,-2.35387 2.65436,-3.20526c1.85304,-1.05173 3.80625,-1.1519 5.9598,-0.3005c3.15519,0.60099 7.56243,1.10181 13.27183,1.55256c5.55915,0.40066 8.71433,0.70115 9.41548,0.85139l20.93443,0.15026c2.90478,0.45074 4.70774,1.35222 5.40889,2.70444c0.25042,0.45074 0.40067,1.55256 0.40067,3.20527c0,0.35057 -0.10017,2.05338 -0.40067,5.20856c-0.05008,0.3005 -0.05008,0.60099 -0.10016,0.90148c0.5509,-0.60099 1.25205,-0.90148 2.05337,-0.90148c0.75124,0 2.15354,0 4.10675,-0.05008c1.95322,0 4.80791,-0.05008 8.61417,-0.05008c0.10017,0.10017 0.20032,0.35058 0.20032,0.70116c0,-0.50083 1.4023,-0.75125 4.20691,-0.80133c1.60264,0 4.35717,0 8.16343,0.10017c0.8514,0 1.60264,0.25042 2.20362,0.70116c0.15024,0.10017 0.55091,0.50082 1.1519,1.20197c0.35057,0.40066 0.8514,1.20198 1.40231,2.40396c0.3005,0.65107 0.65107,1.45238 1.10181,2.50411c1.75288,3.85635 3.30543,7.1117 4.75782,9.76606c1.20198,2.30379 2.75453,5.55913 4.65765,9.76605c0.70115,1.60263 1.35223,3.00494 1.90314,4.257c1.30214,0.10017 3.1051,0.40066 5.40889,0.90149c1.40231,0.3005 3.1552,0.75123 5.15849,1.25205c0.75124,-2.85469 1.60263,-7.16177 2.5542,-12.92124c1.10181,-6.66096 1.90313,-11.01812 2.35387,-13.17165c-1.85305,0.10017 -6.05996,0.75123 -12.57067,1.90312c-6.2102,1.20198 -9.31531,1.75288 -9.36539,1.75288c-1.95321,0 -3.20528,-0.5509 -3.85635,-1.7028c-0.25041,-0.40066 -0.35059,-0.80131 -0.40067,-1.25205c-0.05008,-0.40066 -0.05008,-0.60099 -0.05008,-0.65107c0,-1.55256 0.70116,-4.70774 2.20362,-9.46557c1.60264,-4.70774 2.45403,-7.3621 2.55419,-7.96309c0.15024,-0.60099 0.50083,-1.95321 1.1519,-4.05667c0.5509,-2.00329 1.00164,-3.50576 1.20198,-4.55748c0.25041,-1.35223 0.65106,-2.45405 1.15189,-3.30544c-0.20033,-0.25041 -0.35057,-0.50083 -0.50082,-0.80131c-0.25041,-0.60099 -0.40066,-1.30213 -0.40066,-2.10346c0,-1.45239 1.30214,-2.80461 3.90642,-4.05667c2.65436,-1.30214 6.11005,-2.20362 10.36704,-2.80461c10.41712,-1.45239 20.88433,-0.50082 31.45171,2.90478c7.76276,2.10347 14.52389,4.85798 20.23327,8.26358c2.45403,1.45239 4.75782,3.05503 6.91136,4.80791c0.70115,0.25041 1.1519,0.65107 1.40231,1.20197c1.35222,1.20197 2.70445,2.50411 3.9565,3.85634c6.76112,7.26194 11.31862,13.57232 13.67248,18.98121c2.10345,4.80791 3.15518,10.81778 3.15518,18.02964c0,2.65437 -0.30048,5.25865 -0.80131,7.71268c0.60099,-0.45074 1.20197,-0.95156 1.85304,-1.45239c7.3621,-6.00988 12.17001,-9.46556 14.37364,-10.46721c1.40231,-0.65107 4.00658,-2.35387 7.76276,-5.15848c4.35717,-3.25535 7.41219,-5.40889 9.21515,-6.46062c3.35552,-2.05337 5.85963,-2.90477 7.51235,-2.5542c2.00329,0.40066 2.90478,2.60428 2.70445,6.61087c0.20033,2.15354 0.8514,7.61252 1.90313,16.32685c0.95157,-0.5509 2.15353,-1.1519 3.60593,-1.80296c1.20197,-0.5509 3.05502,-1.30214 5.60922,-2.35387c2.20362,-0.90149 3.85634,-1.7028 4.90807,-2.30379c2.30379,-1.35223 4.60757,-3.00493 6.91136,-5.00823c3.00494,-2.60429 4.50742,-4.55749 4.50742,-5.90972c0,-1.65272 -0.60099,-3.4056 -1.80296,-5.20856c-1.30214,-1.95321 -3.1051,-3.75617 -5.45897,-5.30872c-5.75947,-3.85635 -13.22174,-5.75948 -22.43689,-5.75948c-6.8112,0 -13.22174,1.75289 -19.33179,5.30873c-1.35222,0.80132 -3.20527,2.00329 -5.50906,3.65601c-1.55255,1.10181 -2.55421,1.65272 -2.95486,1.65272c-1.7028,0 -2.85469,-0.601 -3.4056,-1.85305c-0.25041,-0.5509 -0.40066,-1.30215 -0.40066,-2.25371c0.10017,-14.02305 0.30049,-24.54034 0.50083,-31.55187c0.05008,-0.95157 0.25042,-1.75288 0.5509,-2.40395c-0.75124,-0.30049 -1.35223,-0.8514 -1.75288,-1.65272c-0.40065,-0.65107 -0.55091,-1.35223 -0.55091,-2.05338c0,-1.55255 1.45239,-3.10511 4.30708,-4.65766c2.85469,-1.55255 6.61086,-2.80461 11.3186,-3.80626c11.16837,-2.40395 22.48697,-2.45403 33.95583,-0.2504c4.05667,0.05008 11.31861,1.90312 21.78582,5.60921c10.66754,3.7061 17.37857,6.8112 20.18318,9.31532c8.86458,7.76276 15.0247,14.42371 18.4303,19.98286c3.50576,5.70939 5.25865,12.06983 5.25865,19.08137M425.89826,96.75574c-8.96473,0 -15.47545,1.05173 -19.33179,3.15519c-1.7028,1.05173 -2.90477,1.80297 -3.65601,2.20363c-0.60099,0.30049 -1.20198,0.55091 -1.85305,0.70116c0.3005,0.60099 0.5509,1.40231 0.65107,2.40395c0.05008,0.85139 0.20033,2.15354 0.45074,3.9565c0.25041,1.75288 0.35058,3.05503 0.40066,3.95651c0.05008,1.65272 0.10017,4.30708 0.25041,7.96309c0.10017,3.50577 0.20033,6.26029 0.25041,8.2135v0.40066c1.7028,-1.10182 4.50742,-2.40395 8.46393,-3.80626c5.85963,-2.15354 11.26852,-3.20528 16.1766,-3.20528c14.07314,0 24.44018,3.50576 31.05104,10.51729c2.30379,2.40395 4.00659,5.05832 5.10841,8.01318c0.75124,2.05337 1.1519,3.85634 1.1519,5.30873c0,6.00988 -5.05831,11.86952 -15.07479,17.47874c-3.30543,1.90312 -6.86128,3.55584 -10.66754,5.00823c-3.1051,1.1519 -4.95814,1.75288 -5.60921,1.75288c-0.35057,0 -0.70116,0 -1.00165,-0.05008c0.05008,0.25042 0.05009,0.50082 0.10017,0.80132c1.45238,11.9196 2.20362,18.38021 2.20362,19.43194c0,2.10347 -3.80626,4.80791 -11.46886,8.16342c-4.45734,1.75288 -8.36374,3.35551 -11.76934,4.70774c0.10017,0.40066 0.15025,0.80132 0.20033,1.25206c0.40065,2.90478 0.65107,6.86128 0.85139,11.86952c2.75453,-0.70115 8.56408,-2.10346 17.42866,-4.257c8.26359,-2.05337 14.02306,-3.55584 17.27841,-4.50741c-0.80131,-2.15354 -2.00329,-6.05996 -3.60594,-11.81943c-1.60264,-5.6593 -2.40396,-8.81449 -2.40396,-9.41548c0,-1.50247 0.55091,-2.5542 1.7028,-3.05503c0.8514,-0.35057 2.60429,-0.65107 5.25865,-0.80132c4.00659,-0.25042 7.06161,-0.50082 9.16506,-0.80131c4.40724,-0.60099 8.86458,-1.60263 13.32191,-3.00494c4.35717,-1.35223 8.61416,-3.30543 12.82108,-5.80955c3.55585,-2.10346 6.16014,-4.05667 7.71268,-5.80955c3.90641,-4.35717 6.76111,-8.31365 8.46391,-11.76934c1.80296,-3.65601 2.70445,-7.46228 2.70445,-11.3687c0,-4.10675 -1.35222,-8.66424 -4.05667,-13.67248c-2.60429,-4.85799 -6.11006,-9.51564 -10.5173,-13.97297c-7.26193,-7.26194 -18.33014,-12.67083 -33.20459,-16.32684c-10.41712,-2.5542 -20.08302,-3.80626 -28.94759,-3.80626M353.87986,118.79197c-1.65272,-0.95157 -3.45569,-1.85305 -5.30873,-2.70445c-11.0682,-5.20856 -22.78746,-7.81284 -35.10773,-7.81284c-5.00824,0 -9.0649,0.65108 -12.11992,1.90313c-1.35222,0.65107 -2.30379,1.05173 -2.85469,1.30214c-0.05008,0 -0.10016,0.05008 -0.15024,0.05008c-0.10017,1.7028 -0.95157,5.90972 -2.55421,12.67083c-1.75288,7.31202 -2.60429,10.96803 -2.60429,11.01811v0.25042c2.65436,-0.50083 6.66095,-1.1519 12.17001,-1.95321c5.85964,-0.85139 9.46558,-1.30214 10.71762,-1.30214c1.55255,0 2.65437,0.65108 3.25535,1.90313c0.35057,0.65107 0.50083,1.35223 0.50083,2.05338c0,1.40231 -0.55091,4.90807 -1.60264,10.51729c-1.00164,5.30873 -1.7028,8.514 -2.05338,9.56573c-0.50083,1.55256 -0.90149,3.55585 -1.1519,6.11005c-0.15024,1.40231 -0.3005,3.4056 -0.5509,6.00988c-0.25041,2.05337 -0.75123,3.60593 -1.4023,4.5575c-0.8514,1.20198 -2.10347,1.80296 -3.75619,1.80296c-0.8514,0 -2.75453,-0.40067 -5.75947,-1.1519c-1.65272,-0.45074 -2.95485,-0.75124 -3.90642,-0.95156c1.90312,4.15683 4.35715,9.91631 7.31203,17.27841c0.5509,0.05008 1.05172,0.20033 1.55255,0.40066c0.45074,0.20032 1.1519,0.50082 2.0033,1.00164c1.90312,1.00164 4.50741,1.50247 7.81284,1.55256c0.60099,0 2.65436,0.30049 6.16013,0.90148c3.50576,0.60099 6.91136,0.90148 10.11663,0.90148c2.20362,0 4.35716,-0.10017 6.41054,-0.30049c0,-0.10017 1.70281,-0.50083 5.10841,-1.10181c0.05008,0.10017 0.10017,0.20032 0.15024,0.30049c1.40231,-0.3005 2.80461,-0.65107 4.15683,-1.05173c0.10017,-0.05008 0.15025,-0.05008 0.25042,-0.05008c5.00824,-0.85139 6.61086,-1.45239 4.90807,-1.80296c4.257,-1.85305 8.21351,-4.30708 11.81944,-7.3621c3.9565,-3.4056 7.01153,-7.21186 9.21515,-11.41878c2.20362,-4.20691 3.30543,-8.41384 3.30543,-12.67084c0,-5.50905 -0.70116,-10.01647 -2.20362,-13.52223c-1.35222,-3.25535 -4.5575,-8.36375 -9.66589,-15.37528c-0.40065,-0.50083 -0.75124,-0.95156 -1.1519,-1.45238v22.78746c0.25041,1.60263 0.45074,3.65601 0.70115,6.16012c0.05008,0.5509 0.10017,1.00165 0.15025,1.45239c0.25041,0.25042 0.45074,0.55091 0.65107,0.95156c0.3005,0.65107 0.50083,1.35223 0.50083,2.05338c0,0.80132 -0.3005,1.65272 -0.90149,2.5542c0.05008,0.90149 0.00001,1.65272 -0.10016,2.2537c-0.40065,2.15354 -1.65272,3.25536 -3.80627,3.25536c-0.70115,0 -1.30214,-0.15025 -1.80296,-0.45075c0,0 0,0.05008 -0.05008,0.05008c-5.00824,2.95486 -10.81779,4.40724 -17.42865,4.40724c-7.41219,0 -12.42042,-0.65107 -15.02471,-2.00329c-1.50246,-0.75124 -2.25371,-1.95321 -2.25371,-3.55584c0,-3.30543 0.40066,-8.31366 1.25205,-14.97462c0.50083,-3.80625 0.90149,-6.61087 1.30214,-8.41384c-0.80133,-2.20362 -2.30378,-5.50906 -4.40724,-9.96639c-2.25371,-4.75782 -3.4056,-7.26193 -3.4056,-7.51235c0,-1.90313 2.70443,-3.55585 8.16341,-4.95816c4.257,-1.10182 9.06491,-1.85305 14.4738,-2.25371c1.65272,-0.15025 4.65766,-0.75123 8.96474,-1.90313M347.11874,127.65655c-5.90972,0.95156 -10.61746,1.60263 -14.17331,2.10345c0.35057,0.95156 1.10181,3.55585 2.30379,7.81285c0.90148,3.25535 1.80296,5.90972 2.60428,7.9631c0.70115,1.7028 1.75287,4.55749 3.15518,8.46391c1.60264,4.30709 2.35387,6.71104 2.35387,7.1117c0,0.90149 -0.20033,1.75288 -0.70115,2.45404c-0.25041,0.40066 -0.5509,0.70115 -0.90149,0.90149v0.05008c0,0.05008 -0.05008,0.10017 -0.05008,0.20033c0.10017,0.15025 0.20033,0.30049 0.3005,0.45074c0.35057,0.60099 0.65107,1.10181 0.8514,1.50247c0.60099,0.05008 1.05172,0.05008 1.4023,0.05008c5.60922,0 10.41712,-1.4023 14.42372,-4.20691c0,0 0.30048,-0.25042 0.80131,-0.65107c0,-1.00164 0,-2.25371 0,-3.80625c0,-2.0033 -0.05008,-3.30544 -0.20033,-3.90642v-28.44678c-4.90807,0.80132 -8.96473,1.45239 -12.17,1.95322M380.37341,180.79391c-3.45569,4.55749 -8.2135,8.61416 -14.22338,12.17001c-5.15848,3.00494 -10.86786,5.35882 -17.07808,7.06162c1.10182,2.75453 2.15355,5.45898 3.05503,8.2135c0,0.45074 -3.4056,4.30707 -10.2168,11.46885c-7.76276,8.2135 -12.72092,13.77264 -14.92454,16.7275c6.56079,2.50412 13.22174,5.25865 19.93277,8.36375c3.85634,1.75288 9.51565,4.45733 16.97791,8.01318l0.40066,-0.15025v-27.74562c0.20033,-0.65107 0.25041,-1.60263 0.15024,-2.80461c-0.15024,-1.90312 -0.20033,-2.90477 -0.20033,-3.00494c0,-2.35387 1.1519,-3.85635 3.55585,-4.5575c2.55421,-0.75124 5.90972,-2.00329 10.16672,-3.80625c2.50412,-1.05173 6.26029,-2.70444 11.41877,-4.95815c5.80955,-2.70444 10.96803,-5.1084 15.47544,-7.16178c0.50083,-1.00164 1.30215,-1.50248 2.30379,-1.50248c0.25041,0 0.45074,0 0.70115,0.05008c12.771,-5.85964 19.13146,-8.86458 19.13146,-8.91466c0,-1.00164 -0.60099,-6.31037 -1.85304,-15.92619c-0.95157,-7.41218 -1.85304,-14.1733 -2.70445,-20.33343l-0.15024,-0.75124c-2.45403,1.7028 -10.66754,7.61251 -24.59044,17.72914c-10.86786,7.86293 -16.57725,11.81944 -17.12816,11.81944c-0.05008,0 -0.15026,0 -0.20033,0M250.71023,139.52606c-0.05008,0.65107 -0.10017,1.20198 0,1.7028c-0.10017,1.65272 -0.05008,4.05667 0.15024,7.26193c0.10017,1.60263 0.25042,3.30543 0.35058,5.1084c0,0.90149 -0.05008,1.50248 -0.20033,1.90313c-0.25042,0.65107 -0.75124,1.20198 -1.50248,1.60263c-0.05008,0.05008 -0.10016,0.05008 -0.20032,0.10016c-0.05008,0.25042 -0.10017,0.55091 -0.15025,0.80131c-0.5509,3.45569 -1.1519,6.71103 -1.85305,9.76605c-0.45074,2.20362 -0.95156,4.15683 -1.45238,5.80955l0.05008,0.95157c0,0.70115 0,1.35223 0,1.95322c1.65272,-0.50083 3.15519,-0.8514 4.45734,-1.05173c3.65601,-0.50083 5.35881,0.45074 5.20856,2.90477c0.65107,2.85469 1.70279,7.46227 3.1051,13.77265c0.15024,0.65107 0.25042,1.25206 0.40067,1.80296c1.05173,-0.45074 2.45403,-0.75124 4.15683,-0.95156c1.90312,-0.20032 4.20691,-0.75124 6.86127,-1.75288c2.45403,-0.95156 3.95651,-1.40231 4.40726,-1.40231c2.50412,0 4.75782,3.30544 6.76112,9.86622c0.50083,1.65272 1.20198,4.30709 2.10346,7.9631c0.75124,3.05502 1.30214,5.1084 1.65271,6.05996c1.55255,-0.40066 4.257,-1.25205 8.16343,-2.60428c4.30708,-1.50247 8.01317,-2.85469 11.11828,-4.15683c-2.40395,-7.51235 -4.257,-13.17166 -5.60922,-17.07808c-2.40395,-6.81121 -4.90807,-12.62075 -7.56243,-17.47873c-0.90148,-1.65272 -2.20362,-4.55749 -3.9565,-8.71433c-1.7028,-3.9565 -3.05503,-6.81119 -4.05667,-8.56408c-0.65107,-1.1519 -2.20362,-4.05668 -4.65766,-8.66425c-0.8514,-1.55256 -1.4023,-3.00494 -1.65272,-4.30709c-0.15024,-0.70115 -0.35058,-1.05172 -0.60098,-1.05172c-2.45403,0.75124 -6.91136,1.15189 -13.32191,1.15189c-5.80955,0 -9.6158,-0.65106 -11.46885,-2.00329c-0.3005,-0.20032 -0.50083,-0.45074 -0.70115,-0.70115M243.59854,130.31091l-19.18153,0.05008c-1.75288,-0.35057 -5.00823,-0.70115 -9.76605,-1.1519c-5.90972,-0.50083 -10.36704,-0.90149 -13.42207,-1.20197c-0.45074,0.95156 -0.70115,3.60593 -0.85139,8.01318c-0.10016,0.90149 -0.3005,1.65272 -0.55091,2.30379c1.45238,1.30214 2.80461,2.75453 4.00658,4.40725c1.80296,2.50412 3.20526,5.30873 4.15684,8.46391c0.75124,2.50412 1.1519,4.8079 1.1519,6.81119c0,5.40889 -1.45239,10.36705 -4.40725,14.77429c-1.60263,2.40395 -3.55584,4.50741 -5.90972,6.31037c0.3005,0.65107 0.65107,1.50247 1.00164,2.50412c0,0.35057 0.25041,2.05338 0.75124,5.05832c0.50083,3.00494 0.75123,4.75782 0.75123,5.25865c0,0.35057 -0.05008,0.65107 -0.10016,0.95157h0.05008c6.86129,3.60593 10.31696,6.41054 10.31696,8.31366c0,1.90312 -1.60263,4.20692 -4.8079,6.91136c-0.70115,0.5509 -1.40231,1.05173 -2.0033,1.50248c0.05008,0.10017 0.05008,0.25041 0.10016,0.35058c1.30214,4.257 2.00329,6.5107 2.15354,6.76111c5.80955,-2.90478 13.67247,-6.11005 23.48862,-9.66589c9.6659,-3.55584 16.52717,-6.36046 20.68401,-8.41384c-0.50083,-3.80625 -1.45238,-8.61417 -2.90478,-14.52388c-0.50083,0.15025 -4.70774,2.30379 -12.57067,6.36046c-7.76276,4.00659 -11.66919,6.00988 -11.71927,6.00988c-1.65272,0 -2.85469,-0.65108 -3.50576,-1.90313l-0.50083,-1.90312c0,-1.20198 1.90313,-3.10511 5.65931,-5.75948c1.95322,-1.35223 4.10675,-2.70444 6.36046,-4.00659c-0.25042,-0.75124 -0.50082,-1.55255 -0.75124,-2.50411c-0.35057,-1.45239 -0.70115,-3.35552 -1.00165,-5.7094c-0.35057,-2.60429 -0.60098,-4.15684 -0.70115,-4.70774c-1.55256,0.40066 -4.15684,1.85306 -7.91302,4.30709c-3.50577,2.30379 -5.50906,3.45568 -6.11005,3.45568c-2.65437,0 -4.10675,-1.25206 -4.30709,-3.75618c-0.10016,-0.80132 -0.05008,-1.7028 0.15025,-2.80461c0.20032,-1.00164 0.3005,-1.55256 0.3005,-1.75289c0,-1.00164 -0.10016,-2.55419 -0.25041,-4.65766c-0.15025,-2.10346 -0.25042,-3.30544 -0.25042,-3.60593c0,-2.20362 0.15025,-3.65601 0.45074,-4.30708c0.50083,-1.00164 1.65272,-1.75289 3.45569,-2.30379c1.65272,-0.50083 4.8079,-1.10181 9.46556,-1.7028c3.00494,-0.35057 9.16506,-1.15189 18.53046,-2.30378c0,-3.50576 0.05008,-6.16013 0.10016,-7.91301c0.05008,-2.95486 0.20034,-5.55913 0.40067,-7.913v-4.40724M195.92015,145.58602c-5.75947,-5.75947 -14.62405,-7.6626 -26.54364,-5.80955c-9.16506,2.0033 -15.0247,3.30544 -17.52882,3.95651c-9.86622,2.55419 -14.77429,4.70774 -14.77429,6.46062c0,5.05831 0.25042,10.61746 0.75125,16.72751c0.25042,3.65601 0.75123,9.46556 1.50247,17.47874c0.35057,4.55749 1.30214,10.16672 2.8547,16.92783c2.50412,10.91795 3.80625,16.67742 3.90642,17.27841c0.10017,0 0,0.05008 -0.25042,0.15024c-0.15025,0.10017 0.05008,0.15025 0.55091,0.15025c0.75124,0 3.1051,-0.30049 7.01153,-0.90148c4.25699,-0.70115 7.06161,-1.05173 8.36375,-1.1519c-1.45239,-3.4056 -2.80461,-6.76111 -4.15683,-10.01647c-2.70444,-6.46062 -4.00659,-10.41712 -4.00659,-11.76935c0,-2.75453 1.25206,-4.15684 3.65601,-4.15684c0.95156,0 4.85799,3.60593 11.66919,10.86787c8.76441,9.31532 13.72257,14.52387 14.97463,15.67576c2.45403,-2.50412 5.20857,-5.15847 8.26359,-7.96308c3.25535,-2.90478 6.21021,-5.45897 8.86458,-7.56243c-2.40395,-1.55256 -5.50906,-3.20528 -9.3654,-4.95816c-4.35717,-1.95321 -7.51235,-3.35551 -9.46557,-4.257c-3.35551,-1.55256 -5.75947,-2.85469 -7.31202,-4.00659c-1.90313,-1.40231 -2.90478,-2.85469 -2.90478,-4.257c0,-1.40231 2.75453,-3.30544 8.31366,-5.75947c1.60263,-0.70115 4.05667,-1.75288 7.51236,-3.20528c2.95486,-1.30214 5.35881,-2.45403 7.11169,-3.50576c1.45238,-0.85139 2.90478,-3.00493 4.45732,-6.46062c1.40231,-3.25535 2.15355,-5.75948 2.15355,-7.51236c0,-1.55256 -0.35057,-3.30543 -1.10181,-5.30873c-1.00164,-2.70444 -2.50412,-5.1084 -4.50742,-7.11169M218.70762,164.51714c0.15025,0.95156 0.25041,1.7028 0.15024,2.25371v0.25041c0.35057,-0.10017 2.20362,-1.25206 5.60923,-3.45568c3.50576,-2.15354 5.85963,-3.20528 7.06161,-3.20528c2.15354,0 3.50576,0.80132 4.00659,2.40395c0.10017,0.25042 0.15024,1.20198 0.15024,2.80461c0,1.1519 0.65108,4.60758 1.85306,10.46721c0.20032,1.20198 0.45074,2.40395 0.70115,3.55585c0.15025,-0.05008 0.25041,-0.10017 0.35057,-0.15025c-0.25042,-1.25205 -0.40066,-1.95321 -0.40066,-2.00329c0,-1.00164 0.3005,-2.75453 0.95157,-5.25865c0.15025,-0.45074 0.25041,-0.95157 0.35057,-1.45239c0.75124,-3.05502 1.30214,-5.35881 1.60264,-6.81121c0.50083,-2.30379 1.05173,-4.10675 1.6527,-5.30873c-1.65272,0.15025 -3.50576,0.25041 -5.6593,0.30049c-3.30543,0.05008 -6.96144,0.35058 -10.91794,0.90149c-5.15848,0.75124 -7.71268,1.60263 -7.71268,2.65436c0,0.35057 0.10016,1.05173 0.25041,2.05338M194.3676,181.69539c-2.60429,1.35223 -5.50906,2.50412 -8.71433,3.35551l-0.90148,0.25042c3.60592,1.40231 7.01152,2.85469 10.16671,4.30709c0,-0.45074 0,-1.00165 0,-1.55256c-0.05008,-0.80132 -0.15025,-2.20362 -0.35057,-4.15684c-0.10016,-0.90149 -0.15025,-1.65272 -0.20032,-2.20362M334.64823,160.51056c-0.05008,2.30379 -0.15024,4.15684 -0.30049,5.50906c0.25041,0.05008 0.8514,0.15025 1.80296,0.20033c-1.05173,-2.75453 -1.55256,-4.15684 -1.55256,-4.20692c0,-0.50083 0,-0.90149 0.05008,-1.30214c0,-0.10017 0,-0.15024 0,-0.20032M243.94912,210.29241c-1.95321,0.65107 -3.65601,1.25205 -5.15848,1.75288c-0.10017,0.95156 -0.20033,2.20363 -0.35058,3.75617c-0.35057,3.4056 -0.50083,5.30873 -0.50083,5.70938c0,0.50083 0.05008,0.75124 0.05008,0.75124c0,0 0.10017,0 0.20033,-0.05008c3.75618,-0.50083 7.71268,-1.20198 11.86952,-2.10346c4.90807,-1.00164 8.26359,-1.9532 10.06655,-2.75453c-1.1519,-5.30873 -2.00329,-9.61581 -2.60427,-12.82109c-3.05502,1.00164 -5.55915,2.0033 -7.41219,3.05503c-1.65272,0.95156 -3.70609,1.85305 -6.16012,2.70444M163.21638,152.34714c6.2603,0 10.41713,1.35223 12.52059,4.10676c1.00164,1.25205 1.50247,3.15519 1.50247,5.70938c0,2.10347 -0.3005,3.65601 -0.8514,4.70774c-0.95156,1.7028 -2.85469,2.90477 -5.6593,3.60592c-1.55256,0.35057 -4.50742,1.20198 -8.91466,2.50412c-3.9565,1.1519 -6.00988,1.75288 -6.16013,1.75288c-2.40395,0 -3.90642,-1.25206 -4.50741,-3.75618c-0.20032,-0.80132 -0.3005,-1.7028 -0.3005,-2.70444c0.05008,-0.90149 0.05008,-1.35222 0.05008,-1.45238c0,-0.75124 -0.45074,-1.90314 -1.4023,-3.4056c-0.95156,-1.50247 -1.45239,-2.65436 -1.45239,-3.4056c0,-1.85305 1.45239,-3.30544 4.35717,-4.257c0.3005,-0.10017 1.90313,-0.60099 4.8079,-1.4023c2.30379,-0.65107 4.30708,-1.30214 6.00988,-2.00329M168.47503,159.75933h-4.65766c-3.05502,0.95156 -4.70774,1.45238 -4.95816,1.55255c-2.10345,0.80132 -3.15519,1.45238 -3.15519,1.95321c0,0.40066 0.15025,1.00165 0.35057,1.75288c0.25042,0.85139 0.35057,1.50246 0.40066,2.00329v0.20033c0.05008,0.15025 0.15025,0.25041 0.25042,0.30049c2.15355,-0.40066 4.45732,-0.95157 7.01153,-1.75288c4.35717,-1.35223 6.51071,-2.60427 6.51071,-3.75617c0,-0.25042 -0.10016,-0.60099 -0.30049,-0.95156c-0.35057,-0.5509 -0.80132,-1.00164 -1.45239,-1.30214M255.91879,176.73724c0.05008,-0.35057 0.10017,-0.55091 0.10017,-0.50082c0,-1.20198 0.5509,-2.95486 1.65272,-5.25865c1.25205,-2.50412 2.10347,-4.25699 2.45403,-5.25864c0.50083,-1.40231 0.95156,-3.05502 1.4023,-5.00824c0.10017,-0.3005 0.45075,-2.00329 1.10182,-5.15847c0.35057,-1.65272 1.35222,-1.90312 3.00494,-0.70115c1.40231,1.00164 3.15519,2.90477 5.15848,5.70938c1.80296,2.45403 3.4056,5.00823 4.85798,7.6626c1.4524,2.65437 2.15353,4.35717 2.15353,5.20856c0,2.95486 -1.15188,4.40724 -3.40559,4.40724c-1.65272,0 -4.05667,0.25041 -7.21187,0.80131c-3.1051,0.5509 -5.45897,0.80132 -7.0616,0.80132c-2.15353,0 -3.50576,-0.50082 -4.00659,-1.55255c-0.15025,-0.35057 -0.25041,-0.75125 -0.20032,-1.1519M264.88353,164.61731c-1.25205,3.85635 -1.90312,6.41054 -1.90312,7.71268c0,0.80132 0.05008,0.90148 0.15024,0.30049c0.3005,-0.05008 1.10181,-0.20032 2.45403,-0.45073c1.05173,-0.20032 2.10345,-0.35058 3.05502,-0.45074l0.10017,-0.10017c0.05008,-0.05008 0.20033,-0.15025 0.40065,-0.25041c-0.60099,-1.20198 -1.30214,-2.40396 -2.05337,-3.65601c-0.95157,-1.55256 -1.65273,-2.60428 -2.20363,-3.1051z" fill="#000000" stroke-opacity="0.50196" stroke="#ff0000" stroke-width="10"/><path d="M450.78919,250.65878c-1.00164,2.10345 -2.35388,4.0066 -4.10676,5.7094c-4.90807,4.95815 -11.56902,7.41218 -20.08302,7.41218c-9.76605,0 -16.82766,-1.50248 -21.18483,-4.50741c-3.15519,-2.15355 -4.75782,-5.00823 -4.75782,-8.46392c0,-2.90478 2.70445,-6.21021 8.11334,-10.01646c5.45898,-3.80625 11.11828,-6.31038 17.07808,-7.56243c8.66424,-1.90312 15.47544,-0.90148 20.43359,3.10511c1.90313,1.50247 3.35552,3.30543 4.35717,5.40889c0.8514,1.75288 1.30214,3.4056 1.30214,4.90807c0,1.00164 -0.35057,2.35386 -1.1519,4.00658M243.59854,134.71817c-0.20032,2.30379 -0.35057,4.95816 -0.50082,7.71268c-0.10017,1.75288 -0.10017,4.40724 -0.10017,7.91302c-9.3654,1.1519 -15.52552,1.90313 -18.53046,2.30379c-4.60757,0.65107 -7.76276,1.20198 -9.46556,1.7028c-1.85304,0.5509 -3.00494,1.30214 -3.45568,2.30379c-0.3005,0.65107 -0.45074,2.10346 -0.45074,4.30708c0,0.3005 0.10016,1.50247 0.25041,3.60593c0.15025,2.10347 0.25042,3.65601 0.25042,4.65766c0,0.20032 -0.10016,0.80132 -0.30049,1.75288c-0.20032,1.10181 -0.25041,2.0033 -0.15025,2.80462c0.20032,2.50412 1.65271,3.75617 4.30708,3.75617c0.60099,0 2.60428,-1.15189 6.11005,-3.45568c3.75618,-2.45403 6.36046,-3.90643 7.91302,-4.30709c0.10017,0.5509 0.35057,2.10345 0.70115,4.70774c0.3005,2.40395 0.65107,4.30709 1.00164,5.70939c0.20032,0.95156 0.45074,1.75288 0.75125,2.50412c-2.25371,1.25205 -4.40724,2.60428 -6.36046,4.00659c-3.75618,2.65437 -5.65931,4.55749 -5.65931,5.75947l0.50082,1.90313c0.65107,1.25205 1.85305,1.90312 3.50577,1.90312c0.05008,0 3.9565,-2.00329 11.71926,-6.00988c7.86293,-4.05667 12.06985,-6.21021 12.57068,-6.36046c1.45239,5.90971 2.40395,10.71762 2.90478,14.52389c-4.10675,2.10347 -11.01811,4.90807 -20.68401,8.41384c-9.81614,3.60593 -17.67906,6.8112 -23.48861,9.66589c-0.10016,-0.25042 -0.85139,-2.50412 -2.15355,-6.76111c-0.05008,-0.10017 -0.05009,-0.25042 -0.10017,-0.35059c0.60099,-0.45074 1.30214,-0.95156 2.00329,-1.50247c3.20526,-2.70444 4.80791,-5.00823 4.80791,-6.91136c0,-1.95321 -3.45568,-4.70774 -10.31695,-8.31366h-0.05009c0.10016,-0.3005 0.10018,-0.601 0.10018,-0.95157c0,-0.50083 -0.25042,-2.2537 -0.75125,-5.25865c-0.50083,-3.00494 -0.75123,-4.70774 -0.75123,-5.05832c-0.3005,-0.95156 -0.65108,-1.80296 -1.00165,-2.50412c2.35387,-1.80296 4.30709,-3.90643 5.90972,-6.31038c2.95486,-4.40724 4.40724,-9.3654 4.40724,-14.77429c0,-2.05337 -0.40066,-4.30708 -1.15189,-6.81119c-0.95156,-3.10511 -2.35387,-5.9598 -4.15684,-8.46392c-1.20197,-1.7028 -2.5542,-3.15519 -4.00659,-4.40724c0.25041,-0.70115 0.45074,-1.4524 0.55091,-2.30379c0.15025,-4.35717 0.40066,-7.06161 0.85139,-8.01317c3.10511,0.3005 7.56243,0.70115 13.42207,1.20197c4.75782,0.45074 8.01318,0.80132 9.76606,1.1519l19.2817,0.15025v4.40724M344.91511,120.69511c-5.40889,0.40066 -10.26688,1.1519 -14.57397,2.20363c-5.40889,1.45239 -8.16342,3.1051 -8.16342,4.95815c0,0.2504 1.1519,2.75453 3.4056,7.51236c2.10346,4.45732 3.55585,7.81284 4.40724,9.96639c-0.40065,1.80296 -0.80131,4.60758 -1.30214,8.41383c-0.8514,6.66096 -1.25206,11.66919 -1.25206,14.97462c0,1.60263 0.75124,2.75453 2.25371,3.55585c2.60429,1.35223 7.61252,2.00329 15.0247,2.00329c6.61086,0 12.42042,-1.50247 17.42865,-4.40724l0.05009,-0.05008c0.5509,0.3005 1.15189,0.45074 1.80296,0.45074c2.15355,0 3.40561,-1.10181 3.80626,-3.25535c0.10017,-0.60099 0.15024,-1.35222 0.10017,-2.25371c0.60099,-0.90149 0.90148,-1.75288 0.90148,-2.55419c0,-0.75124 -0.20033,-1.40231 -0.50083,-2.05338c-0.15024,-0.35057 -0.40066,-0.70115 -0.65107,-0.95157c-0.05008,-0.45074 -0.10017,-0.95156 -0.15024,-1.45239c-0.25041,-2.55419 -0.45075,-4.60757 -0.70115,-6.16013v-22.73739c0.40065,0.50083 0.80131,0.95157 1.1519,1.45239c5.10839,7.01153 8.31367,12.11993 9.6659,15.37528c1.45238,3.50576 2.20362,8.01318 2.20362,13.52223c0,4.257 -1.10182,8.46392 -3.30544,12.67083c-2.15355,4.257 -5.25864,8.06326 -9.21514,11.41878c-3.60593,3.10511 -7.56243,5.50905 -11.81943,7.3621c1.7028,0.35057 0.05008,0.95157 -4.90807,1.80296c-0.10017,0.05008 -0.15024,0.05008 -0.25041,0.05008c-1.35222,0.40066 -2.70445,0.75123 -4.15684,1.05173c-0.05008,-0.10017 -0.10017,-0.20033 -0.15024,-0.3005c-3.4056,0.60099 -5.10839,1.00165 -5.10839,1.10181c-2.05338,0.20032 -4.20693,0.3005 -6.41055,0.3005c-3.25534,0 -6.61087,-0.3005 -10.11663,-0.90149c-3.45569,-0.60099 -5.50905,-0.90148 -6.16012,-0.90148c-3.30543,-0.05008 -5.90972,-0.55091 -7.81285,-1.55256c-0.90148,-0.50083 -1.55255,-0.80132 -2.00329,-1.00164c-0.45074,-0.20032 -1.00164,-0.35057 -1.55255,-0.40066c-3.00494,-7.3621 -5.4089,-13.12158 -7.31202,-17.27841c1.00164,0.25042 2.25371,0.55091 3.90643,0.95157c3.00494,0.75124 4.90807,1.1519 5.75946,1.1519c1.65272,0 2.90478,-0.60099 3.75617,-1.80296c0.65107,-0.95156 1.10181,-2.45403 1.40231,-4.5575c0.25041,-2.60429 0.40067,-4.60758 0.55091,-6.00988c0.25041,-2.55419 0.65107,-4.55748 1.1519,-6.11004c0.35057,-1.05173 1.05173,-4.257 2.05338,-9.56573c1.10181,-5.60923 1.60264,-9.11498 1.60264,-10.51729c0,-0.70115 -0.15026,-1.4023 -0.50083,-2.05337c-0.60099,-1.25205 -1.7028,-1.90314 -3.25535,-1.90314c-1.25205,0 -4.85798,0.45074 -10.71762,1.30215c-5.40889,0.80132 -9.41548,1.45239 -12.06984,1.95321v-0.25042c0,-0.05008 0.8514,-3.70608 2.60429,-11.0181c1.65272,-6.81119 2.50412,-11.01811 2.5542,-12.67083c0.05008,0 0.10017,0 0.15025,-0.05008c0.5509,-0.25041 1.50247,-0.65107 2.85469,-1.30214c3.05502,-1.25205 7.11169,-1.90312 12.11992,-1.90312c12.37034,0 24.03952,2.60427 35.10772,7.81284c1.85304,0.85139 3.65601,1.75288 5.30873,2.70445c-4.30708,1.1519 -7.31201,1.80296 -8.96473,1.90313M487.9002,116.93894c4.40724,4.45732 7.91301,9.11499 10.51729,13.97298c2.70445,5.05831 4.05667,9.61581 4.05667,13.67248c0,3.90642 -0.90148,7.71268 -2.70444,11.36869c-1.7028,3.50576 -4.50742,7.41218 -8.46393,11.76935c-1.55255,1.75288 -4.15683,3.65601 -7.71268,5.80955c-4.20692,2.50412 -8.46391,4.45732 -12.82108,5.80955c-4.45734,1.40231 -8.91466,2.40395 -13.3219,3.00494c-2.10345,0.3005 -5.15847,0.55091 -9.16506,0.80132c-2.65436,0.15025 -4.40724,0.40066 -5.25864,0.80131c-1.1519,0.50083 -1.70281,1.55256 -1.70281,3.05503c0,0.60099 0.80131,3.75618 2.40396,9.41548c1.60264,5.75947 2.8046,9.66589 3.60593,11.81943c-3.25534,0.95156 -9.01482,2.45403 -17.27841,4.50741c-8.91465,2.15354 -14.67413,3.55585 -17.42866,4.257c-0.20033,-5.00824 -0.45075,-8.96474 -0.8514,-11.86951c-0.05008,-0.45074 -0.10016,-0.8514 -0.20032,-1.25206c3.35552,-1.35223 7.31201,-2.95486 11.76935,-4.70774c7.6626,-3.35551 11.46886,-6.05997 11.46886,-8.16342c0,-1.05173 -0.75124,-7.51235 -2.20363,-19.43195c-0.05008,-0.25042 -0.05008,-0.55091 -0.10016,-0.80132c0.3005,0.05008 0.65107,0.05008 1.00164,0.05008c0.65107,0 2.50411,-0.5509 5.60922,-1.75288c3.80626,-1.45239 7.36211,-3.1552 10.66754,-5.00824c10.06655,-5.60923 15.07478,-11.46885 15.07478,-17.47873c0,-1.45239 -0.35057,-3.25536 -1.15189,-5.30873c-1.1519,-2.95486 -2.8547,-5.60922 -5.10841,-8.01317c-6.61086,-7.01153 -16.97791,-10.51729 -31.05105,-10.51729c-4.90807,0 -10.31696,1.05173 -16.17659,3.20526c-3.9565,1.4023 -6.76111,2.70444 -8.46391,3.80625v-0.40067c-0.05008,-1.95321 -0.15025,-4.70774 -0.25042,-8.2135c-0.15024,-3.65601 -0.20033,-6.31038 -0.25041,-7.9631c0,-0.95157 -0.15024,-2.2537 -0.40066,-3.9565c-0.25041,-1.80296 -0.40067,-3.10511 -0.45075,-3.9565c-0.10017,-1.00164 -0.3005,-1.80296 -0.65107,-2.40395c0.65107,-0.15025 1.25206,-0.40066 1.85305,-0.70115c0.75124,-0.40066 1.95321,-1.1519 3.65601,-2.20362c4.00659,-2.15354 10.5173,-3.20528 19.48203,-3.20528c8.91465,0 18.53046,1.25206 28.94759,3.80626c14.87445,3.65601 25.94266,9.11499 33.05435,16.37692z" fill="url(#color-1)" stroke="none" stroke-width="1"/><path d="M417.06916,197.45013c0.21726,-0.12331 12.00727,-8.07149 13.37383,-7.91743c1.12204,0.1265 10.00393,-3.45171 11.12516,-3.32629c0.50561,2.55872 13.28917,23.17934 8.42164,25.37864c-0.11405,0.05153 -19.31444,6.10244 -19.42681,6.12651c-4.20691,0.90149 -18.94147,4.1112 -18.99155,4.1112c-0.04021,0 -2.01975,-6.22238 -1.86137,-7.06054c0.43144,-2.28313 0.53603,-3.59096 0.77396,-5.90229c0.15024,-1.55256 -1.63733,-2.38511 -1.53716,-3.33668c1.4524,-0.5509 -0.34062,-2.62014 1.61258,-3.2712z" fill="#c00000" stroke="none" stroke-width="1"/><path d="M250.10924,207.58797c1.85305,-1.05173 4.35717,-2.10347 7.46228,-3.00495c0.60099,3.20528 1.45239,7.46227 2.60428,12.82108c-1.80296,0.80132 -5.15848,1.7028 -10.06655,2.75453c-4.20691,0.90149 -8.11334,1.60264 -11.86951,2.10346c-0.10017,0.05008 -0.15025,0.05008 -0.20033,0.05008c-0.05008,0 -0.05009,-0.25041 -0.05009,-0.75124c0,-0.40066 0.15026,-2.30379 0.50083,-5.70938c0.15025,-1.55256 0.25041,-2.80461 0.35057,-3.75618c1.45239,-0.5509 3.1552,-1.1519 5.1084,-1.80296c2.40395,-0.85139 4.5074,-1.75288 6.16012,-2.70444M200.42756,152.69772c0.75124,2.0033 1.10181,3.75618 1.10181,5.35881c0,1.75288 -0.70115,4.257 -2.15355,7.51235c-1.55256,3.45569 -3.00494,5.60923 -4.45732,6.46062c-1.75288,1.05173 -4.15683,2.20362 -7.11169,3.50576c-3.45568,1.45239 -5.9598,2.5542 -7.51236,3.20528c-5.55913,2.40395 -8.31366,4.35716 -8.31366,5.75946c0,1.40231 0.95157,2.80461 2.90478,4.25701c1.55256,1.1519 3.95649,2.45403 7.31202,4.00659c1.95322,0.90149 5.1084,2.35388 9.46557,4.257c3.85634,1.75288 7.01153,3.40559 9.3654,4.95815c-2.65437,2.10347 -5.60923,4.60757 -8.86458,7.56243c-3.00494,2.80462 -5.80955,5.45898 -8.26359,7.9631c-1.25205,-1.1519 -6.21021,-6.36046 -14.97462,-15.67578c-6.81119,-7.26193 -10.71763,-10.86786 -11.66919,-10.86786c-2.45404,0 -3.65601,1.40231 -3.65601,4.15683c0,1.40231 1.35222,5.30873 4.00659,11.76935c1.35223,3.25535 2.70445,6.56079 4.15683,10.01647c-1.35223,0.10017 -4.10675,0.50083 -8.36375,1.1519c-3.90643,0.60099 -6.26029,0.90148 -7.01153,0.90148c-0.50082,0 -0.70115,-0.05008 -0.55091,-0.15025c0.20032,-0.10017 0.30049,-0.15025 0.25041,-0.15025c-0.10017,-0.60099 -1.4023,-6.36046 -3.90642,-17.2784c-1.55256,-6.76111 -2.50411,-12.42042 -2.85469,-16.92783c-0.70115,-8.06325 -1.20198,-13.8728 -1.50247,-17.47873c-0.50082,-6.11005 -0.75124,-11.66919 -0.75124,-16.72751c0,-1.75288 4.95816,-3.90643 14.77429,-6.46062c2.50412,-0.65107 8.31367,-2.00329 17.52882,-3.95649c11.91959,-1.90312 20.78417,0 26.54364,5.75947c2.0033,2.0033 3.50577,4.40725 4.50742,7.11169M157.20649,154.35044c-2.90477,0.80132 -4.5074,1.30214 -4.8079,1.30214c-2.90477,0.95156 -4.35717,2.40395 -4.35717,4.257c0,0.75124 0.50082,1.90313 1.45239,3.4056c0.90148,1.50247 1.4023,2.65436 1.4023,3.4056c0,0.10017 0,0.55091 -0.05008,1.45239c0,1.00164 0.10017,1.90312 0.3005,2.70444c0.60099,2.50412 2.10346,3.75618 4.50741,3.75618c0.15025,0 2.20362,-0.60098 6.16013,-1.75288c4.40724,-1.30214 7.36211,-2.15355 8.91466,-2.50412c2.80461,-0.70115 4.70774,-1.90313 5.6593,-3.60593c0.55091,-1.00164 0.8514,-2.60428 0.8514,-4.70774c0,-2.55419 -0.50083,-4.45732 -1.50247,-5.70938c-2.10346,-2.65437 -6.2603,-4.00659 -12.52059,-4.00659c-1.7028,0.70115 -3.70609,1.35222 -6.00988,2.00329M251.41138,140.22722c1.85305,1.30214 5.65931,2.0033 11.36869,2.0033c6.46062,0 10.86787,-0.40067 13.3219,-1.1519c0.25041,0 0.45075,0.35058 0.60099,1.05173c0.3005,1.30214 0.85139,2.75454 1.65272,4.30709c2.45403,4.65766 4.00659,7.51236 4.65766,8.66425c1.00164,1.75288 2.35388,4.60757 4.05667,8.56407c1.75288,4.20691 3.05502,7.1117 3.9565,8.71433c2.65436,4.85799 5.15849,10.71762 7.56243,17.47874c1.40231,3.85635 3.25536,9.56573 5.60922,17.07808c-3.1051,1.30214 -6.81119,2.65436 -11.11828,4.15683c-3.90641,1.35223 -6.61088,2.20362 -8.16342,2.60428c-0.35057,-0.95156 -0.90148,-2.95486 -1.65272,-6.05997c-0.90148,-3.65601 -1.60263,-6.31037 -2.10346,-7.96309c-2.00329,-6.56079 -4.257,-9.86622 -6.76112,-9.86622c-0.45074,0 -1.90312,0.50083 -4.40724,1.40231c-2.70445,1.00164 -4.95816,1.55255 -6.86129,1.75287c-1.75288,0.20032 -3.1051,0.50083 -4.15683,0.95157c-0.15024,-0.5509 -0.25041,-1.1519 -0.40066,-1.80296c-1.40231,-6.31037 -2.45404,-10.91795 -3.10511,-13.77264c0.15025,-2.45403 -1.55255,-3.4056 -5.20856,-2.90477c-1.30214,0.15025 -2.80461,0.50082 -4.45732,1.05173c0.05008,-0.60099 0.05008,-1.25205 0,-1.95321l-0.05008,-0.95157c0.45074,-1.65272 0.95157,-3.60593 1.4524,-5.80955c0.70115,-3.05502 1.30214,-6.31037 1.85304,-9.76605c0.05008,-0.25042 0.10017,-0.55091 0.15025,-0.80131c0.05008,-0.05008 0.15024,-0.05008 0.20032,-0.10016c0.75124,-0.40066 1.25206,-0.95157 1.50247,-1.60264c0.15025,-0.40066 0.20032,-1.00164 0.20032,-1.90313c-0.15025,-1.80296 -0.25041,-3.50576 -0.35057,-5.1084c-0.15025,-3.15519 -0.25041,-5.60922 -0.15025,-7.26193c0,-0.50083 0.05008,-1.05173 0.10017,-1.7028c0.20032,0.3005 0.45074,0.50083 0.70115,0.70115M256.11912,177.83906c0.50083,1.05173 1.85305,1.55256 4.00658,1.50247c1.60264,0 3.9565,-0.25042 7.06161,-0.80132c3.15519,-0.50083 5.55914,-0.80131 7.21186,-0.80131c2.25371,0 3.4056,-1.50248 3.4056,-4.40725c0,-0.85139 -0.70114,-2.5542 -2.15354,-5.20857c-1.4524,-2.65437 -3.05503,-5.20856 -4.85798,-7.66259c-2.05338,-2.80462 -3.75617,-4.70774 -5.15848,-5.70938c-1.65272,-1.1519 -2.65436,-0.95157 -3.00494,0.70115c-0.65107,3.20528 -1.05174,4.90807 -1.10182,5.15848c-0.40065,1.95322 -0.90148,3.60592 -1.40231,5.00823c-0.35057,1.00164 -1.15189,2.75453 -2.45403,5.25865c-1.10181,2.30379 -1.65272,4.05667 -1.65272,5.25864c0,0 -0.05008,0.20033 -0.10016,0.55091c-0.05008,0.45074 0.05008,0.80133 0.20032,1.1519M380.57374,180.79392c0.5509,0 6.2603,-3.9565 17.17824,-11.86951c13.92289,-10.11663 22.13639,-16.02635 24.59043,-17.72915l0.15024,0.75124c0.8514,6.16013 1.75288,12.92124 2.70445,20.33344c1.25206,9.6659 1.85305,14.92453 1.85305,15.92618c0,0.05008 -6.41054,3.05502 -19.13145,8.91465c-0.20033,0 -0.45075,-0.05008 -0.70115,-0.05008c-1.05173,0 -1.80296,0.50082 -2.30379,1.50247c-4.45734,2.05337 -9.61581,4.45732 -15.47544,7.16177c-5.15848,2.25371 -8.96473,3.90643 -11.41877,4.95816c-4.257,1.80296 -7.66261,3.05503 -10.16673,3.80625c-2.40395,0.70115 -3.55584,2.20362 -3.55584,4.55749c0,0.10017 0.05008,1.10182 0.20033,3.00494c0.10017,1.1519 0.05008,2.10345 -0.15024,2.8046v27.7957l-0.40066,0.15025c-7.41219,-3.55585 -13.0715,-6.21021 -16.97791,-8.01318c-6.71103,-3.10511 -13.37198,-5.85963 -19.93277,-8.36375c2.20362,-2.95486 7.16178,-8.56409 14.92454,-16.72751c6.8112,-7.16177 10.2168,-11.01811 10.2168,-11.46885c-0.90148,-2.75453 -1.95321,-5.50906 -3.05502,-8.2135c6.2102,-1.7028 11.91959,-4.05667 17.07807,-7.06162c6.00988,-3.55584 10.71762,-7.61251 14.17331,-12.17001c0.05008,0 0.10016,0 0.20033,0M359.33883,125.70334v28.39669c0.15024,0.60099 0.20033,1.90312 0.20033,3.90642c0,1.55256 0,2.80462 0,3.80626c-0.50083,0.40066 -0.80131,0.65107 -0.80131,0.65107c-4.00659,2.80462 -8.8145,4.20691 -14.42372,4.20691c-0.35057,0 -0.80131,0 -1.4023,-0.05008c-0.20033,-0.40066 -0.50082,-0.90148 -0.8514,-1.50247c-0.10017,-0.15025 -0.20033,-0.30049 -0.3005,-0.45074c0.05008,-0.05008 0.05008,-0.15024 0.05008,-0.20032v-0.05008c0.35057,-0.20032 0.65107,-0.50083 0.90148,-0.90148c0.45074,-0.70115 0.70116,-1.55256 0.70116,-2.45403c0,-0.40066 -0.80131,-2.8046 -2.35387,-7.11169c-1.40231,-3.90642 -2.45404,-6.76113 -3.15519,-8.46393c-0.80131,-2.05337 -1.7028,-4.70774 -2.60429,-7.96308c-1.20198,-4.257 -2.00329,-6.86128 -2.30378,-7.81284c3.50577,-0.45074 8.2135,-1.10181 14.12322,-2.05337c3.20527,-0.50083 7.26193,-1.1519 12.17001,-1.95321z" fill="url(#color-2)" stroke="none" stroke-width="1"/><path d="M253.2144,133.91683c0.16307,0 0.3568,0 0.58019,-0.00051c-0.6856,0.15025 -1.37091,0.30347 -2.05654,0.45765c-0.03227,0.00725 -0.06454,0.01452 -0.0968,0.02179c0.45825,-0.31928 0.98909,-0.47894 1.57316,-0.47894z" fill="#000000" stroke="none" stroke-width="1"/><path d="M487.9002,116.93894c4.40724,4.45732 7.91301,9.115 10.51729,13.97298c2.70445,5.05831 4.05667,9.61581 4.05667,13.67248c0,3.90642 -0.90148,7.71268 -2.70444,11.36869c-1.66294,3.4237 -4.37671,7.2295 -8.18794,11.46408c-1.00318,-0.92381 -1.97866,-1.87355 -2.86662,-2.90228c-2.24527,-2.25149 -4.56252,-4.44622 -6.84395,-6.65946c-2.29694,-2.22828 -4.63682,-4.37251 -7.07191,-6.4496c-2.60512,-1.62857 -4.94116,-4.08993 -7.40117,-5.98664c-1.01315,-0.78116 -2.02926,-1.54078 -3.0606,-2.27432c-0.16625,-0.59493 -0.37421,-1.21795 -0.62708,-1.8659c-1.1519,-2.95486 -2.8547,-5.60922 -5.10841,-8.01317c-6.61086,-7.01153 -16.97791,-10.51729 -31.05105,-10.51729c-4.90807,0 -10.31696,1.05173 -16.17659,3.20526c-2.85152,1.01067 -5.10471,1.96931 -6.77832,2.83842c-0.27408,-0.0315 -0.54933,-0.06045 -0.82596,-0.08653c-0.29413,-0.06491 -0.58844,-0.13034 -0.88297,-0.19592c-0.05426,-1.87407 -0.14066,-4.33941 -0.22708,-7.36388c-0.15024,-3.65601 -0.20033,-6.31037 -0.25041,-7.96309c0,-0.95157 -0.15024,-2.25371 -0.40066,-3.95651c-0.25041,-1.80296 -0.40067,-3.1051 -0.45075,-3.95649c-0.10017,-1.00164 -0.3005,-1.80296 -0.65107,-2.40395c0.65107,-0.15025 1.25206,-0.40066 1.85305,-0.70115c0.75124,-0.40066 1.95321,-1.15189 3.65601,-2.20361c4.00659,-2.15354 10.5173,-3.20528 19.48203,-3.20528c8.91465,0 18.53046,1.25206 28.94759,3.80627c14.87445,3.65601 25.94266,9.11498 33.05435,16.37691z" fill="#ff5a5a" stroke="none" stroke-width="1"/><path d="M402.91048,129.76001v-0.40067c-0.00317,-0.12372 -0.00655,-0.25066 -0.01011,-0.38079c0.26659,0.05901 0.53302,0.11781 0.79932,0.17605c0.06313,0.00607 0.12619,0.01228 0.18918,0.01864c-0.359,0.2012 -0.68505,0.39695 -0.97839,0.58676z" fill="#ff9900" stroke="none" stroke-width="1"/><path d="M344.91511,120.69512c-5.40889,0.40066 -10.26688,1.1519 -14.57397,2.20363c-4.59623,1.23417 -7.27579,2.613 -7.97722,4.13647c-1.42946,0.03517 -2.85856,0.07928 -4.28647,0.14488c-3.17729,0.14596 -6.35457,0.2545 -9.53355,0.35686c-3.18118,0.10243 -6.36002,0.19831 -9.53993,0.33843c-1.38659,0.06115 -2.77306,0.15233 -4.15902,0.25538c0.27774,-1.16556 0.59074,-2.47538 0.93942,-3.92987c1.65272,-6.81119 2.50413,-11.01811 2.55421,-12.67083c0.05008,0 0.10017,0 0.15024,-0.05008c0.5509,-0.25041 1.50246,-0.65107 2.85469,-1.30214c3.05502,-1.25205 7.11169,-1.90312 12.11992,-1.90312c12.37034,0 24.03952,2.60427 35.10773,7.81284c1.85304,0.85139 3.65601,1.75288 5.30873,2.70445c-4.30708,1.1519 -7.31201,1.80296 -8.96473,1.90313z" fill="#ff5a5a" stroke="none" stroke-width="1"/><path d="M243.59854,134.71818c-0.04749,0.54614 -0.09216,1.11199 -0.13469,1.69419c-0.33143,0.08749 -0.6628,0.1755 -0.99412,0.26398c-3.0834,0.78189 -6.16486,1.57098 -9.2457,2.36292c-3.08157,0.7924 -6.10933,1.77382 -9.18685,2.58498c-3.08508,0.81315 -6.16576,1.45613 -9.31266,1.97495c-3.07342,0.63402 -6.159,1.13037 -9.2426,1.6951c-0.53212,-0.96142 -1.11582,-1.88395 -1.74892,-2.76326c-1.20197,-1.7028 -2.5542,-3.15519 -4.00659,-4.40724c0.25041,-0.70115 0.45074,-1.4524 0.55091,-2.30379c0.15025,-4.35717 0.40066,-7.06161 0.85139,-8.01317c3.10511,0.3005 7.56243,0.70115 13.42207,1.20197c4.75782,0.45074 8.01318,0.80132 9.76606,1.1519l19.2817,0.15025v4.40724z" fill="#ff5a5a" stroke="none" stroke-width="1"/><path d="M450.78919,250.65879c-1.00164,2.10345 -2.35388,4.0066 -4.10676,5.7094c-4.90807,4.95815 -11.56902,7.41219 -20.08302,7.41219c-9.76605,0 -16.82766,-1.50248 -21.18483,-4.50742c-3.15519,-2.15355 -4.75782,-5.00823 -4.75782,-8.46392c0,-2.90478 2.70445,-6.21021 8.11334,-10.01646c5.45898,-3.80625 11.11828,-6.31038 17.07808,-7.56243c8.66424,-1.90312 15.47544,-0.90149 20.43359,3.1051c1.90313,1.50247 3.35552,3.30544 4.35717,5.40889c0.8514,1.75288 1.30214,3.4056 1.30214,4.90807c0,1.00164 -0.35057,2.35386 -1.1519,4.00657z" fill="#c00000" stroke="none" stroke-width="1"/><path d="M230.42689,206.83676c-9.81614,3.60593 -17.67906,6.81121 -23.48861,9.6659c-0.10016,-0.25042 -0.85139,-2.50412 -2.15355,-6.76112c-0.05008,-0.10017 -0.05009,-0.25042 -0.10017,-0.35058c0.60099,-0.45074 1.30214,-0.95156 2.00329,-1.50247c3.20526,-2.70444 4.80791,-5.00823 4.80791,-6.91136c0,-0.28228 -0.07217,-0.58131 -0.21638,-0.89721c1.97748,0.47102 3.96462,0.90202 5.94821,1.35117c3.10512,0.73227 6.20914,1.38173 9.3436,1.97577c2.90537,0.55265 5.80664,1.15319 8.72484,1.63586c-1.53672,0.5761 -3.15987,1.17411 -4.86914,1.79405z" fill="#c00000" stroke="none" stroke-width="1"/><path d="M137.07338,150.2437c0,-1.75288 4.95816,-3.90643 14.77429,-6.46062c2.50412,-0.65107 8.31367,-2.00329 17.52882,-3.95649c11.91959,-1.90312 20.78417,0 26.54364,5.75947c0.39542,0.39542 0.77133,0.80645 1.12772,1.23232c-0.36601,0.06422 -0.73208,0.1281 -1.09822,0.19162c-3.13426,0.54372 -6.25938,1.13331 -9.39629,1.66282c-3.1404,0.53009 -6.25164,1.23847 -9.34839,1.98342c-3.01573,0.72546 -6.05193,1.35366 -9.07903,2.02972c-1.46102,-0.22546 -3.09713,-0.3388 -4.90955,-0.3388l-6.00988,2.0033c-2.90477,0.80132 -4.50741,1.30214 -4.80791,1.30214c-1.25281,0.41041 -2.23546,0.91397 -2.94794,1.50267c-0.04245,0.01188 -0.08492,0.02375 -0.12736,0.03563c-3.00111,1.0615 -6.00521,2.11164 -9.01632,3.14446c-0.97072,0.33295 -1.92813,0.70683 -2.8762,1.10622c-0.23826,-3.98184 -0.35739,-7.70898 -0.35739,-11.19787z" fill="#ff5a5a" stroke="none" stroke-width="1"/><path d="M182.19759,192.76361c1.95322,0.90149 5.1084,2.35388 9.46557,4.257c3.85634,1.75288 7.01153,3.40559 9.3654,4.95815c-2.65437,2.10347 -5.60923,4.60757 -8.86458,7.56243c-3.00494,2.80462 -5.80955,5.45898 -8.26359,7.9631c-1.25205,-1.1519 -6.21021,-6.36046 -14.97462,-15.67578c-6.81119,-7.26193 -10.71763,-10.86786 -11.66919,-10.86786c-2.45404,0 -3.65601,1.40231 -3.65601,4.15683c0,1.40231 1.35222,5.30873 4.00659,11.76935c1.35223,3.25535 2.70445,6.56079 4.15683,10.01647c-1.35223,0.10017 -4.10675,0.50083 -8.36375,1.1519c-3.90643,0.60099 -6.26029,0.90148 -7.01153,0.90148c-0.50082,0 -0.70115,-0.05008 -0.55091,-0.15025c0.20032,-0.10017 0.30049,-0.15025 0.25041,-0.15025c-0.10017,-0.60099 -1.4023,-6.36046 -3.90642,-17.2784c-1.55256,-6.76111 -2.50411,-12.42042 -2.85469,-16.92783c-0.25015,-2.87676 -0.47481,-5.46664 -0.67396,-7.77194c1.92254,0.67965 3.84655,1.35516 5.77907,2.00558c3.00888,1.01271 5.9312,2.26324 8.85143,3.50884c2.94011,1.25408 5.88948,2.39645 8.89816,3.47547c2.99794,1.07518 6.00933,2.11426 9.05865,3.03565c2.4806,0.74955 4.94613,1.54948 7.41743,2.32992c1.03531,0.5417 2.21316,1.11635 3.53975,1.73014z" fill="#c00000" stroke="none" stroke-width="1"/><path d="M364.4973,222.06177c0.10017,1.1519 0.05008,2.10345 -0.15024,2.8046v27.7957l-0.40066,0.15025c-7.41219,-3.55585 -13.0715,-6.21021 -16.97791,-8.01318c-6.71103,-3.10511 -13.37198,-5.85963 -19.93277,-8.36375c2.20362,-2.95486 7.16178,-8.56408 14.92454,-16.7275c0.42767,-0.44968 0.84192,-0.88633 1.24274,-1.30993c2.14405,0.17598 4.28843,0.34755 6.43322,0.51553c3.17174,0.24839 6.34636,0.43812 9.51797,0.68742c1.72995,0.13598 3.46021,0.25845 5.19162,0.36177c0.03154,0.49703 0.08026,1.19672 0.1515,2.09909z" fill="#c00000" stroke="none" stroke-width="1"/><path d="M359.33883,125.70335v0.11483c-0.23128,-0.00333 -0.46257,-0.00663 -0.69388,-0.00978c0.21295,-0.03473 0.42757,-0.06974 0.64382,-0.10504z" fill="#ff0000" stroke="none" stroke-width="1"/><path d="M250.10924,207.58798c0.21726,-0.12331 0.44348,-0.24662 0.67857,-0.3697c1.36419,0.17171 2.729,0.33857 4.09557,0.49264c1.12204,0.1265 2.24323,0.25385 3.36446,0.37927c0.51745,2.61867 1.15506,5.71828 1.92795,9.31392c-1.80296,0.80132 -5.15848,1.7028 -10.06655,2.75453c-4.20691,0.90149 -8.11333,1.60264 -11.86951,2.10346c-0.10017,0.05008 -0.15025,0.05008 -0.20033,0.05008c-0.05008,0 -0.05008,-0.25041 -0.05008,-0.75124c0,-0.40066 0.15026,-2.30379 0.50083,-5.70938c0.15025,-1.55256 0.25041,-2.80461 0.35057,-3.75618c1.45239,-0.5509 3.15519,-1.1519 5.1084,-1.80296z" fill="#c00000" stroke="none" stroke-width="1"/><path d="M426.74966,224.86638c0.80131,-0.65107 1.45239,-0.95156 1.95321,-1.10181c3.50576,0 6.31038,0.25042 8.46391,0.65107c1.20197,0.25042 2.70444,0.65107 4.40724,1.1519c4.15683,1.10181 8.06326,3.4056 11.76935,6.91137c1.7028,1.55256 3.20527,3.85634 4.40724,6.8112c1.10182,2.80462 1.70279,5.30873 1.70279,7.46227c0,1.55256 -0.50082,3.60593 -1.55255,6.00988c-1.30214,3.00494 -3.05502,5.75947 -5.30873,8.26359c-6.31038,6.96145 -14.97462,10.41712 -25.94265,10.41712c-13.67248,0 -23.18813,-3.00493 -28.64711,-9.01481c-3.05502,-3.35552 -4.55749,-7.16178 -4.55749,-11.46886c0,-2.75453 0.5509,-5.00824 1.55255,-6.8112c1.20197,-2.10346 3.60593,-4.65766 7.21186,-7.6626c2.60429,-2.15354 6.96145,-4.30708 13.17165,-6.56078c1.50248,-0.60099 3.60593,-1.30214 6.21022,-2.20362c1.95322,-0.65107 3.1051,-1.1519 3.55584,-1.50248c0.25041,-0.20032 0.80131,-0.65107 1.60263,-1.35223M451.94108,246.6522c0,-1.50247 -0.45075,-3.15519 -1.25206,-4.85798c-1.05173,-2.15354 -2.50412,-3.90643 -4.35717,-5.40889c-5.00824,-4.00659 -11.81943,-5.00823 -20.43359,-3.1051c-5.9598,1.25205 -11.66918,3.75617 -17.07807,7.56243c-5.40889,3.80625 -8.11335,7.11169 -8.11335,10.01647c0,3.45569 1.60264,6.26029 4.75783,8.46392c4.40724,3.00494 11.41877,4.50741 21.18483,4.50741c8.514,0 15.22503,-2.50411 20.08302,-7.41218c1.7028,-1.75288 3.05503,-3.65602 4.05667,-5.75948c0.75124,-1.65272 1.1519,-3.00493 1.1519,-4.00657M510.08667,144.48422c0,10.11663 -3.55585,18.93112 -10.41712,26.34332c-10.01647,10.51729 -26.34331,17.22833 -48.88036,20.1331c0.35057,1.40231 1.50247,5.1084 3.45568,11.16836c1.60264,5.1084 2.40396,7.86293 2.40396,8.41384c0,1.35223 -0.40066,2.40396 -1.1519,3.05503c-0.65107,0.60099 -1.85304,1.10181 -3.55584,1.50247c-5.40889,0.90149 -10.5173,2.05337 -15.22504,3.45568c-3.25534,1.00164 -8.66424,2.50412 -16.1766,4.60757c-7.01153,1.95322 -10.56737,2.90478 -10.71762,2.90478c-2.95486,0 -4.60757,-1.65272 -4.85798,-5.00824c-0.10017,-1.05173 -0.05009,-2.40395 0.15024,-4.10675c0.20033,-1.85305 0.3005,-2.95486 0.3005,-3.25535c-0.05008,-1.55256 -0.20033,-3.85635 -0.50083,-7.01153c-1.10182,0.45074 -2.05337,0.90149 -2.90477,1.25207c-3.05502,1.30214 -6.46062,2.85469 -10.16672,4.65766c-4.35717,2.15354 -7.86293,3.85635 -10.46721,5.1084c-2.2537,1.00164 -4.00659,1.80296 -5.25865,2.45403c-2.40395,1.1519 -3.60593,2.00329 -3.65601,2.45403c-0.05008,0.20032 -0.10018,0.95157 -0.15025,2.25371c-0.05008,0.90149 -0.20032,1.65272 -0.40065,2.25371v32.20295c0.10017,0.90148 -0.3005,1.70281 -1.1519,2.45404c-0.90148,0.70115 -1.85305,1.05172 -2.90478,1.05172c-0.45074,0 -4.257,-1.60264 -11.36869,-4.80791c-7.6626,-3.50576 -12.97133,-6.16012 -15.82602,-7.96309c-1.90313,-1.20198 -4.40724,-2.30379 -7.41218,-3.4056c-3.4056,-1.1519 -5.90971,-1.95321 -7.41219,-2.50412c-2.70445,-0.90149 -4.60758,-1.80296 -5.80955,-2.65437c-1.55255,-1.05173 -2.30379,-2.35387 -2.30379,-3.80625c0,-1.75288 1.60264,-4.60758 4.8079,-8.56409c0.80133,-1.00164 2.95486,-3.4056 6.36046,-7.21186c0.95157,-1.10181 4.00659,-4.05666 9.16508,-8.91465c4.30708,-4.10675 6.46062,-6.36046 6.46062,-6.71104c-0.5509,-1.65272 -1.05173,-3.30544 -1.60263,-4.95816c-3.05502,0.60099 -5.85964,0.90149 -8.41383,0.90149c-10.31696,0 -18.22998,-0.8514 -23.8392,-2.60429c2.05338,5.25864 3.05503,8.16342 3.05503,8.76441c0,1.50247 -0.80131,2.70445 -2.45403,3.70611c-1.10181,0.70115 -4.30708,2.10345 -9.66589,4.20691c-2.05338,0.80132 -5.45898,2.05338 -10.26689,3.75618c-5.20857,1.85305 -8.01318,2.75453 -8.41384,2.75453c-2.45403,0 -4.85799,-4.00659 -7.26194,-12.06985c-1.1519,-4.05667 -1.90312,-6.81119 -2.35387,-8.31366c-0.70115,-2.50412 -1.25207,-3.75617 -1.65272,-3.75617c-1.05173,0 -2.20363,0.20032 -3.45568,0.60098c-1.50246,0.5509 -2.65436,0.95156 -3.55584,1.25206c0.20033,1.40231 0.50083,3.10511 0.8514,5.00824c0.25041,1.1519 0.60098,2.8547 1.05173,5.1084c0.3005,1.30214 0.90148,3.20526 1.85305,5.80955c0.90148,2.35387 1.30214,3.60592 1.30214,3.75617c0,2.25371 -1.45239,3.75617 -4.30708,4.45732c-4.15684,0.60099 -7.56243,1.25206 -10.21679,1.90313c-5.35881,1.05173 -9.41548,1.80296 -12.17001,2.2537c-1.50247,0.25042 -3.05503,0.80131 -4.60758,1.60263c-1.30214,0.65107 -2.50412,1.00164 -3.55584,1.00164c-1.85305,0 -3.00494,-0.70115 -3.50577,-2.00329c-0.15025,-0.45074 -0.2504,-1.35222 -0.2504,-2.65436c0,-1.85305 0.50081,-5.35881 1.4023,-10.51729c0.15025,-0.70115 0.3005,-1.35223 0.40067,-2.0033c-3.4056,1.30214 -8.11334,3.15519 -14.17331,5.55915c-7.913,3.15519 -11.86952,4.70774 -11.9196,4.70774c-3.35551,0 -5.40889,-1.05173 -6.11004,-3.10511c-0.20032,-0.65107 -0.3005,-1.45239 -0.3005,-2.45404c0,-1.1519 0,-1.75288 0,-1.80296c-0.25041,-1.55256 -0.50082,-2.80461 -0.65107,-3.90642c-0.3005,0.25042 -0.55091,0.45074 -0.75123,0.65107c-2.65437,2.65437 -5.05832,4.95815 -7.16178,6.86128c-4.10675,3.65601 -6.81119,5.50906 -8.11334,5.50906c-1.7028,0 -4.55749,-2.05338 -8.514,-6.2603c-3.9565,-4.50742 -6.16012,-7.01153 -6.76111,-7.61252c-0.05008,0.05008 -0.05008,0.05008 -0.10016,0c0,0.05008 0,0.30049 0,0.80131c0,0.50083 0.40066,1.65272 1.25205,3.4056c0.85139,1.75288 1.25206,2.95486 1.25206,3.55585c0,1.20198 -0.60099,2.10346 -1.85304,2.70445c-1.90313,0.90149 -5.50906,1.35223 -10.76771,1.30214c-1.25206,0 -3.35552,0.30048 -6.41054,0.95155c-3.05502,0.65107 -4.60757,0.95157 -4.60757,0.95157c-4.65766,0 -7.51235,-2.30379 -8.51399,-7.01153c-0.20032,-0.85139 -0.45074,-2.90477 -0.75124,-6.11005c-0.25042,-2.45403 -0.65107,-4.257 -1.15189,-5.40889c-1.1519,-2.55419 -2.00329,-5.70938 -2.45403,-9.51565c-0.35057,-4.30709 -0.65107,-7.51235 -0.90149,-9.61581c-1.20197,-9.3654 -1.75289,-16.37692 -1.7028,-21.03458c0.35057,-5.55913 0.55091,-11.3186 0.55091,-17.27841c0,-0.35057 -0.20034,-0.90148 -0.65108,-1.7028c-0.45075,-0.75124 -0.70115,-1.25206 -0.70115,-1.50248c0,-3.25535 5.20857,-6.5107 15.62569,-9.71597c8.41384,-2.65437 15.77594,-4.257 22.1364,-4.85799h13.02141c3.75618,0 7.21186,0.50081 10.26689,1.55254c0.15025,-0.70115 0.2504,-1.50246 0.40065,-2.40395c0.50083,-3.30543 0.95157,-5.85964 1.25205,-7.71268c0.20032,-1.25205 1.10182,-2.35387 2.65436,-3.20527c1.85304,-1.05173 3.80625,-1.1519 5.9598,-0.30049c3.15519,0.60099 7.56243,1.10181 13.27183,1.55255c5.55915,0.40066 8.71433,0.70115 9.41548,0.8514l20.93443,0.15025c2.90478,0.45074 4.70774,1.35222 5.40889,2.70445c0.25042,0.45074 0.40067,1.55256 0.40067,3.20527c0,0.35057 -0.10017,2.05337 -0.40067,5.20856c-0.05008,0.3005 -0.05008,0.60099 -0.10016,0.90149c0.5509,-0.60099 1.25205,-0.90149 2.05337,-0.90149c0.75124,0 2.15354,0 4.10675,-0.05008c1.95322,0 4.80791,-0.05008 8.61417,-0.05008c0.10017,0.10017 0.20032,0.35058 0.20032,0.70116c0,-0.50083 1.4023,-0.75125 4.20691,-0.80133c1.60264,0 4.35717,0 8.16343,0.10017c0.8514,0 1.60264,0.25042 2.20362,0.70116c0.15024,0.10017 0.55091,0.50082 1.1519,1.20197c0.35057,0.40066 0.8514,1.20198 1.40231,2.40396c0.3005,0.65107 0.65107,1.45238 1.10181,2.50411c1.75288,3.85635 3.30543,7.1117 4.75782,9.76606c1.20198,2.30379 2.75453,5.55913 4.65765,9.76605c0.70115,1.60263 1.35223,3.00494 1.90314,4.257c1.30214,0.10017 3.1051,0.40066 5.40889,0.90149c1.40231,0.3005 3.1552,0.75123 5.15849,1.25205c0.75124,-2.85469 1.60263,-7.16177 2.5542,-12.92124c1.10181,-6.66096 1.90313,-11.01812 2.35387,-13.17165c-1.85305,0.10017 -6.05996,0.75123 -12.57067,1.90312c-6.2102,1.20198 -9.31531,1.75288 -9.36539,1.75288c-1.95321,0 -3.20528,-0.5509 -3.85635,-1.7028c-0.25041,-0.40066 -0.35059,-0.80131 -0.40067,-1.25205c-0.05008,-0.40066 -0.05008,-0.60099 -0.05008,-0.65107c0,-1.55256 0.70116,-4.70774 2.20362,-9.46557c1.60264,-4.70774 2.45403,-7.3621 2.55419,-7.96309c0.15024,-0.60099 0.50083,-1.95322 1.1519,-4.05667c0.5509,-2.00329 1.00164,-3.50577 1.20198,-4.55749c0.25041,-1.35223 0.65106,-2.45404 1.15189,-3.30543c-0.20033,-0.25041 -0.35057,-0.50083 -0.50082,-0.80132c-0.25041,-0.60099 -0.40066,-1.30213 -0.40066,-2.10345c0,-1.45239 1.30214,-2.80461 3.90642,-4.05667c2.65436,-1.30214 6.11005,-2.20362 10.36704,-2.80461c10.41712,-1.45239 20.88433,-0.50082 31.45171,2.90478c7.76276,2.10347 14.52389,4.85798 20.23327,8.26358c2.45403,1.45239 4.75782,3.05503 6.91136,4.80791c0.70115,0.25041 1.1519,0.65107 1.40231,1.20197c1.35222,1.20197 2.70445,2.50411 3.9565,3.85634c6.76112,7.26195 11.31862,13.57232 13.67248,18.98122c2.10345,4.80791 3.15518,10.81778 3.15518,18.02964c0,2.65437 -0.30048,5.25865 -0.80131,7.71268c0.60099,-0.45074 1.20197,-0.95156 1.85304,-1.45239c7.3621,-6.00988 12.17001,-9.46556 14.37364,-10.46721c1.40231,-0.65107 4.00658,-2.35387 7.76276,-5.15848c4.35717,-3.25535 7.41219,-5.40889 9.21515,-6.46062c3.35552,-2.05337 5.85963,-2.90478 7.51235,-2.5542c2.00329,0.40066 2.90478,2.60429 2.70445,6.61087c0.20033,2.15354 0.8514,7.61252 1.90313,16.32685c0.95157,-0.5509 2.15353,-1.1519 3.60593,-1.80296c1.20197,-0.5509 3.05502,-1.30214 5.60922,-2.35387c2.20362,-0.90149 3.85634,-1.7028 4.90807,-2.30379c2.30379,-1.35223 4.60757,-3.00493 6.91136,-5.00823c3.00494,-2.60429 4.50742,-4.55749 4.50742,-5.90972c0,-1.65272 -0.60099,-3.4056 -1.80296,-5.20856c-1.30214,-1.95321 -3.1051,-3.75617 -5.45897,-5.30873c-5.75947,-3.85635 -13.22174,-5.75948 -22.43689,-5.75948c-6.8112,0 -13.22174,1.75289 -19.33179,5.30873c-1.35222,0.80132 -3.20527,2.00329 -5.50906,3.65601c-1.55255,1.10181 -2.55421,1.65272 -2.95486,1.65272c-1.7028,0 -2.85469,-0.601 -3.4056,-1.85305c-0.25041,-0.5509 -0.40066,-1.30214 -0.40066,-2.25371c0.10017,-14.02305 0.30049,-24.54035 0.50083,-31.55188c0.05008,-0.95157 0.25042,-1.75288 0.5509,-2.40395c-0.75124,-0.30049 -1.35223,-0.8514 -1.75288,-1.65272c-0.40065,-0.65107 -0.55091,-1.35223 -0.55091,-2.05338c0,-1.55255 1.45239,-3.10511 4.30708,-4.65766c2.85469,-1.55255 6.61086,-2.80461 11.3186,-3.80626c11.16837,-2.40395 22.48697,-2.45403 33.95583,-0.25041c4.05667,0.05008 11.31861,1.90312 21.78582,5.60922c10.66754,3.7061 17.37857,6.81119 20.18318,9.31531c8.86458,7.76276 15.0247,14.42372 18.4303,19.98286c3.50576,5.70939 5.25865,12.06983 5.25865,19.08137M425.89826,96.75575c-8.96473,0 -15.47545,1.05173 -19.33179,3.15519c-1.7028,1.05173 -2.90477,1.80297 -3.65601,2.20363c-0.60099,0.30049 -1.20198,0.55091 -1.85305,0.70116c0.3005,0.60099 0.5509,1.4023 0.65107,2.40395c0.05008,0.85139 0.20033,2.15355 0.45074,3.95651c0.25041,1.75288 0.35058,3.05502 0.40066,3.9565c0.05008,1.65272 0.10017,4.30709 0.25041,7.96309c0.10017,3.50577 0.20033,6.26029 0.25041,8.2135v0.40066c1.7028,-1.10182 4.50742,-2.40395 8.46393,-3.80625c5.85963,-2.15354 11.26852,-3.20528 16.1766,-3.20528c14.07314,0 24.44018,3.50576 31.05104,10.51729c2.30379,2.40395 4.00659,5.05831 5.10841,8.01317c0.75124,2.05337 1.1519,3.85634 1.1519,5.30873c0,6.00988 -5.05831,11.86952 -15.07479,17.47874c-3.30543,1.90312 -6.86128,3.55584 -10.66754,5.00823c-3.1051,1.1519 -4.95814,1.75288 -5.60921,1.75288c-0.35057,0 -0.70116,0 -1.00165,-0.05008c0.05008,0.25042 0.05009,0.50081 0.10017,0.80131c1.45238,11.9196 2.20362,18.38022 2.20362,19.43195c0,2.10347 -3.80626,4.80791 -11.46886,8.16342c-4.45734,1.75288 -8.36374,3.35551 -11.76934,4.70774c0.10017,0.40066 0.15025,0.80132 0.20033,1.25206c0.40065,2.90478 0.65107,6.86128 0.85139,11.86952c2.75453,-0.70115 8.56408,-2.10346 17.42866,-4.257c8.26359,-2.05337 14.02306,-3.55584 17.27841,-4.50741c-0.80131,-2.15354 -2.00329,-6.05996 -3.60594,-11.81943c-1.60264,-5.6593 -2.40396,-8.81449 -2.40396,-9.41548c0,-1.50247 0.55091,-2.5542 1.7028,-3.05504c0.8514,-0.35057 2.60429,-0.65106 5.25865,-0.80131c4.00659,-0.25042 7.06161,-0.50082 9.16506,-0.80131c4.40724,-0.60099 8.86458,-1.60263 13.32191,-3.00494c4.35717,-1.35223 8.61416,-3.30543 12.82108,-5.80955c3.55585,-2.10346 6.16014,-4.05667 7.71268,-5.80955c3.90641,-4.35717 6.76111,-8.31366 8.46391,-11.76935c1.80296,-3.65601 2.70445,-7.46227 2.70445,-11.36869c0,-4.10675 -1.35222,-8.66424 -4.05667,-13.67248c-2.60429,-4.85799 -6.11006,-9.51564 -10.5173,-13.97298c-7.26193,-7.26194 -18.33014,-12.67083 -33.20459,-16.32684c-10.41712,-2.5542 -20.08302,-3.80626 -28.94759,-3.80626M353.87986,118.79198c-1.65272,-0.95157 -3.45569,-1.85305 -5.30873,-2.70444c-11.0682,-5.20856 -22.78746,-7.81284 -35.10773,-7.81284c-5.00824,0 -9.0649,0.65107 -12.11992,1.90312c-1.35222,0.65107 -2.30379,1.05174 -2.85469,1.30214c-0.05008,0 -0.10016,0.05008 -0.15024,0.05008c-0.10017,1.7028 -0.95157,5.90972 -2.55421,12.67083c-1.75288,7.31203 -2.60429,10.96803 -2.60429,11.01811v0.25042c2.65436,-0.50083 6.66095,-1.1519 12.17001,-1.95321c5.85964,-0.85139 9.46558,-1.30214 10.71762,-1.30214c1.55255,0 2.65437,0.65108 3.25535,1.90313c0.35057,0.65107 0.50083,1.35222 0.50083,2.05337c0,1.40231 -0.55091,4.90807 -1.60264,10.51729c-1.00164,5.30873 -1.7028,8.514 -2.05338,9.56573c-0.50083,1.55256 -0.90149,3.55585 -1.1519,6.11005c-0.15024,1.40231 -0.3005,3.40559 -0.5509,6.00988c-0.25041,2.05337 -0.75123,3.60593 -1.4023,4.5575c-0.8514,1.20198 -2.10347,1.80297 -3.75619,1.80297c-0.8514,0 -2.75453,-0.40067 -5.75947,-1.1519c-1.65272,-0.45074 -2.95485,-0.75124 -3.90642,-0.95156c1.90312,4.15683 4.35715,9.9163 7.31203,17.27841c0.5509,0.05008 1.05172,0.20033 1.55255,0.40066c0.45074,0.20032 1.1519,0.50083 2.0033,1.00165c1.90312,1.00164 4.50741,1.50247 7.81284,1.55256c0.60099,0 2.65436,0.30048 6.16013,0.90147c3.50576,0.60099 6.91136,0.90149 10.11663,0.90149c2.20362,0 4.35716,-0.10017 6.41054,-0.30049c0,-0.10017 1.70281,-0.50083 5.10841,-1.10181c0.05008,0.10017 0.10017,0.20032 0.15024,0.30049c1.40231,-0.3005 2.80461,-0.65107 4.15683,-1.05173c0.10017,-0.05008 0.15025,-0.05008 0.25042,-0.05008c5.00824,-0.85139 6.61086,-1.45239 4.90807,-1.80297c4.257,-1.85305 8.21351,-4.30709 11.81944,-7.36211c3.9565,-3.4056 7.01153,-7.21185 9.21515,-11.41877c2.20362,-4.20691 3.30543,-8.41384 3.30543,-12.67084c0,-5.50905 -0.70116,-10.01647 -2.20362,-13.52223c-1.35222,-3.25535 -4.5575,-8.36375 -9.66589,-15.37528c-0.40065,-0.50083 -0.75124,-0.95157 -1.1519,-1.45239v22.78747c0.25041,1.60263 0.45074,3.65601 0.70115,6.16012c0.05008,0.5509 0.10017,1.00165 0.15025,1.45239c0.25041,0.25042 0.45074,0.55091 0.65107,0.95156c0.3005,0.65107 0.50083,1.35223 0.50083,2.05338c0,0.80132 -0.3005,1.65272 -0.90149,2.5542c0.05008,0.90149 0.00001,1.65272 -0.10016,2.2537c-0.40065,2.15354 -1.65272,3.25536 -3.80627,3.25536c-0.70115,0 -1.30214,-0.15025 -1.80296,-0.45075c0,0 0,0.05008 -0.05008,0.05008c-5.00824,2.95486 -10.81779,4.40724 -17.42865,4.40724c-7.41219,0 -12.42042,-0.65107 -15.02471,-2.00329c-1.50246,-0.75124 -2.25371,-1.95321 -2.25371,-3.55584c0,-3.30543 0.40066,-8.31367 1.25205,-14.97463c0.50083,-3.80625 0.90149,-6.61086 1.30214,-8.41383c-0.80133,-2.20362 -2.30378,-5.50906 -4.40724,-9.96639c-2.25371,-4.75782 -3.4056,-7.26193 -3.4056,-7.51235c0,-1.90313 2.70443,-3.55585 8.16341,-4.95816c4.257,-1.10182 9.06491,-1.85305 14.4738,-2.25371c1.65272,-0.15025 4.65766,-0.75123 8.96474,-1.90313M347.11874,127.65656c-5.90972,0.95156 -10.61746,1.60263 -14.17331,2.10345c0.35057,0.95156 1.10181,3.55585 2.30379,7.81285c0.90148,3.25535 1.80296,5.90972 2.60428,7.96309c0.70115,1.7028 1.75287,4.5575 3.15518,8.46392c1.60264,4.30709 2.35387,6.71104 2.35387,7.1117c0,0.90149 -0.20033,1.75288 -0.70115,2.45403c-0.25041,0.40066 -0.5509,0.70115 -0.90149,0.90149v0.05008c0,0.05008 -0.05008,0.10016 -0.05008,0.20032c0.10017,0.15025 0.20033,0.3005 0.3005,0.45075c0.35057,0.60099 0.65107,1.10181 0.8514,1.50247c0.60099,0.05008 1.05172,0.05008 1.4023,0.05008c5.60922,0 10.41712,-1.4023 14.42372,-4.20691c0,0 0.30048,-0.25042 0.80131,-0.65107c0,-1.00164 0,-2.25371 0,-3.80625c0,-2.0033 -0.05008,-3.30544 -0.20033,-3.90642v-28.44677c-4.90807,0.80132 -8.96473,1.45239 -12.17,1.95322M380.37341,180.79392c-3.45569,4.55749 -8.2135,8.61416 -14.22338,12.17001c-5.15848,3.00494 -10.86786,5.35882 -17.07808,7.06162c1.10182,2.75453 2.15355,5.45898 3.05503,8.2135c0,0.45074 -3.4056,4.30708 -10.2168,11.46886c-7.76276,8.2135 -12.72092,13.77264 -14.92454,16.7275c6.56079,2.50412 13.22174,5.25865 19.93277,8.36375c3.85634,1.75288 9.51565,4.45732 16.97791,8.01317l0.40066,-0.15024v-27.74562c0.20033,-0.65107 0.25041,-1.60264 0.15024,-2.80462c-0.15024,-1.90312 -0.20033,-2.90477 -0.20033,-3.00494c0,-2.35387 1.1519,-3.85635 3.55585,-4.5575c2.55421,-0.75124 5.90972,-2.00329 10.16672,-3.80625c2.50412,-1.05173 6.26029,-2.70444 11.41877,-4.95815c5.80955,-2.70444 10.96803,-5.1084 15.47544,-7.16177c0.50083,-1.00164 1.30215,-1.50248 2.30379,-1.50248c0.25041,0 0.45074,0 0.70115,0.05008c12.771,-5.85964 19.13146,-8.86458 19.13146,-8.91466c0,-1.00164 -0.60099,-6.31037 -1.85304,-15.92619c-0.95157,-7.41218 -1.85304,-14.1733 -2.70445,-20.33343l-0.15024,-0.75123c-2.45403,1.7028 -10.66754,7.61251 -24.59044,17.72914c-10.86786,7.86293 -16.57725,11.81944 -17.12816,11.81944c-0.05008,0 -0.15026,0 -0.20033,0M250.71023,139.52606c-0.05008,0.65107 -0.10017,1.20198 0,1.7028c-0.10017,1.65272 -0.05008,4.05667 0.15024,7.26193c0.10017,1.60263 0.25042,3.30543 0.35058,5.1084c0,0.90149 -0.05008,1.50248 -0.20033,1.90313c-0.25042,0.65107 -0.75124,1.20198 -1.50248,1.60264c-0.05008,0.05008 -0.10016,0.05008 -0.20032,0.10016c-0.05008,0.25042 -0.10017,0.55091 -0.15025,0.80131c-0.5509,3.45569 -1.1519,6.71103 -1.85305,9.76605c-0.45074,2.20362 -0.95156,4.15683 -1.45238,5.80955l0.05008,0.95157c0,0.70115 0,1.35222 0,1.95321c1.65272,-0.50083 3.15519,-0.85139 4.45734,-1.05173c3.65601,-0.50083 5.35881,0.45074 5.20856,2.90477c0.65107,2.85469 1.70279,7.46227 3.1051,13.77264c0.15024,0.65107 0.25042,1.25206 0.40067,1.80296c1.05173,-0.45074 2.45403,-0.75125 4.15683,-0.95157c1.90312,-0.20032 4.20691,-0.75123 6.86127,-1.75287c2.45403,-0.95156 3.95651,-1.40231 4.40726,-1.40231c2.50412,0 4.75782,3.30544 6.76112,9.86622c0.50083,1.65272 1.20198,4.30708 2.10346,7.96309c0.75124,3.05502 1.30214,5.1084 1.65271,6.05997c1.55255,-0.40066 4.257,-1.25205 8.16343,-2.60428c4.30708,-1.50247 8.01317,-2.85469 11.11828,-4.15683c-2.40395,-7.51235 -4.257,-13.17166 -5.60922,-17.07808c-2.40395,-6.81121 -4.90807,-12.62075 -7.56243,-17.47873c-0.90148,-1.65272 -2.20362,-4.55749 -3.9565,-8.71433c-1.7028,-3.9565 -3.05503,-6.81119 -4.05667,-8.56407c-0.65107,-1.1519 -2.20362,-4.05668 -4.65766,-8.66425c-0.8514,-1.55256 -1.4023,-3.00494 -1.65272,-4.30709c-0.15024,-0.70115 -0.35058,-1.05173 -0.60098,-1.05173c-2.45403,0.75124 -6.91136,1.1519 -13.32191,1.1519c-5.80955,0 -9.6158,-0.65107 -11.46885,-2.0033c-0.3005,-0.20032 -0.50083,-0.45074 -0.70115,-0.70115M243.59854,130.31092l-19.18153,0.05008c-1.75288,-0.35057 -5.00823,-0.70115 -9.76605,-1.1519c-5.90972,-0.50083 -10.36704,-0.90149 -13.42207,-1.20197c-0.45074,0.95156 -0.70115,3.60593 -0.85139,8.01318c-0.10016,0.90149 -0.3005,1.65272 -0.55091,2.30379c1.45238,1.30214 2.80461,2.75453 4.00658,4.40724c1.80296,2.50412 3.20526,5.30873 4.15684,8.46392c0.75124,2.50412 1.1519,4.8079 1.1519,6.81119c0,5.40889 -1.45239,10.36705 -4.40725,14.77429c-1.60263,2.40395 -3.55584,4.50741 -5.90972,6.31037c0.3005,0.65107 0.65107,1.50247 1.00164,2.50412c0,0.35057 0.25041,2.05338 0.75124,5.05832c0.50083,3.00494 0.75123,4.75781 0.75123,5.25865c0,0.35057 -0.05008,0.65107 -0.10016,0.95157h0.05008c6.86129,3.60593 10.31696,6.41054 10.31696,8.31366c0,1.90312 -1.60263,4.20692 -4.8079,6.91137c-0.70115,0.5509 -1.40231,1.05173 -2.0033,1.50248c0.05008,0.10017 0.05008,0.25041 0.10016,0.35057c1.30214,4.257 2.00329,6.51071 2.15354,6.76111c5.80955,-2.90478 13.67247,-6.11005 23.48862,-9.66589c9.6659,-3.55584 16.52717,-6.36046 20.68401,-8.41384c-0.50083,-3.80625 -1.45238,-8.61417 -2.90478,-14.52388c-0.50083,0.15025 -4.70774,2.30379 -12.57067,6.36046c-7.76276,4.00659 -11.66919,6.00988 -11.71927,6.00988c-1.65272,0 -2.85469,-0.65107 -3.50576,-1.90312l-0.50083,-1.90312c0,-1.20198 1.90313,-3.10511 5.65931,-5.75948c1.95322,-1.35223 4.10675,-2.70444 6.36046,-4.00659c-0.25042,-0.75124 -0.50082,-1.55255 -0.75124,-2.50412c-0.35057,-1.45239 -0.70115,-3.35552 -1.00165,-5.7094c-0.35057,-2.60429 -0.60098,-4.15684 -0.70115,-4.70774c-1.55256,0.40066 -4.15684,1.85306 -7.91302,4.30709c-3.50577,2.30379 -5.50906,3.45568 -6.11005,3.45568c-2.65437,0 -4.10675,-1.25205 -4.30709,-3.75617c-0.10016,-0.80132 -0.05008,-1.7028 0.15025,-2.80461c0.20032,-1.00164 0.3005,-1.55256 0.3005,-1.75289c0,-1.00164 -0.10016,-2.55419 -0.25041,-4.65766c-0.15025,-2.10346 -0.25042,-3.30543 -0.25042,-3.60593c0,-2.20362 0.15025,-3.65601 0.45074,-4.30708c0.50083,-1.00164 1.65272,-1.75289 3.45569,-2.30379c1.65272,-0.50083 4.8079,-1.10181 9.46556,-1.7028c3.00494,-0.35057 9.16506,-1.15189 18.53046,-2.30378c0,-3.50576 0.05008,-6.16013 0.10016,-7.91301c0.05008,-2.95486 0.20034,-5.55913 0.40067,-7.913v-4.40724M195.92015,145.58603c-5.75947,-5.75947 -14.62405,-7.6626 -26.54364,-5.80955c-9.16506,2.0033 -15.0247,3.30544 -17.52882,3.95651c-9.86622,2.55419 -14.77429,4.70774 -14.77429,6.46062c0,5.05831 0.25042,10.61746 0.75125,16.72751c0.25042,3.65601 0.75123,9.46556 1.50247,17.47874c0.35057,4.55749 1.30214,10.16671 2.8547,16.92783c2.50412,10.91795 3.80625,16.67743 3.90642,17.27841c0.10017,0 0,0.05008 -0.25042,0.15024c-0.15025,0.10017 0.05008,0.15025 0.55091,0.15025c0.75124,0 3.1051,-0.30049 7.01153,-0.90148c4.25699,-0.70115 7.06161,-1.05173 8.36375,-1.1519c-1.45239,-3.4056 -2.80461,-6.76111 -4.15683,-10.01647c-2.70444,-6.46062 -4.00659,-10.41712 -4.00659,-11.76935c0,-2.75453 1.25206,-4.15684 3.65601,-4.15684c0.95156,0 4.85799,3.60593 11.66919,10.86787c8.76441,9.31532 13.72257,14.52387 14.97463,15.67576c2.45403,-2.50412 5.20857,-5.15847 8.26359,-7.96308c3.25535,-2.90478 6.21021,-5.45898 8.86458,-7.56243c-2.40395,-1.55256 -5.50906,-3.20527 -9.3654,-4.95815c-4.35717,-1.95321 -7.51235,-3.35552 -9.46557,-4.257c-3.35551,-1.55256 -5.75947,-2.85468 -7.31202,-4.00659c-1.90313,-1.40231 -2.90478,-2.85469 -2.90478,-4.257c0,-1.40231 2.75453,-3.30544 8.31366,-5.75947c1.60263,-0.70115 4.05667,-1.75288 7.51236,-3.20528c2.95486,-1.30214 5.35881,-2.45403 7.11169,-3.50576c1.45238,-0.85139 2.90478,-3.00493 4.45732,-6.46062c1.40231,-3.25535 2.15355,-5.75948 2.15355,-7.51236c0,-1.55256 -0.35057,-3.30543 -1.10181,-5.30873c-1.00164,-2.70444 -2.50412,-5.1084 -4.50742,-7.11169M218.70762,164.51715c0.15025,0.95156 0.25041,1.7028 0.15024,2.25371v0.25041c0.35057,-0.10017 2.20362,-1.25206 5.60923,-3.45568c3.50576,-2.15354 5.85963,-3.20527 7.06161,-3.20527c2.15354,0 3.50576,0.80132 4.00659,2.40395c0.10017,0.25042 0.15024,1.20198 0.15024,2.80461c0,1.1519 0.65108,4.60758 1.85306,10.46721c0.20032,1.20198 0.45074,2.40395 0.70115,3.55585c0.15025,-0.05008 0.25041,-0.10017 0.35057,-0.15025c-0.25042,-1.25205 -0.40066,-1.95321 -0.40066,-2.0033c0,-1.00164 0.3005,-2.75453 0.95157,-5.25865c0.15025,-0.45074 0.25041,-0.95156 0.35057,-1.45238c0.75124,-3.05502 1.30214,-5.35881 1.60264,-6.81121c0.50083,-2.30379 1.05173,-4.10675 1.6527,-5.30873c-1.65272,0.15025 -3.50576,0.25041 -5.6593,0.30049c-3.30543,0.05008 -6.96144,0.35058 -10.91794,0.90149c-5.15848,0.75124 -7.71268,1.60263 -7.71268,2.65436c0,0.35057 0.10016,1.05173 0.25041,2.05337M194.3676,181.6954c-2.60429,1.35223 -5.50906,2.50412 -8.71433,3.35551l-0.90148,0.25042c3.60592,1.40231 7.01152,2.85469 10.16671,4.30709c0,-0.45074 0,-1.00165 0,-1.55256c-0.05008,-0.80132 -0.15025,-2.20363 -0.35057,-4.15684c-0.10016,-0.90149 -0.15025,-1.65271 -0.20032,-2.20361M334.64823,160.51057c-0.05008,2.30379 -0.15024,4.15684 -0.30049,5.50906c0.25041,0.05008 0.8514,0.15024 1.80296,0.20032c-1.05173,-2.75453 -1.55256,-4.15683 -1.55256,-4.20691c0,-0.50083 0,-0.90149 0.05008,-1.30214c0,-0.10017 0,-0.15024 0,-0.20032M243.94912,210.29242c-1.95321,0.65107 -3.65601,1.25205 -5.15848,1.75288c-0.10017,0.95156 -0.20033,2.20362 -0.35058,3.75617c-0.35057,3.4056 -0.50083,5.30873 -0.50083,5.70939c0,0.50083 0.05008,0.75123 0.05008,0.75123c0,0 0.10017,0 0.20033,-0.05008c3.75618,-0.50083 7.71268,-1.20198 11.86952,-2.10346c4.90807,-1.00164 8.26359,-1.9532 10.06655,-2.75453c-1.1519,-5.30873 -2.00329,-9.61581 -2.60427,-12.82109c-3.05502,1.00164 -5.55915,2.0033 -7.41219,3.05503c-1.65272,0.95156 -3.70609,1.85305 -6.16012,2.70444M163.21638,152.34715c6.2603,0 10.41713,1.35223 12.52059,4.10675c1.00164,1.25205 1.50247,3.15519 1.50247,5.70939c0,2.10347 -0.3005,3.65601 -0.8514,4.70774c-0.95156,1.7028 -2.85469,2.90477 -5.6593,3.60592c-1.55256,0.35057 -4.50742,1.20198 -8.91466,2.50412c-3.9565,1.1519 -6.00988,1.75289 -6.16013,1.75289c-2.40395,0 -3.90642,-1.25206 -4.50741,-3.75618c-0.20032,-0.80132 -0.3005,-1.70281 -0.3005,-2.70445c0.05008,-0.90149 0.05008,-1.35222 0.05008,-1.45238c0,-0.75124 -0.45074,-1.90313 -1.4023,-3.4056c-0.95156,-1.50247 -1.45239,-2.65436 -1.45239,-3.4056c0,-1.85305 1.45239,-3.30544 4.35717,-4.257c0.3005,-0.10017 1.90313,-0.60099 4.8079,-1.4023c2.30379,-0.65107 4.30708,-1.30214 6.00988,-2.0033M168.47503,159.75934h-4.65766c-3.05502,0.95156 -4.70774,1.45238 -4.95816,1.55255c-2.10345,0.80132 -3.15519,1.45238 -3.15519,1.95321c0,0.40066 0.15025,1.00165 0.35057,1.75288c0.25042,0.85139 0.35057,1.50246 0.40066,2.00329v0.20033c0.05008,0.15025 0.15025,0.25041 0.25042,0.30049c2.15355,-0.40066 4.45732,-0.95157 7.01153,-1.75288c4.35717,-1.35223 6.51071,-2.60427 6.51071,-3.75617c0,-0.25042 -0.10016,-0.60099 -0.30049,-0.95157c-0.35057,-0.5509 -0.80132,-1.00163 -1.45239,-1.30214M255.9188,176.73725c0.05008,-0.35057 0.10016,-0.55091 0.10016,-0.50082c0,-1.20198 0.5509,-2.95486 1.65272,-5.25865c1.25205,-2.50412 2.10346,-4.25699 2.45403,-5.25864c0.50083,-1.40231 0.95156,-3.05502 1.40231,-5.00824c0.10017,-0.3005 0.45075,-2.0033 1.10182,-5.15848c0.35057,-1.65272 1.35222,-1.90312 3.00494,-0.70115c1.40231,1.00164 3.15519,2.90477 5.15848,5.70938c1.80296,2.45403 3.4056,5.00823 4.85798,7.6626c1.4524,2.65437 2.15354,4.35717 2.15354,5.20856c0,2.95486 -1.15188,4.40724 -3.4056,4.40724c-1.65272,0 -4.05667,0.25041 -7.21186,0.80131c-3.1051,0.5509 -5.45898,0.80132 -7.06161,0.80132c-2.15353,0 -3.50575,-0.50082 -4.00658,-1.55255c-0.15025,-0.35057 -0.25042,-0.75125 -0.20033,-1.1519M264.88353,164.61732c-1.25205,3.85635 -1.90312,6.41054 -1.90312,7.71268c0,0.80132 0.05008,0.90148 0.15024,0.30049c0.3005,-0.05008 1.10181,-0.20032 2.45403,-0.45074c1.05173,-0.20032 2.10345,-0.35058 3.05502,-0.45074l0.10017,-0.10017c0.05008,-0.05008 0.20033,-0.15025 0.40065,-0.25041c-0.60099,-1.20198 -1.30214,-2.40396 -2.05337,-3.65601c-0.95157,-1.55256 -1.65273,-2.60428 -2.20363,-3.1051z" fill="#000000" stroke="none" stroke-width="1"/></g></g></svg>