<svg version="1.1" xmlns="http://www.w3.org/2000/svg" xmlns:xlink="http://www.w3.org/1999/xlink" width="64.1594" height="64.1594" viewBox="0,0,64.1594,64.1594"><g transform="translate(-290.97127,-4.29534)"><g stroke-miterlimit="10"><path d="M293.47127,36.37504c0,-16.33641 13.24328,-29.5797 29.5797,-29.5797c16.33641,0 29.5797,13.24328 29.5797,29.5797c0,16.33641 -13.24328,29.5797 -29.5797,29.5797c-16.33641,0 -29.5797,-13.24328 -29.5797,-29.5797z" fill="#000000" stroke-opacity="0.58039" stroke="#e65ab5" stroke-width="5"/><path d="M296.88605,36.37504c0,-14.45048 11.71443,-26.1649 26.1649,-26.1649c14.45048,0 26.1649,11.71443 26.1649,26.1649c0,14.45048 -11.71443,26.1649 -26.1649,26.1649c-14.45048,0 -26.1649,-11.71443 -26.1649,-26.1649z" fill="#404040" stroke="#000000" stroke-width="0"/><path d="M323.05096,62.53994c-13.21644,0 -24.14419,-9.7991 -25.9142,-22.52826c0.03368,0.01465 0.0671,0.02915 0.10024,0.0435c4.40448,1.90743 16.53087,7.15527 28.26809,6.26986c11.69051,-0.88189 22.99943,-7.89266 23.65304,-8.19795c-0.90138,13.63355 -12.24545,24.41285 -26.10717,24.41285z" fill="#1a1a1a" stroke="#000000" stroke-width="0"/><g><path d="M296.73572,62.69028v-52.3298h52.3298v52.3298z" fill="none" stroke="none" stroke-width="0"/><path d="M301.26616,33.95591c0.03394,-1.00062 1.82576,-5.00075 5.53534,-8.33435c0.97488,-0.87607 1.92708,-1.93117 3.02473,-2.78704c5.96664,-4.65232 13.35137,-8.40751 14.17461,-8.43521c0.22953,-0.00772 1.61026,-0.30468 2.6277,0.84195c2.29922,2.59115 5.80557,8.2017 6.13662,9.14515c0.03697,0.10536 -0.3456,0.91733 -1.24502,1.7876c-1.0835,1.0484 -2.79511,2.11 -2.80678,2.19423c-0.07086,0.51173 12.74269,-0.44163 12.88007,0.30273c0.0139,0.07532 1.37999,0.63463 1.9754,2.08686c0.27857,0.67944 0.75735,1.47421 0.93019,2.52817c0.36794,2.24379 0.14266,6.83091 -0.25341,8.73063c-0.1642,0.78756 -1.89342,1.46767 -2.56696,1.79568c-0.76293,0.37154 -12.69342,-0.1022 -13.95574,0.20546c-0.19781,0.04821 3.8983,2.62038 5.40685,4.46729c0.41904,0.51303 0.67894,1.46287 0.62863,1.72392c-0.45774,2.37507 -9.10103,8.58501 -10.29318,8.48129c-1.40173,-0.12195 -9.97355,-6.84655 -15.96117,-12.25068c-1.50343,-1.35692 -3.09722,-3.29173 -4.19443,-5.00163c-0.94281,-1.46929 -1.60937,-2.71225 -1.7826,-3.11593c-0.71965,-1.67698 -0.28005,-3.79996 -0.26085,-4.36614zM323.74068,56.43213c0.43351,0 7.31036,-5.72913 7.38668,-6.13241c0.0841,-0.44436 -3.70275,-2.52055 -6.58797,-5.74402c-0.39519,-0.44152 -1.80915,-2.02388 -1.22687,-2.75026c0.65509,-0.81722 3.50206,-0.36981 4.32638,-0.46402c0.7333,-0.08381 7.72202,0.6142 11.47085,0.50535c1.15721,-0.03361 2.26415,-0.25484 2.45338,-0.4584c0.22587,-0.24296 0.65047,-3.8867 0.39457,-6.7028c-0.31306,-3.44514 -1.78683,-3.47501 -1.89442,-4.0785c-0.0637,-0.35726 -16.30377,-0.27906 -16.60544,-0.44412c-0.43574,-0.23841 -0.18097,-1.22335 0.08737,-1.48016c0.67429,-0.6453 2.75519,-2.07885 4.33677,-3.01994c1.58956,-0.94584 2.67812,-1.39834 2.67401,-1.68844c-0.01821,-1.28555 -5.50909,-7.45467 -5.95829,-7.45467c-0.33655,0 -5.99113,3.17429 -11.50845,7.14659c-2.97494,2.14187 -6.10216,4.29839 -7.94232,6.68846c-1.31931,1.71357 -1.84259,4.17543 -1.81135,5.26412c0.02086,0.72659 0.33146,2.76899 1.23127,4.30164c1.81309,3.08824 18.11941,16.51156 19.17383,16.51156z" fill="#e65ab5" stroke-opacity="0.74902" stroke="#e65ab5" stroke-width="10"/><path d="M323.95639,56.49581c-1.05442,0 -17.37553,-13.43493 -19.18861,-16.52316c-0.89981,-1.53265 -1.21065,-3.57835 -1.23151,-4.30494c-0.03125,-1.08869 0.49282,-3.55462 1.81213,-5.26819c1.84016,-2.39007 4.9723,-4.55333 7.94725,-6.69519c5.51732,-3.9723 11.18183,-7.14938 11.51838,-7.14938c0.4492,0 5.94636,6.26649 5.96457,7.55204c0.0082,0.57873 -6.94936,4.13243 -7.06755,4.78225c-0.06646,0.36544 -0.61678,1.37038 0.13055,1.47564c0.34052,0.04797 16.38648,-0.07023 16.45017,0.28703c0.1076,0.60349 1.58205,0.63661 1.89511,4.08176c0.25591,2.8161 -0.1691,6.46475 -0.39497,6.70772c-0.18924,0.20356 -1.29642,0.42565 -2.45363,0.45925c-3.74883,0.10884 -10.74094,-0.5836 -11.47424,-0.49979c-0.82431,0.09421 -3.67981,-0.34903 -4.3349,0.46819c-0.58228,0.72639 0.9694,2.23308 1.36459,2.67461c2.88522,3.22347 6.54012,5.37332 6.45603,5.81768c-0.07632,0.40328 -6.95986,6.13447 -7.39337,6.13447z" fill="#c24b99" stroke="none" stroke-width="0"/><path d="M323.5084,56.5569c-1.05442,0 -17.37553,-13.43493 -19.18861,-16.52316c-0.89981,-1.53265 -1.21065,-3.57835 -1.23151,-4.30494c-0.03125,-1.08869 0.49282,-3.55462 1.81213,-5.26819c1.84016,-2.39007 4.9723,-4.55333 7.94725,-6.69519c5.51732,-3.9723 11.18183,-7.14938 11.51838,-7.14938c0.18692,0 1.24795,1.0851 2.42455,2.44487c-0.96444,0.44314 -1.88244,0.95336 -2.86052,1.45693c-0.3026,0.1558 -9.2724,6.6642 -9.26305,14.38188c0.01065,8.78978 9.14675,18.95923 11.42864,19.76002c-1.31156,1.05837 -2.42139,1.89716 -2.58723,1.89716z" fill="#e65ab5" stroke="none" stroke-width="0"/><path d="M340.05736,31.02038c0.1076,0.60349 1.58205,0.63661 1.89511,4.08176c0.25591,2.8161 -0.1691,6.46475 -0.39497,6.70772c-0.18924,0.20356 -1.29642,0.42565 -2.45363,0.45925c-1.58877,0.04613 -3.76008,-0.05166 -5.79062,-0.17329c0.00398,-0.35824 2.38077,-2.94876 2.38724,-5.58055c0.00659,-2.6837 -2.35703,-5.40926 -2.34175,-5.74522c3.52984,0.02762 6.67051,0.09268 6.69862,0.25034z" fill="#a84284" stroke="none" stroke-width="0"/><path d="M302.36634,35.87739c0,-4.88974 4.16401,-8.74189 8.72566,-12.13764c6.23414,-4.64078 13.39687,-7.99538 13.39687,-7.99538l7.36637,8.12383l-7.12096,5.12576l17.13293,1.27204l0.46343,11.7348l-17.19786,0.53961l7.8045,7.73636l-9.01976,7.1518c0,0 -11.20128,-7.59436 -17.38899,-14.2553c-2.74869,-2.9589 -4.1622,-5.29006 -4.1622,-7.29589zM323.79848,55.46061c0.29026,0 7.09102,-6.06643 7.09102,-6.06643c0,0 -7.61475,-6.02505 -7.61475,-7.31251c0,-0.04525 -0.59346,-0.79863 0.59189,-1.07263c1.02197,-0.23624 5.83166,0.14443 7.89226,0.18286c5.11651,0.09541 8.7777,0.29412 8.75113,-0.11068c-0.0034,-0.05189 0.24162,-0.73904 0.33826,-1.83275c0.16957,-1.91895 0.02701,-4.71868 -0.28567,-5.55678c-0.18375,-0.49251 -0.33789,-2.04048 -0.55556,-2.35707c-0.22314,-0.32454 -2.07402,-0.29912 -4.8662,-0.36746c-3.42045,-0.08371 -8.5448,-0.10396 -10.89151,-0.42406c-0.8074,-0.11013 -0.95019,-0.3397 -1.03867,-0.50532c-0.33867,-0.63396 2.28199,-1.81524 4.18461,-3.20432c1.5698,-1.14608 2.83754,-2.34718 2.83754,-2.34718c0,0 -5.50945,-7.00291 -5.86303,-6.97235c-0.79515,0.06873 -12.92084,7.23434 -18.46664,12.86872c-0.32362,0.32879 -1.67505,2.48249 -1.48386,5.72321c0.16821,2.85111 1.84538,5.32493 2.49147,5.94203c4.73449,4.52196 16.44297,13.41272 16.88768,13.41272z" fill="#ffffff" stroke="none" stroke-width="0"/><path d="M301.26616,33.95591c0.03394,-1.00062 1.82576,-5.00075 5.53534,-8.33435c0.97488,-0.87607 1.92708,-1.93117 3.02473,-2.78704c5.96664,-4.65232 13.35137,-8.40751 14.17461,-8.43521c0.22953,-0.00772 1.61026,-0.30468 2.6277,0.84195c2.29922,2.59115 5.80557,8.2017 6.13662,9.14515c0.03697,0.10536 -0.3456,0.91733 -1.24502,1.7876c-1.0835,1.0484 -2.79511,2.11 -2.80678,2.19423c-0.07086,0.51173 12.74269,-0.44163 12.88007,0.30273c0.0139,0.07532 1.37999,0.63463 1.9754,2.08686c0.27857,0.67944 0.75735,1.47421 0.93019,2.52817c0.36794,2.24379 0.14266,6.83091 -0.25341,8.73063c-0.1642,0.78756 -1.89342,1.46767 -2.56696,1.79568c-0.76293,0.37154 -12.69342,-0.1022 -13.95574,0.20546c-0.19781,0.04821 3.8983,2.62038 5.40685,4.46729c0.41904,0.51303 0.67894,1.46287 0.62863,1.72392c-0.45774,2.37507 -9.10103,8.58501 -10.29318,8.48129c-1.40173,-0.12195 -9.97355,-6.84655 -15.96117,-12.25068c-1.50343,-1.35692 -3.09722,-3.29173 -4.19443,-5.00163c-0.94281,-1.46929 -1.60937,-2.71225 -1.7826,-3.11593c-0.71965,-1.67698 -0.28005,-3.79996 -0.26085,-4.36614zM323.74068,56.43212c0.43351,0 7.31036,-5.72913 7.38668,-6.13241c0.0841,-0.44436 -3.70275,-2.52055 -6.58797,-5.74402c-0.39519,-0.44152 -1.80915,-2.02388 -1.22687,-2.75026c0.65509,-0.81722 3.50206,-0.36981 4.32638,-0.46402c0.7333,-0.08381 7.72202,0.6142 11.47085,0.50535c1.15721,-0.03361 2.26415,-0.25484 2.45338,-0.4584c0.22587,-0.24296 0.65047,-3.8867 0.39457,-6.7028c-0.31306,-3.44514 -1.78683,-3.47501 -1.89442,-4.0785c-0.0637,-0.35726 -16.30377,-0.27906 -16.60544,-0.44412c-0.43574,-0.23841 -0.18097,-1.22335 0.08737,-1.48016c0.67429,-0.6453 2.75519,-2.07885 4.33677,-3.01994c1.58956,-0.94584 2.67812,-1.39834 2.67401,-1.68844c-0.01821,-1.28555 -5.50909,-7.45467 -5.95829,-7.45467c-0.33655,0 -5.99113,3.17429 -11.50845,7.14659c-2.97494,2.14187 -6.10216,4.29839 -7.94232,6.68846c-1.31931,1.71357 -1.84259,4.17543 -1.81135,5.26412c0.02086,0.72659 0.33146,2.76899 1.23127,4.30164c1.81309,3.08824 18.11941,16.51156 19.17383,16.51156z" fill="#3c1f56" stroke="none" stroke-width="0"/></g></g></g></svg>