<svg version="1.1" xmlns="http://www.w3.org/2000/svg" xmlns:xlink="http://www.w3.org/1999/xlink" width="273.88649" height="141.92113" viewBox="0,0,273.88649,141.92113"><defs><linearGradient x1="320.00005" y1="240.98256" x2="320.00005" y2="275.95977" gradientUnits="userSpaceOnUse" id="color-1"><stop offset="0" stop-color="#ffffff"/><stop offset="1" stop-color="#c7c7c7"/></linearGradient><linearGradient x1="398.38767" y1="232.78796" x2="398.38767" y2="248.56291" gradientUnits="userSpaceOnUse" id="color-2"><stop offset="0" stop-color="#dbf0ff"/><stop offset="1" stop-color="#ffffff"/></linearGradient><linearGradient x1="294.78954" y1="232.74757" x2="294.78954" y2="243.085" gradientUnits="userSpaceOnUse" id="color-3"><stop offset="0" stop-color="#dbf0ff"/><stop offset="1" stop-color="#ffffff"/></linearGradient><linearGradient x1="369.15329" y1="235.65578" x2="369.15329" y2="246.80728" gradientUnits="userSpaceOnUse" id="color-4"><stop offset="0" stop-color="#dbf0ff"/><stop offset="1" stop-color="#ffffff"/></linearGradient><linearGradient x1="319.52333" y1="235.1769" x2="319.52333" y2="243.92274" gradientUnits="userSpaceOnUse" id="color-5"><stop offset="0" stop-color="#dbf0ff"/><stop offset="1" stop-color="#ffffff"/></linearGradient><linearGradient x1="339.11566" y1="238.81538" x2="339.11566" y2="245.59512" gradientUnits="userSpaceOnUse" id="color-6"><stop offset="0" stop-color="#dbf0ff"/><stop offset="1" stop-color="#ffffff"/></linearGradient><linearGradient x1="238.35621" y1="237.19583" x2="238.35621" y2="243.04712" gradientUnits="userSpaceOnUse" id="color-7"><stop offset="0" stop-color="#dbf0ff"/><stop offset="1" stop-color="#ffffff"/></linearGradient><linearGradient x1="256.13848" y1="237.26354" x2="256.13848" y2="243.4303" gradientUnits="userSpaceOnUse" id="color-8"><stop offset="0" stop-color="#dbf0ff"/><stop offset="1" stop-color="#ffffff"/></linearGradient><linearGradient x1="355.28856" y1="238.03071" x2="355.28856" y2="246.0283" gradientUnits="userSpaceOnUse" id="color-9"><stop offset="0" stop-color="#dbf0ff"/><stop offset="1" stop-color="#ffffff"/></linearGradient><linearGradient x1="274.79402" y1="236.87431" x2="274.79402" y2="243.3843" gradientUnits="userSpaceOnUse" id="color-10"><stop offset="0" stop-color="#dbf0ff"/><stop offset="1" stop-color="#ffffff"/></linearGradient><linearGradient x1="294.94142" y1="234.09722" x2="294.94142" y2="234.59722" gradientUnits="userSpaceOnUse" id="color-11"><stop offset="0" stop-color="#dbf0ff"/><stop offset="1" stop-color="#ffffff"/></linearGradient></defs><g transform="translate(-183.05682,-137.78865)"><g stroke-miterlimit="10"><g fill-opacity="0.4" fill="#000000"><path d="M236.53731,205.45608v-23.97223h23.90771v23.97223z" stroke="#000000" stroke-width="0"/><path d="M260.44498,181.48386v-23.97222h23.90772v23.97222z" stroke="#000000" stroke-width="0"/><path d="M188.7219,205.45608v-23.97223h23.90771v23.97223z" stroke="#000000" stroke-width="0"/><path d="M212.62962,181.48386v-23.97222h23.90771v23.97222z" stroke="#000000" stroke-width="0"/><path d="M332.16812,205.45608v-23.97223h23.90771v23.97223z" stroke="#000000" stroke-width="0"/><path d="M356.07591,181.48386v-23.97222h23.90772v23.97222z" stroke="#000000" stroke-width="0"/><path d="M284.35275,205.45608v-23.97223h23.90771v23.97223z" stroke="#000000" stroke-width="0"/><path d="M308.26043,181.48386v-23.97222h23.90772v23.97222z" stroke="#000000" stroke-width="0"/><path d="M379.98363,205.45608v-23.97223h23.90771v23.97223z" stroke="#000000" stroke-width="0"/><path d="M260.44498,218.76768v-13.3116h23.90772v13.3116z" stroke="#000000" stroke-width="0"/><path d="M212.62962,218.76768v-13.3116h23.90771v13.3116z" stroke="#000000" stroke-width="0"/><path d="M356.07591,218.76768v-13.3116h23.90772v13.3116z" stroke="#000000" stroke-width="0"/><path d="M308.26043,218.76768v-13.3116h23.90772v13.3116z" stroke="#000000" stroke-width="0"/><path d="M403.89134,218.76768v-13.3116h23.90772v13.3116z" stroke="#000000" stroke-width="0"/><path d="M403.89134,181.48386v-23.97222h23.90772v23.97222z" stroke="#000000" stroke-width="0"/><path d="M236.53731,157.57921v-13.3116h23.90771v13.31161z" stroke="#000000" stroke-width="0"/><path d="M188.7219,157.57921v-13.3116h23.90771v13.31161z" stroke="#000000" stroke-width="0"/><path d="M332.16812,157.57921v-13.3116h23.90771v13.31161z" stroke="#000000" stroke-width="0"/><path d="M284.35275,157.57921v-13.3116h23.90771v13.31161z" stroke="#000000" stroke-width="0"/><path d="M379.64581,157.66361v-13.3116h23.90771v13.31161z" stroke="#000000" stroke-width="0"/><path d="M427.79906,157.57921v-13.3116h23.90771v13.31161z" stroke="#000000" stroke-width="0"/><path d="M427.79906,205.45608v-23.97223h23.90771v23.97223z" stroke="none" stroke-width="0"/><path d="M210.91616,221.42907c-13.31522,0 -24.10933,-3.74834 -24.10933,-8.37215v-63.14613c0,-4.62381 10.79411,-8.37214 24.10933,-8.37214h218.16781c13.31521,0 24.10935,3.74834 24.10935,8.37214v63.14613c0,4.62381 -10.79413,8.37215 -24.10935,8.37215z" stroke="#000000" stroke-width="7.5"/></g><g><path d="M230.16813,239.64075c0,-1.38071 15.02273,-3.35697 15.02273,-1.97626c0,0.46596 3.24457,11.38549 2.3449,12.72582c-0.69018,1.02823 -4.09539,-2.46091 -4.09539,-2.46091c0,0 -0.62804,2.29183 0.32205,6.36626c0.39754,1.70486 1.14437,3.71131 1.66395,5.63498c0.30502,1.12928 2.69154,2.45011 5.19,2.45975c1.16226,0.00449 -0.77117,-10.13171 -1.66973,-17.56799c-0.27149,-2.24676 -0.50883,-7.68811 0.46449,-7.55651c3.06411,0.41429 10.12004,2.00386 13.78527,4.31339c0.26841,0.16913 -0.27654,2.47175 1.97601,3.54623c1.94147,0.92609 7.97788,-3.91763 9.35096,-3.23666c0.83808,0.41564 -0.91386,-5.6107 -0.42385,-4.96624c0.28438,0.37401 0.73512,0.5702 1.29576,1.12156c1.39017,1.36712 3.30022,3.5147 3.88572,5.7129c0.16641,0.62477 1.29627,2.79251 2.64124,4.33894c1.26178,1.45078 3.56681,-2.2806 3.55616,-1.71144c-0.01418,0.75761 1.74344,9.53283 0.76604,10.34149c-1.8431,1.5249 -6.98752,-5.00772 -6.91896,-4.55539c0.21296,1.40506 -4.29246,-0.17582 -5.83846,1.45343c-2.92435,3.08182 -3.85421,5.51497 -2.03415,7.33997c0.76286,0.76493 1.707,1.17009 4.34956,-1.55985c1.21793,-1.2582 2.22724,-3.23432 2.60112,-5.32581c0.35677,-1.99577 -9.37396,-4.22062 -8.84254,-4.37056c0.83845,-0.23658 12.43508,2.99974 18.39639,4.35066c0.69218,0.15686 -2.29384,-8.6131 -0.81146,-13.99519c1.1226,-4.07582 6.58415,-4.93267 7.97526,-5.80472c0.27967,-0.17532 -0.83737,0.43194 -0.46603,0.27708c2.31831,-0.96677 7.50693,-2.25299 8.06595,-1.61939c0.43093,0.48843 -0.54327,16.82817 0.99401,20.04557c0.54028,1.13076 -0.683,2.09952 0.12862,3.01005c1.2606,1.41422 5.26927,-0.93228 8.42579,-2.40745c1.64754,-0.76997 1.87006,-16.69807 2.54137,-16.41284c0.17867,0.07592 3.34937,-1.43672 6.17412,-1.88951c1.78505,-0.28613 3.67608,0.20252 3.81274,0.66838c0.91331,3.11338 -1.70505,9.17642 -2.42706,16.00458c-0.25528,2.41421 0.04698,5.6491 1.68386,8.4731c0.83906,1.44757 4.57098,0.50677 7.67408,-3.10526c1.42121,-1.6543 3.24964,-7.81508 2.49802,-12.05745c-0.06419,-0.36233 0.10044,-2.18291 -0.57178,-2.93625c-1.2532,-1.40444 -3.57749,-1.95602 -2.77503,-2.55114c1.69295,-1.25554 5.52733,-1.09276 9.05487,-0.46055c3.33873,0.59837 6.41313,1.57137 6.77332,3.74162c0.1529,0.92127 1.14131,2.95897 1.16703,4.40028c0.00186,0.10433 1.41376,0.98741 2.90733,-0.91504c2.08673,-2.65798 4.58986,-8.39744 5.89866,-8.49173c1.68022,-0.12105 1.73957,5.56025 2.29781,7.54843c0.40589,1.44558 2.50244,0.48062 4.11308,-0.54116c0.30623,-0.19427 0.56591,-4.45887 2.00096,-6.66815c1.71011,-2.63274 5.2422,-3.05662 6.29271,-2.50341c1.11873,0.58914 6.37786,11.88702 10.0783,19.93673c0.08861,0.19275 1.72424,-0.89505 2.89905,-3.14022c0.437,-0.83516 -1.0355,-4.15183 -1.43878,-7.90257c-0.4485,-4.17138 0.10047,-9.10917 0.55727,-9.40807c0.23226,-0.15197 14.94052,-3.50074 19.96339,-2.31115c0.94259,0.22324 5.44294,6.5316 4.70448,7.47374c-0.08906,0.11361 5.95047,-5.12064 5.86768,-3.78575c-0.14819,2.38948 -6.46955,11.93129 -7.06617,12.04665c-0.4117,0.07961 -2.03455,-1.00454 -2.7262,-2.46342c-0.71612,-1.5105 -0.95649,-4.39015 -1.51477,-4.34593c-2.33473,0.18491 -4.33806,-0.11428 -5.99894,0.02961c-4.08926,0.35428 -4.41166,0.86919 -5.42769,1.13462c-0.94209,0.24612 1.67741,0.88189 2.48001,1.03481c2.74468,0.52296 5.47712,0.2588 6.19619,0.59229c1.37699,0.63862 2.96763,5.38932 3.24793,6.03224c0.769,1.76382 -12.62966,-0.69285 -12.55465,-0.53071c0.17576,0.37993 0.24896,1.7889 2.07479,2.04365c5.38717,0.75165 16.2725,0.78786 16.75276,2.00068c0.14318,0.3616 -0.66965,8.49055 -0.68621,8.92965c-0.03779,1.00167 -3.61648,3.04437 -8.42923,3.59333c-6.8229,0.77825 -15.01089,-2.66572 -15.0109,-2.6648c-0.02918,1.39056 -11.46076,11.03595 -15.82451,11.17182c-1.03186,0.03213 0.65956,-12.00772 -0.62009,-15.67202c-0.7775,-2.22636 -1.58017,0.14586 -1.78048,0.6825c-0.04348,0.11647 1.36514,4.15634 -0.18553,8.05647c-0.50203,1.26267 -1.51861,2.04993 -2.04188,2.63999c-1.85159,2.08796 -3.80363,-3.79182 -4.30343,-5.42918c-0.6593,-2.1599 0.01091,-7.37703 -0.70813,-7.4076c-1.75243,-0.0745 -2.65075,0.17981 -2.73906,0.75015c-0.67886,4.38436 -0.58224,10.90667 -2.18219,12.24903c-0.47345,0.39723 -5.56909,1.6201 -8.21442,0.13673c-1.12187,-0.62909 0.13897,-5.75185 -0.27931,-6.7288c-0.89046,-2.07978 -2.99204,-1.23807 -3.10964,-0.98894c-1.99867,4.23418 -12.5726,8.22675 -16.92037,9.33596c-5.76346,1.47039 -9.94958,-0.47477 -10.73876,-1.3217c-1.91336,-2.0534 -1.98697,-7.81319 -2.61712,-7.56341c-2.99656,1.18779 -8.85946,3.3483 -13.13572,4.78405c-4.23191,1.42086 -7.92004,1.00361 -8.22239,0.37814c-0.7977,-1.65018 -2.1475,-5.81982 -3.04181,-6.5462c-2.36594,-1.92167 -3.52304,0.38566 -3.52899,0.45187c-0.00487,0.05421 -3.38826,4.48198 -7.91172,7.14811c-6.66724,3.92967 -15.34932,6.37821 -15.56764,4.51624c-0.25239,-2.15252 -1.01404,-5.56301 -0.82341,-9.21702c0.28935,-5.54648 1.56175,-11.32375 0.57545,-11.50573c-2.64734,-0.48845 -2.24086,-0.51785 -2.41124,0.07467c-2.18589,7.60187 -9.33027,21.80091 -9.41746,21.80091c-0.61106,0 -6.15355,-6.39399 -10.29194,-14.14304c-2.51645,-4.71201 -3.96828,-9.92067 -5.99318,-13.96743c-2.16932,-4.33538 -3.15087,-7.81047 -3.15087,-8.20854z" fill="#ff0000" stroke="#000000" stroke-width="7.5"/><path d="M230.16811,239.64078c0,-1.38071 15.02273,-3.35697 15.02273,-1.97626c0,0.46596 3.24456,11.38549 2.3449,12.72582c-0.69017,1.02823 -4.09539,-2.46091 -4.09539,-2.46091c0,0 -0.62804,2.29183 0.32205,6.36626c0.39754,1.70486 1.14437,3.71131 1.66395,5.63498c0.30502,1.12928 2.69154,2.45012 5.18999,2.45976c1.16226,0.00449 -0.77117,-10.13171 -1.66973,-17.56799c-0.27148,-2.24677 -0.50883,-7.68811 0.46449,-7.55651c3.06411,0.41428 10.12004,2.00385 13.78527,4.31339c0.26841,0.16913 -0.27654,2.47176 1.976,3.54623c1.94147,0.92609 7.97788,-3.91763 9.35096,-3.23666c0.83809,0.41564 -0.91385,-5.6107 -0.42384,-4.96625c0.28438,0.37401 0.73511,0.5702 1.29576,1.12156c1.39017,1.36712 3.30022,3.5147 3.88572,5.7129c0.16641,0.62477 1.29628,2.79251 2.64124,4.33894c1.26178,1.45078 3.56681,-2.2806 3.55616,-1.71145c-0.01418,0.75761 1.74344,9.53284 0.76604,10.34149c-1.8431,1.5249 -6.98752,-5.00772 -6.91896,-4.55539c0.21296,1.40506 -4.29246,-0.17582 -5.83846,1.45343c-2.92435,3.08182 -3.85421,5.51496 -2.03415,7.33996c0.76287,0.76494 1.707,1.1701 4.34956,-1.55984c1.21794,-1.2582 2.22725,-3.23433 2.60113,-5.32582c0.35677,-1.99578 -9.37396,-4.22062 -8.84254,-4.37056c0.83845,-0.23658 12.43508,2.99974 18.39639,4.35066c0.69218,0.15686 -2.29384,-8.61311 -0.81146,-13.99519c1.1226,-4.07582 6.58415,-4.93266 7.97526,-5.80471c0.27967,-0.17532 -0.83737,0.43194 -0.46603,0.27708c2.31831,-0.96677 7.50693,-2.25299 8.06595,-1.61939c0.43093,0.48843 -0.54328,16.82817 0.994,20.04556c0.54028,1.13076 -0.683,2.09952 0.12862,3.01005c1.2606,1.41422 5.26927,-0.93227 8.42579,-2.40745c1.64755,-0.76997 1.87006,-16.69807 2.54137,-16.41284c0.17867,0.07592 3.34936,-1.43672 6.17411,-1.88952c1.78505,-0.28613 3.67608,0.20252 3.81274,0.66838c0.91331,3.11338 -1.70505,9.17642 -2.42706,16.00458c-0.25528,2.41421 0.04698,5.64911 1.68387,8.47311c0.83906,1.44757 4.57098,0.50677 7.67408,-3.10526c1.42121,-1.6543 3.24964,-7.81508 2.49802,-12.05745c-0.0642,-0.36233 0.10044,-2.18291 -0.57178,-2.93626c-1.2532,-1.40444 -3.57749,-1.95601 -2.77503,-2.55114c1.69295,-1.25555 5.52734,-1.09276 9.05488,-0.46055c3.33873,0.59837 6.41313,1.57136 6.77332,3.74162c0.1529,0.92127 1.14131,2.95898 1.16704,4.40028c0.00186,0.10433 1.41376,0.9874 2.90733,-0.91504c2.08674,-2.65799 4.58986,-8.39744 5.89866,-8.49173c1.68022,-0.12105 1.73957,5.56026 2.29781,7.54843c0.40589,1.44558 2.50244,0.48062 4.11308,-0.54116c0.30623,-0.19427 0.56591,-4.45887 2.00096,-6.66815c1.71011,-2.63273 5.2422,-3.05662 6.29271,-2.50341c1.11873,0.58914 6.37786,11.88702 10.0783,19.93673c0.08861,0.19275 1.72424,-0.89505 2.89905,-3.14022c0.43701,-0.83516 -1.0355,-4.15183 -1.43878,-7.90257c-0.44851,-4.17138 0.10047,-9.10917 0.55727,-9.40807c0.23225,-0.15197 14.94052,-3.50074 19.96339,-2.31115c0.94259,0.22324 5.44294,6.5316 4.70448,7.47374c-0.08905,0.11362 5.95047,-5.12065 5.86768,-3.78575c-0.14819,2.38948 -6.46955,11.93129 -7.06617,12.04665c-0.4117,0.07961 -2.03455,-1.00454 -2.7262,-2.46342c-0.71613,-1.5105 -0.95649,-4.39015 -1.51477,-4.34593c-2.33473,0.18491 -4.33806,-0.11428 -5.99894,0.02962c-4.08926,0.35428 -4.41166,0.86919 -5.42769,1.13462c-0.9421,0.24612 1.67741,0.88189 2.48001,1.03481c2.74467,0.52296 5.47711,0.2588 6.19619,0.59229c1.37699,0.63861 2.96763,5.38931 3.24793,6.03224c0.76899,1.76382 -12.62966,-0.69284 -12.55465,-0.5307c0.17576,0.37993 0.24896,1.7889 2.0748,2.04365c5.38717,0.75165 16.27251,0.78786 16.75276,2.00068c0.14319,0.3616 -0.66964,8.49055 -0.68621,8.92965c-0.03779,1.00167 -3.61648,3.04437 -8.42923,3.59333c-6.82289,0.77825 -15.01089,-2.66572 -15.01091,-2.66479c-0.02918,1.39057 -11.46076,11.03595 -15.8245,11.17182c-1.03187,0.03213 0.65956,-12.00771 -0.62009,-15.67202c-0.7775,-2.22636 -1.58017,0.14585 -1.78048,0.68249c-0.04347,0.11647 1.36514,4.15635 -0.18553,8.05648c-0.50203,1.26266 -1.51861,2.04993 -2.04188,2.63999c-1.85159,2.08796 -3.80363,-3.79182 -4.30343,-5.42918c-0.6593,-2.15991 0.01091,-7.37703 -0.70814,-7.4076c-1.75243,-0.0745 -2.65075,0.17981 -2.73906,0.75015c-0.67887,4.38436 -0.58224,10.90666 -2.18219,12.24902c-0.47345,0.39723 -5.56909,1.6201 -8.21441,0.13673c-1.12187,-0.62909 0.13897,-5.75185 -0.27931,-6.72881c-0.89046,-2.07978 -2.99204,-1.23806 -3.10964,-0.98894c-1.99867,4.23418 -12.5726,8.22675 -16.92037,9.33596c-5.76346,1.47039 -9.94958,-0.47476 -10.73876,-1.3217c-1.91336,-2.0534 -1.98697,-7.8132 -2.61712,-7.56342c-2.99656,1.18779 -8.85946,3.34831 -13.13572,4.78406c-4.23191,1.42086 -7.92004,1.00361 -8.22239,0.37814c-0.7977,-1.65018 -2.14749,-5.81982 -3.0418,-6.54619c-2.36594,-1.92167 -3.52304,0.38566 -3.52899,0.45187c-0.00487,0.05421 -3.38826,4.48198 -7.91172,7.14811c-6.66724,3.92967 -15.34932,6.37822 -15.56764,4.51624c-0.25239,-2.15252 -1.01404,-5.56301 -0.82341,-9.21703c0.28936,-5.54648 1.56175,-11.32375 0.57545,-11.50573c-2.64734,-0.48845 -2.24086,-0.51785 -2.41124,0.07467c-2.18589,7.60187 -9.33027,21.80091 -9.41747,21.80091c-0.61106,0 -6.15355,-6.39398 -10.29193,-14.14304c-2.51645,-4.71201 -3.96829,-9.92068 -5.99318,-13.96743c-2.16931,-4.33538 -3.15086,-7.81047 -3.15086,-8.20854z" fill="#ffffff" stroke="none" stroke-width="0.5"/><path d="M247.53574,250.39033c-0.69017,1.02823 -4.09539,-2.46091 -4.09539,-2.46091c0,0 -0.62804,2.29183 0.32205,6.36626c0.39754,1.70486 1.14437,3.71131 1.66395,5.63498c0.30502,1.12928 2.69154,2.45011 5.18999,2.45975c1.01166,0.00391 -0.32211,-7.67522 -1.27731,-14.56933c4.70643,1.29601 9.43776,2.28477 14.09637,2.90188c7.67402,1.01655 15.32146,1.73211 22.95395,2.19824c0.0287,0.26916 0.0543,0.53315 0.0759,0.78881c0.52655,0.12596 1.02652,0.24297 1.49212,0.34848c0.15103,0.03422 0.12695,-0.35652 0.01238,-1.04432c5.3016,0.30011 10.59637,0.48153 15.88821,0.56155c0.01324,0.87468 -0.67515,1.65473 -0.01425,2.39617c1.24473,1.39641 5.16876,-0.87377 8.30615,-2.35132c3.38027,-0.01355 6.76019,-0.06483 10.14075,-0.1493c-0.00108,2.15478 0.45421,4.67736 1.76391,6.93688c0.83906,1.44757 4.57098,0.50677 7.67408,-3.10526c0.62284,-0.725 1.3239,-2.31553 1.85173,-4.23079c12.95857,-0.58523 25.94329,-1.58394 39.01129,-2.74263c2.02525,-0.17957 4.05262,-0.36274 6.08081,-0.55301c0.96725,2.06816 1.92236,4.13798 2.79148,6.02861c0.08861,0.19275 1.72424,-0.89505 2.89905,-3.14022c0.24524,-0.46867 -0.11087,-1.71884 -0.54191,-3.38865c5.96983,-0.60259 11.93689,-1.29214 17.86731,-2.15751c0.74969,1.53582 1.35597,3.29929 1.51899,3.67323c0.76899,1.76382 -12.62966,-0.69284 -12.55465,-0.5307c0.17576,0.37993 0.24896,1.7889 2.0748,2.04365c5.38717,0.75165 16.27251,0.78786 16.75276,2.00068c0.14319,0.3616 -0.66964,8.49055 -0.68621,8.92965c-0.03779,1.00167 -3.61648,3.04438 -8.42923,3.59333c-6.82289,0.77825 -15.01089,-2.66572 -15.01091,-2.66479c-0.02918,1.39057 -11.46076,11.03595 -15.8245,11.17182c-1.03187,0.03213 0.65956,-12.00771 -0.62009,-15.67202c-0.7775,-2.22636 -1.58017,0.14586 -1.78048,0.6825c-0.04347,0.11647 1.36514,4.15634 -0.18553,8.05647c-0.50203,1.26266 -1.51861,2.04993 -2.04188,2.63999c-1.85159,2.08796 -3.80363,-3.79182 -4.30343,-5.42918c-0.6593,-2.15991 0.01091,-7.37703 -0.70814,-7.4076c-1.75243,-0.0745 -2.65075,0.17981 -2.73906,0.75015c-0.67887,4.38436 -0.58224,10.90666 -2.18219,12.24902c-0.47345,0.39723 -5.56909,1.6201 -8.21441,0.13673c-1.12187,-0.62909 0.13897,-5.75185 -0.27931,-6.72881c-0.89046,-2.07978 -2.99204,-1.23806 -3.10964,-0.98894c-1.99867,4.23418 -12.5726,8.22675 -16.92037,9.33596c-5.76346,1.47039 -9.94958,-0.47476 -10.73876,-1.3217c-1.91336,-2.0534 -1.98697,-7.8132 -2.61712,-7.56342c-2.99656,1.18779 -8.85946,3.34831 -13.13572,4.78406c-4.23191,1.42086 -7.92004,1.0036 -8.22239,0.37813c-0.7977,-1.65018 -2.14749,-5.81981 -3.0418,-6.54618c-2.36594,-1.92167 -3.52304,0.38566 -3.52899,0.45187c-0.00487,0.05421 -3.38826,4.48198 -7.91172,7.14811c-6.66724,3.92967 -15.34932,6.37821 -15.56764,4.51624c-0.25239,-2.15252 -1.01404,-5.56301 -0.82341,-9.21703c0.28936,-5.54648 1.56175,-11.32375 0.57545,-11.50573c-2.64734,-0.48845 -2.24086,-0.51785 -2.41124,0.07467c-2.18589,7.60187 -9.33027,21.80091 -9.41747,21.80091c-0.61106,0 -6.15355,-6.39399 -10.29193,-14.14305c-2.51645,-4.71201 -3.96829,-9.92068 -5.99318,-13.96743c-1.44615,-2.89013 -2.36444,-5.39795 -2.81598,-6.86671c5.47172,2.47114 11.18129,4.61147 16.9481,6.30185c0.25747,1.51682 0.3462,2.71623 0.08464,3.10591zM273.48697,253.6241c-2.92435,3.08182 -3.85421,5.51497 -2.03415,7.33997c0.76287,0.76494 1.707,1.17009 4.34956,-1.55985c1.21794,-1.2582 2.22725,-3.23433 2.60113,-5.32582c0.07453,-0.41692 -0.29116,-0.84385 -0.91155,-1.25976c-1.36982,-0.01385 -3.14513,-0.1007 -4.00499,0.80546z" fill="url(#color-1)" stroke="none" stroke-width="0.5"/><g stroke="none" stroke-width="0.5"><path d="M382.92417,244.76228c-0.44851,-4.17138 0.10047,-9.10918 0.55727,-9.40808c0.23225,-0.15197 14.94052,-3.50074 19.96339,-2.31115c0.94259,0.22324 5.44294,6.5316 4.70448,7.47374c-0.08905,0.11362 5.95047,-5.12065 5.86768,-3.78575c-0.13587,2.19079 -5.46096,10.39389 -6.80543,11.83187c-0.33596,-0.02387 -0.67189,-0.04759 -1.00778,-0.07114c-0.65284,-0.40788 -1.52063,-1.21034 -1.97916,-2.1775c-0.71613,-1.5105 -0.95649,-4.39015 -1.51477,-4.34593c-2.33473,0.18491 -4.33806,-0.11428 -5.99894,0.02962c-4.08926,0.35428 -4.41166,0.86919 -5.42769,1.13462c-0.9421,0.24612 1.67741,0.88189 2.48001,1.03481c2.74467,0.52296 5.47711,0.2588 6.19619,0.59229c0.76423,0.35443 1.59427,1.9755 2.22959,3.45797c-6.30178,-0.41889 -12.59418,-0.78439 -18.88465,-1.10998c-0.15654,-0.74792 -0.29322,-1.53656 -0.38019,-2.34539z" fill="url(#color-2)"/><path d="M287.14591,240.0633c1.03333,-3.75172 5.743,-4.77604 7.57042,-5.59534c-0.12921,0.07586 -0.20159,0.12626 -0.06119,0.06771c2.31831,-0.96677 7.50693,-2.25299 8.06595,-1.61939c0.23072,0.26151 0.05865,5.06697 0.0849,9.9695c-5.35546,0.00137 -10.71291,0.09217 -16.07006,0.19923c0.03173,-1.06584 0.15449,-2.0941 0.40998,-3.02171z" fill="url(#color-3)"/><path d="M363.09195,245.03988c0.30623,-0.19427 0.56591,-4.45887 2.00096,-6.66815c1.71011,-2.63273 5.2422,-3.05661 6.29271,-2.5034c0.72933,0.38407 3.21834,5.31941 5.88799,10.93895c-5.41164,-0.25935 -10.8236,-0.49235 -16.24064,-0.70757c0.66914,-0.23847 1.40421,-0.64446 2.05898,-1.05984z" fill="url(#color-4)"/><path d="M314.81084,237.1516c0.17867,0.07592 3.34936,-1.43673 6.17411,-1.88953c1.78505,-0.28613 3.67608,0.20252 3.81274,0.66838c0.531,1.81013 -0.13181,4.61734 -0.92165,7.99229c-3.27093,-0.32007 -6.54292,-0.61629 -9.81808,-0.80351c0.26522,-3.3074 0.46889,-6.08829 0.75288,-5.96763z" fill="url(#color-5)"/><path d="M333.65479,242.30918c-1.2532,-1.40444 -3.57749,-1.95601 -2.77503,-2.55114c1.69295,-1.25555 5.52734,-1.09276 9.05488,-0.46055c3.33873,0.59837 6.41313,1.57136 6.77332,3.74162c0.09366,0.56433 0.50082,1.54756 0.80818,2.55602c-1.76525,-0.0623 -3.53145,-0.12348 -5.29877,-0.18382c-2.67141,-0.09122 -5.3409,-0.27248 -8.00962,-0.49756c-0.01313,-0.66356 -0.00424,-1.98962 -0.55296,-2.60457z" fill="url(#color-6)"/><path d="M230.16811,239.64076c0,-1.38071 15.02273,-3.35697 15.02273,-1.97626c0,0.21576 0.6957,2.67298 1.35347,5.38263c-1.62688,-0.08224 -3.25319,-0.17996 -4.87887,-0.29523c-3.54645,-0.25146 -7.10348,-0.29562 -10.66343,-0.28166c-0.56575,-1.57276 -0.8339,-2.62144 -0.8339,-2.8295z" fill="url(#color-7)"/><path d="M249.4111,237.2659c3.06411,0.41428 10.12004,2.00385 13.78527,4.31339c0.15919,0.10031 0.03228,0.95108 0.37256,1.851c-4.9278,0.0017 -9.85252,-0.07226 -14.77236,-0.27901c-0.16795,-2.53821 -0.16312,-5.99052 0.61452,-5.88538z" fill="url(#color-8)"/><path d="M356.68106,238.03261c1.68022,-0.12105 1.73957,5.56026 2.29781,7.54843c0.05285,0.18822 0.13436,0.33557 0.23972,0.44725c-2.61854,-0.10214 -5.23838,-0.20036 -7.86007,-0.29562c1.9543,-2.85979 4.1323,-7.61432 5.32254,-7.70006z" fill="url(#color-9)"/><path d="M274.52326,241.88885c0.83809,0.41564 -0.91385,-5.6107 -0.42384,-4.96625c0.28438,0.37401 0.73511,0.5702 1.29576,1.12156c1.28099,1.25975 3.00339,3.18217 3.72415,5.19625c-2.8841,0.0571 -5.76779,0.10887 -8.65072,0.14388c1.77256,-0.93587 3.41679,-1.81178 4.05465,-1.49544z" fill="url(#color-10)"/><path d="M294.7163,234.46796c0.21252,-0.12477 0.57877,-0.3184 0.40484,-0.20937c-0.11062,0.06934 -0.24698,0.13859 -0.40484,0.20937z" fill="url(#color-11)"/></g></g></g></g></svg>