<svg version="1.1" xmlns="http://www.w3.org/2000/svg" xmlns:xlink="http://www.w3.org/1999/xlink" width="257.55803" height="234.64763" viewBox="0,0,257.55803,234.64763"><defs><radialGradient cx="321.98391" cy="140.9087" r="81.16802" gradientUnits="userSpaceOnUse" id="color-1"><stop offset="0" stop-color="#fa8484" stop-opacity="0.97255"/><stop offset="1" stop-color="#fa8484" stop-opacity="0"/></radialGradient><radialGradient cx="367.6111" cy="180.26114" r="81.16802" gradientUnits="userSpaceOnUse" id="color-2"><stop offset="0" stop-color="#fa8484" stop-opacity="0.97255"/><stop offset="1" stop-color="#fa8484" stop-opacity="0"/></radialGradient><radialGradient cx="272.38893" cy="179.63316" r="81.16802" gradientUnits="userSpaceOnUse" id="color-3"><stop offset="0" stop-color="#fa8484" stop-opacity="0.97255"/><stop offset="1" stop-color="#fa8484" stop-opacity="0"/></radialGradient><radialGradient cx="322.23503" cy="219.0913" r="81.16802" gradientUnits="userSpaceOnUse" id="color-4"><stop offset="0" stop-color="#fa8484" stop-opacity="0.97255"/><stop offset="1" stop-color="#fa8484" stop-opacity="0"/></radialGradient></defs><g transform="translate(-191.22099,-62.67618)"><g stroke-miterlimit="10"><path d="M411.59091,88.40909v183.18182h-183.18182v-183.18182z" fill="none" stroke="none" stroke-width="0"/><path d="M388.11809,207.13491c-7.62694,9.91279 -19.61768,19.07577 -21.77563,20.75838c-20.88639,16.28558 -46.73678,29.43071 -49.61859,29.52765c-0.80346,0.02702 -5.63673,1.06656 -9.19834,-2.94728c-8.04846,-9.0704 -20.32255,-28.71026 -21.48138,-32.01282c-0.06425,-0.18313 3.27391,-4.59437 7.28655,-7.70986c4.0689,-3.15917 8.81365,-5.02291 8.83421,-5.17137c0.16764,-1.21063 -28.11395,-0.17543 -43.59514,-2.31311c-7.42552,-1.02533 -12.99529,-12.26949 -13.6003,-15.95891c-1.28801,-7.85444 -0.49938,-23.91176 0.88707,-30.56181c0.18336,-0.87946 4.7102,-7.11086 12.26301,-7.99321c7.55169,-0.88222 43.97536,1.37807 45.57514,0.98816c0.42595,-0.10382 -10.35328,-6.82189 -16.65567,-13.04692c-3.94328,-3.89488 -4.53946,-8.27386 -4.47168,-8.62556c1.60233,-8.31399 31.85841,-30.05203 36.03154,-29.68896c3.22198,0.28032 33.84183,24.61229 54.37976,43.05412c10.73959,9.64352 18.13538,18.77216 18.67515,19.65717c2.20621,3.61736 3.3613,7.26543 3.56702,7.90474c1.70499,5.2985 1.72324,12.11228 1.01618,15.59704c-1.37518,6.77765 -5.08657,14.60143 -8.11888,18.54255zM317.23855,110.66521c-1.5175,0 -25.59008,20.05496 -25.85725,21.46663c-0.2944,1.55551 12.96156,8.82326 23.06136,20.1071c1.38337,1.54555 6.33297,7.08463 4.29469,9.62736c-2.29317,2.86071 -37.95159,0.30668 -51.81212,0.4017c-6.54378,0.04487 -11.4302,0.69432 -12.01592,1.60086c-3.09624,4.7922 -2.57423,14.96536 -2.07394,21.33512c0.63148,8.0401 3.94359,15.29569 6.97055,16.21901c7.54935,2.30279 57.96642,0.94848 58.42274,1.19814c1.52532,0.83457 0.63352,4.28237 -0.30583,5.18134c-2.36037,2.2589 -9.64462,7.27706 -15.18097,10.57137c-5.5643,3.31094 -8.21131,5.94208 -8.19692,6.95757c0.06375,4.50011 18.1212,25.04808 19.69362,25.04808c1.17809,0 20.9721,-11.11169 40.28562,-25.01682c10.41386,-7.49765 21.36077,-15.04662 27.8023,-23.41314c4.61828,-5.99841 6.45005,-14.6162 6.34065,-18.42719c-0.07301,-2.54344 -1.1603,-9.69291 -4.3101,-15.058c-6.34676,-10.81045 -63.42744,-57.79915 -67.11847,-57.79915z" fill="#930000" stroke-opacity="0.50196" stroke="#ff8080" stroke-width="12.5"/><path d="M388.11809,207.13491c-7.62694,9.91279 -19.61768,19.07577 -21.77563,20.75838c-20.88639,16.28558 -46.73678,29.43071 -49.61859,29.52765c-0.80346,0.02702 -5.63673,1.06656 -9.19834,-2.94728c-8.04846,-9.0704 -20.32255,-28.71026 -21.48138,-32.01282c-0.06425,-0.18313 3.27391,-4.59437 7.28655,-7.70986c4.0689,-3.15917 8.81365,-5.02291 8.83421,-5.17137c0.16764,-1.21063 -28.11395,-0.17543 -43.59514,-2.31311c-7.42552,-1.02533 -12.99529,-12.26949 -13.6003,-15.95891c-1.28801,-7.85444 -0.49938,-23.91176 0.88707,-30.56181c0.18336,-0.87946 4.7102,-7.11086 12.26301,-7.99321c7.55169,-0.88222 43.97536,1.37807 45.57514,0.98816c0.42595,-0.10382 -10.35328,-6.82189 -16.65567,-13.04692c-3.94328,-3.89488 -4.53946,-8.27386 -4.47168,-8.62556c1.60233,-8.31399 31.85841,-30.05203 36.03154,-29.68896c3.22198,0.28032 33.84183,24.61229 54.37976,43.05412c10.73959,9.64352 18.13538,18.77216 18.67515,19.65717c2.20621,3.61736 3.3613,7.26543 3.56702,7.90474c1.70499,5.2985 1.72324,12.11228 1.01618,15.59704c-1.37518,6.77765 -5.08657,14.60143 -8.11888,18.54255zM317.23855,110.66521c-1.5175,0 -25.59008,20.05496 -25.85725,21.46663c-0.2944,1.55551 12.96156,8.82326 23.06136,20.1071c1.38337,1.54555 6.33297,7.08463 4.29469,9.62736c-2.29317,2.86071 -37.95159,0.30668 -51.81212,0.4017c-6.54378,0.04487 -11.4302,0.69432 -12.01592,1.60086c-3.09624,4.7922 -2.57423,14.96536 -2.07394,21.33512c0.63148,8.0401 3.94359,15.29569 6.97055,16.21901c7.54935,2.30279 57.96642,0.94848 58.42274,1.19814c1.52532,0.83457 0.63352,4.28237 -0.30583,5.18134c-2.36037,2.2589 -9.64462,7.27706 -15.18097,10.57137c-5.5643,3.31094 -8.21131,5.94208 -8.19692,6.95757c0.06375,4.50011 18.1212,25.04808 19.69362,25.04808c1.17809,0 20.9721,-11.11169 40.28562,-25.01682c10.41386,-7.49765 21.36077,-15.04662 27.8023,-23.41314c4.61828,-5.99841 6.45005,-14.6162 6.34065,-18.42719c-0.07301,-2.54344 -1.1603,-9.69291 -4.3101,-15.058c-6.34676,-10.81045 -63.42744,-57.79915 -67.11847,-57.79915z" fill="#590d0d" stroke="none" stroke-width="0"/><path d="M300.00608,224.16221c0.45219,-0.56483 12.33405,-7.66387 20.50707,-14.41784c5.20153,-4.29841 8.19028,-9.08376 8.05623,-9.72862c-0.29165,-1.40307 -46.60089,-0.2232 -61.47048,-2.47924c-1.0257,-0.15562 -4.35759,-2.50534 -5.34888,-6.20684c-2.34637,-8.76142 -1.95407,-23.76116 0.54733,-24.68508c3.16632,-1.16952 32.36142,0.52918 50.86503,0.00052c8.82317,-0.25208 15.36596,-1.52676 15.45683,-2.77577c0.42798,-1.7334 -6.90524,-10.1158 -14.63268,-17.17935c-7.33799,-6.70757 -15.06808,-12.19558 -15.59974,-14.05446c-0.49714,-1.74356 17.9446,-16.00143 21.25229,-15.55498c2.17112,0.36602 36.59791,27.22325 54.56215,48.07468c9.81435,11.39171 9.39912,19.95722 8.50407,23.89916c-0.42237,1.86018 -5.0686,11.96073 -14.25943,20.1677c-18.68717,16.68674 -49.19777,34.82927 -51.33348,35.59214c-3.23437,-0.96183 -18.1987,-19.25411 -17.15113,-20.56263z" fill="#f23030" stroke="none" stroke-width="0"/><path d="M317.13476,110.58625c3.69103,0 60.82322,47.02936 67.16998,57.83981c3.1498,5.36509 4.23791,12.52604 4.31092,15.06948c0.1094,3.81099 -1.72508,12.44297 -6.34336,18.44138c-6.44153,8.36652 -17.4055,15.93896 -27.81936,23.43661c-19.31352,13.90513 -39.14222,25.02676 -40.32031,25.02676c-0.6823,0 -4.47229,-3.87003 -8.54978,-8.61922c0.93355,-0.57825 46.11035,-27.62253 46.34131,-59.6774c0.20671,-28.68866 -44.42569,-62.72818 -45.34341,-63.66132c5.21774,-4.25678 9.91125,-7.85607 10.55401,-7.85607z" fill-opacity="0.25098" fill="#ffffff" stroke="none" stroke-width="0"/><path d="M259.40696,201.2262c-3.02696,-0.92332 -6.34167,-8.19172 -6.97315,-16.23182c-0.50029,-6.36976 -1.02088,-16.55866 2.07536,-21.35086c0.58572,-0.90654 5.47327,-1.55981 12.01705,-1.60468c5.12199,-0.03511 13.22646,0.28693 21.52541,0.5626c-0.02623,1.66919 -2.02758,14.75566 0.1625,24.93611c1.59015,7.39172 7.39209,12.61162 8.05554,13.91948c0.19086,0.37625 0.37856,0.75589 0.56491,1.13744c-14.96038,0.079 -33.13398,-0.05856 -37.42762,-1.36826z" fill-opacity="0.18039" fill="#000000" stroke="none" stroke-width="0"/><path d="M317.25437,110.58625c3.69103,0 60.82322,47.02936 67.16998,57.83981c3.1498,5.36509 4.23791,12.52604 4.31092,15.06948c0.1094,3.81099 -1.72508,12.44297 -6.34336,18.44138c-6.44153,8.36652 -17.4055,15.93896 -27.81936,23.43661c-19.31352,13.90513 -39.14222,25.02676 -40.32031,25.02676c-1.57242,0 -19.65047,-20.55453 -19.71422,-25.05464c-0.01439,-1.01549 2.67903,-3.73511 8.24333,-7.04604c5.53635,-3.29431 12.80412,-8.317 15.16449,-10.5759c0.93935,-0.89897 1.82108,-4.24728 0.29576,-5.08185c-0.45632,-0.24966 -50.91541,1.07119 -58.46476,-1.2316c-3.02696,-0.92332 -6.34167,-8.19172 -6.97315,-16.23182c-0.50029,-6.36976 -1.02088,-16.55866 2.07536,-21.35086c0.58572,-0.90654 5.47327,-1.55981 12.01705,-1.60468c13.86053,-0.09502 49.56142,2.42536 51.85458,-0.43535c2.03828,-2.54273 -2.89587,-7.98318 -4.27924,-9.52873c-10.0998,-11.28384 -23.39216,-18.64327 -23.09776,-20.19878c0.26717,-1.41167 24.36319,-21.47376 25.88069,-21.47376zM299.79896,224.32499c-1.04757,1.30853 13.89791,19.59563 17.13228,20.55746c2.13571,-0.76287 32.59997,-18.88139 51.28714,-35.56813c9.19083,-8.20697 13.83028,-18.28824 14.25265,-20.14842c0.89505,-3.94194 1.31196,-12.48647 -8.50239,-23.87818c-17.96424,-20.85143 -52.34156,-47.67307 -54.51268,-48.03909c-3.30769,-0.44645 -21.72931,13.80649 -21.23217,15.55005c0.53166,1.85888 8.22911,7.25305 15.5671,13.96062c7.72743,7.06355 15.09046,15.44844 14.66248,17.18184c-0.09087,1.24901 -6.62698,2.61297 -15.45015,2.86505c-18.50361,0.52866 -47.67565,-1.20131 -50.84197,-0.03179c-2.5014,0.92392 -2.89305,15.90341 -0.54668,24.66483c0.99129,3.7015 4.32175,6.04521 5.34745,6.20083c14.86959,2.25604 61.11397,1.04371 61.40562,2.44678c0.13405,0.64486 -2.83967,5.52718 -8.0412,9.82559c-8.17302,6.75397 -20.07529,13.84775 -20.52748,14.41258z" fill="#ffffff" stroke="none" stroke-width="0"/><path d="" fill="#87a9bc" stroke="none" stroke-width="0"/><path d="" fill="#87a9bc" stroke="none" stroke-width="0"/><path d="" fill="#87a9bc" stroke="none" stroke-width="0"/><path d="" fill="#87a9bc" stroke="none" stroke-width="0"/><g stroke="none" stroke-width="0"><path d="M403.15016,141.44398c-0.28493,43.2056 -36.85528,77.99099 -81.68217,77.69536c-44.82689,-0.29563 -80.93526,-35.56033 -80.65033,-78.76592c0.28494,-43.2056 36.85529,-77.99098 81.68218,-77.69536c44.82689,0.29562 80.93527,35.56033 80.65033,78.76592z" fill="url(#color-1)"/><path d="M367.09516,258.49178c-44.82689,-0.29563 -80.93526,-35.56033 -80.65033,-78.76592c0.28493,-43.2056 36.85529,-77.99098 81.68218,-77.69536c44.82689,0.29562 80.93527,35.56033 80.65033,78.76592c-0.28493,43.2056 -36.85529,77.99099 -81.68218,77.69536z" fill="url(#color-2)"/><path d="M353.55516,180.16844c-0.28493,43.2056 -36.85529,77.99099 -81.68218,77.69536c-44.82688,-0.29562 -80.93525,-35.56033 -80.65032,-78.76592c0.28494,-43.2056 36.85529,-77.99098 81.68218,-77.69536c44.82689,0.29562 80.93527,35.56033 80.65033,78.76592z" fill="url(#color-3)"/><path d="M403.40128,219.62659c-0.28493,43.2056 -36.85528,77.99099 -81.68217,77.69536c-44.82689,-0.29563 -80.93526,-35.56033 -80.65033,-78.76592c0.28494,-43.2056 36.85529,-77.99098 81.68218,-77.69536c44.82689,0.29562 80.93527,35.56033 80.65033,78.76592z" fill="url(#color-4)"/></g></g></g></svg>