<svg version="1.1" xmlns="http://www.w3.org/2000/svg" xmlns:xlink="http://www.w3.org/1999/xlink" width="225.88208" height="103.94583" viewBox="0,0,225.88208,103.94583"><g transform="translate(-208.0195,-131.10976)"><g stroke-miterlimit="10"><path d="M351.78904,189.75012l0.39394,-0.07162l0.04203,-0.16813l0.06592,-0.85698l0.0651,-0.1953v-5.07324l0.06585,-0.2634l-0.03932,-0.26864l0.16974,-1.6974l0.20199,-0.5627l0.04585,-0.59609l0.20681,-0.62046l0.02803,-0.16813v-11.09983l0.16974,-0.67896v-1.18818l0.09333,-0.37335l-0.0396,-0.3828l0.116,-0.81202v-6.66844l-0.02255,0.00125l-0.10475,0.18331l-2.67341,0.66835h-1.6974l-0.83383,-0.20845l-0.85698,-0.06592l-0.68748,-0.22916l-0.05795,0.0158l-0.13169,-0.07901l-0.14133,-0.04711l-0.96224,-0.61233l-0.0776,-0.01724l-0.67896,-0.33948l-0.56492,-0.48422l-0.04115,-0.02618l-0.0022,-0.01097l-1.48401,-1.27201l-0.01172,-0.21081l-0.18331,-0.10475l-0.66835,-2.67341v-1.50691l-0.04152,-0.18681l-0.29797,-1.19188v-0.14897l-0.03332,-0.14991l0.03332,-0.04997v-0.16035l0.54352,-2.17408l-0.01627,-0.23571l0.1037,-0.11408l0.03739,-0.14956l0.20514,-0.11723l1.50745,-1.65819l0.38573,-0.25716l0.56023,-0.42018l0.14002,-0.05896l0.1022,-0.11241l0.50922,-0.33949l0.2026,-0.07235l0.08989,-0.15729l1.16843,-0.29211l1.13424,-0.40509l0.16203,0.08101l0.2087,-0.05217h0.53577l0.04952,-0.00675l0.32454,-0.17308l0.67896,-0.16974h0.65822l0.63858,-0.15963h19.34099l0.04997,-0.03332l0.14991,0.03332h0.14899l1.19188,0.29797l1.1993,0.26651l0.13325,0.06662l0.14899,0.03725l0.0298,0.05215l0.02745,0.01372l0.33144,0.28409l0.26634,0.0148l0.4239,0.49454h13.05194l2.67341,0.66835l0.10475,0.18331l0.2108,0.01172l1.79338,2.09227l0.3532,0.70641l0.05215,0.02979l0.03725,0.14899l0.06663,0.13325l0.26651,1.19929l0.19359,0.77433l0.0664,0.09959l0.51059,0.6127l0.6772,0.6772l0.10786,0.17977l0.17097,0.12134l1.01845,1.18818l0.14747,0.29493l0.21299,0.21299l0.61746,0.49396l0.4992,0.6552l0.60949,0.55407l0.67896,1.01845l0.04386,0.12277l0.09218,0.09219l1.01845,1.6974l0.00884,0.02907l0.08476,0.04843l0.21947,0.87791l0.0583,0.06996l0.26066,0.53993l0.00928,-0.00374l0.17043,-0.17043l2.38487,-1.43093l0.9231,-0.64618l0.32332,-0.23627l0.46668,-0.53739l1.26503,-0.88552l0.62642,-0.73083l1.03797,-1.48281l0.35655,-0.30963l0.24296,-0.40493l1.18676,-1.18676l1.03694,-1.4978l0.50903,-1.01806l0.40455,-0.47197l0.27025,-0.55981l0.45143,-0.54172l0.2317,-0.46339l0.37018,-0.43188l0.23699,-0.51708l0.67896,-0.84871l0.23949,-0.18247l0.1549,-0.25817l0.67896,-0.67896l0.73702,-0.44221l0.65258,-0.55936l0.33948,-0.16973l0.35434,-0.07874l0.27957,-0.16775l0.21339,0.0582l1.84279,-0.40951l0.51813,0.34542l0.60077,-0.16385l2.36298,1.41779l0.33949,0.33949l0.5427,0.90452l0.35499,0.20285l0.16663,0.66651l0.35346,0.58912l-0.10758,0.39444l0.25584,1.02333v1.35793l-0.05218,0.2087l0.08102,0.16203l-0.40509,1.13424l-0.2921,1.16843l-0.15729,0.08987l-0.07236,0.2026l-0.03067,0.04599l-0.13272,0.3318l-0.29718,0.41147l-0.10401,0.31203l-0.05184,0.08145l-0.06256,0.17519l-0.33949,0.50922l-0.07943,0.07222l-0.04438,0.06975l-0.49848,0.95361l-0.38144,0.42912l-0.02184,0.03433l-0.01054,0.0021l-0.94409,1.06212l-0.37842,0.25843l-0.27771,0.3645l-0.09836,0.07869l-0.01484,0.02473l-0.56303,0.56304l-0.44499,0.66031l-1.6974,1.52767l-0.56947,0.30217l-0.13874,0.17077l-0.64144,0.48108l-1.22788,0.95501l-0.74341,0.7434l-0.49396,0.61746l-0.6552,0.4992l-0.55407,0.60949l-0.92811,0.61875l0.11098,0.22193l0.3231,0.18463l0.17799,0.71197l0.43467,3.01021l0.0557,0.12881l-0.4113,0.97682l-0.25705,1.02824l-0.23161,0.13234l-0.16941,0.40234l-1.01845,1.35791l-0.18903,0.1536l-0.11416,0.21514l-0.04945,0.05497l0.01479,0.02221l0.14438,0.40422l0.10486,0.0839l0.25968,0.34083l0.35651,0.23767l1.54976,1.70473l2.38565,2.2266l0.05144,0.07938l0.08111,0.04867l1.06222,1.06223l0.10821,0.06491l1.85322,0.9266l0.369,0.31629l0.44792,0.1886l1.35793,1.01844l0.42764,0.52633l0.53943,0.41099l0.67895,0.84869l0.03574,0.07796l0.06656,0.05407l0.50922,0.67896l0.33353,0.79215l0.46144,0.72514l0.33948,1.01845l0.06592,0.85698l0.20845,0.83384v5.26195l-0.66835,2.67341l-0.72432,0.41389l-0.22586,0.80307l-1.70662,0.91019l-0.02721,0.04763l-0.11687,0.02922l-0.58078,0.30975l-0.67896,0.16974h-0.65823l-0.63856,0.15963h-0.49983l-0.04997,0.03332l-0.14991,-0.03332h-0.14897l-1.19188,-0.29797l-1.1993,-0.26651l-0.13325,-0.06662l-0.14897,-0.03725l-0.01862,-0.03259l-0.05723,0.00394l-1.02346,-0.93043l-1.0502,-0.90017l-0.00455,-0.08183l-0.30031,-0.45048l-0.04384,-0.12277l-0.09219,-0.09218l-0.50922,-0.84869l-0.09668,-0.3177l-0.20444,-0.26169l-0.59082,-1.32937l-0.47683,-0.87419l-1.01799,-0.91618l-0.55695,-0.82643l-0.35631,-0.4157l-0.07926,-0.0223l-0.09907,-0.18576l-0.11392,-0.13291l-0.33948,-0.67896l-0.01458,-0.06559l-0.05789,-0.10853l-0.02929,-0.04881l-0.12873,-0.12873l-0.85477,-0.74791l-0.03772,-0.00383l-0.07209,-0.09226l-0.25936,-0.22694l-0.65651,-0.94536l-0.70858,-0.90699l-0.13997,-0.31492l-0.06679,-0.09617l0.00752,-0.03717l-0.34689,-0.7805l-0.19903,-0.33172l-0.34373,-0.45831l-0.10892,-0.25869l-0.19849,-0.19849l-0.27316,-0.45528l-0.29726,0.25323l-0.22993,0.3832l-0.21353,0.21353l-0.06492,0.1082l-0.07771,0.15543l-0.04957,0.14874l-0.11568,0.18178l-0.00468,0.00935l-0.00495,0.00577l-0.19082,0.29987l-0.17144,0.56333l-2.81132,0.84869l-10.34999,13.9192l-0.20258,0.07236l-0.08989,0.15729l-1.16843,0.29211l-1.13424,0.40507l-0.16203,-0.08101l-0.2087,0.05217h-2.71584l-0.42352,-0.10588l-0.24484,0.10588l-0.97682,-0.41129l-1.02824,-0.25706l-0.13234,-0.23161l-0.40234,-0.1694l-0.67896,-0.50923l-0.24269,-0.29867l-0.33001,-0.198l-0.50922,-0.50922l-0.5427,-0.90452l-0.35499,-0.20286l-0.16663,-0.6665l-0.35346,-0.58911l0.10758,-0.39445l-0.2134,-0.8536l-0.08116,0.32462l-0.06592,0.85698l-0.33948,1.01845l-0.56631,0.88992l-0.02268,0.40822l-0.52162,0.4471l-0.36884,0.57962l-0.40092,0.08018l-0.80089,0.68647l-0.02745,0.01372l-0.0298,0.05215l-0.14897,0.03725l-0.13325,0.06662l-1.1993,0.26651l-1.19188,0.29797h-0.14897l-0.14991,0.03332l-0.04997,-0.03332h-24.26346c-0.91135,0 -1.76943,-0.228 -2.52034,-0.63008l-0.15307,-0.03827l-0.04028,-0.07049c-0.09702,-0.05726 -0.19207,-0.11749 -0.28502,-0.18057l-0.35571,-0.08894h-0.65823l-0.71935,-0.17983h-0.36022l-0.43354,-0.10839l-0.44546,0.03563l-0.58195,-0.09699h-0.57592l-0.2087,-0.05217l-0.16203,0.08101l-0.87341,-0.31193c-1.92239,1.05349 -4.23752,1.01988 -6.28053,-0.96101c-2.07504,-2.01196 -3.17803,-4.03187 -3.83613,-6.99329c-0.03542,-0.15936 0.03882,-0.85639 0,-0.88284c-2.70852,-1.84473 -3.24754,-4.18047 -4.54148,-7.4607c-0.16763,-0.42497 -0.37451,0.83541 -0.60598,1.22926c-0.55869,0.95062 -0.62939,2.1136 -0.95258,3.16782c-0.38495,1.25569 -3.82245,3.37459 -5.31684,2.87647c-1.70397,-0.568 -3.20469,-1.72764 -4.48344,-2.98897c-0.61696,-0.60856 0.73559,-5.34412 -1.39181,-5.36162c-3.7406,-0.03079 -2.37848,3.84417 -4.08453,6.66231c-0.73729,1.21787 -2.59406,1.23276 -3.70824,2.11899c-0.84547,0.67251 -1.05153,2.89642 -1.31472,5.08946c0.05904,0.31817 0.0899,0.64624 0.0899,0.98151c0,1.17579 -0.37953,2.26294 -1.02275,3.14563c-0.08959,0.16435 -0.18803,0.31014 -0.2967,0.43426c-0.19054,0.2176 -0.42947,0.42252 -0.70572,0.61029c-0.91225,0.72413 -2.06643,1.15666 -3.32163,1.15666c-0.11885,0 -0.23679,-0.00387 -0.35372,-0.01151c-1.12515,0.05486 -2.24691,-0.14392 -3.12122,-0.69441l-3.31467,1.8941c-0.34172,0 -0.67597,-0.03206 -0.99988,-0.09333c-3.35362,-0.19658 -7.16675,0.65944 -10.20297,0.94203c-3.23424,0.30103 -7.05356,-1.01757 -10.18112,-0.51004c-3.25997,0.52901 -6.71064,0.77156 -9.28091,-1.58329c-0.49014,-0.44905 -1.2447,-2.41008 -1.76618,-4.20873l-0.24218,1.08975l-0.06662,0.13325l-0.03725,0.14899l-0.05214,0.0298l-0.35321,0.70641l-0.21988,0.25653l-0.08473,0.23724l0.00234,0.03405l-0.02391,0.02628l-0.00735,0.02059l-0.33948,0.50922l-0.77677,0.70616l-0.70616,0.77677l-0.50922,0.33949l-0.02059,0.00734l-0.02629,0.02391l-0.03405,-0.00235l-0.12165,0.04345l-0.08989,0.15728l-1.16843,0.29211l-1.13424,0.40507l-0.16203,-0.08101l-0.2087,0.05217h-1.18818l-2.17408,-0.54352l-0.23571,0.01625l-0.11408,-0.1037l-0.14956,-0.03739l-0.11723,-0.20514l-1.30707,-1.18824l-0.02254,-0.01353l-0.07667,-0.07667l-0.25191,-0.229l-0.33949,-0.50922l-0.01633,-0.0457l-0.32315,-0.29378l-0.67896,-1.01844l-0.07236,-0.20258l-0.15729,-0.08989l-0.29211,-1.16843l-0.09994,-0.27982l-0.06363,-0.08809l-0.13272,-0.3318l-0.19106,-0.28658l-0.67469,-0.78713l-0.7035,-0.7035l-0.198,-0.33001l-0.29867,-0.24267l-1.01845,-1.35793l-0.05896,-0.14002l-0.11241,-0.1022l-0.21849,-0.32772l-0.20048,-0.16039l-0.18247,-0.23949l-0.25817,-0.1549l-2.941,-2.941l-3.60036,-0.41542h-4.3604v2.10154l0.06591,0.32954l-0.01533,0.32188l0.06743,0.30341l0.31846,0.73247l0.16974,1.01844l-0.03565,0.44546l0.10839,0.43354v7.10888l0.04426,0.22128c0.08216,0.37252 0.12548,0.75964 0.12548,1.15686c0,0.53823 -0.07952,1.05789 -0.22747,1.54786l-0.00744,0.15612l-0.0603,0.05252c-0.72667,2.09015 -2.71395,3.59033 -5.0516,3.59033c-1.58323,0 -3.00575,-0.68812 -3.98477,-1.78162l-0.07854,-0.02619l-0.06913,-0.14592c-0.56753,-0.69039 -0.96545,-1.52552 -1.12998,-2.44163l-0.1503,-0.75157l0.02533,-0.53195l-0.12917,-0.51665v-7.1932l-0.21126,-0.95064l-0.12845,-0.51385l-0.06568,-0.13864l-0.16973,-0.84871l0.02533,-0.53195l-0.12916,-0.51665v-15.5204l-0.0651,-0.1023l-0.12005,-0.36016l-0.06902,-0.17254l-0.24038,-0.20604l-0.01172,-0.2108l-0.18331,-0.10475l-0.66835,-2.67341v-0.36022l-0.01009,-0.04039v-0.65823l-0.15964,-0.63856v-0.02073l-0.17983,-0.71936v-0.30303l-0.03142,-0.14137l-0.29797,-1.19188v-0.14899l-0.0333,-0.14991l0.0333,-0.04997v-2.87621l0.1084,-0.43354l-0.03565,-0.44546l0.50922,-3.05533l0.01046,-0.02405l-0.00184,-0.02614l0.42786,-2.42456v-1.58945l-0.26157,-1.04628l-0.20471,-0.51177l-0.13682,-1.00335l-0.2456,-0.98241v-2.20662l0.54352,-2.17406l-0.01625,-0.23571l0.1037,-0.11407l0.03739,-0.14956l0.20514,-0.11723l1.50745,-1.65819l0.50922,-0.33949l0.20258,-0.07235l0.08989,-0.15728l1.16843,-0.29211l1.13424,-0.40509l0.16203,0.08101l0.2087,-0.05217h0.84871l0.83384,0.20845l0.85698,0.06592l0.31442,0.10481l1.1991,0.29978h1.37866l0.57125,0.14282l0.58864,-0.01549l0.95472,0.21215h1.95917l0.83384,0.20845l0.2158,0.01661l0.12792,-0.05532l0.18936,0.07973l0.32389,0.02492l0.50922,0.16974l0.23661,0.15057l0.1519,-0.26582l0.53505,-0.13377l0.15345,-0.19729l1.08445,-0.11219l0.90044,-0.22511h4.07376l0.92752,0.23187l0.94988,0.10855l0.86771,0.32538l0.03062,-0.00834l0.08812,0.05287l0.37148,0.1393l0.93227,0.64295l0.9711,0.58266l0.28054,0.28054l0.0846,0.05834l0.00507,0.03132l0.30875,0.30875l0.5636,0.93934l0.81803,0.70116l0.00803,0.14467l0.09338,0.09338l0.17056,0.28428l0.04378,0.04378l0.5427,0.90452l0.35499,0.20286l0.16663,0.6665l0.35346,0.58912l-0.10758,0.39444l0.25584,1.02335v0.07361l0.1268,0.31699l0.07823,0.57376l0.20313,0.48243l0.03958,0.08354l0.43915,0.54049l0.3119,0.17823l0.07426,0.29705l0.19308,0.23764l-0.00359,0.02864l0.02672,0.02672l0.27399,0.45665l0.39405,0.35824l0.33949,0.50922l0.11364,0.31818l0.21988,0.25653l0.01372,0.02744l0.05214,0.0298l0.03725,0.14899l0.06662,0.13325l0.26651,1.19929l0.03489,0.13954l0.12218,0.34211l-0.02444,0.04887l0.16534,0.66134v0.14899l0.03332,0.1499l-0.03332,0.04997v0.49983l-0.20845,0.83384l-0.06592,0.85698l-0.05941,0.17825l0.01579,0.05795l-0.07901,0.13169l-0.04711,0.14133l-0.1744,0.27407l-0.04983,0.19932l-0.121,0.06915l-0.31435,0.49395l-0.63208,1.05348l-0.10536,0.10534l-0.08245,0.12956l-0.05889,0.01179l-0.43228,0.43227l-0.50922,0.84871l-0.10536,0.10534l-0.08245,0.12956l-0.05889,0.01179l-0.09098,0.09098l-0.01273,0.03562l-0.15482,0.23224l-0.02088,0.04175l-0.0313,0.03652l-0.13247,0.19871l-0.07181,0.06529l-0.09793,0.2742l-0.15483,0.23224l-0.19061,0.38123l-0.04703,0.05486l-0.05684,0.22737l-0.27056,0.15462l-0.41123,0.47978l-0.33975,0.56625l-0.16663,0.66651l-0.35499,0.20285l-0.5427,0.90452l-0.04378,0.04378l-0.17056,0.28428l-0.19849,0.19849l-0.10892,0.25869l-0.50922,0.67896l-0.03365,0.02734l-0.00069,0.00109l-0.63209,1.05348l-0.0928,0.09279l-0.01177,0.0589l-0.05085,0.03237l-0.03237,0.05085l-0.0589,0.01179l-0.0928,0.09279l-1.05348,0.63209l-0.19841,0.12627l-0.07222,0.07944l-0.0687,0.04579l-0.13486,0.13486l-0.73702,0.44221l-0.65258,0.55936l-0.49395,0.24698l0.13626,0.13625l0.03466,-0.01732l1.13424,0.40507l1.16843,0.29211l0.08989,0.15729l0.2026,0.07236l0.50922,0.33948l0.35822,0.39406l0.45667,0.27399l0.48076,0.48076l0.08535,0.00474l0.68976,0.80472l0.80472,0.68976l0.01479,0.26634l0.28409,0.33144l0.2559,0.5118l0.14011,0.17514l0.34361,0.34361l0.28428,0.17056l0.19677,0.19677l0.01877,0.0089l0.24163,0.10173l0.04603,0.03452l0.14908,0.07061l0.87538,0.26643l0.84869,0.50922l0.19849,0.19849l0.2587,0.10893l0.45831,0.34373l0.61219,0.36731l0.19849,0.19849l0.25869,0.10892l0.67896,0.50923l0.47937,0.58999l0.58999,0.47937l0.06161,0.08214l0.00783,0.00043l0.07458,0.08701l0.27658,0.22126l0.69543,0.91276l0.74677,0.87123l0.15841,0.31682l0.05725,0.07513c0.28735,-3.89825 1.41757,-6.17752 2.23138,-10.23849c0.7862,-3.92311 0.06223,-10.78031 0.09734,-15.3063c0.03524,-4.54325 -2.455,-18.51998 2.67341,-20.70765c8.26433,-3.52539 17.96416,-0.89114 26.94626,-0.66835c5.94441,0.14744 6.24186,6.45682 2.67341,10.02528c-4.01891,4.01891 -11.384,0.08586 -17.03767,0.66835c-0.49312,0.05081 0.29514,0.95141 0.3607,1.44279c0.13541,1.01497 0.15108,2.20843 0.16973,3.22507c0.03575,1.94844 0.1028,6.27734 0.33949,6.36525c3.0549,1.13468 7.46568,-0.64031 8.21263,4.16523c0.57356,3.68998 -1.24431,6.10856 -4.50335,7.73808c-1.08292,0.54145 -4.19154,-0.14034 -4.21851,1.37796c-0.02085,1.17415 -0.02829,2.34902 0,3.52302c0.00756,0.31393 0.60874,0.15816 0.9187,0.20845c1.54023,0.24995 2.68622,-0.06143 4.42811,0.13102c0.51411,0.05681 3.00501,0.64276 3.59298,1.33114c0.60262,0.70553 0.62667,2.69581 1.48855,2.35215c3.07885,-1.22759 4.41457,-2.02067 6.95272,-0.71557c0.42858,-4.68908 0.96101,-9.44476 1.96902,-13.47678c1.06095,-4.24377 3.99941,-8.10059 4.79809,-12.56525c0.69679,-3.89504 -0.74195,-7.97846 0.79303,-11.76487c1.16556,-2.87516 8.03467,-3.89693 10.5095,-3.03437c4.41741,1.53961 5.0339,6.9113 4.60799,10.96972c-0.15117,1.44056 -1.292,5.44248 -0.00917,6.38402c0.08886,0.06522 1.02135,-0.58413 1.18651,-0.73906c2.69148,-2.52479 1.41862,-7.42521 2.5982,-10.32054c1.88764,-4.6333 7.69248,-8.29365 12.7317,-5.77404c4.0092,2.00459 3.35232,7.6257 3.18263,11.46808c-0.33242,7.52688 2.75233,15.9695 5.02632,23.30452c0.7769,2.50602 1.99853,5.06007 2.58281,7.67808h0.52661l0.63858,0.15964h0.65822l0.71936,0.17983zM374.10128,156.29663l-0.21081,0.01172l-0.10475,0.18331l-2.67341,0.66835h-2.04348l-1.02761,0.12844l-0.33541,-0.04065l-0.32778,0.08194h-0.01749l-0.50044,0.30027l-0.46543,0.46543l-0.61219,0.3673l-0.45831,0.34373l-0.3375,0.14211l-0.59739,1.49348l-0.32118,1.71299v4.76501l-0.16973,0.67896v19.43525h3.0124l0.52607,-0.3035l1.18818,-0.33948l2.75416,-0.09181l0.05644,0.0551l0.07608,-0.02076l2.36298,1.4178l0.50922,0.50922l0.5427,0.90452l0.35499,0.20285l0.16663,0.66651l0.35347,0.58911l-0.10758,0.39444l0.25583,1.02335v0.50922l0.12823,-0.51291l0.26651,-1.19929l0.06662,-0.13325l0.03725,-0.14899l0.05214,-0.02979l1.03216,-2.06433l0.07752,-0.09043l0.03086,-0.11504l0.27913,-0.50242l0.13921,-0.83527l0.39833,-0.91617l0.29088,-0.95574l0.27762,-0.46269l-0.00309,-0.04487l0.08828,-0.09711l0.14641,-0.24403l0.82968,-0.82968l0.78929,-0.86822l0.23678,-0.15786l0.09281,-0.0928l0.04496,0.00095l0.64389,-0.42925l0.46584,-0.16638l0.39383,-0.2993l0.33024,-0.14152l0.24643,-0.41072l0.51566,-0.51566l0.39196,-0.61497l3.02345,-2.86431l2.85042,-3.32548l0.25896,-0.31077l-0.13331,-0.15553l-0.07183,-0.01002l-0.05772,-0.07992l-0.03259,-0.01956l-0.33949,-0.33949l-0.27247,-0.45411l-0.21987,-0.25653l-0.07581,-0.1516l-0.06312,-0.04495l-0.01682,-0.11492l-0.014,-0.02799l-0.00731,-0.03289l-0.51423,-0.71201l-0.21323,-0.53309l-0.02094,-0.03489l0.00284,-0.01037l-0.02555,-0.06386l-0.82715,-1.65429l-1.41325,-2.35543l-2.31022,-3.79535l-2.31523,-3.47286l-0.19997,-0.55989l-0.34164,-0.48658l-0.5101,-1.32626l-0.62988,-0.00985l-1.86909,-0.49842h-3.50054zM235.28401,170.00523l0.10949,-0.12045l0.2564,-0.17093l0.30343,-0.40456l0.3673,-0.61219l0.24051,-0.24051l0.1751,-0.70042l0.01061,-0.00607v-7.92929h-0.59409l-0.72351,-0.18088l-0.74537,-0.02484l-0.79167,-0.22619l-0.94873,-0.11859l-0.30575,-0.11835h-0.32785l-1.35791,-0.33948l-0.18499,-0.09865l-0.20902,-0.01608l-1.52767,-0.50922l-0.63577,-0.40459h-1.4077l-0.57125,-0.14281l-0.58864,0.01549l-0.11316,-0.02515v1.93474l-0.11454,0.45814l0.03317,0.47107l-0.5048,2.86051l-0.43228,2.59372v1.8063l0.0101,0.01893l0.09579,0.3832l1.39677,-0.38093l0.66882,0.4013l0.32317,-0.02229l0.69943,0.63586l0.67156,0.40292l0.81032,0.81032z" fill="#fd579d" stroke="none" stroke-width="0.5"/><path d="M375.02849,152.14823v-10.36958h15.77041l10.58562,12.63793l14.58223,-12.63793h5.94091l5.29281,8.20925l-15.33834,14.69025h-23.76363z" fill="#fc72ac" stroke="#2b00ff" stroke-width="0"/><path d="M341.3619,158.06855v-14.90627h36.40156v14.90627h-12.96198l-0.43207,6.26496l-11.4869,0.14965l-1.25904,-6.41461z" fill="#fc72ac" stroke="#2b00ff" stroke-width="0"/><path d="M315.40412,164.40552l3.16849,-15.64439l15.84242,-0.79212v16.43651z" fill="#fc72ac" stroke="#2b00ff" stroke-width="0"/><path d="M297.77943,164.40552v-16.83258h15.64439v16.83258z" fill="#fc72ac" stroke="#2b00ff" stroke-width="0"/><path d="M256.98519,162.62325v-15.64439h35.05135v9.1094l-21.01426,2.10287l-0.37301,4.43213z" fill="#fc72ac" stroke="#2b00ff" stroke-width="0"/><path d="M214.01263,162.22719v-13.07h35.84348v13.07z" fill="#fc72ac" stroke="#2b00ff" stroke-width="0"/><text transform="translate(368.32912,191.14087) scale(1.84711,1.84711)" font-size="40" xml:space="preserve" fill="#000000" stroke="none" stroke-width="1" font-family="&quot;FridayNightFunkin-Regular&quot;, Sans Serif" font-weight="normal" text-anchor="start"><tspan x="0" dy="0">X</tspan></text><text transform="translate(251.37811,194.70542) scale(1.84711,1.84711)" font-size="40" xml:space="preserve" fill="#000000" stroke="none" stroke-width="1" font-family="&quot;FridayNightFunkin-Regular&quot;, Sans Serif" font-weight="normal" text-anchor="start"><tspan x="0" dy="0">E</tspan></text><path d="M289.71385,192.78043c0,-5.24971 2.16586,-9.50545 4.8376,-9.50545c2.67172,0 4.8376,4.25575 4.8376,9.50545c0,5.24971 -2.16588,9.50545 -4.8376,9.50545c-2.67172,0 -4.8376,-4.25575 -4.8376,-9.50545z" fill="#fd579d" stroke="none" stroke-width="0.5"/><text transform="translate(285.32616,193.85672) scale(1.84711,1.84711)" font-size="40" xml:space="preserve" fill="#000000" stroke="none" stroke-width="1" font-family="&quot;FridayNightFunkin-Regular&quot;, Sans Serif" font-weight="normal" text-anchor="start"><tspan x="0" dy="0">M</tspan></text><text transform="translate(208.94305,197.1898) scale(1.84711,1.84711)" font-size="40" xml:space="preserve" fill="#000000" stroke="none" stroke-width="1" font-family="&quot;FridayNightFunkin-Regular&quot;, Sans Serif" font-weight="normal" text-anchor="start"><tspan x="0" dy="0">R</tspan></text><text transform="translate(334.72056,193.51724) scale(1.84711,1.84711)" font-size="40" xml:space="preserve" fill="#000000" stroke="none" stroke-width="1" font-family="&quot;FridayNightFunkin-Regular&quot;, Sans Serif" font-weight="normal" text-anchor="start"><tspan x="0" dy="0">I</tspan></text><path d="M212.94359,206.72692v-21.6033h13.7181v21.6033z" fill-opacity="0.37255" fill="#000000" stroke="#2b00ff" stroke-width="0"/><path d="M241.89201,203.59444l-11.55777,-18.36281h18.57884l5.05262,10.03976l-0.51592,8.43106z" fill-opacity="0.37255" fill="#000000" stroke="none" stroke-width="0"/><path d="M256.6349,201.86618v-16.41851h33.70115v16.41851z" fill-opacity="0.37255" fill="#000000" stroke="#2b00ff" stroke-width="0"/><path d="M291.67704,200.84161v-15.66239h11.66578v15.66239z" fill-opacity="0.37255" fill="#000000" stroke="#2b00ff" stroke-width="0"/><path d="M327.0305,200.30153v-13.17801h46.66313v13.17801z" fill-opacity="0.37255" fill="#000000" stroke="#2b00ff" stroke-width="0"/><path d="M376.47386,197.70914v-10.15355h14.15016v10.15355z" fill-opacity="0.37255" fill="#000000" stroke="none" stroke-width="0"/><path d="M415.21233,198.57327l-9.28942,-10.90967h15.77041l1.51223,3.02446z" fill-opacity="0.37255" fill="#000000" stroke="none" stroke-width="0"/></g></g></svg>