<svg version="1.1" xmlns="http://www.w3.org/2000/svg" xmlns:xlink="http://www.w3.org/1999/xlink" width="188.61842" height="147.26461" viewBox="0,0,188.61842,147.26461"><g transform="translate(-229.57702,-111.26638)"><g stroke-miterlimit="10"><path d="M385.69906,203.14497c0.93574,0.53985 1.61955,1.00772 2.05143,1.36762c1.4396,1.25965 2.33935,2.08741 2.66326,2.41132c1.18768,1.18767 1.94346,2.19539 2.26737,2.98717c1.15168,2.91519 2.05143,5.07459 2.73524,6.40622c0.10798,0.28792 0.14396,1.7995 0.14396,4.49875c-0.03599,6.26226 -2.69925,11.26487 -8.02577,15.00784c-2.05143,1.4396 -4.35479,2.55528 -6.8741,3.34707c-2.23138,0.68381 -4.21083,1.04372 -6.01033,1.04372c-6.26226,0 -10.68903,-2.62727 -13.3163,-7.9178c-1.4396,-2.8792 -2.1594,-5.83038 -2.1594,-8.88954c0,-2.26737 0.10797,-3.88692 0.32391,-4.93063c0.25193,-1.15168 0.93574,-3.09514 2.08742,-5.86638c0.28792,-0.68381 0.86376,-1.54757 1.72752,-2.62727c1.04371,-1.22366 2.01544,-2.1594 2.95118,-2.77123c1.36762,-0.86376 3.56301,-1.69153 6.58617,-2.41133c3.16712,-0.75579 4.75068,-1.15168 4.78667,-1.15168c0.25193,-0.14397 0.64783,-0.46787 1.22366,-1.04371c0.82776,-0.46787 2.23138,-0.64782 4.24682,-0.50386c0.57583,0 1.4396,0.3599 2.59128,1.04372M386.16693,210.99079c-2.37534,-1.97945 -5.29054,-2.80721 -8.81755,-2.5193c-3.45504,0.3599 -6.37023,1.7635 -8.78156,4.17483c-2.66326,2.69925 -3.99489,6.04633 -3.99489,10.07721c0,2.44733 0.53985,4.71469 1.54757,6.76612c1.72752,3.49104 4.57073,5.21855 8.56562,5.21855c1.69153,0 4.17485,-0.71979 7.37795,-2.15939c3.2391,-1.4396 5.07458,-2.69925 5.57845,-3.70697c1.47559,-2.77123 2.30336,-4.35479 2.44733,-4.75068c0.03599,-0.10797 0.07198,-1.22366 0.07198,-3.31108c0,-4.3188 -1.33163,-7.55791 -3.99489,-9.78929M362.44952,187.02145c0,10.61705 -1.8355,20.01045 -5.4345,28.21617c-5.29053,11.91269 -13.85614,19.18267 -25.66087,21.77395h-9.7173c-3.56301,-0.43188 -6.87409,-1.94346 -10.00522,-4.60672c-0.75579,-0.68381 -1.4396,-1.33163 -2.01544,-1.97945c-0.14397,0.39589 -0.32391,0.79178 -0.50385,1.15168c-4.35479,9.06948 -9.82528,15.29575 -16.41145,18.67882c-4.24682,2.19539 -9.42938,3.27509 -15.54769,3.27509c-8.6736,0 -16.33946,-1.97945 -22.96162,-5.93835c-6.22627,-3.70697 -10.83299,-8.67359 -13.85615,-14.93585c-3.16712,-6.58617 -4.96662,-10.90498 -5.3985,-12.84844c-0.21594,-1.18767 -0.3599,-2.59128 -0.3599,-4.28281c0.03599,-2.37534 0.03599,-4.49875 0.03599,-6.33424c0,-7.12602 0.79179,-13.3163 2.30336,-18.57084c1.58356,-5.47048 4.57073,-12.05665 8.9975,-19.75852c1.94346,-3.41905 5.00261,-6.65815 9.21344,-9.75329c5.32652,-3.9589 11.22888,-6.5142 17.77907,-7.70186c7.70186,-1.36762 14.25204,0.17996 19.65054,4.7147c1.83549,1.54757 3.34706,3.27509 4.53474,5.21855c0.86376,-2.66326 2.05143,-5.21855 3.56302,-7.66587c3.13113,-5.00261 7.30596,-8.99751 12.48853,-11.98467c5.00261,-2.91519 10.11319,-4.39077 15.29576,-4.46275c5.39851,-0.07198 9.93324,1.43959 13.60422,4.49874c5.83038,3.05915 10.833,9.78929 15.04383,20.22639c1.69153,4.17485 3.02316,8.42166 3.99489,12.81244c0.89975,4.06688 1.36762,7.48592 1.36762,10.25715M355.93533,179.42756c-1.00772,-5.18256 -2.41132,-9.96923 -4.13885,-14.36002c-5.50648,-13.42427 -13.31631,-20.1544 -23.50148,-20.1544c-8.6376,0 -15.54769,3.34707 -20.76623,10.0772c-1.65554,2.12341 -3.02316,4.46276 -4.13885,7.05404c-0.61183,1.29564 -1.00772,2.44732 -1.29564,3.45504c-1.18767,3.34707 -1.83548,7.12602 -1.97945,11.33685c0,0.89975 0.14395,3.02316 0.46786,6.33424c0.03599,0.82776 0,1.54757 -0.07198,2.12341c4.49875,-1.18767 7.34196,-1.76351 8.52964,-1.76351c2.37534,0 3.88692,3.92292 4.60672,11.76873c0.32391,3.92291 0.43188,7.88181 0.32391,11.84071c0,3.92291 -0.46788,8.13375 -1.33163,12.70448c-0.25193,1.33163 -0.53985,2.62727 -0.82776,3.85093c0.28792,0.17995 0.57584,0.46787 0.82776,0.79178c0.3599,0.50385 0.97173,1.47559 1.79951,2.84321c2.08742,2.77123 6.15428,4.13886 12.20061,4.13886c12.52452,0 21.34207,-7.26998 26.45266,-21.84593c1.61955,-4.60672 2.77123,-9.68131 3.41906,-15.25976c0.21594,-1.76351 0.3599,-3.49103 0.46787,-5.18256c0.03599,-0.93574 0.07198,-1.69153 0.07198,-2.23138c0,-1.36762 -0.39589,-3.88692 -1.11569,-7.52191M293.24073,176.22444c-1.22366,1.0797 -2.23138,2.05144 -2.98717,2.8792c-0.68381,0.79179 -1.51158,1.7995 -2.41133,3.09513c-0.97173,1.40361 -1.69153,2.41133 -2.1594,3.02316c-1.61955,2.12341 -3.02317,3.16712 -4.17484,3.16712c-0.68381,0 -1.65554,-0.43188 -2.8792,-1.33163c-1.58356,-1.22366 -2.80723,-2.19539 -3.70697,-2.91519c-3.599,-2.84321 -6.62216,-4.28281 -9.06948,-4.28281c-4.46276,0 -7.62988,3.52702 -9.50136,10.61705c-0.93574,3.56301 -1.4396,7.162 -1.47559,10.797c0,6.01033 0.79179,11.22888 2.33935,15.65566c3.16712,8.9975 9.06949,13.49625 17.63511,13.49625c7.41394,0 12.27259,-2.23138 14.61194,-6.65815c0.7198,-1.47559 1.18767,-3.13113 1.36762,-5.0386c0.03599,-0.28792 0.03599,-1.36762 0.03599,-3.23909v-0.39589l-0.10797,-0.53985c-10.50908,6.29825 -16.55541,9.42938 -18.10297,9.42938c-2.08742,0 -3.52702,-1.69153 -4.28281,-5.07459c-0.21594,-1.04371 -0.43187,-2.44732 -0.61183,-4.21083c-0.21594,-1.83549 -0.3599,-2.98717 -0.43188,-3.38306c-0.61183,-2.95118 -1.07969,-5.32651 -1.43959,-7.12602c-0.68381,-3.31108 -1.00772,-5.14657 -1.00772,-5.43449c0,-1.58356 2.62727,-3.27509 7.88181,-5.0746c1.36762,-0.46787 3.56301,-1.15168 6.55018,-2.05143c2.66326,-0.79179 4.42677,-1.36762 5.36251,-1.72752c1.90747,-0.7198 5.93836,-1.94347 12.09264,-3.635c0.14397,-0.03599 0.28792,-0.07197 0.43188,-0.10796c-0.61183,-1.11569 -1.0797,-2.98717 -1.36763,-5.57845c-0.17995,-1.43961 -0.28792,-2.98717 -0.32391,-4.71469v-1.54757c-0.93574,0.79179 -1.69154,1.4396 -2.26738,1.90748M288.99392,161.57651c-3.45504,-3.38306 -7.34196,-4.64271 -11.69675,-3.77895c-14.61194,1.94346 -25.15702,9.53735 -31.63521,22.81766c-2.37534,4.78667 -4.06687,10.14919 -5.14658,16.05155c-0.79179,4.3188 -1.18766,8.52963 -1.18766,12.59651c0,2.33935 0.28792,5.00261 0.82777,7.95379c0.89974,4.93063 2.41133,9.39339 4.49875,13.38828c6.40623,12.12864 17.27521,18.17495 32.60694,18.17495c11.51681,0.03599 20.11841,-5.47047 25.80483,-16.44742c2.12341,-4.03088 3.70696,-8.6376 4.78666,-13.78418c0.82776,-4.06688 1.25966,-7.88182 1.25966,-11.44483c-0.03599,-3.16712 -0.17996,-6.15429 -0.3599,-9.03349c-0.3599,-5.68642 -0.89975,-8.52963 -1.54757,-8.52963c-2.51931,0 -9.32141,1.87148 -20.33435,5.65043c-3.67098,1.25965 -7.37796,2.55529 -11.04893,3.92291c-3.16712,1.15168 -4.78666,1.7995 -4.78666,1.83549c0,0.64782 0.39588,3.02317 1.15167,7.198c0.86376,4.75069 1.58356,7.84582 2.1954,9.3574c12.2366,-6.69414 18.49886,-10.00522 18.82277,-10.00522c1.61955,0 2.62727,1.11569 2.98717,3.38306c0.17995,1.15168 0.21595,2.30335 0.07199,3.49103c0,2.84321 0,4.42677 -0.03599,4.75068c-0.21594,2.73524 -0.86376,5.18256 -1.87148,7.26998c-3.09515,6.37024 -9.60933,9.53735 -19.54257,9.53735c-10.11319,0 -17.23921,-4.46276 -21.41405,-13.38828c-2.62727,-5.65043 -3.9589,-12.70447 -3.9589,-21.19811c0,-4.93063 0.75579,-9.64532 2.19539,-14.18006c2.73524,-8.52963 7.44993,-12.77645 14.18006,-12.77645c3.2391,0 6.40622,1.04371 9.53735,3.09515c0.79179,0.53985 1.87148,1.33163 3.2391,2.41133c1.11569,0.89975 1.90747,1.47559 2.33935,1.69153c1.54757,-1.94346 4.06687,-4.71469 7.62988,-8.2777c3.05915,-3.09515 4.60672,-4.71468 4.60672,-4.82266c0,-0.61183 -0.32391,-1.58357 -1.04371,-2.84322c-0.86376,-1.51157 -1.87148,-2.84321 -3.13112,-4.06687M347.15377,186.40962c0.10798,1.29564 0.17995,3.38306 0.17995,6.22627c0,0.14397 0.03599,1.29564 0.14396,3.38306c-0.03599,2.41133 -0.39589,4.57074 -1.04371,6.5142c-2.08742,6.1183 -6.87408,9.17745 -14.396,9.17745c-6.29825,0 -10.94097,-2.62727 -13.96412,-7.9178c-2.15939,-3.77895 -3.2391,-8.24171 -3.2391,-13.35229c0,-6.15429 0.89975,-11.5528 2.73524,-16.1955c3.13113,-7.98978 8.34969,-10.36513 15.61967,-7.12602c6.33424,3.27509 10.50908,7.48592 12.48853,12.6325c0.75579,1.94346 1.25965,4.17485 1.47559,6.65815M319.62141,186.44561c0,3.63499 0.43188,7.12602 1.25965,10.50908c1.58356,6.29825 4.24682,9.42938 8.02577,9.42938c5.65043,0 9.3574,-1.18767 11.12091,-3.56301c0.79178,-1.0797 1.33163,-2.5193 1.61955,-4.35479c0.17994,-1.33163 0.28792,-3.31107 0.28792,-5.90235c0,-2.59128 -0.03599,-4.28282 -0.10798,-5.14658c-0.17994,-2.51931 -0.6838,-4.75068 -1.47558,-6.62216c-2.30336,-5.47048 -7.09003,-8.42167 -14.32403,-8.85355c-2.26737,-0.03599 -3.9589,1.90748 -5.14657,5.86638c-0.82776,2.80722 -1.25965,5.68642 -1.25965,8.6376M411.46791,127.70992c-1.00772,4.53474 -1.87148,8.3137 -2.55529,11.26488c-0.43188,1.69153 -1.33163,4.96662 -2.69925,9.75329c-1.15168,4.10287 -1.97946,7.34196 -2.5193,9.68131c-0.57583,2.51931 -1.18766,5.7584 -1.90747,9.68131c-1.00772,5.68642 -1.61955,8.92551 -1.76351,9.75329c-0.14396,0.68381 -0.32391,2.30337 -0.57584,4.89465c-0.17994,1.97945 -0.46787,3.599 -0.86376,4.82266c-0.10798,0.28792 -0.25193,1.07971 -0.39589,2.44733c-0.14396,1.25965 -0.3599,2.23138 -0.64782,2.8792c-0.93574,2.12341 -2.98717,2.59128 -6.19028,1.33163h-14.21605c-0.50387,0.21594 -1.76351,0.46787 -3.88692,0.68381c-1.97945,0.17995 -3.67098,0.28791 -5.0386,0.28791c-1.97945,0 -3.31108,-0.43188 -3.92291,-1.33163c-0.28792,-0.3599 -0.39589,-0.86377 -0.39589,-1.51158c0,-0.86376 0.21594,-1.61955 0.68381,-2.33935c0.68381,-1.04371 1.72752,-1.51158 3.16712,-1.40361c-0.32391,-2.23138 -0.86377,-8.92552 -1.69153,-20.04644c-0.86376,-11.55279 -1.29564,-18.49886 -1.29564,-20.76623c0.03599,-1.25965 0.10797,-2.44732 0.14396,-3.59901c0.10798,-2.23138 0.14397,-3.95889 0.10798,-5.14657v-16.48343c-0.17994,-0.89974 -0.036,-1.65554 0.39588,-2.26737c0.75579,-1.07971 2.33935,-1.54757 4.75068,-1.40361c3.16712,0.21594 6.15429,0.10797 8.92552,-0.25193c3.31108,-0.43188 6.01033,-0.64782 8.09776,-0.64782c4.3188,0 8.56563,-0.21594 12.74046,-0.68381c2.30336,-0.25193 4.93063,-0.61182 7.98979,-1.0797c2.05143,-0.25193 3.41905,-0.21594 4.10286,0.10797c0.79178,0.3599 1.18767,1.29564 1.18767,2.80721c0,0.53985 -0.57584,3.38306 -1.72753,8.56563M387.82247,123.53508c-4.42678,0.57583 -10.29315,0.93574 -17.59912,1.0797v14.36002c-0.03599,1.04371 -0.10797,2.80721 -0.25193,5.21855c-0.10798,2.19539 -0.17995,3.41905 -0.17995,3.67098c0,3.9589 0.32391,10.94097 1.00772,20.94619c0.53985,8.13374 0.61183,14.89986 0.25193,20.33435c-0.03599,0.14397 -0.03599,0.21594 -0.10797,0.28792c2.69925,-0.17995 4.60672,-0.39589 5.68642,-0.64782h15.47571c1.00772,-4.21083 2.1594,-9.7173 3.45504,-16.55541c1.4396,-7.59389 2.48331,-13.17234 3.20311,-16.73535c0.68381,-3.49103 2.05144,-9.06949 4.06688,-16.66338c1.90747,-7.23399 3.20311,-12.74046 3.88692,-16.44743v-0.10797c-7.80983,0.21594 -14.10808,0.64782 -18.89475,1.25965z" fill="#000000" stroke-opacity="0.50196" stroke="#00ff06" stroke-width="10"/><path d="" fill="#000000" stroke="none" stroke-width="1"/><path d="M386.56283,202.4145c0.93574,0.53985 1.61955,1.00772 2.05143,1.36762c1.4396,1.25965 2.33935,2.08741 2.66326,2.41132c1.18768,1.18767 1.94346,2.19539 2.26737,2.98717c1.15168,2.91519 2.05143,5.07459 2.73524,6.40622c0.10798,0.28792 0.14396,1.7995 0.14396,4.49875c-0.03599,6.26226 -2.69925,11.26487 -8.02577,15.00784c-2.05143,1.4396 -4.35479,2.55528 -6.8741,3.34707c-2.23138,0.68381 -4.21083,1.04372 -6.01033,1.04372c-6.26226,0 -10.68903,-2.62727 -13.3163,-7.9178c-1.4396,-2.8792 -2.1594,-5.83038 -2.1594,-8.88954c0,-2.26737 0.10797,-3.88692 0.32391,-4.93063c0.25193,-1.15168 0.93574,-3.09514 2.08742,-5.86638c0.28792,-0.68381 0.86376,-1.54757 1.72752,-2.62727c1.04371,-1.22366 2.01544,-2.1594 2.95118,-2.77123c1.36762,-0.86376 3.56301,-1.69153 6.58617,-2.41133c3.16712,-0.75579 4.75068,-1.15168 4.78667,-1.15168c0.25193,-0.14397 0.64783,-0.46787 1.22366,-1.04371c0.82776,-0.46787 2.23138,-0.64782 4.24682,-0.50386c0.57583,0 1.4396,0.3599 2.59128,1.04372M387.0307,210.26032c-2.37534,-1.97945 -5.29054,-2.80721 -8.81755,-2.5193c-3.45504,0.3599 -6.37023,1.7635 -8.78156,4.17483c-2.66326,2.69925 -3.99489,6.04633 -3.99489,10.07721c0,2.44733 0.53985,4.71469 1.54757,6.76612c1.72752,3.49104 4.57073,5.21855 8.56562,5.21855c1.69153,0 4.17485,-0.71979 7.37795,-2.15939c3.2391,-1.4396 5.07458,-2.69925 5.57845,-3.70697c1.47559,-2.77123 2.30336,-4.35479 2.44733,-4.75068c0.03599,-0.10797 0.07198,-1.22366 0.07198,-3.31108c0,-4.3188 -1.33163,-7.55791 -3.99489,-9.78929M363.31329,186.29098c0,10.61705 -1.8355,20.01045 -5.4345,28.21617c-5.29053,11.91269 -13.85614,19.18267 -25.66087,21.77395h-9.7173c-3.56301,-0.43188 -6.87409,-1.94346 -10.00522,-4.60672c-0.75579,-0.68381 -1.4396,-1.33163 -2.01544,-1.97945c-0.14397,0.39589 -0.32391,0.79178 -0.50385,1.15168c-4.35479,9.06948 -9.82528,15.29575 -16.41145,18.67882c-4.24682,2.19539 -9.42938,3.27509 -15.54769,3.27509c-8.6736,0 -16.33946,-1.97945 -22.96162,-5.93835c-6.22627,-3.70697 -10.83299,-8.67359 -13.85615,-14.93585c-3.16712,-6.58617 -4.96662,-10.90498 -5.3985,-12.84844c-0.21594,-1.18767 -0.3599,-2.59128 -0.3599,-4.28281c0.03599,-2.37534 0.03599,-4.49875 0.03599,-6.33424c0,-7.12602 0.79179,-13.3163 2.30336,-18.57084c1.58356,-5.47048 4.57073,-12.05665 8.9975,-19.75852c1.94346,-3.41905 5.00261,-6.65815 9.21344,-9.75329c5.32652,-3.9589 11.22888,-6.5142 17.77907,-7.70186c7.70186,-1.36762 14.25204,0.17996 19.65054,4.7147c1.83549,1.54757 3.34706,3.27509 4.53474,5.21855c0.86376,-2.66326 2.05143,-5.21855 3.56302,-7.66587c3.13113,-5.00261 7.30596,-8.99751 12.48853,-11.98467c5.00261,-2.91519 10.11319,-4.39077 15.29576,-4.46275c5.39851,-0.07198 9.93324,1.43959 13.60422,4.49874c5.83038,3.05915 10.833,9.78929 15.04383,20.22639c1.69153,4.17485 3.02316,8.42166 3.99489,12.81244c0.89975,4.06688 1.36762,7.48592 1.36762,10.25715M356.7991,178.69709c-1.00772,-5.18256 -2.41132,-9.96923 -4.13885,-14.36002c-5.50648,-13.42427 -13.31631,-20.1544 -23.50148,-20.1544c-8.6376,0 -15.54769,3.34707 -20.76623,10.0772c-1.65554,2.12341 -3.02316,4.46276 -4.13885,7.05404c-0.61183,1.29564 -1.00772,2.44732 -1.29564,3.45504c-1.18767,3.34707 -1.83548,7.12602 -1.97945,11.33685c0,0.89975 0.14395,3.02316 0.46786,6.33424c0.03599,0.82776 0,1.54757 -0.07198,2.12341c4.49875,-1.18767 7.34196,-1.76351 8.52964,-1.76351c2.37534,0 3.88692,3.92292 4.60672,11.76873c0.32391,3.92291 0.43188,7.88181 0.32391,11.84071c0,3.92291 -0.46788,8.13375 -1.33163,12.70448c-0.25193,1.33163 -0.53985,2.62727 -0.82776,3.85093c0.28792,0.17995 0.57584,0.46787 0.82776,0.79178c0.3599,0.50385 0.97173,1.47559 1.79951,2.84321c2.08742,2.77123 6.15428,4.13886 12.20061,4.13886c12.52452,0 21.34207,-7.26998 26.45266,-21.84593c1.61955,-4.60672 2.77123,-9.68131 3.41906,-15.25976c0.21594,-1.76351 0.3599,-3.49103 0.46787,-5.18256c0.03599,-0.93574 0.07198,-1.69153 0.07198,-2.23138c0,-1.36762 -0.39589,-3.88692 -1.11569,-7.52191M294.10451,175.49397c-1.22366,1.0797 -2.23138,2.05144 -2.98717,2.8792c-0.68381,0.79179 -1.51158,1.7995 -2.41133,3.09513c-0.97173,1.40361 -1.69153,2.41133 -2.1594,3.02316c-1.61955,2.12341 -3.02317,3.16712 -4.17484,3.16712c-0.68381,0 -1.65554,-0.43188 -2.8792,-1.33163c-1.58356,-1.22366 -2.80723,-2.19539 -3.70697,-2.91519c-3.599,-2.84321 -6.62216,-4.28281 -9.06948,-4.28281c-4.46276,0 -7.62988,3.52702 -9.50136,10.61705c-0.93574,3.56301 -1.4396,7.162 -1.47559,10.797c0,6.01033 0.79179,11.22888 2.33935,15.65566c3.16712,8.9975 9.06949,13.49625 17.63511,13.49625c7.41394,0 12.27259,-2.23138 14.61194,-6.65815c0.7198,-1.47559 1.18767,-3.13113 1.36762,-5.0386c0.03599,-0.28792 0.03599,-1.36762 0.03599,-3.23909v-0.39589l-0.10797,-0.53985c-10.50908,6.29825 -16.55541,9.42938 -18.10297,9.42938c-2.08742,0 -3.52702,-1.69153 -4.28281,-5.07459c-0.21594,-1.04371 -0.43187,-2.44732 -0.61183,-4.21083c-0.21594,-1.83549 -0.3599,-2.98717 -0.43188,-3.38306c-0.61183,-2.95118 -1.07969,-5.32651 -1.43959,-7.12602c-0.68381,-3.31108 -1.00772,-5.14657 -1.00772,-5.43449c0,-1.58356 2.62727,-3.27509 7.88181,-5.0746c1.36762,-0.46787 3.56301,-1.15168 6.55018,-2.05143c2.66326,-0.79179 4.42677,-1.36762 5.36251,-1.72752c1.90747,-0.7198 5.93836,-1.94347 12.09264,-3.635c0.14397,-0.03599 0.28792,-0.07197 0.43188,-0.10796c-0.61183,-1.11569 -1.0797,-2.98717 -1.36763,-5.57845c-0.17995,-1.43961 -0.28792,-2.98717 -0.32391,-4.71469v-1.54757c-0.93574,0.79179 -1.69154,1.4396 -2.26738,1.90748M289.85769,160.84604c-3.45504,-3.38306 -7.34196,-4.64271 -11.69675,-3.77895c-14.61194,1.94346 -25.15702,9.53735 -31.63521,22.81766c-2.37534,4.78667 -4.06687,10.14919 -5.14658,16.05155c-0.79179,4.3188 -1.18766,8.52963 -1.18766,12.59651c0,2.33935 0.28792,5.00261 0.82777,7.95379c0.89974,4.93063 2.41133,9.39339 4.49875,13.38828c6.40623,12.12864 17.27521,18.17495 32.60694,18.17495c11.51681,0.03599 20.11841,-5.47047 25.80483,-16.44742c2.12341,-4.03088 3.70696,-8.6376 4.78666,-13.78418c0.82776,-4.06688 1.25966,-7.88182 1.25966,-11.44483c-0.03599,-3.16712 -0.17996,-6.15429 -0.3599,-9.03349c-0.3599,-5.68642 -0.89975,-8.52963 -1.54757,-8.52963c-2.51931,0 -9.32141,1.87148 -20.33435,5.65043c-3.67098,1.25965 -7.37796,2.55529 -11.04893,3.92291c-3.16712,1.15168 -4.78666,1.7995 -4.78666,1.83549c0,0.64782 0.39588,3.02317 1.15167,7.198c0.86376,4.75069 1.58356,7.84582 2.1954,9.3574c12.2366,-6.69414 18.49886,-10.00522 18.82277,-10.00522c1.61955,0 2.62727,1.11569 2.98717,3.38306c0.17995,1.15168 0.21595,2.30335 0.07199,3.49103c0,2.84321 0,4.42677 -0.03599,4.75068c-0.21594,2.73524 -0.86376,5.18256 -1.87148,7.26998c-3.09515,6.37024 -9.60933,9.53735 -19.54257,9.53735c-10.11319,0 -17.23921,-4.46276 -21.41405,-13.38828c-2.62727,-5.65043 -3.9589,-12.70447 -3.9589,-21.19811c0,-4.93063 0.75579,-9.64532 2.19539,-14.18006c2.73524,-8.52963 7.44993,-12.77645 14.18006,-12.77645c3.2391,0 6.40622,1.04371 9.53735,3.09515c0.79179,0.53985 1.87148,1.33163 3.2391,2.41133c1.11569,0.89975 1.90747,1.47559 2.33935,1.69153c1.54757,-1.94346 4.06687,-4.71469 7.62988,-8.2777c3.05915,-3.09515 4.60672,-4.71468 4.60672,-4.82266c0,-0.61183 -0.32391,-1.58357 -1.04371,-2.84322c-0.86376,-1.51157 -1.87148,-2.84321 -3.13112,-4.06687M348.01754,185.67915c0.10798,1.29564 0.17995,3.38306 0.17995,6.22627c0,0.14397 0.03599,1.29564 0.14396,3.38306c-0.03599,2.41133 -0.39589,4.57074 -1.04371,6.5142c-2.08742,6.1183 -6.87408,9.17745 -14.396,9.17745c-6.29825,0 -10.94097,-2.62727 -13.96412,-7.9178c-2.15939,-3.77895 -3.2391,-8.24171 -3.2391,-13.35229c0,-6.15429 0.89975,-11.5528 2.73524,-16.1955c3.13113,-7.98978 8.34969,-10.36513 15.61967,-7.12602c6.33424,3.27509 10.50908,7.48592 12.48853,12.6325c0.75579,1.94346 1.25965,4.17485 1.47559,6.65815M320.48518,185.71514c0,3.63499 0.43188,7.12602 1.25965,10.50908c1.58356,6.29825 4.24682,9.42938 8.02577,9.42938c5.65043,0 9.3574,-1.18767 11.12091,-3.56301c0.79178,-1.0797 1.33163,-2.5193 1.61955,-4.35479c0.17994,-1.33163 0.28792,-3.31107 0.28792,-5.90235c0,-2.59128 -0.03599,-4.28282 -0.10798,-5.14658c-0.17994,-2.51931 -0.6838,-4.75068 -1.47558,-6.62216c-2.30336,-5.47048 -7.09003,-8.42167 -14.32403,-8.85355c-2.26737,-0.03599 -3.9589,1.90748 -5.14657,5.86638c-0.82776,2.80722 -1.25965,5.68642 -1.25965,8.6376M412.33168,126.97945c-1.00772,4.53474 -1.87148,8.3137 -2.55529,11.26488c-0.43188,1.69153 -1.33163,4.96662 -2.69925,9.75329c-1.15168,4.10287 -1.97946,7.34196 -2.5193,9.68131c-0.57583,2.51931 -1.18766,5.7584 -1.90747,9.68131c-1.00772,5.68642 -1.61955,8.92551 -1.76351,9.75329c-0.14396,0.68381 -0.32391,2.30337 -0.57584,4.89465c-0.17994,1.97945 -0.46787,3.599 -0.86376,4.82266c-0.10798,0.28792 -0.25193,1.07971 -0.39589,2.44733c-0.14396,1.25965 -0.3599,2.23138 -0.64782,2.8792c-0.93574,2.12341 -2.98717,2.59128 -6.19028,1.33163h-14.21605c-0.50387,0.21594 -1.76351,0.46787 -3.88692,0.68381c-1.97945,0.17995 -3.67098,0.28791 -5.0386,0.28791c-1.97945,0 -3.31108,-0.43188 -3.92291,-1.33163c-0.28792,-0.3599 -0.39589,-0.86377 -0.39589,-1.51158c0,-0.86376 0.21594,-1.61955 0.68381,-2.33935c0.68381,-1.04371 1.72752,-1.51158 3.16712,-1.40361c-0.32391,-2.23138 -0.86377,-8.92552 -1.69153,-20.04644c-0.86376,-11.55279 -1.29564,-18.49886 -1.29564,-20.76623c0.03599,-1.25965 0.10797,-2.44732 0.14396,-3.59901c0.10798,-2.23138 0.14397,-3.95889 0.10798,-5.14657v-16.48343c-0.17994,-0.89974 -0.036,-1.65554 0.39588,-2.26737c0.75579,-1.07971 2.33935,-1.54757 4.75068,-1.40361c3.16712,0.21594 6.15429,0.10797 8.92552,-0.25193c3.31108,-0.43188 6.01033,-0.64782 8.09776,-0.64782c4.3188,0 8.56563,-0.21594 12.74046,-0.68381c2.30336,-0.25193 4.93063,-0.61182 7.98979,-1.0797c2.05143,-0.25193 3.41905,-0.21594 4.10286,0.10797c0.79178,0.3599 1.18767,1.29564 1.18767,2.80721c0,0.53985 -0.57584,3.38306 -1.72753,8.56563M388.68624,122.80461c-4.42678,0.57583 -10.29315,0.93574 -17.59912,1.0797v14.36002c-0.03599,1.04371 -0.10797,2.80721 -0.25193,5.21855c-0.10798,2.19539 -0.17995,3.41905 -0.17995,3.67098c0,3.9589 0.32391,10.94097 1.00772,20.94619c0.53985,8.13374 0.61183,14.89986 0.25193,20.33435c-0.03599,0.14397 -0.03599,0.21594 -0.10797,0.28792c2.69925,-0.17995 4.60672,-0.39589 5.68642,-0.64782h15.47571c1.00772,-4.21083 2.1594,-9.7173 3.45504,-16.55541c1.4396,-7.59389 2.48331,-13.17234 3.20311,-16.73535c0.68381,-3.49103 2.05144,-9.06949 4.06688,-16.66338c1.90747,-7.23399 3.20311,-12.74046 3.88692,-16.44743v-0.10797c-7.80983,0.21594 -14.10808,0.64782 -18.89475,1.25965z" fill="#000000" stroke="none" stroke-width="1"/><path d="M391.02559,220.0856c0,2.08742 -0.03599,3.20311 -0.03599,3.38306c-0.14396,0.39589 -0.97173,1.97944 -2.44732,4.75068c-0.50387,1.00772 -2.33935,2.26737 -5.57845,3.70697c-3.2031,1.4396 -5.68642,2.1594 -7.37795,2.1594c-3.99489,0 -6.8381,-1.76351 -8.56562,-5.21856c-1.04371,-2.05143 -1.54757,-4.31879 -1.54757,-6.76611c0,-4.03088 1.33163,-7.37795 3.99489,-10.0772c2.41133,-2.41133 5.32652,-3.81494 8.78156,-4.17485c3.49104,-0.3599 6.40623,0.46788 8.78157,2.44733c2.66326,2.19539 3.99489,5.47048 3.99489,9.78928M292.95283,164.8769c0.7198,1.29564 1.0797,2.23138 1.0797,2.8792c0,0.10797 -1.51157,1.72752 -4.60672,4.82266c-3.56301,3.56301 -6.1183,6.33424 -7.62988,8.2777c-0.43188,-0.21594 -1.22366,-0.79179 -2.33935,-1.69153c-1.36762,-1.0797 -2.44732,-1.87148 -3.2391,-2.41133c-3.13113,-2.05143 -6.33424,-3.09515 -9.53735,-3.09515c-6.69414,0 -11.44482,4.24683 -14.18006,12.77645c-1.47559,4.53474 -2.19539,9.24943 -2.19539,14.18006c0,8.49365 1.33163,15.54769 3.9589,21.19812c4.17484,8.92552 11.30086,13.38828 21.41405,13.38828c9.93324,0 16.44743,-3.16712 19.54258,-9.53735c1.04371,-2.08742 1.65554,-4.53474 1.87148,-7.26998c0.03599,-0.32391 0.03599,-1.90748 0.03599,-4.75068c0.14397,-1.18767 0.10797,-2.33935 -0.07199,-3.49102c-0.3599,-2.26737 -1.36762,-3.38306 -2.98717,-3.38306c-0.32391,0 -6.58617,3.34707 -18.82277,10.00522c-0.61183,-1.51157 -1.33164,-4.64271 -2.1954,-9.3574c-0.75579,-4.13885 -1.15167,-6.55018 -1.15167,-7.198c0,-0.03599 1.58356,-0.64782 4.78666,-1.83549c3.70697,-1.36762 7.37795,-2.66326 11.04894,-3.92291c11.01294,-3.74296 17.81505,-5.65043 20.33435,-5.65043c0.68381,0 1.18767,2.84321 1.54757,8.52963c0.17995,2.8792 0.32391,5.86638 0.3599,9.03349c0,3.56301 -0.43189,7.37795 -1.25966,11.44483c-1.0797,5.11058 -2.66325,9.7173 -4.78666,13.78418c-5.72242,10.97696 -14.32402,16.44742 -25.80483,16.44742c-15.33175,0 -26.20073,-6.0823 -32.60694,-18.17495c-2.08742,-3.99489 -3.59901,-8.45765 -4.49875,-13.38828c-0.53985,-2.95118 -0.82777,-5.61444 -0.82777,-7.95379c0,-4.06688 0.39588,-8.27771 1.18766,-12.59651c1.0797,-5.90236 2.80723,-11.26487 5.14658,-16.05154c6.4782,-13.28032 17.02327,-20.87421 31.63521,-22.81767c4.3188,-0.89975 8.20572,0.3599 11.66076,3.74296c1.25965,1.22366 2.30336,2.59128 3.13113,4.06688M403.76606,138.06437c-2.05143,7.59389 -3.38306,13.17235 -4.06687,16.66338c-0.7198,3.56301 -1.76351,9.14147 -3.20312,16.73535c-1.29564,6.8381 -2.44732,12.34457 -3.45504,16.5554h-15.47571c-1.1157,0.28792 -2.98717,0.46787 -5.68642,0.64782c0.07198,-0.07198 0.10798,-0.17995 0.10798,-0.28791c0.3599,-5.43449 0.28791,-12.20062 -0.25194,-20.33436c-0.68381,-10.00522 -1.00772,-16.98729 -1.00772,-20.94619c-0.03599,-0.25193 0.03599,-1.47559 0.17995,-3.67098c0.14396,-2.41133 0.21594,-4.13885 0.25193,-5.21855v-14.32402c7.26998,-0.14396 13.13635,-0.50387 17.59911,-1.0797c4.7147,-0.61183 11.01295,-1.04371 18.82277,-1.25965v0.10797c-0.68381,3.70697 -1.97945,9.21343 -3.81493,16.41143z" fill="#00ff00" stroke="none" stroke-width="1"/><path d="M357.91479,186.25499c0,0.53985 -0.03598,1.29564 -0.14396,2.26737c-0.10798,1.69153 -0.25194,3.41906 -0.46787,5.18257c-0.64782,5.57845 -1.7995,10.65304 -3.41905,15.25976c-5.11059,14.57595 -13.92814,21.84593 -26.45266,21.84593c-6.04632,0 -10.11319,-1.36762 -12.20061,-4.13885c-0.82776,-1.36762 -1.4396,-2.33935 -1.7995,-2.84321c-0.25193,-0.32391 -0.53985,-0.61183 -0.82777,-0.79178c0.28792,-1.22366 0.57584,-2.48332 0.82777,-3.85094c0.89975,-4.57073 1.33163,-8.78156 1.33163,-12.70448c0.14397,-3.9589 0.03599,-7.91779 -0.32391,-11.8407c-0.7198,-7.84582 -2.23138,-11.76873 -4.60672,-11.76873c-1.18767,0 -4.03088,0.57584 -8.52963,1.76351c0.07198,-0.61183 0.10796,-1.29565 0.07197,-2.12341c-0.3599,-3.31108 -0.50386,-5.43449 -0.46787,-6.33424c0.14397,-4.21083 0.79179,-7.98978 1.97945,-11.33685c0.28792,-0.97173 0.7198,-2.1594 1.29564,-3.45504c1.11569,-2.59128 2.48331,-4.93063 4.13885,-7.05405c5.21855,-6.73013 12.16463,-10.0772 20.76623,-10.0772c10.18517,0 18.03099,6.73013 23.50148,20.1544c1.76351,4.35479 3.16712,9.10548 4.21083,14.32403c0.75579,3.63499 1.11569,6.15429 1.11569,7.52191M334.05341,166.38851c-7.26998,-3.2391 -12.48854,-0.86377 -15.61967,7.12602c-1.83549,4.64271 -2.73524,10.04122 -2.73524,16.1955c0,5.11058 1.0797,9.57334 3.2391,13.35229c3.02316,5.29053 7.66588,7.9178 13.96412,7.9178c7.52192,0 12.30858,-3.05915 14.396,-9.17745c0.64782,-1.94346 1.00772,-4.10286 1.04371,-6.51419c-0.10798,-2.08742 -0.14396,-3.23909 -0.14396,-3.38306c0,-2.8792 -0.07197,-4.96662 -0.17995,-6.26226c-0.21594,-2.48331 -0.7198,-4.71469 -1.47559,-6.65815c-1.97945,-5.14658 -6.15429,-9.3574 -12.48853,-12.5965z" fill="#00cc00" stroke="none" stroke-width="1"/><path d="M387.03071,210.26033c2.66326,2.23138 3.99489,5.47049 3.99489,9.78929c0,2.08742 -0.03599,3.20311 -0.07198,3.31108c-0.14397,0.39589 -0.97174,1.97945 -2.44733,4.75068c-0.50387,1.00772 -2.33935,2.26737 -5.57845,3.70697c-3.2031,1.4396 -5.68642,2.15939 -7.37795,2.15939c-3.99489,0 -6.8381,-1.72751 -8.56562,-5.21855c-1.00772,-2.05143 -1.54757,-4.31879 -1.54757,-6.76612c0,-4.03088 1.33163,-7.37796 3.99489,-10.07721c2.41133,-2.41133 5.32652,-3.81493 8.78156,-4.17483c3.52701,-0.28791 6.44221,0.53985 8.81755,2.5193z" fill="#000000" stroke="none" stroke-width="1"/><path d="M371.1591,123.88432c7.26998,-0.14396 13.13635,-0.50387 17.59911,-1.0797c4.7147,-0.61183 11.01295,-1.04371 18.82277,-1.25965v0.10797c-0.44641,2.42002 -1.15358,5.60695 -2.10147,9.53078c-1.20276,0.14839 -2.40305,0.31242 -3.59943,0.49197c-3.46073,0.51937 -6.76991,1.6432 -10.30694,1.69222c-3.44104,0.05307 -7.05016,0.82526 -10.42834,1.45281c-3.32525,0.55704 -6.66198,1.04475 -9.9857,1.60942z" fill="#8bff8b" stroke="none" stroke-width="1"/><path d="M266.68012,173.65848c-6.69414,0 -11.44482,4.24683 -14.18006,12.77645c-0.40111,1.23266 -0.74636,2.47862 -1.0365,3.73859c-1.2226,0.88211 -2.44973,1.75789 -3.68221,2.62593c-2.2676,1.6806 -4.52974,3.34833 -6.73601,5.09984c0.10211,-0.65175 0.21337,-1.30612 0.3338,-1.96298c1.0797,-5.90236 2.80723,-11.26487 5.14658,-16.05154c6.4782,-13.28032 17.02327,-20.87421 31.63521,-22.81767c4.3188,-0.89975 8.20572,0.3599 11.66076,3.74296c1.04049,1.01077 1.93365,2.11976 2.67947,3.3067c-0.26929,0.12077 -0.53854,0.24169 -0.80776,0.36271c-3.19194,1.43485 -6.42183,2.81686 -9.55274,4.38189c-3.13286,1.5662 -6.24513,3.16798 -9.34377,4.80085c-0.45028,0.23728 -0.89148,0.49655 -1.32495,0.77331c-1.59129,-0.51653 -3.19155,-0.77704 -4.79182,-0.77704z" fill="#8bff8b" stroke="none" stroke-width="1"/><path d="M275.67762,235.20139c9.93324,0 16.44743,-3.16712 19.54258,-9.53735c0.10049,-0.20097 0.19697,-0.40529 0.28948,-0.61288c2.29701,-0.51515 4.5711,-1.07836 6.83304,-1.8024c1.87485,-0.60013 3.72227,-1.29938 5.55919,-2.02507c-1.01274,3.77088 -2.33125,7.23599 -3.97215,10.37873c-5.72242,10.97696 -14.32402,16.44742 -25.80483,16.44742c-15.33175,0 -26.20073,-6.0823 -32.60694,-18.17495c-0.33122,-0.6339 -0.64795,-1.27958 -0.95004,-1.93704c1.86963,-0.01187 3.73924,-0.02991 5.6085,-0.05347c2.61084,-0.03291 5.22038,-0.08479 7.83021,-0.14542c4.2353,4.97495 10.12062,7.46243 17.67095,7.46243z" fill="#00d300" stroke="none" stroke-width="1"/><path d="M391.02559,220.0856c0,2.08742 -0.03599,3.20311 -0.03599,3.38306c-0.14396,0.39589 -0.97173,1.97944 -2.44732,4.75068c-0.50387,1.00772 -2.33935,2.26737 -5.57845,3.70697c-3.2031,1.4396 -5.68642,2.1594 -7.37795,2.1594c-3.99489,0 -6.8381,-1.76351 -8.56562,-5.21856c-1.04371,-2.05143 -1.54757,-4.31879 -1.54757,-6.76611c0,-4.03088 1.33163,-7.37795 3.99489,-10.0772c2.41133,-2.41133 5.32652,-3.81494 8.78156,-4.17485c3.49104,-0.3599 6.40623,0.46788 8.78157,2.44733c2.66326,2.19539 3.99489,5.47048 3.99489,9.78928z" fill="#00d300" stroke="none" stroke-width="1"/><path d="M396.49607,171.4631c-1.29564,6.8381 -2.44732,12.34457 -3.45504,16.5554h-15.47571c-1.1157,0.28792 -2.98717,0.46787 -5.68642,0.64782c0.07198,-0.07198 0.10798,-0.17995 0.10798,-0.28791c0.13362,-2.01778 0.20772,-4.21912 0.22043,-6.60589c0.504,-0.43976 1.0084,-0.87905 1.51371,-1.31726c2.64702,-2.29553 5.26601,-4.61772 7.84049,-6.99461c2.58394,-2.38563 5.07991,-4.81002 7.51829,-7.34437c2.42676,-2.52228 4.84898,-5.02802 7.42061,-7.4032c0.96134,-0.8879 1.94342,-1.74964 2.92459,-2.61078c-0.70266,3.56091 -1.66264,8.68118 -2.92893,15.36079z" fill="#00d300" stroke="none" stroke-width="1"/><path d="M308.32055,154.33186c5.21855,-6.73013 12.16463,-10.0772 20.76623,-10.0772c3.5132,0 6.74807,0.80074 9.70313,2.40075c-2.59066,1.01252 -5.29406,1.82721 -7.89921,2.74529c-3.3006,1.16353 -6.54842,2.44509 -9.87209,3.55578c-3.32059,1.10969 -6.62235,2.28259 -9.91691,3.46693c-1.86424,0.67018 -3.70764,1.38769 -5.54298,2.12655c0.81515,-1.49521 1.73288,-2.89836 2.76183,-4.21811z" fill="#00ef00" stroke="none" stroke-width="1"/></g></g></svg>