<svg version="1.1" xmlns="http://www.w3.org/2000/svg" xmlns:xlink="http://www.w3.org/1999/xlink" width="390.16191" height="166.2482" viewBox="0,0,390.16191,166.2482"><defs><linearGradient x1="213.1291" y1="120.62332" x2="213.1291" y2="238.84809" gradientUnits="userSpaceOnUse" id="color-1"><stop offset="0" stop-color="#807100" stop-opacity="0.50196"/><stop offset="1" stop-color="#006480" stop-opacity="0.50196"/></linearGradient><linearGradient x1="210.90442" y1="144.05011" x2="210.90442" y2="210.90697" gradientUnits="userSpaceOnUse" id="color-2"><stop offset="0" stop-color="#00fff7" stop-opacity="0.74902"/><stop offset="1" stop-color="#0066cc" stop-opacity="0.74902"/></linearGradient><linearGradient x1="319.99999" y1="96.8759" x2="319.99999" y2="263.1241" gradientUnits="userSpaceOnUse" id="color-3"><stop offset="0" stop-color="#ffffff" stop-opacity="0.74902"/><stop offset="1" stop-color="#7d7d7d" stop-opacity="0.74902"/></linearGradient><linearGradient x1="319.99999" y1="96.8759" x2="319.99999" y2="263.1241" gradientUnits="userSpaceOnUse" id="color-4"><stop offset="0" stop-color="#ffffff" stop-opacity="0.74902"/><stop offset="1" stop-color="#7d7d7d" stop-opacity="0.74902"/></linearGradient></defs><g transform="translate(-124.91905,-96.8759)"><g stroke-miterlimit="10"><text transform="translate(285.3459,170.31403) scale(0.80716,0.80716)" font-size="40" xml:space="preserve" fill="#ffffff" stroke="#dddddd" stroke-width="2" font-family="Pixel" font-weight="normal" text-anchor="start"><tspan x="0" dy="0">you opened</tspan><tspan x="0" dy="48px">the game</tspan></text><path d="M269.43619,181.73632c0,-0.65869 0.60532,-10.94217 0.70594,-21.9051c0.01883,-2.051 2.58146,-31.70786 -0.97842,-33.84317c-0.40566,-0.24332 -21.45033,0.64557 -45.11707,0.99224c-14.77591,0.21642 -33.14343,-0.50876 -44.40633,-0.44844c-4.6808,0.02507 -23.61148,-0.70943 -24.07222,-0.72593c-1.16051,-0.04157 -0.10594,63.03218 1.22972,94.28415c0.62204,14.5543 0.98581,9.11423 1.79361,10.90559c0.97251,2.15662 12.38732,1.86961 25.07076,2.47032c6.15468,0.2915 27.3738,1.83175 44.05297,1.68684c9.26292,-0.08047 17.4075,-1.67742 20.12095,-1.91711c8.39516,-0.7416 17.43396,-1.70446 19.46709,-1.95508c3.21534,-0.39634 5.15162,-0.6346 5.15162,-0.6346c0,0 0.82516,-2.46778 0.7184,-5.26787c-0.14464,-3.79372 -3.73698,-43.46292 -3.73698,-43.64178zM206.24057,238.5909c-1.61915,0.20492 -16.48258,-0.90942 -26.86224,-1.25514c-9.55221,-0.31818 -15.51475,0.55521 -22.25105,-0.27063c-4.23932,-0.51971 -4.91898,-3.88102 -4.96699,-3.8935c-0.25276,-0.06562 -2.27754,-9.83174 -2.58063,-23.77742c-0.25338,-11.659 0.42991,-26.842 0.56685,-40.67664c0.24694,-24.94803 0.2908,-47.10477 1.02807,-47.61184c1.26515,-0.87015 5.34544,-0.29976 5.53241,-0.28844c9.5148,0.57598 35.49643,1.87811 35.5411,1.8777c36.60821,-0.36014 77.66771,-2.03601 77.66771,-1.91414c0,0.00822 3.60167,-0.31872 4.58262,4.75434c1.42439,7.36642 0.47337,20.58515 0.09628,27.90833c-0.47737,9.27077 -1.54481,20.42593 -1.39486,25.10245c0.51273,15.99148 2.34214,23.95824 2.87494,31.99608c0.30626,4.62052 0.62373,9.88474 0.65809,13.35915c0.05198,5.26162 -1.24788,8.71387 -1.97335,9.11099c-2.11347,1.15693 -14.71171,4.09266 -28.90659,5.12118c-17.26902,1.25125 -36.6775,0.48483 -39.6123,0.45758z" fill-opacity="0.50196" fill="#ffffff" stroke="url(#color-1)" stroke-width="5"/><path d="M273.15948,225.40434c0.10676,2.80008 -0.72079,5.27079 -0.72079,5.27079c0,0 -1.93849,0.24069 -5.15381,0.63704c-2.03313,0.25062 -11.0835,1.22301 -19.47866,1.96461c-2.71345,0.23969 -10.87667,1.84467 -20.13957,1.92512c-16.67917,0.14491 -37.94464,-1.40184 -44.09932,-1.69333c-12.68343,-0.60069 -24.11337,-0.32584 -25.08588,-2.48246c-0.8078,-1.79135 -1.17678,3.64217 -1.7988,-10.91214c-1.33566,-31.25199 -2.38448,-94.40412 -1.22397,-94.36253c0.46075,0.01652 19.40348,0.74096 24.08428,0.71591c11.2629,-0.06031 29.6756,0.65607 44.45153,0.43963c23.66676,-0.34667 44.74454,-1.21804 45.1502,-0.97472c3.55988,2.13531 1.01148,31.81458 0.99266,33.86558c-0.1006,10.96294 -0.70206,21.26953 -0.70206,21.92822c0,0.17886 3.57957,39.88457 3.72424,43.67828z" fill="#0e0e0e" stroke="none" stroke-width="0.5"/><path d="M214.87494,179.22836c0,0.13978 3.85359,-0.25018 3.5431,2.62324c-1.00917,9.33952 -7.37888,32.08368 -8.96044,42.77592c-0.06788,0.45898 -1.91481,9.73929 -2.1665,9.73929c-0.20099,0 -9.33076,-0.18009 -16.98651,-0.64333c-4.52994,-0.2741 -10.50854,-0.2968 -10.17314,-0.95129c3.84793,-7.5084 34.74349,-54.33981 34.74349,-53.54383z" fill="#fdff00" stroke="none" stroke-width="0.5"/><path d="M206.31869,177.11964c0,-0.22152 35.89747,6.24385 41.52824,7.25608c3.14493,0.56535 18.53468,1.95266 18.95553,2.9233c0.06687,0.1542 1.2158,9.83808 1.61144,15.89207c0.70731,10.82284 1.2866,22.18522 1.2866,22.66273c0,0.39028 -5.51155,-8.24396 -12.92153,-14.14834c-9.0197,-7.18699 -20.44284,-13.55813 -20.56911,-13.68802c-0.05772,-0.05939 -29.89117,-20.84293 -29.89117,-20.89783z" fill="#fdff00" stroke="none" stroke-width="0.5"/><path d="M155.12211,139.6413c-0.55143,0 29.26819,22.45485 50.94668,36.95969c12.34158,8.25761 21.80841,12.27367 22.12236,12.27367c0.86536,0 -72.73337,-13.61049 -72.73337,-14.47585c0,-0.73453 -0.20483,-34.75749 -0.33567,-34.75749z" fill="#fdff00" stroke="none" stroke-width="0.5"/><path d="M270.94657,131.90777c-0.06501,2.37536 0.01403,7.30114 -0.18912,13.49823c-0.40542,12.36731 -1.19031,28.25692 -1.27626,28.25692c-0.63161,0 -57.56668,12.45839 -58.43325,12.00346c-2.14977,-1.12859 59.92006,-54.54107 59.89862,-53.75861z" fill="#00efff" stroke="none" stroke-width="0.5"/><path d="M220.90833,127.39238c0,-0.47851 9.2078,-0.37757 17.39543,-0.66793c6.61899,-0.23473 12.6039,-0.51718 12.6039,-0.13033c0,0.46308 -36.43298,54.94353 -37.46914,55.35373c-0.68157,0.26985 -2.17233,2.4972 -2.75692,-1.23971c-0.59377,-3.79562 -0.2759,-13.56298 -0.25673,-14.14252c0.3331,-10.0756 10.48345,-38.52691 10.48345,-39.17322z" fill="#fdff00" stroke="none" stroke-width="0.5"/><path d="M162.45197,127.05381c0,-0.14286 1.12187,-0.52944 2.83244,-0.58782c8.65098,-0.2952 34.96181,0.40347 35.6843,0.40347c0.48049,0 15.81032,59.24933 15.42547,59.24933c-0.79084,0 -53.94219,-58.99045 -53.94219,-59.06497z" fill="#00efff" stroke="none" stroke-width="0.5"/><path d="M156.08896,191.69024c0,-0.17162 -1.23419,-2.27542 2.5565,-2.9353c15.32501,-2.66772 59.92426,-9.09575 59.92426,-8.40199c0,0.86536 -59.93432,48.81745 -60.79968,48.81745c-0.86536,0 -1.68109,-36.6148 -1.68109,-37.48016z" fill="#00efff" stroke="none" stroke-width="0.5"/><path d="M213.36176,179.21207c0.86536,0 45.1219,51.62214 45.1219,52.4875c0,0.3338 -14.77354,2.64204 -24.90185,3.35393c-4.87906,0.34293 -8.83349,-0.5988 -9.24848,-0.57732c-0.70619,0.03655 -11.83694,-55.26411 -10.97156,-55.26411z" fill="#00efff" stroke="none" stroke-width="0.5"/><path d="M217.84688,178.32937c0.02348,0.00137 0.04691,0.00269 0.0703,0.00393l0.02514,0.09718c-0.03181,-0.03381 -0.06361,-0.06754 -0.09542,-0.10114z" fill="#000000" stroke="none" stroke-width="1"/><path d="M220.48127,178.11366l0.04274,0.17769c-0.26109,-0.00066 -0.36128,-0.05011 -0.04274,-0.17769z" fill="#85181a" stroke="none" stroke-width="0.5"/><path d="M220.52404,178.29133c0.01182,0.00004 0.024,-0.00002 0.0365,-0.0002c-0.01086,0.00543 -0.02177,0.01079 -0.03269,0.01611z" fill="#85181a" stroke="none" stroke-width="0.5"/><path d="M220.52399,178.29144c0.01179,0.00002 0.02394,-0.00007 0.03639,-0.00023c-0.01084,0.00539 -0.0217,0.01079 -0.0326,0.01608z" fill="#85181a" stroke="none" stroke-width="0.5"/><path d="M220.52399,178.29144c0.01179,0.00004 0.02394,-0.00002 0.03639,-0.0002c-0.01084,0.00539 -0.0217,0.01077 -0.0326,0.01606z" fill="#85181a" stroke="none" stroke-width="0.5"/><path d="M220.52408,178.29133c0.01182,0.00004 0.02398,-0.00002 0.03648,-0.0002c-0.01086,0.00543 -0.02172,0.01079 -0.03265,0.01611z" fill="#ff2d32" stroke="none" stroke-width="0.5"/><path d="M217.84681,178.32937c0.02348,0.00137 0.04691,0.00269 0.0703,0.00393l0.02514,0.09718c-0.03181,-0.03381 -0.06359,-0.06754 -0.09542,-0.10114z" fill="#000000" stroke="none" stroke-width="1"/><path d="M220.52397,178.29133c0.01182,0.00004 0.02398,-0.00002 0.03648,-0.0002c-0.01086,0.00543 -0.02175,0.01079 -0.03267,0.01611z" fill="#85181a" stroke="none" stroke-width="0.5"/><path d="M220.52394,178.29144c0.01179,0.00002 0.02394,-0.00007 0.03639,-0.00023c-0.01084,0.00539 -0.02168,0.01079 -0.03258,0.01608z" fill="#85181a" stroke="none" stroke-width="0.5"/><path d="M216.08541,181.44888c0.02049,0.00488 0.04096,0.00968 0.06138,0.01444l0.00701,0.0896c-0.02279,-0.03475 -0.04557,-0.06945 -0.06838,-0.10402z" fill="#000000" stroke="none" stroke-width="1"/><path d="M218.44175,181.66913l0.01,0.16334c-0.2301,-0.04127 -0.31072,-0.10049 -0.01,-0.16334z" fill="#85181a" stroke="none" stroke-width="0.5"/><path d="M218.45177,181.83245c0.01043,0.00189 0.02117,0.00374 0.0322,0.00552c-0.01041,0.0031 -0.02086,0.00612 -0.03131,0.00911z" fill="#85181a" stroke="none" stroke-width="0.5"/><path d="M218.45175,181.83254c0.0104,0.00183 0.02111,0.00367 0.03212,0.00547c-0.0104,0.00308 -0.02081,0.00612 -0.03124,0.0091z" fill="#85181a" stroke="none" stroke-width="0.5"/><path d="M218.45175,181.83254c0.01038,0.00185 0.02111,0.0037 0.03212,0.00548c-0.0104,0.00308 -0.02081,0.00612 -0.03124,0.0091z" fill="#85181a" stroke="none" stroke-width="0.5"/><path d="M218.4518,181.83247c0.01041,0.00189 0.02115,0.00372 0.03219,0.0055c-0.01041,0.0031 -0.02085,0.00612 -0.0313,0.00911z" fill="#ff2d32" stroke="none" stroke-width="0.5"/><path d="M216.08536,181.4489c0.02049,0.00486 0.04095,0.00967 0.06137,0.01442l0.00701,0.0896c-0.02279,-0.03477 -0.04557,-0.06947 -0.06838,-0.10404z" fill="#000000" stroke="none" stroke-width="1"/><path d="M273.24406,225.43201c0.10676,2.80009 -0.72176,5.27204 -0.72176,5.27204c0,0 -1.9394,0.2417 -5.15474,0.63804c-2.03313,0.25062 -11.08836,1.227 -19.48352,1.96861c-2.71345,0.23969 -10.88449,1.84804 -20.14741,1.9285c-16.67917,0.14491 -37.96414,-1.40456 -44.11882,-1.69606c-12.68345,-0.60071 -24.11972,-0.33097 -25.09225,-2.48759c-0.40157,-0.89051 -0.69524,0.00376 -0.96546,-0.65963c17.01667,-1.72217 59.22188,-9.32017 86.84981,-20.35367c14.38009,-5.74284 23.10208,-15.16712 25.9076,-19.31909c1.06179,12.00076 2.8258,32.0669 2.92654,34.70887z" fill-opacity="0.25098" fill="#000000" stroke="none" stroke-width="0.5"/><path d="M155.59318,125.78573c0.46075,0.0165 19.40855,0.73675 24.08935,0.71169c11.2629,-0.06031 29.69458,0.65235 44.4705,0.43593c23.66674,-0.34667 44.75844,-1.21067 45.16411,-0.96735c1.37814,0.82666 1.84173,5.78273 1.89126,11.66609c-4.15673,-0.52793 -8.32133,-0.98727 -12.53065,-1.23973c-11.65964,-0.50799 -23.01075,-0.33376 -34.66274,0.24315c-3.58899,0.1777 -22.18461,3.06008 -38.84578,9.50932c-14.17141,5.4855 -26.71893,14.19096 -29.83915,19.17628c-0.34697,-21.54816 -0.3566,-39.55758 0.26314,-39.53538z" fill-opacity="0.25098" fill="#ffffff" stroke="none" stroke-width="0.5"/><g><path d="M179.39519,203.66408c-0.12536,-0.75529 -1.48953,-13.06159 -1.98173,-18.91473c-1.90516,0.95482 -4.2164,1.97919 -6.57555,2.93422c-5.20465,2.10688 -10.64373,3.86343 -12.45388,4.00473l-0.00002,0.00004c-0.86338,0.06738 -3.24124,-4.18698 -3.56161,-8.39772c-0.31428,-4.13088 1.41246,-8.21847 2.25943,-8.2846c1.76882,-0.13806 7.05913,0.22748 12.40882,1.45763c3.70551,0.85204 7.42133,2.05091 9.83851,3.12349c-0.82555,-1.17955 -1.58048,-2.3344 -1.73759,-2.82096c-1.54616,-4.70693 -2.58139,-9.56657 -3.08775,-14.495c-0.75329,-7.74006 0.97686,-10.41388 8.38576,-12.87247c9.05125,-2.93377 18.46387,-4.60516 27.9718,-4.96688c6.88743,-0.37253 13.78305,-0.69536 20.64563,0.16556c6.75904,0.84791 7.31072,1.53525 7.84782,8.02529c0.67208,-0.48232 1.23549,-0.87969 1.62008,-1.16364c6.28788,-2.97258 10.67677,0.70313 14.75455,5.4465c4.11201,4.81994 7.49512,10.21676 10.04138,16.01818c0.71192,1.5894 1.99501,3.38574 0.69535,5.03309c-0.54041,0.69154 -3.82988,0.49113 -4.69371,0.40563c-4.22187,-0.42219 -8.43544,-0.95197 -14.02317,-1.59766c4.64404,5.62086 7.38408,10.88575 8.41885,16.96187c0.53028,3.81985 0.66068,7.68452 0.38911,11.53141c-0.05791,1.41558 -0.46358,2.83112 -2.08609,3.1871c-1.44869,0.32283 -2.21026,-0.82778 -2.96356,-1.81288c-3.67533,-4.91974 -8.05887,-9.11865 -12.93506,-13.45328h0.00002c-0.10938,-0.11392 -0.53318,-0.55964 -1.17341,-1.22091c-0.09667,0.24701 -0.14986,0.44129 -0.1244,0.53179c-0.45847,2.42233 -0.94823,3.90262 0.88852,5.57614c3.74172,3.41058 3.22847,6.10927 -1.46523,8.46852c-7.45031,3.75826 -15.46351,4.81784 -23.70854,4.21354c-7.00007,-0.512 -13.93229,-1.71539 -20.69533,-3.59268c-0.4606,-0.07381 -1.95649,-0.62722 -3.47349,-1.39242c-0.67144,-0.33869 -2.26378,-0.90306 -3.2244,-1.94533c-0.09612,-0.1043 -0.20257,-0.22454 -0.3125,-0.35584c-0.57751,1.21644 -0.92906,2.04789 -0.9716,2.09951c-1.79636,2.16059 -4.46995,0.80136 -4.91697,-1.8973v0z" fill="#000000" stroke="url(#color-2)" stroke-width="5"/><g stroke="none" stroke-width="2.5"><path d="M158.38377,191.7315c-0.86338,0.0674 -3.24126,-4.18694 -3.56161,-8.39768c-0.31428,-4.13088 1.41248,-8.21847 2.25943,-8.2846c1.7688,-0.13806 7.05915,0.22744 12.40884,1.45759c6.21881,1.42996 12.46661,3.83671 12.55618,4.98406c0.00007,0.00052 0.00011,0.00096 0.00014,0.00148c0.00004,0.00057 0.00011,0.0011 0.00014,0.00167c0.08778,1.12421 -5.41616,3.88759 -11.20917,6.23267c-5.20465,2.10687 -10.64373,3.86343 -12.45388,4.00475zM159.00004,182.88484c0.03753,0.48829 0.51609,3.57591 1.65744,3.77255c1.71644,0.29573 14.28303,-3.7561 14.16536,-4.75144c-0.10457,-0.88441 -13.01352,-3.52335 -14.72341,-2.92217c-0.80293,0.28229 -1.12691,3.54333 -1.09943,3.90103z" fill="#000000"/><path d="M158.8822,182.88628c-0.02754,-0.35772 0.31142,-3.67781 1.11436,-3.9601c1.70989,-0.60122 14.83941,2.0823 14.94398,2.96671c0.11766,0.99535 -12.66675,5.12241 -14.38321,4.82665c-1.14135,-0.19668 -1.63761,-3.34499 -1.67514,-3.83326z" fill="#0066cc"/><path d="M174.94055,181.89289c0.02761,0.23346 -0.6547,0.63929 -1.73757,1.11988c-1.37743,-0.82141 -4.36651,-1.89799 -7.74163,-2.1662c-2.51955,-0.20022 -5.62449,0.22091 -6.43639,0.61272c0.16715,-1.06859 0.48373,-2.36158 0.97162,-2.53311c1.70987,-0.60122 14.83939,2.08226 14.94396,2.96667z" fill="#399cff"/><path d="M160.57125,186.69437c-1.02394,-0.17644 -1.52863,-2.72839 -1.64876,-3.6042c0.51572,0.26684 0.95197,0.49452 1.1499,0.57281c2.4021,0.95013 9.24558,0.65178 10.42827,0.39586c-3.82904,1.38238 -8.89377,2.814 -9.92941,2.63555z" fill="#051380"/></g><g stroke="none" stroke-width="2.5"><path d="M181.76531,182.98406c0,0 -3.79826,-4.99013 -4.17418,-6.15427c-1.54616,-4.70693 -2.58139,-9.56657 -3.08775,-14.495c-0.75331,-7.74006 0.97684,-10.41394 8.38574,-12.87251c9.05128,-2.93377 18.4639,-4.60514 27.97183,-4.96688c6.88743,-0.37253 13.78307,-0.69538 20.64563,0.16554c6.86258,0.86094 7.32615,1.55631 7.87253,8.32779c0.08725,-0.05416 0.28012,1.57192 0.55095,2.90116c-6.82072,4.69978 -19.03878,19.80793 -21.87939,23.18814c-0.2923,0.34781 -0.91437,1.11046 -0.97705,1.19707c-3.62129,0.09706 -7.25631,0.04146 -10.83046,0.51399c-0.33228,0.05006 -12.08288,1.16688 -12.08288,1.16688l0.00201,0.00887c0,0 -12.24666,1.13104 -12.397,1.01917zM218.05607,176.47133c0.18276,0.02248 11.71488,-14.59329 17.20156,-19.69284c1.99503,-1.83776 1.00995,-4.18874 0.82783,-6.2169c-0.17384,-1.87914 -2.31788,-1.70531 -3.72516,-1.81293c-12.12162,-0.80805 -24.29597,-0.21917 -36.28303,1.755c-2.26819,0.35596 -2.81459,1.49833 -2.78972,3.6672c0.00021,6.2067 0.78365,17.12238 1.70378,23.26054c0.0578,0.35867 5.9441,-0.51024 11.31761,-0.82012c6.00806,-0.34647 11.57845,-0.16074 11.74713,-0.13996zM192.19857,177.62404c-2.06955,-7.13574 -2.48346,-14.51156 -2.71523,-21.92046c0,-1.09271 0.51323,-2.63243 -1.00993,-3.22846c-1.3987,-0.5538 -5.8765,0.88492 -7.70705,2.03496c-2.43801,1.53167 -2.07762,3.19894 -1.87901,5.24152c0.44082,3.67241 1.08474,7.31764 1.92879,10.91885c1.89571,8.50163 1.96961,8.51516 10.48778,7.37278c0.31551,-0.09603 0.55818,-0.27556 0.84202,-0.44349z" fill="#000000"/><path d="M235.3561,156.74857c-5.48668,5.09957 -17.09379,19.84539 -17.27655,19.8229c-0.16866,-0.02074 -5.81729,-0.21961 -11.82535,0.1269c-5.37349,0.30989 -11.28827,1.15221 -11.34607,0.79354c-0.92014,-6.13816 -1.71564,-17.15312 -1.71585,-23.35984c-0.02483,-2.16887 0.53103,-3.32929 2.79922,-3.68525c11.98707,-1.9742 24.32703,-2.57115 36.44865,-1.76308c1.40728,0.10762 3.56029,-0.05323 3.73412,1.82593c0.18212,2.02816 1.17687,4.40118 -0.81817,6.23894z" fill="#ff2d32"/><path d="M192.1955,177.68984c-0.28386,0.16791 -0.53281,0.35064 -0.84834,0.44666c-8.51817,1.14238 -8.70392,1.11223 -10.59961,-7.38941c-0.84405,-3.6012 -1.49713,-7.39053 -1.93799,-11.06298c-0.19853,-2.04258 -0.5219,-3.73695 1.91615,-5.26862c1.83055,-1.15002 6.37212,-2.59446 7.77082,-2.04066c1.52318,0.59603 1.02587,2.14083 1.02587,3.23353c0.23179,7.4089 0.65636,14.96996 2.72593,22.10568z" fill="#a31c4c"/><path d="M235.38776,156.71937c-5.48666,5.09957 -17.09377,19.84539 -17.27653,19.8229c-0.1687,-0.02072 -5.81731,-0.21956 -11.82537,0.12693c-5.37351,0.30989 -11.28827,1.15219 -11.34607,0.79353c-0.20332,-1.35649 -0.40059,-2.95117 -0.58453,-4.67946c0.30129,0.02535 8.76881,-0.0797 12.29298,-3.06361c6.76694,-5.72952 11.45639,-16.72813 14.53202,-17.86033c2.48431,-0.86967 -1.63478,13.85127 2.91186,10.77144c5.19406,-3.51841 10.38595,-7.23305 12.4959,-8.29726c-0.08766,0.84291 -0.40853,1.65657 -1.20026,2.38587z" fill="#c41c1f"/><path d="M236.13167,150.50932c0.03715,0.414 0.29427,1.17092 0.37649,1.90244c0.08882,0.78998 0.00304,1.5575 0.0442,2.03413c-1.48031,0.75352 -3.10852,1.94697 -3.10852,1.94697c-3.10886,-2.86112 -10.52322,-4.79251 -14.59345,-5.25021c-5.5928,-0.38468 -10.84721,-0.50614 -16.44517,0.24961c-3.08828,0.32696 -6.13896,0.91414 -9.18628,1.52038c0.20943,-1.39566 0.93134,-2.18379 2.72997,-2.46605c11.98707,-1.9742 24.32703,-2.57115 36.44865,-1.7631c1.40728,0.1076 3.56029,-0.05325 3.73415,1.82591z" fill="#ff888a"/><path d="M188.4966,152.37454c0.69189,0.27072 0.9669,0.73724 1.06097,1.26821c-1.36093,0.25977 -2.72392,0.50386 -4.09209,0.71096c-1.94451,0.52202 -4.36112,1.21876 -6.57971,2.13439c0.25776,-0.73056 0.79545,-1.41667 1.83999,-2.07292c1.83055,-1.15002 6.3721,-2.59444 7.77082,-2.04064z" fill="#d92564"/><path d="M192.24567,177.71238c-0.28386,0.16791 -0.53285,0.35065 -0.84838,0.44668c-8.51822,1.14238 -8.7039,1.11223 -10.5996,-7.38941c-0.11219,-0.47869 -0.221,-0.96073 -0.32641,-1.44536c0.50586,0.3987 2.79659,1.61151 4.99211,2.25149c2.18019,0.63553 4.26235,0.69896 5.59577,0.88524c0.3297,1.77814 0.73583,3.53943 1.23934,5.27554z" fill="#830b35"/></g><g stroke="none" stroke-width="2.5"><path d="M238.57215,193.2427c-0.55549,-0.57846 -9.22096,-9.71692 -13.16719,-12.17725c-2.81902,-1.75756 -6.37071,-1.73433 -7.56278,-1.85963c-2.93995,-0.30907 -8.40947,0.0023 -8.38784,-0.22901c0.12686,-1.35713 1.67761,-7.43578 1.73223,-7.65438c1.14947,-4.59951 3.97612,-10.16354 5.30892,-12.59514c1.66081,-3.03008 4.11849,-5.91244 5.90668,-7.65135c1.21988,-1.1863 2.08887,-1.74605 2.33518,-1.82835c0.74126,-0.24769 1.66563,-0.13991 1.7701,-0.12747c0.7719,0.09191 0.24617,5.42206 0.85274,8.7966c0.45021,2.50468 1.82751,4.32591 1.95223,4.19399c0.42804,-0.45277 2.00699,-2.76054 4.17624,-4.77145c2.7051,-2.50765 6.15911,-4.83709 7.48584,-5.81659c6.2879,-2.9726 10.67682,0.70311 14.7546,5.44648c4.11201,4.81996 7.4951,10.21676 10.04138,16.01818c0.71192,1.5894 1.99501,3.38574 0.69535,5.03309c-0.54041,0.69154 -3.82989,0.49113 -4.69372,0.40563c-4.22183,-0.42219 -8.43542,-0.95199 -14.02315,-1.59768c4.64404,5.62084 7.3841,10.88575 8.41887,16.96187c0.53023,3.81984 0.66067,7.68453 0.38909,11.53143c-0.05791,1.41558 -0.46354,2.83112 -2.08606,3.1871c-1.44869,0.32283 -2.21028,-0.82781 -2.96359,-1.81291c-3.67533,-4.91974 -8.05887,-9.11861 -12.93505,-13.45324zM252.39616,201.27769c-0.21525,-2.6821 -0.2401,-4.55294 -0.54639,-6.37415c-1.20031,-7.1109 -4.81784,-12.81454 -10.32279,-17.38408c-0.82783,-0.70364 -1.81293,-1.4321 -1.44043,-2.72349c0.41391,-1.42382 1.65568,-1.76324 2.93876,-1.75495c1.28311,0.0083 2.76488,-0.05791 4.13907,0.05796c4.68543,0.39733 9.37084,0.82778 14.66057,1.34932c-3.56788,-7.20198 -7.27645,-13.41885 -12.80626,-18.37747c-1.86258,-1.65561 -4.02312,-2.55795 -6.4238,-1.16722c-3.9073,2.26369 -12.05943,9.78287 -15.18631,10.79352c-0.0844,0.02726 -1.76027,-3.0233 -2.23593,-6.47148c-0.48663,-3.52777 -0.61436,-6.10683 -0.63241,-6.08694c-0.23245,0.2562 -0.95549,0.36572 -2.57048,2.52487c-0.71998,0.96254 -4.38911,7.11206 -6.71939,12.87626c-0.63945,1.58177 -3.04566,7.27113 -2.70031,7.72356c0.06729,0.08818 5.23447,-0.29143 8.97204,0.29687c3.13467,0.49339 5.88015,1.85503 7.40215,3.07395c7.23721,5.79605 19.1548,17.19576 23.44716,21.61862z" fill="#000000"/><path d="M252.46946,201.32213c-4.29237,-4.42284 -16.36364,-15.8805 -23.60085,-21.67655c-1.522,-1.21893 -4.27157,-2.61383 -7.40625,-3.10724c-3.73757,-0.5883 -8.90477,-0.20838 -8.97206,-0.29655c-0.34535,-0.45241 2.068,-6.17569 2.70745,-7.75745c2.33029,-5.76418 6.03576,-11.9599 6.75575,-12.92248c1.615,-2.15915 2.34953,-2.27569 2.58196,-2.53186c0.01803,-0.01989 0.25071,2.73588 0.73734,6.2636c0.47566,3.44817 2.02788,6.3347 2.11228,6.30743c3.12689,-1.01065 11.36984,-8.55132 15.27717,-10.81501c2.4007,-1.39073 4.58721,-0.47816 6.44981,1.17747c5.5298,4.95864 9.29035,11.25377 12.85821,18.45575c-5.28971,-0.52152 -10.17255,-0.90143 -14.85796,-1.29874c-1.37421,-0.11588 -2.8446,-0.02911 -4.12773,-0.0374c-1.28309,-0.0083 -2.36173,0.20585 -2.77562,1.62969c-0.37252,1.29141 0.6359,2.09278 1.46372,2.79643c5.50493,4.56952 9.08555,10.34502 10.28588,17.45591c0.30631,1.82119 0.32043,3.69979 0.53569,6.38193z" fill="#50a5eb"/><path d="M252.44286,201.40589c-4.29237,-4.42284 -16.36362,-15.88052 -23.60083,-21.67657c-1.52198,-1.21893 -4.27161,-2.61379 -7.40628,-3.10719c-3.73755,-0.58832 -8.90475,-0.20841 -8.97204,-0.29661c-0.34535,-0.45243 2.06799,-6.17569 2.70745,-7.75745c1.07586,-2.66116 2.44479,-5.41433 3.67777,-7.70205c0.36474,2.46044 -0.14781,6.73331 2.02514,9.58917c2.58347,3.39537 7.93907,5.2347 8.77987,5.8856c5.83694,4.51881 14.64761,13.39245 16.8466,16.85618c1.09323,1.82552 5.12257,5.44273 5.93607,7.83383c0.0099,0.13135 0.02024,0.26465 0.0311,0.39995z" fill="#3e7fb5"/><path d="M252.46625,201.32451c-0.72582,-0.74786 -4.16586,-8.67382 -6.17166,-11.98345c-2.48574,-4.47395 -6.77675,-7.66958 -9.88615,-11.58902c-0.76486,-0.98919 -3.2459,-3.36222 -2.92904,-4.38068c0.98478,-3.16533 8.34876,-4.75888 9.68192,-5.056c3.32293,-0.74055 6.87105,-0.67744 6.87105,-0.86312c0,-0.08705 -0.54426,-6.48956 -6.68345,-6.37926c-4.62303,0.08305 -14.375,7.67962 -16.73122,7.68877c-3.33143,0.01291 -5.15993,-12.53907 -4.66745,-13.19749c1.61502,-2.15915 2.34957,-2.27572 2.582,-2.5319c0.01805,-0.0199 0.25071,2.73588 0.73734,6.26361c0.47565,3.44817 2.02788,6.3347 2.11228,6.30743c3.12686,-1.01065 11.36982,-8.55132 15.27716,-10.81499c2.40068,-1.39075 4.58723,-0.47819 6.44983,1.17744c5.52982,4.95862 9.29033,11.25377 12.85819,18.45575c-5.28971,-0.52154 -10.17253,-0.90143 -14.85794,-1.29874c-1.37419,-0.11588 -2.84462,-0.02912 -4.12775,-0.03742c-1.28309,-0.0083 -2.36171,0.20589 -2.77562,1.62971c-0.3725,1.29139 0.63594,2.09277 1.46375,2.79641c5.50495,4.56953 9.08555,10.34502 10.28586,17.45591c0.30629,1.82119 0.32041,3.69979 0.53566,6.38193z" fill="#66ffff"/><path d="M225.26963,159.29597c0.11584,0.83972 0.29549,1.6461 0.50228,2.38523c-1.17678,-1.64204 -2.74606,-3.70971 -3.90014,-5.6137c0.0049,-0.2644 0.03085,-0.43952 0.07851,-0.50326c1.61502,-2.15915 2.34955,-2.27572 2.582,-2.5319c0.01805,-0.01989 0.25069,2.7359 0.73734,6.26363z" fill="#ccffff"/><path d="M252.46627,201.32455c-0.37405,-0.38539 -1.46888,-2.67701 -2.71676,-5.26077c0.02088,-2.54312 -1.37093,-5.9565 -1.91392,-7.54167c-1.51867,-3.19942 -2.97678,-6.68783 -4.83287,-9.84538c4.75076,4.37422 7.85214,9.77123 8.95264,16.29074c0.30629,1.82119 0.32041,3.69979 0.53566,6.38193z" fill="#ccffff"/><path d="M261.96703,174.42163c-0.9201,-0.0907 -1.82794,-0.17715 -2.72452,-0.26015c-2.37088,-5.3088 -5.98146,-9.49291 -9.63237,-14.12108c-1.088,-1.24655 -4.2372,-3.45615 -6.52768,-5.47477c2.23463,-1.0575 4.27394,-0.15759 6.02645,1.4002c5.5298,4.95862 9.29033,11.25377 12.85819,18.45575z" fill="#ccffff"/></g><g stroke="none" stroke-width="2.5"><path d="M195.57452,189.84026c-2.06996,-3.81555 -4.7456,-10.50624 -4.7456,-10.50624c0.34822,-0.00085 26.65438,-3.76739 32.26301,-2.239c2.24113,0.61075 15.42588,12.59053 15.42591,12.59089c0.01812,0.12348 -1.35393,2.47449 -1.24347,2.86757c-0.45847,2.42233 -0.94825,3.90264 0.8885,5.57614c3.74172,3.41059 3.22849,6.10927 -1.46521,8.46852c-7.45029,3.75826 -15.46351,4.81786 -23.70854,4.21356c-7.00005,-0.512 -13.93225,-1.71541 -20.6953,-3.59269c-0.46059,-0.07381 -1.95649,-0.62722 -3.47349,-1.39242c-0.67144,-0.33867 -2.26378,-0.90306 -3.2244,-1.94533c-0.36013,-0.39073 -0.86497,-1.00482 -1.15445,-1.58721c-0.55871,-1.12396 -0.77305,-2.26698 -0.80533,-2.42021c-0.06592,-0.31275 0.0253,-1.11356 0.12752,-1.28414c1.00404,-1.6758 2.69997,-6.10693 5.6539,-8.14224c1.83924,-1.26727 5.07694,-0.81375 6.15696,-0.60728zM221.03734,180.77164c-3.63611,-0.53523 -25.86871,1.75685 -25.86871,1.75685c1.25449,1.92874 4.26605,6.40892 4.73791,9.07136c0.23499,1.32578 -1.54228,1.67722 -1.91191,1.7145c-0.5831,0.05882 -1.26463,0.05789 -1.94472,-0.11294c-0.71443,-0.17947 -1.42936,-0.53048 -2.11591,-0.51679c-1.10948,0.02215 -2.00648,0.9543 -2.37759,1.24801c-1.07438,0.85021 -5.726,6.32265 -4.08693,7.06768c10.56547,4.83888 23.93684,6.57991 35.49983,5.42183c4.1288,-0.39139 8.14289,-1.57758 11.82118,-3.49334c1.65563,-0.82781 2.0447,-1.85432 0.23179,-2.88079c-2.0364,-1.15894 -2.63239,-2.97185 -1.87084,-4.91721c1.84683,-4.7182 -3.73307,-13.12552 -12.11407,-14.35915z" fill="#000000"/><path d="M221.06308,180.67269c8.38102,1.23366 14.0033,9.73103 12.15646,14.44925c-0.76155,1.94538 -0.16887,3.77841 1.86751,4.93735c1.81291,1.02647 1.42012,2.06414 -0.23551,2.89195c-3.67829,1.91576 -7.71955,3.14078 -11.84835,3.53215c-11.56299,1.15809 -25.10131,-0.63017 -35.66676,-5.46906c-1.63907,-0.74505 3.0082,-6.24601 4.08258,-7.09623c0.37115,-0.2937 1.26826,-1.23298 2.37777,-1.25511c0.68655,-0.01371 1.60701,0.34686 2.32144,0.52631c0.68009,0.17083 1.15595,0.16519 1.73909,0.10637c0.36963,-0.0373 2.14845,-0.40394 1.91348,-1.72972c-0.47185,-2.66245 -3.46729,-7.18211 -4.72178,-9.11083c0,0 22.378,-2.31768 26.01408,-1.78245z" fill="#fddfbd"/><path d="M221.03866,180.68565c8.38102,1.23366 14.00328,9.73102 12.15646,14.44925c-0.76155,1.94538 -0.16889,3.77841 1.86749,4.93735c1.81291,1.02647 1.42012,2.06414 -0.23551,2.89195c-0.5977,0.31131 -1.20499,0.60439 -1.82073,0.87862c-0.28811,-0.14705 -2.95656,-1.3248 -3.25516,-2.96341c-0.62186,-3.41239 0.74751,-10.7285 -2.5894,-13.60777c-1.96434,-1.66804 -8.90158,-2.40214 -15.0495,-2.00842c-4.61181,0.29534 -8.66915,1.55065 -10.45698,1.73193c-0.6014,0.06099 3.45038,4.43463 1.58686,7.06928c-0.59802,0.84547 -2.35717,2.00384 -4.82331,2.72872c-1.04876,0.30827 -2.74179,-0.35701 -3.68635,0.30036c-1.52184,1.05917 -2.7911,5.05789 -3.10037,5.68799c-1.48412,-0.53194 -2.92793,-1.11659 -4.32019,-1.75422c-1.63907,-0.74503 3.00822,-6.24599 4.0826,-7.09622c0.37115,-0.2937 1.2683,-1.23298 2.37778,-1.25513c0.68655,-0.01371 1.60701,0.34686 2.32142,0.52631c0.68009,0.17085 1.15597,0.16519 1.73909,0.10637c0.36963,-0.03728 2.14847,-0.40394 1.91351,-1.72972c-0.47187,-2.66245 -3.46729,-7.1821 -4.72178,-9.11083c0,0 22.378,-2.31768 26.01408,-1.78245z" fill="#f89587"/></g><path d="M205.89947,197.38316c0.64724,-0.34626 2.34825,1.70286 4.02006,2.76394c1.84756,1.17259 3.71884,1.3859 5.41175,1.3286c0,0 1.54481,-0.03477 1.57956,1.51004c0.03477,1.54483 -1.51004,1.57959 -1.51004,1.57959c-2.24081,0.02968 -5.18201,-0.75717 -7.29489,-2.15949c-1.70142,-1.12925 -3.56891,-4.29376 -2.20644,-5.02264z" fill="#000000" stroke="none" stroke-width="2.5"/><path d="M234.42867,177.27979c-0.20216,0.26738 -3.49348,3.45976 -6.41212,6.28711c-1.72994,1.67583 -3.49323,3.34362 -3.95704,3.87054c-1.47566,0.85687 -2.86212,3.05449 -4.04707,2.95036c-1.2873,-0.1131 -8.60375,-7.25607 -11.90991,-10.53371c-4.03857,-4.00368 -7.22185,-8.32081 -6.53859,-8.7911c0.45181,-0.31096 0.83812,-0.46169 1.2393,-0.44941c0.85911,0.02631 1.64883,0.68885 2.32733,1.34344c0.52531,0.49667 1.07831,0.9851 1.60363,1.48177c0.42402,0.40189 4.36637,3.5523 5.73778,4.6758c1.0912,1.04178 8.3303,6.66495 8.3303,6.66495c0,0 2.33136,-2.71276 5.21418,-5.07904c3.53868,-2.90463 7.83242,-5.61641 8.73698,-6.18042c1.11429,-0.69485 1.79894,-1.33812 2.44004,-1.47205c-0.0737,2.29303 -1.61283,3.70861 -2.76485,5.23178z" fill="#000000" stroke="none" stroke-width="2.5"/><g stroke="none" stroke-width="2.5"><path d="M222.88575,191.79474c0,-3.65673 1.15995,-6.62111 2.59079,-6.62111c1.43085,0 2.59081,2.96436 2.59081,6.62111c0,3.65673 -1.15997,6.62107 -2.59081,6.62107c-1.43085,0 -2.59079,-2.96432 -2.59079,-6.62107z" fill="#000000"/><path d="M224.57752,192.045c0,0.71117 -0.57653,1.28769 -1.28769,1.28769c-0.71117,0 -1.28769,-0.57653 -1.28769,-1.28769c0,-0.71117 0.57653,-1.28769 1.28769,-1.28769c0.71119,0 1.28769,0.57653 1.28769,1.28769z" fill="#ffffff"/><path d="M226.95381,195.25215c0,-0.27033 -1.01047,2.46883 -1.49882,2.45572c-0.53804,-0.01438 -1.48373,-2.7952 -1.48373,-2.49733c0,0.16733 0.69558,0.9337 1.41836,0.94469c0.7816,0.01187 1.56421,-0.72209 1.56421,-0.90308z" fill="#0053ad"/></g><g stroke="none" stroke-width="2.5"><path d="M214.78761,185.81351c1.43085,0 2.59079,2.96436 2.59079,6.62111c0,3.65671 -1.15994,6.62109 -2.59079,6.62109c-1.43085,0 -2.59081,-2.96434 -2.59081,-6.62109c0,-3.65671 1.15995,-6.62111 2.59081,-6.62111z" fill="#000000"/><path d="M212.73136,193.25894c-0.71119,0 -1.28769,-0.57655 -1.28769,-1.2877c0,-0.71117 0.57653,-1.28769 1.28769,-1.28769c0.71119,0 1.28769,0.57653 1.28769,1.28769c0,0.71117 -0.57653,1.2877 -1.28769,1.2877z" fill="#ffffff"/><path d="M216.26484,195.89203c0,-0.27035 -1.01047,2.46883 -1.49884,2.45574c-0.53804,-0.01442 -1.48369,-2.7952 -1.48369,-2.49735c0,0.16734 0.69556,0.93372 1.41834,0.9447c0.78162,0.01187 1.56421,-0.72207 1.56421,-0.90308z" fill="#0053ad"/></g><g stroke="none" stroke-width="2.5"><path d="M179.40206,203.74207c-0.16026,-0.96532 -2.34394,-20.79843 -2.1447,-21.91337c0.1617,-0.90493 15.71321,-2.5483 15.73801,-2.50874c0,0 7.78905,11.73176 7.14339,12.92381c-0.75331,1.3825 -3.61117,1.36655 -4.71217,0.86988c-5.00826,-2.3841 -10.92444,12.30331 -11.10759,12.52573c-1.79634,2.16059 -4.46993,0.80136 -4.91695,-1.8973zM180.61437,185.78111c0.71192,4.01488 1.60192,8.09267 2.55389,13.42376c0.33821,-0.58266 6.91855,-9.17513 7.59602,-9.74481c1.22046,-1.02622 4.056,-0.0386 4.48175,0.04281c-1.43146,-2.63861 -2.80146,-6.54493 -3.46674,-6.71642c-1.01214,-0.26091 -11.22923,1.51168 -11.22717,1.52366z" fill="#000000"/><path d="M180.47597,184.24098c-0.00208,-0.01198 10.33519,-1.80837 11.34734,-1.54748c0.66524,0.17151 2.09211,4.15048 3.52357,6.78911c-0.42575,-0.08141 -3.27131,-1.09702 -4.49174,-0.07078c-0.67749,0.56966 -7.40002,9.29961 -7.73823,9.88227c-0.95199,-5.33109 -1.87437,-9.55787 -2.58629,-13.57275z" fill="#50a5eb"/><path d="M183.09904,199.3021c-0.31176,-1.74571 -0.62029,-3.37303 -0.91934,-4.91324c1.11408,-0.68623 6.66111,-7.15393 7.79651,-8.02488c0.69285,-0.47894 2.48465,0.09535 4.27608,0.9426c0.35035,0.75828 0.71338,1.51431 1.07671,2.18404c-0.42575,-0.08141 -3.27129,-1.09702 -4.49175,-0.07078c-0.67749,0.56966 -7.40002,9.29964 -7.73823,9.8823z" fill="#66ffff"/><path d="M180.47595,184.24098c-0.00208,-0.01198 10.33521,-1.80837 11.34734,-1.54746c0.35879,0.09247 0.93904,1.2923 1.62209,2.79208c-0.60968,-0.07068 -1.04248,-1.49245 -4.60729,-0.69474c-1.65219,0.3697 -6.93884,2.60735 -7.89451,3.17208c-0.14399,-0.75805 -0.28201,-1.50342 -0.41291,-2.24161z" fill="#3e7fb5"/><path d="M183.11698,199.29406c-0.04068,-0.22776 0.26073,-1.93554 1.30248,-3.66939c1.61002,-2.67968 4.46886,-5.89733 6.53588,-7.50001c0.73672,-0.57119 4.0803,0.78418 4.39154,1.35794c-0.42575,-0.08141 -3.27129,-1.09702 -4.49174,-0.07078c-0.67745,0.56966 -7.39998,9.29961 -7.73819,9.88227z" fill="#ccffff"/></g></g><path d="M269.42535,181.80655c0,-0.65869 0.60532,-10.94217 0.70594,-21.9051c0.01883,-2.051 2.58146,-31.70786 -0.97842,-33.84317c-0.40566,-0.24332 -21.45033,0.64557 -45.11707,0.99224c-14.77591,0.21642 -33.14343,-0.50876 -44.40633,-0.44844c-4.6808,0.02507 -23.61148,-0.70943 -24.07222,-0.72593c-1.16051,-0.04157 -0.10594,63.03218 1.22972,94.28415c0.62204,14.5543 0.98581,9.11423 1.79361,10.90559c0.97251,2.15662 12.38732,1.86961 25.07076,2.47032c6.15468,0.2915 27.3738,1.83175 44.05297,1.68684c9.26292,-0.08047 17.4075,-1.67742 20.12095,-1.91711c8.39516,-0.7416 17.43396,-1.70446 19.46709,-1.95508c3.21534,-0.39634 5.15162,-0.6346 5.15162,-0.6346c0,0 0.82516,-2.46778 0.7184,-5.26787c-0.14464,-3.79372 -3.73698,-43.46292 -3.73698,-43.64178zM206.22973,238.66113c-1.61915,0.20492 -16.48258,-0.90942 -26.86224,-1.25514c-9.55221,-0.31818 -15.51475,0.55521 -22.25105,-0.27063c-4.23932,-0.51971 -4.91898,-3.88102 -4.96699,-3.8935c-0.25276,-0.06562 -2.27754,-9.83174 -2.58063,-23.77742c-0.25338,-11.659 0.42991,-26.842 0.56685,-40.67664c0.24694,-24.94803 0.2908,-47.10477 1.02807,-47.61184c1.26515,-0.87015 5.34544,-0.29976 5.53241,-0.28844c9.5148,0.57598 35.49643,1.87811 35.5411,1.8777c36.60821,-0.36014 77.66771,-2.03601 77.66771,-1.91414c0,0.00822 3.60167,-0.31872 4.58262,4.75434c1.42439,7.36642 0.47337,20.58515 0.09628,27.90833c-0.47737,9.27077 -1.54481,20.42593 -1.39486,25.10245c0.51273,15.99148 2.34214,23.95824 2.87494,31.99608c0.30626,4.62052 0.62373,9.88474 0.65809,13.35915c0.05198,5.26162 -1.24788,8.71387 -1.97335,9.11099c-2.11347,1.15693 -14.71171,4.09266 -28.90659,5.12118c-17.26902,1.25125 -36.6775,0.48483 -39.6123,0.45758z" fill="#000000" stroke="none" stroke-width="0.5"/><path d="M124.91905,263.1241v-166.2482h390.16189v166.2482z" fill="none" stroke="url(#color-3)" stroke-width="0"/><path d="M124.91906,263.1241v-166.2482h390.16189v166.2482z" fill="none" stroke="url(#color-4)" stroke-width="0"/></g></g></svg>